<?xml version="1.0" encoding="utf-8" ?>
<svg baseProfile="full" height="300mm" version="1.1" viewBox="0,0,200,300" width="200mm" xmlns="http://www.w3.org/2000/svg" xmlns:ev="http://www.w3.org/2001/xml-events" xmlns:xlink="http://www.w3.org/1999/xlink"><defs /><rect fill="#222222" height="300" width="200" x="0" y="0" /><text fill="#FFFFFF" style="font-size:12px; font-family:Arial; font-weight:bold;" x="10" y="20">Over 10km Runs</text><text fill="#FFFFFF" style="font-size:4px; font-family:Arial" x="10" y="280">Runner</text><text fill="#FFFFFF" style="font-size:9px; font-family:Arial" x="10" y="290">Yanfu</text><text fill="#FFFFFF" style="font-size:4px; font-family:Arial" x="65" y="280">SPECIAL TRACKS</text><rect fill="yellow" height="2.6" width="2.6" x="65" y="283" /><text fill="#FFFFFF" style="font-size:3px; font-family:Arial" x="70" y="285.5">Over 20.0 km</text><rect fill="red" height="2.6" width="2.6" x="65" y="287" /><text fill="#FFFFFF" style="font-size:3px; font-family:Arial" x="70" y="289.5">Over 40.0 km</text><text fill="#FFFFFF" style="font-size:4px; font-family:Arial" x="120" y="280">STATISTICS</text><text fill="#FFFFFF" style="font-size:3px; font-family:Arial" x="120" y="285">Number: 3</text><text fill="#FFFFFF" style="font-size:3px; font-family:Arial" x="120" y="290">Weekly: 1.5</text><text fill="#FFFFFF" style="font-size:3px; font-family:Arial" x="141" y="285">Total: 30.4 km</text><text fill="#FFFFFF" style="font-size:3px; font-family:Arial" x="141" y="290">Avg: 10.1 km</text><text fill="#FFFFFF" style="font-size:3px; font-family:Arial" x="167" y="285">Min: 10.1 km</text><text fill="#FFFFFF" style="font-size:3px; font-family:Arial" x="167" y="290">Max: 10.2 km</text><polyline fill="none" opacity="1" points="14.5,98.2461221695412 14.822358900099061,97.27875837555621 15.320549927535467,96.34070850620628 15.642908827867359,95.16814598997007 15.730824891477823,94.81637719619903 16.229015919030644,93.90764106230927 17.049565846682526,93.3506736952695 17.22539797401987,92.14879659167491 17.63567293784581,91.50388683981146 17.958031837944873,91.15211785881547 18.075253256130964,90.38995167153189 18.28039073816035,88.92424722804572 18.19247467443347,88.51384992784006 18.807887120288797,87.54648476632428 18.7199710564455,86.28597844240721 18.983719247509725,85.61175403470406 18.895803183782846,84.52713202271843 19.335383502184413,84.05810623476282 19.423299565794878,82.91485574247781 19.423299565794878,81.91817567084217 19.628437047824264,80.8628672019986 20.566208393662237,79.74893030885141 20.683429811848328,79.51441725564655 20.771345875575207,79.1333335271047 20.829956584610045,78.37116600666195 21.416063675889745,77.84351151980809 22.031476121628657,76.70025999227073 22.67619392182678,75.5570082741906 23.43813314032741,75.05866772198351 24.405209840857424,74.5310129802383 25.929088277742267,73.8861015738803 27.306439942214638,73.12393347013858 28.214905933476985,72.74284938638448 28.859623733675107,72.30313695580116 30.412807525368407,71.42371200991329 31.262662807595916,70.77880031109089 32.229739508009516,70.133888551587 32.96237337193452,69.43034838102176 33.958755426923744,68.40435216930928 34.54486251808703,67.73012600353104 35.043053545523435,67.2024706969969 35.922214182442985,66.20578834041953 36.215267727850005,65.79538968077395 36.97720694646705,64.62282194604632 38.20803183794487,63.42093980926438 38.618306801770814,63.098483590292744 39.233719247509725,62.71739894821076 39.93704775697552,62.04317222174723 40.78690303908661,61.574144894548226 40.9041244572727,60.841289631294785 41.548842257470824,60.34294800736825 42.31078147608787,59.87392056340468 43.36577424022835,59.84460634709103 43.74674384947866,59.87392056340468 45.036179450224154,59.87392056340468 45.68089725042228,59.63940682934481 46.12047756870743,59.72734948055586 46.47214182349853,60.196376934618456 46.941027496475726,60.28431957869907 47.43921852391213,60.255005364102544 47.93740955146495,60.07912007407867 48.67004341527354,59.90323477963102 50.07670043408871,60.225691149389604 50.95586107100826,60.40157643562998 52.12807525333483,60.225691149389604 51.65918958024122,60.430890649557114 53.82778581767343,61.25168858835241 55.02930535457563,61.574144894548226 55.90846599149518,61.98454380762996 57.49095513753127,62.805341559811495 57.930535455816425,63.18642619700404 58.45803183794487,63.68476761353668 59.073444283683784,64.32967998096137 59.39580318389926,64.68145033757901 59.600940665695816,65.09184906404698 60.39218523888849,65.61950453335885 61.00759768451098,66.46961603721138 61.65231548482552,67.17315651217359 62.179811866837554,67.40766998776235 63.23480463097803,66.17647415128886 63.82091172225773,65.26773422502447 64.34840810426977,64.21242319143494 65.05173661361914,62.74671315224259 65.43270622286946,61.486202267115004 65.81367583211977,60.196376934618456 65.96020260488149,59.141065117757535 65.93089725042228,58.613409148179926 65.93089725042228,57.47015440746327 65.8429811866954,55.94581445530639 65.54992764105555,55.15433011503774 65.78437047754414,54.128331759508 66.22395079594571,53.336847208382096 67.39616497827228,53.10233324961155 68.6269898697501,53.30753296401235 70.44392185239121,53.89381782806595 71.26447178015951,54.27490296261385 72.40738060779404,54.59735959832324 72.87626628077123,55.21295858779922 74.2829232995864,56.15101408405462 75.57235890009906,57.14769790752325 76.09985528222751,57.70466821602895 77.03762662806548,59.258321994391736 77.00832127348986,60.430890649557114 76.62735166423954,61.04648911289405 76.6859623733908,61.368945428781444 76.83248914615251,62.0138580147468 77.27206946455408,62.805341559811495 77.68234442838002,63.74339601310203 77.56512301007751,64.56419355404796 77.47720694635063,65.44361938151997 78.2684515195433,66.11784577256185 79.58719247463159,66.76275791053195 80.08538350218441,67.02658558584517 80.87662807537708,67.64218345528934 82.57633863971569,68.11121036627446 83.16244573076256,68.31640962968231 84.10021707671694,68.55092306609731 84.97937771340366,68.72680813807528 85.94645441393368,69.07857826858526 87.2945007235976,69.84074682262144 87.88060781476088,70.33908775437158 88.3787988423137,70.54428695104434 88.8769898697501,70.89605698816013 89.46309696091339,71.86342449689982 89.69753979740199,72.80147770832991 89.99059334292542,73.12393347013858 90.72322720696684,73.76884494809201 91.7782199709909,74.56032713357126 92.18849493481684,75.00003941933392 92.68668596236967,75.32249507764936 93.85890014469624,76.28986196150072 94.32778581767343,76.99340142775327 94.73806078149937,77.1986004250939 94.767366136075,76.81751656797132 95.5,76.02603464311687 94.56222865416203,75.02935357074603 93.62445730820764,74.237871439429 93.09696092607919,73.8861015738803 92.71599131694529,73.47570337468642 91.71960926195607,72.50833609359688 91.39725036174059,72.1565661393397 90.78183791600168,71.77548200185993 90.66461649781559,71.3650836761517 89.96128798846621,70.30977358296514 89.93198263389058,70.01663186153746 88.73046309698839,69.31309167883592 87.79269175115041,68.40435216930928 86.85492040519603,67.73012600353104 86.23950795945711,67.08521395677235 84.97937771340366,66.96795721448143 84.53979739511851,66.96795721448143 83.42619392182678,67.05589977133786 82.66425470332615,66.93864302858128 81.0231548481388,66.32304509583628 79.96816208388191,66.235102529492 79.7044138929341,65.79538968077395 79.17691751092207,64.3589941780956 79.44066570198629,63.655453413550276 79.88024602027144,62.453571106656455 79.79232995666098,61.13443174600252 79.79232995666098,59.96186321161804 79.46997105632909,58.99449401916354 78.85455861070659,58.173695809033234 77.53581765550189,57.030440994683886 76.4515195369022,56.180328316258965 75.25,55.53541517924168 74.69319826352876,54.978444693639176 73.9312590447953,54.3628456829756 73.02279305353295,54.128331759508 71.9971056439681,53.571361159032676 71.70405209832825,53.336847208382096 71.38169319822919,52.897133529157145 70.35600578866433,52.63330530800158 69.41823444294278,52.39879132507485 68.65629522432573,52.19359158340376 67.77713458740618,51.900449084554566 66.57561505073681,51.900449084554566 65.25687409553211,51.84182058330043 64.2897973950021,51.753877830458805 63.732995658530854,51.87113483401481 63.088277858216316,52.01770608560764 62.795224312576465,52.48673406965099 62.82452966726851,53.07301900428138 63.000361794489436,53.659303888474824 63.293415340129286,54.18696024114615 63.82091172225773,54.8611877435178 64.172575976816,55.300901296082884 64.43632416788023,56.180328316258965 64.46562952245586,57.00112676617573 64.34840810426977,57.64603976462968 64.55354558606632,58.78929447589326 64.46562952245586,60.28431957869907 64.02604920393787,61.632773312187055 63.43994211277459,63.06916938783252 62.44356005778536,63.86065281063202 61.535094066523015,63.97790960627026 60.568017366109416,63.47956821109983 59.86468885676004,63.06916938783252 59.4544138929341,62.86396996694384 58.63386396528222,62.101800635427935 57.98914616496768,61.7793443541741 57.34442836465314,61.456888057640754 56.5531837916933,61.10511753510218 56.172214182442985,61.04648911289405 55.67402315477375,60.81197541914298 55.05861070903484,60.6947185692552 54.47250361798797,60.07912007407867 53.739869753830135,60.07912007407867 53.41751085373107,60.07912007407867 51.62988422566559,58.7599802549521 51.30752532556653,58.40820959338453 50.45767004345544,57.76329666690435 49.08031837909948,57.382211727206595 48.34768451517448,57.67535399046028 47.58574529667385,58.14438158538542 46.618668596376665,58.43752381589729 46.061866859556176,58.52546648259158 45.21201157744508,58.11506736165029 44.59659913170617,58.320266925235046 43.89327062224038,58.40820959338453 43.45369030395523,58.64272336976137 43.24855282204226,59.08243667866918 43.36577424022835,59.63940682934481 43.65882778575178,59.87392056340468 44.83104196819477,60.07912007407867 45.00687409553211,59.84460634709103 44.33285094064195,59.55146417702781 43.21924746746663,59.49283574146102 41.69536903046537,59.75666369742248 40.93342981196474,60.46020486330963 40.58176555717364,61.42757384819561 40.112879884196445,61.80865856222226 39.11649782920722,62.42425690143136 38.647612156230025,62.74671315224259 37.29956584656611,63.94859540753532 36.33248914626893,64.97459228755906 35.746382054989226,65.79538968077395 35.130969609250315,66.52824441288249 34.69138929084875,66.90932884250651 34.193198263295926,67.5542409059126 33.75361794512719,68.11121036627446 32.55209840810858,69.07857826858526 31.32127351674717,70.33908775437158 30.412807525368407,71.10125616809819 28.88892908836715,71.892738661787 27.95115774241276,72.56696441760869 27.277134587522596,72.8894201903604 26.36866859626025,73.2998184247117 25.48950795957353,73.56364584810217 24.522431259043515,74.1206148195779 23.1743849493796,74.82415450844564 22.73480463109445,74.94141111618956 21.97286541236099,75.61563657203806 21.15231548482552,76.14329123028438 20.829956584610045,76.72957413637778 20.21454413898755,77.8728256590257 19.9214905933477,78.19528118221206 19.393994211335666,79.54373138779192 19.218162083881907,80.9214954545314 19.100940665695816,81.59572032251162 19.013024601968937,82.7682851527934 18.837192474631593,83.764965101087" stroke="#4DD2FF" stroke-dasharray="none" stroke-linecap="round" stroke-linejoin="round" stroke-width="0.5"><title>2026-06-20 10.1km</title><desc>9223370254938036107</desc></polyline><polyline fill="none" opacity="1" points="107.86373748607002,83.14151696942281 108.43437152390834,82.7810086151585 108.46440489427187,82.42050024250057 108.55450500559527,82.15011895087082 108.94493882090319,81.81965291360393 108.97497219126672,81.06859368033474 109.7858731924789,80.55787335592322 110.32647385983728,79.47634784050751 110.92714126803912,78.1845254789223 112.03837597323582,77.43346585717518 113.26974416023586,76.92274526850088 114.08064516133163,76.53219420503592 114.59121245832648,76.35193986084778 115.58231368183624,75.81117680016905 116.12291434942745,75.57083764870185 117.68464961065911,74.66956575756194 118.19521690765396,74.4292265670374 119.30645161296707,73.61808173829922 120.74805339262821,72.56659756152658 121.73915461625438,71.69536769558908 122.36985539481975,70.9443073795992 122.58008898771368,70.6438832305721 123.18075639591552,70.16320456552785 124.38209121243563,68.93146533588879 125.10289210244082,67.69972588983364 125.70355951064266,67.18900459259748 125.91379310342018,66.9486651456682 126.45439377089497,66.107477016747 127.17519466078375,65.50662829133216 128.22636262513697,64.78560975281289 128.76696329261176,64.21480335725937 129.60789766407106,63.734124251117464 130.2085650722729,62.442298989975825 131.28976640710607,62.08178957219934 132.5211345939897,62.11183202441316 133.4521690767724,62.05174711992731 134.2931034482317,62.05174711992731 135.13403781980742,62.502383891202044 136.395439377171,62.56246879178798 137.23637374863029,62.3221291861264 137.5367074527312,62.201959380239714 137.86707452742849,62.201959380239714 139.60901001107413,62.74272349057719 140.75027808675077,62.71268104115734 141.41101223579608,62.502383891202044 141.74137931026053,62.953020633372944 142.52224694099277,63.22340266476385 143.24304783099797,63.643996915081516 144.71468298125546,63.97446380829206 145.67575083428528,64.48518533987226 146.51668520574458,64.90577951440355 147.02725250285584,65.44654341595015 147.5678531700978,66.16756188642466 148.43882091215346,67.15896216215333 149.24972191324923,67.94006531091873 150.00055617361795,68.63104110065615 150.93159065628424,69.11171987082344 151.65239154617302,69.68252586747985 152.16295884316787,69.29197440110147 152.9137931035366,68.81129564339062 153.3042269187281,67.75981074583251 153.3943270300515,67.24908945302013 154.0550611790968,65.83709509670734 154.6857619577786,64.0045062523568 154.98609566187952,62.922978184768 155.19632925477345,61.75132258964004 155.2563959956169,60.00886005972279 155.04616240272298,58.146227220247965 154.92602892103605,56.7642735025147 155.10622914345004,56.043254063115455 155.76696329261176,55.11193717713468 156.60789766407106,55.11193717713468 157.50889877637383,55.29219206800917 158.46996662963647,55.382319511671085 160.21190211363137,56.07329654128989 161.23303670762107,56.46384874521755 161.95383759727702,56.22350893000839 162.52447163523175,56.253551407309715 162.4043381535448,57.12478319439106 163.33537263632752,57.90588746283902 164.68687430478167,58.74707657750696 165.19744160189293,59.317883419047575 165.58787541720085,59.73847790417494 166.03837597335223,60.369369584310334 166.60901001119055,61.36077068099985 166.849276974448,62.26204428344499 166.60901001119055,62.74272349057719 166.21857619588263,63.25344511208823 166.51890989998356,63.97446380829206 166.96941045601852,64.69548243028112 167.35984427144285,66.37785892636748 167.1195773081854,66.88858028268442 167.5100111234933,67.78985317371553 168.26084538374562,68.45078655343968 169.3420467186952,69.20184713660274 169.73248053400312,69.56235618784558 170.21301446063444,69.86278038314776 170.99388209125027,70.1932469830499 172.4955506118713,70.55375598341925 173.81701890996192,70.85418013617164 174.68798665190116,71.12456186272902 175.88932146842126,71.54515563877067 176.85038932145108,72.02583420922747 177.84149054507725,72.8069368157303 178.5322580646025,73.34770010784268 179.25305895437486,74.12880256731296 179.52335928811226,74.72965055389795 179.79365962184966,75.15024411393097 180.36429365968797,75.63092243735446 180.7547274751123,76.17168551188661 181.08509454957675,76.59227898548124 181.8959955505561,77.25321153603727 183.03726362634916,78.1845254789223 183.93826473865192,79.02571215992793 184.62903225817718,79.86689874035073 184.9293659622781,79.6265597275924 185.1095661848085,78.99566978024086 185.46996662963647,78.4849493051297 185.1095661848085,78.00427117705112 183.9082313682884,77.22316914872499 183.42769744165707,76.74249093426624 182.6167964405613,76.0815583356889 182.28642936609685,75.69100722548319 181.83592880982906,75.00003213109449 181.11512791994028,74.36914176808205 180.69466073415242,74.24897216877434 180.27419354836456,73.22753049101448 179.40322580654174,72.11596143746283 178.59232480544597,71.45502840314293 178.14182424917817,70.9743497937452 177.72135706350673,70.61384081508731 176.55005561746657,70.1932469830499 176.24972191324923,69.89282280189218 175.288654060103,69.53231376764597 173.75695216911845,69.53231376764597 173.1562847608002,69.41214408539236 172.79588431597222,69.26193197973771 171.44438264751807,68.96150775864953 170.39321468316484,68.57095625210786 169.31201334809884,67.94006531091873 169.13181312568486,67.6396410332527 169.0717463849578,66.16756188642466 169.3420467186952,65.2062039092998 169.58231368183624,64.54527022351976 169.5222469411092,64.09463358373614 169.5522803114727,62.592511241848115 169.28197997773532,61.48094050132204 168.4110122359125,60.15907236392377 167.5100111234933,59.317883419047575 166.3687430479331,58.50673684076173 165.5578420467209,57.965972402947955 164.2363737487467,57.0346557731973 163.60567297006492,56.523933697724715 162.43437152402475,56.16342397488188 161.86373748607002,55.92308414931176 161.50333704124205,55.89304167055525 161.02280311461072,55.44240447343327 160.9026696329238,55.11193717713468 159.7914349277271,54.6012149611488 158.98053392663132,54.36087508191122 157.92936596216168,53.97032276040409 156.66796440491453,53.97032276040409 155.82703003345523,53.82011032325681 154.5055617352482,53.82011032325681 153.27419354836456,53.850152810977306 152.70355951052625,54.06045022117905 152.0728587320773,54.6012149611488 152.04282536159735,55.472446954168845 152.67352614027914,56.373721315467265 153.45439377089497,57.635505225975066 153.69466073426884,58.146227220247965 153.6646273637889,58.56682177569019 153.9349276975263,59.73847790417494 153.96496106788982,60.09898744261591 153.96496106788982,60.48953942168737 153.90489432704635,61.69123768201098 153.84482758620288,63.01310553011717 153.0339265851071,64.84569463389926 152.85372636269312,65.2062039092998 151.86262513906695,66.13751945167314 151.0517241380876,66.22764675563667 149.970522803138,65.7770102241193 148.79922135709785,65.05599171348149 148.34872080083005,64.63539754797239 147.4777530588908,64.12467602739343 146.93715239153244,63.88433647528291 146.03615127922967,63.49378468567738 145.4955506118713,63.19336021732306 144.92491657391656,63.043147978314664 144.23414905450772,62.772765939938836 143.63348164618947,62.53242634149501 142.67241379315965,62.53242634149501 142.10177975532133,62.38221408834215 141.26084538374562,62.11183202441316 140.57007786433678,61.150473490473814 140.05951056734193,60.48953942168737 139.48887652962003,60.129029903328046 138.5578420467209,59.97881759854499 137.62680756405462,59.82860529056052 136.72580645163544,60.219157284649555 135.7647385983728,60.549624339619186 135.31423804233782,60.48953942168737 134.6535038931761,60.429454503173474 133.9026696329238,60.39941204385832 133.18186874315143,60.60970925696893 132.8815350389341,60.45949696254684 132.4310344827827,60.69983663212042 132.0706340377219,61.39081313635688 132.3409343714593,61.96161976217991 133.362068965449,62.14187447645236 133.87263626244385,62.02170466748066 133.1518353727879,61.781365043250844 132.6112347051967,61.48094050132204 131.37986651842948,61.81140749674523 130.53893214685377,62.02170466748066 130.2085650722729,62.412256539217196 129.51779755286407,63.523827131837606 129.0973303670762,64.0045062523568 128.5266963293543,64.09463358373614 127.80589543946553,64.81565219350159 126.87486095668282,65.29633122525411 126.27419354836456,65.92722240457078 125.73359288100619,66.61819839279633 125.28309232473839,67.12891973159276 124.4421579532791,68.27053200145019 123.66129032266326,69.26193197973771 123.3309232480824,69.53231376764597 122.73025583976414,70.07307731214678 121.8592880978249,70.8842225507833 121.49888765299693,71.18464668944944 120.92825361515861,71.81553733872715 120.2675194661133,72.41638552333461 119.69688542827498,72.8069368157303 118.43548387091141,73.64812414103653 117.68464961065911,74.2790145688341 116.0027808676241,75.30045609356603 114.56117908796296,76.021473550878 113.1195773081854,76.47210942418315 112.48887652950361,76.80257571284892 111.25750834261999,77.37338108400581 110.5367074527312,78.00427117705112 109.6957730811555,78.72528835688718 108.97497219126672,79.80681398784509 108.76473859837279,80.16732249455526 108.34427141270135,80.67804284743033 107.8337041157065,81.66944107343443 107.44327030028217,82.75096625153674 107.23303670750465,84.46338077669498 107.20300333714113,85.3646514120046 107.20300333714113,86.38609132578131 107.47330367087852,86.6865148016368 106.90266963280737,87.55774280906189 106.99276974413078,88.24871666944819 106.8125695217168,88.75943643564824 106.75250278087333,89.78087585698813 106.33203559508547,90.50189183000475 106.03170189098455,91.04265376133844 106.12180200219154,92.15421982313273 105.94160177977756,92.72502394887852 105.76140155736357,93.32587034709286 105.64126807567663,93.95675901020877 105.13070077868178,94.67777455603937 105.01056729699485,95.75929773657117 104.5,96.23997465247521" stroke="#4DD2FF" stroke-dasharray="none" stroke-linecap="round" stroke-linejoin="round" stroke-width="0.5"><title>2026-06-16 10.1km</title><desc>9223370255286294807</desc></polyline><polyline fill="none" opacity="1" points="19.58467153296806,232.03791032370646 19.673357664374635,231.50563417075318 19.90985401463695,231.06207067871583 20.0872262774501,230.55936535343062 21.033211678965017,229.7609509381291 21.624452554853633,228.69639824103797 21.979197080247104,227.75012903945753 23.102554744575173,227.0108561356028 24.3145985401934,226.3898668353213 25.43795620428864,225.91673209285364 26.058759124134667,225.53231009075535 27.714233576552942,224.88174973087735 28.275912408833392,224.46775674269884 29.901824817527086,223.5510578948306 30.966058394289576,222.63435892539565 32.32591240876354,221.59937607168104 33.59708029194735,220.29825454979436 34.86824817524757,218.9379908783303 35.7255474452395,217.84386555667152 36.28722627740353,216.86802390724188 37.17408759123646,216.18789176695282 37.97226277377922,215.44861762531218 38.622627737233415,214.88676922459854 39.361678832094185,214.08835299743805 39.92335766425822,213.85178520876798 40.45547445258126,213.46736253469135 40.45547445258126,212.81680103743565 40.86934306565672,212.40280732538668 42.19963503652252,211.72267474446562 43.55948905099649,211.78181671071798 44.801094890455715,211.87052965912153 45.865328467218205,212.0183845705469 46.870437956182286,212.07752653420903 47.934671532711945,212.07752653420903 48.64416058396455,211.90010064159287 49.915328467148356,212.2845234031265 50.654379562009126,212.34366536448942 52.014233576715924,212.6393751638825 52.39854014606681,212.90551397250965 52.960218978114426,212.81680103743565 53.906204379629344,213.23079472460086 54.586131386924535,213.43779155882658 55.11824817513116,213.61521741186152 56.27116788318381,214.14749494343414 57.305839415988885,214.65020146322786 57.86751824815292,215.18247891485225 58.13357664225623,215.68518535923795 58.606569343130104,215.98089501526556 58.99087591236457,216.3357465857407 59.2569343065843,216.72016909983358 60.084671532851644,217.48901406381628 60.941970802959986,218.43528467102442 62.420072992681526,219.23370039489237 63.21824817522429,218.70142325590132 63.77992700738832,217.42987214654568 64.4598540145671,215.68518535923795 65.11021897813771,214.11792397050885 65.61277372261975,212.25495242216857 65.7901459854329,211.33825195164536 65.7605839415919,210.18498344445834 65.81970802915748,209.1204277278739 65.64233576634433,207.9671588492056 65.61277372261975,207.19831282267114 65.43540145992301,206.84346078149974 65.55364963493776,206.1928986584826 65.7605839415919,205.39448142336914 66.4109489050461,204.92134524029098 67.50474452553317,204.95091625273926 68.83503649628256,205.1874843472906 70.52007299277466,205.86761757390923 72.05729927006178,206.22246966545936 72.38248175173067,206.45903771620942 72.9441605838947,207.02088680441375 74.45182481757365,208.14458484310308 75.13175182486884,208.49943681724835 75.54562043806072,209.09085673341178 76.31423357664607,209.8892735396803 77.08284671534784,211.33825195164536 77.171532846638,211.87052965912153 77.08284671534784,212.75765908014728 76.78722627740353,213.1420817936887 77.4967153284233,214.56148855062202 77.70364963496104,215.5669014932646 77.73321167891845,216.2766046586621 78.14708029199392,217.28201735118637 78.70875912404153,218.16914607590297 79.24087591248099,218.5239975337754 79.95036496338435,219.05627468653256 80.42335766425822,219.23370039489237 82.01970802922733,220.0025450788089 83.29087591241114,220.29825454979436 84.7098540145671,220.71224778788746 85.24197080289014,220.74181873258203 86.04014598531649,221.0670991150546 86.95656934310682,221.56980513068265 87.69562043796759,222.0725111097854 88.58248175180051,222.63435892539565 89.14416058384813,223.10749389254488 89.70583941612858,224.26076023929636 90.00145985407289,224.6747532399022 90.35620437958278,225.11831714160508 91.18394160573371,225.97587393739377 92.07080291979946,226.62643419436063 92.98722627735697,227.45441988736275 93.96277372259647,228.3415473056084 94.76094890513923,229.2878164263093 94.96788321156055,228.96253643068485 94.90875912411138,228.69639824103797 95.5,228.1049800052133 95.23394160578027,227.63184538015048 94.28795620426536,226.83343062692438 93.04635036492255,225.65059378603473 92.48467153287493,225.20702991849976 91.77518248173874,224.31990209803917 90.85875912406482,223.69891255596303 90.03102189779747,222.3682204920624 89.38065693422686,221.48109230710543 88.3459854015382,220.5643930628721 87.9912408759119,220.20954170983168 86.83832116785925,219.4111260988284 86.30620437953621,219.23370039489237 85.0350364963524,218.73099420918152 84.41423357662279,218.7605651623453 83.40912408742588,218.90841992601054 82.4040145984618,218.7605651623453 81.4580291970633,218.376142761932 80.7781021897681,217.99172034004005 79.4478102189023,216.92716582940193 79.32956204377115,215.92175308504375 79.65474452555645,214.56148855062202 79.86167883209419,213.43779155882658 79.8321167883696,212.19581046004896 79.21131386852358,210.51026432498475 78.35401459853165,209.47527965169866 77.28978102188557,208.58814980791067 76.99416058394127,208.35158183026942 76.52116788318381,207.99672984846984 75.84124087588862,207.6123068476736 74.95437956205569,206.90260278966161 74.03795620438177,206.22246966545936 73.0032846715767,205.89718858222477 72.35291970800608,205.39448142336914 72.11642335762735,205.0396292891819 71.6138686130289,205.098771312827 70.66788321174681,204.47778003916028 69.27846715331543,204.0637858255941 68.21423357666936,203.73850464035058 67.14999999990687,203.7089336226927 66.05620437953621,203.62022056913702 64.90328467148356,203.5906495510426 63.60255474457517,203.64979158714414 63.04087591241114,203.79764667517156 62.567883211770095,204.92134524029098 63.09999999997672,205.83804656547727 63.809489051112905,206.84346078149974 64.07554744533263,207.58273584669223 64.1642335767392,208.2332978383347 64.43029197084252,209.09085673341178 64.54854014597367,209.47527965169866 64.4894160584081,209.859702548536 64.4894160584081,210.4215513590607 64.31204379559495,211.81138769362587 64.25291970814578,212.60980418455438 64.1346715327818,213.17165277083404 63.89817518251948,213.70393033666187 63.42518248176202,214.44320466544013 62.98175182484556,215.18247891485225 62.27226277370937,215.5669014932646 61.5332116788486,215.80346922317403 60.55766423372552,215.30076278743218 60.202919708099216,215.12333697779104 59.13868613145314,214.53191757947206 57.985766423284076,213.67435936184484 57.21715328458231,213.2899366778729 56.50766423367895,212.87594299428747 55.591240875888616,212.6393751638825 55.0,212.37323634506902 54.438321167835966,212.40280732538668 53.87664233578835,212.16623947882908 53.07846715324558,212.13666849737638 52.54635036503896,211.90010064159287 51.83686131390277,210.83554519023164 51.21605839417316,210.48069333651802 50.3883211677894,209.97798651244375 49.53102189779747,209.71184759069 48.25985401473008,209.77098957423004 47.07737226272002,210.09627047437243 46.663503649644554,210.21455443417653 46.042700730031356,209.47527965169866 45.185401459923014,209.94841552170692 44.032481751870364,210.15541245453642 43.825547445216216,210.00755750309327 43.20474452560302,210.51026432498475 43.05693430651445,211.2791099816386 43.470802919589914,211.72267474446562 44.446350365062244,211.81138769362587 44.65328467148356,211.5748198267247 44.18029197084252,211.42696490575327 43.618613138678484,211.0129711102054 43.145620437921025,210.95382913734647 41.57883211679291,211.5748198267247 40.839781022048555,212.2845234031265 40.45547445258126,212.60980418455438 39.9529197079828,213.67435936184484 39.50948905106634,213.67435936184484 38.622627737233415,214.502346608293 37.49927007290535,215.33033375520608 36.730656934319995,216.30617562224506 35.93248175189365,217.01587871147785 35.31167883204762,217.9325784270768 34.75,218.5239975337754 34.099635036545806,219.20412944388227 33.39014598540962,220.15039981593145 32.798905109521,220.5643930628721 31.971167883253656,221.42195042403182 31.172992700710893,222.01336923174676 30.72956204379443,222.27950767875882 30.374817518284544,222.60478798885015 29.428832116769627,223.1666357612121 28.51240875921212,223.99462186868186 27.5959854015382,224.49732767124078 26.08832116785925,225.11831714160508 25.024087591213174,225.65059378603473 23.427737226244062,226.33072499421542 21.80182481755037,227.27699439012213 20.323722627712414,228.5485436867748 19.998540146043524,228.96253643068485 19.555109489010647,229.9679472768621 19.052554744645022,230.7959325699194 18.845620437990874,231.269066978537 18.668248175177723,231.97876853091293 18.52043795620557,232.7180409039429 18.372627737233415,233.42774230786017 18.372627737233415,234.93585754951346 18.195255474420264,235.79341312876204 18.313503649667837,236.79882298310986 18.431751824798994,237.47895309590967 18.077007299405523,238.07037053111708 18.04744525544811,238.92792572255712 17.89963503659237,239.51934303416056 17.278832116746344,240.46561062781257 17.337956204428338,241.4414489485498 16.924087591352873,242.2990037232521 16.33284671534784,243.5705502629571 16.185036496375687,244.78295488635194 15.830291970865801,245.1378049799241 15.32773722638376,245.6405092481582 14.5,246.49806350411382" stroke="#4DD2FF" stroke-dasharray="none" stroke-linecap="round" stroke-linejoin="round" stroke-width="0.5"><title>2026-06-11 10.2km</title><desc>9223370255717407907</desc></polyline></svg>