<?xml version="1.0" encoding="utf-8" ?>
<svg baseProfile="full" height="300mm" version="1.1" viewBox="0,0,200,300" width="200mm" xmlns="http://www.w3.org/2000/svg" xmlns:ev="http://www.w3.org/2001/xml-events" xmlns:xlink="http://www.w3.org/1999/xlink"><defs /><rect fill="#222222" height="300" width="200" x="0" y="0" /><text fill="#FFFFFF" style="font-size:12px; font-family:Arial; font-weight:bold;" x="10" y="20">Over 10km Runs</text><text fill="#FFFFFF" style="font-size:4px; font-family:Arial" x="10" y="280">Runner</text><text fill="#FFFFFF" style="font-size:9px; font-family:Arial" x="10" y="290">Yanfu</text><text fill="#FFFFFF" style="font-size:4px; font-family:Arial" x="65" y="280">SPECIAL TRACKS</text><rect fill="yellow" height="2.6" width="2.6" x="65" y="283" /><text fill="#FFFFFF" style="font-size:3px; font-family:Arial" x="70" y="285.5">Over 20.0 km</text><rect fill="red" height="2.6" width="2.6" x="65" y="287" /><text fill="#FFFFFF" style="font-size:3px; font-family:Arial" x="70" y="289.5">Over 40.0 km</text><text fill="#FFFFFF" style="font-size:4px; font-family:Arial" x="120" y="280">STATISTICS</text><text fill="#FFFFFF" style="font-size:3px; font-family:Arial" x="120" y="285">Number: 2</text><text fill="#FFFFFF" style="font-size:3px; font-family:Arial" x="120" y="290">Weekly: 1.0</text><text fill="#FFFFFF" style="font-size:3px; font-family:Arial" x="141" y="285">Total: 20.3 km</text><text fill="#FFFFFF" style="font-size:3px; font-family:Arial" x="141" y="290">Avg: 10.1 km</text><text fill="#FFFFFF" style="font-size:3px; font-family:Arial" x="167" y="285">Min: 10.1 km</text><text fill="#FFFFFF" style="font-size:3px; font-family:Arial" x="167" y="290">Max: 10.2 km</text><polyline fill="none" opacity="1" points="52.875536480685696,104.79847372259246 53.030042918398976,103.48477695608744 53.10729613737203,102.09380370157305 53.33905579405837,101.5142314491095 53.2231759657152,99.81415262783412 53.68669527908787,98.03679715521866 54.07296137348749,97.03220477711875 54.343347639311105,96.10488863685168 55.0,95.64123053109506 54.922746781026945,95.10029604431475 55.27038626605645,94.90710514824605 55.57939914171584,94.32753243559273 55.965665236115456,93.24566327244975 56.89270386262797,92.55017588491319 57.47210300434381,91.0046481655445 58.43776824022643,89.49775838473579 60.369098712457344,88.45452685072087 61.991416309028864,87.87495372421108 62.37768240342848,87.72040088422364 63.188841201830655,87.25674234842882 64.23175965668634,86.67716914508492 65.89270386262797,85.9044048160431 67.24463519314304,85.20891686336836 67.9012875535991,84.82253464433597 69.75536480685696,83.27700560266385 71.10729613737203,82.4269645169843 72.38197424891405,81.30645569070475 73.0,80.41777617787011 73.65665236045606,79.68364955775905 74.69957081554458,78.71769338753074 75.85836909874342,77.01761027652537 76.97854077257216,75.9357390391524 77.17167381988838,75.54935642279452 77.48068669531494,75.08569726144196 78.52360515040345,74.08110232983017 79.64377682399936,73.34697519365 80.7639484978281,72.07191213063197 81.57510729623027,71.95599729771493 82.03862660960294,70.4877426190651 83.2360515021719,69.36723230831558 85.39914163085632,69.13540257146815 86.82832618011162,69.17404086136958 87.94849785417318,69.17404086136958 88.6824034336023,69.17404086136958 89.72532188845798,69.94680662435712 91.27038626605645,69.83089176408248 92.12017167382874,69.4831471745274 92.5450643778313,69.36723230831558 93.85836909874342,69.79225347709144 95.2103004292585,70.13999805471394 96.9871244635433,69.90816833783174 96.9871244635433,69.79225347709144 98.41630901279859,70.4877426190651 98.99570815451443,70.91276373481378 100.88841201737523,71.41506139130797 101.8927038628608,71.91735901986249 103.39914163108915,72.65148627245799 104.21030042902566,73.11514555918984 104.86695278971456,73.81063444446772 106.10300429188646,75.12433552579023 106.37339055794291,75.9357390391524 107.87982832617126,76.97897202038439 109.23175965668634,78.1767578869476 110.12017167382874,78.64041688939324 110.85407725325786,78.71769338753074 111.85836909874342,78.0994813842699 112.43776824045926,77.13352504430804 112.59227467817254,76.1289303410449 113.13304721028544,75.00842073216336 114.06008583703078,72.76740109646926 114.63948497874662,70.4877426190651 114.71673819748685,70.02408319700044 115.10300429188646,67.78306232084287 115.21888412022963,65.23293443804141 114.48497854080051,63.18510394822806 114.6781115878839,61.832762803009246 115.02575107291341,60.94408136815764 115.99141630902886,60.13267650321359 117.07296137348749,60.1713148317649 118.50214592297561,60.4417831270257 120.35622317600064,60.94408136815764 122.13304721051827,61.832762803009246 123.4463519314304,61.79412448150106 124.02575107291341,61.523656226927415 124.29613733920269,62.18050768825924 125.14592274674214,63.455572152801324 126.49785407725722,64.38289164978778 127.61802575108595,65.19429613120155 128.08154506445862,65.77387071604608 128.5836909872014,66.35344526346307 129.39484978560358,67.89897720748559 129.8197424893733,68.55582820327254 129.70386266103014,69.59906203928404 129.27896995726041,70.4491043346934 129.35622317600064,71.26050826912979 129.89699570811354,72.18782696197741 130.5150214591995,73.69471963396063 130.43776824022643,75.12433552579023 130.47639484982938,75.66527120937826 131.67381974263117,77.13352504430804 132.7939914164599,78.0608431326691 132.94849785394035,78.40858739119722 134.10729613737203,78.91088462987682 135.1115879828576,79.60637306782883 136.00000000023283,79.9541172668105 138.4721030043438,80.37913793616462 139.43776824045926,80.72688210534398 141.02145922742784,81.11326449975604 141.79399141622707,81.49964687763713 143.1845493563451,82.31104981724638 144.53648068662733,83.16109091386897 145.15450643771328,83.85657902428648 146.2360515021719,85.0543639777461 146.50643776822835,85.59529906586977 147.1244635193143,86.52261628449196 147.70386266103014,87.14082771068206 147.9742489270866,87.52720983052859 148.59227467817254,88.18405939632794 149.90557939908467,89.3432055725134 151.25751072959974,90.46371340134647 152.68669527908787,91.854688443942 153.1115879828576,92.00924121314893 153.30472103017382,91.39103012019768 154.0,90.50235159992008 153.61373390583321,89.88414040376665 152.45493562240154,88.95682353031589 151.75965665234253,88.37725043605315 150.83261802583002,87.75903909443878 150.06008583703078,87.06355128478026 149.48068669531494,86.32942520518554 149.13304721028544,85.55666084639961 148.05150214582682,84.93844931176864 147.51072961371392,84.3202377348207 146.69957081554458,82.96789976255968 145.30901287542656,81.34509392839391 145.0,80.9973497831379 144.2660944208037,80.22458496782929 143.68669527908787,80.1473084827303 142.3347639485728,79.37454359454568 141.3304721028544,78.98816112562781 140.05579399154522,78.60177864012076 138.35622317600064,78.71769338753074 137.93133047199808,78.4472256412846 137.12017167382874,78.48586389131378 135.65236051520333,78.0608431326691 133.5278969956562,76.86305725062266 133.10300429188646,76.51531293254811 132.71673819748685,75.58799468510551 133.10300429188646,73.96518752275733 133.21888412022963,72.92195419262862 133.5278969956562,72.07191213063197 133.45064377691597,70.60365747072501 133.1802575106267,68.74901966348989 132.67811158811674,67.51259424636373 131.71244635200128,66.31480696139624 129.97424892685376,65.03974290232873 128.9313304722309,64.30561502871569 127.19313304731622,63.26238057890441 126.4592274678871,62.56689087842824 125.3390557942912,61.75548615993466 124.10300429188646,61.40774125815369 123.36909871245734,61.25318796414649 123.06008583679795,60.75088974030223 122.48068669531494,60.40314479963854 121.39914163085632,59.746293208387215 120.1244635193143,59.39854822884081 118.73390557942912,58.93488823517691 117.72961373394355,58.58714322425658 116.37768240342848,58.58714322425658 115.29613733920269,58.58714322425658 113.05579399154522,58.47122821764788 112.09012875542976,58.85761156724766 111.58798283268698,58.93488823517691 110.93133047223091,59.784931538568344 111.70386266079731,61.56229454954155 112.51502145919949,62.76008246728452 112.78540772525594,63.64876372256549 113.13304721028544,64.34425333933905 113.09442060091533,65.07838120980887 113.48068669531494,66.39208356523886 113.51931330468506,66.89438147400506 113.51931330468506,67.62850913638249 113.32618025760166,69.86953005107353 112.9012875535991,71.60825279017445 112.09012875542976,72.92195419262862 111.27896995702758,73.92654925346142 110.00429184548557,74.6993146087043 108.80686695291661,74.19701713538961 107.80257510743104,73.77199617453152 106.52789699565619,72.92195419262862 105.83261802583002,72.11055040790234 104.90557939908467,71.64689106942387 104.01716738194227,71.18323170719668 102.81974248937331,70.71957232098794 102.27896995702758,70.60365747072501 101.42918454948813,70.13999805471394 100.42489270400256,69.90816833783174 99.61373390560038,69.52178546297364 98.60944206011482,69.71497690246906 97.79828326194547,69.63770032708999 96.56223175977357,68.43991332512815 96.13733905600384,67.70578572899103 95.05579399154522,66.85574317438295 93.93562231771648,66.50799846975133 92.7768240342848,66.27616865932941 91.5407725321129,66.58527507196413 90.22746781096794,67.0489346710383 89.80257510719821,67.2034878655104 89.10729613737203,66.97165807290003 88.21888412022963,66.93301977356896 87.17596566514112,67.2421261636191 86.557939914288,67.1262112686527 86.05579399131238,67.1262112686527 85.55364806880243,67.70578572899103 85.3218884121161,68.59446649561869 85.82403433485888,69.13540257146815 87.44635193119757,69.25131744064856 87.52360515017062,68.90357282862533 86.44206008594483,68.59446649561869 85.74678111588582,68.4012750320253 84.04721030034125,68.9422111195745 83.08154506445862,69.28995573008433 82.03862660960294,70.37182776577538 81.88412017165683,71.29914655000903 81.22746781120077,71.76280590624083 80.14592274674214,72.2264652387239 79.5665236050263,72.88331591890892 78.44635193119757,73.57880482199835 77.71244635200128,74.39020847453503 76.9012875535991,75.16297378996387 75.81974248914048,76.47667467402061 74.73819742491469,77.90629012457794 74.27467811177485,78.60177864012076 73.92703862674534,78.98816112562781 72.80686695268378,80.1473084827303 71.95708154491149,80.72688210534398 71.14592274697497,81.57692335121101 70.83690987131558,81.92466747411527 69.87124463520013,82.69743214384653 68.48068669531494,83.66338788787834 67.47639484982938,84.12704660830786 65.69957081531174,85.63393728522351 63.768240343546495,86.48397806897992 61.91416309005581,87.29538056056481 60.369098712457344,88.02950656157918 59.32618025760166,88.49316505790921 58.09012875519693,89.30456736893393 57.39484978560358,89.88414040376665 56.35193133051507,90.96600996918278 55.46351931337267,92.24107036215719 55.15450643771328,92.70472864236217 54.53648068662733,93.24566327244975 53.84120171680115,94.94574332778575 53.454935622401536,96.87765209370991 53.26180257508531,98.22998798440676 52.991416309261695,99.93006710306508 53.030042918398976,100.393724989146 53.57081545051187,101.01193546695868 52.91416309005581,102.55746147682657 52.91416309005581,103.2915862390073 52.68240343336947,103.94843466009479 52.52789699588902,105.33940762991551 52.141630901256576,105.95761777018197 51.75536480685696,106.96220915811136 51.79399141622707,108.3531816653558 51.63948497851379,108.85547724051867 51.4463519314304,109.89870642311871 50.75107296137139,110.82602115138434 50.557939914288,112.17835495999316 50.32618025760166,112.68065032339655 49.592274678172544,113.37613616517046 48.858369098743424,114.49664102034876 48.62660944205709,115.11485053651268 48.08583690994419,116.54445988120278 47.66094420594163,117.85815475624986 46.61802575108595,119.9059728590073 46.0,121.52877178241033" stroke="#4DD2FF" stroke-dasharray="none" stroke-linecap="round" stroke-linejoin="round" stroke-width="0.5"><title>2026-06-16 10.1km</title><desc>9223370255286294807</desc></polyline><polyline fill="none" opacity="1" points="53.31612903205678,223.49441517418018 53.12258064490743,222.41022044769488 53.54838709672913,221.55835307162488 53.39354838686995,220.97753436042694 53.470967741683125,219.50612679193728 53.5870967740193,218.3444890693645 53.935483870795,216.95052360580303 54.70967741915956,215.90504936745856 54.98064516088925,215.169345201517 55.13548387074843,214.74341118347365 55.5612903223373,213.81410052906722 56.83870967733674,212.84606849605916 57.49677419336513,210.98744670272572 58.23225806443952,210.0968569581746 60.129032257944345,209.09010322846007 61.83225806429982,208.35439850902185 62.41290322574787,208.0059067789698 64.19354838691652,207.23148066410795 65.6258064515423,206.61193972447654 66.98064516135491,205.72134954942157 68.76129032252356,204.44354610180017 70.46451612887904,203.28190644731512 72.12903225794435,201.6556106802309 73.75483870948665,199.91315060516354 75.38064516102895,198.17069019417977 75.88387096766382,197.0864924354828 76.89032258046791,196.07973725738702 77.81935483869165,195.3053101209225 79.13548387074843,193.95006247231504 79.75483870948665,193.67901291820453 80.79999999981374,192.36248639662517 81.5354838706553,192.24632228258997 81.99999999976717,191.5880589412409 81.961290322477,190.81363141944166 83.12258064490743,189.8068755416316 85.32903225789778,189.57454724627314 86.49032258056104,189.57454724627314 88.30967741901986,189.76815415959572 89.27741935476661,190.15536797366804 91.48387096752413,190.0392038311693 92.21935483859852,189.8068755416316 93.53548387088813,190.23281073442195 94.58064516121522,190.27153211453697 96.01290322560817,190.31025349459378 97.2516129030846,190.81363141944166 97.83225806429982,191.00723830610514 98.79999999981374,191.20084518869407 100.11612903210334,191.78166581131518 100.61935483873822,191.93655130430125 102.12903225794435,192.63353599025868 103.79354838700965,193.29179925529752 104.45161290303804,194.02750520053087 104.87741935462691,194.25983338133665 105.2258064514026,194.95681788789807 105.84516129014082,195.34403147932608 106.27096774172969,195.8474091234384 106.73548387084156,196.58311486052116 108.36129032238387,198.01580480806297 109.79354838700965,198.86767439893447 111.53548387088813,198.94511708500795 112.11612903210334,198.17069019417977 112.89032258046791,195.80868776718853 113.896774193272,193.64029155264143 114.55483870953321,191.5106161920703 115.05806451593526,189.57454724627314 115.01935483841226,188.80011955171358 115.05806451593526,186.36067187879235 115.17419354827143,185.89601510443026 114.82580645149574,184.1535519870231 114.70967741915956,183.4565666457056 114.59354838682339,182.9144668985973 114.78709677397273,182.1013172167004 115.2129032255616,181.0945603660075 116.33548387070186,180.5911818984896 117.99999999976717,180.9009532664204 120.16774193523452,181.3656102984096 122.21935483859852,182.25620287610218 123.49677419336513,182.52725277346326 124.03870967729017,183.185516776226 125.39354838686995,184.26971620536642 126.94193548359908,185.08286569151096 127.6387096773833,185.70240810804535 128.72258064500056,186.98021420749137 129.34193548350595,188.1805773480446 129.961290322477,189.30349756067153 130.03870967729017,189.96176106872736 129.5741935481783,191.23956656461814 129.88387096766382,192.28504365397384 130.69677419331856,193.98878383653937 130.77419354836456,194.84065380721586 130.77419354836456,195.80868776718853 131.35483870957978,197.12521378631936 132.43870967719704,198.28685423207935 133.48387096775696,198.94511708500795 133.83225806429982,199.29360916413134 135.34193548373878,200.02931462065317 137.54838709672913,200.7262986820424 139.17419354827143,201.19095469306922 140.10322580626234,201.19095469306922 140.80000000004657,201.42328268958954 142.2709677417297,202.27515195932938 143.3161290322896,202.85597186983796 144.12903225794435,203.39807041949825 145.2903225806076,204.21121818281244 146.2580645158887,205.5277429781272 146.68387096747756,206.3408905500546 147.18709677411243,206.8829888907494 147.53548387088813,207.27020197140519 149.0451612903271,208.8190541282529 150.12903225794435,209.7870865917066 151.13548387098126,210.83256153593538 152.6838709677104,212.22652794059832 153.2258064514026,212.3814130834071 153.10967741929926,212.30397051235195 153.6129032257013,211.21977444767253 154.0,210.79384024394676 153.41935483855195,209.9806930720224 151.44516129023395,208.6641689245007 150.12903225794435,207.42508719908074 149.85806451598182,207.1153167411685 148.81290322565474,205.68262823554687 147.49677419336513,204.327382143063 146.5290322578512,203.12702114874264 145.36774193542078,201.81049600394908 144.43870967719704,201.11351202620426 143.47096774191596,200.30036398425 142.38709677406587,199.44849452847848 140.87741935485974,198.86767439893447 140.06451612873934,198.67406768078217 139.21290322579443,198.94511708500795 137.81935483845882,198.8289530556067 136.15483870962635,198.55790364788845 135.2645161289256,198.20941154030152 133.52258064504713,197.202656487294 132.9032258063089,195.3053101209225 133.13548387074843,194.22111201833468 133.44516129023395,192.90458557580132 133.48387096775696,190.77491004159674 133.2516129030846,189.10989063739544 131.974193548318,186.94149281311547 130.77419354836456,185.9734579017968 129.99999999976717,185.27647270122543 129.6129032257013,184.96670148376143 128.9548387096729,184.54076604224974 127.67741935467348,183.80505932314554 126.16774193523452,182.6046955998172 125.35483870957978,182.06259580148617 123.88387096766382,181.5979388054111 123.57419354841113,180.97839610674419 122.91612903214991,180.97839610674419 122.49032258056104,180.47501763270702 120.86451612878591,179.81675343192182 118.96774193528108,179.3908177469275 117.5354838706553,179.04232489870628 115.67741935467348,178.9648820417351 115.2129032255616,179.0036034703371 112.73548387084156,178.8099963257555 111.72903225780465,179.04232489870628 110.99354838696308,179.85547485679854 110.95483870944008,180.9396746866987 112.19354838691652,182.75958125054603 112.81290322565474,183.92122354597086 113.08387096761726,184.73437306360574 112.73548387084156,185.31519410276087 113.43225806439295,186.36067187879235 113.39354838686995,186.86405002413085 113.31612903228961,187.36742814129684 113.16129032243043,188.60651261761086 113.1999999997206,190.23281073442195 112.96774193528108,190.9297955519869 112.73548387084156,191.93655130430125 112.3096774192527,192.74970009934623 111.80645161261782,193.6015701869037 110.76129032252356,194.56960427982267 110.02580645144917,194.84065380721586 109.05806451593526,194.76321108592674 107.974193548318,194.1823906551581 107.39354838686995,193.91134110785788 105.53548387088813,192.51737187971594 104.33548387070186,191.93655130430125 103.40645161271095,191.43317344214302 102.39999999990687,190.9297955519869 101.16129032243043,190.54258177115116 100.77419354813173,190.34897487447597 100.0,190.27153211453697 98.95483870967291,190.23281073442195 98.21935483859852,189.92303968715714 97.2516129030846,189.53582586313132 96.28387096757069,188.2192987370072 95.74193548364565,187.87080623023212 94.42580645158887,187.21254256973043 92.49032258056104,186.90277141873958 90.90322580630891,187.28998535580467 90.3225806450937,187.4835923180799 89.66451612883247,187.28998535580467 88.58064516121522,187.01893560157623 87.49677419359796,187.28998535580467 86.45161290303804,187.4835923180799 86.10322580626234,187.40614953369368 85.2516129030846,188.68395539169433 85.5612903223373,189.45838309632381 86.37419354822487,189.57454724627314 87.38064516102895,189.61326862924034 87.2258064514026,189.1486120224581 86.56774193537422,189.10989063739544 85.71612903219648,188.5290698428871 84.43870967719704,189.03244786697906 83.08387096761726,189.53582586313132 82.15483870939352,190.50386039208388 81.961290322477,191.47189481725218 80.95483870944008,192.16887953900732 80.41290322574787,192.32376502535772 78.70967741915956,193.64029155264143 77.50967741920613,195.11170332640177 76.73548387084156,195.7312450542231 75.38064516102895,197.43498458643444 74.64516129018739,198.20941154030152 74.18064516107552,198.63534633658128 73.29032258060761,199.5259372094879 72.36129032238387,200.7262986820424 71.70322580635548,201.38456135732122 70.61935483850539,202.54620125552174 69.41935483855195,203.20446379837813 68.91612903214991,203.5529557133559 68.06451612897217,204.40482478233753 67.2129032255616,204.71459533309098 65.6258064515423,205.9536774297012 63.961290322477,206.76682496344438 62.83870967710391,207.308923278586 60.67096774186939,208.27695590350777 58.50322580640204,209.2449884249363 56.567741935374215,210.7551189516671 55.29032258037478,211.87803635955788 54.67096774163656,213.1558387578698 54.322580644860864,213.69793669052888 53.703225806355476,214.82085373369046 53.470967741683125,215.44039411167614 53.16129032243043,216.71819600765593 53.12258064490743,217.72494888975052 53.045161290094256,219.35124177095713 52.812903225654736,220.47415811382234 53.12258064490743,221.4421893323306 52.92903225799091,222.91359658678994 53.006451612571254,223.53313641203567 52.42580645135604,224.88837963232072 52.61935483850539,225.43047686381033 51.72903225803748,226.97932591824792 51.80645161261782,227.86991400498664 51.225806451402605,229.30259900476085 50.87741935485974,230.50295653333887 50.25806451588869,232.24541072826833 49.98709677392617,233.13599829893792 49.251612902851775,233.79425862117205 48.43870967719704,234.7622884203447 48.01290322560817,236.27241470117588 47.50967741920613,238.09231014258694 46.73548387084156,239.64115704013966 46.0,241.1900036741863 46.92903225775808,240.06708989077015 47.35483870934695,238.94417596887797 48.16774193523452,237.16300187760498" stroke="#4DD2FF" stroke-dasharray="none" stroke-linecap="round" stroke-linejoin="round" stroke-width="0.5"><title>2026-06-11 10.2km</title><desc>9223370255717407907</desc></polyline></svg>