<?xml version="1.0" encoding="utf-8" ?>
<svg baseProfile="full" height="300mm" version="1.1" viewBox="0,0,200,300" width="200mm" xmlns="http://www.w3.org/2000/svg" xmlns:ev="http://www.w3.org/2001/xml-events" xmlns:xlink="http://www.w3.org/1999/xlink"><defs /><rect fill="#222222" height="300" width="200" x="0" y="0" /><text fill="#FFFFFF" style="font-size:12px; font-family:Arial; font-weight:bold;" x="10" y="20">Over 10km Runs</text><text fill="#FFFFFF" style="font-size:4px; font-family:Arial" x="10" y="280">Runner</text><text fill="#FFFFFF" style="font-size:9px; font-family:Arial" x="10" y="290">Yanfu</text><text fill="#FFFFFF" style="font-size:4px; font-family:Arial" x="65" y="280">SPECIAL TRACKS</text><rect fill="yellow" height="2.6" width="2.6" x="65" y="283" /><text fill="#FFFFFF" style="font-size:3px; font-family:Arial" x="70" y="285.5">Over 20.0 km</text><rect fill="red" height="2.6" width="2.6" x="65" y="287" /><text fill="#FFFFFF" style="font-size:3px; font-family:Arial" x="70" y="289.5">Over 40.0 km</text><text fill="#FFFFFF" style="font-size:4px; font-family:Arial" x="120" y="280">STATISTICS</text><text fill="#FFFFFF" style="font-size:3px; font-family:Arial" x="120" y="285">Number: 4</text><text fill="#FFFFFF" style="font-size:3px; font-family:Arial" x="120" y="290">Weekly: 2.0</text><text fill="#FFFFFF" style="font-size:3px; font-family:Arial" x="141" y="285">Total: 40.5 km</text><text fill="#FFFFFF" style="font-size:3px; font-family:Arial" x="141" y="290">Avg: 10.1 km</text><text fill="#FFFFFF" style="font-size:3px; font-family:Arial" x="167" y="285">Min: 10.1 km</text><text fill="#FFFFFF" style="font-size:3px; font-family:Arial" x="167" y="290">Max: 10.2 km</text><polyline fill="none" opacity="1" points="14.5,95.9007030056091 14.924560089944862,95.2333385150996 15.258143017650582,94.8693214939558 15.379445900325663,94.08061788417399 15.591725945356302,92.5638799276785 15.500748783233576,92.13919324189192 16.13758891809266,91.13814595382428 16.04661175585352,89.83375079126563 16.319543242221698,89.13605095486855 16.22856608009897,88.01366411807248 16.683451890712604,87.52830759319477 16.774429052718915,86.34525092504919 16.774429052718915,85.31386802799534 16.986709097749554,84.2218153855647 17.957132160197943,83.06909296975937 18.07843504298944,82.82641454256373 18.169412205112167,82.43206208065385 18.230063646449707,81.64335709135048 18.836578060640022,81.09733050887007 19.473418195382692,79.91427276941249 20.140584050794132,78.73121483280556 20.929052789113484,78.2155228498741 21.929801572463475,77.669496003713 23.506739048985764,77.00212980108336 24.9320479221642,76.21342420816654 25.87214526394382,75.81907137867529 26.53931111935526,75.36404885601951 28.14657431677915,74.45400372293079 29.026020217104815,73.78663721767953 30.02676900033839,73.1192706496222 30.784912017872557,72.39123432186898 31.815986521774903,71.32951454306021 32.42250093596522,70.6318128874409 32.93803818791639,70.08578545675846 33.847809809143655,69.05440019525122 34.15106701606419,68.62971210264368 34.93953575438354,67.41631741198944 36.2132160239853,66.17258763808059 36.63777611381374,65.83890400303062 37.27461624855641,65.44455059582833 38.002433545538224,64.74684835993685 38.88187944586389,64.2614902422647 39.003182328655384,63.50311811658321 39.670348184066825,62.987425024679396 40.45881692238618,62.502066786109935 41.55054286774248,62.47173189511523 41.944777236902155,62.502066786109935 43.27910894807428,62.502066786109935 43.94627480348572,62.259387654368766 44.40116061398294,62.350392329797614 44.765069262473844,62.83575057872804 45.25028079375625,62.92675524670631 45.76581804570742,62.896420357516035 46.28135529765859,62.71441101958044 47.03949831519276,62.53240167704644 48.49513290892355,62.86608546815114 49.404904530150816,63.048094802186824 50.617933358298615,62.86608546815114 50.1327218268998,63.07842969073681 52.37682515918277,63.92780651693465 53.62017970799934,64.2614902422647 54.529951329226606,64.68617859709775 56.167540247086436,65.53555523022078 56.62242605758365,65.929908632359 57.16828903032001,66.44560150965117 57.80512916506268,67.1129687068169 58.138712092884816,67.47698715148726 58.350992137682624,67.9016753131873 59.16978659678716,68.4477029122645 59.80662673152983,69.32741395558696 60.47379258705769,70.05545059836004 61.01965555967763,70.29812946263701 62.11138150515035,69.0240653323126 62.71789591922425,68.08368451759452 63.26375889184419,66.99162922112737 63.99157618870959,65.47488547407556 64.38581055786926,64.17048559145769 64.78004492702894,62.83575057872804 64.9316735304892,61.74369447171921 64.90134780982044,61.19766635494307 64.90134780982044,60.014605290431064 64.81037064769771,58.43719022948062 64.50711344066076,57.61814765498275 64.74971920624375,56.55642565776361 65.20460501685739,55.73738286504522 66.41763384500518,55.49470350070624 67.69131411449052,55.70704794500489 69.57150879816618,56.31374632171355 70.42062897793949,56.70810023852391 71.6033320853021,57.041784304892644 72.0885436165845,57.67881747853244 73.54417821043171,58.649534585129004 74.878509921371,59.68092136463383 75.42437289410736,60.257284499297384 76.39479595655575,61.86503404757241 76.36447023588698,63.07842969073681 75.97023586672731,63.71546231996035 76.03088730818126,64.04914605530212 76.18251591164153,64.71651347860461 76.63740172225516,65.53555523022078 77.06196181208361,66.50627125747269 76.9406589291757,67.35564767202595 76.84968176705297,68.26569371734513 77.66847622615751,68.96339560608612 79.03313365776557,69.6307625658228 79.54867090971675,69.90377630392322 80.36746536882129,70.54080831859028 82.12635716958903,71.02616600558395 82.73287158366293,71.23850998317357 83.70329464622773,71.4811888068798 84.61306626733858,71.6631979192025 85.61381505057216,72.02721612987807 87.00879820296541,72.81592218880542 87.61531261703931,73.33161456440575 88.13084986899048,73.54395847290289 88.64638712094165,73.90797658701194 89.25290153501555,74.90902630402707 89.49550730059855,75.87974104617024 89.7987645076355,76.21342420816654 90.55690752528608,76.88079048489453 91.64863347052597,77.69983082951512 92.07319356035441,78.15485320240259 92.58873081230558,78.4885362572386 93.8017596405698,79.48958532762481 94.2869711718522,80.2176209265599 94.71153126179706,80.42996462876908 94.74185698246583,80.0356120338547 95.5,79.216571958852 94.52957693755161,78.18518802622566 93.5591538749868,77.36614773760084 93.01329090225045,77.00212980108336 92.61905653320719,76.57744218502194 91.58798202918842,75.57639270357322 91.25439910136629,75.21237467526225 90.61755896662362,74.81802179024089 90.49625608383212,74.39333404321223 89.76843878696673,73.30127971991897 89.73811306629796,72.99793126690201 88.49475851736497,72.26989492657594 87.52433545491658,71.32951454306021 86.55391239235178,70.6318128874409 85.9170722576091,69.96444602211704 84.61306626733858,69.84310658532195 84.15818045684136,69.84310658532195 83.0058030700311,69.93411116307834 82.21733433159534,69.81277172575938 80.51909397228155,69.1757396456087 79.42736802680884,69.08473505801521 79.15443654055707,68.62971210264368 78.60857356793713,67.1433035779628 78.88150505430531,66.41526663559489 79.33639086480252,65.17153668566607 79.24541370279621,63.806466976588126 79.24541370279621,62.59307145839557 78.91183077485766,61.592019999050535 78.27499064023141,60.74264289205894 76.91033320850693,59.55958175135311 75.78828154248185,58.67986949259648 74.54492699366529,58.01250149903353 73.96873830037657,57.436138181132264 73.1802695619408,56.799104985489976 72.24017222004477,56.55642565776361 71.17877199547365,55.98006222094409 70.87551478832029,55.73738286504522 70.54193186061457,55.282359050179366 69.48053163604345,55.00934474723181 68.51010857359506,54.76666535792174 67.72163983527571,54.55432088545058 66.81186821404845,54.250971627945546 65.56851366534829,54.250971627945546 64.20385623362381,54.190301774884574 63.203107450390235,54.09929699433269 62.62691875710152,54.22063670150237 61.95975290145725,54.37231133249588 61.6564956944203,54.857670129917096 61.686821415205486,55.464368579676375 61.868775739334524,56.07106697728159 62.17203294637147,56.6170954904519 62.71789591922425,57.31479852925986 63.08180456759874,57.769822212983854 63.35473605396692,58.67986949259648 63.38506177463569,59.529246847727336 63.26375889184419,60.19661469786661 63.476038936758414,61.379675731877796 63.38506177463569,62.92675524670631 62.930175964022055,64.32216000877088 62.32366154983174,65.808569126355 61.292587045929395,66.62761075142771 60.352489704149775,66.74895024346188 59.3517409209162,66.23325738823041 58.6239236240508,65.808569126355 58.19936353422236,65.59622498584213 57.350243354565464,64.80751812236849 56.68307749903761,64.47383442288265 56.01591164350975,64.14015070756432 55.197117184638046,63.77613209118135 54.80288281547837,63.71546231996035 54.28734556341078,63.47278322989587 53.65050542866811,63.351443681749515 53.04399101471063,62.71441101958044 52.285847996827215,62.71441101958044 51.952265069121495,62.71441101958044 50.102396106231026,61.34934083611006 49.768813178525306,60.985322075895965 48.88936727819964,60.31795430020429 47.464058405021206,59.92360058496706 46.70591538748704,60.22694959869841 45.91744664916769,60.712307993439026 44.91669786605053,61.01565697329352 44.34050917252898,61.10666166472947 43.46106327220332,60.681973094760906 42.82422313746065,60.89431738294661 42.09640584036242,60.985322075895965 41.641520029865205,61.228001251409296 41.42923998495098,61.68302468303591 41.55054286774248,62.259387654368766 41.85380007477943,62.502066786109935 43.06682890304364,62.71441101958044 43.248783227289096,62.47173189511523 42.55129165109247,62.16838297783397 41.39891426428221,62.10771319275955 39.82197678775992,62.38072722131619 39.03350804944057,63.10876457905397 38.669599400949664,64.10981582361273 38.18438786966726,64.50416930532083 37.153313365764916,65.14120180608006 36.66810183448251,65.47488547407556 35.27311868208926,66.71861537062796 34.2723698989721,67.78033584100194 33.6658554848982,68.62971210264368 33.02901535003912,69.38808367867023 32.5741295395419,69.78243686602218 32.0585922873579,70.4498037485755 31.60370647709351,71.02616600558395 30.36035192804411,72.02721612987807 29.08667165855877,73.33161456440575 28.14657431677915,74.1203204781632 26.569636840140447,74.93936114176176 25.599213777575642,75.63706237316364 24.901722201379016,75.97074554651044 23.961624859599397,76.39543319895165 23.051853238604963,76.66844667639816 22.051104455254972,77.24480842752382 20.65612130286172,77.97284425678663 20.201235492364503,78.094183554349 19.412766753928736,78.79188447532943 18.563646574271843,79.33791123516858 18.230063646449707,79.94460758572677" stroke="#4DD2FF" stroke-dasharray="none" stroke-linecap="round" stroke-linejoin="round" stroke-width="0.5"><title>2026-06-20 10.1km</title><desc>9223370254938036107</desc></polyline><polyline fill="none" opacity="1" points="104.5,98.99912555346964 104.73250807321165,98.01067315693945 105.54628632951062,96.49892215643195 106.12755651236512,94.78366580870352 106.30193756730296,94.2022228812275 106.70882669556886,93.1846976390807 107.20290635107085,92.92304826661712 107.46447793347761,92.6323267298576 107.78417653392535,92.13810008901055 107.87136706139427,90.91706941119628 108.22012917126995,90.45191480976064 108.65608180838171,89.28902816754999 108.88858988159336,88.32964653862291 108.77233584516216,87.31212042097468 109.44079655560199,86.03294451485272 109.35360602801666,85.18985117285047 109.61517761042342,84.66655180457747 109.55705059203319,83.06758126389468 109.5279870829545,83.12572565377923 109.67330462869722,81.4686103478889 109.78955866524484,79.54984475305537 110.48708288487978,79.11376158791245 110.6033369214274,78.38695625058608 111.01022604957689,77.95087301093736 111.47524219588377,77.19499532933696 112.60871905274689,76.0321064243326 113.39343379985075,74.72385616856627 114.41065662004985,74.11333929639659 115.31162540370133,73.59003907657461 116.82292787951883,72.89230538756237 117.78202368144412,72.4271495550347 118.94456404738594,71.87477696259157 120.07804090413265,71.17704309732653 121.03713670617435,70.56652590655722 121.3277717976598,70.30487566514057 122.05435952648986,69.75250290008262 122.95532831002492,69.02569656181731 124.08880516688805,68.06631207623286 124.81539289560169,67.194144244364 125.89074273419101,66.11847043069429 126.41388589888811,65.27537461961037 127.28579117334448,64.43227870381088 127.66361679241527,63.763616351236124 128.09956942941062,63.44382128975121 128.36114101181738,63.15309849346522 129.23304628639016,62.42629144823877 130.13401507004164,61.641339751833584 130.5409041980747,61.32154459017329 130.86060279875528,61.350616878276924 131.23842841770966,60.56566505730734 131.15123789024074,60.15865296611446 131.8778256190708,59.54813478360302 132.48815931100398,59.11205033384613 133.73789020441473,59.05390573840123 134.11571582360193,59.11205033384613 135.42357373528648,59.05390573840123 136.76049515616614,59.286484117095824 137.28363832074683,59.48999019197072 138.47524219588377,59.34462871059077 139.37621097953524,59.1411226313503 140.1609257266391,59.402773303503636 140.85844994615763,59.54813478360302 141.7594187298091,59.66442396547063 142.28256189450622,59.577207079244545 142.5731969861081,59.48999019197072 142.6894510225393,59.286484117095824 143.50322927883826,60.18772525919485 144.08449946169276,60.449375890835654 144.31700753513724,60.76917109367787 145.56673842843156,60.972677123965696 146.38051668473054,61.350616878276924 146.87459634023253,61.58319517815835 148.15339074272197,62.39721916479175 148.58934337995015,62.891447966132546 149.49031216360163,63.821760906255804 149.8390742734773,64.05433912129956 150.8562970936764,65.15908553401823 151.00161463941913,65.50795278488658 151.61194833170157,65.91496455480228 153.00699677073862,65.97310909145745 153.99515608185902,64.75207371872966 154.60548977402505,63.58918268317939 154.8961248655105,63.12402621313231 155.4773950484814,61.55412289110245 155.73896663088817,60.18772525919485 156.26210979546886,58.58874895700137 156.407427341328,58.210809048614465 156.17491926799994,56.66997689608252 156.23304628639016,56.05945839895867 156.0296017222572,55.56522909909836 156.17491926799994,54.95471050241031 155.88428417651448,54.111613301967736 156.05866523145232,53.472022252273746 156.43649085029028,52.71614184288774 157.80247578048147,52.36727393307956 159.05220667389221,52.59985254163621 159.74973089341074,52.86150346667273 160.82508073200006,53.297588319168426 162.10387513460591,53.588311538507696 162.5398277718341,53.99532402472687 163.44079655548558,54.75120429118397 164.89397201291285,55.71059066161979 165.76587728748564,56.61183227968286 166.7249730892945,57.89101372510777 167.33530678157695,58.99576114243246 167.36437029053923,59.286484117095824 167.1899892357178,60.36215901482501 167.77125941868871,61.37968916614773 167.94564047362655,62.51350829782314 167.94564047362655,63.24031533364905 167.80032292788383,63.96712229156401 167.94564047362655,64.57764007605147 168.7884822388878,65.36259143252391 169.83476856828202,65.85682001773966 169.7766415500082,65.79867548018228 171.08449946180917,66.84527708025416 171.54951560823247,67.194144244364 172.56673842843156,67.25228876998881 173.52583423035685,67.57208365190309 174.39773950481322,67.9790952980984 175.2115177611122,68.06631207623286 176.3449946178589,68.64775723521598 177.3622174381744,68.93847979605198 178.05974165757652,69.60714163861121 178.8444564047968,70.10136991477339 179.48385360604152,71.11889860540396 179.8616792249959,71.90384920538054 180.4429494079668,72.13642714355956 180.9370290634688,72.80508867136086 181.4311087189708,73.2121000039042 182.07050592033193,73.56096684094518 183.20398277707864,74.69478393779718 184.16307857912034,75.5669508066785 184.4827771798009,76.23561199705 184.83153928956017,75.97396197388298 184.86060279863887,75.91581752290949 185.5,75.15993961511413 184.94779332610779,74.5494227821182 184.27933261566795,73.90983366017463 183.32023681385908,73.1539555292984 182.56458557595033,72.57251075608656 181.983315392863,71.81663247657707 181.11141011840664,71.11889860540396 180.76264800864737,71.00260961992899 180.61733046290465,70.50838140936685 180.12325080716982,69.75250290008262 179.80355220660567,69.0547688168881 178.8444564047968,68.2116733706207 178.3503767491784,67.77558947805665 177.74004305701237,66.81620481572463 177.21689989243168,66.58362669535563 176.9262648008298,66.29290403364575 176.02529601729475,65.88589228640194 174.68837459629867,66.11847043069429 174.04897739505395,66.26383176681702 172.45048439176753,65.97310909145745 171.11356297088787,65.4788805146818 170.61948331538588,65.10094099049456 170.06727664161008,64.83929053830798 169.36975242185872,63.85083318356192 169.45694294932764,63.18217077362351 169.92195909586735,62.19371317725745 170.09634015057236,61.49597831661231 170.03821313241497,60.798243384080706 169.92195909586735,59.43184559972724 169.6894510226557,58.530604357103584 169.02099031221587,57.48400147314533 168.1490850376431,56.66997689608252 167.39343379973434,56.001313777349424 166.55059203435667,55.44893984682858 165.6205597416265,54.83842123954673 165.03928955865558,54.3151195323735 163.70236813789234,53.44294993040967 162.48170075344387,52.80335881753126 162.0748116252944,52.42541858603363 161.40635091485456,52.13469531663577 159.86598493007477,51.669538059592014 158.55812701839022,51.233453102060594 157.56996770726983,51.17530843892018 156.9596340151038,51.0880914432928 155.27395048434846,51.02994677895913 153.9079655543901,51.14623610718991 153.384822389693,51.320670095825335 153.09418729820754,52.42541858603363 153.55920344451442,53.559239217225695 154.4020452098921,54.72213197482051 154.489235737361,55.65244603701285 154.60548977402505,56.05945839895867 154.9251883745892,56.8444107422838 154.8379978472367,57.62936299451394 154.86706135619897,58.99576114243246 154.63455328310374,60.47844818269368 154.19860064587556,61.49597831661231 153.76264800864737,62.164640892879106 152.9779332615435,62.891447966132546 151.8735199138755,63.12402621313231 151.49569429492112,62.97866480969242 150.59472551138606,62.28093002983951 149.4031216361327,61.78670118396985 148.8509149623569,61.205255436798325 147.92088266951032,60.74009880310041 147.19429494079668,60.449375890835654 146.7002152852947,60.24586984486086 145.36329386441503,59.780713145417394 144.34607104409952,59.48999019197072 143.38697524229065,59.402773303503636 142.6313240043819,58.850399650487816 142.10818083956838,58.210809048614465 141.46878363832366,57.571218386350665 140.27717976318672,56.75719381979434 139.52152852527797,56.43739842748619 138.96932185138576,56.466470736515475 138.27179763186723,56.8444107422838 137.95209903130308,57.30956764353323 137.42895586660597,57.60029069054872 136.52798708283808,57.658435298420954 134.92949407966807,57.716579905856634 134.23196986003313,57.716579905856634 133.73789020441473,58.32709825350321 133.88320775027387,58.79225505280192 134.34822389669716,59.08297803616733 135.1329386436846,59.22833952316432 135.1329386436846,58.93761654605623 134.31916038750205,58.76318275381345 133.24381054891273,58.73411045465036 132.22658772871364,58.99576114243246 131.9068891281495,59.315556413901504 131.23842841770966,59.86793002890772 131.20936490851454,60.652881930727744 130.30839612497948,61.03082170287962 129.00053821317852,62.077424038841855 128.15769644791726,62.891447966132546 127.14047362760175,63.879905460751615 126.55920344463084,64.490423253068 126.21044133475516,65.10094099049456 125.48385360604152,65.82774774907739 124.37944025825709,67.04878292817739 123.39128094725311,68.06631207623286 122.19967707223259,68.99662430668832 121.44402583432384,69.6652861436014 121.03713670617435,69.9269364096981 119.61302475782577,70.9444651264057 118.91550053819083,71.38054881550488 117.57857911731116,71.99106593316537 116.32884822390042,72.57251075608656 115.71851453185081,72.74694419334992 114.7012917115353,73.24117224101792 113.68406889133621,73.6772557827062 113.0737351992866,74.1424115296104 111.76587728748564,75.47973412481952 111.5914962325478,76.26468422121252 110.95209903118666,77.16592310907436 110.25457481166814,77.97994522776571 109.99300322937779,78.35788403550396 109.76049515616614,79.20097822320531 109.5861141012283,80.4801554120204" stroke="#4DD2FF" stroke-dasharray="none" stroke-linecap="round" stroke-linejoin="round" stroke-width="0.5"><title>2026-06-18 10.1km</title><desc>9223370255108266507</desc></polyline><polyline fill="none" opacity="1" points="19.230375426472165,231.09912681393325 20.36689419776667,230.33097823610296 21.626279863412492,229.80863715620944 22.455631399177946,229.40919983421918 22.977815699530765,229.2248441397096 23.991467576706782,228.6717770276009 24.54436860070564,228.425969408534 26.141638225177303,227.50419076217804 26.663822525530122,227.25838310318068 27.800341296824627,226.42878219188424 29.274744027177803,225.35337346041342 30.28839590435382,224.4623203893425 30.933447098825127,223.69417110143695 31.148464163648896,223.3869113631663 31.762798634706996,222.89529575465713 32.99146757670678,221.63553060393315 33.728668941999786,220.37576523190364 34.34300341294147,219.85342342738295 34.558020477648824,219.60761550610187 35.11092150164768,218.74728771549417 35.84812286682427,218.13276780181332 36.923208190943114,217.39534383581486 37.47610921494197,216.81154980900465 38.33617747435346,216.3199337493861 38.95051194529515,214.9987154219416 40.05631399306003,214.63000328704948 41.31569965858944,214.6607292990666 42.267918088589795,214.59927727497416 43.127986348001286,214.59927727497416 43.98805460741278,215.06016744265798 45.27815699658822,215.12161946267588 46.1382252558833,214.87581137911184 46.44539249141235,214.7529073341866 46.78327645058744,214.7529073341866 48.56484641623683,215.3059755198774 49.732081911177374,215.27524951071246 50.40784982929472,215.06016744265798 50.745733788236976,215.5210575805395 51.54436860058922,215.79759164905408 52.28156996588223,216.22775573440595 53.78668941988144,216.56574178335723 54.769624573295005,217.08808382763527 55.629692832706496,217.51824783545453 56.15187713317573,218.0713158075814 56.70477815682534,218.8087397039635 57.59556313988287,219.82269743765937 58.424914675648324,220.62157312681666 59.19283276447095,221.32827077747788 60.14505119447131,221.8198864934966 60.882252559647895,222.40368011238752 61.404436860000715,222.0042423782288 62.17235494882334,221.51262667501578 62.57167235482484,220.43721720634494 62.66382252553012,219.91487540630624 63.33959044364747,218.47075376095017 63.984641638118774,216.59646778699243 64.29180887364782,215.49033157230588 64.5068259384716,214.29201714677038 64.56825938564725,212.50990814284887 64.35324232082348,210.60489457898075 64.23037542647216,209.19149709068006 64.41467576776631,208.45407220325433 65.09044368600007,207.501564944454 65.95051194529515,207.501564944454 66.87201365176588,207.68592119798996 67.85494880541228,207.7780993229826 69.63651877141092,208.48479824181413 70.68088737211656,208.8842367302277 71.41808873706032,208.63842843228485 72.0017064845888,208.66915446991334 71.87883959035389,209.56020950584207 72.83105802047066,210.35908634017687 74.21331058011856,211.21941513888305 74.7354948805878,211.8032096219249 75.13481228670571,212.23337394738337 75.59556313988287,212.87862038705498 76.17918088741135,213.89257896033814 76.42491467576474,214.81435935688205 76.17918088741135,215.3059755198774 75.77986348117702,215.82831765600713 76.08703071670607,216.56574178335723 76.54778156988323,217.30316583474632 76.94709897600114,219.02382165950257 76.70136518776417,219.54616352450103 77.10068259376567,220.46794319350738 77.8686006825883,221.14391487534158 78.97440273035318,221.9120644365321 79.37372013647109,222.28077619656688 79.86518771329429,222.58803598221857 80.66382252553012,222.92602173110936 82.19965870305896,223.2947334391647 83.55119453917723,223.60199318127707 84.44197952211834,223.87852693803143 85.67064846411813,224.30869053833885 86.65358361764811,224.80030605004868 87.66723549482413,225.59918118460337 88.37372013647109,226.15224853344262 89.11092150164768,226.9511235175887 89.38737201364711,227.5656426756177 89.66382252564654,227.99580605502706 90.24744027294219,228.48742131405743 90.64675767929293,229.0404884403688 90.98464163823519,229.4706517313607 91.81399317400064,230.1466225652257 92.98122866894118,231.09912681393325 93.90273037541192,231.95945312367985 94.60921501705889,232.8197793304571 94.91638225258794,232.57397185330046 95.10068259388208,231.9287271858193 95.46928327647038,231.40638622210827 95.10068259388208,230.91477116278838 93.8720136518823,230.11589661956532 93.3805460750591,229.6242814718862 92.55119453929365,228.94831058895215 92.21331058023497,228.5488732191734 91.7525597269414,227.84217627957696 91.01535836176481,227.19693118706346 90.58532423200086,227.07402735343203 90.15529010235332,226.02934468188323 89.2645051194122,224.89248395472532 88.43515358364675,224.2165126260952 87.97440273035318,223.72489707451314 87.54436860070564,223.35618538869312 86.34641638235189,222.92602173110936 86.03924914670642,222.61876196000958 85.05631399317645,222.25005021732068 83.48976109211799,222.25005021732068 82.87542662105989,222.12714629882248 82.5068259384716,221.97351639781846 81.1245733788237,221.6662565858569 80.04948805470485,221.2668188106618 78.94368600670714,220.62157312681666 78.75938566541299,220.31431325688027 78.69795221835375,218.8087397039635 78.97440273035318,217.8255078252405 79.22013651870657,217.1495358303073 79.15870307164732,216.68864579719957 79.18941979517695,215.1523454725393 78.91296928317752,214.01548302004812 78.02218430035282,212.66353824693942 77.10068259376567,211.8032096219249 75.93344709905796,210.97360692120856 75.10409556305967,210.4205384006491 73.75255972705781,209.46803140389966 73.10750853235368,208.945688803331 71.90955631399993,208.57697635650402 71.32593856647145,208.33116804796737 70.95733788388316,208.30044200882548 70.46587030705996,207.83955140557373 70.34300341294147,207.501564944454 69.20648464164697,206.97922220022883 68.3771331057651,206.73341383680236 67.30204778141342,206.33397522813175 66.0119453924708,206.33397522813175 65.15187713305932,206.1803449881263 63.80034129682463,206.1803449881263 62.54095563129522,206.2110710364068 61.957337883883156,206.4261533705867 61.31228668941185,206.97922220022883 61.28156996576581,207.8702774468111 61.92662116046995,208.79205861949595 62.725255972589366,210.08255206147442 62.97098976105917,210.60489457898075 62.94027303752955,211.0350589764421 63.21672354941256,212.23337394738337 63.247440272942185,212.60208620573394 63.247440272942185,213.00152446416905 63.18600682588294,214.23056511947652 63.1245733788237,215.58250959671568 62.29522184294183,217.45679583592573 62.11092150164768,217.8255078252405 61.097269624471664,218.77801370987436 60.267918088822626,218.8701916919672 59.16211604082491,218.40930176951224 57.964163822471164,217.67187783197733 57.50341296917759,217.2417138334131 56.612627986236475,216.71937180036912 56.059726962354034,216.47356377157848 55.1382252558833,216.07412570685847 54.58532423200086,215.76686564192642 54.001706484588794,215.61323560460005 53.29522184294183,215.33670152892591 52.68088737188373,215.09089345269604 51.69795221835375,215.09089345269604 51.114334470941685,214.93726340081776 50.254266211530194,214.6607292990666 49.54778156988323,213.6774968507816 49.02559726953041,213.00152446416905 48.44197952223476,212.6328122263658 47.48976109211799,212.47918212175136 46.53754266211763,212.3255520137609 45.61604095553048,212.72499028762104 44.633105801884085,213.0629765019985 44.172354948706925,213.00152446416905 43.49658703058958,212.94007242581574 42.72866894188337,212.90934640652267 41.99146757670678,213.12442853918765 41.68430034129415,212.9707984451088 41.22354948800057,213.21660659409827 40.85494880529586,213.92330497549847 41.13139931729529,214.5070992379333 42.17576791800093,214.69145531090908 42.69795221823733,214.56855126278242 41.960750853293575,214.32274316018447 41.40784982929472,214.01548302004812 40.14846416376531,214.35346917348215 39.28839590435382,214.56855126278242 38.95051194529515,214.96798941143788 38.24402730364818,216.10485171270557 37.81399317400064,216.59646778699243 37.23037542658858,216.68864579719957 36.49317406141199,217.4260698360158 35.54095563129522,217.91768581961514 34.926621160353534,218.56293174700113 34.37372013647109,219.26962960069068 33.91296928317752,219.79197144776117 33.05290102388244,220.95955896837404 32.25426621164661,221.97351639781846 31.91638225247152,222.25005021732068 31.30204778141342,222.8031178243109 30.411262798472308,223.63271915481891 30.04266211600043,223.93997888249578 29.45904436847195,224.58522426779382 28.78327645047102,225.19974362844368 28.199658703058958,225.59918118460337 26.909556313883513,226.45950815320248 26.141638225177303,227.10475331207272 24.42150170635432,228.14943582710112 22.947098976001143,228.88685868732864 21.472696245764382,229.3477479365538 20.827645051060244,229.6857333672233 19.568259385530837,230.2695263462956 18.831058020470664,230.91477116278838 17.970989760942757,231.65219373919535 17.23378839576617,232.75832746189553 17.0187713309424,233.12703866499942 16.58873720129486,233.6493795036804 16.066552900942042,234.66333514096914 15.667235494824126,235.76946840051096 15.452218430000357,237.52084571350133 15.421501706470735,238.44262307544705 15.421501706470735,239.4873039428494 15.697952218470164,239.79456299269805 15.11433447082527,240.6856141629978 15.206484641530551,241.39230984041933 15.022184300236404,241.91465007915394 14.96075085317716,242.9593304429436 14.530716723413207,243.69675178505713" stroke="#4DD2FF" stroke-dasharray="none" stroke-linecap="round" stroke-linejoin="round" stroke-width="0.5"><title>2026-06-16 10.1km</title><desc>9223370255286294807</desc></polyline><polyline fill="none" opacity="1" points="109.76530612260103,230.60374992911238 111.26530612260103,229.8075926428428 112.6122448979877,229.22578533919295 113.07142857147846,228.9501923894859 114.47959183692001,228.337763574149 115.61224489810411,227.84782048407942 116.68367346958257,227.14352723344928 118.09183673479129,226.13301940495148 119.43877551029436,225.21437580062775 120.75510204094462,223.92827455629595 122.04081632662565,222.5503086805693 123.32653061230667,221.17234253924107 123.7244897960918,220.3149412504863 124.52040816342924,219.51878281880636 125.25510204094462,218.90635319560533 126.29591836745385,217.83460122859105 126.78571428579744,217.6202508158749 127.6122448979877,216.57912014832254 128.19387755112257,216.48725567036308 128.56122448982205,215.96669027290773 128.53061224508565,215.3542603449314 129.44897959183436,214.55810135998763 131.19387755100615,214.3743723508669 132.1122448981041,214.3743723508669 133.55102040816564,214.52747985883616 134.31632653065026,214.83369486487936 136.06122448982205,214.74183036439354 136.64285714295693,214.55810135998763 137.68367346946616,214.89493786444655 138.51020408177283,214.9255593640264 139.64285714295693,214.95618086354807 140.6224489796441,215.3542603449314 141.08163265313487,215.50736783182947 141.84693877550308,215.66047531552613 142.8877551020123,216.11979774665087 143.28571428591385,216.24228372325888 144.4795918368036,216.79347059229622 145.79591836745385,217.31403592939023 146.31632653065026,217.89584420243045 146.65306122449692,218.07957312092185 146.92857142863795,218.6307598480489 147.41836734698154,218.93697467801394 147.75510204094462,219.33505393739324 148.1224489796441,219.916862045764 149.40816326532513,221.0498566472088 150.54081632662565,221.72352902765851 151.91836734709796,221.78477196820313 152.3775510204723,221.17234253924107 152.98979591846,219.30443245667266 153.78571428568102,217.58962932782015 154.30612244911026,215.90544728247914 154.70408163277898,214.3743723508669 154.67346938780975,213.7619422862772 154.70408163277898,211.83278723881813 154.79591836745385,211.46532907540677 154.52040816331282,210.08736079378286 154.42857142863795,209.53617340652272 154.33673469396308,209.10747207590612 154.4897959183436,208.46442003158154 154.82653061230667,207.6682602771907 155.71428571431898,207.2701803666423 157.03061224496923,207.51515262189787 158.7448979592882,207.88261098903604 160.3673469388159,208.58690613973886 161.3775510203559,208.80125682393555 161.80612244899385,209.32182274444494 162.8775510204723,210.17922535422258 164.10204081633128,210.822277243773 164.65306122461334,211.31222150172107 165.5102040816564,212.32273142738268 166.0,213.27199819666566 166.48979591846,214.16002183419187 166.55102040816564,214.68058736348758 166.18367346934974,215.69109681178816 166.42857142863795,216.51787716307444 167.07142857147846,217.86522271559807 167.13265306130052,218.53889539645752 167.13265306130052,219.30443245667266 167.59183673467487,220.34556272689952 168.44897959183436,221.2642069569556 169.27551020414103,221.78477196820313 169.55102040816564,222.06036519404734 170.7448979591718,222.6421730805887 172.48979591846,223.19335945567582 173.7755102040246,223.56081701541552 174.5102040816564,223.56081701541552 175.06122448993847,223.74454578815494 176.22448979585897,224.41821791470284 177.05102040828206,224.87753978278488 177.69387755112257,225.30624016636284 178.6122448979877,225.94929069350474 179.3775510204723,226.99041999591282 179.71428571431898,227.6334703717148 180.1122448979877,228.0621705900994 180.38775510212872,228.36838501610328 181.58163265313487,229.5932425891515 182.43877551029436,230.35877846583026 183.2346938776318,231.18555712077068 184.45918367349077,232.2879285122035 184.88775510212872,232.41041421185946 184.79591836733744,232.34917136229342 185.19387755112257,231.49177141318796 185.5,231.15493569080718 185.04081632650923,230.51188563136384 183.4795918368036,229.4707568412996 182.43877551029436,228.49087078287266 182.2244897959754,228.24589924735483 181.39795918378513,227.1129057862563 180.3571428572759,226.0411550498684 179.59183673467487,225.09188997780439 178.67346938780975,224.05076039902633 177.93877551017795,223.4995740900631 177.17346938780975,222.85652334260521 176.31632653065026,222.18285106890835 175.1224489796441,221.72352902765851 174.47959183668718,221.57042167405598 173.80612244899385,221.78477196820313 172.70408163266256,221.6929075572407 171.38775510212872,221.47855726029957 170.68367346946616,221.2029640119872 169.30612244899385,220.40680567920208 168.81632653065026,218.90635319560533 169.0,218.04895163484616 169.2448979591718,217.00782102980884 169.27551020414103,215.32363884715596 169.0918367347913,214.00691431836458 168.08163265313487,212.29210991645232 167.13265306130052,211.52657210396137 166.5204081631964,210.97538482799428 166.21428571431898,210.73041269171517 165.69387755112257,210.39357599057257 164.68367346946616,209.811767105537 163.4897959183436,208.86249987536576 162.8469387757359,208.43379850423662 161.68367346946616,208.0663401655038 161.43877551029436,207.57639568438753 160.91836734698154,207.57639568438753 160.58163265313487,207.17831576871686 159.29591836733744,206.65774969151244 157.79591836745385,206.3209127978189 156.66326530603692,206.04531896376284 155.19387755100615,205.98407588811824 154.82653061230667,206.01469742599875 152.8673469388159,205.86158973514102 152.07142857147846,206.04531896376284 151.48979591846,206.68837122654077 151.45918367349077,207.54577415325912 152.43877551029436,208.98498597671278 152.92857142863795,209.90363166952739 153.14285714295693,210.54668358393246 152.8673469388159,211.00600634451257 153.41836734698154,211.83278723881813 153.38775510212872,212.2308668945916 153.32653061242308,212.62894652801333 153.20408163266256,213.60883476189338 153.23469387751538,214.89493786444655 153.05102040828206,215.44612483750097 152.8673469388159,216.24228372325888 152.53061224496923,216.88533506629756 152.1326530611841,217.55900783964898 151.30612244911026,218.32454500492895 150.7244897959754,218.53889539645752 149.95918367349077,218.47765242814785 149.10204081633128,218.01833014865406 148.6428571428405,217.80397974140942 147.17346938792616,216.70160611707252 146.2244897959754,216.24228372325888 145.48979591846,215.8442042914685 144.69387755112257,215.44612483750097 143.7142857144354,215.13990985776763 143.40816326532513,214.9868023629533 142.79591836745385,214.9255593640264 141.9693877552636,214.89493786444655 141.38775510212872,214.64996586280176 140.6224489796441,214.34375084890053 139.8571428572759,213.30261970323045 139.42857142863795,213.02702613919973 138.38775510212872,212.50646048929775 136.8571428572759,212.26148840558017 135.6020408164477,212.56770350888837 135.14285714295693,212.72081105556572 134.6224489796441,212.56770350888837 133.76530612260103,212.3533529379638 132.90816326544154,212.56770350888837 132.08163265313487,212.72081105556572 131.80612244911026,212.65956803737208 131.13265306130052,213.67007777199615 131.3775510204723,214.2825078445021 132.02040816342924,214.3743723508669 132.81632653065026,214.40499385265866 132.69387755112257,214.03753582184436 132.17346938780975,214.00691431836458 131.50000000011642,213.54759175120853 130.48979591846,213.94567131111398 129.41836734709796,214.34375084890053 128.68367346946616,215.10928835900268 128.53061224508565,215.87482578709023 127.7346938776318,216.4260126844165 127.30612244911026,216.5484986557276 125.95918367349077,217.58962932782015 125.01020408165641,218.75324578158325 124.39795918366872,219.24318949488224 123.32653061230667,220.59053453314118 122.74489795928821,221.2029640119872 122.37755102058873,221.53980020288145 121.67346938792616,222.24409400543664 120.93877551029436,223.19335945567582 120.41836734709796,223.71392432641005 119.56122448982205,224.63256812345935 118.61224489810411,225.153132889478 118.21428571431898,225.42872598551912 117.54081632674206,226.10239795333473 116.86734693893231,226.34736956236884 115.61224489810411,227.3272559142788 114.29591836745385,227.9703062598128 113.40816326532513,228.39900645799935 111.69387755112257,229.16454246244393 109.97959183680359,229.93007838499034 108.44897959195077,231.12431426072726 107.43877551029436,232.01233568025054 106.94897959195077,233.02284267888172 106.67346938780975,233.45154257462127 106.18367346946616,234.3395637056674 106.00000000011642,234.8295063515543 105.75510204094462,235.8400129529764 105.72448979597539,236.63616956886835 105.66326530626975,237.9222685310524 105.47959183680359,238.81028910831083 105.72448979597539,239.57582400052343 105.57142857159488,240.73943688027794 105.63265306130052,241.22937908902531 105.17346938780975,242.30112755403388 105.32653061242308,242.72982689528726 104.62244897976052,243.95468201488256" stroke="#4DD2FF" stroke-dasharray="none" stroke-linecap="round" stroke-linejoin="round" stroke-width="0.5"><title>2026-06-11 10.2km</title><desc>9223370255717407907</desc></polyline></svg>