<?xml version="1.0" encoding="utf-8" ?>
<svg baseProfile="full" height="300mm" version="1.1" viewBox="0,0,200,300" width="200mm" xmlns="http://www.w3.org/2000/svg" xmlns:ev="http://www.w3.org/2001/xml-events" xmlns:xlink="http://www.w3.org/1999/xlink"><defs /><rect fill="#222222" height="300" width="200" x="0" y="0" /><text fill="#FFFFFF" style="font-size:12px; font-family:Arial; font-weight:bold;" x="10" y="20">Over 10km Runs</text><text fill="#FFFFFF" style="font-size:4px; font-family:Arial" x="10" y="280">Runner</text><text fill="#FFFFFF" style="font-size:9px; font-family:Arial" x="10" y="290">Yanfu</text><text fill="#FFFFFF" style="font-size:4px; font-family:Arial" x="65" y="280">SPECIAL TRACKS</text><rect fill="yellow" height="2.6" width="2.6" x="65" y="283" /><text fill="#FFFFFF" style="font-size:3px; font-family:Arial" x="70" y="285.5">Over 20.0 km</text><rect fill="red" height="2.6" width="2.6" x="65" y="287" /><text fill="#FFFFFF" style="font-size:3px; font-family:Arial" x="70" y="289.5">Over 40.0 km</text><text fill="#FFFFFF" style="font-size:4px; font-family:Arial" x="120" y="280">STATISTICS</text><text fill="#FFFFFF" style="font-size:3px; font-family:Arial" x="120" y="285">Number: 3</text><text fill="#FFFFFF" style="font-size:3px; font-family:Arial" x="120" y="290">Weekly: 1.5</text><text fill="#FFFFFF" style="font-size:3px; font-family:Arial" x="141" y="285">Total: 30.4 km</text><text fill="#FFFFFF" style="font-size:3px; font-family:Arial" x="141" y="290">Avg: 10.1 km</text><text fill="#FFFFFF" style="font-size:3px; font-family:Arial" x="167" y="285">Min: 10.1 km</text><text fill="#FFFFFF" style="font-size:3px; font-family:Arial" x="167" y="290">Max: 10.2 km</text><polyline fill="none" opacity="1" points="14.5,98.97983214110718 14.963519313372672,97.76273306750227 15.513948497828096,96.80644078578916 16.15128755371552,95.2415985808475 16.267167381942272,94.71998443256598 16.556866952800192,93.73471315469942 16.788626609486528,92.92331317177741 17.454935622401536,92.66250601381762 18.063304721028544,91.30051291565178 18.20815450651571,90.77889846553444 18.787553648115136,90.11239105431014 18.84549356228672,89.56179792620242 19.164163090172224,88.37367576104589 19.07725321885664,87.56227513874182 19.453862660913728,86.86678881401895 19.772532188799232,86.02640941002755 19.65665236057248,84.89624384074705 19.772532188799232,83.56322779937182 19.83047210308723,83.27344166886178 20.149141630972736,82.72284798673354 20.322961373487487,81.01310942613054 20.380901287542656,80.63638731252286 20.78648068662733,79.21643454238074 21.53969957085792,78.63686189774307 21.626609442057088,78.34707555684145 21.771459227544256,77.65158828822314 21.85836909862701,77.07201550988248 22.524678111542016,76.55039996706182 23.16201716742944,74.98555309764924 23.857296137372032,74.26108683212078 24.69742489280179,73.71049241840956 25.85622317600064,73.33376989909448 27.420600858400576,72.52236747866846 28.81115879828576,71.82687961228658 29.506437768344767,71.47913565236377 30.462446351884864,70.95751967898104 31.389484978630207,70.34896765919984 32.31652360514272,69.68245824147016 33.04077253222931,69.04492743258015 34.257510729599744,67.91475903303945 34.92381974251475,67.2482493754942 35.503218884114176,66.58173965231981 36.37231759657152,65.7123790451733 36.69098712457344,65.07484786215355 37.06759656651411,64.4952740072913 38.11051502148621,63.1332752527378 38.97961373394355,62.40880771828233 39.44313304719981,62.17697809089441 40.138412017258815,61.53944657440297 41.007510729599744,61.13374466894311 41.471030042972416,60.177447224006755 41.90557939920109,59.80072395093157 42.282188841258176,59.27910707658157 43.614806866971776,58.989319906773744 44.136266094399616,58.989319906773744 45.266094420687295,58.989319906773744 45.96137339062989,58.96034118902753 46.424892703886144,58.78646888045478 46.859442060114816,59.16319221016602 47.26502145919949,59.424000656814314 47.641630901256576,59.424000656814314 48.307939914171584,59.337064509047195 48.74248927051667,59.27910707658157 49.87231759657152,59.13421349320561 50.9442060085712,59.424000656814314 52.13197424891405,59.51093680347549 52.56652360514272,59.597872949030716 53.6673819742864,60.003574946691515 54.710300429258496,60.61212789750425 55.95600858377293,60.8729362883023 57.143776824115776,61.452510453847935 58.24463519314304,62.17697809089441 58.62124463520013,62.524722529022256 59.0268240342848,62.90144565020455 59.57725321885664,63.62591313183657 59.92489270376973,64.0895722793066 60.24356223177165,64.2634444514697 61.199570815544575,65.19076262720046 61.89484978548717,66.00216592659126 62.30042918457184,66.46582491113804 62.96673819748685,66.0311446141277 64.03862660948653,64.58221008870169 64.27038626617286,64.14752967050299 65.08154506445862,62.785530845896574 65.66094420605805,61.162723377288785 65.89270386262797,60.09051108590211 66.26931330480147,58.96034118902753 66.32725321897306,58.14893704393762 66.32725321897306,56.84489446337102 66.32725321897306,56.06246879408718 66.1534334764583,54.9612769576197 65.89270386262797,54.14987233150168 66.21137339051347,52.99072269629687 66.93562231760006,52.353190311871 68.58690987131558,52.49808404094074 69.8615879828576,52.81685023376485 71.07832618022803,53.25153138159658 72.2660944206873,53.6572337608377 72.9324034336023,53.88906368098105 73.77253218891565,54.9612769576197 75.30793991417158,55.85961767984554 75.88733905577101,56.49714973269147 76.87231759657152,57.656298765330575 77.36480686697178,59.192170926893596 77.01716738205869,59.85868137891521 76.84334763954394,60.3513194967818 76.93025751062669,60.84395757870516 77.42274678102694,61.51046786768711 77.71244635200128,62.321871608961374 77.85729613737203,63.33612614849699 77.77038626605645,64.11855097502121 77.82832618034445,64.75608224817552 79.24785407725722,65.65442166736466 79.59549356228672,65.82829379927716 80.3776824035449,66.32093148195418 81.79721030045766,66.98744123082724 83.1008583692601,67.30620673962403 83.85407725325786,67.45110014776583 84.43347639485728,67.62497223349055 85.44742489268538,67.8568016741483 86.63519313314464,68.55228994830395 87.70708154514432,69.16084212964051 88.17060085840058,69.42165019054664 88.778969957144,69.88530894072028 89.0976394850295,70.05918096390087 89.67703862662893,71.71096496100654 89.7929184549721,72.00075158564141 90.22746781120077,72.14564489328768 91.09656652365811,72.95704735885374 92.02360515040345,73.65253510911134 92.54506437759846,74.23210817985819 93.26931330480147,74.89861714988365 94.1673819742864,75.56512605433818 94.63090128754266,76.2895921805466 94.77575107302982,75.99980573935318 94.89163090137299,75.50716876087245 94.86266094422899,74.34802278803545 94.22532188845798,73.79742838145467 93.29828326182906,73.04398333153222 93.00858369097114,72.72521809287718 92.25536480697338,72.26155953711714 91.61802575108595,71.45015698825591 90.95171673817094,70.95751967898104 90.71995708160102,70.75466901180334 90.19849785417318,69.65347956964979 90.05364806868602,69.18982080355636 89.21351931337267,68.58126862483914 88.4313304721145,67.91475903303945 87.62017167382874,67.16131332836812 86.69313304719981,66.40786753987777 85.79506437771488,66.00216592659126 84.89699570822995,66.0311446141277 84.20171673817094,66.20501673631952 83.21673819748685,65.97318723905482 81.88412017177325,65.74135773384478 80.84120171680115,65.36463477095822 80.00107296137139,65.24872000896721 79.53755364811514,64.14752967050299 79.36373390560038,63.1332752527378 79.79828326182906,62.20595679472899 80.11695278983098,61.162723377288785 80.05901287554298,59.74276652248227 79.85622317600064,58.55463912864798 79.13197424903046,57.54038387097535 78.49463519314304,56.78693700951408 77.10407725314144,55.74370275464025 76.09012875542976,55.19310683285585 75.22103004297242,54.46863844629843 74.75751072971616,54.12089359306265 73.83047210308723,53.45438257424394 72.52682403440122,53.01970143956714 72.12124463520013,52.75889274536166 71.86051502160262,52.295232819451485 71.13626609439962,51.97646660194732 70.29613733920269,51.71565786728752 69.5429184549721,51.59974287086516 68.81866952800192,51.30995537110721 67.31223175977357,51.19404036772903 65.97961373394355,51.13608286526869 65.42918454948813,51.04914661066141 64.24141630902886,51.02016785889282 63.71995708148461,51.19404036772903 63.28540772537235,51.51280662222416 63.1405579400016,52.06340284453472 63.22746781108435,52.527062786364695 63.604077253257856,53.22255263925763 63.83583690994419,53.773148721957114 64.27038626617286,54.29476602192153 64.73390557942912,55.19310683285585 64.61802575108595,55.97553260298446 64.64699570811354,56.43919227580773 64.87875536479987,57.56936259480426 64.7918454936007,58.873405035352334 64.76287553657312,59.945617519988446 64.09656652365811,61.684340106206946 63.111587982974015,62.75655214456492 62.47424892708659,63.16225395249785 61.11266094422899,62.69859474137775 60.67811158800032,62.669616039667744 60.09871244628448,62.20595679472899 59.519313304685056,61.48148916079663 58.73712446365971,61.04680854314938 58.273605150170624,60.78600015913253 57.60729613725562,60.4382556315104 56.79613733908627,60.264383360918146 56.47746781120077,60.09051108590211 55.724248926970176,59.916638806374976 55.231759656686336,59.62685166389565 54.797210300457664,59.13421349320561 54.0150214593159,59.337064509047195 52.62446351943072,58.177915765030775 51.90021459234413,57.80119238042971 51.61051502148621,57.395490250346484 50.393776824115776,56.72897955516237 49.40879828319885,56.5840859170421 48.307939914171584,57.13468172526336 47.96030042914208,57.48242642311379 46.83047210308723,57.71425621173694 46.395922746742144,57.48242642311379 45.497854077257216,57.30855407641502 44.86051502160262,57.56936259480426 44.281115879886784,57.656298765330575 43.90450643771328,58.03302215805161 43.84656652365811,58.55463912864798 44.07832618022803,58.93136247128132 44.86051502160262,59.07625605899375 45.5847639485728,59.192170926893596 45.353004291886464,58.844426317111356 44.68669527908787,58.75749016192276 43.15128755371552,58.69953272448038 42.108369098743424,58.96034118902753 41.297210300457664,59.8876600927324 40.920600858400576,60.8729362883023 40.31223175977357,60.95987241633702 39.674892703886144,61.742297518008854 38.487124463543296,62.43778642115649 37.386266094399616,63.654891829472035 36.575107296113856,64.37935923037003 35.99570815451443,65.27769869964686 35.503218884114176,65.85727248742478 35.068669527885504,66.26297410935513 34.57618025748525,66.98744123082724 33.70708154514432,67.76986563479295 32.809012875542976,68.90003405860625 31.85300429177005,69.71143691317411 30.288626609370112,70.66773300973 29.303648068686016,71.21832767073647 28.521459227544256,71.62402897118591 27.333690987201408,72.20360221542069 26.72532188834157,72.37747417908395 25.76931330480147,72.95704735885374 24.78433476400096,73.478663178219 23.799356223200448,73.9133429970534 23.393776824115776,74.00027895750827 22.119098712457344,75.04351039559697 21.829399141599424,75.50716876087245 21.481759656686336,76.2895921805466 20.90236051508691,76.9850795888924 20.554721030057408,77.85443874896737 20.20708154514432,79.4192849562969 20.033261802629568,80.317622430739 19.8884120171424,81.44778876201599 19.68562231771648,82.02736116651795 19.59871244628448,83.79505669497303 19.65665236057248,84.17177863334655 19.453862660913728,84.98317966039758" stroke="#4DD2FF" stroke-dasharray="none" stroke-linecap="round" stroke-linejoin="round" stroke-width="0.5"><title>2026-06-20 10.1km</title><desc>9223370254938036107</desc></polyline><polyline fill="none" opacity="1" points="108.33308877469972,83.8128365817829 108.63022743945476,83.04004486615304 108.83822450460866,82.32669859094312 109.3433602345176,81.97002542595146 109.28393250168301,81.55390671035275 109.55135730002075,81.40529287722893 109.78906823170837,80.95945135911461 110.08620689646341,80.12721378204878 110.79933969164267,79.59220385842491 111.24504768883344,78.40329276985722 111.98789435054641,77.24410426273244 113.47358767408878,76.4415890291566 114.72157006594352,75.99574719264638 115.01870873058215,75.87685603147838 115.64269992650952,75.52018253563438 116.44497432128992,75.07434064004337 117.72267057956196,74.4798847346683 118.76265590591356,73.94487437634962 119.26779163593892,73.64764638175257 120.69405722664669,72.45873427594779 121.7340425531147,71.80483253102284 122.71460014663171,70.9428710458451 123.19002201023977,70.25924634351395 123.69515774026513,69.69451284303796 124.49743213492911,68.95144237752538 125.38884812907781,67.64363816485275 126.25055025680922,66.81139899214031 126.39911958901212,66.51417069189483 126.63683052081615,66.1574967148481 127.43910491559654,65.3847030348843 128.30080704321153,64.81996913737385 129.16250917082652,63.83911541651469 129.7865003667539,63.74994688946754 130.14306676445995,62.620478781929705 131.06419662502594,61.75851615477586 132.72817314730491,61.580179046140984 133.82758620672394,61.60990189790027 134.68928833445534,61.60990189790027 135.2538517974317,61.60990189790027 136.0561261922121,62.20435890631052 137.24468085099943,62.11519035830861 137.8983859133441,61.84768470743438 138.22523844463285,61.75851615477586 139.23550990456715,62.08546750876121 140.27549523103517,62.35297315049684 141.6423330886755,62.174636057170574 141.6423330886755,62.08546750876121 142.74174614809453,62.620478781929705 143.1874541452853,62.947430095111486 144.64343360241037,63.3338270818349 145.41599413065705,63.72022404696327 146.57483492302708,64.28495803405531 147.19882611872163,64.64163210755214 147.7039618488634,65.17664318322204 148.6548055758467,66.18721954693319 148.86280264123343,66.81139899214031 150.02164343348704,67.61391533905407 151.06162876007147,68.53532288200222 151.74504768894985,68.89199673681287 152.3096111518098,68.95144237752538 153.0821716800565,68.47587723779725 153.52787967724726,67.73280664172489 153.64673514291644,66.96001313743182 154.0627292736899,66.09805105015403 154.7758620689856,64.37412655417575 155.22157006605994,62.620478781929705 155.28099779889453,62.26380460441578 155.57813646364957,60.53987915418111 155.6672780631343,58.57817036093911 155.1027146000415,57.00285835174145 155.25128393236082,55.96255777153419 155.51870873069856,55.27893159078667 156.26155539252795,54.65475110587431 157.09354365360923,54.684473987377714 158.19295671314467,54.89253415435087 159.61922230373602,55.27893159078667 160.9860601614928,55.96255777153419 161.9963316214271,55.9328348954441 162.44203961850144,55.72477475978667 162.65003668377176,56.23006364994217 163.30374174611643,57.21091844892362 164.34372707258444,57.92426730628358 165.20542920031585,58.548447496199515 165.56199559790548,58.99429045448778 165.94827586202882,59.440133384021465 166.5722670580726,60.62904772249749 166.89911958912853,61.13433625444304 166.80997798976023,61.93685325887054 166.4831254585879,62.590755934477784 166.54255319142248,63.21493570355233 166.95854732207954,63.92828394228127 167.4339691855712,65.08747467346257 167.37454145262018,66.18721954693319 167.4042553191539,66.60333918326069 168.3253851797199,67.73280664172489 169.1870873074513,68.44615441549104 169.3059427732369,68.71365981176496 170.197358767502,69.10005647700746 170.9699192957487,69.63506720861187 171.65333822462708,69.90257255907636 173.55502567859367,70.22952352883294 174.29787234042305,70.4970288563054 175.5161408657441,70.79425698582781 176.11041819513775,71.09148510266095 177.18011738813948,71.71566410647938 178.2201027146075,72.36956585978623 178.69552457809914,72.9045763394679 179.52751283941325,73.8259831800824 179.73550990456715,74.2421023582574 180.21093176817521,74.95544946298469 180.65663976524957,75.43101415876299 180.86463683051988,75.728242077108 181.34005869401153,76.23352950904518 182.35033015394583,77.12521312292665 183.39031548053026,77.98717384081101 184.48972853994928,79.05719389376463 184.81658107123803,79.17608500056667 184.96515040355735,78.7005205610767 185.5,78.01689662237186 185.20286133536138,77.54133210348664 184.31144534109626,76.8279852643027 183.7765957446536,76.38214345264714 183.06346294935793,75.9065788218868 182.46918561996426,75.3715685736388 182.0234776228899,74.80683548888192 181.7560528246686,74.21237956068944 180.9240645634709,73.73681478144135 180.50807043281384,73.26124996971339 179.88407923700288,72.22095183038618 178.81438004400115,70.9725938574411 178.57666911231354,70.70508854830405 178.0121056494536,70.11063226888655 177.56639765226282,70.05118663818575 176.5264123256784,69.45673030271428 175.7538517974317,69.15950211585732 174.77329420403112,68.8622739163111 173.46588407922536,68.95144237752538 173.13903154805303,68.7433826328488 172.51504035212565,68.77310545393266 171.38591342628933,68.44615441549104 169.75165077031124,67.52474686061032 169.4247982391389,67.25724141858518 169.12765957450029,66.54389352240833 169.4247982391389,65.29553452780237 169.51393983862363,64.49301791243488 169.75165077031124,63.83911541651469 169.69222303747665,62.70964732335415 169.48422597208992,61.28295052156318 169.097945708083,60.3318191569997 168.3550990462536,59.41041052294895 167.01797505491413,58.429556035785936 166.21570066036656,57.86482157098362 164.8785766691435,57.06230409437558 164.31401320616715,56.52729239157634 163.45231107855216,55.90311201935401 162.50146735145245,55.635606128314976 161.93690388847608,55.51671461784281 161.69919295667205,55.130317194678355 161.2534849595977,54.86281127377879 160.4214966984,54.35752228368074 159.440939104883,54.090016332804225 158.37123991188128,53.733341715531424 157.5986793836346,53.46583574049873 156.55869405716658,53.46583574049873 155.7267057960853,53.46583574049873 154.0033015406225,53.376667079865 153.2604548789095,53.67389594420092 152.87417461478617,53.733341715531424 152.3690388847608,54.38724516646471 152.96331621415447,55.754497636749875 153.58730741008185,56.6759067576495 153.79530447535217,57.35953280032845 154.0627292736899,57.89454443875002 154.03301540727261,58.4592789010494 154.33015407179482,59.469856244977564 154.35986793832853,59.85625342570711 154.35986793832853,60.420987727935426 154.21129860612564,62.1449132077978 153.8844460748369,63.482441301690415 153.2604548789095,64.49301791243488 152.63646368298214,65.26581169181736 151.65590608946513,65.86026838660473 150.73477622889914,65.47387154080207 149.96221570065245,65.14692034682957 148.98165810701903,64.49301791243488 148.4468085106928,63.868838258553296 147.7336757152807,63.51216414530063 147.05025678640231,63.15549001371255 146.12912692583632,62.79881586373085 145.71313279529568,62.70964732335415 145.059427732951,62.35297315049684 144.28686720470432,62.174636057170574 143.66287600866053,61.877407558087725 142.89031548041385,62.026021809200756 142.2663242847193,61.966576109058224 141.3154805576196,61.04516769264592 140.98862802644726,60.480433441349305 140.15663976513315,59.82653056643903 139.29493763751816,59.55902482703095 138.40352164325304,59.38068766176002 137.45267791626975,59.618470547779 136.44240645621903,59.975144861557055 136.1155539250467,60.09403629548615 135.58070432860404,59.91569914389402 134.89728539984208,59.88597628491698 134.09501100506168,60.123759153531864 133.61958914157003,60.03459057881264 133.23330887733027,60.03459057881264 132.84702861332335,60.480433441349305 132.66874541447032,61.16405910812318 133.05502567859367,61.580179046140984 134.303008070332,61.6693476010696 134.362435803283,61.4018419329077 133.53044754220173,61.16405910812318 132.99559794564266,61.01544483844191 131.68818782095332,61.431564785481896 130.94534115912393,61.69907045242144 130.14306676445995,62.5313102392829 130.02421129844151,63.2446585483267 129.51907556853257,63.60133267531637 128.68708730733488,63.958006783912424 128.24137931026053,64.46329507313203 127.37967718252912,64.99830616259715 126.81511371966917,65.62248571478995 126.1911225237418,66.21694237896008 125.3591342625441,67.22751859092386 124.52714600134641,68.32726312498562 124.17057960375678,68.8622739163111 123.90315480553545,69.15950211585732 123.04145267780405,70.05118663818575 122.38774761534296,70.4970288563054 121.76375641964842,71.15093072445597 121.52604548784439,71.41843601642177 120.78319882589858,72.01289218384773 119.71349963312969,72.75596232147655 118.94093910476658,73.11263595934724 117.57410124712624,74.27182515570894 116.08840792370029,74.92572666844353 114.66214233299252,75.5499053276144 113.47358767408878,76.11463835183531 112.6713132794248,76.47131181729492 111.72046955232508,77.0954903375823 111.18561995599885,77.54133210348664 110.38334556110203,78.3735699900426 109.69992663222365,79.35442165698623 109.46221570053604,79.71109495620476 108.98679383704439,80.12721378204878 108.45194424060173,81.43501564412145 108.1548055758467,82.9211538254167 108.00623624341097,83.96145036345115 107.79823917825706,85.26925150502939 107.82795304455794,85.62592450104421 108.24394717509858,86.10148846724769 107.73881144518964,87.29039824078791 107.73881144518964,87.8551303120912 107.56052824633662,88.36041686346289 107.44167278055102,89.43043532193406 107.14453411579598,89.90599902847316 106.84739545115735,90.67878998245578 106.87710931757465,91.74880808504531 106.75825385167263,92.1352034706506 106.60968451935332,92.93771689536516 106.07483492279425,93.65106208436191 105.92626559059136,94.69135702081257 105.74798239173833,95.07775224349461 105.18341892876197,95.61276097793598 104.61885546566918,96.47471940837568" stroke="#4DD2FF" stroke-dasharray="none" stroke-linecap="round" stroke-linejoin="round" stroke-width="0.5"><title>2026-06-16 10.1km</title><desc>9223370255286294807</desc></polyline><polyline fill="none" opacity="1" points="19.1226826608181,232.52519274267252 19.38767720828764,231.46489731100155 19.976553980377503,230.66967563025537 20.182660850463435,230.11007513327058 20.300436204997823,229.78609587746905 20.624318429618143,229.0792319936736 21.595965103595518,228.34291537094396 22.096510359784588,226.92918723478215 22.655943293357268,226.25177573334076 24.098691385006532,225.48600612976588 25.39422028348781,224.9264052117651 25.835877862526104,224.66133107690257 27.190294438390993,224.072277407191 28.279716466669925,223.60103443509433 29.310250817914493,222.92362260620575 30.664667393662967,221.95168377883965 31.96019629226066,221.0681029074767 33.22628135222476,219.83108949687448 34.46292257355526,218.50571773856063 35.69956379500218,217.18034572477336 36.082333696773276,216.35566967600607 36.8478735005483,215.5898989707639 37.55452562705614,215.00084452400915 38.55561613955069,213.96999912059982 39.02671755722258,213.7638300214021 39.821701199398376,212.76243716556928 40.381134132971056,212.67407896538498 40.73446019610856,212.1733824762341 40.70501635770779,211.58432773634559 41.58833151566796,210.81855649888166 43.26663031615317,210.64184004737763 44.14994547434617,210.64184004737763 45.53380588861182,210.78910375735722 46.26990185386967,211.08363116774126 47.94820065423846,210.9952729459328 48.50763358781114,210.81855649888166 49.5087241003057,211.1425366482581 50.30370774259791,211.17198938829824 51.393129770993255,211.20144212830928 52.33533260622062,211.58432773634559 52.776990185375325,211.7315914260398 53.51308615040034,211.87885511261993 54.5141766628949,212.32064615326817 54.896946564898826,212.4384570926195 56.04525627032854,212.96860629486036 57.31134133040905,213.4693027259782 57.81188658659812,214.0289045763784 58.13576881121844,214.20562094074558 58.40076335868798,214.73577000651858 58.87186477635987,215.03029724754742 59.19574700098019,215.41318264204892 59.54907306423411,215.9727843340952 60.785714285681024,217.06253486673813 61.875136313959956,217.71049456097535 63.20010905119125,217.76939998471062 63.64176663022954,217.18034572477336 64.2306434023194,215.38372992016957 64.99618320597801,213.7343772923923 65.4967284622835,212.11447700450663 65.87949836417101,210.64184004737763 65.85005452553742,210.0527851760853 65.87949836417101,208.1972620007 65.9678298800718,207.84382895802264 65.70283533260226,206.51845488563413 65.61450381670147,205.98830518487375 65.5261723009171,205.57596650047344 65.67339149385225,204.9574584272923 65.99727371858899,204.19168644980527 66.85114503803197,203.80880042896024 68.11723009799607,204.04442259817733 69.7660850599641,204.39785583678167 71.32660850591492,205.07526949318708 72.29825517977588,205.28143885350437 72.71046892029699,205.78213584580226 73.74100327142514,206.60681316509726 74.91875681560487,207.22532108944142 75.44874591054395,207.69656518485863 76.27317339146975,208.668506029353 76.74427480902523,209.5815412425436 77.21537622681353,210.43567084815004 77.27426390396431,210.9363674641063 76.9209378407104,211.90830784951686 77.15648854954634,212.70353169881855 77.7748091602698,213.99945184859098 77.83369683742058,214.64741183171282 77.83369683742058,215.38372992016957 78.27535441645887,216.3851223938109 79.09978189738467,217.26870386701194 79.8947655397933,217.76939998471062 80.15976008714642,218.03447438511648 81.30806979269255,218.59407586374437 82.98636859317776,219.1242245909525 84.22300981450826,219.47765705297934 84.92966194113251,219.47765705297934 85.45965103607159,219.65437327715335 86.5785169028677,220.30233272712212 87.37350054527633,220.74412322614808 87.99182115588337,221.1564609997149 88.87513631407637,221.7749676136009 89.61123227910139,222.7763591563853 89.9351145037217,223.39486562466482 90.31788440560922,223.80720323932474 90.58287895307876,224.10173009181744 91.73118865862489,225.2798373757978 92.5556161395507,226.01615432591643 93.3211559432093,226.81137654359918 94.49890948738903,227.87167269110796 94.91112322791014,227.98948336407193 94.82279171200935,227.93057802782278 95.20556161389686,227.10590326762758 95.5,226.78192387055606 95.05834242084529,226.16341770652798 93.55670665204525,225.16202665650053 92.5556161395507,224.2195408293337 92.34950926934835,223.98391935238033 91.55452562693972,222.89416991654434 90.55343511444516,221.8633256967878 89.81733914930373,220.95029211606015 88.93402399122715,219.94890030744136 88.22737186471932,219.4187516438542 87.4912758996943,218.80024481806322 86.66684841865208,218.15228522659163 85.51853871322237,217.71049456097535 84.9002181023825,217.5632309994835 84.25245365314186,217.76939998471062 83.1924754633801,217.681041848904 81.92639040353242,217.47487286102842 81.24918211554177,217.2097984389693 79.92420937831048,216.44402782883844 79.45310796063859,215.00084452400915 79.62977099232376,214.17616821368574 79.86532170104329,213.17477541798144 79.8947655397933,211.55487499799347 79.71810250810813,210.28840713060345 78.74645583413076,208.63905327842804 77.83369683742058,207.90273446639185 77.2448200652143,207.37258487270446 76.95038167934399,207.13696281798184 76.4498364230385,206.8129824794596 75.47818974917755,206.25338004043442 74.329880043515,205.34034438393428 73.71155943302438,204.92800566053484 72.59269356599543,204.574572449259 72.35714285715949,204.10332813920104 71.85659760073759,204.10332813920104 71.53271537611727,203.72044211337925 70.29607415478677,203.21974497046904 68.85332606325392,202.89576444673003 67.76390403474215,202.63068946133717 66.35059978172649,202.5717839076242 65.99727371858899,202.6012366845389 64.11286804790143,202.45397279868484 63.34732824424282,202.63068946133717 62.78789531078655,203.24919774461887 62.758451472152956,204.0738753687765 63.700654307496734,205.4581554432225 64.17175572505221,206.3417383233318 64.37786259537097,206.9602462715702 64.11286804790143,207.40203762904275 64.6428571427241,208.1972620007 64.61341330420692,208.58014777643257 64.55452562705614,208.96303353077383 64.43675027252175,209.90552145036054 64.46619411115535,211.1425366482581 64.2895310795866,211.67268595058704 64.11286804790143,212.4384570926195 63.78898582328111,213.05696449126117 63.406215921393596,213.7049245632952 62.6112322792178,214.44124275282957 62.05179934564512,214.64741183171282 61.31570338050369,214.58850638123113 60.491275899577886,214.1467154865095 60.04961832042318,213.94054639249225 58.63631406764034,212.88024809735361 57.723555070813745,212.4384570926195 57.01690294430591,212.05557153222617 56.2513631406473,211.67268595058704 55.30916030530352,211.37815856549423 55.01472191920038,211.2308948681748 54.42584514722694,211.17198938829824 53.63086150493473,211.1425366482581 53.07142857136205,210.9069147229893 52.33533260622062,210.61238730503828 51.5992366411956,209.61099398936494 51.18702290067449,209.34591926363646 50.185932388179936,208.84522253167233 48.71374045801349,208.60960052750306 47.50654307520017,208.9041280314559 47.06488549616188,209.0513917786302 46.56434023985639,208.9041280314559 45.739912758930586,208.69795878001605 44.915485278121196,208.9041280314559 44.12050163571257,209.0513917786302 43.855507088359445,208.9924862801854 43.20774263900239,209.9644269409764 43.44329334772192,210.55348181992304 44.06161395856179,210.64184004737763 44.827153762220405,210.67129278960056 44.70937840780243,210.31785987442709 44.20883315149695,210.28840713060345 43.56106870225631,209.8466159591917 42.58942202827893,210.22950164275244 41.558887677267194,210.61238730503828 40.852235550642945,211.3487058262399 40.70501635770779,212.0850242684828 39.939476553932764,212.61517349796486 39.52726281352807,212.73298443222302 38.23173391481396,213.7343772923923 37.31897491810378,214.85358090439695 36.730098146013916,215.3248244759743 35.69956379500218,216.62074413109804 35.1401308614295,217.2097984389693 34.786804798291996,217.53377828674274 34.109596510301344,218.2111906464561 33.402944383909926,219.1242245909525 32.90239912760444,219.6249205735221 32.07797164656222,220.50850163021823 31.165212649852037,221.00919751203037 30.78244274808094,221.2742717875808 30.1346782988403,221.92223108489998 29.486913849483244,222.15785263248836 28.279716466669925,223.10033874196233 27.013631406705827,223.71884518119623 26.159760087146424,224.1311827764148 24.510905125411227,224.8674998493807 22.862050163559616,225.60381684359163 21.38985823339317,226.7524711973092 20.418211559415795,227.60659866951755 19.947110141743906,228.5785366987693 19.682115594274364,228.99087400306598 19.211014176602475,229.84500119785662 19.034351145033725,230.31624374270905 18.79880043619778,231.28818138985662 18.769356597564183,232.05395034869434 18.710468920413405,233.29096156419837 18.53380588872824,234.1450882263307 18.769356597564183,234.8814042295271 18.622137404512614,236.00060440396192 18.681025081663392,236.47184652840951 18.239367502741516,237.50268856345792 18.386586695793085,237.9150253343978 17.709378407802433,239.09313025858137 17.76826608495321,239.7705404990411 17.326608506031334,240.8602872682095 17.06161395867821,241.7733182127995 16.59051254077349,243.0986854984949 16.38440567057114,243.77609534640214 15.824972737114877,244.27678953914437 15.206652126391418,245.0131044627342 14.882769901771098,246.16175558694522 14.5,247.54602720131516" stroke="#4DD2FF" stroke-dasharray="none" stroke-linecap="round" stroke-linejoin="round" stroke-width="0.5"><title>2026-06-11 10.2km</title><desc>9223370255717407907</desc></polyline></svg>