<?xml version="1.0" encoding="utf-8" ?>
<svg baseProfile="full" height="300mm" version="1.1" viewBox="0,0,200,300" width="200mm" xmlns="http://www.w3.org/2000/svg" xmlns:ev="http://www.w3.org/2001/xml-events" xmlns:xlink="http://www.w3.org/1999/xlink"><defs /><rect fill="#222222" height="300" width="200" x="0" y="0" /><text fill="#FFFFFF" style="font-size:12px; font-family:Arial; font-weight:bold;" x="10" y="20">Over 10km Runs</text><text fill="#FFFFFF" style="font-size:4px; font-family:Arial" x="10" y="280">Runner</text><text fill="#FFFFFF" style="font-size:9px; font-family:Arial" x="10" y="290">Yanfu</text><text fill="#FFFFFF" style="font-size:4px; font-family:Arial" x="65" y="280">SPECIAL TRACKS</text><rect fill="yellow" height="2.6" width="2.6" x="65" y="283" /><text fill="#FFFFFF" style="font-size:3px; font-family:Arial" x="70" y="285.5">Over 20.0 km</text><rect fill="red" height="2.6" width="2.6" x="65" y="287" /><text fill="#FFFFFF" style="font-size:3px; font-family:Arial" x="70" y="289.5">Over 40.0 km</text><text fill="#FFFFFF" style="font-size:4px; font-family:Arial" x="120" y="280">STATISTICS</text><text fill="#FFFFFF" style="font-size:3px; font-family:Arial" x="120" y="285">Number: 3</text><text fill="#FFFFFF" style="font-size:3px; font-family:Arial" x="120" y="290">Weekly: 1.5</text><text fill="#FFFFFF" style="font-size:3px; font-family:Arial" x="141" y="285">Total: 30.4 km</text><text fill="#FFFFFF" style="font-size:3px; font-family:Arial" x="141" y="290">Avg: 10.1 km</text><text fill="#FFFFFF" style="font-size:3px; font-family:Arial" x="167" y="285">Min: 10.1 km</text><text fill="#FFFFFF" style="font-size:3px; font-family:Arial" x="167" y="290">Max: 10.2 km</text><polyline fill="none" opacity="1" points="14.5,97.57085072994232 14.61829134717118,97.0383815227251 14.914019715273753,96.0326062423701 15.150602409732528,95.20432060808525 15.83077765617054,94.93808591892594 16.451807228848338,93.54774904326769 16.599671413074248,93.01527952789911 17.191128148930147,92.3349017543369 17.250273822573945,91.77285049980856 17.575575027382,90.56000290077645 17.48685651703272,89.73171661380911 17.871303395251743,89.02175686066039 18.196604600176215,88.16388872865355 18.078313253005035,87.01020383206196 18.196604600176215,85.64944704066147 18.255750273820013,85.3536303115834 18.58105147862807,84.79157849150943 18.758488499443047,83.04625939129619 18.81763417297043,82.66169749657274 19.231653888244182,81.21219477831619 20.000547645031475,80.62056092856801 20.08926615549717,80.32474398476188 20.237130339606665,79.61478326804354 20.32584884983953,79.0231492818275 21.006024096277542,78.49067865105462 21.65662650601007,76.89326651272131 22.36637458926998,76.15372373125865 23.22398685652297,75.59167116438039 24.406900328584015,75.20710885548033 26.003833515918814,74.37882073299261 27.42332968232222,73.66885940608336 28.133077765698545,73.31387871532934 29.1089813800063,72.78140764503041 30.055312157724984,72.1601913444465 31.001642935327254,71.47981152261491 31.740963855409063,70.8290133694245 32.98302300111391,69.67532558366656 33.66319824755192,68.99494551704265 34.25465498352423,68.31456538342172 35.14184008759912,67.42711293449975 35.46714129252359,66.77631439937977 35.85158817085903,66.1846793142322 36.9162102957489,64.7943366644613 37.803395399823785,64.05479258767446 38.276560788508505,63.81813846639125 38.98630887188483,63.16733959084377 39.8734939758433,62.753194819903 40.34665936476085,61.776996332831914 40.79025191674009,61.392433254484786 41.174698795191944,60.859961264475714 42.53504928806797,60.56414347450482 43.0673603505129,60.56414347450482 44.220700985752046,60.56414347450482 44.93044906901196,60.5345616947161 45.40361445792951,60.357071013888344 45.84720700990874,60.74163415003568 46.26122672506608,61.00787015471724 46.645673603517935,61.00787015471724 47.325848849955946,60.91912482093903 47.7694414020516,60.859961264475714 48.922782037290744,60.71205237106187 50.01697699888609,61.00787015471724 51.22946330776904,61.09661548733129 51.67305585986469,61.1853608188394 52.79682365828194,61.599505683931056 53.8614457831718,62.220722934929654 55.133077765698545,62.486958882567706 56.345564074465074,63.07859428485972 57.46933187288232,63.81813846639125 57.853778751334175,64.17311964530381 58.26779846660793,64.55768256855663 58.82968236587476,65.29722659141407 59.1845564073883,65.77053472443367 59.50985761231277,65.9480252659996 60.48576122673694,66.89464141035569 61.19550930999685,67.7229304301145 61.60952902515419,68.19623839680571 62.2897042715922,67.75251217905316 63.383899233303964,66.27342458025669 63.62048192776274,65.82969823878375 64.44852135819383,64.43935551750474 65.03997809428256,62.78277659005835 65.27656078862492,61.688251008919906 65.66100766707677,60.5345616947161 65.72015334072057,59.70627181167947 65.72015334072057,58.375091433670605 65.72015334072057,57.57638308344758 65.5427163199056,56.452274877985474 65.27656078862492,55.623984503909014 65.60186199343298,54.440712368057575 66.34118291351479,53.78991260653129 68.02683461119886,53.93782164869481 69.32803943043109,54.263221530098235 70.57009857601952,54.7069486163964 71.78258488501888,55.12109387098462 72.46276013145689,55.35774829110596 73.3203723988263,56.452274877985474 74.88773274922278,57.369310533104 75.47918948519509,58.02010995615274 76.48466593644116,59.203381476865616 76.9874041620642,60.771215928776655 76.63253012055065,61.451596806407906 76.45509309973568,61.95448697710526 76.54381160996854,62.45737711110269 77.04654983559158,63.137757822318235 77.34227820381057,63.96604729315732 77.49014238768723,65.00140899178223 77.40142387733795,65.80011648172513 77.46056955098175,66.45091510887141 78.90963855420705,67.36794943382847 79.264512595837,67.5454399342998 80.06297918956261,68.04832966075628 81.51204819278792,68.72870982059976 82.84282584895846,69.05410900374409 83.61171960574575,69.20201771831489 84.20317634171806,69.37950817163801 85.23822562978603,69.61616210229113 86.45071193866897,70.32612384547247 87.54490690038074,70.94734031098778 88.01807228906546,71.21357592189452 88.6391018620925,71.68688364935224 88.96440306678414,71.86437403882155 89.55585980287287,73.55053251123172 89.67415115004405,73.84634974470828 90.1177437021397,73.99425835665897 91.0049288062146,74.82254652524716 91.95125958393328,75.53250773361651 92.48357064614538,76.12414201832144 93.22289156622719,76.80452138313558 94.13964950712398,77.48490068101091 94.61281489592511,78.22444332021405 94.7606790800346,77.92862627402064 94.87897042720579,77.42573726642877 94.84939759038389,76.24246886916808 94.19879518076777,75.68041630956577 93.25246440304909,74.91129168026964 92.95673603506293,74.58589277291321 92.18784227827564,74.11258524391451 91.53723986854311,73.28429699031403 90.8570646221051,72.78140764503041 90.62048192776274,72.57433555103489 90.0881708653178,71.45022978974157 89.94030668132473,70.9769220460148 89.08269441407174,70.35570558320615 88.28422782034613,69.67532558366656 87.45618838991504,68.90620028603007 86.50985761219636,68.13707490279921 85.59309967141598,67.7229304301145 84.67634173063561,67.75251217905316 83.96659364725929,67.93000266960007 82.96111719612963,67.69334868117585 81.60076670325361,67.45669468460255 80.53614457836375,67.0721319229342 79.67853231099434,66.95380491504329 79.20536692230962,65.82969823878375 79.02792990149464,64.7943366644613 79.47152245347388,63.84772023197729 79.79682365828194,62.78277659005835 79.73767798463814,61.33326970212511 79.53066812711768,60.12041676559602 78.79134720703587,59.08505433390383 78.14074479741976,58.31592785540852 76.72124863078352,57.25098335862276 75.68619934283197,56.68892925226828 74.79901423875708,55.94938430565526 74.32584885007236,55.59440270299092 73.37951807235368,54.91402124677552 72.04874041629955,54.47029417389422 71.6347207010258,54.2040579165041 71.36856516986154,53.730748988862615 70.62924424977973,53.405349082284374 69.77163198252674,53.139112783566816 69.00273822562303,53.020785536413314 68.26341730565764,52.72496740959468 66.72562979196664,52.60664015531074 65.3652792989742,52.54747652739752 64.80339539982378,52.458731084596366 63.59090909094084,52.42914927008678 63.05859802837949,52.60664015531074 62.615005476400256,52.932040099665755 62.46714129252359,53.49409451280371 62.55585980275646,53.96740345674334 62.94030668132473,54.67736681149108 63.17688937566709,55.23942108210758 63.62048192776274,55.77189350660774 64.09364731656387,56.68892925226828 63.975355969392695,57.487637705460656 64.00492880609818,57.96094637474744 64.24151150044054,59.11463611989166 64.15279299020767,60.445816354913404 64.12322015338577,61.54034213331761 63.44304490694776,63.31524843163788 62.437568455701694,64.40977375445073 61.786966045969166,64.8239184258855 60.39704271638766,64.35061022790615 59.95345016429201,64.32102846450289 59.36199342820328,63.84772023197729 58.77053669223096,63.10817605361808 57.97207009862177,62.66444950856385 57.49890470970422,62.398213567823404 56.81872946326621,62.043232297553914 55.99069003283512,61.86574165552156 55.66538882802706,61.688251008919906 54.896495071123354,61.510760357778054 54.39375684550032,61.214942595688626 53.950164293521084,60.71205237106187 53.15169769991189,60.91912482093903 51.73220153350849,59.73585359487333 50.99288061342668,59.351290402701125 50.697152245324105,58.937145402422175 49.45509309973568,58.25676427659346 48.449616648373194,58.108855327242054 47.325848849955946,58.67090931767598 46.97097480832599,59.02589076172444 45.817634173086844,59.26254504756071 45.37404162099119,59.02589076172444 44.45728368021082,58.84840004198486 43.80668127059471,59.11463611989166 43.21522453450598,59.203381476865616 42.830777656054124,59.587944677332416 42.77163198252674,60.12041676559602 43.0082146768691,60.50497991495649 43.80668127059471,60.65288881279412 44.5460021905601,60.771215928776655 44.30941949621774,60.41623457465903 43.62924424977973,60.32748923328472 42.06188389926683,60.26832567175734 40.997261774376966,60.5345616947161 40.169222343945876,61.48117858218029 39.78477546549402,62.486958882567706 39.16374589269981,62.57570419617696 38.51314348296728,63.374411967000924 37.30065717420075,64.08437435224187 36.17688937566709,65.32680835068459 35.348849945236,66.06635229111998 34.75739320914727,66.98338666724158 34.25465498352423,67.57502168387873 33.81106243142858,67.989166165411 33.30832420580555,68.72870982059976 32.42113910196349,69.52741687922389 31.504381160950288,70.68110468972009 30.52847754652612,71.50939325540094 28.93154435919132,72.48559036600636 27.926067907945253,73.04764318533125 27.127601314452477,73.46178733868874 25.915115005453117,74.05342180051957 25.294085432542488,74.23091212924919 24.318181818234734,74.82254652524716 23.312705366988666,75.3550174383272 22.3072289157426,75.7987431679503 21.893209200468846,75.88748831051635 20.592004381120205,76.95242993187276 20.296276013134047,77.42573726642877 19.941401971504092,78.22444332021405 19.349945235531777,78.93440417957027 18.995071193901822,79.82185515129822 18.640197152271867,81.41926661378238 18.46276013145689,82.33629895347985 18.314895947347395,83.48998462792952 18.10788608994335,84.08161823253613" stroke="#4DD2FF" stroke-dasharray="none" stroke-linecap="round" stroke-linejoin="round" stroke-width="0.5"><title>2026-06-20 10.1km</title><desc>9223370254938036107</desc></polyline><polyline fill="none" opacity="1" points="107.91784914105665,82.83621299569495 108.00858849880751,82.56391339015681 108.40179238235578,82.23110274696955 108.4320388349006,81.4747148634633 109.24869305454195,80.9603710565134 109.79312920093071,79.87117228313582 110.39805825229269,78.57018463965505 111.51717699761502,77.81379636487691 112.75728155334946,77.29945229185978 113.57393577299081,76.906130328367 114.08812546671834,76.72459710715339 115.086258401745,76.17999741539825 115.63069454825018,75.93795309442794 117.20351008221041,75.03028681722935 117.71769977593794,74.78824245696887 118.83681852126028,73.97134267981164 120.28864824492484,72.91239838377805 121.2867811799515,72.03498727531405 121.92195668409113,71.27859830134548 122.13368185202125,70.97604268905707 122.73861090361606,70.49195368244546 123.94846900668927,69.25147545151412 124.67438386857975,68.01099700265331 125.27931292017456,67.49665221606847 125.49103808810469,67.2546075975406 126.03547423449345,66.40745136758778 126.76138909638394,65.80233971250709 127.82001493650023,65.07620565785328 128.364451082889,64.50134947831975 129.21135175495874,64.01726002752548 129.81628080655355,62.71626946388278 130.90515309933107,62.35320228699129 132.1452576549491,62.38345788582228 133.0828976847697,62.32294668810209 133.92979835683946,62.32294668810209 134.77669902914204,62.77678065828513 136.0470500374213,62.8372918520472 136.89395070949104,62.595247073681094 137.19641523528844,62.47422468144214 137.52912621374708,62.47422468144214 139.2834204629762,63.018825430364814 140.43278566095978,62.98856983432779 141.0982076175278,62.77678065828513 141.43091859587003,63.23061459913151 142.21732636296656,63.5029149496695 142.94324122485705,63.926493251812644 144.42531740118284,64.25930475705536 145.39320388354827,64.77364977973048 146.24010455561802,65.19722800544696 146.75429424957838,65.74182854412356 147.2987303957343,66.46796253020875 148.1758775205817,67.46639663918177 148.99253174010664,68.25304159522057 149.74869305454195,68.94891975237988 150.68633308436256,69.43300886481302 151.41224794625305,70.00786464259727 151.92643763998058,69.61454227333888 152.6825989545323,69.1304531734786 153.07580283784773,68.07150815153727 153.1665421955986,67.557163369318 153.83196415239945,66.13515112927416 154.46713965642266,64.28956034762086 154.76960418222006,63.20035900402581 154.9813293502666,62.02039069181774 155.04182225547265,60.26556565699866 154.8300970874261,58.38971772271907 154.70911127701402,56.99795925489161 154.89058999251574,56.271824293013196 155.55601194920018,55.3338998563122 156.40291262138635,55.3338998563122 157.31030619866215,55.515433627937455 158.278192681144,55.60620051209116 160.03248693072237,56.30207991792122 161.06086631829385,56.695403029967565 161.7867811799515,56.45335804054048 162.3614637790015,56.483613664633594 162.24047796870582,57.36102670780383 163.17811799852643,58.147672791499645 164.53920836444013,58.99483001418412 165.05339805828407,59.569686642847955 165.44660194183234,59.993265181430615 165.90029873047024,60.62863294145791 166.47498132940382,61.62706787715433 166.71695294999518,62.53473587776534 166.47498132940382,63.018825430364814 166.08177744597197,63.53317054355284 166.38424197165295,64.25930475705536 166.83793876029085,64.98543889576104 167.23114264383912,66.67975159548223 166.98917102324776,67.19409644167172 167.3823749065632,68.10176372586284 168.13853622111492,68.76738632674096 169.22740851389244,69.52377556974534 169.6206123974407,69.88684237754205 170.10455563862342,70.18939803651301 170.89096340548713,70.52220924629364 172.40328603435773,70.88527600286761 173.73412994772661,71.18783161899773 174.6112770724576,71.46013166249031 175.8211351755308,71.88370948698139 176.78902165801264,72.36779839824885 177.7871545930393,73.15444280824158 178.48282300226856,73.6990427331184 179.20873786415905,74.48568699497264 179.48095593729522,75.0907979059848 179.7531740105478,75.51437551295385 180.3278566094814,75.99846417544177 180.72106049302965,76.54306388122495 181.05377147137187,76.96664140111534 181.8704256907804,77.63226316694636 183.01979088876396,78.57018463965505 183.92718446615618,79.41733941138955 184.62285287538543,80.2644940817845 184.92531740118284,80.02244990057079 185.10679611668456,79.38708388560917 185.46975354745518,78.87273992691189 185.10679611668456,78.38865146110766 183.89693801361136,77.60200763348257 183.41299477231223,77.11791908065788 182.5963405527873,76.4522972665145 182.26362957444508,76.05897525598994 181.80993278569076,75.36309779906878 181.0840179239167,74.72773136553587 180.6605675877072,74.6067091813311 180.23711725173052,73.5780205312185 179.35997012699954,72.4585650654044 178.5433159074746,71.79294281243347 178.0896191187203,71.30885386187583 177.66616878274363,70.94578712718794 176.48655713233165,70.52220924629364 176.18409260641783,70.21965360164177 175.2162061240524,69.8565868108999 173.67363704263698,69.8565868108999 173.06870799104217,69.73556454322534 172.70575056015514,69.58428670564899 171.34466019424144,69.28173102071742 170.28603435412515,68.8884086110047 169.1971620612312,68.25304159522057 169.01568334572949,67.95048585324548 168.95519044063985,66.46796253020875 169.22740851389244,65.49978386546718 169.4693801344838,64.83416095637949 169.40888722939417,64.38032711867709 169.43913368193898,62.86754744872451 169.1669156086864,61.7480902839452 168.28976848407183,60.41684369451832 167.3823749065632,59.569686642847955 166.23300970881246,58.75278510374483 165.4163554891711,58.20818402507575 164.08551157591864,57.27025984640932 163.45033607177902,56.75591427600011 162.27072442136705,56.39284679188859 161.69604182220064,56.15080179204233 161.33308439143002,56.12054616649402 160.8491411501309,55.66671176743694 160.7281553398352,55.3338998563122 159.60903659451287,54.819554144341964 158.79238237498794,54.57750909042079 157.73375653475523,54.18418586003827 156.4634055265924,54.18418586003827 155.61650485440623,54.03290768864099 154.28566094092093,54.03290768864099 153.04555638530292,54.063163323211484 152.47087378636934,54.27495276130503 151.83569828246254,54.819554144341964 151.8054518298013,55.696967394964304 152.44062733394094,56.60463615990011 153.22703510080464,57.87537223403342 153.46900672151241,58.38971772271907 153.43876026885118,58.81329633214045 153.71097834210377,59.993265181430615 153.7412247946486,60.3563324798597 153.7412247946486,60.74965536542004 153.68073188944254,61.959879490954336 153.6202389843529,63.291125789051875 152.80358476482797,65.13671683194116 152.62210604932625,65.49978386546718 151.6239731142996,66.43770694901468 150.80731889477465,66.52847369242227 149.71844660188071,66.07463996374281 148.53883495146874,65.34850593708688 148.08513816283084,64.92492772039259 147.20799103798345,64.41058270883514 146.6635548917111,64.16853798436932 145.7561613144353,63.7752152896137 145.21172516804654,63.47265935561154 144.63704256911296,63.32138138380833 143.9413741597673,63.04908102628542 143.3364451082889,62.80703625519527 142.36855862580705,62.80703625519527 141.79387602687348,62.655758269072976 140.94697535480373,62.38345788582228 140.25130694545805,61.415278660249896 139.73711725173052,60.74965536542004 139.16243465279695,60.38658808724722 138.22479462285992,60.23531004914548 137.2871545930393,60.084032007842325 136.3797610156471,60.477354908536654 135.41187453316525,60.81016657670261 134.95817774464376,60.74965536542004 134.2927557878429,60.689144153671805 133.53659447352402,60.65888854768127 132.81067961163353,60.8706777873449 132.50821508595254,60.71939975966234 132.05451829719823,60.96144460240612 131.69156086619478,61.657323479128536 131.96377893944737,62.23217989056138 132.99215832701884,62.41371348447865 133.5063480208628,62.29269108909648 132.78043315920513,62.050646291987505 132.23599701269995,61.7480902839452 130.99589245708194,62.080901892099064 130.14899178489577,62.29269108909648 129.81628080655355,62.68601386656519 129.1206123973243,63.80547088239109 128.6971620612312,64.28956034762086 128.12247946229763,64.38032711867709 127.39656460052356,65.10646124504274 126.45892457058653,65.59055062092375 125.85399551899172,66.22591787658166 125.30955937271938,66.92179623362608 124.85586258396506,67.43614106217865 124.00896191189531,68.58585289627081 123.22255414503161,69.58428670564899 122.88984316657297,69.8565868108999 122.28491411486175,70.40118699002778 121.40776699024718,71.21808717993554 121.04480955936015,71.52064278180478 120.47012696042657,72.15600950369844 119.80470500374213,72.76112061418826 119.23002240480855,73.15444280824158 117.9596713965293,74.00159822875867 117.20351008221041,74.63696472760057 115.50970873783808,75.66565322352108 114.05787901417352,76.39178618934238 112.60604929050896,76.845619255153 111.97087378636934,77.17843015160179 110.73076923075132,77.75328529940452 110.00485436897725,78.38865146110766 109.15795369667467,79.11478414747398 108.4320388349006,80.20398303720867 108.22031366685405,80.5670492965728 107.79686333076097,81.08139313216088 107.28267363703344,82.0798251767992 106.88946975348517,83.16902361041866 106.67774458543863,84.89358745451318 106.64749813289382,85.80125246697571 106.64749813289382,86.82993934053229 106.9197162061464,87.1324942749925 106.34503360709641,88.00990351173095 106.43577296484727,88.70577972586034 106.25429424946196,89.22012297064066 106.19380134425592,90.24880934826797 105.77035100816283,90.97494081920013 105.46788648236543,91.51953937369399 105.55862584011629,92.63899182650493 105.37714712461457,93.2138457201072 105.19566840934567,93.81895503157284 105.07468259893358,94.45431975310203 104.56049290508963,95.18045079387957" stroke="#4DD2FF" stroke-dasharray="none" stroke-linecap="round" stroke-linejoin="round" stroke-width="0.5"><title>2026-06-16 10.1km</title><desc>9223370255286294807</desc></polyline><polyline fill="none" opacity="1" points="19.099557521985844,231.76699588930933 19.219026548671536,231.43835763982497 19.547566371620633,230.72132867801702 20.533185840700753,229.9744234313257 21.040929203503765,228.5403651339002 21.60840707970783,227.8532120953896 23.071902654948644,227.07643031829502 24.386061946861446,226.5087820419576 24.834070796496235,226.23989600024652 26.20796460181009,225.64237142604543 27.313053097343072,225.16435172979254 28.35840707970783,224.47719835909083 29.73230088490527,223.49128253530944 31.046460176934488,222.59499530185713 32.3307522124378,221.3401929815882 33.585176991065964,219.99576167366467 34.83960176992696,218.65133010660065 35.22787610616069,217.8147947783582 36.00442477874458,217.03801188379293 36.721238938043825,216.4404865212855 37.736725663766265,215.39481701364275 38.21460176992696,215.18568309332477 39.02101769903675,214.16988967650104 39.5884955751244,214.08026083849836 39.946902654715814,213.57236406794982 39.917035398306325,212.97483840817586 40.81305309722666,212.19805497367634 42.515486725606024,212.01879724574974 43.41150442475919,212.01879724574974 44.815265486598946,212.16817868611543 45.56194690265693,212.4669415570097 47.26438053091988,212.37731269706273 47.831858407123946,212.19805497367634 48.84734513272997,212.5266941296286 49.653761061956175,212.5565704157343 50.75884955748916,212.58644670178182 51.71460176981054,212.97483840817586 52.16261061944533,213.12421982787782 52.9092920353869,213.27360124449478 53.92477876099292,213.7217454749043 54.31305309734307,213.8412505980814 55.47787610616069,214.37902362737805 56.76216814154759,214.88692033902043 57.26991150446702,215.45456956117414 57.598451327416115,215.6338272006833 57.86725663719699,216.17160009150393 58.345132743241265,216.4703627906274 58.67367256630678,216.85875428043073 59.03207964589819,217.4264033419313 60.28650442475919,218.53182506584562 61.39159292029217,219.18910276453244 62.73561946908012,219.24885527952574 63.183628318598494,218.65133010660065 63.780973451328464,216.82887801271863 64.55752212379593,215.15580681839492 65.06526548671536,213.5126115042949 65.45353982306551,212.01879724574974 65.42367256630678,211.42127145268023 65.45353982306551,209.53906486876076 65.54314159299247,209.18054927128833 65.2743362832116,207.83611561596626 65.18473451328464,207.29834208107786 65.09513274335768,206.880073747423 65.24446902645286,206.25267119973432 65.57300884951837,205.4758870145888 66.4391592919128,205.08749488944886 67.72345132741611,205.3265054305666 69.39601769903675,205.6850212268182 70.97898230084684,206.3721764513175 71.96460176981054,206.58131063653855 72.38274336280301,207.08920791739365 73.42809734505136,207.92574453447014 74.6227876105113,208.55314693110995 75.16039823007304,209.0311677668942 75.99668141594157,210.0170856367913 76.47455752198584,210.94325078115799 76.95243362837937,211.8096632239758 77.01216814154759,212.31756012316328 76.65376106183976,213.30347752734087 76.89269911497831,214.110137117852 77.5199115043506,215.42469328746665 77.57964601775166,216.08197127922904 77.57964601775166,216.82887801271863 78.02765486715361,217.84467104187934 78.86393805302214,218.7409588858136 79.67035398236476,219.24885527952574 79.93915929202922,219.51774159056367 81.10398230084684,220.08539043558994 82.8064159292262,220.62316298298538 84.06084070785437,220.9816779915127 84.77765486727003,220.9816779915127 85.31526548683178,221.16093548882054 86.45022123889066,221.81821293971734 87.25663716823328,222.26635662070476 87.88384955748916,222.6846240304294 88.77986725664232,223.31202509778086 89.52654867258389,224.3278171826969 89.85508849553298,224.9552181023755 90.24336283176672,225.37348535092315 90.51216814154759,225.67224765592255 91.67699115048163,226.86729674815433 92.51327433623374,227.61420232697856 93.28982300881762,228.42086026241304 94.48451327439398,229.49640403152443 94.90265486727003,229.61590888450155 94.81305309734307,229.55615645827493 95.20132743357681,228.7196224371437 95.5,228.39098404429387 95.05199115036521,227.76358343323227 93.52876106195617,226.74779184814543 92.51327433623374,225.79175257438328 92.30420353985392,225.55274273548275 91.49778761062771,224.44732212409144 90.48230088502169,223.40165381715633 89.7356194689637,222.4754903287394 88.83960176981054,221.45969797414728 88.12278761062771,220.92192549136234 87.37610619468614,220.2945242089918 86.53982300881762,219.6372466144967 85.375,219.18910276453244 84.7477876105113,219.03972147486638 84.0907079646131,219.24885527952574 83.01548672560602,219.15922650683206 81.73119469033554,218.95009269943694 81.04424778767861,218.68120636645472 79.70022123889066,217.90442356833955 79.22234513272997,216.4404865212855 79.40154867258389,215.6039509277325 79.64048672560602,214.58815757191041 79.67035398236476,212.94496212375816 79.49115044251084,211.6602817759849 78.50553097343072,209.98720933968434 77.57964601775166,209.24030187213793 76.98230088478886,208.70252844580682 76.6836283185985,208.46351802081335 76.17588495579548,208.13487867300864 75.19026548671536,207.56722885376075 74.02544247778133,206.6410632597399 73.39823008864187,206.22279488656204 72.26327433635015,205.8642791180173 72.0243362832116,205.38625806459459 71.51659292029217,205.38625806459459 71.18805309734307,204.99786593439057 69.93362831848208,204.48996850074036 68.47013274335768,204.16132896504132 67.36504424770828,203.8924420605763 65.93141592910979,203.83268941374263 65.57300884951837,203.86256573721766 63.66150442475919,203.7131841185037 62.8849557521753,203.8924420605763 62.317477876204066,204.51984482136322 62.28761061944533,205.35638174769701 63.24336283188313,206.7605685046292 63.721238938043825,207.65685777569888 63.93030973454006,208.28426019661129 63.66150442475919,208.7324047484435 64.19911504420452,209.53906486876076 64.1692477875622,209.92745674529579 64.10951327439398,210.31584860006114 63.99004424770828,211.27188999636564 64.0199115043506,212.5266941296286 63.8407079646131,213.06446726043941 63.66150442475919,213.8412505980814 63.33296460181009,214.46865246153902 62.944690265343525,215.12593054346507 62.13827433635015,215.87283737951657 61.570796460146084,216.08197127922904 60.82411504420452,216.02221873711096 59.987831858335994,215.57407465472352 59.539823008701205,215.36494073964423 58.10619469033554,214.28939479205292 57.18030973454006,213.8412505980814 56.46349557524081,213.45285894005792 55.68694690265693,213.06446726043941 54.73119469033554,212.7657044151565 54.432522123795934,212.6163229876547 53.83517699118238,212.5565704157343 53.028761061956175,212.5266941296286 52.461283185868524,212.2876838359516 51.71460176981054,211.98892095737392 50.96792035398539,210.973127074074 50.54977876110934,210.70424043305684 49.5342920353869,210.19634341623168 48.040929203503765,209.95733304251917 46.816371681401506,210.25609600840835 46.36836283188313,210.4054774864344 45.860619468963705,210.25609600840835 45.024336283211596,210.04696193360724 44.18805309745949,210.25609600840835 43.38163716811687,210.4054774864344 43.11283185845241,210.3457248956547 42.455752212321386,211.33164257922908 42.69469026545994,211.92916838009842 43.321902654948644,212.01879724574974 44.098451327416115,212.04867353406735 43.97898230084684,211.69015806587413 43.471238938043825,211.6602817759849 42.81415929202922,211.21213741297834 41.82853982306551,211.60052919597365 40.78318584081717,211.98892095737392 40.066371681401506,212.7358281298657 39.917035398306325,213.48273522226373 39.140486725606024,214.02050827915082 38.72234513272997,214.14001339720562 37.40818584058434,215.15580681839492 36.48230088490527,216.29110517265508 35.8849557521753,216.7691254770034 34.83960176992696,218.08368114486802 34.27212389372289,218.68120636645472 33.913716814131476,219.0098452164675 33.22676991147455,219.69699912559008 32.50995575229172,220.62316298298538 32.00221238937229,221.1310592396767 31.165929203503765,222.02734666108154 30.2400442478247,222.5352428155602 29.85176991147455,222.80412899993826 29.194690265576355,223.46140629600268 28.53761061944533,223.70041620655684 27.313053097343072,224.65645576675888 26.028761061956175,225.28385665698443 25.16261061944533,225.70212388574146 23.4900442478247,226.44902958918829 21.81747787608765,227.195935212716 20.324115044204518,228.36110782600008 19.338495575240813,229.22751810477348 18.860619468963705,230.21343311894452 18.59181415918283,230.6317000525887 18.113938053138554,231.49811004998628 17.93473451328464,231.97612931282492 17.695796460146084,232.96204393944936 17.665929203503765,233.73882506252266 17.606194690219127,234.99362515611574 17.42699115036521,235.8600346131716 17.665929203503765,236.606939231453 17.51659292029217,237.7422340986668 17.576327433576807,238.22025293507613 17.128318584058434,239.26591902592918 17.27765486727003,239.68418541859137 16.590707964613102,240.8792321170913 16.650442477781326,241.56638387654675 16.202433628379367,242.67180178285344 15.93362831871491,243.59796259721043 15.455752212321386,244.94238936819602 15.246681415825151,245.62954072945286 14.6792035397375,246.1374351705308" stroke="#4DD2FF" stroke-dasharray="none" stroke-linecap="round" stroke-linejoin="round" stroke-width="0.5"><title>2026-06-11 10.2km</title><desc>9223370255717407907</desc></polyline></svg>