<?xml version="1.0" encoding="utf-8" ?>
<svg baseProfile="full" height="300mm" version="1.1" viewBox="0,0,200,300" width="200mm" xmlns="http://www.w3.org/2000/svg" xmlns:ev="http://www.w3.org/2001/xml-events" xmlns:xlink="http://www.w3.org/1999/xlink"><defs /><rect fill="#222222" height="300" width="200" x="0" y="0" /><text fill="#FFFFFF" style="font-size:12px; font-family:Arial; font-weight:bold;" x="10" y="20">Over 10km Runs</text><text fill="#FFFFFF" style="font-size:4px; font-family:Arial" x="10" y="280">Runner</text><text fill="#FFFFFF" style="font-size:9px; font-family:Arial" x="10" y="290">Yanfu</text><text fill="#FFFFFF" style="font-size:4px; font-family:Arial" x="65" y="280">SPECIAL TRACKS</text><rect fill="yellow" height="2.6" width="2.6" x="65" y="283" /><text fill="#FFFFFF" style="font-size:3px; font-family:Arial" x="70" y="285.5">Over 20.0 km</text><rect fill="red" height="2.6" width="2.6" x="65" y="287" /><text fill="#FFFFFF" style="font-size:3px; font-family:Arial" x="70" y="289.5">Over 40.0 km</text><text fill="#FFFFFF" style="font-size:4px; font-family:Arial" x="120" y="280">STATISTICS</text><text fill="#FFFFFF" style="font-size:3px; font-family:Arial" x="120" y="285">Number: 4</text><text fill="#FFFFFF" style="font-size:3px; font-family:Arial" x="120" y="290">Weekly: 2.0</text><text fill="#FFFFFF" style="font-size:3px; font-family:Arial" x="141" y="285">Total: 40.5 km</text><text fill="#FFFFFF" style="font-size:3px; font-family:Arial" x="141" y="290">Avg: 10.1 km</text><text fill="#FFFFFF" style="font-size:3px; font-family:Arial" x="167" y="285">Min: 10.1 km</text><text fill="#FFFFFF" style="font-size:3px; font-family:Arial" x="167" y="290">Max: 10.2 km</text><polyline fill="none" opacity="1" points="14.5,96.53659918170888 15.338447319809347,95.96748354303418 15.518114602542482,94.7393917447771 15.937338262563571,94.08041556947865 16.266728280927055,93.72097399336053 16.3865064693382,92.94218384858686 16.596118299406953,91.44451025087619 16.506284657982178,91.02516158623621 17.135120147955604,90.03669677797006 17.045286506414413,88.74869697046233 17.31478743068874,88.05976674385602 17.224953789263964,86.95148754195543 17.674121996271424,86.47223161667353 17.763955637579784,85.30404516169801 17.763955637579784,84.28562604234321 17.973567467648536,83.20729975472204 18.93179297586903,82.06906627130229 19.05157116439659,81.82943814597093 19.141404805821367,81.44004242483061 19.20129390002694,80.66125091782305 19.80018484289758,80.12208751606522 20.429020332638174,78.95390000328189 21.08780036959797,77.78571229579393 21.86635859508533,77.27650220843498 22.85452865064144,76.73733854625607 24.411645101499744,76.07836068037432 25.81903881696053,75.29956857737852 26.74731977819465,74.91017249325523 27.406099815038033,74.46086929243756 28.993160813348368,73.56226280430565 29.861552680144086,72.90328463958576 30.849722735700198,72.24430641287472 31.598336413968354,71.52542100381106 32.61645101651084,70.47704631648958 33.21534195926506,69.78811429353664 33.724399260478094,69.24895005422877 34.622735674725845,68.23052860004827 34.92218114598654,67.81117854634067 35.7007393714739,66.61303539708024 36.95841035118792,65.38493845582707 37.377634011092596,65.05544899584493 38.00646950083319,64.66605234122835 38.72513863223139,63.977119745337404 39.59353049902711,63.497862247226294 39.71330868755467,62.74902234051842 40.37208872451447,62.239811158098746 41.15064695000183,61.76055354066193 42.2286506468663,61.730599938484374 42.617929759668186,61.76055354066193 43.935489833704196,61.76055354066193 44.59426987054758,61.5209247196326 45.04343807755504,61.61078552843537 45.40277264325414,62.09004315617494 45.881885397364385,62.17990395775996 46.390942698693834,62.149950357328635 46.90000000002328,61.97022875229595 47.64861367829144,61.79050714272307 49.085951940738596,62.11999675678089 49.98428835486993,62.29971835797187 51.18207024037838,62.11999675678089 50.7029574860353,62.329671957704704 52.91885397408623,63.16837269812822 54.14658040658105,63.497862247226294 55.0449168208288,63.91721255989978 56.66192236589268,64.755913109635 57.11109057290014,65.14530975924572 57.65009242144879,65.65452072978951 58.278927911189385,66.3134995776345 58.6083179297857,66.67294255946763 58.81792975962162,67.09229268139461 59.62643253232818,67.63145708700176 60.25526802218519,68.50011076417286 60.91404805914499,69.21899648424005 61.453049907577224,69.45862504118122 62.531053604441695,68.20057502563577 63.12994454719592,67.27201415458694 63.66894639551174,66.19368524634046 64.38761552679352,64.69600593089126 64.776894639479,63.40800146269612 65.16617375228088,62.09004315617494 65.31589648791123,61.01171344757313 65.28595194080845,60.4725485307863 65.28595194080845,59.30435773474164 65.19611829938367,57.74676970229484 64.89667282800656,56.938021932786796 65.13622920506168,55.8896450548782 65.58539741218556,55.0808970699436 66.78317929757759,54.84126801928505 68.0408502771752,55.05094343906967 69.89741219964344,55.65001603215933 70.73585951945279,56.03941318998113 71.90369685762562,56.36890307581052 72.38280961185228,56.9979291781201 73.82014787429944,57.956445034535136 75.13770794821903,58.97486798767932 75.67670979665127,59.54398663190659 76.63493530498818,61.13152786792489 76.60499075788539,62.329671957704704 76.2157116450835,62.95869752246654 76.27560073940549,63.28818708145991 76.42532347503584,63.947166152705904 76.87449168215971,64.755913109635 77.29371534194797,65.71442790038418 77.173937153304,66.55312823422719 77.08410351187922,67.45173562318087 77.8926062847022,68.1406678763451 79.24011090572458,68.79964648978785 79.74916820693761,69.06922863196814 80.55767097976059,69.6982535898569 82.29445471358486,70.17751066270284 82.89334565610625,70.38718562171562 83.85157116444316,70.62681413860992 84.7499075785745,70.80653552082367 85.73807763401419,71.16597827157238 87.11552680225577,71.94477083475795 87.71441774501,72.45398130989634 88.22347504622303,72.66365620068973 88.73253234755248,73.02309885603609 89.33142329019029,74.0115660627489 89.57097966724541,74.97007958451286 89.87042513862252,75.29956857737852 90.6190388170071,75.9585465163691 91.69704251387157,76.76729208405595 92.11626617365982,77.21659513690975 92.62532347498927,77.54608402395388 93.8231053603813,78.53455059218686 94.30221811460797,79.2534352815128 94.72144177451264,79.46310996863758 94.75138632161543,79.07371411612257 95.5,78.26496881473577 94.54177449166309,77.24654867273057 93.58354898332618,76.43780316034099 93.04454713489395,76.07836068037432 92.65526802220847,75.65901109721744 91.63715341966599,74.67054412310245 91.30776340106968,74.31110155244824 90.67892791121267,73.92170541343512 90.5591497226851,73.50235570094083 89.84048059151974,72.42402775358642 89.81053604441695,72.12449218321126 88.58280961180571,71.40560676174937 87.62458410358522,70.47704631648958 86.6663585951319,69.78811429353664 86.0375231053913,69.12913577328436 84.7499075785745,69.00932149018627 84.30073937156703,69.00932149018627 83.16284658038057,69.09918220265536 82.3842883547768,68.9793679190916 80.70739371539094,68.35034289653413 79.62939001829363,68.26048217440257 79.35988909425214,67.81117854634067 78.8208872458199,66.34345316025428 79.09038817009423,65.62456714425934 79.53955637710169,64.3964700291981 79.44972273579333,63.04855831281748 79.44972273579333,61.8504143464379 79.1203327170806,60.861945419281255 78.49149722734,60.02324440161465 77.14399260620121,58.85505353030749 76.03604436223395,57.98639865301084 74.80831792973913,57.32741901872214 74.23937153420411,56.75830019352725 73.46081330860034,56.12927406950621 72.53253234748263,55.8896450548782 71.48447319783736,55.32052611227846 71.18502772634383,55.0808970699436 70.85563770786393,54.63159259327222 69.80757855821867,54.36200989334611 68.84935304988176,54.122380818007514 68.0707948243944,53.91270537034143 67.17245841026306,53.61316900548991 65.94473197788466,53.61316900548991 64.59722735674586,53.55326173105277 63.60905730118975,53.46340081834933 63.040110905771144,53.58321536832955 62.38133086869493,53.7329835529672 62.08188539731782,54.212241722270846 62.11182994453702,54.81131438742159 62.291497227270156,55.41038700111676 62.59094269864727,55.94955230935011 63.12994454719592,56.63848569808761 63.48927911266219,57.087790045305155 63.758780036936514,57.98639865301084 63.7887245840393,58.82509991567349 63.66894639551174,59.48407940840116 63.878558225464076,60.65227017435245 63.7887245840393,62.17990395775996 63.33955637703184,63.55776943627279 62.740665434277616,65.02549540781183 61.722550831735134,65.8342422398855 60.79426987050101,65.95405657746596 59.806099815061316,65.44484562875004 59.087430683895946,65.02549540781183 58.66820702399127,64.81582028791308 57.82975970429834,64.03702693030937 57.17097966722213,63.70753740670625 56.51219963026233,63.37804786750348 55.703696857672185,63.01860471616965 55.31441774498671,62.95869752246654 54.80536044354085,62.719068742590025 54.17652495368384,62.59925434959587 53.577634011162445,61.97022875229595 52.82902033254504,61.97022875229595 52.49963031418156,61.97022875229595 50.673012938932516,60.622316567460075 50.34362292045262,60.26287327404134 49.4752310536569,59.603893854888156 48.067837338196114,59.21449689619476 47.31922365981154,59.514033020241186 46.54066543432418,59.9932907919283 45.5524953790009,60.29282688256353 44.98354898323305,60.38268770725699 44.11515711643733,59.96333718218375 43.48632162658032,60.17301244789269 42.767652495298535,60.26287327404134 42.318484288291074,60.50250213831896 42.10887245833874,60.95180623664055 42.2286506468663,61.5209247196326 42.52809611824341,61.76055354066193 43.725878003635444,61.97022875229595 43.905545286484994,61.730599938484374 43.216820702305995,61.431063909607474 42.07892791123595,61.37115670228377 40.52181146026123,61.640739131195005 39.743253234773874,62.359625557262916 39.383918669074774,63.348094272310846 38.90480591496453,63.7374910004437 37.88669131230563,64.36651643837104 37.40757855819538,64.69600593089126 36.0301293899538,65.92410299321637 35.04195933463052,66.97247836343013 34.443068391876295,67.81117854634067 33.81423290190287,68.56001791032031 33.365064695011824,68.94941434782231 32.85600739356596,69.60839288507123 32.406839186674915,70.17751066270284 31.17911275406368,71.16597827157238 29.921441774466075,72.45398130989634 28.993160813348368,73.23277372971643 27.436044362257235,74.04151961236494 26.477818853920326,74.73045121645555 25.789094269741327,75.05994022049708 24.86081330862362,75.47928983962629 23.962476894725114,75.7488717243541 22.974306839052588,76.31798900244758 21.59685767092742,77.03687391924905 21.147689464036375,77.15668806486065 20.369131238316186,77.84561936242972 19.530683918623254,78.38478293927619 19.20129390002694,78.98385353165213 18.57245841040276,80.15204103948781 18.273012938909233,80.48152978846338 17.734011090476997,81.85939166211756" stroke="#4DD2FF" stroke-dasharray="none" stroke-linecap="round" stroke-linejoin="round" stroke-width="0.5"><title>2026-06-20 10.1km</title><desc>9223370254938036107</desc></polyline><polyline fill="none" opacity="1" points="104.5,99.85150237730704 104.76045016059652,99.47518513022806 104.76045016059652,98.51991817887756 104.84726688091177,97.68044105047011 105.48392282950226,96.20411895294092 106.12057877809275,94.6409540300956 106.52572347258683,93.33831632003421 106.87299035373144,92.52778606346692 107.33601286169142,91.86199328041403 107.6832797427196,91.77515073868562 108.05948553048074,91.36988552933326 108.17524115752894,90.09619471404585 108.2620578778442,89.69092940457631 108.75401929253712,89.08303139510099 109.18810289376415,87.72249755772646 109.07234726683237,86.50670113204978 109.7379421221558,85.52248481858987 109.68006430857349,84.82774380542105 109.82475884247106,83.81457970055635 109.85369774908759,82.88825810083654 109.85369774908759,82.30930703677586 109.9115755626699,81.32509011455113 110.0273311897181,79.55928880785359 110.54823151126038,78.25664820475504 110.89549839228857,77.99612005407107 111.24276527331676,77.12769281293731 111.44533762044739,76.60663641482824 112.42926045006607,75.8829469064076 113.18167202558834,74.49346283363411 114.39710610930342,73.27766403599526 114.83118971053045,72.98818809961085 116.39389067515731,72.29344580179895 117.43569131824188,71.83028423026553 118.4485530545935,71.36712262712535 120.0401929259533,70.44079932558816 120.53215434076265,70.20921848036232 121.45819935691543,69.54342350622755 121.9212218648754,69.1960521893634 123.04983922827523,68.35657143325079 123.88906752411276,67.54603819048498 124.81511254014913,66.53287150035612 125.68327974283602,65.83812853938434 126.52250803855713,64.73811870496138 127.10128617368173,63.78284686131519 127.7379421221558,62.943365432700375 128.11414790991694,62.68283669222728 128.46141479094513,62.36441266245674 128.83762057858985,61.95914569377783 129.8504823151743,61.409140482981456 130.60289389058016,60.453868168377085 130.9212218648754,60.453868168377085 131.49999999988358,59.932810485130176 131.3842443729518,59.44070041409577 131.64469453378115,59.00648561574053 132.19453376205638,58.45648016431369 133.0337620577775,58.1380559350946 134.13344051432796,58.1380559350946 135.26205787772778,58.1670035928837 136.30385852092877,58.109108277072664 137.17202572338283,58.54332313325722 137.77974276524037,58.54332313325722 139.19774919608608,58.28279422293417 140.00803858519066,58.3117418801703 140.87620578787755,58.65911375684664 141.42604501603637,58.80385203359765 142.29421221849043,58.68806141242385 142.0916398713598,58.54332313325722 142.75723472668324,58.48542782073491 143.04662379412912,58.68806141242385 143.88585208996665,59.46964806638425 144.34887459804304,59.759124581789365 145.33279742766172,59.90386283493717 146.08520900306758,60.19333933177404 146.89549839228857,60.56965875913738 147.90836012852378,61.09071639314061 148.66077170416247,61.72756455789204 148.9790996783413,62.36441266245674 149.76045016082935,62.97231306991307 150.39710610930342,63.667056325648446 151.09163987147622,64.36179950996302 151.38102893880568,64.88285685129813 152.39389067527372,65.66444278796553 153.75401929253712,64.56443292531185 154.30385852092877,63.40652761317324 154.82475884247106,62.45125558116706 155.3745980707463,61.43808812680072 155.72186495177448,60.25123462974443 156.2138263664674,58.39858485094737 156.47427652718034,57.50120743148727 156.53215434087906,56.71962054949836 156.35852090036497,55.38802787507302 156.30064308678266,54.953812815627316 156.12700964626856,54.49065005479497 156.2717041800497,53.7090628236474 156.09807073953561,52.72484173681005 156.3295819935156,52.0879927217029 157.11093247577082,51.53798670563265 158.4421221865341,51.682725135295186 159.48392282961868,51.88535893155495 160.1495176849421,52.203783456236124 161.45176848873962,52.63799869289505 162.5514469454065,52.927475501812296 162.78295819938648,53.36169069178868 164.2588424436981,54.43275470746448 165.30064308678266,55.04065582976909 166.34244372986723,56.3143532416143 167.0369774919236,57.29857380417525 167.47106109315064,58.28279422293417 167.29742765263654,58.63016610115301 167.5,60.04860108488356 167.90514469449408,61.43808812680072 167.99196141480934,62.161779181158636 167.87620578776114,62.85652252033469 168.02090032154229,63.464422883465886 168.16559485532343,63.86968976177741 169.17845659155864,64.70917107534478 170.13344051444437,64.96969973767409 170.6254019292537,65.37496652564732 171.26205787772778,65.95391903782729 172.01446945336647,66.35918576683616 173.43247588421218,66.561819122202 173.7797427653568,66.64866198692471 174.9083601286402,67.053928674286 175.95016077160835,67.45919533728738 177.22347266878933,67.98025243976736 177.80225080391392,68.47236188856186 178.40996784565505,68.81973324262071 179.24919614137616,69.89079480528017 179.59646302240435,70.5276421404269 180.2041800643783,71.1355418136518 180.6093247588724,71.54080823197728 181.10128617368173,72.03291742168949 181.6221864951076,72.46713138293126 182.49035369767807,73.16187366296072 183.6189710610779,74.1460917708755 184.42926045018248,75.10136215054081 184.60289389069658,75.39083799658692 184.9212218648754,75.10136215054081 184.9212218648754,74.78293870564085 185.47106109326705,74.00135382279404 184.689710610779,73.24871644296218 183.9083601286402,72.78555493679596 182.89549839217216,71.80133663106244 182.22990353684872,71.251332221349 181.6221864951076,70.44079932558816 180.95659163978416,70.15132326784078 180.66720257233828,69.94869002007181 180.49356913170777,69.10920935732429 179.94372990354896,68.50130950211314 179.33601286169142,67.74867151028593 178.75723472668324,67.19866677100072 178.207395498408,66.24339527531993 177.39710610930342,65.78023328940617 177.1366559485905,65.49075703209382 176.70257234724704,65.0854902509891 175.22668810281903,65.0854902509891 174.53215434076265,65.31707127174013 173.28778135043103,65.14338550687535 171.75401929253712,64.88285685129813 171.0305466237478,64.4196947721357 170.45176848873962,63.92758502814104 169.52572347258683,63.464422883465886 169.4967845658539,62.62494141526986 169.64147909975145,62.161779181158636 169.98874598077964,60.91703051960212 170.19131832791027,60.36702522399719 170.104501607595,59.4985957184399 169.81511254014913,58.109108277072664 169.29421221860684,56.92225419427268 168.54180064308457,56.02487657830352 168.1077170416247,55.61960922862636 166.95016077160835,54.838022128416924 166.458199356799,54.51959772824193 165.24276527320035,53.62221979236347 164.37459807062987,52.898527821409516 163.01446945336647,52.29062650582637 162.34887459804304,51.88535893155495 161.71221864945255,51.393248272856 160.7282958199503,51.016928333148826 159.6286173632834,50.66955606240663 158.47106109315064,50.29323608224513 157.48713826364838,50.351131465198705 156.2138263664674,50.235340698825894 154.4485530545935,50.14849762272206 153.69614147907123,50.32218377376557 153.29099678457715,51.10377139801858 153.34887459792662,51.972201985219726 154.2749196140794,53.33274301333586 154.65112540184055,54.57749307490303 154.47749196144287,54.98276048718253 154.9694533762522,55.67750456579961 154.99839228286874,56.57488222804386 155.0273311897181,57.32752146554412 154.99839228286874,58.8906949981465 154.36173633439466,60.453868168377085 154.07234726683237,60.94597816551686 153.40675241150893,61.81440748478053 152.53858520893846,62.21967446213239 151.81511254014913,62.13283154042438 151.2652733118739,61.93019805219956 150.25241157552227,61.29334990659845 149.38424437283538,60.77229228828219 148.60289389069658,60.01965343518532 147.90836012852378,59.73017693083966 147.24276527320035,59.44070041409577 145.99839228298515,58.94859030714724 145.30385852092877,58.80385203359765 144.3199356913101,58.63016610115301 143.5096463022055,58.39858485094737 142.72829581983387,57.385416788078146 141.94694533757865,57.03804484565626 140.93408360134345,56.22751024397439 140.2106109324377,55.82224290649174 139.458199356799,55.61960922862636 138.64790996781085,55.73539990247809 138.35852090024855,56.25645790994167 137.77974276524037,56.57488222804386 136.8536977490876,56.71962054949836 135.92765273305122,56.690672885393724 134.82797427650075,56.74856821337016 134.24919614149258,57.00909718303592 133.98874598066323,57.7038410527457 134.3938906751573,58.1670035928837 134.94372990343254,58.19595125055639 135.52250803855713,58.28279422293417 134.88585208996665,57.9933176440245 133.90192926034797,57.79068403146812 132.68649517686572,58.08016061905073 132.25241157552227,58.19595125055639 131.8472668810282,58.77490437842789 131.49999999988358,59.52754337046645 130.9212218648754,60.1354440333962 129.87942122190725,60.8012399347499 128.66398713819217,61.66966927264002 127.82475884247106,62.50915085966699 126.98553054663353,63.464422883465886 126.63826366548892,63.98548029403901 125.97266881016549,64.56443292531185 125.19131832802668,65.51970465830527 123.97588424419519,66.8512953336467 122.96302250807639,67.77761912692222 122.35530546621885,68.24078097593156 121.51607717038132,68.93552369001554 120.59003215434495,69.48552828800166 119.34565916389693,70.29606129825697 118.6221864951076,70.67238016283954 117.46463022497483,71.19343701773323 116.22025723475963,71.80133663106244 115.75723472668324,71.94607462617569 114.19453376205638,72.58292176792747 113.7893890675623,72.93029291086714 112.77652733109426,74.00135382279404 111.90836012852378,74.95662422289024 111.70578778127674,75.70926141287782 110.72186495165806,76.86716461883043 110.49035369779449,77.21453554197797 110.22990353696514,77.82243461479084 109.96945337613579,79.09612773318077 109.94051446940284,79.79086933325743 109.85369774908759,80.42771573751816 109.70900321530644,81.18035231984686" stroke="#4DD2FF" stroke-dasharray="none" stroke-linecap="round" stroke-linejoin="round" stroke-width="0.5"><title>2026-06-18 10.1km</title><desc>9223370255108266507</desc></polyline><polyline fill="none" opacity="1" points="18.355685681919567,232.5453599881148 18.9064979221439,231.44340520346304 19.51851152232848,230.12718121055514 20.650736682931893,229.3619345917832 21.905364563688636,228.84156684431946 22.731582924025133,228.44363854127005 23.251794484327547,228.25997931708116 24.261616924777627,227.70900161605095 24.812429165118374,227.46412262419472 26.403664525947534,226.5458263301407 26.923876086133532,226.30094729847042 28.056101246736944,225.47448050469393 29.52493388741277,224.40313451871043 30.53475632786285,223.51544772298075 31.17737060820218,222.75020039681112 31.39157536823768,222.4441014433396 32.00358896853868,221.95434309064876 33.22761616925709,220.69933715852676 33.96203248971142,219.44433100585593 34.574046090012416,218.92396253644256 34.7882508499315,218.6790832435363 35.33906309027225,217.8220056523569 36.07347941061016,217.20980730996234 37.14450321113691,216.47516922972864 37.695315451477654,215.89358069596346 38.552134491852485,215.40382189385127 39.16414809215348,214.08759494655533 40.26577257271856,213.72027575515676 41.52040045335889,213.75088568852516 42.4690215337323,213.68966582173016 43.32584057410713,213.68966582173016 44.18265961459838,214.1488148100325 45.467888175393455,214.21003467286937 46.324707215768285,213.96515521826223 46.630714015918784,213.84271548781544 46.967321496107616,213.84271548781544 48.74216093681753,214.3936942583532 49.90498677745927,214.36308432777878 50.57820173772052,214.1488148100325 50.91480921790935,214.60796376876533 51.71042689832393,214.88345312979072 52.44484321877826,215.31199211470084 53.944276539608836,215.64870129909832 54.92349830002058,216.16907000733772 55.78031734039541,216.59760891500628 56.30052890069783,217.14858747285325 56.851341140805744,217.88322548370343 57.73876086133532,218.89335262525128 58.564979221788235,219.68921027251054 59.32999622216448,220.39323811721988 60.27861730265431,220.88299657701282 61.013033622992225,221.4645847043139 61.533245183178224,221.06665599072585 62.298262183670886,220.57689754362218 62.69607102370355,219.50555082323262 62.78787306381855,218.98518235830124 63.461088024196215,217.54651640483644 64.10370230453555,215.67931122414302 64.40970910468604,214.57735383912222 64.62391386472154,213.3835664797807 64.68511522479821,211.60819003731012 64.47091046476271,209.710373351234 64.34850774460938,208.302315483219 64.53211182472296,207.56767648505047 65.20532678510062,206.6187676669797 66.06214582547545,206.6187676669797 66.98016622592695,206.80242744804127 67.95938798645511,206.89425733685493 69.73422742739785,207.59828644484514 70.77465054788627,207.9962159099523 71.50906686810777,207.75133624172304 72.09047978848685,207.7819462007028 71.96807706844993,208.6696349538979 72.91669814882334,209.4654937419691 74.29372874950059,210.3225723374635 74.813940309803,210.90416132559767 75.2117491500685,211.33270054974128 75.67075935017783,211.975509337557 76.25217227055691,212.98563731560716 76.49697771063074,213.90393535327166 76.25217227055691,214.3936942583532 75.85436343040783,214.91406305815326 76.16037023055833,215.64870129909832 76.61938043066766,216.38333946437342 77.01718927093316,218.09749488934176 76.77238383085933,218.61786341900006 77.17019267089199,219.53616073186276 77.93520967138465,220.20957868616097 79.03683415194973,220.97482628450962 79.43464299209882,221.34214510250604 79.9242538723629,221.64824410318397 80.71987155266106,221.9849529886269 82.24990555352997,222.3522717548185 83.59633547416888,222.65837071213173 84.48375519458205,222.93385976256104 85.70778239518404,223.36239826428937 86.68700415559579,223.85215652053012 87.69682659616228,224.64801361534046 88.40064223657828,225.1989915521699 89.13505855691619,225.99484849709552 89.41046467702836,226.6070460867486 89.68587079725694,227.03558436833555 90.26728371740319,227.52534237294458 90.6650925577851,228.07632008811925 91.00170003785752,228.504858281638 91.82791839819402,229.17827539116843 92.99074423883576,230.12718121055514 93.90876463928726,230.98425732640317 94.61258027970325,231.8413333397475 94.91858707985375,231.59645448927768 95.10219115996733,230.9536474669585 95.46939932007808,230.43327983515337 95.10219115996733,229.94352202955633 93.87816395924892,229.14766552392393 93.38855307898484,228.6579076302587 92.56233471864834,227.98449047183385 92.22572723845951,227.58656212122878 91.76671703823376,226.88253498496488 91.03230071789585,226.23972753918497 90.60389119759202,226.11728801921709 90.1754816774046,225.07655201433226 89.28806195699144,223.9439861898427 88.46184359665494,223.270568587468 88.00283339631278,222.78081029141322 87.57442387612537,222.41349154739873 86.3809973555617,221.9849529886269 86.07499055529479,221.67885400244268 85.09576879488304,221.31153520173393 83.53513411420863,221.31153520173393 82.92312051379122,221.18909559730673 82.55591235368047,221.0360460887896 81.17888175300322,220.72994706186 80.10785795247648,220.33201830741018 79.00623347179499,219.68921027251054 78.8226293916814,219.38311118789716 78.76142803172115,217.88322548370343 79.03683415194973,216.90370811906178 79.28163959202357,216.23028985282872 79.22043823206332,215.77114099852042 79.25103891198523,214.24064460408408 78.97563279187307,213.10807706072228 78.0882130714599,211.7612397480989 77.17019267089199,210.90416132559767 76.00736683048308,210.07769274921156 75.18114846991375,209.52671364502748 73.83471854939125,208.57780508801807 73.19210426905192,208.05743582564173 71.99867774848826,207.69011632341426 71.41726482810918,207.4452366446494 71.05005666799843,207.41462668421445 70.56044578773435,206.955477261974 70.43804306769744,206.6187676669797 69.30581790709402,206.0983982614125 68.47959954664111,205.85351852799067 67.40857574611437,205.45558894315036 66.12334718555212,205.45558894315036 65.26652814517729,205.30253909691237 63.92009822442196,205.30253909691237 62.665470343781635,205.33314906648593 62.084057423402555,205.5474188493099 61.441443143296055,206.0983982614125 61.41084246314131,206.98608722444624 62.05345674359705,207.9043860353413 62.84907442389522,209.19000417151256 63.093879864085466,209.710373351234 63.06327918393072,210.13891264703125 63.3386853041593,211.33270054974128 63.369285984081216,211.70001986419084 63.369285984081216,212.09794910013443 63.30808462400455,213.3223466097843 63.2468832640443,214.6691836277023 62.4206649037078,216.5363890726585 62.23706082359422,216.90370811906178 61.227238383027725,217.85261556814658 60.40102002280764,217.9444453145843 59.29939554212615,217.4852965705213 58.10596902156249,216.75065851869294 57.64695882133674,216.322119620163 56.75953910080716,215.80175092315767 56.20872686058283,215.5568715230911 55.29070646013133,215.15894248016411 54.739894219907,214.85284320125356 54.15848129952792,214.69979355693795 53.45466565922834,214.42430418881122 52.84265205892734,214.17942474148003 51.863430298515595,214.17942474148003 51.282017378136516,214.0263750826707 50.425198337761685,213.75088568852516 49.72138269734569,212.77136775653344 49.20117113715969,212.09794910013443 48.619758216897026,211.73062980617397 47.6711371364072,211.57758009480312 46.72251605591737,211.42453038017265 45.80449565546587,211.82245963142486 44.82527389493771,212.15916898060823 44.36626369471196,212.09794910013443 43.6930487343343,212.03672921902034 42.928031734074466,212.0061192784342 42.19361541373655,212.22038886049995 41.88760861358605,212.0673391596647 41.42859841324389,212.31221867946442 41.061390253016725,213.01624725211877 41.336796373245306,213.59783602051903 42.37721949373372,213.78149562171893 42.89743105391972,213.65905588812893 42.16301473369822,213.4141764145461 41.61220249335747,213.10807706072228 40.35757461283356,213.44478634919506 39.500755572342314,213.65905588812893 39.16414809215348,214.05698501475854 38.460332451737486,215.1895524073625 38.03192293155007,215.67931122414302 37.45051001140382,215.77114099852042 36.71609369106591,216.50577915133908 35.76747261045966,216.9955378776649 35.155459010158665,217.63834615517408 34.604646769934334,218.34237420209683 34.145636569708586,218.8627427139436 33.288817529333755,220.02591925032903 32.49319984903559,221.0360460887896 32.156592368730344,221.31153520173393 31.54457876831293,221.86251339578303 30.657159047899768,222.68898060719948 30.28995088778902,222.9950795500772 29.708537967526354,223.6378872875357 29.035323007265106,224.25008507905295 28.453910086886026,224.64801361534046 27.168681526207365,225.50509038759628 26.403664525947534,226.1478978994419 24.690026444965042,227.18863374838838 23.221193804289214,227.9232707270421 21.752361163613386,228.38241880043643 21.109746883274056,228.71912736882223 19.855119002633728,229.30071485880762 19.120702682295814,229.94352202955633 18.26388364180457,230.67815872543724 17.529467321466655,231.7801136279013 17.31526256131474,232.1474318910041 16.886853041127324,232.66779939824482 16.366641480941325,233.67792445136 15.968832640675828,234.77987889235374 15.754627880640328,236.52463974402053 15.724027200601995,237.44293475855375 15.724027200601995,238.4836689661024 15.999433320830576,238.78976723377127 15.418020400335081,239.67745213594753 15.50982244045008,240.38147801480955 15.326218360452913,240.9018449243158 15.265017000376247,241.94257863017265 14.836607480188832,242.67721409641672 14.530600680038333,243.22819064679788 14.622402720036916,244.36075342295226" stroke="#4DD2FF" stroke-dasharray="none" stroke-linecap="round" stroke-linejoin="round" stroke-width="0.5"><title>2026-06-16 10.1km</title><desc>9223370255286294807</desc></polyline><polyline fill="none" opacity="1" points="109.18243243242614,231.4327032279689 109.6993243242614,229.9728060422931 110.27702702698298,229.2732718679472 111.76689189195167,228.48249402281363 113.10472972958814,227.904617849621 113.56081081076991,227.63088701438392 114.95945945940912,227.02259623160353 116.08445945940912,226.53596356784692 117.14864864875562,225.83642905537272 118.54729729727842,224.83274898247328 119.88513513514772,223.92031242954545 121.19256756757386,222.6429010584252 122.46959459455684,221.2742457629647 123.74662162153982,219.9055902037071 124.14189189183526,219.05398216686444 124.93243243242614,218.26320318406215 125.6621621621307,217.65491159883095 126.69594594591763,216.59040119918063 127.18243243242614,216.37749910005368 128.00337837822735,215.34340309916297 128.58108108106535,215.25215932715219 128.9459459458012,214.7351112634642 128.91554054059088,214.12681937555317 129.82770270260517,213.33603984315414 131.5608108107699,213.15355224628001 132.47297297301702,213.15355224628001 133.90202702698298,213.30562524404377 134.6621621621307,213.6097712297924 136.39527027029544,213.51852743542986 136.97297297301702,213.33603984315414 138.00675675680395,213.67060042533558 138.82770270272158,213.70101502287434 139.95270270272158,213.7314296204131 140.9256756756222,214.12681937555317 141.38175675680395,214.27889235236216 142.14189189183526,214.43096532602794 143.1756756756222,214.88718422723468 143.57094594603404,215.00884259591112 144.75675675668754,215.5563052293146 146.0641891892301,216.0733532330487 146.58108108106535,216.65123036911245 146.91554054047447,216.83371787605574 147.1891891892301,217.38118036848027 147.6756756756222,217.68532617937308 148.01013513514772,218.0807157139643 148.37499999988358,218.65859268652275 149.65202702698298,219.78393191896612 150.77702702698298,220.45305245911004 152.14527027029544,220.5138815959799 152.6013513513608,219.9055902037071 153.20945945940912,218.0503011351684 153.99999999988358,216.34708451392362 154.51689189195167,214.6742820770014 154.9121621622471,213.15355224628001 154.88175675668754,212.5452602226287 154.9121621622471,210.62914000661112 155.00337837846018,210.2641646686243 154.72972972970456,208.8955069835065 154.6385135134915,208.34804383531446 154.54729729727842,207.92223913531052 154.6993243242614,207.2835320372251 155.03378378378693,206.49275174067589 155.91554054047447,206.09736155922292 157.2229729729006,206.34067859657807 158.9256756756222,206.70565413689474 160.5371621621307,207.40519053657772 161.54054054047447,207.61809290532256 161.96621621621307,208.13514148857212 163.03040540532675,208.98675083741546 164.24662162153982,209.62545778183267 164.79391891893465,210.11209160560975 165.64527027029544,211.11577376141213 166.13175675668754,212.05862656608224 166.61824324331246,212.94065004389267 166.67905405408237,213.4576982385479 166.31418918911368,214.46137992030708 166.55743243242614,215.28257391788065 167.19594594591763,216.62081578426296 167.25675675680395,217.28993662266294 167.25675675680395,218.0503011351684 167.7128378378693,219.08439674141118 168.56418918911368,219.99683391588042 169.38513513514772,220.5138815959799 169.65878378378693,220.78761270543328 170.84459459455684,221.3654894575593 172.57770270272158,221.91295160038862 173.85472972970456,222.27792633877834 174.58445945952553,222.27792633877834 175.13175675692037,222.46041370090097 176.2871621621307,223.1295339887729 177.10810810816474,223.58575233066222 177.74662162165623,224.01155609008856 178.65878378390335,224.65026168123586 179.41891891893465,225.68435632623732 179.75337837834377,226.32306176697602 180.1486486486392,226.74886536231497 180.42229729727842,227.05301077192416 181.60810810816474,228.2695922802668 182.45945945952553,229.02995561726857 183.25000000011642,229.85114792990498 184.46621621632949,230.946070866019 184.89189189195167,231.06772895960603 184.8006756757386,231.00689991307445 185.19594594603404,230.15529320685891 185.5,229.82073340157513 185.04391891893465,229.18202827492496 183.49324324331246,228.14793413883308 182.45945945952553,227.17466893215897 182.24662162165623,226.9313526097103 181.4256756757386,225.8060145098134 180.39189189195167,224.74150533246575 179.63175675680395,223.79865421360591 178.71959459455684,222.76455929409713 177.98986486485228,222.21709721698426 177.22972972982097,221.57839140703436 176.37837837834377,220.909270973003 175.19256756757386,220.45305245911004 174.55405405396596,220.30097961460706 173.88513513514772,220.5138815959799 172.79054054059088,220.42263789044227 171.48310810816474,220.20973590633366 170.78378378390335,219.93600477452856 169.41554054059088,219.1452258899808 168.92905405408237,217.65491159883095 169.1114864865085,216.80330329190474 169.35472972970456,215.7692073530634 169.38513513514772,214.09640477976063 169.20270270272158,212.7885770383291 168.1993243243778,211.08535915263928 167.25675675680395,210.32499389292207 166.6486486485228,209.77753085532458 166.34459459467325,209.5342139361892 165.82770270272158,209.19965315866284 164.8243243243778,208.62177541479468 163.6385135134915,207.67892215237953 163.00000000011642,207.2531174120959 161.84459459467325,206.88814190000994 161.6013513514772,206.40150785457809 161.08445945940912,206.40150785457809 160.75,206.00611766800284 159.4729729729006,205.4890689292224 157.98310810816474,205.1545079604839 156.85810810804833,204.88077624695143 155.3986486486392,204.81994697579648 155.03378378378693,204.85036161146127 153.0878378378693,204.6982884320314 152.29729729727842,204.88077624695143 151.71959459467325,205.5194835619768 151.6891891892301,206.3710932256654 152.6621621622471,207.80058064492187 153.1486486486392,208.7130192721961 153.3614864865085,209.35172624129336 153.0878378378693,209.80794546968536 153.63513513514772,210.62914000661112 153.60472972970456,211.02452993497718 153.54391891905107,211.41991984116612 153.42229729727842,212.39318720856681 153.45270270260517,213.67060042533558 153.27027027029544,214.21806316205766 153.0878378378693,215.00884259591112 152.75337837846018,215.64754899742547 152.35810810804833,216.31666992767714 151.5371621622471,217.07703454460716 150.95945945940912,217.28993662266294 150.1993243242614,217.22910745814443 149.3479729729006,216.77288870763732 148.89189189183526,216.55998661392368 147.43243243254256,215.46506146003958 146.48986486485228,215.00884259591112 145.76013513514772,214.61345288995653 144.96959459455684,214.21806316205766 143.99662162165623,213.9139172025025 143.69256756745744,213.76184421771904 143.08445945952553,213.70101502287434 142.2635135134915,213.67060042533558 141.6858108107699,213.42728363990318 140.9256756756222,213.12313764635473 140.16554054047447,212.08904117060592 139.73986486485228,211.81530972523615 138.70608108106535,211.29826141078956 137.1858108107699,211.05494454386644 135.9391891892301,211.35909062623978 135.48310810804833,211.5111636624788 134.96621621621307,211.35909062623978 134.11486486485228,211.14618836995214 133.2635135136079,211.35909062623978 132.44256756745744,211.5111636624788 132.16891891893465,211.45033444836736 131.5,212.45401641452918 131.74324324319605,213.06230844603851 132.38175675680395,213.15355224628001 133.17229729727842,213.18396684603067 133.0506756756222,212.81899163970957 132.53378378378693,212.7885770383291 131.86486486485228,212.33235800202237 130.8614864865085,212.7277478351607 129.79729729739483,213.12313764635473 129.06756756757386,213.88350260572042 128.91554054059088,214.6438674835954 128.125,215.19133014511317 127.69932432437781,215.31298850855092 126.3614864863921,216.34708451392362 125.41891891881824,217.50283869437408 124.81081081076991,217.98947197716916 123.74662162153982,219.32771333272103 123.16891891881824,219.93600477452856 122.80405405408237,220.270565045299 122.10472972970456,220.97010010591475 121.375,221.91295160038862 120.85810810816474,222.42999914096436 120.00675675668754,223.34243588533718 119.06418918911368,223.85948332183762 118.66891891881824,224.1332143023028 118.0,224.80233443254838 117.33108108106535,225.04565082798945 116.08445945940912,226.01891632616753 114.77702702698298,226.6576217369293 113.89527027017903,227.0834253121866 112.19256756757386,227.84378877608106 110.48986486485228,228.6041521586012 108.96959459455684,229.79031887295423 107.96621621609665,230.67234014777932 107.47972972958814,231.6760193964583 107.20608108094893,232.10182267124765 106.71959459455684,232.98384365957463 106.5371621621307,233.47047588211717 106.29391891893465,234.4741547362064 106.26351351337507,235.26493191556074 106.20270270272158,236.54234101990005 106.02027027017903,237.42436145816464 106.26351351337507,238.1847238172777 106.1114864863921,239.34047444787575 106.172297297162,239.82710623630555 105.71621621621307,240.89161315764068 105.86824324319605,241.31741588166915 105.16891891893465,242.53399495314807 105.22972972958814,243.23352782533038 104.77364864863921,244.35886317142285 104.5,245.3017115680268" stroke="#4DD2FF" stroke-dasharray="none" stroke-linecap="round" stroke-linejoin="round" stroke-width="0.5"><title>2026-06-11 10.2km</title><desc>9223370255717407907</desc></polyline></svg>