<?xml version="1.0" encoding="utf-8" ?>
<svg baseProfile="full" height="300mm" version="1.1" viewBox="0,0,200,300" width="200mm" xmlns="http://www.w3.org/2000/svg" xmlns:ev="http://www.w3.org/2001/xml-events" xmlns:xlink="http://www.w3.org/1999/xlink"><defs /><rect fill="#222222" height="300" width="200" x="0" y="0" /><text fill="#FFFFFF" style="font-size:12px; font-family:Arial; font-weight:bold;" x="10" y="20">Over 10km Runs</text><text fill="#FFFFFF" style="font-size:4px; font-family:Arial" x="10" y="280">Runner</text><text fill="#FFFFFF" style="font-size:9px; font-family:Arial" x="10" y="290">Yanfu</text><text fill="#FFFFFF" style="font-size:4px; font-family:Arial" x="65" y="280">SPECIAL TRACKS</text><rect fill="yellow" height="2.6" width="2.6" x="65" y="283" /><text fill="#FFFFFF" style="font-size:3px; font-family:Arial" x="70" y="285.5">Over 20.0 km</text><rect fill="red" height="2.6" width="2.6" x="65" y="287" /><text fill="#FFFFFF" style="font-size:3px; font-family:Arial" x="70" y="289.5">Over 40.0 km</text><text fill="#FFFFFF" style="font-size:4px; font-family:Arial" x="120" y="280">STATISTICS</text><text fill="#FFFFFF" style="font-size:3px; font-family:Arial" x="120" y="285">Number: 4</text><text fill="#FFFFFF" style="font-size:3px; font-family:Arial" x="120" y="290">Weekly: 2.0</text><text fill="#FFFFFF" style="font-size:3px; font-family:Arial" x="141" y="285">Total: 40.5 km</text><text fill="#FFFFFF" style="font-size:3px; font-family:Arial" x="141" y="290">Avg: 10.1 km</text><text fill="#FFFFFF" style="font-size:3px; font-family:Arial" x="167" y="285">Min: 10.1 km</text><text fill="#FFFFFF" style="font-size:3px; font-family:Arial" x="167" y="290">Max: 10.2 km</text><polyline fill="none" opacity="1" points="14.5,94.09088613151107 14.83942857151851,93.19576201203745 14.716000000131316,91.9919742285274 14.83942857151851,90.57212171360152 14.901142857270315,90.26345808658516 15.24057142867241,89.67699715890922 15.425714285927825,87.85588134347927 15.487428571563214,87.45461847505067 15.919428571476601,85.94216592446901 16.7217142857844,85.32483826181851 16.814285714412108,85.01617441070266 16.96857142879162,84.27538111427566 17.061142857186496,83.65805330924923 17.770857142983004,83.10245823964942 18.449714285787195,81.43567277421243 19.19028571434319,80.66401270619826 20.085142857278697,80.07755099929636 21.3194285716163,79.67628769867588 22.98571428586729,78.81202820630278 24.46685714297928,78.07123427320039 25.20742857165169,77.70083727815654 26.225714285857975,77.14524174993858 27.213142857304774,76.4970469129039 28.200571428635158,75.78711916739121 28.97200000018347,75.10805778007489 30.268000000040047,73.90426698193187 30.977714285836555,73.19433898100397 31.594857143005356,72.48441091011046 32.52057142870035,71.55841766914818 32.86000000021886,70.87935588340042 33.261142857256345,70.26202693168307 34.37200000009034,68.81130368681625 35.29771428578533,68.0396422672784 35.791428571450524,67.7927105955896 36.532000000122935,67.11364845460048 37.45771428570151,66.68151796789607 37.951428571599536,65.66292457509553 38.414285714388825,65.26166047161678 38.815428571542725,64.70606398378732 40.234857143019326,64.39739924977766 40.79028571443632,64.39739924977766 41.99371428589802,64.39739924977766 42.73428571445402,64.36653277557343 43.22800000011921,64.18133392801974 43.6908571429085,64.58259809174342 44.1228571429383,64.86039634578628 44.5240000000922,64.86039634578628 45.233714285772294,64.76779692899436 45.696571428678,64.70606398378732 46.9000000001397,64.5517316184123 48.04171428573318,64.86039634578628 49.30685714294668,64.95299576141406 49.76971428585239,65.04559517593589 50.94228571432177,65.47772576083662 52.05314285727218,66.12592158961343 53.38000000012107,66.40371978410985 54.64514285721816,67.02104906673776 55.81771428580396,67.7927105955896 56.21885714295786,68.16310809995048 56.650857142871246,68.56437204161193 57.237142857164145,69.33603340486297 57.60742857144214,69.82989663397893 57.94685714296065,70.0150953361881 58.965142857283354,71.0028216674109 59.70571428583935,71.86708209599601 60.137714285752736,72.36094515153673 60.847428571549244,71.8979485380114 61.98914285725914,70.3546262778109 62.23600000014994,69.89162953523919 63.10000000009313,68.44090621580835 63.71714285726193,66.71238443203038 63.96400000003632,65.57032516854815 64.36514285719022,64.36653277557343 64.42685714294203,63.50227144616656 64.42685714294203,62.113279806042556 64.42685714294203,61.2798846931546 64.24171428580303,60.10695807420416 63.96400000003632,59.242696232453454 64.30342857143842,58.00803627813002 65.07485714298673,57.32897321268683 66.83371428574901,57.48330573324347 68.1914285714738,57.822837266663555 69.4874285714468,58.28583478636574 70.7525714286603,58.71796577773057 71.46228571445681,58.96489776123781 72.3571428572759,60.10695807420416 73.99257142865099,61.06381927779876 74.60971428581979,61.74288199003786 75.65885714290198,62.97754130256362 76.18342857144307,64.61346456489991 75.81314285728149,65.323393412109 75.62800000002608,65.848123384465 75.72057142853737,66.37285331857856 76.24514285707846,67.08278199209599 76.55371428583749,67.94704289140645 76.70799999998417,69.02736886951607 76.61542857147288,69.86076308472548 76.67714285722468,70.53982496651588 78.18914285709616,71.4966847821488 78.55942857149057,71.68188344151713 79.39257142867427,72.20661295042373 80.90457142866217,72.91654104861664 82.29314285726286,73.25607185339322 83.09542857145425,73.41040403215447 83.71257142862305,73.59560264233733 84.79257142858114,73.84253411513055 86.05771428579465,74.58332848257851 87.19942857150454,75.23152349167503 87.69314285716973,75.50932133483002 88.34114285721444,76.00318414077628 88.68057142861653,76.18838268431136 89.29771428578533,77.94776861037826 89.42114285717253,78.25643276365008 89.88400000007823,78.41076483536744 90.80971428577323,79.27502437582007 91.79714285733644,80.01581818528939 92.3525714285206,80.63314630172681 93.12400000006892,81.34307357040234 94.0805714285234,82.05300076922867 94.574285714305,82.8246606887551 94.72857142868452,82.51599673082819 94.85200000007171,81.99126797204372 94.8211428570794,80.7566119186813 94.14228571439162,80.1701502193464 93.1548571428284,79.36762360617286 92.84628571430221,79.02809308911674 92.04400000011083,78.53423049027333 91.36514285719022,77.66997086111223 90.65542857139371,77.14524174993858 90.40857142861933,76.92917681077961 89.85314285720233,75.75625274208141 89.69885714293923,75.26238991919672 88.80400000012014,74.61419491289416 87.97085714282002,73.90426698193187 87.10685714287683,73.10173967137234 86.11942857143003,72.29921227152226 85.16285714285914,71.86708209599601 84.20628571440466,71.8979485380114 83.46571428573225,72.08314718701877 82.41657142865006,71.83621565398062 80.99714285717346,71.58928411238594 79.88628571433946,71.18802033935208 78.99142857140396,71.06455455860123 78.49771428585518,69.89162953523919 78.31257142859977,68.81130368681625 78.77542857138906,67.82357705500908 79.11485714290757,66.71238443203038 79.05314285715576,65.1999275307171 78.83714285725728,63.9344021237921 78.06571428582538,62.85407538077561 77.38685714290477,62.05154683807632 75.90571428567637,60.940353323181625 74.82571428571828,60.35389000992291 73.90000000002328,59.582227682753 73.4062857144745,59.21182973618852 72.41885714291129,58.501900285307784 71.03028571442701,58.03890277957544 70.59828571428079,57.76110426185187 70.32057142874692,57.26724020362599 69.5491428571986,56.92770864395425 68.65428571437951,56.64991008315701 67.85200000007171,56.5264440526953 67.08057142875623,56.21777896722779 65.47600000014063,56.09431292931549 64.05657142866403,56.03257990954444 63.470285714487545,55.939980378956534 62.205142857157625,55.90911386848893 61.64971428574063,56.09431292931549 61.18685714295134,56.43384452839382 61.03257142868824,57.020308161736466 61.12514285708312,57.514172236958984 61.52628571446985,58.25496828596806 61.77314285724424,58.84143177064834 62.23600000014994,59.397028711857274 62.729714285815135,60.35389000992291 62.606285714311525,61.187285230204 62.63714285718743,61.68114901881199 62.883999999961816,62.8849418614991 62.79142857156694,64.27393335243687 62.76057142869104,65.41599282179959 62.050857143010944,67.26798076502746 61.00171428581234,68.41003975900821 60.322857142891735,68.84217014187016 58.87257142865565,68.34830684500048 58.40971428574994,68.3174403879093 57.79257142858114,67.82357705500908 57.17542857141234,67.05191552947508 56.34228571446147,66.58891857444542 55.848571428563446,66.31112038710853 55.13885714288335,65.9407227874035 54.274857142940164,65.75552398036234 53.93542857153807,65.57032516854815 53.13314285723027,65.38512635196093 52.60857142857276,65.07646164705511 52.14571428578347,64.5517316184123 51.31257142871618,64.76779692899436 49.83142857160419,63.53313792392146 49.06000000005588,63.13187370169908 48.75142857152969,62.699742975702975 47.455428571556695,61.98981386952801 46.40628571435809,61.83548144582892 45.233714285772294,62.42194463813212 44.863428571494296,62.79234241915401 43.66000000014901,63.03927426255541 43.19714285724331,62.79234241915401 42.24057142867241,62.60714353102958 41.56171428586822,62.8849418614991 40.94457142869942,62.97754130256362 40.543428571429104,63.37880553340074 40.481714285793714,63.9344021237921 40.7285714285681,64.335666301311 41.56171428586822,64.48999867134262 42.33314285730012,64.61346456489991 42.086285714409314,64.24306687770877 41.37657142872922,64.1504674529424 39.74114285723772,64.08873450243846 38.630285714403726,64.36653277557343 37.76628571446054,65.35425988212228 37.36514285730664,66.40371978410985 36.71714285726193,66.49631917994702 36.03828571434133,67.329713688232 34.77314285724424,68.07050872565014 33.60057142865844,69.366899857705 32.73657142871525,70.13856113498332 32.11942857154645,71.09542100399267 31.594857143005356,71.71274988423102 31.131999999983236,72.14488006895408 30.607428571442142,72.91654104861664 29.681714285863563,73.74993481376441 28.72514285717625,74.95372563775163 27.70685714285355,75.81798559258459 26.04057142860256,76.8365775491111 24.991428571520373,77.42303951946087 24.158285714453086,77.85516936174827 22.89314285723958,78.47249766305322 22.245142857194878,78.65769614320016 21.226857142988592,79.27502437582007" stroke="#4DD2FF" stroke-dasharray="none" stroke-linecap="round" stroke-linejoin="round" stroke-width="0.5"><title>2026-06-20 10.1km</title><desc>9223370254938036107</desc></polyline><polyline fill="none" opacity="1" points="104.5,96.82915501395473 104.97699668735731,96.14326837431872 105.33474420313723,96.05380489467643 105.72230401157867,95.63630864105653 105.84155318362173,94.3241773963673 105.9309900625376,93.90668103960343 106.4377990430221,93.28043645789148 106.88498343748506,91.87884123862023 106.76573426567484,90.62635165615939 107.45141700399108,89.6124313538312 107.39179241796955,88.89672281657113 107.54085388290696,87.85298106848495 107.5706661758013,86.89870276243892 107.5706661758013,86.30227875494165 107.63029076182283,85.28835782548413 107.74953993363306,83.46926402440295 108.28616120724473,82.12730927724624 108.64390872279182,81.8589182968135 109.00165623845533,80.96428162115626 109.21034228906501,80.42749956063926 110.223960250034,79.68196885252837 110.99907986738253,78.25054966966854 112.2511961722048,76.99805764370831 112.69838056666777,76.69984522339655 114.30824438703712,75.9841353626689 115.38148693402763,75.50699541467475 116.42491718800738,75.02985543408431 118.06459330127109,74.07557537488174 118.57140228175558,73.8370053396211 119.52539565693587,73.15111644280842 120.00239234429318,72.79326133942232 121.16507177019957,71.92844476364553 122.02962826634757,71.09344934718683 122.98362164141145,70.04970493586734 123.87799043057021,69.33399439195637 124.7425469267182,68.20078588015167 125.33879278623499,67.21668360178592 125.99466323142406,66.35186633322155 126.38222303998191,66.08347474521725 126.73997055564541,65.75544056802755 127.12753036420327,65.33794250205392 128.17096061829943,64.77133794367546 128.94608023541514,63.787235180148855 129.27401545806788,63.787235180148855 129.87026131746825,63.25045179575682 129.75101214565802,62.74348967248807 130.01932278240565,62.29617012129165 130.58575634891167,61.729565315064974 131.45031284494326,61.401530932460446 132.58317997772247,61.401530932460446 133.74585940362886,61.43135224055732 134.81910195061937,61.37170962407254 135.71347073966172,61.8190292348736 136.33952889207285,61.8190292348736 137.80033124762122,61.55063747189706 138.63507545075845,61.580458779411856 139.52944424003363,61.93831445951946 140.09587780642323,62.087420987547375 140.99024659534916,61.96813576534623 140.78156054473948,61.8190292348736 141.46724328305572,61.75938662176486 141.76536621258128,61.96813576534623 142.6299227088457,62.773310974938795 143.10691939631943,63.07152399176266 144.1205373572884,63.22063049545977 144.89565697440412,63.51884349307511 145.73040117765777,63.90652037097607 146.77383143163752,64.44330370466923 147.54895104886964,65.09937216737308 147.87688627152238,65.75544056802755 148.68181818176527,66.38168762007263 149.33768862707075,67.09739846765297 150.05318365851417,67.81310924165882 150.35130658803973,68.3498922738363 151.39473684201948,69.1550667444244 152.79591461154632,68.02185820357408 153.36234817816876,66.82900690851966 153.8989694515476,65.84490443608956 154.46540301805362,64.80115923745325 154.8231505336007,63.57848609116627 155.3299595140852,61.66992270114133 155.59827015071642,60.74546212068526 155.65789473685436,59.94028667616658 155.4790209790226,58.568506074137986 155.41939639300108,58.12118625402218 155.24052263516933,57.644045080814976 155.38958410010673,56.83886927663116 155.21071034227498,55.82494405686157 155.44920868589543,55.16887471813243 156.2541405961383,54.602269330236595 157.62550607288722,54.75137601577444 158.69874861976132,54.960125370067544 159.38443135807756,55.28816005709814 160.7259845416993,55.73548005981138 161.85885167459492,56.033693378965836 162.09735001833178,56.48101333359955 163.61777695978526,57.58440243185032 164.69101950677577,58.21065022033872 165.7642620537663,59.52278826077236 166.47975708497688,60.536712940374855 166.92694147955626,61.55063747189706 166.7480677216081,61.90849315357627 166.95675377256703,63.36973699583905 167.37412587413564,64.80115923745325 167.46356275305152,65.54669153818395 167.34431358100846,66.2624024716788 167.49337504594587,66.88864947808906 167.64243651088327,67.30614745098865 168.6858667646302,68.17096460104221 169.66967243282124,68.43935610854533 170.17648141330574,68.85685398837086 170.83235185861122,69.45327948767226 171.60747147584334,69.8707773067872 173.0682738313917,70.07952620694414 173.42602134717163,70.16899001935963 174.5887007728452,70.58648779551731 175.66194331971928,71.00398554664571 176.97368421056308,71.5407683327212 177.56993006996345,72.04772981494898 178.19598822225817,72.40558495663572 179.06054471828975,73.5089715278591 179.41829223406967,74.16503913589986 180.0443503864808,74.79128543153638 180.46172248804942,75.2087829306256 180.9685314685339,75.71574414591305 181.50515274191275,76.16306283476297 182.3995215310715,76.87877267715521 183.5622009569779,77.8926948280423 184.39694516011514,78.87679559830576 184.5758189179469,79.17500792554347 184.90375414059963,78.87679559830576 184.90375414059963,78.54876202362357 185.47018770698924,77.74358863860834 184.66525579674635,76.96823640231742 183.86032388661988,76.49109652161133 182.81689363264013,75.47717416693922 182.13121089432389,74.91057043382898 181.50515274191275,74.07557537488174 180.8194700035965,73.77736282953992 180.52134707395453,73.56861404026859 180.34247331612278,72.70379756065086 179.77603974973317,72.07755107746925 179.14998159720562,71.30219821067294 178.55373573792167,70.73559413809562 177.98730217153206,69.75149221817264 177.15255796839483,69.27435184328351 176.8842473316472,68.97613909241045 176.4370629369514,68.55864121962804 174.91663599549793,68.55864121962804 174.20114096428733,68.79721143568167 172.91921236657072,68.6182837743545 171.3391608390957,68.3498922738363 170.59385351487435,67.87275180284632 169.99760765547398,67.36579001654172 169.0436142804101,66.88864947808906 169.01380198739935,66.02383216872113 169.16286345233675,65.54669153818395 169.52061096800026,64.26437593135051 169.72929701872636,63.697771285660565 169.63986013981048,62.80313227715669 169.3417372100521,61.37170962407254 168.80511593667325,60.14903587446315 168.02999631944112,59.22457509156084 167.58281192474533,58.80707663309295 166.3903202059446,58.00190096377628 165.8835112254601,57.67386640503537 164.63139492075425,56.749405292619485 163.7370261317119,56.0038720475859 162.33584836206865,55.377624059969094 161.6501656237524,54.960125370067544 160.99429517844692,54.45316264143912 159.98067721747793,54.0654852357693 158.8478100845823,53.70762914972147 157.65531836578157,53.319951702374965 156.64170040481258,53.379594388010446 155.3299595140852,53.260309016215615 153.51140964298975,53.17084498604527 152.7362900256412,53.34977304522181 152.3189179240726,54.15494925441453 152.3785425099777,55.04958937712945 153.33253588504158,56.451192004198674 153.72009569371585,57.73350905330153 153.5412219360005,58.15100757626351 154.048030916485,58.866719271522015 154.07784320926294,59.791180102096405 154.10765550239012,60.566534252197016 154.07784320926294,62.1768849028158 153.42197276395746,63.787235180148855 153.12384983431548,64.29419722722378 152.43816709599923,65.18883604381699 151.54379830684047,65.6063341187546 150.79849098261911,65.51687024760759 150.2320574162295,65.30812121060444 149.18862716224976,64.652052767633 148.294258373091,64.11526945012156 147.48932646296453,63.33991569606587 146.77383143163752,63.04170269070892 146.08814869332127,62.74348967248807 144.80622009560466,62.23652751225745 144.09072506439406,62.087420987547375 143.07710710342508,61.90849315357627 142.24236290017143,61.66992270114133 141.43743098992854,60.62617687560851 140.63249907980207,60.268321127747186 139.58906882593874,59.433324311394244 138.84376150160097,59.015825865441 138.06864188425243,58.80707663309295 137.2338976812316,58.92636190954363 136.93577475147322,59.463145627931226 136.33952889207285,59.791180102096405 135.38553551700898,59.94028667616658 134.4315421419451,59.91046536155045 133.2986750091659,59.97010799054988 132.70242914976552,60.238499814702664 132.4341185130179,60.95421129476745 132.8514906145865,61.43135224055732 133.4179241808597,61.46117354853777 134.01417004037648,61.55063747189706 133.358299595071,61.25242438970599 132.34468163410202,61.04367522458779 131.09256532939617,61.341888315742835 130.64538093481679,61.46117354853777 130.22800883324817,62.05759968212806 129.87026131746825,62.83295357931638 129.27401545806788,63.4592008945765 128.2007729113102,64.1450907466351 126.94865660648793,65.03972958237864 126.08410011033993,65.90454701409908 125.21954361419193,66.88864947808906 124.86179609852843,67.42543258157093 124.17611336021218,68.02185820357408 123.37118145008571,69.00596036796924 122.11906514514703,70.37773891055258 121.07563489140011,71.33201947639463 120.44957673898898,71.8091597102466 119.58502024272457,72.5248699998483 118.63102686777711,73.09147392684827 117.3490982700605,73.92646910378244 116.60379094572272,74.31414540187689 115.41129922692198,74.85092793294461 114.12937062932178,75.47717416693922 113.65237394173164,75.62628040480195 112.04251012136228,76.28234781359788 111.62513801979367,76.6402027378208 110.58170776581392,77.74358863860834 109.68733897665516,78.72768942988478" stroke="#4DD2FF" stroke-dasharray="none" stroke-linecap="round" stroke-linejoin="round" stroke-width="0.5"><title>2026-06-18 10.1km</title><desc>9223370255108266507</desc></polyline><polyline fill="none" opacity="1" points="22.677437858423218,231.2588807498105 23.51376673032064,230.79411401657853 24.84569789667148,230.17442499252502 25.929827915737405,229.61670482548652 26.45640535361599,229.3068602697458 27.94321223697625,228.0674819139531 29.02734225615859,227.3858237278182 30.049521988490596,226.48727420251817 30.545124282944016,225.77463139622705 31.071701720822603,225.18592641636496 31.90803059260361,224.41131452762056 32.83728489477653,223.04799740191083 33.735564053524286,222.18043182452675 33.89043977041729,221.8705869502155 34.138240917702205,221.49877308349824 34.97456978971604,220.69317630660953 35.87284894823097,220.10447091289097 36.77112810686231,219.08198248338886 37.42160611844156,218.9890289825853 37.79330783931073,217.8116178693017 38.7535372847924,216.91306715359678 40.48814531532116,216.72716009506257 41.63422562123742,216.7581446050899 42.532504779985175,216.7581446050899 43.121032504714094,216.7581446050899 43.957361376611516,217.37783477909397 45.19636711280327,217.28488125640433 45.87782026757486,217.00602068111766 46.21854684513528,216.91306715359678 47.271701720776036,217.2538967485889 48.35583173984196,217.5327573142713 49.7806883364683,217.3468502717442 49.7806883364683,217.2538967485889 50.92676864238456,217.8116178693017 51.39139579352923,218.1524474218022 52.90917782031465,218.5552459631581 53.71453154878691,218.95804448210401 54.9225621415535,219.54674996918766 55.573040152783506,219.91856393642956 56.09961759077851,220.4762848513201 57.09082217968535,221.52975757309468 57.3076481835451,222.18043182452675 58.51567877619527,223.01701291889185 59.59980879537761,223.9775318336906 60.31223709369078,224.3493455729331 60.90076481830329,224.41131452762056 61.70611854677554,223.91556287527783 62.17074569792021,223.14095085050212 62.294646271388046,222.33535425673472 62.72829827910755,221.43680410378147 63.471701720845886,219.63970346283168 63.936328871990554,217.8116178693017 63.99827915872447,217.43980379361892 64.30803059274331,215.6427021579002 64.40095602290239,213.59772389009595 63.81242829817347,211.95554395235376 63.96730401518289,210.87108529784018 64.24608030589297,210.15844095032662 65.02045889105648,209.5077656150097 65.88776290626265,209.53875015611993 67.03384321229532,209.75564194010803 68.52065009565558,210.15844095032662 69.94550669228192,210.87108529784018 70.99866156792268,210.8401007624343 71.46328871895093,210.6232090110425 71.68011472269427,211.14994611026486 72.36156787758227,212.1724356636405 73.44569789676461,212.91606433870038 74.34397705551237,213.56673936644802 74.71567877626512,214.03150720748818 75.11835564055946,214.4962750185514 75.7688336520223,215.73565570177743 76.1095602294663,216.26239242765587 76.01663479930721,217.09897420741618 75.67590822186321,217.78063336363994 75.73785850859713,218.43130795279285 76.17151051620021,219.17493598291185 76.66711281065363,220.3833313685027 76.6051625238033,221.52975757309468 76.63613766734488,221.96354041382438 77.59636711282656,223.14095085050212 78.49464627157431,223.88457839592593 78.61854684504215,224.16343870572746 79.54780114721507,224.56623691204004 80.35315487580374,225.12395746819675 81.06558317411691,225.402817730268 83.04799235181417,225.74364692473318 83.82237093686126,226.02250716288108 85.09235181647819,226.3323518593097 85.71185468451586,226.642196542467 86.82695984700695,227.2928703338257 87.91108986607287,227.97452852869174 88.4066921606427,228.53224882221548 89.2739961759653,229.49276700476184 89.49082217970863,229.9265493680141 89.98642447416205,230.6701762159355 90.45105162530672,231.16592740552733 90.66787762905005,231.47577188175637 91.16347992350347,232.00250746088568 92.21663479914423,232.93204074254027 93.30076481832657,233.83058946800884 94.44684512424283,234.94602911017137 94.78757170180324,235.06996683753096 94.94244741881266,234.5742159151705 95.5,233.86157390486915 95.19024856609758,233.3658228997374 94.26099426380824,232.62219632859342 93.7034416826209,232.15742968278937 92.96003824099898,231.66167856106767 92.3405353728449,231.10395850875648 91.87590822170023,230.51525396230863 91.59713193122298,229.89556491433177 90.72982791578397,229.3998136378359 90.29617590818089,228.90406232734676 89.64569789671805,227.81960621732287 88.53059273422696,226.5182586707524 88.28279158705845,226.23939845181303 87.69426386244595,225.61970903770998 87.22963671130128,225.55774009344168 86.14550669211894,224.93805062095635 85.34015296364669,224.62820586486487 84.3179732314311,224.31836109538563 82.95506692153867,224.41131452762056 82.61434034409467,224.194423183857 81.96386233274825,224.22540766198654 80.78680688340683,223.88457839592593 79.08317399618682,222.92405946872896 78.74244741874281,222.64519911113894 78.43269598472398,221.90157143818215 78.74244741874281,220.6002228265279 78.8353728489019,219.76364145241678 79.08317399618682,219.08198248338886 79.0212237094529,217.90457138512284 78.80439770547673,216.41731498675654 78.40172084129881,215.4258105509216 77.62734225625172,214.46529049874516 76.23346080293413,213.4428012704593 75.39713193115313,212.85409528535092 74.00325047806837,212.01751301338663 73.41472275333945,211.45979144482408 72.51644359470811,210.80911622697022 71.52523900580127,210.5302554012742 70.93671128107235,210.40631725313142 70.68891013378743,210.00351825676626 70.22428298275918,209.72465739998734 69.35697896743659,209.19792019657325 68.334799235221,208.91905930859502 67.21969407261349,208.5472447744687 66.41434034414124,208.26838386128657 65.33021032507531,208.26838386128657 64.46290630975273,208.26838386128657 62.666347992257215,208.17543022119207 61.89196940721013,208.4852756835753 61.48929254303221,208.5472447744687 60.96271510515362,209.22890473896405 61.582217973074876,210.6541935473797 62.23269598465413,211.61471410706872 62.44952198851388,212.32735831063474 62.72829827910755,212.88507981214207 62.6973231357988,213.4737857946311 63.00707456970122,214.527259538183 63.0380497132428,214.9300582818687 63.0380497132428,215.51876409753459 62.88317399623338,217.31586576410336 62.542447418672964,218.71016847307328 61.89196940721013,219.76364145241678 61.24149139574729,220.56923833291512 60.2193116635317,221.18892817990854 59.259082218050025,220.7861297854688 58.453728489461355,220.44530035718344 57.43154875701293,219.76364145241678 56.87399617594201,219.11296698334627 56.130592734203674,218.7411529746605 55.4181644358905,218.36933894688264 54.45793499040883,217.99752489989623 54.024282982805744,217.90457138512284 53.34282982791774,217.5327573142713 52.537476099445485,217.3468502717442 51.88699808786623,217.03700519003905 51.08164435939398,217.19192773255054 50.431166348047554,217.1299587158719 49.4399617590243,216.16943889058894 49.09923518169671,215.58073312806664 48.23193116625771,214.89907376392512 47.33365200762637,214.6202130964375 46.40439770545345,214.43430597888073 45.41319311654661,214.68218213459477 44.360038240789436,215.05399635230424 44.019311663345434,215.1779344207025 43.461759082158096,214.9920273174066 42.74933078396134,214.96104279975407 41.913001911947504,215.20891893736552 41.4173996176105,215.11596538679441 41.01472275319975,215.11596538679441 40.61204588902183,215.58073312806664 40.426195028587244,216.29337693972047 40.82887189288158,216.72716009506257 42.129827915807255,216.82011362491176 42.19177820265759,216.54125303163892 41.324474187335,216.29337693972047 40.76692160603125,216.13845437788405 39.40401529625524,216.57223754259758 38.62963671120815,216.85109813464805 37.79330783931073,217.7186643521418 37.66940726561006,218.46229245560244 37.14282982784789,218.83410647860728 36.2755258125253,219.2059204824618 35.810898661380634,219.73265695525333 34.91261950263288,220.29037788446294 34.32409177813679,220.9410522475373 33.67361376667395,221.56074206257472 32.80630975123495,222.6142146261991 31.939005736028776,223.76064047700493 31.567304015276022,224.31836109538563 31.288527724565938,224.62820586486487 30.390248565818183,225.55774009344168 29.70879541093018,226.02250716288108 29.058317399583757,226.70416547748027 28.81051625229884,226.9830256785499 28.036137667135336,227.60271497583017 26.921032504644245,228.37732652277919 26.11567877617199,228.74914003588492 24.69082217954565,229.9575338215218 23.142065009567887,230.6391917655128 21.655258126091212,231.28986519755563 20.416252389899455,231.87856968102278 19.579923518002033,232.25038301438326 18.588718929095194,232.90105630166363 18.03116634802427,233.3658228997374 17.194837476010434,234.23338713636622 16.482409177697264,235.25587342469953 16.23460803052876,235.6276865847758 15.739005735958926,236.0614685806795 15.181453154771589,237.42478325602133 14.871701720752753,238.97400416701566 14.71682600362692,240.05845860781847 14.5,241.42177253204864 14.530975143192336,241.79358537611552" stroke="#4DD2FF" stroke-dasharray="none" stroke-linecap="round" stroke-linejoin="round" stroke-width="0.5"><title>2026-06-16 10.1km</title><desc>9223370255286294807</desc></polyline><polyline fill="none" opacity="1" points="114.47399617591873,230.34483989706496 115.06252390076406,229.91105756908655 116.76615678786766,228.95053946465487 117.88126195047516,227.9900212328066 119.30611854686867,226.90556501131505 120.63804971321952,225.54224838799564 121.96998087968677,224.11696255247807 122.8682600382017,222.97053678525845 123.45678776293062,221.9480487855035 124.38604206510354,221.2354055486503 125.22237093711738,220.460793254897 125.90382409188896,219.87208785605617 126.67820267693605,219.03550641727634 127.26673040166497,218.78763041691855 127.82428298285231,218.38483189797262 127.82428298285231,217.70317281479947 128.2579349904554,217.26938972843345 129.65181644365657,216.5567460298771 131.0766730401665,216.61871504993178 132.3776290632086,216.71166857902426 133.49273422569968,216.86659112485358 134.54588910145685,216.9285601422307 135.66099426383153,216.9285601422307 136.40439770556986,216.74265308841132 137.73632887203712,217.1454516989761 138.5107074569678,217.2074207139085 139.93556405359413,217.51726578100352 140.33824091788847,217.79612632998032 140.9267686426174,217.70317281479947 141.91797323152423,218.13695587514667 142.63040152972098,218.35384739557048 143.18795411090832,218.5397544078878 144.3959847036749,219.09747541614342 145.48011472274084,219.62421188433655 146.06864244746976,220.18193280877313 146.34741873806342,220.70866919792024 146.84302103263326,221.01851411472308 147.24569789681118,221.39032799738925 147.52447418740485,221.7931263486389 148.39177820272744,222.59872298396658 149.2900573614752,223.59022641176125 150.83881453156937,224.42680732323788 151.6751434034668,223.8690867263358 152.2636711281957,222.53675401519286 152.97609942639247,220.70866919792024 153.65755258128047,219.0664909167681 154.18413001915906,217.11446719121886 154.36998087959364,216.1539473864832 154.33900573616847,214.94555132160895 154.4009560229024,213.83010862051742 154.2151051624678,212.62171216635033 154.18413001915906,211.81611441774294 153.9982791588409,211.44430004188325 154.12217973230872,210.76264030305902 154.33900573616847,209.92605780815938 155.02045889105648,209.43030517268926 156.16653919697274,209.46128971350845 157.5604206500575,209.70916603435762 159.32600382412784,210.4218104094616 160.93671128107235,210.79362483811565 161.27743785851635,211.04150111303898 161.86596558324527,211.63020723225782 163.44569789688103,212.8076193262823 164.1581261951942,213.17943363194354 164.5917782027973,213.7991240985575 165.39713193115313,214.6357061441522 166.2024856597418,216.1539473864832 166.29541108978447,216.71166857902426 166.2024856597418,217.64120380411623 165.89273422560655,218.0440023643896 166.63613766734488,219.5312583927298 166.85296367108822,220.58473122742726 166.8839388146298,221.32835901831277 167.3175908222329,222.38183159101754 167.9061185468454,223.31136608647648 168.46367112814914,223.68317985115573 169.20707456965465,224.2409004624351 169.7026768643409,224.42680732323788 171.37533460813574,225.23240366508253 172.7072657744866,225.54224838799564 174.19407265773043,225.97603097785031 174.75162523903418,226.00701544759795 175.5879541109316,226.34784460550873 176.5481835565297,226.87458054540912 177.32256214146037,227.40131644706707 178.2518164436333,227.9900212328066 178.8403441682458,228.48577259416925 179.4288718929747,229.69416639534757 179.73862332710996,230.1279487363645 180.11032504786272,230.59271550137782 180.9776290630689,231.491264495824 181.90688336535823,232.1729222794529 182.8671128108399,233.04048663849244 183.88929254293907,233.9700197650236 184.7256214149529,234.9615216352977 184.94244741869625,234.62069288268685 184.88049713196233,234.3418329822598 185.5,233.72214427631116 185.22122370940633,233.2263932733331 184.23001912038308,232.38981337897712 182.92906309757382,231.1504355801153 182.3405353729613,230.68566885084147 181.59713193110656,229.75613530277042 180.6369024856249,229.10546174820047 179.7695984704187,227.71116107702255 179.0881453155307,226.78162714710925 178.0040152964648,225.8211086273659 177.63231357559562,225.4492949725245 176.4242829827126,224.61271417932585 175.86673040152527,224.42680732323788 174.53479923517443,223.90007120510563 173.8843212237116,223.93105568375904 172.83116634795442,224.08597807475599 171.77801147219725,223.93105568375904 170.78680688340683,223.52825745160226 170.07437858509365,223.1254591969191 168.68049713189248,222.01001775934128 168.55659655842464,220.95654513238696 168.89732313575223,219.5312583927298 169.11414913961198,218.35384739557048 169.08317399618682,217.05249817541335 168.43269598472398,215.2863810014096 167.53441682609264,214.20192287338432 166.41931166348513,213.27238720527384 166.1095602294663,213.0245110069518 165.61395793501288,212.6526966933161 164.9015296366997,212.24989783205092 163.97227533475962,211.5062691058847 163.01204588916153,210.79362483811565 161.9279158700956,210.45279494591523 161.24646271509118,209.92605780815938 160.99866156792268,209.55424333480187 160.47208412992768,209.61621241504326 159.48087954125367,208.96553704608232 158.02504780120216,208.53175343415933 156.90994263871107,208.19092343508964 155.79483747610357,208.15993888885714 154.6487571701873,208.06698524957756 153.44072657753713,208.0360007028794 152.07782026776113,208.0979697961593 151.4892925430322,208.25289252703078 150.9936902486952,209.43030517268926 151.55124282988254,210.39082587289158 152.29464627150446,211.44430004188325 152.57342256221455,212.21891330328071 152.66634799249005,212.90057290450204 152.94512428308371,213.7991240985575 153.06902485655155,214.20192287338432 153.00707456981763,214.60472162568476 153.00707456981763,215.1934274539235 152.82122370938305,216.6496995597263 152.75927342264913,217.4862812748761 152.63537284894846,218.07498686818872 152.38757170177996,218.63270791230025 151.89196940732654,219.40732040209696 151.4273422562983,220.18193280877313 150.68393881455995,220.58473122742726 149.90956022951286,220.83260716620134 148.88738049729727,220.30587078613462 148.5156787764281,220.11996381927747 147.4005736138206,219.5002738952171 146.192543021054,218.60172341094585 145.38718929258175,218.19892488169717 144.64378585095983,217.76514182507526 143.68355640536174,217.51726578100352 143.06405353732407,217.2384052213165 142.47552581259515,217.26938972843345 141.88699808809906,217.02151366736507 141.05066921608523,216.99052915908396 140.4931166348979,216.74265308841132 139.74971319315955,215.62721066520317 139.0992351816967,215.25539648579434 138.23193116637412,214.72865969879786 137.33365200774278,214.44979903125204 136.00172084150836,214.5117680694093 134.7627151052002,214.85259776975727 134.3290630975971,214.976535838563 133.67858508613426,214.20192287338432 132.7803059273865,214.69767518073786 131.57227533473633,214.91456680448027 131.35544933087658,214.75964421668323 130.70497131941374,215.2863810014096 130.5500956022879,216.0919783624704 130.983747609891,216.5567460298771 132.00592734233942,216.6496995597263 132.22275334608275,216.4018234774121 131.72715105174575,216.24690092162928 131.13862332701683,215.81311774766073 130.6430210325634,215.75114872067934 129.00133843219373,216.4018234774121 128.22695984726306,217.1454516989761 127.82428298285231,217.4862812748761 127.29770554497372,218.60172341094585 126.83307839382906,218.60172341094585 125.90382409188896,219.4692893976462 124.72676864243113,220.33685528009664 123.92141491407529,221.35934350790922 123.08508604217786,222.10297121899202 122.43460803059861,223.06349023268558 121.84608030610252,223.68317985115573 121.1646271510981,224.39582284679636 120.42122370947618,225.3873260282562 119.80172084143851,225.8211086273659 118.93441682611592,226.71965821419144 118.09808795410208,227.33934751938796 117.63346080319025,227.6182076894911 117.26175908232108,227.9590367715573 116.27055449341424,228.54774151201127 115.31032504793257,229.41530630527996 114.35009560245089,229.94204202195397 112.77036328881513,230.59271550137782 111.65525812620763,231.1504355801153 109.98260038241278,231.86307784030214 108.27896749530919,232.85457999887876 106.7302103250986,234.18691081070574 106.38948374777101,234.62069288268685 105.92485659662634,235.6741635207436 105.39827915886417,236.54172746068798 105.18145315500442,237.0374782368308 104.99560229456984,237.78110433759866 104.84072657756042,238.55571477819467 104.68585086043458,239.29934072337346 104.68585086043458,240.87954560376238 104.5,241.778093323519" stroke="#4DD2FF" stroke-dasharray="none" stroke-linecap="round" stroke-linejoin="round" stroke-width="0.5"><title>2026-06-11 10.2km</title><desc>9223370255717407907</desc></polyline></svg>