<?xml version="1.0" encoding="utf-8" ?>
<svg baseProfile="full" height="300mm" version="1.1" viewBox="0,0,200,300" width="200mm" xmlns="http://www.w3.org/2000/svg" xmlns:ev="http://www.w3.org/2001/xml-events" xmlns:xlink="http://www.w3.org/1999/xlink"><defs /><rect fill="#222222" height="300" width="200" x="0" y="0" /><text fill="#FFFFFF" style="font-size:12px; font-family:Arial; font-weight:bold;" x="10" y="20">Over 10km Runs</text><text fill="#FFFFFF" style="font-size:4px; font-family:Arial" x="10" y="280">Runner</text><text fill="#FFFFFF" style="font-size:9px; font-family:Arial" x="10" y="290">Yanfu</text><text fill="#FFFFFF" style="font-size:4px; font-family:Arial" x="65" y="280">SPECIAL TRACKS</text><rect fill="yellow" height="2.6" width="2.6" x="65" y="283" /><text fill="#FFFFFF" style="font-size:3px; font-family:Arial" x="70" y="285.5">Over 20.0 km</text><rect fill="red" height="2.6" width="2.6" x="65" y="287" /><text fill="#FFFFFF" style="font-size:3px; font-family:Arial" x="70" y="289.5">Over 40.0 km</text><text fill="#FFFFFF" style="font-size:4px; font-family:Arial" x="120" y="280">STATISTICS</text><text fill="#FFFFFF" style="font-size:3px; font-family:Arial" x="120" y="285">Number: 2</text><text fill="#FFFFFF" style="font-size:3px; font-family:Arial" x="120" y="290">Weekly: 1.0</text><text fill="#FFFFFF" style="font-size:3px; font-family:Arial" x="141" y="285">Total: 20.3 km</text><text fill="#FFFFFF" style="font-size:3px; font-family:Arial" x="141" y="290">Avg: 10.1 km</text><text fill="#FFFFFF" style="font-size:3px; font-family:Arial" x="167" y="285">Min: 10.1 km</text><text fill="#FFFFFF" style="font-size:3px; font-family:Arial" x="167" y="290">Max: 10.2 km</text><polyline fill="none" opacity="1" points="52.587728740414605,104.03224051196594 52.85898815933615,103.56708551797783 52.781485468149185,101.90027992747491 52.6652314318344,101.74522822903236 53.16899892361835,99.49697830493096 53.517761033494025,97.79140902566724 53.82777179754339,96.51223185611889 54.56404736288823,96.04707647685427 54.60279870824888,95.58192107389914 54.7190527447965,95.23305450601038 55.22282023681328,94.80666201584972 55.26157158240676,93.83758810028667 56.307857911800966,93.17861777852522 57.00538213131949,91.78315105685033 57.780409041792154,90.11634330218658 59.21420882665552,89.14726888533914 60.80301399365999,88.48829822265543 61.849300323054194,87.98437944828765 62.50807319697924,87.75180154305417 63.78686759970151,87.05406779126497 64.48439181922004,86.74396388436435 66.49946178682148,85.58107413892867 67.15823466097936,85.270970181562 68.5920344456099,84.22436924715294 70.45209903130308,82.86766415217426 71.73089343379252,81.74353691935539 72.54467168985866,80.77446160669206 72.8159311087802,80.38683145248797 73.59095801925287,79.76662317139562 75.14101184066385,78.17733925679931 76.07104413351044,76.58805506303906 76.84607104421593,75.92908348614583 77.11733046290465,75.61897919798503 77.81485468242317,74.53361410589423 78.74488697526976,73.75835324596846 80.10118406894617,72.82804012630368 80.7987082884647,72.09154217212927 81.88374596345238,71.47133332188241 82.65877287415788,69.80452182592126 84.05382131319493,69.33936507446924 85.6426264801994,69.37812813807977 86.84391819150187,69.3006020108005 87.92895586648956,69.3006020108005 89.01399354147725,69.88204794889316 90.64155005384237,69.95957407110836 91.72658772883005,69.64946957817301 92.11410118406639,69.494417327689 92.54036598512903,69.494417327689 94.78794402582571,70.19215243385406 96.26049515604973,70.1533893738524 97.11302475770935,69.88204794889316 97.53928955853917,70.46349384950008 98.54682454257272,70.81236137187807 99.47685683541931,71.35504415770993 101.37567276647314,71.78143775230274 102.61571582360193,72.44040963158477 103.70075349835679,72.98309231956955 104.35952637251467,73.68082715634955 105.05705059203319,74.61114018817898 106.18083961238153,75.8903204506496 107.22712594177574,76.89815931796329 108.19590958021581,77.78970899136038 109.39720129175112,78.40991740813479 110.3272335845977,79.14641484763706 110.98600645852275,78.64249555335846 111.95479009696282,78.02228715270758 112.45855758874677,76.66558112768689 112.57481162529439,76.006609556498 113.42734122718684,74.18474672723096 114.24111948325299,71.82020080531947 114.62863293872215,70.42473079060437 114.89989235741086,68.91297136468347 114.97739504859783,66.66471328871557 114.70613562967628,64.26140231249155 114.55113024753518,62.47830020671245 114.78363832086325,61.54798592464067 115.63616792252287,60.346329834952485 116.72120559751056,60.346329834952485 117.88374596345238,60.57890844542999 119.12378902058117,60.695197748427745 121.37136706151068,61.58674902172061 122.6889128095936,62.09066926757805 123.61894510220736,61.780564504209906 124.35522066731937,61.81932760012569 124.2002152854111,62.943457311776 125.40150699671358,63.95129762374563 127.14531754562631,65.03666398767382 127.80409042001702,65.77316251734737 128.30785791180097,66.3158456061501 128.88912809477188,67.12987017800333 129.6254036598839,68.40905149979517 129.93541442416608,69.57194345322205 129.6254036598839,70.19215243385406 129.12163616809994,70.85112442908576 129.50914962333627,71.78143775230274 130.09041980630718,72.7117509796517 130.59418729809113,74.88248147116974 130.28417653404176,75.54145312431501 130.7879440258257,76.7043441599235 131.75672766426578,77.55713082419243 133.15177610353567,78.52620648156153 133.6555435953196,78.9913627601345 134.275565123884,79.37899297405966 135.28310010768473,79.80538619018625 137.22066738433205,80.27054240310099 138.9257265876513,80.65817256213631 140.04951560823247,81.00703969120514 141.59956942964345,81.54972186509985 142.8396124865394,82.16993002413074 144.11840688926168,83.17776819173014 145.0096878365148,83.87550224212464 145.93972012912855,84.88334021996707 146.28848223900422,85.65860012656776 146.6372443488799,86.2012820217642 147.3735199139919,86.82148986204993 147.8772874060087,87.51922363170888 148.3035522068385,88.06190541543765 149.34983853599988,88.91469100990798 150.82238966645673,90.11634330218658 151.98493003239855,91.20170652604429 152.87621097965166,92.28706962009892 153.263724434888,91.97696589212865 153.49623250821605,91.16294355603168 153.96124865463935,90.50397303991485 153.49623250821605,89.88376545161009 151.94617868680507,88.87592803000007 151.32615715824068,88.25572033028584 150.2798708290793,87.40293467382435 149.8536060282495,86.89901583921164 149.27233584504575,86.00746706291102 148.34230355219916,85.19344419048866 147.79978471482173,85.03839220659574 147.25726587721147,83.72045023564715 146.13347685686313,82.28621904918691 145.08719052746892,81.43343283055583 144.505920344498,80.81322462117532 143.96340150712058,80.34806843625847 142.45209903130308,79.80538619018625 142.06458557583392,79.4177559944801 140.82454251893796,78.95259973785141 138.84822389669716,78.95259973785141 138.07319698599167,78.79754764697282 137.60818083956838,78.60373252962017 135.86437029065564,78.21610228240024 134.50807319721207,77.71218293631682 133.11302475770935,76.89815931796329 132.88051668461412,76.51052899769275 132.80301399366,74.61114018817898 133.15177610353567,73.3707227911218 133.46178686758503,72.51793573185569 133.3842841766309,71.93648996343836 133.42303552222438,69.99833713192493 133.0742734123487,68.56410376884742 131.95048439200036,66.85852866224013 130.7879440258257,65.77316251734737 129.31539289583452,64.7265593255288 128.26910656620748,64.02882379689254 126.56404736288823,62.82716803782387 125.75026910658926,62.168195456732064 124.23896663100459,61.70303831167985 123.50269106565975,61.39293353498215 123.03767491923645,61.35417043714551 122.41765339067206,60.77272394951433 122.26264800876379,60.346329834952485 120.82884822390042,59.68735707254382 119.78256189450622,59.377252226579 118.42626480082981,58.87333182897419 116.7987082884647,58.87333182897419 115.71367061370984,58.67951628396986 114.00861141015776,58.67951628396986 112.41980624338612,58.71827939333161 111.68353067804128,58.98962115403265 110.86975242220797,59.68735707254382 110.83100107638165,60.81148704997031 111.64477933268063,61.97437998256646 112.65231431648135,63.60242983617354 112.96232508076355,64.26140231249155 112.92357373517007,64.80408549204003 113.27233584504575,66.3158456061501 113.31108719063923,66.78100251330761 113.31108719063923,67.28492246911628 113.23358449945226,68.83544523338787 113.15608180849813,70.54101996676764 112.10979547910392,72.90556622331496 111.87728740577586,73.3707227911218 110.59849300328642,74.57237714715302 109.55220667412505,74.68866626993986 108.15715823462233,74.10722064116271 106.64585575903766,73.17690755741205 106.06458557583392,72.6342248810688 104.94079655548558,71.97525301593123 104.24327233573422,71.66514859208837 103.0807319697924,71.16122888075188 102.38320775027387,70.77359831443755 101.64693218516186,70.57978302513948 100.75565123790875,70.2309154937393 99.98062432720326,69.92081101005897 98.7405812703073,69.92081101005897 98.00430570496246,69.72699570236728 96.9192680302076,69.37812813807977 96.0279870829545,68.13771002250724 95.36921420879662,67.28492246911628 94.63293864391744,66.81976558780298 93.4316469321493,66.62595021357993 92.23035522084683,66.43213483522413 91.06781485467218,66.93605481035775 89.82777179754339,67.36244861368323 89.24650161480531,67.28492246911628 88.39397201291285,67.20739632379264 87.42518837470561,67.1686332510435 86.49515608185902,67.43997475749347 86.10764262662269,67.24615939654177 85.52637244341895,67.5562639720738 85.06135629699565,68.44781456736382 85.41011840687133,69.18431281874655 86.72766415495425,69.41689120139927 87.38643702911213,69.26183894701535 86.45640473649837,68.95173442998203 85.75888051674701,68.56410376884742 84.17007534997538,68.99049749522237 83.08503767498769,69.26183894701535 82.65877287415788,69.76575876428979 81.76749192690477,71.19999193656258 81.22497308929451,71.82020080531947 80.48869752441533,71.93648996343836 79.55866523156874,72.86680317501305 78.35737352003343,73.48701192933368 77.58234660932794,74.30103585496545 76.88482238980941,75.19258578447625 76.30355220660567,75.85155741503695 75.21851453185081,77.32455265091266 74.21097954805009,78.60373252962017 73.78471474698745,78.95259973785141 73.00968783628196,79.65033411391778 71.88589881593361,80.69693557720166 71.42088266951032,81.08456571801798 70.68460710439831,81.89858895976795 69.83207750273868,82.67384912195848 69.09580193762667,83.17776819173014 67.46824542526156,84.26313224685146 66.49946178682148,85.07715520291822 64.32938643707894,86.39509697642643 62.46932185161859,87.32540870108642 60.60925726592541,87.90685348055558 59.79547900962643,88.33324629510753 58.2066738428548,89.06974292750238 57.27664155000821,89.88376545161009 56.19160387502052,90.81407681817655 55.26157158240676,92.20954368903767 54.990312163718045,92.67469926492777 54.447793326107785,93.33366962336004 53.78902045218274,94.61284724110737 53.28525296016596,96.00831352756359 53.01399354147725,98.21780137566384 52.975242195883766,99.38068950071465 52.975242195883766,100.6986291956855 53.324004305759445,101.08625848137308 52.587728740414605,102.21038331626914 52.70398277719505,103.101930500241 52.47147470409982,103.76090010174084 52.393972012912855,105.07883916137507 51.851453175535426,106.00914897077018 51.463939720066264,106.7068812653888 51.58019375684671,108.14110859163338 51.34768568351865,108.87760361714754 51.115177610423416,109.65286147437291 50.96017222828232,110.46688215341419 50.30139935412444,111.39719141169917 50.14639397198334,112.79265512077836 49.4876210980583,113.41286114504328 48.79009687853977,113.99430425441824 48.36383207770996,115.00213888927829 47.89881593128666,116.63017921790015 47.70505920355208,117.13409640343161 46.73627556511201,119.18852771783713 46.0,121.3980099351611" stroke="#4DD2FF" stroke-dasharray="none" stroke-linecap="round" stroke-linejoin="round" stroke-width="0.5"><title>2026-06-16 10.1km</title><desc>9223370255286294807</desc></polyline><polyline fill="none" opacity="1" points="53.12258064490743,222.91359658678994 53.54838709672913,221.86812303576153 53.39354838686995,221.24858309689444 53.31612903205678,220.31927310919855 53.50967741920613,218.6929804016836 53.896774193504825,217.2990149917896 54.59354838705622,216.17609825567342 54.70967741915956,215.47911538393237 55.019354838645086,214.89829628326697 55.251612903084606,214.24003459088271 56.49032258056104,213.1945600399049 57.26451612892561,211.80059378419537 57.72903225780465,210.5615124879405 59.1999999997206,209.59348010731628 60.787096774205565,208.78033282759134 62.25806451588869,208.16079199395608 63.07096774177626,207.6574150354718 65.2387096772436,206.80554627272068 65.974193548318,206.26344792736927 68.10322580626234,205.0630871898611 69.49677419336513,203.8627262932132 71.27741935453378,202.50747992802644 72.94193548359908,200.80374135216698 74.60645161266439,199.02255977038294 75.72903225780465,197.58986998244654 76.46451612887904,196.31206538534025 77.62580645130947,195.42147419566754 78.67096774186939,194.4534401941346 79.52258064504713,193.7177342835348 80.49032258032821,192.67225736007094 81.2258064514026,192.36248639662517 81.922580644954,191.85910855815746 81.922580644954,191.00723830610514 82.46451612887904,190.46513901290018 84.20645161275752,189.57454724627314 85.98709677392617,189.65199001209112 87.6129032257013,189.76815415959572 89.00645161280409,189.96176106872736 90.3225806450937,190.0392038311693 91.71612903196365,190.0392038311693 92.64516129018739,189.8068755416316 94.3096774192527,190.31025349459378 95.27741935453378,190.38769625406712 97.05806451593526,190.77491004159674 97.5612903223373,191.12340243614744 98.2967741934117,191.00723830610514 99.53548387088813,191.5493375667138 100.42580645135604,191.82038718479453 101.12258064490743,192.05271542241098 102.63225806434639,192.74970009934623 103.98709677392617,193.40796335588675 104.72258064500056,194.10494792816462 105.07096774177626,194.76321108592674 105.69032258051448,195.15042468567844 106.19354838691652,195.6150809834944 106.54193548369221,196.11845861241454 107.62580645130947,197.12521378631936 108.74838709668256,198.36429692310048 110.68387096747756,199.4097731875372 111.72903225780465,198.71278902469203 112.46451612887904,197.04777108458802 113.35483870934695,194.76321108592674 114.20645161275752,192.710978729825 114.86451612878591,190.27153211453697 115.09677419345826,189.07116925233277 115.05806451593526,187.56103510188404 115.13548387074843,186.16706489236094 114.90322580630891,184.6569302555872 114.86451612878591,183.65017369034467 114.63225806434639,183.185516776226 114.78709677397273,182.33364570472622 115.05806451593526,181.28816746140365 115.909677419113,180.66862474137451 117.34193548373878,180.70734616270056 119.08387096738443,181.01711752667325 121.29032258060761,181.90771013876656 123.30322580621578,182.37236711889273 123.72903225780465,182.68213842547266 124.46451612887904,183.41784523631213 126.43870967742987,184.88925867766375 127.32903225813061,185.35391550400527 127.87096774182282,186.128343494609 128.8774193546269,187.17382117640227 129.88387096766382,189.07116925233277 129.99999999976717,189.76815415959572 129.88387096766382,190.9297955519869 129.49677419336513,191.43317344214302 130.42580645135604,193.29179925529752 130.69677419331856,194.60832564131124 130.73548387084156,195.53763826889917 131.2774193547666,196.8541643274948 132.01290322560817,198.01580480806297 132.70967741915956,198.48046095843893 133.63870967715047,199.17744513932848 134.25806451612152,199.4097731875372 136.3483870967757,200.41652799467556 138.012903225841,200.80374135216698 139.87096774182282,201.34584002476186 140.56774193537422,201.38456135732122 141.6129032257013,201.81049600394908 142.81290322565474,202.4687586002401 143.78064516116865,203.12702114874264 144.9419354838319,203.8627262932132 145.67741935467348,204.48226742108818 146.41290322574787,205.99239874252817 146.80000000004657,206.5344971041195 147.2645161289256,207.1153167411685 148.34838709654287,208.2382346004597 149.50967741943896,209.09010322846007 150.7096774193924,210.17429954808904 151.98709677392617,211.33593831793405 153.0322580644861,212.5750195083092 153.30322580621578,212.1490853682626 153.2258064514026,211.80059378419537 154.0,211.02616799389943 153.65161290299147,210.4066273139906 152.41290322551504,209.36115232057637 150.78709677397273,207.81230025651166 150.05161290313117,207.23148066410795 149.12258064490743,206.0698413675418 147.922580644954,205.2566937712254 146.83870967733674,203.51423439005157 145.987096774159,202.35259461624082 144.6322580643464,201.15223335975315 144.16774193523452,200.68757734668907 142.6580645160284,199.64210122998338 141.961290322477,199.4097731875372 140.2967741934117,198.75151036848547 139.48387096752413,198.7902317122207 138.16774193523452,198.98383842781186 136.8516129029449,198.7902317122207 135.6129032257013,198.28685423207935 134.72258064500056,197.7834767238237 132.98064516112208,196.38950809341623 132.82580645149574,195.07298196700867 133.2516129030846,193.29179925529752 133.52258064504713,191.82038718479453 133.48387096775696,190.1940893541323 132.67096774163656,187.98697040067054 131.54838709672913,186.6317216528696 130.15483870962635,185.47007970686536 129.76774193532765,185.16030849597882 129.14838709658943,184.69565165956737 128.2580645158887,184.19227339333156 127.09677419345826,183.2629595969338 125.896774193272,182.37236711889273 124.54193548369221,181.9464315546793 123.69032258051448,181.28816746140365 123.38064516126178,180.82351042545633 122.72258064500056,180.9009532664204 121.48387096775696,180.08780340274097 119.66451612883247,179.5457034528372 118.27096774196252,179.11976775503717 116.87741935462691,179.08104632690083 115.44516129000112,178.9648820417351 113.935483870795,178.9261606130167 112.23225806443952,179.0036034703371 111.49677419336513,179.19721061066957 110.87741935485974,180.66862474137451 111.5741935481783,181.8689887227374 112.50322580640204,183.185516776226 112.85161290317774,184.1535519870231 112.96774193528108,185.00542288646102 113.31612903228961,186.128343494609 113.47096774168313,186.6317216528696 113.39354838686995,187.1350997830159 113.39354838686995,187.87080623023212 113.16129032243043,189.69071139470907 113.08387096761726,190.7361886636354 112.92903225775808,191.47189481725218 112.61935483850539,192.16887953900732 111.99999999976717,193.1369137855363 111.41935483855195,194.10494792816462 110.49032258032821,194.60832564131124 109.52258064504713,194.91809652780648 108.24516129028052,194.25983338133665 107.78064516116865,194.02750520053087 106.38709677406587,193.2530778880464 104.87741935462691,192.13015816698316 103.87096774159,191.62678031559335 102.94193548383191,191.0846810596413 101.74193548364565,190.77491004159674 100.96774193528108,190.42641763365828 100.23225806420669,190.46513901290018 99.49677419336513,190.15536797366804 98.45161290303804,190.11664659297094 97.75483870971948,189.8068755416316 96.82580645149574,188.4129056794336 96.01290322560817,187.94824901077664 94.92903225775808,187.28998535580467 93.80645161285065,186.94149281311547 92.14193548378535,187.01893560157623 90.59354838682339,187.4448709260323 90.05161290313117,187.59975649346597 89.2387096772436,186.6317216528696 88.11612903210334,187.25126396288397 86.60645161289722,187.52231371006928 86.33548387070186,187.32870674855076 85.52258064504713,187.98697040067054 85.32903225789778,188.99372648150893 85.87096774159,189.57454724627314 87.14838709658943,189.69071139470907 87.41935483855195,189.38094032887602 86.79999999981374,189.18733340728795 86.06451612873934,188.6452340047108 85.44516129000112,188.56779123021988 83.39354838686995,189.38094032887602 82.42580645158887,190.31025349459378 81.922580644954,190.7361886636354 81.2645161289256,192.13015816698316 80.68387096747756,192.13015816698316 79.52258064504713,193.21435652073706 78.05161290289834,194.2985547442222 77.04516129009426,195.576359626255 75.99999999976717,196.505672154075 75.1870967738796,197.7060340277967 74.45161290303804,198.48046095843893 73.5999999998603,199.37105184671236 72.67096774186939,200.61013467557495 71.896774193272,201.15223335975315 70.81290322565474,202.27515195932938 69.76774193532765,203.04957849840866 69.1870967738796,203.39807041949825 68.72258064500056,203.82400497130584 67.48387096752413,204.55971005908214 66.28387096757069,205.64390692143934 65.08387096761726,206.30216923879925 63.10967741906643,207.1153167411685 61.716129031963646,207.81230025651166 59.62580645130947,208.70289022562793 57.49677419336513,209.9419717763085 55.5612903223373,211.6069873427623 55.13548387074843,212.1490853682626 54.554838709533215,213.46560900914483 53.896774193504825,214.54980480502127 53.62580645130947,215.169345201517 53.39354838686995,216.09865571692353 53.1999999997206,217.06668740254827 53.006451612571254,217.99599772354122 53.006451612571254,219.97078183927806 52.774193548131734,221.093698105542 52.92903225799091,222.41022044769488 53.08387096761726,223.30080898245797 52.61935483850539,224.07523372437572 52.580645160982385,225.19814948283602 52.38709677406587,225.97257406287827 51.5741935481783,227.21165325364564 51.651612902991474,228.48945349204587 51.10967741929926,229.61236870475113 50.335483870701864,231.27738066122402 50.141935483552516,232.8649499171297 49.677419354673475,233.32960428105434 49.019354838645086,233.98786458926043 47.935483870795,235.1107791227405 47.664516129065305,237.20172305725282 47.238709677243605,238.90545479668071 46.19354838691652,240.64790738228476 46.69677419331856,240.26069572544657 47.27741935453378,239.21522416966036 47.703225806122646,238.44080071756616" stroke="#4DD2FF" stroke-dasharray="none" stroke-linecap="round" stroke-linejoin="round" stroke-width="0.5"><title>2026-06-11 10.2km</title><desc>9223370255717407907</desc></polyline></svg>