<?xml version="1.0" encoding="utf-8" ?>
<svg baseProfile="full" height="300mm" version="1.1" viewBox="0,0,200,300" width="200mm" xmlns="http://www.w3.org/2000/svg" xmlns:ev="http://www.w3.org/2001/xml-events" xmlns:xlink="http://www.w3.org/1999/xlink"><defs /><rect fill="#222222" height="300" width="200" x="0" y="0" /><text fill="#FFFFFF" style="font-size:12px; font-family:Arial; font-weight:bold;" x="10" y="20">Over 10km Runs</text><text fill="#FFFFFF" style="font-size:4px; font-family:Arial" x="10" y="280">Runner</text><text fill="#FFFFFF" style="font-size:9px; font-family:Arial" x="10" y="290">Yanfu</text><text fill="#FFFFFF" style="font-size:4px; font-family:Arial" x="65" y="280">SPECIAL TRACKS</text><rect fill="yellow" height="2.6" width="2.6" x="65" y="283" /><text fill="#FFFFFF" style="font-size:3px; font-family:Arial" x="70" y="285.5">Over 20.0 km</text><rect fill="red" height="2.6" width="2.6" x="65" y="287" /><text fill="#FFFFFF" style="font-size:3px; font-family:Arial" x="70" y="289.5">Over 40.0 km</text><text fill="#FFFFFF" style="font-size:4px; font-family:Arial" x="120" y="280">STATISTICS</text><text fill="#FFFFFF" style="font-size:3px; font-family:Arial" x="120" y="285">Number: 3</text><text fill="#FFFFFF" style="font-size:3px; font-family:Arial" x="120" y="290">Weekly: 1.5</text><text fill="#FFFFFF" style="font-size:3px; font-family:Arial" x="141" y="285">Total: 30.4 km</text><text fill="#FFFFFF" style="font-size:3px; font-family:Arial" x="141" y="290">Avg: 10.1 km</text><text fill="#FFFFFF" style="font-size:3px; font-family:Arial" x="167" y="285">Min: 10.1 km</text><text fill="#FFFFFF" style="font-size:3px; font-family:Arial" x="167" y="290">Max: 10.2 km</text><polyline fill="none" opacity="1" points="14.5,99.30150011382648 14.905144694494084,97.79623076409916 15.512861736235209,96.60938354220707 15.831189710530452,95.65411611579475 16.323151125223376,94.72779605904361 16.641479099635035,93.56989581076778 16.72829581995029,93.22252569787088 17.220257234643213,92.32515282396344 18.03054662386421,91.77515003635199 18.20418006426189,90.58830176401534 18.60932475887239,89.95145626412705 18.927652733167633,89.60408596636262 19.043408359983005,88.85145026017562 19.24598070734646,87.40407366788713 19.159163987147622,86.99880816671066 19.766881029005162,86.0435393898515 19.680064308573492,84.7987950242532 19.940514469402842,84.13300143266679 19.853697749087587,83.06194203961059 20.287781350431032,82.59878116863547 20.374598070629872,81.46982641308568 20.374598070629872,80.48560929342057 20.57717041799333,79.44349689333467 21.5032154340297,78.34348918605247 21.618971060961485,78.11190859330236 21.70578778127674,77.7355901132396 21.763665594742633,76.98295309056994 22.342443729867227,76.46189664120902 22.950160771608353,75.3329408633872 23.58681672019884,74.2039848974382 24.339228295721114,73.71187582763378 25.294212218606845,73.19081912661204 26.799035369651392,72.55397199295112 28.159163987147622,71.80133439425845 29.056270096451044,71.42501556340721 29.692926044925116,70.99080150193186 31.22668810293544,70.12237329524942 32.065916398656555,69.48552587276208 33.020900321542285,68.84867839037906 33.7443729902152,68.15393561383826 34.728295819833875,67.14076893674792 35.30707395484205,66.47497360908892 35.79903536965139,65.95391635032138 36.66720257233828,64.96969697426539 36.956591639784165,64.56443013067474 37.709003215422854,63.406524729158264 38.92443729902152,62.21967148655676 39.3295819935156,61.90124741036561 39.93729903525673,61.52492802820052 40.631832797429524,60.859132146812044 41.47106109315064,60.395969755831175 41.58681672019884,59.67227845618618 42.22347266867291,59.180168328108266 42.9758842443116,58.71700582181802 44.01768488739617,58.68805816414533 44.39389067515731,58.71700582181802 45.66720257233828,58.71700582181802 46.30385852092877,58.48542455674033 46.7379421221558,58.5722675320867 47.08520900318399,59.035430048330454 47.54823151126038,59.1222730166337 48.04019292606972,59.09332536061993 48.532154340762645,58.919639422209 49.25562700955197,58.7459534794325 50.64469453366473,59.06437770451885 51.512861736351624,59.23806363917538 52.6704180064844,59.06437770451885 52.20739549829159,59.267011294548865 54.34887459804304,60.07754559352179 55.53536977490876,60.395969755831175 56.40353697759565,60.80123684971477 57.96623794210609,61.61177096440224 58.40032154333312,61.9880903417361 58.921221864875406,62.48020026503946 59.52893890673295,63.117048347747186 59.84726688102819,63.464420003962005 60.04983922815882,63.869686913560145 60.83118971064687,64.39074433303904 61.43890675238799,65.23022564660641 62.07556270097848,65.92496872370248 62.596463022520766,66.15654973356868 63.638263665605336,64.94074934339733 64.21704180061352,64.0433727245545 64.7379421221558,63.001257791765966 65.43247588421218,61.55387567373691 65.80868167197332,60.309126803971594 66.18488745973445,59.035430048330454 66.3295819935156,57.99331434207852 66.30064308678266,57.47225642859121 66.30064308678266,56.34329747775337 66.2138263664674,54.838018582522636 65.92443729902152,54.05643133117701 66.15594855300151,53.043262537103146 66.59003215434495,52.26167507751961 67.74758842436131,52.030093590554316 68.96302250795998,52.23272739214008 70.75723472668324,52.811681077088 71.56752411578782,53.188000945578096 72.69614147907123,53.50642543329741 73.15916398714762,54.11432668622001 74.54823151126038,55.04065229950356 75.82154340832494,56.0248731241154 76.34244372986723,56.574878816405544 77.2684887459036,58.10910498409066 77.23954983917065,59.267011294548865 76.86334405140951,59.87491202788078 76.92122186499182,60.19333619976533 77.06591639865655,60.830184498336166 77.5,61.61177096440224 77.90514469449408,62.538095547788544 77.78938906744588,63.34862945388886 77.70257234713063,64.21705853109597 78.48392282961868,64.88285408122465 79.78617363341618,65.51970193738816 80.27813504822552,65.7802305885416 81.05948553059716,66.38813073543133 82.7379421221558,66.85129271540791 83.31672025716398,67.05392607161775 84.24276527331676,67.28550704277586 85.11093247588724,67.45919276587665 86.06591639865655,67.80656419880688 87.39710610930342,68.55920224214788 87.97588424442802,69.05131168669323 88.46784565923735,69.253944977012 88.95980707393028,69.6013163177413 89.53858520905487,70.55658741245861 89.77009646303486,71.48291076952592 90.05948553048074,71.80133439425845 90.78295819938648,72.43818159864168 91.82475884235464,73.21976672211895 92.22990353684872,73.65398064063629 92.72186495165806,73.97240416315617 93.87942122179084,74.92767464081408 94.34244372986723,75.62241672180244 94.74758842447773,75.825049815292 94.77652733121067,75.44873120824923 95.5,74.66714634213713 94.57395498396363,73.68292823422235 93.64790996781085,72.90134316420881 93.12700964615215,72.55397199295112 92.75080385850742,72.14870560404961 91.76688102900516,71.19343473410117 91.4485530545935,70.84606347521185 90.84083601285238,70.46974459133344 90.72508038580418,70.06447807748918 90.0305466237478,69.02236407337477 90.00160771713126,68.73288793259417 88.81511254014913,68.03814514409169 87.88906752411276,67.14076893674792 86.96302250795998,66.47497360908892 86.35530546621885,65.83812584300176 85.11093247588724,65.72233533364488 84.67684887466021,65.72233533364488 83.57717041799333,65.80917821580078 82.82475884235464,65.69338770597824 81.20418006426189,65.08548749657348 80.1623794210609,64.99864460504614 79.90192926034797,64.56443013067474 79.3810289389221,63.14599598653149 79.64147909975145,62.45125262346119 80.07556270097848,61.26439921287238 79.98874598077964,59.9617549853574 79.98874598077964,58.8038487941958 79.67041800625157,57.84857603680575 79.06270096462686,57.038041469902964 77.76045016071294,55.90908244633465 76.68971061089542,55.06959997289232 75.5032154340297,54.432751130196266 74.95337620587088,53.88274526305031 74.20096463011578,53.274843989202054 73.30385852081235,53.043262537103146 72.29099678457715,52.493256556481356 72.00160771689843,52.26167507751961 71.6832797427196,51.827459782973165 70.67041800636798,51.56693059284589 69.74437299033161,51.33534908198635 68.99196141480934,51.13271525350865 68.12379421212245,50.8432383450272 66.93729903537314,50.8432383450272 65.63504823145922,50.7853429618699 64.68006430857349,50.69849988617352 64.13022508041468,50.81429065350676 63.49356913182419,50.95902910991572 63.20418006426189,51.42219214950455 63.23311897111125,52.00114590418525 63.40675241150893,52.58009960906929 63.69614147907123,53.1011579008773 64.21704180061352,53.76695454842411 64.5643086816417,54.2011697179114 64.82475884247106,55.06959997289232 64.853697749204,55.88013477661298 64.7379421221558,56.51698348249192 64.94051446940284,57.64594240419683 64.853697749204,59.1222730166337 64.41961414774414,60.453865056391805 63.84083601273596,61.87229976634262 62.8569131832337,62.653886111686006 61.95980707393028,62.76967667374993 61.00482315104455,62.27756677151774 60.31028938898817,61.87229976634262 59.90514469449408,61.66966625460191 59.09485530550592,60.917027443501865 58.45819935691543,60.59860330581432 57.82154340820853,60.280179153050995 57.04019292606972,59.932807333010715 56.663987138308585,59.87491202788078 56.17202572338283,59.64333080261713 55.564308681641705,59.52754018700216 54.98553054663353,58.919639422209 54.262057877727784,58.919639422209 53.94372990343254,58.919639422209 52.17845659155864,57.61699474195484 51.8601286172634,57.26962278463179 51.020900321542285,56.6327741498244 49.660771704046056,56.25645447373972 48.937299035373144,56.54593114956515 48.184887459734455,57.009093804925214 47.22990353696514,57.298570448416285 46.68006430857349,57.38541343904217 45.84083601285238,56.98014613991836 45.23311897099484,57.18277979255072 44.53858520893846,57.26962278463179 44.10450160771143,57.50120409147348 43.90192926034797,57.9354190203012 44.01768488739617,58.48542455674033 44.30707395495847,58.71700582181802 45.464630224974826,58.919639422209 45.638263665605336,58.68805816414533 44.9726688102819,58.39858158031711 43.87299035373144,58.34068626203225 42.368167202570476,58.60121519031236 41.6157556270482,59.29595894968952 41.268488745903596,60.25123150210129 40.805466237827204,60.62755095533794 39.82154340832494,61.235451566113625 39.35852090024855,61.55387567373691 38.02733118960168,62.74072903339402 37.07234726683237,63.75389637044282 36.49356913182419,64.56443013067474 35.88585208996665,65.2881209057814 35.45176848873962,65.66444007813698 34.95980707381386,66.3012878606678 34.52572347270325,66.85129271540791 33.339228295721114,67.80656419880688 32.12379421223886,69.05131168669323 31.22668810293544,69.80394959152909 29.721864951774478,70.58553501937422 28.795819935621694,71.25132994222804 28.13022508029826,71.5697535777872 27.233118970994838,71.97502000140958 26.364951768540777,72.23554840378347 25.40996784553863,72.78555277577834 24.07877813500818,73.48029507658794 23.64469453378115,73.59608545308583 22.89228295814246,74.26188007972087 22.081993569037877,74.78293669832055 21.763665594742633,75.3618884497846 21.155948553117923,76.4908442227752 20.86655948543921,76.80926761188312 20.345659163896926,78.14085616788361 20.17202572338283,79.50139203085564 20.05627009633463,80.16718607698567 19.96945337613579,81.32508861034876 19.795819935621694,82.30930560824345 19.795819935621694,83.6698406348005 19.70900321530644,84.16194898149115 19.506430868175812,84.88563766184961" stroke="#4DD2FF" stroke-dasharray="none" stroke-linecap="round" stroke-linejoin="round" stroke-width="0.5"><title>2026-06-20 10.1km</title><desc>9223370254938036107</desc></polyline><polyline fill="none" opacity="1" points="108.24120234616566,84.56375042797299 108.50843108515255,83.25690798443975 108.74596774205565,82.27677599078743 109.31011730222963,81.92036432237364 109.33980938431341,81.56395263574086 109.42888563056476,81.2966438588337 109.81488269811962,80.96993311739061 109.8445747802034,80.22740864817752 110.64626099728048,79.72249196382472 111.18071847525425,78.65325651108287 111.7745601173956,77.37611394905252 112.87316715542693,76.63358909572707 114.09054252214264,76.1286721501383 114.8922287391033,75.74255916691618 115.39699413499329,75.56435316754505 116.37683284468949,75.0297351416084 116.91129032277968,74.79212711693253 118.45527859253343,73.90109695179854 118.96004398842342,73.66348888847278 120.05865102657117,72.86156161455438 121.48387096787337,71.82202612160472 122.46370967756957,70.96069659508066 123.0872434017947,70.21817105537048 123.29508797661401,69.92116081720451 123.88892961887177,69.44594440970104 125.07661290327087,68.22820221673464 125.7892228740966,67.01045980979688 126.38306451635435,66.50554216367891 126.59090909094084,66.2679338468588 127.12536656903103,65.43630467390176 127.83797653974034,64.8422837749822 128.8771994136041,64.12945862894412 129.41165689157788,63.56513866968453 130.24303519073874,63.089921826147474 130.83687683288008,61.81277639744803 131.90579178894404,61.45636367762927 133.12316715554334,61.486064738361165 134.04362170095555,61.42666261683917 134.875,61.42666261683917 135.70637829927728,61.8721785157104 136.95344574796036,61.93158063333249 137.7848240470048,61.69397215958452 138.0817448681919,61.575167919683736 138.40835777146276,61.575167919683736 140.13049853371922,62.10978698334657 141.25879765406717,62.08008592535043 141.9120234604925,61.8721785157104 142.23863636364695,62.31769438582705 143.01063049864024,62.58500389417168 143.72324046934955,63.00081866432447 145.17815249285195,63.32753025199054 146.12829912034795,63.832448129775 146.9596774193924,64.24826282501454 147.4644428153988,64.782881682273 147.99890029325616,65.49570676102303 148.85997067461722,66.47584112454206 149.66165689157788,67.24806810118025 150.40395894437097,67.93119189329445 151.3244134898996,68.4064084046986 152.0370234604925,68.97072796954308 152.54178885638248,68.58461458800593 153.284090909292,68.10939808894182 153.670087976614,67.06986188335577 153.75916422298178,66.56494424160337 154.4123900294071,65.16899527574424 155.03592375374865,63.35723130457336 155.33284457481932,62.28799332870403 155.54068914963864,61.12965200172039 155.60007331392262,59.406990182353184 155.3922287391033,57.565523625176866 155.27346041053534,56.19927392696263 155.45161290327087,55.48644789028913 156.1048387098126,54.5657141507254 156.93621700885706,54.5657141507254 157.82697947218549,54.74392069055466 158.7771260997979,54.83302395872306 160.4992668624036,55.516148976632394 161.50879765418358,55.902263087336905 162.22140762466006,55.664654406369664 162.78555718483403,55.69435549189802 162.66678885638248,56.55568691773806 163.5872434017947,57.32791500136955 164.92338709684554,58.15954514883924 165.42815249285195,58.72386554896366 165.8141495602904,59.13968055130681 166.2595307918964,59.763403007760644 166.82368035207037,60.743538182927296 167.06121700885706,61.63457003986696 166.82368035207037,62.10978698334657 166.43768328463193,62.61470495001413 166.7346041057026,63.32753025199054 167.1799853373086,64.04035548056709 167.56598240474705,65.70361406187294 167.32844574796036,66.2085317664314 167.71444281528238,67.0995629200479 168.45674486807548,67.7529856931651 169.52565982413944,68.49551149696345 169.91165689157788,68.85192385449773 170.38673020538408,69.14893413847312 171.15872434026096,69.47564543609042 172.64332844584715,69.83205774327507 173.9497800586978,70.12906798522454 174.81085043994244,70.3963771921699 175.99853372445796,70.81219149345998 176.94868035195395,71.28740780742373 177.92851906165015,72.05963424796937 178.61143695027567,72.59425250266213 179.32404692086857,73.36647879780503 179.59127565997187,73.96049896633485 179.85850439895876,74.37631305411924 180.42265395901632,74.85152912384365 180.80865102657117,75.3861471634591 181.13526392972562,75.80196116579464 181.93695014668629,76.45538311917335 183.06524926691782,77.37611394905252 183.95601173036266,78.20774169050856 184.63892961887177,79.0393693324877 184.93585044005886,78.80176144489087 185.11400293267798,78.1780407014885 185.47030791803263,77.6731238681241 185.11400293267798,77.1979079914745 183.92631964827888,76.4256821225863 183.45124633447267,75.95046616054606 182.6495601173956,75.2970441596699 182.32294721424114,74.91093113034731 181.87756598251872,74.22780802560737 181.1649560118094,73.60408687125891 180.74926686217077,73.48528283560881 180.33357771264855,72.47544844966615 179.47250733152032,71.3765108626103 178.67082111444324,70.72308843099745 178.22543988272082,70.24787207850022 177.8097507331986,69.89145979273599 176.6517595309997,69.47564543609042 176.3548387096962,69.17863516608486 175.4046920822002,68.82222282537259 173.89039589453023,68.82222282537259 173.29655425215606,68.7034187077079 172.94024926691782,68.55491355783306 171.60410557198338,68.25790324836271 170.56488269811962,67.87178982712794 169.49596774193924,67.24806810118025 169.31781524932012,66.95105773571413 169.25843108515255,65.49570676102303 169.52565982413944,64.54527330637211 169.76319648104254,63.89185023063328 169.70381231687497,63.44633446179796 169.73350439895876,61.96128169196891 169.46627565985546,60.86234243714716 168.60520527872723,59.55549552856246 167.71444281528238,58.72386554896366 166.58614369516727,57.921936545404606 165.7844574780902,57.38731715804897 164.47800586535595,56.46658367180498 163.854472140898,55.96166525629815 162.69648093858268,55.605252234847285 162.1323313782923,55.3676435436937 161.77602639305405,55.33794245671015 161.30095307924785,54.892426136822905 161.1821847507963,54.5657141507254 160.08357771276496,54.060795596276876 159.2818914956879,53.8231868519797 158.2426686217077,53.437072625092696 156.99560117314104,53.437072625092696 156.1642228740966,53.28856714745052 154.8577712610131,53.28856714745052 153.64039589453023,53.318268243281636 153.07624633435626,53.52617591014132 152.45271261013113,54.060795596276876 152.42302052793093,54.92212722572731 153.0465542523889,55.81315983290551 153.81854838714935,57.060605289880186 154.05608504416887,57.565523625176866 154.02639296196867,57.981338697019964 154.29362170095555,59.13968055130681 154.32331378303934,59.49609339045128 154.32331378303934,59.88220727886073 154.26392961875536,61.07024987711338 154.2045454547042,62.37709649972385 153.40285923762713,64.18886072729947 153.224706745008,64.54527330637211 152.2448680353118,65.46600571757881 151.44318181835115,65.55510884762043 150.37426686217077,65.109593185829 149.21627565997187,64.39676806732314 148.77089442824945,63.98095338098938 147.9098240468884,63.47603551403154 147.37536656903103,63.23842709319433 146.4846041055862,62.85231339209713 145.95014662772883,62.5553028381546 145.38599706755485,62.406797556439415 144.70307917892933,62.139488041226286 144.10923753667157,61.90187957457965 143.15909090917557,61.90187957457965 142.5949413490016,61.75337427877821 141.76356304995716,61.486064738361165 141.08064516144805,60.53563073318219 140.57587976555806,59.88220727886073 140.0117302055005,59.52579445956508 139.09127565997187,59.377289112773724 138.17082111444324,59.22878376283916 137.2800586511148,59.614897666091565 136.3299120235024,59.94160941365408 135.8845307918964,59.88220727886073 135.23130498535465,59.82280514354352 134.48900293267798,59.7931040757685 133.77639296196867,60.001011547865346 133.479472140898,59.852506211260334 133.03409090917557,60.09011474828003 132.67778592382092,60.7732392467442 132.9450146628078,61.33755943365395 133.9545454545878,61.51576579891844 134.45931085047778,61.39696155593265 133.7467008800013,61.15935306379106 133.2122434019111,60.86234243714716 131.9948680353118,61.189054125745315 131.16348973615095,61.39696155593265 130.83687683288008,61.78307533822954 130.15395894437097,62.88201444683364 129.73826979484875,63.35723130457336 129.1741202347912,63.44633446179796 128.46151026408188,64.15915967820911 127.54105571855325,64.6343764482881 126.9472140762955,65.25809840962756 126.41275659843814,65.94122239795979 125.9673753665993,66.44614008523058 125.13599706755485,67.57477948837914 124.36400293279439,68.55491355783306 124.0373900294071,68.82222282537259 123.44354838714935,69.3568413296598 122.5824780059047,70.15876900876174 122.22617302066647,70.45577923668316 121.66202346049249,71.07950067403726 121.00879765418358,71.67352103843587 120.44464809400961,72.05963424796937 119.19758064521011,72.89126262633363 118.45527859253343,73.51498384476872 116.79252199421171,74.52481807942968 115.36730205290951,75.23764215654228 113.9420821116073,75.68315716763027 113.31854838714935,76.00986815762008 112.10117302066647,76.57418710406637 111.38856304995716,77.1979079914745 110.5571847507963,77.9107317943126 109.8445747802034,78.97996736131608 109.63673020538408,79.3363791803713 109.22104105586186,79.8412958928966 108.71627565997187,80.82142822997412 108.33027859253343,81.89066334924428 108.12243401771411,83.5836186184315 108.09274193563033,84.47464754199609 108.09274193563033,85.48448018397903 108.35997067473363,85.78148975671502 107.79582111444324,86.64281744591426 107.88489736081101,87.32593933056341 107.70674486819189,87.83085546304937 107.6473607039079,88.84068761824165 107.23167155438568,89.55351022793911 106.9347507331986,90.08812713733641 107.02382697956637,91.18706176656997 106.84567448694725,91.75137948180782 106.66752199432813,92.34539808006957 106.54875366576016,92.96911755378824 106.04398826987017,93.68193974113092 105.92521994153503,94.75117288558977 105.42045454564504,95.22638756380184 104.88599706767127,95.67190129525261 104.5593841644004,96.44412502896739" stroke="#4DD2FF" stroke-dasharray="none" stroke-linecap="round" stroke-linejoin="round" stroke-width="0.5"><title>2026-06-16 10.1km</title><desc>9223370255286294807</desc></polyline><polyline fill="none" opacity="1" points="19.257795504061505,232.46202710430953 19.551486584590748,231.40442281850846 20.08013052935712,230.5524636922055 20.16823785356246,230.02366142277606 20.403190717916004,229.5829928338644 20.579405366210267,229.08356839904445 21.519216823857278,228.2903648102365 22.106598984799348,227.23275988272508 22.459028281271458,226.29266647723853 23.57505438721273,225.5582184146624 24.779187817359343,224.94128198147519 25.895213923067786,224.4712351379858 26.511965192155913,224.08932205397286 28.15663524286356,223.44300755576114 28.714648295892403,223.03171647974523 30.329949238570407,222.12100043796818 31.387237128335983,221.21028427546844 32.7382160986308,220.1820562046778 34.00108774472028,218.88942641139147 35.26395939080976,217.53804045784636 36.11566352425143,216.45105591058382 36.67367657716386,215.48158306090045 37.55474981863517,214.80588978156447 38.34771573613398,214.0714404892933 38.99383611313533,213.51325897444622 39.72806381434202,212.72005358562456 40.28607686725445,212.48502974913572 40.81472081213724,212.10311599751003 40.81472081213724,211.4568003693421 41.225888324785046,211.04550857422873 42.54749818705022,210.36981485714205 43.898477157228626,210.42857083518174 45.13197969540488,210.51670480135363 46.189267585170455,210.66359474236378 47.18781725887675,210.72235071787145 48.24510514852591,210.72235071787145 48.949963741819374,210.54608278971864 50.212835387908854,210.92799662821926 50.947063089115545,210.98675260145683 52.29804205941036,211.28053246016498 52.679840464144945,211.54493432227173 53.237853517057374,211.4568003693421 54.177664974704385,211.8680921397754 54.85315445973538,212.07373801569338 55.381798404618166,212.2500059044978 56.52719361858908,212.7788095435535 57.5551124002086,213.27823516511125 58.113125453237444,213.8070387247426 58.377447425504215,214.30646427138709 58.847353154444136,214.6002439876611 59.2291515590623,214.95277963054832 59.493473531561904,215.3346932232089 60.31580855685752,216.09852034482174 61.16751269029919,217.03861514673918 62.63596809282899,217.83182003558613 63.42893401009496,217.30301678655087 63.98694706312381,216.03976441538543 64.6624365481548,214.30646427138709 65.30855692527257,212.74943156464724 65.80783176212572,210.89861864136765 65.98404641041998,209.98790098752943 65.95467730239034,208.84215925086755 66.01341551844962,207.78455132359522 65.83720087015536,206.63880921789678 65.80783176212572,205.874981040688 65.63161711394787,205.52244493018952 65.74909354595002,204.87612868033466 65.95467730239034,204.0829222901084 66.60079767939169,203.61287401540903 67.6874546771869,203.64225203357637 69.00906453945208,203.8772761739383 70.68310369830579,204.5529705324734 72.21029731689487,204.90550669305958 72.53335750533734,205.14053078988218 73.09137055836618,205.69871298773796 74.58919506892562,206.81507724663243 75.26468455407303,207.16761329057044 75.67585206672084,207.75517332329764 76.43944887595717,208.54837928747293 77.20304568530992,209.98790098752943 77.29115300928243,210.51670480135363 77.20304568530992,211.39804440017906 76.90935460478067,211.7799581910076 77.61421319795772,213.19010123453336 77.81979695428163,214.18895238131518 77.84916606242768,214.89402369139134 78.26033357507549,215.89287458968465 78.8183466278715,216.77421349677024 79.34699057287071,217.12674902781146 80.05184916593134,217.65555229049642 80.52175489487126,217.83182003558613 82.10768672951963,218.59564687890816 83.37055837560911,218.88942641139147 84.78027556196321,219.30071773566306 85.308919506846,219.33009568651323 86.10188542411197,219.65325313684298 87.01232777372934,220.1526782574947 87.74655547493603,220.65210334188305 88.62762871640734,221.21028427546844 89.18564176931977,221.68033134218422 89.74365482234862,222.8260709324968 90.03734590287786,223.23736202082364 90.38977519934997,223.67803101672325 91.212110224762,224.52999099512817 92.09318346634973,225.17630539109814 93.00362581585068,225.99888726160862 93.97280638141092,226.88022487072158 94.76577229879331,227.82031819588155 94.9713560550008,227.497161129897 94.91261783894151,227.23275988272508 95.5,226.6452015193645 95.2356780275004,226.17515479249414 94.29586656985339,225.3819508680026 93.06236403190996,224.20683377442765 92.50435097899754,223.7661648124922 91.79949238570407,222.88482680375455 90.88905003620312,222.2678901303443 90.0667150109075,220.94588278621086 89.42059463378973,220.06454441536334 88.3926758520538,219.15382797984057 88.04024655546527,218.80129255296197 86.89485134149436,218.00808777625207 86.36620739661157,217.83182003558613 85.10333575052209,217.33239474592847 84.48658448143397,217.36177270518965 83.48803480772767,217.5086624994292 82.48948513402138,217.36177270518965 81.54967367649078,216.97985922545195 80.87418419134337,216.59794572438113 79.5525743290782,215.54033899516799 79.43509789707605,214.5414880453609 79.75815808551852,213.19010123453336 79.96374184184242,212.07373801569338 79.93437273381278,210.83986266737338 79.31762146472465,209.16531719599152 78.4659173313994,208.13708731753286 77.40862944163382,207.25574729868094 77.11493836110458,207.0207232744724 76.64503263228107,206.6681872229383 75.96954314713366,206.28627314674668 75.08846990577877,205.5812009498768 74.1780275561614,204.90550669305958 73.15010877442546,204.5823485465371 72.5039883973077,204.0829222901084 72.26903553295415,203.73038608717616 71.76976069598459,203.78914212225936 70.82994923868682,203.1722037285508 69.44960116024595,202.76091143517988 68.39231327048037,202.43775318731787 67.33502538059838,202.40837516399915 66.24836838280316,202.32024109337362 65.10297316894867,202.29086306958925 63.810732414829545,202.34961911704158 63.2527193618007,202.49650923351874 62.78281363309361,203.61287401540903 63.3114575779764,204.5235925182933 64.01631617115345,205.52244493018952 64.28063814353663,206.25689513995894 64.36874546774197,206.90321125928313 64.63306744024158,207.75517332329764 64.75054387224372,208.13708731753286 64.69180565630086,208.51900129046408 64.69180565630086,209.07718321244465 64.51559100789018,210.45794882401242 64.45685279194731,211.25115447488497 64.33937635959592,211.80933617413393 64.10442349524237,212.3381398471829 63.63451776641887,213.07258932539844 63.19398114574142,213.8070387247426 62.48912255244795,214.18895238131518 61.754894851357676,214.42397615939262 60.78571428579744,213.92455062133376 60.4332849890925,213.7482827756612 59.37599709932692,213.16072325737332 58.23060188535601,212.308761866414 57.467005076119676,211.9268481049803 56.76214648305904,211.51555633806856 55.85170413344167,211.28053246016498 55.264321972383186,211.0161305879592 54.70630891947076,211.04550857422873 54.14829586655833,210.81048468023073 53.35532994917594,210.78110669288435 52.82668600440957,210.54608278971864 52.1218274111161,209.4884751259524 51.50507614214439,209.13593920166022 50.682741116615944,208.636513277801 49.83103698329069,208.37211130335345 48.56816533731762,208.4308672985644 47.39340101520065,208.75402526318794 46.982233502552845,208.87153724647942 46.36548223346472,208.13708731753286 45.513778100023046,208.6071352811996 44.36838288616855,208.81278125508106 44.16279912972823,208.66589127431507 43.54604786075652,209.16531719599152 43.399202320491895,209.92914500570623 43.8103698331397,210.36981485714205 44.779550398816355,210.45794882401242 44.98513415514026,210.22292490984546 44.51522842643317,210.07603495934745 43.957215373404324,209.66474308122997 43.48730964458082,209.6059870966128 41.93074691807851,210.22292490984546 41.19651921687182,210.92799662821926 40.81472081213724,211.25115447488497 40.31544597528409,212.308761866414 39.87490935449023,212.308761866414 38.99383611313533,213.13134528021328 37.87781000719406,213.95392859514686 37.114213197957724,214.9234016610135 36.32124728069175,215.6284728954197 35.70449601148721,216.5391897992522 35.146482958691195,217.12674902781146 34.50036258157343,217.80244207844953 33.795503988396376,218.74253664675052 33.20812182733789,219.15382797984057 32.385786802042276,220.00578851994942 31.592820884659886,220.59334745144588 31.152284263866022,220.85774895426584 30.799854967393912,221.18090633270913 29.8600435097469,221.73908722327906 28.949601160245948,222.56166950555053 28.039158810744993,223.0610944145301 26.541334300185554,223.67803101672325 25.484046410303563,224.20683377442765 23.8981145756552,224.88252612773795 22.28281363309361,225.8226197262702 20.814358230563812,227.08587029654882 20.491298042004928,227.497161129897 20.050761421211064,228.4960101938923 19.551486584590748,229.31859166704817 19.34590282815043,229.78863817887031 19.16968817973975,230.49370788646047 19.022842639591545,231.22815542167518 18.875997099326923,231.93322498173802 18.875997099326923,233.4314975568559 18.699782450916246,234.28345632666606 18.81725888326764,235.28230440532207 18.934735315386206,235.95799567038193 18.582306018914096,236.54555323836394 18.55293691076804,237.39751162289758 18.406091370619833,237.98506906806142 17.78934010141529,238.92516087612603 17.84807831759099,239.89463041885756 17.43691080494318,240.7465883893601 16.84952864400111,242.00983622070635 16.702683103620075,243.2143281235476 16.350253807147965,243.56686229919433 15.850978970294818,244.06628568386077 15.028643944882788,244.9182431390218 14.823060188558884,246.5046463960898 14.5,247.79727100260789" stroke="#4DD2FF" stroke-dasharray="none" stroke-linecap="round" stroke-linejoin="round" stroke-width="0.5"><title>2026-06-11 10.2km</title><desc>9223370255717407907</desc></polyline></svg>