<?xml version="1.0" encoding="utf-8" ?>
<svg baseProfile="full" height="300mm" version="1.1" viewBox="0,0,200,300" width="200mm" xmlns="http://www.w3.org/2000/svg" xmlns:ev="http://www.w3.org/2001/xml-events" xmlns:xlink="http://www.w3.org/1999/xlink"><defs /><rect fill="#222222" height="300" width="200" x="0" y="0" /><text fill="#FFFFFF" style="font-size:12px; font-family:Arial; font-weight:bold;" x="10" y="20">Over 10km Runs</text><text fill="#FFFFFF" style="font-size:4px; font-family:Arial" x="10" y="280">Runner</text><text fill="#FFFFFF" style="font-size:9px; font-family:Arial" x="10" y="290">Yanfu</text><text fill="#FFFFFF" style="font-size:4px; font-family:Arial" x="65" y="280">SPECIAL TRACKS</text><rect fill="yellow" height="2.6" width="2.6" x="65" y="283" /><text fill="#FFFFFF" style="font-size:3px; font-family:Arial" x="70" y="285.5">Over 20.0 km</text><rect fill="red" height="2.6" width="2.6" x="65" y="287" /><text fill="#FFFFFF" style="font-size:3px; font-family:Arial" x="70" y="289.5">Over 40.0 km</text><text fill="#FFFFFF" style="font-size:4px; font-family:Arial" x="120" y="280">STATISTICS</text><text fill="#FFFFFF" style="font-size:3px; font-family:Arial" x="120" y="285">Number: 4</text><text fill="#FFFFFF" style="font-size:3px; font-family:Arial" x="120" y="290">Weekly: 2.0</text><text fill="#FFFFFF" style="font-size:3px; font-family:Arial" x="141" y="285">Total: 40.5 km</text><text fill="#FFFFFF" style="font-size:3px; font-family:Arial" x="141" y="290">Avg: 10.1 km</text><text fill="#FFFFFF" style="font-size:3px; font-family:Arial" x="167" y="285">Min: 10.1 km</text><text fill="#FFFFFF" style="font-size:3px; font-family:Arial" x="167" y="290">Max: 10.2 km</text><polyline fill="none" opacity="1" points="14.5,96.4743264419958 14.681546507170424,95.23338945495198 15.105155024211854,94.56752073846292 15.437990287551656,94.2043195940787 15.559021292254329,93.41738371748943 15.770825550891459,91.90404524834594 15.680052297189832,91.48031041916693 16.315465072751977,90.4815067932941 16.22469181905035,89.18003519100603 16.497011580038816,88.48389911971753 16.40623832633719,87.3640279052197 16.860104594612494,86.87975921720499 16.950877848197706,85.69935415155487 16.950877848197706,84.67028290836606 17.16268210671842,83.58067789982306 18.130930145503953,82.43053909792798 18.25196115032304,82.18840458948398 18.342734404024668,81.79493599565467 18.403249906376004,81.00799874262884 19.00840493082069,80.46319597767433 19.643817706266418,79.28278984315693 20.309488232946023,78.10238351189764 21.096189764444716,77.58784735715017 22.09469555458054,77.04304432903882 23.66809861769434,76.37717390427133 25.090212924871594,75.59023604891263 26.02820321242325,75.19676708831685 26.693873739102855,74.74276441440452 28.297534553566948,73.83475897903554 29.175009338650852,73.1688882522867 30.173515128786676,72.50301746284822 30.929958909051493,71.77661289373646 31.958722450304776,70.71727276331512 32.563877474633045,70.02113487682072 33.07825924525969,69.47633126558503 33.9859917818103,68.44725766318152 34.28856929379981,68.02352143038297 35.07527082541492,66.81284633930773 36.34609637642279,65.57190415548394 36.76970489346422,65.2389684105292 37.40511766890995,64.84549887350295 38.131303698173724,64.14936040801695 39.00877848325763,63.66509013075847 39.12980948807672,62.90841775579611 39.79548001475632,62.393880494521 40.58218154637143,61.909610096598044 41.671460590092465,61.87934319570195 42.06481135590002,61.909610096598044 43.396152409375645,61.909610096598044 44.06182293605525,61.667474885238335 44.51568920421414,61.758275590487756 44.87878221878782,62.242545998771675 45.362906238297,62.33334669662872 45.87728800892364,62.30307979747886 46.391669779550284,62.1214783997857 47.1481135598151,61.93987699749414 48.600485618109815,62.27281289815437 49.508218154660426,62.454414291947614 50.71852820320055,62.27281289815437 50.23440418357495,62.484681190457195 52.47347777360119,63.33215429575648 53.71404557325877,63.66509013075847 54.621778109809384,64.08882662520045 56.25569667527452,64.93629953783238 56.70956294343341,65.32976906985277 57.254202465410344,65.8443061170401 57.889615240856074,66.5101775341318 58.22245050431229,66.87338009884115 58.434254762600176,67.29711640061578 59.251214045565575,67.84192017989699 59.886626821011305,68.71965951373568 60.552297347807325,69.4460643971106 61.09693686955143,69.6881993416464 62.18621591327246,68.41699079028331 62.79137093760073,67.4787176650716 63.336010459344834,66.38911000842927 64.06219648849219,64.87576576176798 64.45554725429974,63.57428945007268 64.8488980201073,62.242545998771675 65.00018677616026,61.152937533392105 64.96992902492639,60.60813323757611 64.96992902492639,59.42772378545487 64.87915577134117,57.85384420841001 64.57657825911883,57.03663736622548 64.81864026875701,55.977295022283215 65.27250653703231,55.16008796240203 66.48281658568885,54.91795251896838 67.75364213658031,55.12982103246031 69.62962271191645,55.73515960708028 70.47683974599931,56.12862965260865 71.65689204330556,56.46156582789263 72.14101606269833,57.09717120957794 73.59338812099304,58.0657126334263 74.92472917435225,59.09478775039315 75.46936869632918,59.66985907376511 76.43761673511472,61.27400514902547 76.40735898388084,62.484681190457195 76.01400821807329,63.12028602894861 76.07452372054104,63.45322187396232 76.225812476594,64.11909351672512 76.6796787448693,64.93629953783238 77.10328726179432,65.90483988483902 76.98225625685882,66.75231257930864 76.8914830032736,67.66031892492902 77.70844228612259,68.35645704402123 79.07004109071568,69.02232822420774 79.58442286134232,69.29473005258478 80.4013821441913,69.93033427785849 82.15633171459194,70.41460412548622 82.7614867388038,70.62647217331687 83.72973477770574,70.86860707739834 84.63746731413994,71.05020824994426 85.63597310415935,71.41341058118269 87.02782966010273,72.20034890144598 87.63298468431458,72.71488544810563 88.14736645494122,72.92675342701841 88.66174822556786,73.28995566186495 89.26690324989613,74.28876171121374 89.5089652595343,75.25730077602202 89.81154277175665,75.59023604891263 90.56798655213788,76.25610654766206 91.6572655957425,77.07331116497517 92.08087411266752,77.52731368941022 92.59525588329416,77.86024885548977 93.8055659319507,78.85905425966484 94.28968995134346,79.5854581015301 94.7132984685013,79.79732587467879 94.74355621961877,79.4038571480778 95.5,78.5866527998005 94.53175196121447,77.5575805233675 93.56350392231252,76.74037596193375 93.01886440033559,76.37717390427133 92.62551363464445,75.95343814685475 91.59675009339117,74.9546323325485 91.26391482993495,74.59143018326722 90.62850205448922,74.19796116719954 90.50747104967013,73.77422527916497 89.78128502052277,72.68461859348463 89.75102726940531,72.38195003988221 88.5104594695149,71.6555454582558 87.54221143072937,70.71727276331512 86.57396339182742,70.02113487682072 85.93855061638169,69.3552637908142 84.63746731413994,69.2341963138897 84.18360104598105,69.2341963138897 83.03380649979226,69.3249969216995 82.24710496817715,69.20392944430932 80.55267090024427,68.56832515366841 79.46339185640682,68.47752453602152 79.19107209553476,68.02352143038297 78.64643257367425,66.5404444152955 78.91875233466271,65.81403923290782 79.3726186028216,64.57309687347151 79.2818453493528,63.211086715513375 79.2818453493528,62.00041079876246 78.94901008578017,61.00160301098367 78.31359731045086,60.15412962558912 76.95199850574136,58.97372009739047 75.83246171078645,58.09597955085337 74.59189391101245,57.43010733911069 74.01699663803447,56.85503583290847 73.23029510630295,56.21943042927887 72.29230481875129,55.977295022283215 71.23328352626413,55.40222339745378 70.93070601404179,55.16008796240203 70.59787075070199,54.70608399924822 69.53884945821483,54.43368160730461 68.5706014194293,54.191546138958074 67.7838998879306,53.97967759729363 66.87616735137999,53.67700824100757 65.63559955172241,53.67700824100757 64.2740007470129,53.616474368202034 63.27549495687708,53.5256735580042 62.700597683899105,53.64674130466301 62.0349271572195,53.798075985047035 61.73234964499716,54.282346940541174 61.76260739634745,54.88768558803713 61.94415390351787,55.493024183495436 62.2467314156238,56.037828874832485 62.79137093760073,56.733968141372316 63.154463952057995,57.18797197379172 63.42678371304646,58.09597955085337 63.45704146428034,58.943453183805104 63.336010459344834,59.609325252473354 63.54781471786555,60.78973467415199 63.45704146428034,62.33334669662872 63.00317519600503,63.72562391718384 62.39802017167676,65.20870152389398 61.36925663042348,66.02590741874883 60.43126634275541,66.146974950796 59.432760552736,65.63243792561116 58.70657452358864,65.20870152389398 58.28296600666363,64.99683331343113 57.43574897269718,64.20989419042598 56.77007844590116,63.87695838115178 56.10440791910514,63.54402255616151 55.28744863648899,63.18081982014701 54.894097870681435,63.12028602894861 54.37971609993838,62.87815085914917 53.74430332449265,62.75708327116445 53.139148300280795,62.1214783997857 52.38270451978315,62.1214783997857 52.049869256443344,62.1214783997857 50.20414643245749,60.759467768482864 49.87131116911769,60.396264888870064 48.993836384033784,59.730392894533 47.57172207685653,59.336923050228506 46.8152782964753,59.63959216326475 46.02857676486019,60.123862717009615 45.0300709749572,60.42653179622721 44.45517370174639,60.51733251748374 43.57769891654607,60.0935958083719 42.94228614110034,60.305464166158345 42.21610011183657,60.396264888870064 41.76223384367768,60.63840014394373 41.55042958527338,61.09240372478962 41.671460590092465,61.667474885238335 41.97403810219839,61.909610096598044 43.184348150738515,62.1214783997857 43.36589465814177,61.87934319570195 42.66996638011187,61.57667417882476 41.5201718340395,61.51614037388936 39.946768771042116,61.788542492024135 39.16006723942701,62.51494808879215 38.796974224736914,63.51375566225033 38.31285020534415,63.907225273607764 37.284086664090864,64.54282998392591 36.79996264458168,64.87576576176798 35.40810608875472,66.11670806794427 34.40960029873531,67.17604888841743 33.80444527452346,68.02352143038297 33.1690324988449,68.78019325691275 32.715166230802424,69.17366257455433 32.20078445994295,69.83953367779031 31.746918192016892,70.41460412548622 30.50635039212648,71.41341058118269 29.235524841118604,72.71488544810563 28.297534553566948,73.50182362349005 26.72413149033673,74.31902855908265 25.755883451434784,75.01516602229094 25.059955173521303,75.34810130653204 24.121964885969646,75.7718371002702 23.214232349651866,76.04423866851721 22.215726559399627,76.61930861143628 20.82387000368908,77.34571268316358 20.37000373553019,77.4667800211464 19.583302203798667,78.16291717468994 18.736085169832222,78.70772011659574 18.403249906376004,79.31305666954722 17.76783713104669,80.49346279905876 17.465259618824348,80.82639782561455" stroke="#4DD2FF" stroke-dasharray="none" stroke-linecap="round" stroke-linejoin="round" stroke-width="0.5"><title>2026-06-20 10.1km</title><desc>9223370254938036107</desc></polyline><polyline fill="none" opacity="1" points="104.58709677425213,99.42345344871865 104.58709677425213,98.52318663548795 104.81935483880807,97.53579709099722 105.63225806469563,96.02567162920604 106.21290322591085,94.3122596431349 106.3870967742987,93.73144192312611 106.7935483873589,92.71501079411246 107.2870967744384,92.45364276506007 107.54838709696196,92.16323383213603 107.8677419355372,91.66953861777438 107.95483870978933,90.44982087617973 108.30322580656502,89.9851664409507 108.73870967747644,88.82353021451854 108.97096774203237,87.86518017872004 108.85483870981261,86.84874817519449 109.52258064539637,85.57094772701384 109.43548387102783,84.72876093699597 109.6967741936678,84.20602425621473 109.63870967749972,82.60877303869347 109.60967741941568,82.66685490772943 109.7548387098359,81.01152144625667 109.87096774205565,79.09481904024142 110.56774193560705,78.65920478172484 110.6838709678268,77.93318095550057 111.090322580887,77.4975666225946 111.55483870976605,76.74250171266613 112.68709677422885,75.58086322585586 113.47096774203237,74.27401969078346 114.48709677427541,73.66415928839706 115.38709677441511,73.14142175696907 116.89677419362124,72.44443831921672 117.85483870981261,71.97978265426354 119.01612903235946,71.42800401084241 120.14838709682226,70.731020397041 121.10645161301363,70.1211596763751 121.39677419362124,69.85979077930097 122.12258064525668,69.30801196346874 123.02258064527996,68.58198713738238 124.15483870985918,67.62363424801151 124.8806451613782,66.75240423102514 125.95483870978933,65.67788705587736 126.47741935495287,64.83569779942627 127.3483870967757,63.99350843837601 127.72580645175185,63.32556507756817 128.16129032254685,63.00611388174002 128.42258064518683,62.71570369062829 129.29354838724248,61.98967815833748 130.19354838726576,61.20557049600757 130.60000000009313,60.88611920012045 130.91935483878478,60.91516022771248 131.29677419364452,60.13105244093458 131.2096774193924,59.724477997166105 131.93548387114424,59.11461628583493 132.5451612903271,58.679000744072255 133.79354838712607,58.62091866970877 134.17096774210222,58.679000744072255 135.47741935495287,58.62091866970877 136.81290322588757,58.8532469641068 137.3354838710511,59.05653421525494 138.525806451682,58.91132903652033 139.42580645158887,58.70804178103572 140.2096774195088,58.96941110838088 140.90645161294378,59.11461628583493 141.80645161296707,59.230780425539706 142.3290322581306,59.143657320935745 142.61935483885463,59.05653421525494 142.73548387095798,58.8532469641068 143.54838709684554,59.753519029705785 144.12903225806076,60.014888316596625 144.3612903227331,60.33433965363656 145.60967741941568,60.53762686022674 146.42258064530324,60.91516022771248 146.91612903238274,61.147488443384646 148.19354838714935,61.96063713540207 148.62903225817718,62.45433450792916 149.52903225808404,63.38364711156464 149.87741935497615,63.61597524251556 150.89354838710278,64.71953375585144 151.038709677523,65.06802588063874 151.64838709693868,65.47460000350839 153.04193548404146,65.53268201914034 154.02903225820046,64.31295958769624 154.63870967749972,63.15131897261017 154.92903225810733,62.68666267077788 155.50967741943896,61.118447416840354 155.77096774207894,59.753519029705785 156.29354838724248,58.15626205687295 156.43870967754629,57.77872853548615 156.20645161299035,56.23955319169909 156.26451612915844,55.62969116610475 156.06129032257013,55.135993295611115 156.20645161299035,54.52613117051078 155.91612903238274,53.68394052621443 156.0903225807706,53.04503720882349 156.4677419355139,52.289969574077986 157.83225806464907,51.941476791049354 159.08064516144805,52.173805315076606 159.77741935488302,52.43517489504302 160.85161290329415,52.87079083910794 162.12903225817718,53.161201452836394 162.564516129205,53.567776291194605 163.46451612911187,54.32284378318582 164.91612903226633,55.28119855537079 165.78709677432198,56.181471096439054 166.74516129039694,57.45927707789815 167.3548387098126,58.56283659482142 167.38387096766382,58.8532469641068 167.2096774193924,59.9277652221499 167.79032258072402,60.944201255071675 167.96451612911187,62.07680122635793 167.96451612911187,62.8028267492482 167.81935483869165,63.52885219431482 167.96451612911187,64.13871350805857 168.80645161296707,64.9228208308341 169.85161290329415,65.41651798743987 169.79354838712607,65.3584359709057 171.10000000009313,66.40391219290905 171.5645161290886,66.75240423102514 172.58064516133163,66.81048623565584 173.538709677523,67.12993725208798 174.40967741946224,67.53651125135366 175.2225806452334,67.62363424801151 176.3548387096962,68.20445419714088 177.37096774205565,68.49486415309366 178.06774193549063,69.16280700440984 178.85161290329415,69.65650385234039 179.49032258067746,70.67293842608342 179.8677419355372,71.45704499314888 180.44838709686883,71.6893728475261 180.94193548394833,72.35731538446271 181.43548387102783,72.76388907039654 182.07419354841113,73.11238078179304 183.20645161287393,74.24497872049687 184.1645161290653,75.11620777551434 184.48387096787337,75.78414997537038 184.83225806453265,75.52278129631304 184.8612903226167,75.46469936624635 185.5,74.70963423041394 184.9483870967524,74.09977386711398 184.28064516128507,73.46087247540709 183.3225806452101,72.70580711672665 182.56774193560705,72.124987552932 181.98709677427541,71.36992204579292 181.11612903233618,70.67293842608342 180.76774193556048,70.55677448250935 180.62258064525668,70.06307770014973 180.12903225806076,69.30801196346874 179.8096774193691,68.61102813194157 178.85161290329415,67.76883923995774 178.35806451621465,67.33322425477672 177.74838709679898,66.37487118886202 177.22580645175185,66.14254315249855 176.93548387102783,65.85213309581741 176.03548387100454,65.44555899559055 174.70000000006985,65.67788705587736 174.06129032268655,65.82309208950028 172.46451612911187,65.53268201914034 171.12903225806076,65.03898487094557 170.63548387098126,64.66145173335099 170.0838709678501,64.40008262573974 169.38709677418228,63.41268812835915 169.4741935484344,62.74474471024587 169.93870967754629,61.757349971536314 170.11290322581772,61.060365363402525 170.05483870964963,60.36338068349869 169.93870967754629,58.99845214409288 169.70645161299035,58.09817997805658 169.038709677523,57.05270247353474 168.16774193558376,56.23955319169909 167.41290322586428,55.57160906557692 166.57096774189267,55.019829085533274 165.64193548390176,54.40996694989735 165.06129032268655,53.887227932718815 163.72580645175185,53.01599614752922 162.5064516129205,52.37709276701207 162.09999999997672,51.9995589228638 161.43225806450937,51.70914825913496 159.8935483872192,51.24449117117911 158.58709677436855,50.80887512219488 157.60000000020955,50.75079298019409 156.99032258067746,50.66366976630525 155.30645161285065,50.605587623111205 153.94193548394833,50.72175190906273 153.41935483878478,50.895998334279284 153.12903225817718,51.9995589228638 153.59354838717263,53.1321603920951 154.43548387102783,54.29380272736307 154.52258064527996,55.223116451874375 154.63870967749972,55.62969116610475 154.95806451619137,56.41379947462701 154.87096774205565,57.197907692199806 154.90000000002328,58.56283659482142 154.66774193558376,60.043929347913945 154.23225806467235,61.060365363402525 153.79677419364452,61.728308947669575 153.012903225841,62.45433450792916 151.90967741946224,62.68666267077788 151.5322580646025,62.54145756995422 150.63225806457922,61.84447304252535 149.44193548394833,61.35077562555671 148.89032258070074,60.76995508885011 147.9612903225934,60.30529862357071 147.2354838710744,60.014888316596625 146.7419354839949,59.811601094319485 145.40645161294378,59.34694456338184 144.39032258070074,59.05653421525494 143.43225806462578,58.96941110838088 142.6774193549063,58.417631405522116 142.15483870974276,57.77872853548615 141.51612903235946,57.13982560511795 140.32580645172857,56.32667633378878 139.5709677420091,56.00722480748664 139.0193548387615,56.036265855975216 138.3225806452101,56.41379947462701 138.00322580651846,56.878456207195995 137.48064516147133,57.16886664877529 136.58064516133163,57.22694873556611 134.98387096787337,57.28503082189127 134.28709677420557,57.28503082189127 133.79354838712607,57.89489269821206 133.93870967754629,58.35954932891764 134.40322580654174,58.649959706905065 135.18709677434526,58.795164891227614 135.18709677434526,58.504754519468406 134.3741935484577,58.330508290440775 133.30000000004657,58.3014672518475 132.28387096780352,58.56283659482142 131.96451612911187,58.88228800040088 131.29677419364452,59.434067665279144 131.26774193556048,60.21817553276196 130.3677419356536,60.59570891808835 129.06129032268655,61.64118587519624 128.21935483883135,62.45433450792916 127.2032258065883,63.44172914503724 126.62258064525668,64.05159046658082 126.27419354848098,64.66145173335099 125.54838709684554,65.3874769792601 124.44516129035037,66.60719921730924 123.45806451619137,67.62363424801151 122.2677419356769,68.552946142765 121.51290322595742,69.22088898843504 121.10645161301363,69.48225791016011 119.68387096794322,70.49869250998017 118.98709677427541,70.93430729187094 117.6516129032243,71.54416793951532 116.40322580654174,72.124987552932 115.79354838724248,72.29923342735856 114.77741935488302,72.79293004702777 113.7612903227564,73.22854468171136 113.15161290334072,73.69320026112837 111.84516129037365,75.02908487504465 111.6709677419858,75.8131909390795 111.0322580646025,76.71346075288602 110.33548387116753,77.52660757894046 110.07419354852755,77.90414000087185 109.84193548408803,78.74632763568661 109.66774193558376,80.02412936516339 109.60967741941568,80.45974353625206" stroke="#4DD2FF" stroke-dasharray="none" stroke-linecap="round" stroke-linejoin="round" stroke-width="0.5"><title>2026-06-18 10.1km</title><desc>9223370255108266507</desc></polyline><polyline fill="none" opacity="1" points="18.9064979221439,231.99438165751053 19.51851152232848,230.67815766460262 20.650736682931893,229.9129110458307 21.905364563688636,229.39254329836695 22.731582924025133,228.99461499531753 23.251794484327547,228.81095577112865 24.261616924777627,228.25997807009844 24.812429165118374,228.0150990782422 26.403664525947534,227.09680278418818 26.923876086133532,226.8519237525179 28.056101246736944,226.02545695874142 29.52493388741277,224.95411097275792 30.53475632786285,224.06642417702824 31.17737060820218,223.3011768508586 31.39157536823768,222.9950778973871 32.00358896853868,222.50531954469625 33.22761616925709,221.25031361257425 33.96203248971142,219.99530745990342 34.574046090012416,219.47493899049005 34.7882508499315,219.23005969758378 35.33906309027225,218.37298210640438 36.07347941061016,217.76078376400983 37.14450321113691,217.02614568377612 37.695315451477654,216.44455715001095 38.552134491852485,215.95479834789876 39.16414809215348,214.6385714006028 40.26577257271856,214.27125220920425 41.52040045335889,214.30186214257265 42.4690215337323,214.24064227577765 43.32584057410713,214.24064227577765 44.18265961459838,214.69979126407998 45.467888175393455,214.76101112691686 46.324707215768285,214.5161316723097 46.630714015918784,214.39369194186293 46.967321496107616,214.39369194186293 48.74216093681753,214.9446707124007 49.90498677745927,214.91406078182627 50.57820173772052,214.69979126407998 50.91480921790935,215.15894022281282 51.71042689832393,215.4344295838382 52.44484321877826,215.86296856874833 53.944276539608836,216.1996777531458 54.92349830002058,216.7200464613852 55.78031734039541,217.14858536905376 56.30052890069783,217.69956392690074 56.851341140805744,218.4342019377509 57.73876086133532,219.44432907929877 58.564979221788235,220.24018672655802 59.32999622216448,220.94421457126737 60.27861730265431,221.4339730310603 61.013033622992225,222.01556115836138 61.533245183178224,221.61763244477334 62.298262183670886,221.12787399766967 62.69607102370355,220.0565272772801 62.78787306381855,219.53615881234873 63.461088024196215,218.09749285888392 64.10370230453555,216.2302876781905 64.40970910468604,215.1283302931697 64.62391386472154,213.9345429338282 64.68511522479821,212.1591664913576 64.47091046476271,210.2613498052815 64.34850774460938,208.85329193726648 64.53211182472296,208.11865293909796 65.20532678510062,207.16974412102718 66.06214582547545,207.16974412102718 66.98016622592695,207.35340390208876 67.95938798645511,207.44523379090242 69.73422742739785,208.14926289889263 70.77465054788627,208.54719236399978 71.50906686810777,208.30231269577052 72.09047978848685,208.3329226547503 71.96807706844993,209.2206114079454 72.91669814882334,210.0164701960166 74.29372874950059,210.87354879151098 74.813940309803,211.45513777964516 75.2117491500685,211.88367700378876 75.67075935017783,212.5264857916045 76.25217227055691,213.53661376965465 76.49697771063074,214.45491180731915 76.25217227055691,214.9446707124007 75.85436343040783,215.46503951220075 76.16037023055833,216.1996777531458 76.61938043066766,216.9343159184209 77.01718927093316,218.64847134338925 76.77238383085933,219.16883987304755 77.17019267089199,220.08713718591025 77.93520967138465,220.76055514020845 79.03683415194973,221.5258027385571 79.43464299209882,221.89312155655352 79.9242538723629,222.19922055723146 80.71987155266106,222.5359294426744 82.24990555352997,222.903248208866 83.59633547416888,223.2093471661792 84.48375519458205,223.48483621660853 85.70778239518404,223.91337471833685 86.68700415559579,224.4031329745776 87.69682659616228,225.19899006938795 88.40064223657828,225.7499680062174 89.13505855691619,226.545824951143 89.41046467702836,227.15802254079608 89.68587079725694,227.58656082238303 90.26728371740319,228.07631882699206 90.6650925577851,228.62729654216673 91.00170003785752,229.0558347356855 91.82791839819402,229.7292518452159 92.99074423883576,230.67815766460262 93.90876463928726,231.53523378045065 94.61258027970325,232.392309793795 94.91858707985375,232.14743094332516 95.10219115996733,231.504623921006 95.46939932007808,230.98425628920086 95.10219115996733,230.49449848360382 93.87816395924892,229.69864197797142 93.38855307898484,229.2088840843062 92.56233471864834,228.53546692588134 92.22572723845951,228.13753857527627 91.76671703823376,227.43351143901236 91.03230071789585,226.79070399323246 90.60389119759202,226.66826447326457 90.1754816774046,225.62752846837975 89.28806195699144,224.49496264389018 88.46184359665494,223.8215450415155 88.00283339631278,223.3317867454607 87.57442387612537,222.96446800144622 86.3809973555617,222.5359294426744 86.07499055529479,222.22983045649016 85.09576879488304,221.86251165578142 83.53513411420863,221.86251165578142 82.92312051379122,221.74007205135422 82.55591235368047,221.58702254283708 81.17888175300322,221.2809235159075 80.10785795247648,220.88299476145767 79.00623347179499,220.24018672655802 78.8226293916814,219.93408764194464 78.76142803172115,218.4342019377509 79.03683415194973,217.45468457310926 79.28163959202357,216.7812663068762 79.22043823206332,216.3221174525679 79.25103891198523,214.79162105813157 78.97563279187307,213.65905351476977 78.0882130714599,212.31221620214637 77.17019267089199,211.45513777964516 76.00736683048308,210.62866920325905 75.18114846991375,210.07769009907497 73.83471854939125,209.12878154206555 73.19210426905192,208.60841227968922 71.99867774848826,208.24109277746174 71.41726482810918,207.9962130986969 71.05005666799843,207.96560313826194 70.56044578773435,207.5064537160215 70.43804306769744,207.16974412102718 69.30581790709402,206.64937471546 68.47959954664111,206.40449498203816 67.40857574611437,206.00656539719785 66.12334718555212,206.00656539719785 65.26652814517729,205.85351555095986 63.92009822442196,205.85351555095986 62.665470343781635,205.88412552053342 62.084057423402555,206.0983953033574 61.441443143296055,206.64937471546 61.41084246314131,207.53706367849372 62.05345674359705,208.4553624893888 62.84907442389522,209.74098062556004 63.093879864085466,210.2613498052815 63.06327918393072,210.68988910107873 63.3386853041593,211.88367700378876 63.369285984081216,212.25099631823832 63.369285984081216,212.64892555418191 63.30808462400455,213.87332306383178 63.2468832640443,215.22016008174978 62.4206649037078,217.08736552670598 62.23706082359422,217.45468457310926 61.227238383027725,218.40359202219406 60.40102002280764,218.4954217686318 59.29939554212615,218.0362730245688 58.10596902156249,217.30163497274043 57.64695882133674,216.87309607421048 56.75953910080716,216.35272737720516 56.20872686058283,216.1078479771386 55.29070646013133,215.7099189342116 54.739894219907,215.40381965530105 54.15848129952792,215.25077001098543 53.45466565922834,214.9752806428587 52.84265205892734,214.73040119552752 51.863430298515595,214.73040119552752 51.282017378136516,214.5773515367182 50.425198337761685,214.30186214257265 49.72138269734569,213.32234421058092 49.20117113715969,212.64892555418191 48.619758216897026,212.28160626022145 47.6711371364072,212.1285565488506 46.72251605591737,211.97550683422014 45.80449565546587,212.37343608547235 44.82527389493771,212.71014543465571 44.36626369471196,212.64892555418191 43.6930487343343,212.58770567306783 42.928031734074466,212.55709573248168 42.19361541373655,212.77136531454744 41.88760861358605,212.61831561371218 41.42859841324389,212.8631951335119 41.061390253016725,213.56722370616626 41.336796373245306,214.1488124745665 42.37721949373372,214.33247207576642 42.89743105391972,214.21003234217642 42.16301473369822,213.96515286859358 41.61220249335747,213.65905351476977 40.35757461283356,213.99576280324254 39.500755572342314,214.21003234217642 39.16414809215348,214.60796146880602 38.460332451737486,215.74052886140998 38.03192293155007,216.2302876781905 37.45051001140382,216.3221174525679 36.71609369106591,217.05675560538657 35.76747261045966,217.5465143317124 35.155459010158665,218.18932260922156 34.604646769934334,218.89335065614432 34.145636569708586,219.41371916799108 33.288817529333755,220.5768957043765 32.49319984903559,221.58702254283708 32.156592368730344,221.86251165578142 31.54457876831293,222.4134898498305 30.657159047899768,223.23995706124697 30.28995088778902,223.5460560041247 29.708537967526354,224.1888637415832 29.035323007265106,224.80106153310044 28.453910086886026,225.19899006938795 27.168681526207365,226.05606684164377 26.403664525947534,226.69887435348937 24.690026444965042,227.73961020243587 23.221193804289214,228.4742471810896 21.752361163613386,228.9333952544839 21.109746883274056,229.27010382286971 19.855119002633728,229.8516913128551 19.120702682295814,230.49449848360382 18.26388364180457,231.22913517948473 17.529467321466655,232.3310900819488 17.31526256131474,232.69840834505158 16.886853041127324,233.2187758522923 16.366641480941325,234.2289009054075 15.968832640675828,235.33085534640122 15.754627880640328,237.07561619806802 15.724027200601995,237.99391121260123 15.724027200601995,239.0346454201499 15.999433320830576,239.34074368781876 15.418020400335081,240.22842858999502 15.50982244045008,240.93245446885703 15.326218360452913,241.4528213783633 15.265017000376247,242.49355508422013 14.836607480188832,243.2281905504642 14.530600680038333,243.77916710084537" stroke="#4DD2FF" stroke-dasharray="none" stroke-linecap="round" stroke-linejoin="round" stroke-width="0.5"><title>2026-06-16 10.1km</title><desc>9223370255286294807</desc></polyline><polyline fill="none" opacity="1" points="109.18367346946616,230.80279019405134 109.76530612260103,230.0984972838196 111.26530612260103,229.30233999755 112.6122448979877,228.72053269390017 113.07142857147846,228.4449397441931 114.47959183692001,227.8325109288562 115.61224489810411,227.34256783878664 116.68367346958257,226.6382745881565 118.09183673479129,225.6277667596587 119.43877551029436,224.70912315533496 120.75510204094462,223.42302191100316 122.04081632662565,222.0450560352765 123.32653061230667,220.6670898939483 123.7244897960918,219.80968860519351 124.52040816342924,219.01353017351357 125.25510204094462,218.40110055031255 126.29591836745385,217.32934858329827 126.78571428579744,217.1149981705821 127.6122448979877,216.07386750302976 128.19387755112257,215.9820030250703 128.56122448982205,215.46143762761494 128.53061224508565,214.8490076996386 129.44897959183436,214.05284871469485 131.19387755100615,213.86911970557412 132.1122448981041,213.86911970557412 133.55102040816564,214.02222721354337 134.31632653065026,214.32844221958658 136.06122448982205,214.23657771910075 136.64285714295693,214.05284871469485 137.68367346946616,214.38968521915376 138.51020408177283,214.42030671873363 139.64285714295693,214.45092821825529 140.6224489796441,214.8490076996386 141.08163265313487,215.00211518653668 141.84693877550308,215.15522267023334 142.8877551020123,215.6145451013581 143.28571428591385,215.7370310779661 144.4795918368036,216.28821794700343 145.79591836745385,216.80878328409744 146.31632653065026,217.39059155713767 146.65306122449692,217.57432047562907 146.92857142863795,218.12550720275613 147.41836734698154,218.43172203272115 147.75510204094462,218.82980129210046 148.1224489796441,219.4116094004712 149.40816326532513,220.544604001916 150.54081632662565,221.21827638236573 151.91836734709796,221.27951932291035 152.3775510204723,220.6670898939483 152.98979591846,218.79917981137987 153.78571428568102,217.08437668252736 154.30612244911026,215.40019463718636 154.70408163277898,213.86911970557412 154.67346938780975,213.2566896409844 154.70408163277898,211.32753459352534 154.79591836745385,210.960076430114 154.52040816331282,209.58210814849008 154.42857142863795,209.03092076122994 154.33673469396308,208.60221943061333 154.4897959183436,207.95916738628875 154.82653061230667,207.16300763189793 155.71428571431898,206.76492772134952 157.03061224496923,207.00989997660508 158.7448979592882,207.37735834374325 160.3673469388159,208.08165349444607 161.3775510203559,208.29600417864276 161.80612244899385,208.81657009915216 162.8775510204723,209.6739727089298 164.10204081633128,210.3170245984802 164.65306122461334,210.80696885642828 165.5102040816564,211.8174787820899 166.0,212.76674555137288 166.48979591846,213.65476918889908 166.55102040816564,214.1753347181948 166.18367346934974,215.18584416649537 166.42857142863795,216.01262451778166 167.07142857147846,217.35997007030528 167.13265306130052,218.03364275116473 167.13265306130052,218.79917981137987 167.59183673467487,219.84031008160673 168.44897959183436,220.75895431166282 169.27551020414103,221.27951932291035 169.55102040816564,221.55511254875455 170.7448979591718,222.1369204352959 172.48979591846,222.68810681038303 173.7755102040246,223.05556437012274 174.5102040816564,223.05556437012274 175.06122448993847,223.23929314286215 176.22448979585897,223.91296526941005 177.05102040828206,224.3722871374921 177.69387755112257,224.80098752107006 178.6122448979877,225.44403804821195 179.3775510204723,226.48516735062003 179.71428571431898,227.128217726422 180.1122448979877,227.55691794480663 180.38775510212872,227.8631323708105 181.58163265313487,229.0879899438587 182.43877551029436,229.85352582053747 183.2346938776318,230.6803044754779 184.45918367349077,231.78267586691072 184.88775510212872,231.90516156656668 184.79591836733744,231.84391871700063 185.19387755112257,230.98651876789518 185.5,230.6496830455144 185.04081632650923,230.00663298607105 183.4795918368036,228.9655041960068 182.43877551029436,227.98561813757988 182.2244897959754,227.74064660206204 181.39795918378513,226.60765314096352 180.3571428572759,225.5359024045756 179.59183673467487,224.5866373325116 178.67346938780975,223.54550775373355 177.93877551017795,222.99432144477032 177.17346938780975,222.35127069731243 176.31632653065026,221.67759842361556 175.1224489796441,221.21827638236573 174.47959183668718,221.0651690287632 173.80612244899385,221.27951932291035 172.70408163266256,221.1876549119479 171.38775510212872,220.97330461500678 170.68367346946616,220.69771136669442 169.30612244899385,219.9015530339093 168.81632653065026,218.40110055031255 169.0,217.54369898955338 169.2448979591718,216.50256838451605 169.27551020414103,214.81838620186318 169.0918367347913,213.5016616730718 168.08163265313487,211.78685727115953 167.13265306130052,211.0213194586686 166.5204081631964,210.4701321827015 166.21428571431898,210.2251600464224 165.69387755112257,209.8883233452798 164.68367346946616,209.30651446024422 163.4897959183436,208.35724723007297 162.8469387757359,207.92854585894383 161.68367346946616,207.561087520211 161.43877551029436,207.07114303909475 160.91836734698154,207.07114303909475 160.58163265313487,206.67306312342407 159.29591836733744,206.15249704621965 157.79591836745385,205.8156601525261 156.66326530603692,205.54006631847005 155.19387755100615,205.47882324282546 154.82653061230667,205.50944478070596 152.8673469388159,205.35633708984824 152.07142857147846,205.54006631847005 151.48979591846,206.18311858124798 151.45918367349077,207.04052150796633 152.43877551029436,208.47973333142 152.92857142863795,209.3983790242346 153.14285714295693,210.04143093863968 152.8673469388159,210.50075369921979 153.41836734698154,211.32753459352534 153.38775510212872,211.72561424929881 153.32653061242308,212.12369388272054 153.20408163266256,213.1035821166006 153.23469387751538,214.38968521915376 153.05102040828206,214.9408721922082 152.8673469388159,215.7370310779661 152.53061224496923,216.38008242100477 152.1326530611841,217.0537551943562 151.30612244911026,217.81929235963617 150.7244897959754,218.03364275116473 149.95918367349077,217.97239978285506 149.10204081633128,217.51307750336127 148.6428571428405,217.29872709611664 147.17346938792616,216.19635347177973 146.2244897959754,215.7370310779661 145.48979591846,215.3389516461757 144.69387755112257,214.9408721922082 143.7142857144354,214.63465721247485 143.40816326532513,214.48154971766053 142.79591836745385,214.42030671873363 141.9693877552636,214.38968521915376 141.38775510212872,214.14471321750898 140.6224489796441,213.83849820360774 139.8571428572759,212.79736705793766 139.42857142863795,212.52177349390695 138.38775510212872,212.00120784400497 136.8571428572759,211.75623576028738 135.6020408164477,212.0624508635956 135.14285714295693,212.21555841027293 134.6224489796441,212.0624508635956 133.76530612260103,211.848100292671 132.90816326544154,212.0624508635956 132.08163265313487,212.21555841027293 131.80612244911026,212.1543153920793 131.13265306130052,213.16482512670336 131.3775510204723,213.77725519920932 132.02040816342924,213.86911970557412 132.81632653065026,213.89974120736588 132.69387755112257,213.53228317655157 132.17346938780975,213.5016616730718 131.50000000011642,213.04233910591574 130.48979591846,213.4404186658212 129.41836734709796,213.83849820360774 128.68367346946616,214.6040357137099 128.53061224508565,215.36957314179745 127.7346938776318,215.9207600391237 127.30612244911026,216.0432460104348 125.95918367349077,217.08437668252736 125.01020408165641,218.24799313629046 124.39795918366872,218.73793684958946 123.32653061230667,220.0852818878484 122.74489795928821,220.69771136669442 122.37755102058873,221.03454755758867 121.67346938792616,221.73884136014385 120.93877551029436,222.68810681038303 120.41836734709796,223.20867168111727 119.56122448982205,224.12731547816657 118.61224489810411,224.64788024418522 118.21428571431898,224.92347334022634 117.54081632674206,225.59714530804195 116.86734693893231,225.84211691707605 115.61224489810411,226.822003268986 114.29591836745385,227.46505361452 113.40816326532513,227.89375381270656 111.69387755112257,228.65928981715115 109.97959183680359,229.42482573969755 108.44897959195077,230.61906161543448 107.43877551029436,231.50708303495776 106.94897959195077,232.51759003358893 106.67346938780975,232.9462899293285 106.18367346946616,233.8343110603746 106.00000000011642,234.32425370626152 105.75510204094462,235.3347603076836 105.72448979597539,236.13091692357557 105.66326530626975,237.4170158857596 105.47959183680359,238.30503646301804 105.72448979597539,239.07057135523064 105.57142857159488,240.23418423498515 105.63265306130052,240.72412644373253 105.17346938780975,241.7958749087411 105.32653061242308,242.22457424999448 104.62244897976052,243.44942936958978 104.68367346946616,244.15372096881038" stroke="#4DD2FF" stroke-dasharray="none" stroke-linecap="round" stroke-linejoin="round" stroke-width="0.5"><title>2026-06-11 10.2km</title><desc>9223370255717407907</desc></polyline></svg>