<?xml version="1.0" encoding="utf-8" ?>
<svg baseProfile="full" height="300mm" version="1.1" viewBox="0,0,200,300" width="200mm" xmlns="http://www.w3.org/2000/svg" xmlns:ev="http://www.w3.org/2001/xml-events" xmlns:xlink="http://www.w3.org/1999/xlink"><defs /><rect fill="#222222" height="300" width="200" x="0" y="0" /><text fill="#FFFFFF" style="font-size:12px; font-family:Arial; font-weight:bold;" x="10" y="20">Over 10km Runs</text><text fill="#FFFFFF" style="font-size:4px; font-family:Arial" x="10" y="280">Runner</text><text fill="#FFFFFF" style="font-size:9px; font-family:Arial" x="10" y="290">Yanfu</text><text fill="#FFFFFF" style="font-size:4px; font-family:Arial" x="65" y="280">SPECIAL TRACKS</text><rect fill="yellow" height="2.6" width="2.6" x="65" y="283" /><text fill="#FFFFFF" style="font-size:3px; font-family:Arial" x="70" y="285.5">Over 20.0 km</text><rect fill="red" height="2.6" width="2.6" x="65" y="287" /><text fill="#FFFFFF" style="font-size:3px; font-family:Arial" x="70" y="289.5">Over 40.0 km</text><text fill="#FFFFFF" style="font-size:4px; font-family:Arial" x="120" y="280">STATISTICS</text><text fill="#FFFFFF" style="font-size:3px; font-family:Arial" x="120" y="285">Number: 3</text><text fill="#FFFFFF" style="font-size:3px; font-family:Arial" x="120" y="290">Weekly: 1.5</text><text fill="#FFFFFF" style="font-size:3px; font-family:Arial" x="141" y="285">Total: 30.4 km</text><text fill="#FFFFFF" style="font-size:3px; font-family:Arial" x="141" y="290">Avg: 10.1 km</text><text fill="#FFFFFF" style="font-size:3px; font-family:Arial" x="167" y="285">Min: 10.1 km</text><text fill="#FFFFFF" style="font-size:3px; font-family:Arial" x="167" y="290">Max: 10.2 km</text><polyline fill="none" opacity="1" points="14.5,97.33723713707877 14.796160877565853,96.32999088737415 15.033089579665102,95.50049386644969 15.714259597938508,95.23386980296345 16.33619744051248,93.8414995278581 16.484277879470028,93.30825126363197 17.076599634368904,92.62687842204468 17.135831809951924,92.06400515470887 17.46160877519287,90.84938373835757 17.372760511934757,90.01988606376108 17.757769652525894,89.30888797825901 18.083546617883258,88.44976519449847 17.96508226695005,87.29439300741069 18.083546617883258,85.9316460780683 18.142778793466277,85.63539671024773 18.468555758707225,85.07252287655137 18.646252285223454,83.32465120730922 18.70548446069006,82.93952688196441 19.12010968918912,81.48790423292667 19.89012797072064,80.89540510514053 19.978976233978756,80.59915552230086 20.12705667281989,79.88815647177398 20.21590493596159,79.29565720737446 20.897074954234995,78.76240782608511 21.548628884833306,77.16265943599865 22.25941499089822,76.42203505634097 23.118281535687856,75.85916047473438 24.30292504571844,75.47403573465999 25.9021937843645,74.64453622186556 27.323765996377915,73.93353656033287 28.03455210244283,73.57803670217982 29.011882998165675,73.04478688078234 29.959597806213424,72.4226620371337 30.907312614261173,71.74128714425024 31.6477148081176,71.08953718392877 32.891590493614785,69.93416210339637 33.57276051188819,69.25278696540045 34.16508226690348,68.57141176029108 35.05356489948463,67.68266139185289 35.37934186484199,67.03091104904888 35.76435100543313,66.43841068405891 36.8305301645305,65.04603462637169 37.719012797111645,64.30540894949809 38.19287020107731,64.06840871612076 38.90365630714223,63.41665803239448 39.79213893960696,63.00190756522352 40.265996343805455,62.02428136556409 40.71023765997961,61.63915585493669 41.09524680080358,61.10590511246119 42.45758683735039,60.80965468217619 42.99067641678266,60.80965468217619 44.14570383913815,60.80965468217619 44.856489945203066,60.78002963837935 45.33034734928515,60.60227937338641 45.774588665459305,60.987404941930436 46.18921389395837,61.25403032283066 46.574223034782335,61.25403032283066 47.25539305305574,61.16515519696986 47.69963436934631,61.10590511246119 48.854661791585386,60.957779898890294 49.950457038357854,61.25403032283066 51.164716636179946,61.3429054475273 51.60895795247052,61.431780571118 52.7343692870345,61.84653113252716 53.80054844613187,62.46865692792926 55.07404021942057,62.735282251785975 56.28829981724266,63.32778293435695 57.41371115169022,64.06840871612076 57.79872029251419,64.42390906310175 58.21334552101325,64.80903441843111 58.77605118835345,65.54966004134621 59.13144424126949,66.02366039832123 59.457221206626855,66.20141052384861 60.434552102466114,67.14941111597 61.145338208414614,67.97891152731609 61.55996343691368,68.45291171775898 62.24113345518708,68.00853654026287 63.336928702075966,66.52728574204957 63.5738574040588,66.08291044068756 64.40310786105692,64.69053431140492 64.99542961618863,63.031532599416096 65.23235831805505,61.9354062495986 65.61736745887902,60.78002963837935 65.67659963446204,59.95052836247487 65.67659963446204,58.6174011027324 65.67659963446204,57.817524623300415 65.49890310794581,56.691772383928765 65.23235831805505,55.86227061622776 65.558135283296,54.677267917839345 66.29853747715242,54.025516346795484 67.9866544790566,54.17364170931978 69.28976234002039,54.49951749545289 70.53363802551758,54.94389354274608 71.74789762345608,55.35864449426299 72.42906764172949,55.595645026885904 73.28793418663554,56.691772383928765 74.85758683725726,57.61014922463801 75.44990859238897,58.26190045668045 76.45685557590332,59.44690253905719 76.9603290676605,61.01702998467954 76.60493601462804,61.69840593490517 76.42723948811181,62.20203159394441 76.51608775125351,62.70565721625462 77.01956124301068,63.38703299983172 77.31572212069295,64.21653386292746 77.46380255941767,65.2534098016913 77.37495429615956,66.0532854195917 77.43418647162616,66.70503585459664 78.88537477143109,67.62341136322357 79.24076782446355,67.80116144759813 80.04040219390299,68.30478666181443 81.4915904935915,68.98616189317545 82.82431444246322,69.31203698005993 83.59433272399474,69.46016201446764 84.18665447901003,69.6379120516358 85.22321755019948,69.874912094092 86.43747714813799,70.58591217256617 87.53327239491045,71.20803718134994 88.00712979887612,71.47466216789326 88.62906764168292,71.94866211875342 88.95484460692387,72.12641209195135 89.54716636193916,73.81503660965245 89.66563071298879,74.1112864825991 90.10987202927936,74.25941141427029 90.9983546618605,75.08891097322339 91.94606946990825,75.79991051612888 92.47915904934052,76.39241007948294 93.21956124319695,77.07378451467957 94.13765996345319,77.75515888282098 94.61151736741886,78.4957831200445 94.75959780625999,78.19953343464294 94.87806215730961,77.6959089403972 94.84844606940169,76.51090998604195 94.1968921389198,75.94803541171132 93.24917733087204,75.17778592009563 92.95301645330619,74.8519111094065 92.18299817189109,74.3779113573255 91.53144424129277,73.54841171321459 90.85027422301937,73.04478688078234 90.61334552103654,72.83741193910828 90.08025594160426,71.71166214742698 89.93217550276313,71.23766218032688 89.07330895808991,70.61553717422066 88.27367458865047,69.93416210339637 87.44442413165234,69.1639119424508 86.49670932360459,68.39366169576533 85.57861060334835,67.97891152731609 84.66051188309211,68.00853654026287 83.94972577691078,68.18628661468392 82.94277879351284,67.94928651442751 81.58043875684962,67.71228640596382 80.51425959786866,67.32716121245176 79.65539305296261,67.20866114861565 79.18153564911336,66.08291044068756 79.00383912248071,65.04603462637169 79.44808043877129,64.09803374571493 79.77385740412865,63.031532599416096 79.71462522854563,61.57990577450255 79.50731261423789,60.36527901288355 78.7669104206143,59.32840233994648 78.11535649001598,58.55815099639585 76.69378427788615,57.49164899397874 75.65722120658029,56.928772870625835 74.76873857399914,56.188146322616376 74.29488117014989,55.83264555124333 73.34716636198573,55.151269021618646 72.01444241323043,54.706892987771425 71.59981718461495,54.440267353726085 71.33327239495702,53.96626620099414 70.5928702011006,53.640390389598906 69.73400365642738,53.37376471422613 68.96398537477944,53.25526441074908 68.22358318115585,52.95901364320889 66.68354661797639,52.8405133325723 65.32120658142958,52.78126317652641 64.7585009142058,52.69238794146804 63.54424131626729,52.66276286286302 63.0111517367186,52.8405133325723 62.56691042042803,53.166389181802515 62.41882998181973,53.72926561237546 62.507678244961426,54.203266781405546 62.89268738578539,54.91426847380353 63.12961608776823,55.47714476165129 63.5738574040588,56.010395939229056 64.04771480802447,56.928772870625835 63.92925045709126,57.7286494532018 63.95886654476635,58.20265034720069 64.19579524674919,59.35802738997154 64.10694698360749,60.69115450652316 64.07733089593239,61.78728105389746 63.39616087754257,63.56478319322923 62.38921389402822,64.66090928431368 61.737659963429905,65.07565965177491 60.345703839208,64.60165922978194 59.90146252280101,64.57203420234146 59.30914076778572,64.09803374571493 58.71681901277043,63.35740796709433 57.917184643563814,62.91303246183088 57.44332723948173,62.646407144959085 56.76215722109191,62.29090670647565 55.93290676409379,62.113156480307225 55.60712979885284,61.9354062495986 54.83711151732132,61.75765601429157 54.33363802556414,61.461405612004455 53.889396709389985,60.957779898890294 53.089762340066954,61.16515519696986 51.66819012805354,59.98015340970596 50.92778793419711,59.59502778504975 50.631627056747675,59.18027708824957 49.38775137125049,58.49890088947723 48.380804387503304,58.35077561996877 47.25539305305574,58.913651627197396 46.90000000002328,59.269152239663526 45.74497257778421,59.506152637826744 45.30073126137722,59.269152239663526 44.382632541120984,59.091401935729664 43.73107861063909,59.35802738997154 43.1387568556238,59.44690253905719 42.75374771479983,59.83202817197889 42.694515539333224,60.36527901288355 42.93144424131606,60.750404594582506 43.73107861063909,60.89852981257718 44.4714808043791,61.01702998467954 44.234552102396265,60.66152946220245 43.55338208412286,60.57265432877466 41.98372943326831,60.51340423920192 40.917550274170935,60.78002963837935 40.08829981717281,61.72803097468568 39.70329067646526,62.735282251785975 39.08135283365846,62.82415735744871 38.42979890317656,63.62403325660853 37.21553930535447,64.33503397804452 36.090127970674075,65.57928506459575 35.26087751367595,66.31991060497239 34.66855575866066,67.23828616482206 34.16508226690348,67.8307864611852 33.72084095061291,68.24553663848201 33.21736745885573,68.98616189317545 32.328884826391004,69.7860370791168 31.41078610601835,70.94141218438745 30.43345521017909,71.77091214101529 28.834186471649446,72.74853696220089 27.827239488135092,73.31141179666156 27.027605118928477,73.72616164531792 25.81334552098997,74.31866138603073 25.191407678183168,74.49641129840165 24.214076782460324,75.08891097322339 23.20712979894597,75.62216063722735 22.200182815431617,76.06653532583732 21.785557586932555,76.15541026019491 20.482449725735933,77.22190938302083 20.186288848286495,77.6959089403972 19.830895795254037,78.4957831200445 19.238574040238746,79.20678231335478 18.883180987206288,80.09553120238706 18.527787934290245,81.69527891563484 18.350091407774016,82.6136524361209 18.202010968932882,83.7690254022018" stroke="#4DD2FF" stroke-dasharray="none" stroke-linecap="round" stroke-linejoin="round" stroke-width="0.5"><title>2026-06-20 10.1km</title><desc>9223370254938036107</desc></polyline><polyline fill="none" opacity="1" points="107.9506726458203,82.99345950694988 108.3441704036668,82.66040012630401 108.37443946185522,81.90344693046063 109.19170403596945,81.38871871109586 109.73654708534013,80.29870588786434 110.34192825108767,78.99674590682844 111.46188340801746,78.23979231942212 112.70291479828302,77.7250638337573 113.52017937228084,77.33144790772349 114.03475336323027,77.1497790114372 115.03363228705712,76.60477229446406 115.5784753364278,76.36254707345506 117.15246636781376,75.45420242083492 117.66704035876319,75.21197716047755 118.7869955158094,74.39446684537688 120.239910313976,73.33473111112835 121.23878923768643,72.45666423952207 121.87443946185522,71.69970995245967 122.08632286998909,71.39692821481731 122.69170403585304,70.91247740777908 123.90246636769734,69.67107206309447 124.62892376689706,68.42966650030576 125.23430493287742,67.91493730054935 125.44618834077846,67.67271178174997 125.99103139014915,66.82492240064312 126.71748878923245,66.21935849467991 127.77690582955256,65.49268173892051 128.32174887903966,64.91739592101658 129.1692825112259,64.43294466938823 129.77466367720626,63.13098176603671 130.86434977583122,62.76764323853422 132.10538116598036,62.79792144987732 133.04372197308112,62.7373650270747 133.89125560538378,62.7373650270747 134.73878923768643,63.191538185521495 136.01008968625683,63.2520946044242 136.85762331844307,63.00986892567016 137.16031390137505,62.88875608314993 137.49327354272828,62.88875608314993 139.24887892371044,63.433763858047314 140.39910313906148,63.40348564949818 141.0650224215351,63.191538185521495 141.39798206277192,63.64571131474804 142.1849775784649,63.918215178186074 142.9114349776646,64.34211005602265 144.39461883425247,64.67517029930605 145.36322869965807,65.18989973532734 146.2107623318443,65.61379453673726 146.72533632302657,66.15880210121395 147.27017937216442,66.88547878834652 148.14798206277192,67.88465911109233 148.96524663676973,68.67189199314453 149.7219730942743,69.36829023860628 150.66031390137505,69.85274115158245 151.38677130045835,70.42802656750428 151.9013452915242,70.0344102352974 152.65807174902875,69.54995933489408 153.05156950675882,68.49022287421394 153.14237668167334,67.97549367888132 153.80829596414696,66.55241864942946 154.44394618831575,64.70544850244187 154.74663677136414,63.615433107013814 154.9585201793816,62.43458290520357 155.01905829599127,60.678446341946255 154.80717488797382,58.80119642865611 154.68609865463804,57.40839778265217 154.86771300446708,56.68172011896968 155.53363228705712,55.74309469235595 156.38116591924336,55.74309469235595 157.2892376681557,55.92476413951954 158.2578475336777,56.015598861384206 160.0134529150091,56.71199835644802 161.04260089702439,57.105615431966726 161.76905829599127,56.86338954191888 162.3441704036668,56.89366777858231 162.22309417044744,57.771736586408224 163.1614349776646,58.55897059687413 164.5235426009167,59.40676097146934 165.03811659198254,59.98204723885283 165.43161434994545,60.40594235336175 165.8856502242852,61.04178497713292 166.46076233196072,62.040966127300635 166.70291479828302,62.94931250461377 166.46076233196072,63.433763858047314 166.06726457411423,63.94849338463973 166.3699551570462,64.67517029930605 166.82399103138596,65.40184713923372 167.21748878923245,67.09742614143761 166.97533632291015,67.61215540074045 167.36883408075664,68.52050106110983 168.12556053814478,69.18662113772007 169.21524663688615,69.94357569410931 169.60874439473264,70.3069138522842 170.09304932749365,70.6096956365509 170.8800448430702,70.94275558419758 172.3934977578465,71.30609369109152 173.72533632291015,71.60887543251738 174.60313901351765,71.88137898873538 175.81390134536196,72.30527338857064 176.78251121076755,72.78972410026472 177.7813901345944,73.57695643574698 178.47757847537287,74.12196338601643 179.20403587445617,74.90919557330199 179.47645739919972,75.51475873461459 179.74887892382685,75.9386529167532 180.32399103138596,76.42310337949311 180.71748878934886,76.9681101104361 181.05044843058567,77.39200420549605 181.86771300446708,78.05812344647711 183.01793721981812,78.99674590682844 183.92600896873046,79.84453382861102 184.62219730950892,80.69232164899586 184.9248878924409,80.45009656774346 185.10650224226993,79.81425569031853 185.46973094181158,79.29952731908998 185.10650224226993,78.81507705326658 183.89573991042562,78.027845300443 183.4114349776646,77.54339494754095 182.5941704036668,76.87727565818932 182.26121076242998,76.4836596850655 181.80717488797382,75.78726214036578 181.0807174888905,75.15142084396211 180.65695067262277,75.03030820970889 180.23318385647144,74.00085073406808 179.35538116598036,72.8805586049566 178.53811659198254,72.21443887642818 178.08408071752638,71.72998812544392 177.66031390137505,71.36665004043607 176.479820627952,70.94275558419758 176.1771300449036,70.63997381419176 175.208520179498,70.27663567312993 173.6647982064169,70.27663567312993 173.0594170403201,70.15552295529051 172.69618834089488,70.00413205503719 171.3340807176428,69.70135024480987 170.27466367732268,69.30773387220688 169.1849775784649,68.67189199314453 169.00336322863586,68.3691101258155 168.9428251121426,66.88547878834652 169.21524663688615,65.91657652222784 169.45739910320845,65.25045613705879 169.39686098671518,64.79628311115084 169.4271300449036,63.28237281367183 169.15470852016006,62.16207898437278 168.27690582966898,60.829837442259304 167.36883408075664,59.98204723885283 166.21860986563843,59.1645351605257 165.4013452915242,58.61952705559088 164.06950672657695,57.680901887244545 163.43385650229175,57.16617190313991 162.2533632288687,56.80283306812635 161.67825112107676,56.560607167717535 161.3150224215351,56.5303289295407 160.8307174887741,56.07615534187062 160.70964125567116,55.74309469235595 159.58968609874137,55.22836456657387 158.77242152474355,54.986138612090144 157.71300448430702,54.59252141811885 156.44170403596945,54.59252141811885 155.5941704036668,54.441130183811765 154.26233183860313,54.441130183811765 153.02130044845399,54.47140843095258 152.44618834077846,54.683356157154776 151.8105381167261,55.22836456657387 151.78026905830484,56.10643358202651 152.41591928270645,57.014780724130105 153.20291479828302,58.28646652633324 153.44506726472173,58.80119642865611 153.41479820630047,59.22509161400376 153.68721973104402,60.40594235336175 153.71748878923245,60.769281002518255 153.71748878923245,61.16289785137633 153.65695067262277,62.374026479257736 153.5964125561295,63.706267729750834 152.7791479821317,65.55323813814903 152.59753363230266,65.91657652222784 151.59865470859222,66.85520059458213 150.78139013471082,66.94603517564246 149.69170403585304,66.49186225875746 148.51121076242998,65.76518553111237 148.0571748878574,65.34129073878285 147.1793721972499,64.82656131387921 146.63452914799564,64.58433568902547 145.7264573990833,64.19071903108852 145.18161434982903,63.887936971616 144.6065022421535,63.73654593707761 143.91031390137505,63.46404206653824 143.3049327353947,63.22181639500195 142.3363228699891,63.22181639500195 141.76121076231357,63.070425346144475 140.91367713012733,62.79792144987732 140.21748878923245,61.82901862252038 139.70291479828302,61.16289785137633 139.1278026907239,60.79955922247609 138.18946188350674,60.648168121580966 137.25112107628956,60.49677701742621 136.34304932737723,60.89039388141828 135.37443946185522,61.22345428774133 134.92040358751547,61.16289785137633 134.25448430492543,61.102341414487455 133.4977578476537,61.0720631959266 132.7713004485704,61.28401072352426 132.468609865522,61.13261963304831 132.01457399106584,61.374845376296435 131.65134529140778,62.07124434184516 131.92376681615133,62.64653039188124 132.9529147981666,62.82819966110401 133.46748878923245,62.70708681549877 132.74103139026556,62.464861117943656 132.19618834089488,62.16207898437278 130.95515695074573,62.495139330625534 130.10762331832666,62.70708681549877 129.77466367720626,63.1007035561488 129.07847533631139,64.22099723643623 128.65470852016006,64.70544850244187 128.07959641271736,64.79628311115084 127.35313901363406,65.52295993868029 126.41479820630047,66.00741111527896 125.80941704043653,66.6432532343315 125.26457399106584,67.33965167985298 124.81053811660968,67.8543809215771 123.96300448442344,69.00495203211904 123.17600896873046,70.00413205503719 122.84304932737723,70.27663567312993 122.23766816139687,70.82164287776686 121.35986547090579,71.6391536059673 120.99663677136414,71.94193533313228 120.42152466368861,72.5777769179549 119.7556053813314,73.183340278978 119.18049327365588,73.57695643574698 117.90919282508548,74.42474500683602 117.15246636781376,75.06058636854868 115.45739910320845,76.0900436899392 114.00448430504184,76.81671935605118 112.55156950687524,77.27089160948526 111.91591928259004,77.60395124350907 110.67488789244089,78.17923602898372 109.94843049335759,78.81507705326658 109.10089686093852,79.54175243963255 108.37443946185522,80.6317653793958 108.16255605383776,80.99510298873065 107.73878923768643,81.50983123673359 107.224215246737,82.50900949363131 106.8307174887741,83.59902197693009 106.61883408075664,85.32487473270157 106.5885650224518,86.23321811965434 106.5885650224518,87.26267381751677 106.86098654719535,87.56545487669064 106.28587443940341,88.4435198752326 106.37668161431793,89.13991617615102 106.19506726460531,89.65464383293875 106.13452914799564,90.68409903452266 105.71076233184431,91.41077320458135 105.40807174891233,91.9557787833619 105.49887892382685,93.07606789720012 105.31726457399782,93.65135142754298 105.1356502242852,94.2569129880867 105.01457399106584,94.89275257120607 104.5,95.6194263107609" stroke="#4DD2FF" stroke-dasharray="none" stroke-linecap="round" stroke-linejoin="round" stroke-width="0.5"><title>2026-06-16 10.1km</title><desc>9223370255286294807</desc></polyline><polyline fill="none" opacity="1" points="18.737847866374068,231.73451976495562 19.068460111273453,231.0129678004305 20.060296845971607,230.26135109207826 20.57124304259196,228.81824678683188 21.142300556530245,228.12675920221955 22.6150278293062,227.3450775030069 23.937476808787324,226.77384851395618 24.38831168820616,226.50326634512749 25.77087198512163,225.90197259915294 26.882931354339235,225.42093756532995 27.93487940635532,224.72944964648923 29.317439703037962,223.73731468763435 30.6398886826355,222.83537369425176 31.93228200369049,221.57265610888135 33.194619665970095,220.21974415821023 34.456957328366116,218.8668319467106 34.84768089046702,218.02501977229258 35.62912801478524,217.24333694850793 36.35046382190194,216.6420424093376 37.372356215142645,215.58977684169076 37.853246753220446,215.37932370923227 38.6647495359648,214.35712269018404 39.2358070500195,214.26692847546656 39.59647495346144,213.7558279033983 39.56641929491889,213.1545330650406 40.46808905364014,212.37284969794564 42.181261595455,212.1924612162984 43.08293135429267,212.1924612162984 44.495547309634276,212.34278495138278 45.246938775409944,212.64343241188908 46.9601113172248,212.55323817505268 47.531168831163086,212.37284969794564 48.55306122440379,212.70356190239545 49.36456400738098,212.7336266474449 50.47662337659858,212.76369139243616 51.438404452521354,213.1545330650406 51.889239332056604,213.30485677946126 52.64063079759944,213.4551804906805 53.66252319095656,213.90615160489688 54.053246753290296,214.0264105637907 55.225417439593,214.56757585331798 56.51781076064799,215.07867636613082 57.02875695726834,215.649906306935 57.35936920216773,215.83029469964094 57.62987012974918,216.3714598499355 58.110760667710565,216.67210713750683 58.441372912726365,217.06294859212358 58.8020408161683,217.6341783713433 60.06437847856432,218.7465730708791 61.176437847781926,219.4079968626611 62.52894248603843,219.46812629519263 62.97977736545727,218.8668319467106 63.5808905379381,217.03288386564236 64.36233766213991,215.3492589754751 64.87328385899309,213.69569842191413 65.26400742109399,212.1924612162984 65.23395176243503,211.59116624377202 65.26400742109399,209.69708674267167 65.35417439695448,209.33630963676842 65.08367346937303,207.983395323914 64.99350649339613,207.44222952547716 64.90333951753564,207.02132276451448 65.05361781059764,206.3899625755148 65.38423005561344,205.60827845305903 66.25584415567573,205.21743635903113 67.54823747673072,205.4579545733286 69.23135435988661,205.81873187923338 70.8243042670656,206.51022166357143 71.81614100164734,206.7206750625628 72.23692022252362,207.23177614819724 73.2888682744233,208.07358961959835 74.49109461950138,208.70494965661783 75.03209647489712,209.18598583713174 75.87365491641685,210.1781228550244 76.35454545437824,211.11013022850966 76.83543599257246,211.98200798174366 76.89554730977397,212.49310868326575 76.53487940621562,213.48524523247033 76.77532467525452,214.29699321376393 77.40649350639433,215.6198415744002 77.46660482371226,216.28126566112041 77.46660482371226,217.03288386564236 77.91743970301468,218.05508449458284 78.75899814453442,218.9570261022891 79.57050092762802,219.46812629519263 79.84100185520947,219.7387087350944 81.01317254162859,220.30993829638464 82.72634508344345,220.8511031010421 83.98868274572305,221.21187961421674 84.71001855283976,221.21187961421674 85.25102040823549,221.39226786384825 86.39313543587923,222.05369140626863 87.20463821885642,222.50466196762864 87.83580704999622,222.92556779884035 88.73747680883389,223.55692649818957 89.48886827449314,224.5791261769482 89.81948051939253,225.21048472769326 90.21020408149343,225.63139039668022 90.4807050091913,225.93203728762455 91.65287569572683,227.1346247229958 92.49443413724657,227.88624176557641 93.27588126156479,228.697988081316 94.47810760664288,229.78031635651132 94.89888682740275,229.90057504345896 94.80871985154226,229.84044570027618 95.19944341364317,228.99863484111847 95.5,228.66792340466054 95.04916512046475,228.03656516445335 93.51632653048728,227.01436598872533 92.49443413724657,226.05229604046326 92.28404452686664,225.811778532865 91.47254174388945,224.69938495289534 90.45064935064875,223.64712059346493 89.69925788487308,222.7151148864068 88.79758812603541,221.69291493628407 88.07625231903512,221.15175019658636 87.32486085337587,220.52039128093747 86.48330241173971,219.85896759404568 85.31113172543701,219.4079968626611 84.67996289406437,219.25767327909125 84.01873840438202,219.46812629519263 82.93673469382338,219.3779321461916 81.64434137288481,219.16747912735445 80.95306122442707,218.89689666539198 79.60055658617057,218.1152139386395 79.11966604809277,216.6420424093376 79.29999999993015,215.80022996786283 79.54044526885264,214.77802901016548 79.57050092762802,213.12446832173737 79.39016697579063,211.83168423891766 78.39833024109248,210.1480580989155 77.46660482371226,209.39643915573834 76.86549165099859,208.85527346655726 76.56493506487459,208.61475536914077 76.05398886825424,208.28404297161615 75.06215213355608,207.71281242999248 73.88998144702055,206.78080460400088 73.25881261599716,206.35989780322416 72.11669758812059,205.99912052520085 71.87625231908169,205.5180841255933 71.36530612234492,205.5180841255933 71.03469387744553,205.12724202650134 69.77235621504951,204.61614078714047 68.29962894238997,204.28542820055736 67.18756957305595,204.0148451635032 65.74489795905538,203.9547155983164 65.38423005561344,203.984780380968 63.46066790341865,203.8344564663712 62.67922077910043,204.0148451635032 62.10816326527856,204.6462055669981 62.0781076066196,205.48801934957737 63.039888682658784,206.90106368530542 63.52077922062017,207.80300672916928 63.73116883111652,208.43436679057777 63.46066790341865,208.8853382282541 64.00166975869797,209.69708674267167 63.97161410015542,210.08792858646484 63.9115027829539,210.47877040843014 63.79128014831804,211.44084249256412 63.821335806977004,212.70356190239545 63.641001855256036,213.24472729413537 63.46066790341865,214.0264105637907 63.13005565863568,214.65777006419376 62.73933209630195,215.31919424165972 61.927829313557595,216.07081254938385 61.35677179961931,216.28126566112041 60.60538033384364,216.22113620123127 59.763821892323904,215.7701652359683 59.31298701278865,215.55971210886491 57.870315398904495,214.47738164133625 56.93858998140786,214.0264105637907 56.217254174291156,213.63556893978966 55.43580704997294,213.24472729413537 54.474025974050164,212.94407985947328 54.173469387576915,212.79375613725279 53.572356215212494,212.7336266474449 52.76085343223531,212.70356190239545 52.18979591829702,212.46304393711034 51.438404452521354,212.16239646892063 50.687012986978516,211.14019498042762 50.26623376621865,210.86961220850935 49.24434137286153,210.3585113885929 47.74155844154302,210.11799334274838 46.509276437805966,210.41864089871524 46.05844155838713,210.56896467186743 45.54749536165036,210.41864089871524 44.70593692024704,210.2081876109005 43.8643784787273,210.41864089871524 43.0528756956337,210.56896467186743 42.78237476805225,210.50883516302565 42.12115027825348,211.50097199337324 42.361595547175966,212.10226697369944 42.992764378432184,212.1924612162984 43.77421150263399,212.22252596355975 43.653988868230954,211.86174898780882 43.143042671494186,211.83168423891766 42.48181818181183,211.38071299123112 41.48998144711368,211.7715547409025 40.438033395214006,212.16239646892063 39.71669758798089,212.91401511523873 39.56641929491889,213.6656336809392 38.78497217060067,214.20679899834795 38.3641929498408,214.3270579520031 37.041743970126845,215.3492589754751 36.110018552746624,216.49171876645414 35.50890538026579,216.97275441227248 34.456957328366116,218.2956022679573 33.885899814311415,218.89689666539198 33.52523191086948,219.22760856192326 32.83395176252816,219.9190970226191 32.11261595541146,220.8511031010421 31.601669758791104,221.36220315599348 30.76011131715495,222.26414433849277 29.82838589977473,222.77524429059122 29.437662337557413,223.04582660307642 28.77643784787506,223.7072499896749 28.115213357959874,223.94776756939245 26.882931354339235,224.90983780584065 25.590538033284247,225.5411963268998 24.718923933105543,225.96210197603796 23.03580705006607,226.71371914405609 21.35269016691018,227.46533623163123 19.849907235591672,228.63785872777225 18.85807050089352,229.50973430334125 18.377179962815717,230.5018684474635 18.10667903511785,230.92277379962616 17.625788497156464,231.79464909195667 17.44545454531908,232.27568368974607 17.205009276396595,233.26781744381879 17.17495361773763,234.0494984849356 17.11484230053611,235.31221382960211 16.934508348698728,236.18408857821487 17.17495361773763,236.93570465419907 17.02467532455921,238.07816093612928 17.08478664176073,238.5591951047536 16.63395176245831,239.6114572340157 16.784230055636726,240.0323620417621 16.09294990717899,241.2349470682675 16.153061224380508,241.92643336567562 15.702226345078088,243.038824223564 15.431725417496637,243.97082723974017 14.95083487930242,245.3237346248352 14.740445268922485,246.01522052154178" stroke="#4DD2FF" stroke-dasharray="none" stroke-linecap="round" stroke-linejoin="round" stroke-width="0.5"><title>2026-06-11 10.2km</title><desc>9223370255717407907</desc></polyline></svg>