<?xml version="1.0" encoding="utf-8" ?>
<svg baseProfile="full" height="300mm" version="1.1" viewBox="0,0,200,300" width="200mm" xmlns="http://www.w3.org/2000/svg" xmlns:ev="http://www.w3.org/2001/xml-events" xmlns:xlink="http://www.w3.org/1999/xlink"><defs /><rect fill="#222222" height="300" width="200" x="0" y="0" /><text fill="#FFFFFF" style="font-size:12px; font-family:Arial; font-weight:bold;" x="10" y="20">Over 10km Runs</text><text fill="#FFFFFF" style="font-size:4px; font-family:Arial" x="10" y="280">Runner</text><text fill="#FFFFFF" style="font-size:9px; font-family:Arial" x="10" y="290">Yanfu</text><text fill="#FFFFFF" style="font-size:4px; font-family:Arial" x="65" y="280">SPECIAL TRACKS</text><rect fill="yellow" height="2.6" width="2.6" x="65" y="283" /><text fill="#FFFFFF" style="font-size:3px; font-family:Arial" x="70" y="285.5">Over 20.0 km</text><rect fill="red" height="2.6" width="2.6" x="65" y="287" /><text fill="#FFFFFF" style="font-size:3px; font-family:Arial" x="70" y="289.5">Over 40.0 km</text><text fill="#FFFFFF" style="font-size:4px; font-family:Arial" x="120" y="280">STATISTICS</text><text fill="#FFFFFF" style="font-size:3px; font-family:Arial" x="120" y="285">Number: 4</text><text fill="#FFFFFF" style="font-size:3px; font-family:Arial" x="120" y="290">Weekly: 2.0</text><text fill="#FFFFFF" style="font-size:3px; font-family:Arial" x="141" y="285">Total: 40.5 km</text><text fill="#FFFFFF" style="font-size:3px; font-family:Arial" x="141" y="290">Avg: 10.1 km</text><text fill="#FFFFFF" style="font-size:3px; font-family:Arial" x="167" y="285">Min: 10.1 km</text><text fill="#FFFFFF" style="font-size:3px; font-family:Arial" x="167" y="290">Max: 10.2 km</text><polyline fill="none" opacity="1" points="14.5,96.6094984189258 15.131403117789887,95.19593765336322 15.281737193698063,94.65457388106734 15.883073496515863,93.96283122262685 15.9432071269257,93.39139158412581 16.27394209348131,92.15828483807854 16.18374164798297,91.31616303412011 16.574610244715586,90.59434426500229 16.905345211387612,89.72214648715453 16.785077950917184,88.54919068474555 16.905345211387612,87.16570410283748 16.96547884179745,86.86494611436501 17.29621380835306,86.2935059008305 17.476614699233323,84.51903336355463 17.53674832941033,84.12804782914463 17.95768374146428,82.65433292742819 18.73942093527876,82.05281655234285 18.829621380660683,81.75205834553344 18.979955456452444,81.03023859678069 19.07015590183437,80.4287220829865 19.761692650150508,79.88735717663076 20.423162583378144,78.26326220744522 21.1447661468992,77.51136626151856 22.016703786095604,76.93992528872332 23.219376391847618,76.5489393332391 24.84298440965358,75.70681566308485 26.28619153657928,74.98499529395485 27.007795100216754,74.6240850816248 27.999999999883585,74.08271972840885 28.962138084578328,73.45112676353892 29.924276169156656,72.75938202266116 30.675946547766216,72.0977130762767 31.93875278381165,70.92475433641812 32.63028953212779,70.23300934658619 33.231625835062005,69.5412642887095 34.133630289463326,68.63898802379845 34.46436525613535,67.97731868911069 34.85523385286797,67.37580105802044 35.937639198149554,65.96223442186601 36.83964365243446,65.21033715893282 37.32071269466542,64.96973001782317 38.04231625830289,64.30806033703266 38.94432071247138,63.88699778035516 39.42538975493517,62.89449308248004 39.87639198207762,62.503506344684865 40.26726057892665,61.96214005642105 41.650334075675346,61.661380989302415 42.191536748199724,61.661380989302415 43.364142538863234,61.661380989302415 44.08574610238429,61.63130508182803 44.56681514473166,61.450849634595215 45.017817371874116,61.84183643112192 45.43875278381165,62.112519585120026 45.8296213807771,62.112519585120026 46.52115812909324,62.02229186828481 46.972160356352106,61.96214005642105 48.1447661468992,61.81176052446244 49.25723830726929,62.112519585120026 50.48997772810981,62.20274730079109 50.940979955368675,62.292975015356205 52.08351893082727,62.7140376677271 53.16592427610885,63.34563159884419 54.45879732735921,63.61631469486747 55.691536748199724,64.21783264842816 56.834075723658316,64.96973001782317 57.22494432062376,65.33064072643174 57.6458797325613,65.72162730654236 58.21714922040701,66.47352451464394 58.57795100205112,66.95473868551198 58.90868596872315,67.13519399112556 59.900890868506394,68.09762220917037 60.62249443202745,68.93974679161329 61.04342984396499,69.42096079338808 61.73496659239754,68.96982266777195 62.847438752651215,67.466028705996 63.087973273941316,67.0148904545349 63.9298440979328,65.60132374573732 64.53118040086702,63.91707367810886 64.77171492192429,62.80426537565654 65.16258351888973,61.63130508182803 65.22271714918315,60.78917962167179 65.22271714918315,59.43576349125942 65.22271714918315,58.62371368746972 65.04231625830289,57.480828618921805 64.77171492192429,56.63870265951846 65.1024498884799,55.43566539889434 65.85412026720587,54.77399481734028 67.56792873051018,54.92437450046418 68.89086859684903,55.255209791939706 70.15367483277805,55.706348800624255 71.3864142538514,56.127411848981865 72.07795100216754,56.368019293935504 72.94988864148036,57.480828618921805 74.5434298440814,58.41318224155111 75.1447661468992,59.074852478981484 76.16703786188737,60.27788911422249 76.67817371932324,61.87191233760677 76.31737193756271,62.56365815195022 76.13697104668245,63.07494849251816 76.22717149206437,63.58623879577499 76.73830734950025,64.27798444090877 77.03897550108377,65.12010948196985 77.18930957675911,66.17276564106578 77.09910913126078,66.98481457016896 77.15924276167061,67.64648399839643 78.63251670368481,68.57883626868716 78.99331848544534,68.75929153250763 79.80512249446474,69.27058142144233 81.27839643647894,69.96232650603633 82.63140311802272,70.29316108755302 83.41314031172078,70.44354043767089 84.014476614655,70.62399565358646 85.06681514461525,70.8646026008646 86.2995545656886,71.5864233932225 87.41202672605868,72.21801652573049 87.89309576828964,72.4886992793763 88.52449888642877,72.96991303790128 88.85523385298438,73.15036818891531 89.45657015580218,74.86469189194031 89.57683741638903,75.16545039322227 90.0278396436479,75.31582963903202 90.9298440979328,76.15795335604344 91.89198218262754,76.87977360468358 92.43318485515192,77.48129042197252 93.18485523376148,78.17303469823673 94.1169265032513,78.86477890639799 94.59799554559868,79.61667470773682 94.74832962139044,79.31591639685212 94.86859688197728,78.80462723883102 94.83853006677236,77.60159377922537 94.17706013354473,77.0301528138225 93.2149220489664,76.24818089115433 92.9142538974993,75.91734659002395 92.13251670380123,75.43613303330494 91.4710467705736,74.59400922979694 90.77951002225745,74.08271972840885 90.53897550108377,73.87218874646351 89.99777282855939,72.72930616280064 89.84743875276763,72.24809238774469 88.97550111357123,71.61649925797246 88.16369710455183,70.92475433641812 87.32182628056034,70.14278173423372 86.3596881958656,69.36080904502887 85.42761692649219,68.93974679161329 84.49554565700237,68.96982266777195 83.7739420933649,69.1502779215225 82.75167037860956,68.90967091545463 81.36859688197728,68.66906390117947 80.2861915366957,68.27807748533087 79.4142538974993,68.1577739684144 78.93318485526834,67.0148904545349 78.75278396427166,65.96223442186601 79.20378619141411,64.99980591086205 79.53452115808614,63.91707367810886 79.47438752779271,62.443354537012056 79.26391982182395,61.210242364380974 78.51224944321439,60.15758545999415 77.85077950998675,59.37561165721854 76.40757238294464,58.292878555250354 75.35523385298438,57.72143601725111 74.45322939858306,56.96953786996892 73.9721603563521,56.60862673056545 73.01002227165736,55.91688032791717 71.65701559023,55.46574133291142 71.23608017805964,55.1950579219847 70.96547884179745,54.71384294325253 70.21380846318789,54.383007626165636 69.34187082399148,54.11232417327119 68.56013363029342,53.9920204130467 67.80846325168386,53.6912610034924 66.2449888640549,53.57095723605016 64.86191536742263,53.51080535154324 64.29064587969333,53.42057752388064 63.0579064587364,53.390501581016 62.51670378597919,53.57095723605016 62.06570155895315,53.901792591495905 61.915367483277805,54.473235441430006 62.005567928543314,54.95445043675136 62.39643652562518,55.67627286759671 62.63697104668245,56.247715572535526 63.087973273941316,56.78908230259549 63.56904231617227,57.72143601725111 63.44877505558543,58.53348592569819 63.47884187067393,59.01470064179739 63.71937639184762,60.18766137375496 63.62917594646569,61.541077358822804 63.59910913137719,62.65388586180052 62.90757238306105,64.45843981544022 61.8853006681893,65.57124785525957 61.22383073484525,65.99231031071395 59.81069042312447,65.51109607378021 59.3596881958656,65.48102018295322 58.75835189293139,64.99980591086205 58.15701559011359,64.24790854472667 57.34521158132702,63.79677008627914 56.864142538863234,63.5260869973572 56.17260579043068,63.1651761958492 55.330734966439195,62.98472078802297 54.999999999883585,62.80426537565654 54.218262806069106,62.6238099586335 53.70712694863323,62.323050919862 53.25612472149078,61.81176052446244 52.444320712587796,62.02229186828481 51.0011135856621,60.819255532638635 50.249443207052536,60.42826867912663 49.94877505558543,60.00720588932745 48.685968819539994,59.315459822595585 47.66369710455183,59.1650802338263 46.52115812909324,59.736522653955035 46.16035634733271,60.097433632123284 44.9877505566692,60.33804094052175 44.536748329526745,60.097433632123284 43.60467706003692,59.916978145367466 42.9432071269257,60.18766137375496 42.341870823991485,60.27788911422249 41.95100222702604,60.668875976174604 41.890868596732616,61.210242364380974 42.1314031179063,61.60122917429544 42.9432071269257,61.751608710794244 43.694877505418845,61.87191233760677 43.454342984361574,61.51100145082455 42.762806236045435,61.42077372624772 41.169265033327974,61.36062190926168 40.08685968804639,61.63130508182803 39.2449888640549,62.59373405535007 38.85412026720587,63.61631469486747 38.222717149183154,63.70654239121359 37.56124721595552,64.51859160588356 36.328507794998586,65.24041305098217 35.18596881942358,66.50360040127998 34.344097995432094,67.25549752562074 33.74276169249788,68.1878498478327 33.231625835062005,68.78936740930658 32.780623607803136,69.21042967174435 32.26948775036726,69.96232650603633 31.36748329619877,70.774374996603 30.43541202659253,71.9473337616073 29.443207126809284,72.78945788240526 27.81959910900332,73.78196118079359 26.797327394015156,74.35340241028462 25.98552338522859,74.77446433901787 24.752783964271657,75.37598133640131 24.121380846132524,75.5564364255988 23.129175946465693,76.15795335604344 22.10690423147753,76.69931854942115 21.08463251660578,77.15045617875876 20.663697104668245,77.2406837012386 19.340757238096558,78.32341387972701 19.040089086745866,78.80462723883102 18.679287304985337,79.61667470773682 18.077951002167538,80.33849460154306 17.717149220290594,81.24076936452184" stroke="#4DD2FF" stroke-dasharray="none" stroke-linecap="round" stroke-linejoin="round" stroke-width="0.5"><title>2026-06-20 10.1km</title><desc>9223370254938036107</desc></polyline><polyline fill="none" opacity="1" points="104.5,99.74290292712976 104.5,98.78455446951557 104.58709677425213,97.9423693503777 105.22580645175185,96.46128492348362 105.86451612925157,94.89307753313915 106.27096774207894,93.58623776596505 106.61935483885463,92.77309289565892 107.08387096785009,92.10515239395318 107.43225806462578,92.01802971499274 107.80967741936911,91.61145719850902 107.92580645170528,90.33365770318778 108.01290322595742,89.92708508626674 108.50645161303692,89.31722611546866 108.94193548394833,87.95230345925665 108.82580645172857,86.73258510962478 109.49354838719591,85.74519390481873 109.43548387102783,85.04821179163991 109.58064516144805,84.03177941543981 109.60967741941568,83.10246968155843 109.60967741941568,82.5216510333994 109.66774193558376,81.53425921787857 109.78387096791994,79.76276177793625 110.30645161308348,78.45591910835356 110.65483870985918,78.19455054428545 111.00322580663487,77.32332192498143 111.20645161299035,76.80058469975484 112.19354838714935,76.07456070909393 112.94838709686883,74.68059442960657 114.16774193558376,73.4608737003582 114.60322580649517,73.1704639706586 116.1709677419858,72.47348056864575 117.21612903231289,72.00882492749952 118.23225806467235,71.54416925468831 119.82903225813061,70.61485781348892 120.32258064521011,70.3825299332675 121.25161290331744,69.71458723343676 121.71612903231289,69.36609536391916 122.84838709689211,68.5239066053764 123.6903225807473,67.71075873923837 124.61935483873822,66.69432376947952 125.49032258079387,65.99733970218222 126.33225806464907,64.89378144894727 126.9129032259807,63.9354280832049 127.551612903364,63.09323864997714 127.92903225810733,62.83186949422816 128.27741935499944,62.51241829016362 128.65483870962635,62.105844008678105 129.67096774210222,61.55406458751531 130.42580645170528,60.595710749330465 130.74516129039694,60.595710749330465 131.32580645172857,60.07297223486239 131.2096774193924,59.579274711955804 131.47096774203237,59.14365922071738 132.02258064527996,58.59187955813832 132.86451612913515,58.27242815398495 133.9677419355139,58.27242815398495 135.10000000009313,58.30146919132676 136.14516129042022,58.24338711643941 137.01612903224304,58.67900266571087 137.62580645165872,58.67900266571087 139.04838709696196,58.41763333952986 139.8612903226167,58.4466743763187 140.73225806467235,58.795166807452915 141.28387096791994,58.94037198185106 142.15483870974276,58.82420784255373 141.95161290338729,58.67900266571087 142.61935483885463,58.62092059411225 142.90967741934583,58.82420784255373 143.75161290331744,59.60831574376789 144.2161290324293,59.89872605437995 145.2032258065883,60.04393120511668 145.95806451619137,60.33434149710229 146.77096774196252,60.711874858126976 147.78709677420557,61.234613323176745 148.54193548392504,61.87351583686541 148.8612903226167,62.51241829016362 149.64516129042022,63.12227966665523 150.28387096780352,63.81926402967656 150.98064516147133,64.51624832104426 151.27096774196252,65.03898649252369 152.28709677432198,65.82309367411654 153.6516129032243,64.71953539256356 154.2032258065883,63.55789490198367 154.72580645175185,62.59954134729924 155.27741935499944,61.58310561082908 155.62580645165872,60.39242355409078 156.11935483873822,58.53379748572479 156.38064516126178,57.63352530039265 156.43870967754629,56.84941717039328 156.26451612915844,55.513529035728425 156.20645161299035,55.07791328255553 156.0322580646025,54.61325644829776 156.1774193549063,53.82914796800469 156.00322580651846,52.84175197445438 156.23548387095798,52.20284860767424 157.0193548387615,51.651068378647324 158.3548387098126,51.79627370645176 159.4000000001397,51.99956116013345 160.06774193560705,52.319012860709336 161.3741935484577,52.75462879167753 162.47741935495287,53.04503939676215 162.7096774193924,53.48065528087318 164.1903225807473,54.55517434174544 165.2354838710744,55.165036435442744 166.28064516140148,56.44284254862578 166.97741935495287,57.43023801618256 167.41290322586428,58.41763333952986 167.23870967747644,58.76612577220658 167.44193548394833,60.189136352651985 167.8483870968921,61.58310561082908 167.93548387114424,62.309131152462214 167.81935483869165,63.00611559918616 167.96451612911187,63.61597693123622 168.1096774195321,64.0225511220633 169.1258064515423,64.86474043986527 170.0838709678501,65.12610951720853 170.5774193549296,65.5326836174354 171.2161290323129,66.11350371834124 171.97096774203237,66.5200777593709 173.3935483872192,66.72336477073259 173.7419354839949,66.81048777370597 174.8741935484577,67.21706177297165 175.91935483866837,67.6236357477901 177.1967741936678,68.1463736796577 177.77741935488302,68.64007057825802 178.3870967742987,68.98856248508673 179.22903225803748,70.0630790850264 179.5774193549296,70.70198076643283 180.18709677434526,71.31184140633559 180.59354838717263,71.71841513569234 181.08709677425213,72.21211177439545 181.60967741941568,72.64772642584285 182.48064516135491,73.34470981001505 183.61290322593413,74.33210281503852 184.42580645170528,75.29045471205609 184.60000000009313,75.58086435115547 184.91935483878478,75.29045471205609 184.91935483878478,74.97100409475388 185.47096774203237,74.18689797032857 184.68709677411243,73.43183272800525 183.90322580654174,72.96717715245904 182.88709677418228,71.97978394897655 182.21935483871493,71.42800533148693 181.60967741941568,70.61485781348892 180.94193548394833,70.32444796198979 180.6516129032243,70.12116105860332 180.47741935483646,69.27897239371669 179.92580645170528,68.66911157121649 179.3161290322896,67.91404571488965 178.7354838710744,67.36226676678052 178.1838709678268,66.4039137501386 177.37096774205565,65.93925769330235 177.10967741941568,65.64884764162707 176.67419354838785,65.24227354832692 175.19354838714935,65.24227354832692 174.49677419359796,65.47460160462651 173.24838709679898,65.30035556311486 171.7096774193924,65.03898649252369 170.98387096787337,64.57433034211863 170.40322580654174,64.08063314735773 169.4741935484344,63.61597693123622 169.44516129035037,62.77378745828173 169.5903225807706,62.309131152462214 169.93870967754629,61.060367172642145 170.14193548390176,60.50858766640886 170.05483870964963,59.63735677537625 169.76451612904202,58.24338711643941 169.2419354839949,57.05270447206567 168.48709677427541,56.15243208958418 168.0516129032476,55.74585742590716 166.89032258058432,54.96174907698878 166.39677419350483,54.64229750132654 165.1774193549063,53.74202479791711 164.30645161296707,53.01599833671935 162.94193548394833,52.40613604916143 162.27419354836456,51.99956116013345 161.63548387109768,51.50586304767057 160.64838709693868,51.12832917270134 159.5451612903271,50.779836346249795 158.38387096778024,50.40230243068072 157.39677419362124,50.460384572914336 156.11935483873822,50.344220287923235 154.3483870968921,50.25709707287024 153.59354838717263,50.43134350181208 153.18709677422885,51.21545237649116 153.24516129028052,52.086684352660086 154.17419354850426,53.45161422283854 154.551612903364,54.70037960715126 154.37741935497615,55.106954333692556 154.87096774205565,55.80393952221493 154.90000000002328,56.70421195111703 154.92903225810733,57.45927905710414 154.90000000002328,59.02749508499983 154.26129032263998,60.595710749330465 153.97096774203237,61.08940819808049 153.30322580656502,61.960638902237406 152.43225806462578,62.367213192395866 151.70645161299035,62.28009013226256 151.15483870974276,62.07680298760533 150.13870967749972,61.4379004931543 149.26774193544406,60.9151620437915 148.48387096787337,60.16009532343014 147.78709677420557,59.869685023935745 147.11935483873822,59.579274711955804 145.87096774205565,59.08557715307688 145.17419354850426,58.94037198185106 144.18709677434526,58.76612577220658 143.3741935484577,58.53379748572479 142.5903225807706,57.517361138772685 141.80645161296707,57.16886864168919 140.79032258084044,56.355719412269536 140.0645161290886,55.94914476078702 139.3096774193691,55.74585742590716 138.49677419359796,55.86202161805704 138.20645161299035,56.384760457789525 137.62580645165872,56.70421195111703 136.6967741935514,56.84941717039328 135.76774193556048,56.82037612673594 134.66451612918172,56.878458213817794 134.0838709678501,57.13982759951614 133.8225806452101,57.836812578490935 134.2290322581539,58.30146919132676 134.78064516128507,58.33051022852305 135.3612903227331,58.41763333952986 134.7225806452334,58.12722296520951 133.7354838710744,57.923935695842374 132.51612903235946,58.214346078864764 132.08064516133163,58.33051022852305 131.67419354850426,58.911330947157694 131.32580645172857,59.666397806897294 130.74516129039694,60.27625943970634 129.70000000018626,60.944203069782816 128.48064516135491,61.81543379262439 127.63870967761613,62.65762338475906 126.79677419364452,63.61597693123622 126.44838709686883,64.13871517215739 125.78064516140148,64.71953539256356 124.99677419371437,65.67788864727481 123.77741935488302,67.01377477639471 122.7612903227564,67.94308671096223 122.15161290334072,68.4077426304284 121.30967741936911,69.10472645005211 120.3806451613782,69.65650525639649 119.13225806457922,70.46965288926731 118.40645161294378,70.84718568567769 117.24516129039694,71.36992336914409 115.99677419371437,71.97978394897655 115.5322580646025,72.1249888408347 113.96451612911187,72.76389032820589 113.5580645162845,73.11238202321692 112.54193548392504,74.18689797032857 111.6709677419858,75.14524988786434 111.46774193563033,75.9003149397613 110.48064516135491,77.06195331734489 110.2483870969154,77.4104447918362 109.98709677427541,78.02030482940609 109.72580645163544,79.29810663528042 109.6967741936678,79.99508933731704 109.60967741941568,80.63399008478154" stroke="#4DD2FF" stroke-dasharray="none" stroke-linecap="round" stroke-linejoin="round" stroke-width="0.5"><title>2026-06-18 10.1km</title><desc>9223370255108266507</desc></polyline><polyline fill="none" opacity="1" points="18.569890441955067,232.43822516361251 19.028900642180815,231.2138308956055 19.793917642557062,230.02004628267605 21.323951643309556,229.19357989548007 22.609180203988217,228.73443186137592 22.9151870040223,228.6119923806982 23.557801284478046,228.2446739259758 24.384019644814543,227.78552583098644 25.699848885531537,227.1733283251524 26.770872686058283,226.62235052511096 27.29108424624428,226.31625172897475 28.759916887036525,225.09185641340446 29.83094068756327,224.41843890049495 30.84076312801335,223.53075208194787 31.33037400827743,222.82672452676343 31.850585568579845,222.24513649416622 32.67680392903276,221.47988901060307 33.594824329484254,220.13305324036628 34.48224404989742,219.27597579994472 34.63524744997267,218.96987668907968 34.8800528900465,218.60255773883546 35.70627125049941,217.80669994826894 36.593690970912576,217.22511150676291 37.481110691209324,216.2149841010105 38.12372497166507,216.1231543297181 38.490933131892234,214.95997712487588 39.43955421238206,214.07228913030121 41.153192293131724,213.88862953148782 42.28541745361872,213.91923946491443 43.1728371741483,213.91923946491443 43.75425009441096,213.91923946491443 44.580468454863876,214.5314381067874 45.80449565546587,214.43960831384175 46.47771061572712,214.1641189280199 46.814318096032366,214.07228913030121 47.85474121652078,214.40899838262703 48.92576501693111,214.68448775901925 50.333396297646686,214.50082817598013 50.333396297646686,214.40899838262703 51.4656214582501,214.95997712487588 51.92463165859226,215.29668633523397 53.42406497930642,215.694615381537 54.219682659721,216.09254440572113 55.413109180284664,216.6741329394863 56.055723460391164,217.041451989091 56.57593502080999,217.59243052796228 57.55515678122174,218.6331676520058 57.76936154149007,219.27597579994472 58.96278806193732,220.102443333657 60.03381186258048,221.0513503839611 60.73762750288006,221.41866920830216 61.319040423142724,221.47988901060307 62.1146581035573,220.99013057810953 62.57366830378305,220.2248829600867 62.69607102370355,219.42902535042958 63.12448054400738,218.5413379118545 63.85889686446171,216.76596270367736 64.31790706468746,214.95997712487588 64.37910842464771,214.59265796811087 64.68511522479821,212.8172817772138 64.77691726491321,210.79702557384735 64.19550434453413,209.17469820805127 64.34850774460938,208.10334974509897 64.62391386472154,207.39932066731853 65.3889308652142,206.7565114486497 66.24574990558904,206.78712141275173 67.37797506619245,207.00139115779893 68.84680770686828,207.39932066731853 70.25443898770027,208.10334974509897 71.29486210818868,208.07273978658486 71.75387230829801,207.8584700737265 71.96807706844993,208.37883936520666 72.64129202871118,209.38896788127022 73.71231582923792,210.1236067120917 74.5997355497675,210.76641562697478 74.96694370987825,211.22556481638458 75.36475255002733,211.68471397616668 76.00736683048308,212.909111591056 76.34397431067191,213.429480513616 76.25217227055691,214.2559487245162 75.9155647904845,214.92936719581485 75.97676615044475,215.57217567728367 76.40517567063216,216.3068138710223 76.89478655089624,217.50060077442322 76.83358519081958,218.6331676520058 76.86418587085791,219.06170642370125 77.81280695134774,220.2248829600867 78.7002266717609,220.9595206749509 78.8226293916814,221.23500979854725 79.74064979224931,221.63293851388153 80.5362674726639,222.18391669838456 81.24008311307989,222.4594057748327 83.19852663390338,222.79611463146284 83.96354363439605,223.07160368427867 85.21817151491996,223.37770261929836 85.83018511522096,223.68380154127954 86.93180959578604,224.32660923467483 88.00283339631278,225.00002675625728 88.49244427657686,225.55100468132878 89.34926331706811,226.49991100822808 89.56346807710361,226.92844930815045 90.05307895736769,227.66308633395238 90.51208915759344,228.15284430934116 90.72629391774535,228.45894302683882 91.21590479789302,228.97931081661955 92.25632791838143,229.89760682394262 93.32735171890818,230.7852928523207 94.45957687951159,231.88724776892923 94.79618435981683,232.00968719361117 94.94918775977567,231.51992948219413 95.5,230.8159027134534 95.19399319996592,230.3261449203128 94.275972799398,229.59150816791225 93.72516055917367,229.13236015936127 92.99074423883576,228.6426022510277 92.37873063853476,228.09162456425838 91.9197204381926,227.51003695983673 91.64431431819685,226.89783943042858 90.7874952777056,226.4080813691835 90.35908575751819,225.9183232744108 89.71647147717886,224.84697732509812 88.61484699661378,223.56136197404703 88.37004155653995,223.2858729402069 87.7886286363937,222.67367504909635 87.32961843605153,222.6124552571564 86.25859463540837,222.00025730830384 85.46297695499379,221.69415831426159 84.45315451466013,221.3880593070644 83.1067245939048,221.47988901060307 82.77011711371597,221.2656197004835 82.12750283349305,221.29622960236156 80.96467699285131,220.9595206749509 79.28163959202357,220.01061361236498 78.94503211183473,219.73512444162043 78.63902531168424,219.00048660073662 78.94503211183473,217.71487019746564 79.03683415194973,216.8884023873252 79.28163959202357,216.2149841010105 79.22043823206332,215.05180691101123 79.00623347179499,213.58253018953837 78.60842463176232,212.6030122070224 77.84340763138607,211.6541040330776 76.46637703059241,210.6439758381457 75.64015867025591,210.0623868124676 74.26312806957867,209.2359181153588 73.681715149316,208.68493893067352 72.79429542890284,208.04212982801255 71.81507366837468,207.76664019480813 71.23366074811202,207.64420035440708 70.98885530792177,207.24627085862448 70.52984510769602,206.97078119468642 69.67302606720477,206.45041180029511 68.6632036267547,206.174922105507 67.56157914618962,205.80760249582818 66.76596146577504,205.5321127762436 65.6949376653647,205.5321127762436 64.83811862498987,205.5321127762436 63.06327918393072,205.44028286729008 62.298262183670886,205.74638255906757 61.90045334340539,205.80760249582818 61.38024178321939,206.48102176567772 61.99225538340397,207.88908003317192 62.6348696637433,208.8379887084593 62.84907442389522,209.54201764398022 63.12448054400738,210.09299676236697 63.093879864085466,210.67458578554215 63.39988666411955,211.71532391902292 63.4304873442743,212.11325316526927 63.4304873442743,212.69484202354215 63.27748394419905,214.47021824499825 62.9408764638938,215.84766500885598 62.298262183670886,216.8884023873252 61.65564790321514,217.68426028027898 60.645825462881476,218.29645859909942 59.69720438239165,217.89852969784988 58.90158670197707,217.56182061025174 57.89176426141057,216.8884023873252 57.340952021302655,216.24559402448358 56.60653570073191,215.87827493390068 55.90272006043233,215.5109558244585 54.9540989799425,215.14363669604063 54.525689459755085,215.05180691101123 53.85247449949384,214.68448775901925 53.05685681907926,214.50082817598013 52.41424253873993,214.19472886034055 51.61862485832535,214.34777851979015 50.97601057810243,214.286558656313 49.99678881757427,213.3376507065259 49.66018133738544,212.7560619006981 48.80336229689419,212.08264322404284 47.915942576597445,211.8071537470678 46.99792217602953,211.62349408993032 46.018700415617786,211.86837363179075 44.97827729489654,212.235692928778 44.64166981482413,212.3581326903659 44.090857574599795,212.17447304731468 43.387041934300214,212.14386310637929 42.5608235738473,212.38874263036996 42.071212693699636,212.2969128098921 41.67340385331772,212.2969128098921 41.275595013285056,212.7560619006981 41.09199093317147,213.46009044907987 41.489799773320556,213.88862953148782 42.7750283338828,213.9804593314766 42.83622969395947,213.7049699278432 41.97941065358464,213.46009044907987 41.42859841324389,213.30704077047994 40.08216849260498,213.73557986220112 39.31715149234515,214.01106926455395 38.490933131892234,214.86814733745996 38.3685304117389,215.60278560360894 37.84831885143649,215.9701047082781 36.99149981106166,216.33742379408795 36.53248961083591,216.85779246670427 35.64506989030633,217.40877101972 35.06365697016008,218.05157927790424 34.42104268982075,218.66377756511793 33.564223649329506,219.7045145329903 32.707404608954675,220.83708106103586 32.340196448843926,221.3880593070644 32.064790328615345,221.69415831426159 31.17737060820218,222.6124552571564 30.50415564782452,223.07160368427867 29.861541367601603,223.74502132408088 29.616735927411355,224.0205103402841 28.851718927035108,224.63270811602706 27.750094446586445,225.39795526192756 26.954476766171865,225.76527386286762 25.546845485339873,226.9590591856977 24.016811484703794,227.63247645943193 22.54797884391155,228.2752837978769 21.323951643309556,228.85687134001637 20.49773328297306,229.22418976342306 19.51851152232848,229.86699695885181 18.967699282220565,230.3261449203128 18.141480921767652,231.18322103616083 17.437665281351656,232.19334632676328 17.192859841277823,232.56066457898123 16.703248961013742,232.98920251597883 16.15243672078941,234.33603586541722 15.846429920638911,235.8665280007408 15.693426520563662,236.93787230097223 15.479221760528162,238.28470490843756 15.50982244045008,238.65202284842962 15.938231960637495,239.1417800724157 15.418020400335081,240.3661729861633 15.418020400335081,240.9477595469216 15.234416320221499,241.46812642982695 15.112013600300997,242.57007970433915 14.806006800150499,243.05983666091925 14.5,243.85569164413027" stroke="#4DD2FF" stroke-dasharray="none" stroke-linecap="round" stroke-linejoin="round" stroke-width="0.5"><title>2026-06-16 10.1km</title><desc>9223370255286294807</desc></polyline><polyline fill="none" opacity="1" points="109.3453724605497,230.9747340407339 109.71106094797142,229.99927218502853 110.86907449201681,229.2371925174375 112.11851015803404,228.5970455337083 113.27652370196301,228.1093144597835 113.91647855530027,227.71303293772507 115.62302483059466,227.04240261943778 116.20203160273377,226.61563783849124 117.87810383748729,225.6706585897482 118.97516930021811,224.72567921568407 120.37697516928893,223.65876686840784 121.6873589163879,222.317505404877 122.99774266360328,220.9152772409143 123.88148984184954,219.78739786497317 124.46049661398865,218.78145124367438 125.3747178328922,218.0803368476918 126.19751693005674,217.31825590407243 126.86794582393486,216.73907433223212 127.62979683966842,215.91602675424656 128.2088036116911,215.67216078698402 128.75733634305652,215.27587857213803 128.75733634305652,214.60524708137382 129.18397291190922,214.17848155432148 130.55530474043917,213.47736670414452 131.95711060939357,213.53833321563434 133.23702031595167,213.62978298182134 134.3340857787989,213.78219925623853 135.37020316021517,213.8431657650508 136.467268622946,213.8431657650508 137.19864559813868,213.66026623692596 138.50902934535407,214.05654854187742 139.27088036108762,214.11751504830318 140.67268623027485,214.42234757292317 141.06884875847027,214.69669683388202 141.64785553049296,214.60524708137382 142.6230248308275,215.0320125828148 143.32392776524648,215.2453953239019 143.8724604966119,215.42829481122317 145.06094808119815,215.97699324483983 146.1275395032717,216.4952083931421 146.7065462754108,217.0439067443367 146.9808126409771,217.56212181493174 147.46839729126077,217.86695419170428 147.86455981933977,218.23275302659022 148.13882618502248,218.6290350764757 148.99209932272788,219.42159911012277 149.87584650109056,220.39706241473323 151.3995485326741,221.22010947397212 152.2223476297222,220.67141144507332 152.80135440186132,219.360632649099 153.5022573362803,217.56212181493174 154.17268623015843,215.9465099995723 154.69074492098298,214.0260652884026 154.87358916481026,213.0810843668878 154.84311512415297,211.89223722257884 154.90406320535112,210.79483968176646 154.72121896152385,209.6059921544511 154.69074492098298,208.81342702556867 154.50790067727212,208.44762770546367 154.62979683966842,207.77699556958396 154.84311512415297,206.95394695253344 155.5135440180311,206.46621439355658 156.6410835214192,206.49669767956948 158.01241534983274,206.74056396214291 159.74943566590082,207.44167947786627 161.3340857786825,207.8074788499507 161.66930022567976,208.051345087355 162.24830699770246,208.63052736787358 163.80248307005968,209.78889178700047 164.5033860045951,210.15469103801297 164.9300225734478,210.7643564143218 165.7223476297222,211.58740458934335 166.51467268622946,213.0810843668878 166.60609480796847,213.62978298182134 166.51467268622946,214.544280579139 166.20993227988947,214.94056283461396 166.94130925508216,216.40375866380055 167.1546275394503,217.44018886052072 167.185101580224,218.1717865554965 167.61173814896028,219.20821649435675 168.19074492098298,220.12271337385755 168.7392776523484,220.4885120926774 169.47065462742466,221.03721013577888 169.95823927770834,221.22010947397212 171.60383747180458,222.01267321885098 172.91422121901996,222.317505404877 174.37697516928893,222.74427044339245 174.92550790065434,222.77475365955615 175.74830699770246,223.11006902746158 176.6930022573797,223.62828365608584 177.45485327311326,224.14649824699154 178.36907449213322,224.72567921568407 178.9480812640395,225.21341052121716 179.5270880361786,226.40225543850102 179.8318284425186,226.82902023219503 180.19751693005674,227.28626819705823 181.05079006764572,228.1702808458358 181.9650112867821,228.84091105806874 182.90970654634293,229.69444032775937 183.9153498871019,230.6089358604513 184.73814898426645,231.5843976327451 184.95146726851817,231.24908266362036 184.89051918732002,230.9747340407339 185.5,230.36507039656863 185.2257336343173,229.87733944371575 184.25056433398277,229.05429338506656 182.97065462754108,227.83496571617434 182.3916478556348,227.37771778646857 181.6602708803257,226.46322183910524 180.71557562076487,225.82307460613083 179.86230248305947,224.45133034157334 179.19187358918134,223.53683401853777 178.1252821671078,222.59185436117696 177.75959367945325,222.22605575044872 176.57110609475058,221.40300880756695 176.02257336338516,221.22010947397212 174.71218961616978,220.70189467002638 174.07223476294894,220.73237789486302 173.03611738141626,220.88479401695076 171.99999999988358,220.73237789486302 171.0248306997819,220.33609596214956 170.32392776513007,219.93981400731718 168.95259593671653,218.84241770964582 168.83069977432024,217.80598771735094 169.1659142212011,216.40375866380055 169.37923250556923,215.2453953239019 169.34875846502837,213.96509878116194 168.7088036116911,212.22755310393404 167.82505643344484,211.16063888085773 166.7279909705976,210.2461408477975 166.42325056425761,210.00227468571393 165.93566591420677,209.6364754268434 165.23476297955494,209.24019287520787 164.3205417607678,208.50859426014358 163.37584650109056,207.8074788499507 162.30925507901702,207.4721627595718 161.63882618502248,206.95394695253344 161.39503385999706,206.58814753650222 160.8769751691725,206.64911410718923 159.90180586918723,206.00896508916048 158.46952595934272,205.5821990451077 157.3724604966119,205.24688284960575 156.27539503376465,205.21639955829596 155.14785553037655,205.1249496836681 153.9593679457903,205.09446639183443 152.61851015803404,205.15543297532713 152.03950338589493,205.30784943175968 151.5519187359605,206.46621439355658 152.1004514672095,207.41119619604433 152.83182844240218,208.44762770546367 153.1060948080849,209.20970960106933 153.19751693005674,209.88034160149982 153.47178329573944,210.7643564143218 153.59367945813574,211.16063888085773 153.5327313769376,211.55692132533295 153.5327313769376,212.13610331964446 153.34988713311031,213.56881647114642 153.28893905191217,214.39186432107817 153.16704288928304,214.97104608424706 152.92325056437403,215.51974455313757 152.43566591420677,216.28182568965713 151.9785553048132,217.0439067443367 151.2471783295041,217.44018886052072 150.48532731377054,217.68405476718908 149.47968397301156,217.16583970549982 149.113995485357,216.98294026294025 148.01693002250977,216.37327542039566 146.8284424379235,215.48926130594919 146.03611738141626,215.09297908091685 145.30474040634,214.66621358314296 144.36004514666274,214.42234757292317 143.75056433409918,214.14799830142874 143.17155756196007,214.17848155432148 142.5925507900538,213.93461552733788 141.76975169288926,213.9041322733392 141.22121896164026,213.66026623692596 140.48984198644757,212.56286896951497 139.84988713322673,212.1970698426594 138.9966139954049,211.67885438067606 138.11286681715865,211.40450500312727 136.80248307005968,211.46547153237043 135.58352144469973,211.8007874339819 135.15688487584703,211.92272048513405 134.51693002262618,211.16063888085773 133.6331828442635,211.6483711170731 132.44469525967725,211.8617539597908 132.23137697507627,211.7093376441626 131.59142212185543,212.22755310393404 131.43905191868544,213.02011785155628 131.86568848742172,213.47736670414452 132.87133182841353,213.56881647114642 133.08465011278167,213.32495042326627 132.59706546273082,213.172534139012 132.01805869070813,212.7457685258123 131.53047404054087,212.6848020075704 129.9153498871019,213.32495042326627 129.15349887136836,214.05654854187742 128.75733634305652,214.39186432107817 128.2392776523484,215.48926130594919 127.782167042722,215.48926130594919 126.86794582393486,216.34279217699077 125.70993227977306,217.19632294547046 124.91760722349863,218.20226979110157 124.09480812645052,218.93386740755523 123.45485327311326,219.8788475507754 122.87584650109056,220.4885120926774 122.20541760721244,221.18962625128916 121.47404063201975,222.1650893135229 120.86455981933977,222.59185436117696 120.01128668175079,223.47586759278784 119.18848758458626,224.0855318264803 118.73137697507627,224.35988071461907 118.36568848765455,224.69519600801868 117.39051918732002,225.27437693206593 116.44582392775919,226.1279066290008 115.50112866819836,226.64612103794934 113.94695259584114,227.28626819705823 112.84988713311031,227.83496571617434 111.20428893901408,228.53607915120665 109.52821670426056,229.51154120720457 108.00451467267703,230.82231813453836 107.66930022567976,231.24908266362036 107.21218961616978,232.2855106991483 106.69413092557807,233.13903955655405 106.48081264097709,233.62677028629696 106.29796839726623,234.3583663184545 106.14559819409624,235.1204454388935 105.99322799092624,235.8520413180231 105.99322799092624,237.4066823120811 105.81038374709897,238.29069370677462 105.9322799097281,239.3271207199432 106.05417607224081,240.0282330258051 105.68848758470267,240.63789584464394 105.65801354392897,241.52190683956724 105.5056433408754,242.1315695309895 104.86568848753814,243.1070297291153 104.9266365688527,244.1129729190725 104.5,244.99698348436505" stroke="#4DD2FF" stroke-dasharray="none" stroke-linecap="round" stroke-linejoin="round" stroke-width="0.5"><title>2026-06-11 10.2km</title><desc>9223370255717407907</desc></polyline></svg>