<?xml version="1.0" encoding="utf-8" ?>
<svg baseProfile="full" height="300mm" version="1.1" viewBox="0,0,200,300" width="200mm" xmlns="http://www.w3.org/2000/svg" xmlns:ev="http://www.w3.org/2001/xml-events" xmlns:xlink="http://www.w3.org/1999/xlink"><defs /><rect fill="#222222" height="300" width="200" x="0" y="0" /><text fill="#FFFFFF" style="font-size:12px; font-family:Arial; font-weight:bold;" x="10" y="20">Over 10km Runs</text><text fill="#FFFFFF" style="font-size:4px; font-family:Arial" x="10" y="280">Runner</text><text fill="#FFFFFF" style="font-size:9px; font-family:Arial" x="10" y="290">Yanfu</text><text fill="#FFFFFF" style="font-size:4px; font-family:Arial" x="65" y="280">SPECIAL TRACKS</text><rect fill="yellow" height="2.6" width="2.6" x="65" y="283" /><text fill="#FFFFFF" style="font-size:3px; font-family:Arial" x="70" y="285.5">Over 20.0 km</text><rect fill="red" height="2.6" width="2.6" x="65" y="287" /><text fill="#FFFFFF" style="font-size:3px; font-family:Arial" x="70" y="289.5">Over 40.0 km</text><text fill="#FFFFFF" style="font-size:4px; font-family:Arial" x="120" y="280">STATISTICS</text><text fill="#FFFFFF" style="font-size:3px; font-family:Arial" x="120" y="285">Number: 2</text><text fill="#FFFFFF" style="font-size:3px; font-family:Arial" x="120" y="290">Weekly: 1.0</text><text fill="#FFFFFF" style="font-size:3px; font-family:Arial" x="141" y="285">Total: 20.3 km</text><text fill="#FFFFFF" style="font-size:3px; font-family:Arial" x="141" y="290">Avg: 10.1 km</text><text fill="#FFFFFF" style="font-size:3px; font-family:Arial" x="167" y="285">Min: 10.1 km</text><text fill="#FFFFFF" style="font-size:3px; font-family:Arial" x="167" y="290">Max: 10.2 km</text><polyline fill="none" opacity="1" points="52.604316546814516,104.18415396375349 52.52661870489828,102.51315138075734 52.410071942489594,102.35770926438272 52.91510791354813,100.10379827930592 53.264748201472685,98.39393440115964 53.575539568206295,97.11153628188185 54.3136690647807,96.64520964806434 54.35251798550598,96.1788829904981 54.4690647481475,95.82913798163645 54.974100719438866,95.40167184133315 55.01294964016415,94.43015781155555 56.061870503704995,93.76952821202576 56.76115107908845,92.37054772517877 57.53812949615531,90.69954297260847 58.97553956811316,89.72802844026592 60.568345323670655,89.06739849894075 61.61726618697867,88.56221086438745 62.27769784163684,88.32904733129544 63.55971223022789,87.62955669598887 64.25899280584417,87.31867195194354 66.27913669054396,86.15285406680778 66.93956834520213,85.84196927218 68.37697841715999,84.79273301165085 70.24172661849298,83.43261175276712 71.52374100708403,82.3056539837853 72.339568345109,81.33413855341496 72.61151079135016,80.9455323520815 73.38848920841701,80.32376239541918 74.94244604301639,78.7304766868474 75.87482014391571,77.13719069829676 76.6517985612154,76.47655984049197 76.9237410069909,76.16567471419694 77.62302158260718,75.07757668837439 78.55539568327367,74.3003637327929 79.91510791354813,73.36770809808513 80.61438848916441,72.62935565260705 81.70215827319771,72.00758512545144 82.4791366904974,70.33657662209589 83.87769784172997,69.87024861265672 85.47050359705463,69.90910928108497 86.67482014372945,69.83138794417027 87.76258992799558,69.83138794417027 88.8503597122617,70.41429795476142 90.48201438854448,70.49201928661205 91.56978417257778,70.1811339550186 91.95827338122763,70.02569128520554 92.38561151083559,70.02569128520554 94.63884892081842,70.72518327832222 96.11510791373439,70.68632261350285 96.96978417248465,70.41429795476142 97.39712230209261,70.99720792775042 98.40719424444251,71.34695389354602 99.33956834534183,71.89100314682582 101.24316546763293,72.31847039435524 102.48633093526587,72.97910155536374 103.57410071929917,73.52315071050543 104.23453237419017,74.22264243359677 104.93381294957362,75.15529798023636 106.06043165456504,76.43769920023624 107.10935251787305,77.44807579123881 108.08057553949766,78.34187037392985 109.28489208617248,78.96364046656527 110.2172661870718,79.70199239603244 110.87769784172997,79.19680424022954 111.84892086335458,78.57503416371765 112.35395683441311,77.2149119724636 112.47050359705463,76.55428112036316 113.32517985603772,74.72783086670097 114.1410071940627,72.35733105213149 114.52949640271254,70.958347264037 114.80143884872086,69.4427812496433 114.8791366906371,67.18886209221091 114.60719424462877,64.77949961350532 114.45179856102914,62.99190768226981 114.68489208631217,62.05925088224467 115.53956834529527,60.854569039773196 116.62733812932856,60.854569039773196 117.7928057552781,61.087733279855456 119.03597122291103,61.20431539765559 121.28920863312669,62.098111584200524 122.61007194244303,62.603300694026984 123.54244604310952,62.292415091302246 124.28057553945109,62.331275792152155 124.12517985608429,63.45823604625184 125.3294964027591,64.46861408557743 127.0776978416834,65.55671338643879 127.73812949634157,66.295066408813 128.24316546763293,66.83911596582038 128.8258992806077,67.65519023983506 129.56402877694927,68.93759252177551 129.8748201439157,70.10341262043221 129.56402877694927,70.72518327832222 129.0589928056579,71.38581455557141 129.44748201430775,72.31847039435524 130.03021582728252,73.25112613703823 130.53525179857388,75.42732249666005 130.22446043160744,76.08795343100792 130.72949640266597,77.2537726094597 131.70071942429058,78.10870657832129 133.09928057552315,79.08022235421231 133.60431654681452,79.54654988960829 134.22589928051457,79.93515615083743 135.23597122286446,80.36262301891111 137.17841726611368,80.82895048847422 138.88776978407986,81.21755669469712 140.01438848907128,81.56730226619402 141.56834532367066,82.11135090602329 142.8115107913036,82.73312074021669 144.0935251796618,83.74349662987515 144.98705035960302,84.44298756454373 145.9194244602695,85.45336326392135 146.26906474819407,86.23057526379125 146.6187050358858,86.77462362422375 147.35683453222737,87.3963931389153 147.86187050375156,88.09588379214983 148.2892086331267,88.63993204076542 149.33812949620187,89.49486493715085 150.81438848911785,90.69954297260847 151.97985611506738,91.7876391254249 152.87338129500858,92.87573514814721 153.26187050365843,92.56485058343969 153.49496402870864,91.74877855082741 153.96115107904188,91.08814875641838 153.49496402870864,90.46637949428987 151.9410071943421,89.45600435259985 151.3194244604092,88.83423497882904 150.2705035971012,87.97930202033604 149.84316546772607,87.47411432536319 149.2604316547513,86.58032064209692 148.32805755385198,85.76424807176227 147.78417266183533,85.60880566923879 147.24028776958585,84.28754513931926 146.11366906482726,82.84970257937675 145.06474820151925,81.99476905731717 144.48201438831165,81.37299917259952 143.938129496295,80.9066717310925 142.42302158288658,80.36262301891111 142.0345323740039,79.97401677601738 140.79136690637097,79.50768926256569 138.81007194239646,79.50768926256569 138.03309352509677,79.3522467527655 137.56690647476353,79.15794361173175 135.81870503607206,78.76933731714962 134.4589928057976,78.26414910942549 133.06043165456504,77.44807579123881 132.827338129282,77.05946942343144 132.7496402875986,75.15529798023636 133.09928057552315,73.91175723000197 133.41007194225676,73.05682286521187 133.3323741008062,72.47391302476171 133.37122302153148,70.53087995224632 133.02158273383975,69.09303521021502 131.89496402884834,67.38316548999865 130.72949640266597,66.295066408813 129.25323741021566,65.24582788522821 128.20431654667482,64.54633546853438 126.49496402894147,63.341653957555536 125.67913669068366,62.68102209299104 124.1640287770424,62.21469368896214 123.425899280468,61.90380807284964 122.95971223013476,61.86494737007888 122.33812949620187,61.28203680861043 122.18273381283507,60.854569039773196 120.74532374087721,60.193936993484385 119.6964028775692,59.883051307930145 118.33669064729474,59.377862046065275 116.7050359712448,59.377862046065275 115.61726618697867,59.1835584762739 113.90791366901249,59.1835584762739 112.31510791368783,59.22241919062799 111.57697841711342,59.49444418592611 110.76115107908845,60.193936993484385 110.72230215813033,61.32089751394233 111.53812949638814,62.486718594271224 112.54820143873803,64.11886785400566 112.85899280570447,64.77949961350532 112.82014388474636,65.32354926149128 113.16978417267092,66.83911596582038 113.2086330933962,67.3054441313725 113.2086330933962,67.81063295033528 113.1309352517128,69.36505990865408 113.0532374100294,71.0749292546534 112.00431654672138,73.44542940467363 111.77122302143835,73.91175723000197 110.48920863308012,75.1164373344509 109.44028776977211,75.23301927157445 108.04172661853954,74.65010957105551 106.52661870489828,73.71745397237828 105.94388489192352,73.17340482881991 104.8172661869321,72.51277368201409 104.11798561131582,72.20188841968775 102.95251798559912,71.69669984577922 102.25323740998283,71.30809323128778 101.51510791364126,71.11378991784295 100.62158273370005,70.76404394302517 99.84460431640036,70.45315862074494 98.60143884876743,70.45315862074494 97.86330935242586,70.25885528890649 96.77553956839256,69.90910928108497 95.88201438845135,68.66556781053077 95.22158273379318,67.81063295033528 94.48345323745161,67.34430481074378 93.27913669054396,67.15000141219934 92.07482014386915,66.95569800946396 90.90935251791961,67.4608868479263 89.66618705028668,67.88835430465406 89.08345323731191,67.81063295033528 88.22877697832882,67.732911595318 87.25755395670421,67.69405091769295 86.32517985603772,67.96607565815793 85.93669064738788,67.77177227294305 85.35395683441311,68.0826576873078 84.88776978407986,68.97645319416188 85.23741007177159,69.71480593754677 86.55827338108793,69.94796994928038 87.2187050357461,69.7925272755092 86.28633093531244,69.48164191981778 85.58705035969615,69.09303521021502 83.99424460437149,69.52050258987583 82.90647482010536,69.7925272755092 82.4791366904974,70.29771595564671 81.58561151078902,71.73556050640764 81.04172661853954,72.35733105213149 80.3035971224308,72.47391302476171 79.37122302153148,73.406568751554 78.16690647485666,74.02833918260876 77.38992805755697,74.84441280877218 76.69064748194069,75.73820764821721 76.10791366896592,76.39883855980588 75.02014388493262,77.87554277654272 74.01007194258273,79.15794361173175 73.58273381297477,79.50768926256569 72.80575539544225,80.20718052377924 71.67913669045083,81.25641731446376 71.21294964035042,81.64502350240946 70.47482014377601,82.46109644300304 69.62014388502575,83.23830869910307 68.88201438845135,83.74349662987515 67.25035971216857,84.83159361605067 66.27913669054396,85.64766627020435 64.10359712224454,86.96892660215963 62.23884892091155,87.90158083831193 60.37410071934573,88.4844896873692 59.55827338108793,88.9119561528787 57.96546762576327,89.65030727320118 57.033093525096774,90.46637949428987 55.945323740830645,91.39903337153373 55.01294964016415,92.79801400791621 54.74100719415583,93.26434083882486 54.19712230213918,93.92497047514189 53.53669064748101,95.20736904372461 53.031654676189646,96.60634909424698 52.75971223018132,98.82140040089143 52.720863309223205,99.9872166615678 52.720863309223205,101.30847490968881 53.07050359714776,101.69708024035208 52.33237410057336,102.8240356054157 52.44892086321488,103.71782769239508 52.21582733816467,104.37845656985883 52.13812949624844,105.6997141810134 51.59424460423179,106.63236649718601 51.205755395581946,107.33185567171313 51.322302158223465,108.7696943616611 51.08920863294043,109.50804387108656 50.85611510789022,110.28525381645886 50.70071942429058,111.1013241878245 50.040287769632414,112.03397595143178 49.88489208626561,113.43295341805788 49.22446043160744,114.05472111213021 48.525179856223986,114.63762828690233 48.097841726616025,115.64800063491566 47.63165467628278,117.28014034562511 47.437410071957856,117.78532638738398 46.466187050100416,119.84493073023623" stroke="#4DD2FF" stroke-dasharray="none" stroke-linecap="round" stroke-linejoin="round" stroke-width="0.5"><title>2026-06-16 10.1km</title><desc>9223370255286294807</desc></polyline><polyline fill="none" opacity="1" points="53.12258064490743,222.41022044769488 53.54838709672913,221.55835307162488 53.39354838686995,220.97753436042694 53.470967741683125,219.50612679193728 53.5870967740193,218.3444890693645 53.935483870795,216.95052360580303 54.70967741915956,215.90504936745856 54.98064516088925,215.169345201517 55.13548387074843,214.74341118347365 55.5612903223373,213.81410052906722 56.83870967733674,212.84606849605916 57.49677419336513,210.98744670272572 58.23225806443952,210.0968569581746 60.129032257944345,209.09010322846007 61.83225806429982,208.35439850902185 62.41290322574787,208.0059067789698 64.19354838691652,207.23148066410795 65.6258064515423,206.61193972447654 66.98064516135491,205.72134954942157 68.76129032252356,204.44354610180017 70.46451612887904,203.28190644731512 72.12903225794435,201.6556106802309 73.75483870948665,199.91315060516354 75.38064516102895,198.17069019417977 75.88387096766382,197.0864924354828 76.89032258046791,196.07973725738702 77.81935483869165,195.3053101209225 79.13548387074843,193.95006247231504 79.75483870948665,193.67901291820453 80.79999999981374,192.36248639662517 81.5354838706553,192.24632228258997 81.99999999976717,191.5880589412409 81.961290322477,190.81363141944166 83.12258064490743,189.8068755416316 85.32903225789778,189.57454724627314 86.49032258056104,189.57454724627314 88.30967741901986,189.76815415959572 89.27741935476661,190.15536797366804 91.48387096752413,190.0392038311693 92.21935483859852,189.8068755416316 93.53548387088813,190.23281073442195 94.58064516121522,190.27153211453697 96.01290322560817,190.31025349459378 97.2516129030846,190.81363141944166 97.83225806429982,191.00723830610514 98.79999999981374,191.20084518869407 100.11612903210334,191.78166581131518 100.61935483873822,191.93655130430125 102.12903225794435,192.63353599025868 103.79354838700965,193.29179925529752 104.45161290303804,194.02750520053087 104.87741935462691,194.25983338133665 105.2258064514026,194.95681788789807 105.84516129014082,195.34403147932608 106.27096774172969,195.8474091234384 106.73548387084156,196.58311486052116 108.36129032238387,198.01580480806297 109.79354838700965,198.86767439893447 111.53548387088813,198.94511708500795 112.11612903210334,198.17069019417977 112.89032258046791,195.80868776718853 113.896774193272,193.64029155264143 114.55483870953321,191.5106161920703 115.05806451593526,189.57454724627314 115.01935483841226,188.80011955171358 115.05806451593526,186.36067187879235 115.17419354827143,185.89601510443026 114.82580645149574,184.1535519870231 114.70967741915956,183.4565666457056 114.59354838682339,182.9144668985973 114.78709677397273,182.1013172167004 115.2129032255616,181.0945603660075 116.33548387070186,180.5911818984896 117.99999999976717,180.9009532664204 120.16774193523452,181.3656102984096 122.21935483859852,182.25620287610218 123.49677419336513,182.52725277346326 124.03870967729017,183.185516776226 125.39354838686995,184.26971620536642 126.94193548359908,185.08286569151096 127.6387096773833,185.70240810804535 128.72258064500056,186.98021420749137 129.34193548350595,188.1805773480446 129.961290322477,189.30349756067153 130.03870967729017,189.96176106872736 129.5741935481783,191.23956656461814 129.88387096766382,192.28504365397384 130.69677419331856,193.98878383653937 130.77419354836456,194.84065380721586 130.77419354836456,195.80868776718853 131.35483870957978,197.12521378631936 132.43870967719704,198.28685423207935 133.48387096775696,198.94511708500795 133.83225806429982,199.29360916413134 135.34193548373878,200.02931462065317 137.54838709672913,200.7262986820424 139.17419354827143,201.19095469306922 140.10322580626234,201.19095469306922 140.80000000004657,201.42328268958954 142.2709677417297,202.27515195932938 143.3161290322896,202.85597186983796 144.12903225794435,203.39807041949825 145.2903225806076,204.21121818281244 146.2580645158887,205.5277429781272 146.68387096747756,206.3408905500546 147.18709677411243,206.8829888907494 147.53548387088813,207.27020197140519 149.0451612903271,208.8190541282529 150.12903225794435,209.7870865917066 151.13548387098126,210.83256153593538 152.6838709677104,212.22652794059832 153.2258064514026,212.3814130834071 153.10967741929926,212.30397051235195 153.6129032257013,211.21977444767253 154.0,210.79384024394676 153.41935483855195,209.9806930720224 151.44516129023395,208.6641689245007 150.12903225794435,207.42508719908074 149.85806451598182,207.1153167411685 148.81290322565474,205.68262823554687 147.49677419336513,204.327382143063 146.5290322578512,203.12702114874264 145.36774193542078,201.81049600394908 144.43870967719704,201.11351202620426 143.47096774191596,200.30036398425 142.38709677406587,199.44849452847848 140.87741935485974,198.86767439893447 140.06451612873934,198.67406768078217 139.21290322579443,198.94511708500795 137.81935483845882,198.8289530556067 136.15483870962635,198.55790364788845 135.2645161289256,198.20941154030152 133.52258064504713,197.202656487294 132.9032258063089,195.3053101209225 133.13548387074843,194.22111201833468 133.44516129023395,192.90458557580132 133.48387096775696,190.77491004159674 133.2516129030846,189.10989063739544 131.974193548318,186.94149281311547 130.77419354836456,185.9734579017968 129.99999999976717,185.27647270122543 129.6129032257013,184.96670148376143 128.9548387096729,184.54076604224974 127.67741935467348,183.80505932314554 126.16774193523452,182.6046955998172 125.35483870957978,182.06259580148617 123.88387096766382,181.5979388054111 123.57419354841113,180.97839610674419 122.91612903214991,180.97839610674419 122.49032258056104,180.47501763270702 120.86451612878591,179.81675343192182 118.96774193528108,179.3908177469275 117.5354838706553,179.04232489870628 115.67741935467348,178.9648820417351 115.2129032255616,179.0036034703371 112.73548387084156,178.8099963257555 111.72903225780465,179.04232489870628 110.99354838696308,179.85547485679854 110.95483870944008,180.9396746866987 112.19354838691652,182.75958125054603 112.81290322565474,183.92122354597086 113.08387096761726,184.73437306360574 112.73548387084156,185.31519410276087 113.43225806439295,186.36067187879235 113.39354838686995,186.86405002413085 113.31612903228961,187.36742814129684 113.16129032243043,188.60651261761086 113.1999999997206,190.23281073442195 112.96774193528108,190.9297955519869 112.73548387084156,191.93655130430125 112.3096774192527,192.74970009934623 111.80645161261782,193.6015701869037 110.76129032252356,194.56960427982267 110.02580645144917,194.84065380721586 109.05806451593526,194.76321108592674 107.974193548318,194.1823906551581 107.39354838686995,193.91134110785788 105.53548387088813,192.51737187971594 104.33548387070186,191.93655130430125 103.40645161271095,191.43317344214302 102.39999999990687,190.9297955519869 101.16129032243043,190.54258177115116 100.77419354813173,190.34897487447597 100.0,190.27153211453697 98.95483870967291,190.23281073442195 98.21935483859852,189.92303968715714 97.2516129030846,189.53582586313132 96.28387096757069,188.2192987370072 95.74193548364565,187.87080623023212 94.42580645158887,187.21254256973043 92.49032258056104,186.90277141873958 90.90322580630891,187.28998535580467 90.3225806450937,187.4835923180799 89.66451612883247,187.28998535580467 88.58064516121522,187.01893560157623 87.49677419359796,187.28998535580467 86.45161290303804,187.4835923180799 86.10322580626234,187.40614953369368 85.2516129030846,188.68395539169433 85.5612903223373,189.45838309632381 86.37419354822487,189.57454724627314 87.38064516102895,189.61326862924034 87.2258064514026,189.1486120224581 86.56774193537422,189.10989063739544 85.71612903219648,188.5290698428871 84.43870967719704,189.03244786697906 83.08387096761726,189.53582586313132 82.15483870939352,190.50386039208388 81.961290322477,191.47189481725218 80.95483870944008,192.16887953900732 80.41290322574787,192.32376502535772 78.70967741915956,193.64029155264143 77.50967741920613,195.11170332640177 76.73548387084156,195.7312450542231 75.38064516102895,197.43498458643444 74.64516129018739,198.20941154030152 74.18064516107552,198.63534633658128 73.29032258060761,199.5259372094879 72.36129032238387,200.7262986820424 71.70322580635548,201.38456135732122 70.61935483850539,202.54620125552174 69.41935483855195,203.20446379837813 68.91612903214991,203.5529557133559 68.06451612897217,204.40482478233753 67.2129032255616,204.71459533309098 65.6258064515423,205.9536774297012 63.961290322477,206.76682496344438 62.83870967710391,207.308923278586 60.67096774186939,208.27695590350777 58.50322580640204,209.2449884249363 56.567741935374215,210.7551189516671 55.29032258037478,211.87803635955788 54.67096774163656,213.1558387578698 54.322580644860864,213.69793669052888 53.703225806355476,214.82085373369046 53.470967741683125,215.44039411167614 53.16129032243043,216.71819600765593 53.12258064490743,217.72494888975052 53.045161290094256,219.35124177095713 52.812903225654736,220.47415811382234 53.12258064490743,221.4421893323306 52.92903225799091,222.91359658678994 53.006451612571254,223.53313641203567 52.42580645135604,224.88837963232072 52.61935483850539,225.43047686381033 51.72903225803748,226.97932591824792 51.80645161261782,227.86991400498664 51.225806451402605,229.30259900476085 50.87741935485974,230.50295653333887 50.25806451588869,232.24541072826833 49.98709677392617,233.13599829893792 49.251612902851775,233.79425862117205 48.43870967719704,234.7622884203447 48.01290322560817,236.27241470117588 47.50967741920613,238.09231014258694 46.73548387084156,239.64115704013966 46.0,241.1900036741863 46.92903225775808,240.06708989077015 47.35483870934695,238.94417596887797" stroke="#4DD2FF" stroke-dasharray="none" stroke-linecap="round" stroke-linejoin="round" stroke-width="0.5"><title>2026-06-11 10.2km</title><desc>9223370255717407907</desc></polyline></svg>