<?xml version="1.0" encoding="utf-8" ?>
<svg baseProfile="full" height="300mm" version="1.1" viewBox="0,0,200,300" width="200mm" xmlns="http://www.w3.org/2000/svg" xmlns:ev="http://www.w3.org/2001/xml-events" xmlns:xlink="http://www.w3.org/1999/xlink"><defs /><rect fill="#222222" height="300" width="200" x="0" y="0" /><text fill="#FFFFFF" style="font-size:12px; font-family:Arial; font-weight:bold;" x="10" y="20">Over 10km Runs</text><text fill="#FFFFFF" style="font-size:4px; font-family:Arial" x="10" y="280">Runner</text><text fill="#FFFFFF" style="font-size:9px; font-family:Arial" x="10" y="290">Yanfu</text><text fill="#FFFFFF" style="font-size:4px; font-family:Arial" x="65" y="280">SPECIAL TRACKS</text><rect fill="yellow" height="2.6" width="2.6" x="65" y="283" /><text fill="#FFFFFF" style="font-size:3px; font-family:Arial" x="70" y="285.5">Over 20.0 km</text><rect fill="red" height="2.6" width="2.6" x="65" y="287" /><text fill="#FFFFFF" style="font-size:3px; font-family:Arial" x="70" y="289.5">Over 40.0 km</text><text fill="#FFFFFF" style="font-size:4px; font-family:Arial" x="120" y="280">STATISTICS</text><text fill="#FFFFFF" style="font-size:3px; font-family:Arial" x="120" y="285">Number: 2</text><text fill="#FFFFFF" style="font-size:3px; font-family:Arial" x="120" y="290">Weekly: 1.0</text><text fill="#FFFFFF" style="font-size:3px; font-family:Arial" x="141" y="285">Total: 20.3 km</text><text fill="#FFFFFF" style="font-size:3px; font-family:Arial" x="141" y="290">Avg: 10.1 km</text><text fill="#FFFFFF" style="font-size:3px; font-family:Arial" x="167" y="285">Min: 10.1 km</text><text fill="#FFFFFF" style="font-size:3px; font-family:Arial" x="167" y="290">Max: 10.2 km</text><polyline fill="none" opacity="1" points="52.79342387407087,105.05816973891342 52.98641887051053,103.59096996707376 53.25661186571233,103.12764367391355 53.1794138669502,101.4673909288249 53.063616869272664,101.3129487974802 53.56540385982953,99.0735375971417 53.912794853327796,97.37467355810804 54.22158684767783,96.10052531945985 54.954967834055424,95.63719864259474 54.99356683343649,95.17387194209732 55.109363831346855,94.8263769010664 55.61115082190372,94.40166072163265 55.649749821284786,93.43639660347253 56.691922802012414,92.78001694416162 57.386704789241776,91.39003633183893 58.15868477476761,89.72978143108776 59.586847748141736,88.76451681356411 61.169406719040126,88.1081368146697 62.21157969976775,87.60619913629489 62.86776268761605,87.37453558307607 64.14152966393158,86.67954488750547 64.83631165116094,86.37066011677962 66.8434596140869,85.21234213229036 67.4996426019352,84.9034573113313 68.92780557530932,83.86097096238518 70.78055754094385,82.50959959009197 72.0543245174922,81.38989172811853 72.8649035023991,80.42462621832965 73.13509649736807,80.03851998539176 73.90707648312673,79.42074997839518 75.45103645464405,77.83771414210787 76.37741243746132,76.25467802776257 77.14939242321998,75.59829711826751 77.41958541795611,75.28941196773667 78.11436740518548,74.20831385778729 79.04074338800274,73.4361008425476 80.3917083630804,72.50944513687864 81.08649035030976,71.7758426356595 82.16726233018562,71.15807206183672 82.93924231594428,69.49781343451468 84.32880629017018,69.03448539081728 85.91136526083574,69.07309606211493 87.10793423862197,68.99587471946143 88.18870621849783,68.99587471946143 89.26947819860652,69.57503477291903 90.89063616865315,69.65225611045025 91.97140814876184,69.34337075595977 92.35739814140834,69.18892807478551 92.78198713366874,69.18892807478551 95.02072909218259,69.88392011937685 96.48749106517062,69.84530945168808 97.33666904922575,69.57503477291903 97.76125804125331,70.1541947889491 98.7648320228327,70.50169078068575 99.6912080058828,71.04224007448647 101.58255897089839,71.46695735404501 102.81772694783285,72.12333856476471 103.89849892770872,72.6638877611258 104.55468191578984,73.35887953743804 105.24946390278637,74.28553515562089 106.3688348820433,75.55968647496775 107.41100786277093,76.56356314511504 108.37598284496926,77.4516077984008 109.57255182275549,78.06937794049736 110.49892780557275,78.80297992896521 111.15511079342104,78.30104173271684 112.12008577561937,77.6832716066856 112.62187276617624,76.33189930801746 112.7376697640866,75.67551840416854 113.58684774837457,73.86081800918328 114.39742673328146,71.50556801474886 114.7834167261608,70.11558412236627 115.05360972112976,68.60976799653145 115.13080771989189,66.37034867639886 114.86061472492293,63.97648602782283 114.7062187276315,62.20039397320943 114.9378127232194,61.273737109673675 115.78699070774019,60.076805186166894 116.86776268761605,60.076805186166894 118.02573266625404,60.308469441893976 119.26090064342134,60.42430156748742 121.4996426019352,61.312347814266104 122.81200857763179,61.81428695842624 123.73838456044905,61.5054013345507 124.47176554682665,61.54401203809539 124.31736954976805,62.66372236912139 125.51393852755427,63.66760047827847 127.25089349527843,64.7486998551176 127.90707648335956,65.48230292950757 128.40886347391643,66.02285252511501 128.98784846323542,66.83367685740814 129.72122944961302,68.10782923188526 130.03002144396305,69.26614941569278 129.72122944961302,69.88392011937685 129.21944245905615,70.54030144563876 129.60543245170265,71.46695735404501 130.18441744102165,72.39361316699069 130.68620443181135,74.55580969300354 130.37741243746132,75.2121906785178 130.87919942801818,76.37050994805759 131.8441744102165,77.21994398429524 133.23373838467523,78.1852098373929 133.7355253752321,78.64853741007391 134.35310936393216,79.03464370255824 135.35668334527873,79.45936060504755 137.28663330944255,79.92268811236136 138.98498927801847,80.30879435013048 140.1043602572754,80.65628995007137 141.64832022879273,81.19683863437967 142.8834882057272,81.81460851972224 144.15725518227555,82.81848449294921 145.04503216594458,83.51347548596095 145.97140814876184,84.51735127018765 146.3187991422601,85.28956333582755 146.6661901359912,85.83011174254352 147.39957112213597,86.44788131042151 147.9013581131585,87.14287202380365 148.32594710518606,87.6834203194012 149.36812008568086,88.5328532900312 150.83488205866888,89.72978143108776 151.99285203730687,90.81087768013822 152.88062902074307,91.89197379990947 153.2666190136224,91.58308920741547 153.49821300944313,90.77226710208924 153.96140100085177,90.11588724917965 153.49821300944313,89.4981179322931 151.9542530379258,88.49424270214513 151.33666904945858,87.87647327425657 150.29449606873095,87.02704024192644 149.86990707670338,86.52510250353953 149.29092208715156,85.63705874385778 148.3645461043343,84.82623610430164 147.82416011439636,84.67179368861252 147.28377412445843,83.35903304774547 146.1644031452015,81.93044036848005 145.12223016447388,81.08100677613402 144.54324517515488,80.46323684067465 144.00285918521695,79.99990936130052 142.4974982130807,79.45936060504755 142.11150822020136,79.07325433078222 140.87634024303406,78.60992677992908 138.90779127948917,78.60992677992908 138.1358112937305,78.45548425766174 137.67262330232188,78.26243110111682 135.93566833459772,77.87632477557054 134.5847033597529,77.37438652769197 133.19513938529417,76.56356314511504 132.96354538947344,76.17745674675098 132.88634739094414,74.28553515562089 133.23373838467523,73.0499943101313 133.54253037879243,72.20055988046806 133.46533238026313,71.62139999610372 133.5039313796442,69.69086677901214 133.1565403859131,68.26227193162777 132.037169406889,66.56340208812617 130.87919942801818,65.48230292950757 129.41243745549582,64.43981433211593 128.37026447453536,63.74482186662499 126.67190850619227,62.54789027245715 125.86132952105254,61.89150836272165 124.35596854914911,61.428179926937446 123.62258756253868,61.11929428979056 123.15939957113005,61.08068358438322 122.54181558242999,60.501522983657196 122.38741958537139,60.076805186166894 120.95925661176443,59.42042309581302 119.91708363126963,59.111537389690056 118.56611865619197,58.60959809448104 116.94496068614535,58.60959809448104 115.86418870626949,58.41654451191425 114.16583273769356,58.41654451191425 112.583273767028,58.4551552287885 111.84989278041758,58.725430242018774 111.03931379574351,59.42042309581302 111.00071479636244,60.54013369162567 111.81129378126934,61.69845485070255 112.8148677626159,63.320104222453665 113.12365975696594,63.97648602782283 113.08506075758487,64.51703571382677 113.43245175131597,66.02285252511501 113.4710507504642,66.48618072393583 113.4710507504642,66.98811957909493 113.3938527519349,68.53254664991982 113.3166547534056,70.23141612159088 112.27448177267797,72.58666644938057 112.04288777685724,73.0499943101313 110.76912080054171,74.2469245067914 109.72694782004692,74.36275645293063 108.33738384558819,73.78359670762438 106.83202287345193,72.85694103769492 106.25303788413294,72.31639185291715 105.13366690487601,71.6600106562837 104.43888491764665,71.35112537065288 103.28091493924148,70.84918675897643 102.58613295201212,70.46308011555811 101.85275196563452,70.27002678770805 100.9649749819655,69.92253078694921 100.19299499643967,69.61364544171374 98.95782701927237,69.61364544171374 98.22444603289478,69.42059209558647 97.14367405278608,69.07309606211493 96.25589706934988,67.83755450090393 95.59971408150159,66.98811957909493 94.86633309512399,66.5247914060601 93.66976411710493,66.3317379936343 92.4731951393187,66.13868457707576 91.31522516091354,66.6406234515598 90.08005718374625,67.0653409389779 89.50107219442725,66.98811957909493 88.65189421013929,66.91089821851347 87.68691922794096,66.87228753807722 86.7605432451237,67.14256229810417 86.37455325224437,66.94950889889151 85.79556826292537,67.25839433562942 85.33238027151674,68.14643990714103 85.679771265015,68.88004270434612 86.9921372407116,69.11170673312154 87.6483202285599,68.95726404798916 86.72194424597546,68.64837866951711 86.0271622587461,68.26227193162777 84.44460328808054,68.68698934244458 83.36383130797185,68.95726404798916 82.93924231594428,69.4592027651961 82.05146533227526,70.88779742247425 81.51107934233733,71.50556801474886 80.77769835595973,71.62139999610372 79.85132237314247,72.54805579333333 78.65475339535624,73.16582627157914 77.88277340959758,73.97664996021194 77.18799142236821,74.86469486856367 76.60900643304922,75.52107583155157 75.52823445317335,76.98828016407788 74.52466047182679,78.26243110111682 74.1000714795664,78.60992677992908 73.32809149380773,79.30491809739033 72.2087205145508,80.34740497305756 71.74553252314217,80.7335111926659 71.01215153676458,81.54433420009445 70.16297355247661,82.31654652033467 69.42959256609902,82.81848449294921 67.8084345960524,83.89958157006186 66.8434596140869,84.71040429285495 64.68191565410234,86.02316473703831 62.829163688234985,86.949819053174 60.97641172260046,87.5289779525483 60.16583273769356,87.95369445509277 58.583273767028004,88.68729563971283 57.65689778421074,89.4981179322931 56.57612580410205,90.42477189179044 55.649749821284786,91.81475265271729 55.37955682631582,92.27807952545118 54.83917083614506,92.9344592213165 54.18298784852959,94.20860790635925 53.681200857739896,95.59858808520949 53.41100786277093,97.79938959790161 53.372408863389865,98.95770596835064 53.372408863389865,100.27046434214571 53.71979985712096,100.65656971000135 52.98641887051053,101.77627518348163 53.1022158684209,102.66431735712104 52.870621872833,103.32069629896432 52.79342387407087,104.63345403992571 52.25303788413294,105.56010644836351 51.867047891253605,106.25509569252608 51.98284488916397,107.68368452670984 51.75125089334324,108.41728411079384 51.51965689775534,109.18949413514929 51.36526090046391,110.00031458988087 50.70907791261561,110.92696644936223 50.55468191555701,112.31694406096358 49.898498927708715,112.93471181992209 49.203716940712184,113.51386905577965 48.77912794868462,114.5177415101789 48.315939957043156,116.13938139431411 48.12294496060349,116.64131749013904 47.15796997840516,118.68767205520999 46.424588992027566,120.88846795936115 46.0,121.66067692212528" stroke="#4DD2FF" stroke-dasharray="none" stroke-linecap="round" stroke-linejoin="round" stroke-width="0.5"><title>2026-06-16 10.1km</title><desc>9223370255286294807</desc></polyline><polyline fill="none" opacity="1" points="53.238709677243605,224.1139549598447 53.31612903205678,223.49441517418018 53.12258064490743,222.41022044769488 53.54838709672913,221.55835307162488 53.39354838686995,220.97753436042694 53.470967741683125,219.50612679193728 53.5870967740193,218.3444890693645 53.935483870795,216.95052360580303 54.70967741915956,215.90504936745856 54.98064516088925,215.169345201517 55.13548387074843,214.74341118347365 55.5612903223373,213.81410052906722 56.83870967733674,212.84606849605916 57.49677419336513,210.98744670272572 58.23225806443952,210.0968569581746 60.129032257944345,209.09010322846007 61.83225806429982,208.35439850902185 62.41290322574787,208.0059067789698 64.19354838691652,207.23148066410795 65.6258064515423,206.61193972447654 66.98064516135491,205.72134954942157 68.76129032252356,204.44354610180017 70.46451612887904,203.28190644731512 72.12903225794435,201.6556106802309 73.75483870948665,199.91315060516354 75.38064516102895,198.17069019417977 75.88387096766382,197.0864924354828 76.89032258046791,196.07973725738702 77.81935483869165,195.3053101209225 79.13548387074843,193.95006247231504 79.75483870948665,193.67901291820453 80.79999999981374,192.36248639662517 81.5354838706553,192.24632228258997 81.99999999976717,191.5880589412409 81.961290322477,190.81363141944166 83.12258064490743,189.8068755416316 85.32903225789778,189.57454724627314 86.49032258056104,189.57454724627314 88.30967741901986,189.76815415959572 89.27741935476661,190.15536797366804 91.48387096752413,190.0392038311693 92.21935483859852,189.8068755416316 93.53548387088813,190.23281073442195 94.58064516121522,190.27153211453697 96.01290322560817,190.31025349459378 97.2516129030846,190.81363141944166 97.83225806429982,191.00723830610514 98.79999999981374,191.20084518869407 100.11612903210334,191.78166581131518 100.61935483873822,191.93655130430125 102.12903225794435,192.63353599025868 103.79354838700965,193.29179925529752 104.45161290303804,194.02750520053087 104.87741935462691,194.25983338133665 105.2258064514026,194.95681788789807 105.84516129014082,195.34403147932608 106.27096774172969,195.8474091234384 106.73548387084156,196.58311486052116 108.36129032238387,198.01580480806297 109.79354838700965,198.86767439893447 111.53548387088813,198.94511708500795 112.11612903210334,198.17069019417977 112.89032258046791,195.80868776718853 113.896774193272,193.64029155264143 114.55483870953321,191.5106161920703 115.05806451593526,189.57454724627314 115.01935483841226,188.80011955171358 115.05806451593526,186.36067187879235 115.17419354827143,185.89601510443026 114.82580645149574,184.1535519870231 114.70967741915956,183.4565666457056 114.59354838682339,182.9144668985973 114.78709677397273,182.1013172167004 115.2129032255616,181.0945603660075 116.33548387070186,180.5911818984896 117.99999999976717,180.9009532664204 120.16774193523452,181.3656102984096 122.21935483859852,182.25620287610218 123.49677419336513,182.52725277346326 124.03870967729017,183.185516776226 125.39354838686995,184.26971620536642 126.94193548359908,185.08286569151096 127.6387096773833,185.70240810804535 128.72258064500056,186.98021420749137 129.34193548350595,188.1805773480446 129.961290322477,189.30349756067153 130.03870967729017,189.96176106872736 129.5741935481783,191.23956656461814 129.88387096766382,192.28504365397384 130.69677419331856,193.98878383653937 130.77419354836456,194.84065380721586 130.77419354836456,195.80868776718853 131.35483870957978,197.12521378631936 132.43870967719704,198.28685423207935 133.48387096775696,198.94511708500795 133.83225806429982,199.29360916413134 135.34193548373878,200.02931462065317 137.54838709672913,200.7262986820424 139.17419354827143,201.19095469306922 140.10322580626234,201.19095469306922 140.80000000004657,201.42328268958954 142.2709677417297,202.27515195932938 143.3161290322896,202.85597186983796 144.12903225794435,203.39807041949825 145.2903225806076,204.21121818281244 146.2580645158887,205.5277429781272 146.68387096747756,206.3408905500546 147.18709677411243,206.8829888907494 147.53548387088813,207.27020197140519 149.0451612903271,208.8190541282529 150.12903225794435,209.7870865917066 151.13548387098126,210.83256153593538 152.6838709677104,212.22652794059832 153.2258064514026,212.3814130834071 153.10967741929926,212.30397051235195 153.6129032257013,211.21977444767253 154.0,210.79384024394676 153.41935483855195,209.9806930720224 151.44516129023395,208.6641689245007 150.12903225794435,207.42508719908074 149.85806451598182,207.1153167411685 148.81290322565474,205.68262823554687 147.49677419336513,204.327382143063 146.5290322578512,203.12702114874264 145.36774193542078,201.81049600394908 144.43870967719704,201.11351202620426 143.47096774191596,200.30036398425 142.38709677406587,199.44849452847848 140.87741935485974,198.86767439893447 140.06451612873934,198.67406768078217 139.21290322579443,198.94511708500795 137.81935483845882,198.8289530556067 136.15483870962635,198.55790364788845 135.2645161289256,198.20941154030152 133.52258064504713,197.202656487294 132.9032258063089,195.3053101209225 133.13548387074843,194.22111201833468 133.44516129023395,192.90458557580132 133.48387096775696,190.77491004159674 133.2516129030846,189.10989063739544 131.974193548318,186.94149281311547 130.77419354836456,185.9734579017968 129.99999999976717,185.27647270122543 129.6129032257013,184.96670148376143 128.9548387096729,184.54076604224974 127.67741935467348,183.80505932314554 126.16774193523452,182.6046955998172 125.35483870957978,182.06259580148617 123.88387096766382,181.5979388054111 123.57419354841113,180.97839610674419 122.91612903214991,180.97839610674419 122.49032258056104,180.47501763270702 120.86451612878591,179.81675343192182 118.96774193528108,179.3908177469275 117.5354838706553,179.04232489870628 115.67741935467348,178.9648820417351 115.2129032255616,179.0036034703371 112.73548387084156,178.8099963257555 111.72903225780465,179.04232489870628 110.99354838696308,179.85547485679854 110.95483870944008,180.9396746866987 112.19354838691652,182.75958125054603 112.81290322565474,183.92122354597086 113.08387096761726,184.73437306360574 112.73548387084156,185.31519410276087 113.43225806439295,186.36067187879235 113.39354838686995,186.86405002413085 113.31612903228961,187.36742814129684 113.16129032243043,188.60651261761086 113.1999999997206,190.23281073442195 112.96774193528108,190.9297955519869 112.73548387084156,191.93655130430125 112.3096774192527,192.74970009934623 111.80645161261782,193.6015701869037 110.76129032252356,194.56960427982267 110.02580645144917,194.84065380721586 109.05806451593526,194.76321108592674 107.974193548318,194.1823906551581 107.39354838686995,193.91134110785788 105.53548387088813,192.51737187971594 104.33548387070186,191.93655130430125 103.40645161271095,191.43317344214302 102.39999999990687,190.9297955519869 101.16129032243043,190.54258177115116 100.77419354813173,190.34897487447597 100.0,190.27153211453697 98.95483870967291,190.23281073442195 98.21935483859852,189.92303968715714 97.2516129030846,189.53582586313132 96.28387096757069,188.2192987370072 95.74193548364565,187.87080623023212 94.42580645158887,187.21254256973043 92.49032258056104,186.90277141873958 90.90322580630891,187.28998535580467 90.3225806450937,187.4835923180799 89.66451612883247,187.28998535580467 88.58064516121522,187.01893560157623 87.49677419359796,187.28998535580467 86.45161290303804,187.4835923180799 86.10322580626234,187.40614953369368 85.2516129030846,188.68395539169433 85.5612903223373,189.45838309632381 86.37419354822487,189.57454724627314 87.38064516102895,189.61326862924034 87.2258064514026,189.1486120224581 86.56774193537422,189.10989063739544 85.71612903219648,188.5290698428871 84.43870967719704,189.03244786697906 83.08387096761726,189.53582586313132 82.15483870939352,190.50386039208388 81.961290322477,191.47189481725218 80.95483870944008,192.16887953900732 80.41290322574787,192.32376502535772 78.70967741915956,193.64029155264143 77.50967741920613,195.11170332640177 76.73548387084156,195.7312450542231 75.38064516102895,197.43498458643444 74.64516129018739,198.20941154030152 74.18064516107552,198.63534633658128 73.29032258060761,199.5259372094879 72.36129032238387,200.7262986820424 71.70322580635548,201.38456135732122 70.61935483850539,202.54620125552174 69.41935483855195,203.20446379837813 68.91612903214991,203.5529557133559 68.06451612897217,204.40482478233753 67.2129032255616,204.71459533309098 65.6258064515423,205.9536774297012 63.961290322477,206.76682496344438 62.83870967710391,207.308923278586 60.67096774186939,208.27695590350777 58.50322580640204,209.2449884249363 56.567741935374215,210.7551189516671 55.29032258037478,211.87803635955788 54.67096774163656,213.1558387578698 54.322580644860864,213.69793669052888 53.703225806355476,214.82085373369046 53.470967741683125,215.44039411167614 53.16129032243043,216.71819600765593 53.12258064490743,217.72494888975052 53.045161290094256,219.35124177095713 52.812903225654736,220.47415811382234 53.12258064490743,221.4421893323306 52.92903225799091,222.91359658678994 53.006451612571254,223.53313641203567 52.42580645135604,224.88837963232072 52.61935483850539,225.43047686381033 51.72903225803748,226.97932591824792 51.80645161261782,227.86991400498664 51.225806451402605,229.30259900476085 50.87741935485974,230.50295653333887 50.25806451588869,232.24541072826833 49.98709677392617,233.13599829893792 49.251612902851775,233.79425862117205 48.43870967719704,234.7622884203447 48.01290322560817,236.27241470117588 47.50967741920613,238.09231014258694 46.73548387084156,239.64115704013966 46.0,241.1900036741863 46.92903225775808,240.06708989077015 47.35483870934695,238.94417596887797 48.16774193523452,237.16300187760498" stroke="#4DD2FF" stroke-dasharray="none" stroke-linecap="round" stroke-linejoin="round" stroke-width="0.5"><title>2026-06-11 10.2km</title><desc>9223370255717407907</desc></polyline></svg>