<?xml version="1.0" encoding="utf-8" ?>
<svg baseProfile="full" height="300mm" version="1.1" viewBox="0,0,200,300" width="200mm" xmlns="http://www.w3.org/2000/svg" xmlns:ev="http://www.w3.org/2001/xml-events" xmlns:xlink="http://www.w3.org/1999/xlink"><defs /><rect fill="#222222" height="300" width="200" x="0" y="0" /><text fill="#FFFFFF" style="font-size:12px; font-family:Arial; font-weight:bold;" x="10" y="20">Over 10km Runs</text><text fill="#FFFFFF" style="font-size:4px; font-family:Arial" x="10" y="280">Runner</text><text fill="#FFFFFF" style="font-size:9px; font-family:Arial" x="10" y="290">Yanfu</text><text fill="#FFFFFF" style="font-size:4px; font-family:Arial" x="65" y="280">SPECIAL TRACKS</text><rect fill="yellow" height="2.6" width="2.6" x="65" y="283" /><text fill="#FFFFFF" style="font-size:3px; font-family:Arial" x="70" y="285.5">Over 20.0 km</text><rect fill="red" height="2.6" width="2.6" x="65" y="287" /><text fill="#FFFFFF" style="font-size:3px; font-family:Arial" x="70" y="289.5">Over 40.0 km</text><text fill="#FFFFFF" style="font-size:4px; font-family:Arial" x="120" y="280">STATISTICS</text><text fill="#FFFFFF" style="font-size:3px; font-family:Arial" x="120" y="285">Number: 1</text><text fill="#FFFFFF" style="font-size:3px; font-family:Arial" x="120" y="290">Weekly: 1.0</text><text fill="#FFFFFF" style="font-size:3px; font-family:Arial" x="141" y="285">Total: 10.2 km</text><text fill="#FFFFFF" style="font-size:3px; font-family:Arial" x="141" y="290">Avg: 10.2 km</text><text fill="#FFFFFF" style="font-size:3px; font-family:Arial" x="167" y="285">Min: 10.2 km</text><text fill="#FFFFFF" style="font-size:3px; font-family:Arial" x="167" y="290">Max: 10.2 km</text><polyline fill="none" opacity="1" points="28.406451612710953,174.83008868206525 28.92903225799091,174.01694293529727 29.103225806262344,173.08763345115585 29.858064515981823,171.17093243979616 29.974193548318,170.24162276129937 29.68387096747756,168.61533067160053 30.322580645093694,167.33752960752463 30.090322580421343,166.46630154066952 30.20645161275752,164.25919018796412 30.380645161261782,162.51673360407585 30.90322580630891,160.42578540876275 32.06451612897217,158.85757405124605 32.470967741683125,157.7540178023046 32.703225806355476,157.1151167752687 33.34193548373878,155.72115079365904 35.25806451588869,154.26910274411784 36.24516129004769,151.48117005411768 37.348387096775696,150.14528543729102 40.19354838714935,148.6351548427483 42.74838709644973,147.53159776353277 43.61935483850539,147.00886016857112 46.29032258060761,145.84722099627834 48.43870967742987,144.91790958674392 50.470967741915956,143.58202432421967 53.141935483785346,141.66531915281666 55.69677419331856,139.9228596710018 58.19354838691652,137.48341602040455 60.63225806434639,134.8697259078035 63.07096774177626,132.25603529135697 63.82580645149574,130.6297386532533 65.3354838709347,129.11960588616785 66.72903225803748,127.95796518144198 68.70322580635548,125.92509370850166 69.63225806457922,125.5185193773359 71.1999999997206,123.54372959502507 72.30322580621578,123.36948342388496 72.99999999976717,122.38208841194864 72.94193548383191,121.2204471292207 74.68387096747756,119.71031331253471 77.99354838673025,119.36182086943882 79.73548387084156,119.36182086943882 82.46451612887904,119.65223123942269 83.91612903214991,120.23305196058936 87.2258064514026,120.05880574678304 88.32903225789778,119.71031331253471 90.30322580644861,120.34921610169113 91.87096774182282,120.40729817189276 94.01935483864509,120.46538024197798 95.87741935462691,121.2204471292207 96.74838709668256,121.51085745921591 98.1999999997206,121.80126778304111 100.1741935480386,122.67249871703098 100.92903225799091,122.90482695651008 103.19354838691652,123.95030398550443 105.69032258051448,124.93769888294628 106.67741935467348,126.04125780088361 107.31612903205678,126.38975007209228 107.83870967733674,127.43522683187621 108.76774193509482,128.01604721904732 109.40645161271095,128.77111368515762 110.10322580626234,129.87467229081085 112.54193548369221,132.02370721218176 114.69032258051448,133.3015115984599 117.30322580644861,133.41767562762834 118.17419354827143,132.25603529135697 119.3354838709347,128.7130316508701 120.84516129014082,125.46043732896214 121.83225806453265,122.26592428813456 122.58709677425213,119.36182086943882 122.52903225785121,118.20017932757037 122.58709677425213,114.54100781830493 122.76129032252356,113.8440226566745 122.2387096772436,111.23032798059285 122.06451612897217,110.18484996858751 121.89032258046791,109.37170034792507 122.18064516107552,108.15197582507972 122.81935483869165,106.64184054906946 124.50322580616921,105.88677284773439 126.99999999976717,106.35142989968881 130.2516129030846,107.0484154477017 133.32903225789778,108.38430431421148 135.2451612900477,108.7908791602822 136.05806451593526,109.7782751644263 138.09032258042134,111.40457430807874 140.41290322574787,112.62429853732465 141.45806451607496,113.55361216206802 143.08387096761726,115.47032131132437 144.01290322560817,117.27086602209602 144.9419354838319,118.95524634112371 145.05806451593526,119.94264160312014 144.36129032238387,121.85934984701453 144.82580645149574,123.42756548104808 146.04516129009426,125.98317575483816 146.16129032243043,127.26098071085289 146.16129032243043,128.7130316508701 147.03225806425326,130.68782067950815 148.65806451579556,132.43028134817723 150.22580645163544,133.41767562762834 150.74838709668256,133.94041374628432 153.01290322560817,135.04397193097975 156.3225806450937,136.0894480231218 158.76129032229073,136.78643203963293 160.15483870962635,136.78643203963293 161.20000000018626,137.13492403441342 163.40645161271095,138.41272793902317 164.974193548318,139.28395780484425 166.19354838714935,140.09710562927648 167.93548387102783,141.31682727427687 169.38709677406587,143.29161446727812 170.02580645144917,144.51133582514012 170.78064516116865,145.3244833361823 171.3032258064486,145.905302957166 173.56774193537422,148.22858119243756 175.19354838691652,149.68062988755992 176.70322580635548,151.2488423039904 179.025806451682,153.3397919110139 179.83870967733674,153.57211962522706 179.6645161290653,153.45595576858614 180.41935483878478,151.8296616715379 181.0,151.19076036597835 180.12903225794435,149.9710396080627 177.16774193546735,147.99625338683836 175.19354838691652,146.1376307986793 174.78709677420557,145.67297511186916 173.21935483859852,143.52394235337852 171.24516129028052,141.49107321468182 169.79354838700965,139.69053172320127 168.05161290313117,137.71574400598183 166.6580645160284,136.6702680393355 165.20645161299035,135.4505459764041 163.58064516121522,134.17274179274682 161.3161290322896,133.3015115984599 160.09677419345826,133.01110152126057 158.81935483869165,133.41767562762834 156.72903225803748,133.24342958349735 154.23225806467235,132.83685547189089 152.89677419350483,132.3141173105687 150.2838709675707,130.80398473097011 149.35483870957978,127.95796518144198 149.70322580635548,126.33166802756023 150.16774193523452,124.35687836376019 150.22580645163544,121.16236506239511 149.87741935485974,118.66483595618047 147.961290322477,115.41223921976052 146.16129032243043,113.9601868527825 144.99999999976717,112.91470905189635 144.41935483855195,112.45005222567124 143.43225806439295,111.81114906346193 141.51612903224304,110.70758898480562 139.2516129030846,108.90704339981312 138.03225806471892,108.09389370225836 135.82580645149574,107.39690820820397 135.3612903226167,106.46759416017449 134.37419354822487,106.46759416017449 133.73548387084156,105.71252644906053 131.2967741934117,104.72513014788274 128.45161290327087,104.08622662047856 126.30322580621578,103.56348734814674 123.51612903201021,103.44732306263177 122.81935483869165,103.50540520553477 119.10322580649517,103.21499448874965 117.59354838705622,103.56348734814674 116.49032258079387,104.78321228525601 116.43225806439295,106.40951203013537 118.29032258060761,109.13937187584816 119.21935483859852,110.8818353189854 119.6258064515423,112.10155959543772 119.10322580649517,112.97279115417041 120.14838709658943,114.54100781830493 120.09032258065417,115.29607503622537 119.97419354855083,116.05114221194526 119.74193548364565,117.9097689265036 119.79999999981374,120.34921610169113 119.45161290327087,121.39469332806766 119.10322580649517,122.90482695651008 118.46451612911187,124.12455014913576 117.70967741915956,125.40235528041376 116.14193548378535,126.85440641979221 115.03870967729017,127.26098071085289 113.5870967740193,127.14481662894832 111.961290322477,126.27358598279534 111.09032258042134,125.86701166187413 108.30322580644861,123.77605781966122 106.50322580640204,122.90482695651008 105.10967741929926,122.14976016327273 103.5999999998603,121.39469332806766 101.74193548387848,120.81387265678495 101.16129032243043,120.52346231177216 100.0,120.40729817189276 98.43225806439295,120.34921610169113 97.32903225789778,119.88455953082303 95.87741935462691,119.3037387948134 94.42580645158887,117.328948105569 93.6129032257013,116.80620934540639 91.6387096773833,115.81881385459565 88.73548387084156,115.35415712813847 86.35483870957978,115.93497803376522 85.48387096752413,116.22538847714895 84.49677419336513,115.93497803376522 82.87096774182282,115.52840340242255 81.24516129028052,115.93497803376522 79.67741935467348,116.22538847714895 79.15483870962635,116.10922430059873 77.87741935462691,118.02593308757059 78.34193548373878,119.18757464457303 79.56129032257013,119.36182086943882 81.07096774177626,119.41990294388961 80.83870967733674,118.72291803377448 79.85161290317774,118.66483595618047 78.57419354841113,117.79360476433067 76.65806451602839,118.54867180052679 74.6258064515423,119.3037387948134 73.23225806443952,120.75579058815492 72.94193548383191,122.20784222590737 71.43225806439295,123.25331930856919 70.61935483873822,123.48564753803657 68.06451612873934,125.46043732896214 66.2645161289256,127.66755498968996 65.10322580626234,128.59686758136377 63.07096774177626,131.15247687970987 61.96774193528108,132.3141173105687 61.27096774196252,132.95301950495923 59.935483870795,134.28890581434825 58.541935483925045,136.0894480231218 57.554838709533215,137.07684203609824 55.92903225799091,138.8193018833408 54.129032257944345,139.8066956975963 53.374193548224866,140.32943357003387 52.09677419345826,141.6072371735936 50.81935483869165,142.07189299969468 48.43870967742987,143.93051614461 45.94193548383191,145.15023744519567 44.25806451588869,145.96338491793722 41.006451612804085,147.41543385537807 37.75483870948665,148.86748263746267 34.85161290317774,151.13267842755886 32.935483870795,152.81705453939503 32.006451612571254,154.7337581368629 31.483870967524126,155.54690503585152 30.554838709533215,157.2312806006521 30.20645161275752,158.16059116763063 29.74193548387848,160.0772940115421 29.68387096747756,161.5874233347131 29.567741935374215,164.0268626564648 29.21935483859852,165.71123717079172 29.68387096747756,167.16328399861231 29.393548386869952,169.3703948801849 29.509677419206128,170.29970461811172 28.638709677150473,172.33256944851018 28.92903225799091,173.1457152957446 27.593548387056217,175.46898887737188 27.70967741915956,176.80487100750906 26.838709677336738,178.95389850717038 26.31612903228961,180.7544348000083 25.387096774065867,183.3681160924607 24.980645161122084,184.7039974484942 23.87741935462691,185.69138793175807 22.65806451579556,187.14343263051705 22.019354838645086,189.40862205182202 21.264516128925607,192.13846521393862 20.103225806262344,194.4617355602677 19.0,196.78500551130855 20.393548386869952,195.10063483618433 21.032258064253256,193.41626395337516 22.251612903084606,190.74450281646568 23.819354838691652,187.84041403094307 24.516129032243043,186.56261476955842 25.735483870841563,184.58783385745483" stroke="#4DD2FF" stroke-dasharray="none" stroke-linecap="round" stroke-linejoin="round" stroke-width="0.5"><title>2026-06-11 10.2km</title><desc>9223370255717407907</desc></polyline></svg>