<?xml version="1.0" encoding="utf-8" ?>
<svg baseProfile="full" height="300mm" version="1.1" viewBox="0,0,200,300" width="200mm" xmlns="http://www.w3.org/2000/svg" xmlns:ev="http://www.w3.org/2001/xml-events" xmlns:xlink="http://www.w3.org/1999/xlink"><defs /><rect fill="#222222" height="300" width="200" x="0" y="0" /><text fill="#FFFFFF" style="font-size:12px; font-family:Arial; font-weight:bold;" x="10" y="20">Over 10km Runs</text><text fill="#FFFFFF" style="font-size:4px; font-family:Arial" x="10" y="280">Runner</text><text fill="#FFFFFF" style="font-size:9px; font-family:Arial" x="10" y="290">Yanfu</text><text fill="#FFFFFF" style="font-size:4px; font-family:Arial" x="65" y="280">SPECIAL TRACKS</text><rect fill="yellow" height="2.6" width="2.6" x="65" y="283" /><text fill="#FFFFFF" style="font-size:3px; font-family:Arial" x="70" y="285.5">Over 20.0 km</text><rect fill="red" height="2.6" width="2.6" x="65" y="287" /><text fill="#FFFFFF" style="font-size:3px; font-family:Arial" x="70" y="289.5">Over 40.0 km</text><text fill="#FFFFFF" style="font-size:4px; font-family:Arial" x="120" y="280">STATISTICS</text><text fill="#FFFFFF" style="font-size:3px; font-family:Arial" x="120" y="285">Number: 1</text><text fill="#FFFFFF" style="font-size:3px; font-family:Arial" x="120" y="290">Weekly: 1.0</text><text fill="#FFFFFF" style="font-size:3px; font-family:Arial" x="141" y="285">Total: 10.2 km</text><text fill="#FFFFFF" style="font-size:3px; font-family:Arial" x="141" y="290">Avg: 10.2 km</text><text fill="#FFFFFF" style="font-size:3px; font-family:Arial" x="167" y="285">Min: 10.2 km</text><text fill="#FFFFFF" style="font-size:3px; font-family:Arial" x="167" y="290">Max: 10.2 km</text><polyline fill="none" opacity="1" points="29.1612903221976,171.9259965068195 29.974193548318,170.7643594633555 29.68387096747756,169.3703948801849 30.322580645093694,167.8021845537005 30.090322580421343,166.87287464539986 29.974193548318,165.47890966379782 30.264516128925607,163.0394706026418 30.845161290373653,160.9485224877135 31.89032258046791,159.26414738351014 32.06451612897217,158.21867307595676 32.52903225785121,157.34744442492956 32.87741935462691,156.36005188641138 34.73548387107439,154.79184005991556 35.896774193504825,152.70089067635126 36.593548386823386,150.84226873202715 38.799999999813735,149.39022016100353 41.18064516130835,148.1704992414452 43.387096773833036,147.24118799105054 44.60645161266439,146.48612255323678 47.85806451574899,145.20831940911012 48.961290322477,144.395171891083 52.15483870962635,142.59463078487897 54.24516129028052,140.7940894399071 56.91612903214991,138.76121989206877 59.41290322574787,136.20561202830868 61.909677419345826,133.53383965569083 63.593548386823386,131.38480497372802 64.69677419331856,129.46809807809768 66.43870967719704,128.13221129355952 68.00645161303692,126.68016029131832 69.28387096757069,125.57660142536042 70.73548387084156,124.00838604016462 71.83870967733674,123.54372959502507 72.883870967431,122.7886628372944 72.883870967431,121.51085745921591 73.69677419331856,120.69770851946669 76.3096774192527,119.36182086943882 78.98064516112208,119.47798501822399 81.41935483855195,119.65223123942269 83.50967741920613,119.94264160312014 85.48387096752413,120.05880574678304 87.5741935481783,120.05880574678304 88.96774193528108,119.71031331253471 91.46451612887904,120.46538024197798 92.91612903214991,120.58154438115889 95.5870967740193,121.16236506239511 96.34193548373878,121.68510365427937 97.44516129023395,121.51085745921591 99.30322580644861,122.32400635012891 100.6387096773833,122.7305807772209 101.68387096747756,123.07907313370379 103.948387096636,124.12455014913576 105.98064516112208,125.11194503388833 107.08387096761726,126.15742189227603 107.60645161266439,127.14481662894832 108.53548387088813,127.72563702857587 109.29032258037478,128.42262147529982 109.81290322565474,129.17768791870913 111.43870967719704,130.68782067950815 113.12258064514026,132.54644538473804 116.02580645144917,134.11465978139313 117.59354838705622,133.06918353709625 118.69677419355139,130.57165662694024 120.03225806425326,127.14481662894832 121.3096774192527,124.0664680947666 122.2967741934117,120.40729817189276 122.64516129018739,118.60675387852825 122.58709677425213,116.34155265294248 122.70322580635548,114.25059733865783 122.35483870934695,111.98539538338082 122.2967741934117,110.47526053560432 121.94838709686883,109.7782751644263 122.18064516107552,108.50046855717665 122.58709677425213,106.93225119216368 123.86451612878591,106.00293711211998 126.01290322560817,106.06101924407994 128.62580645130947,106.52567629003897 131.93548387102783,107.86156520823715 134.95483870944008,108.5585506784264 135.5935483868234,109.0232076382963 136.69677419331856,110.12676785455551 139.65806451626122,112.33388801652472 140.99354838719591,113.03087325609522 141.80645161285065,114.1925152419717 143.31612903205678,115.76073176471982 144.82580645149574,118.60675387852825 144.99999999976717,119.65223123942269 144.82580645149574,121.39469332806766 144.24516129028052,122.14976016327273 145.6387096773833,124.93769888294628 146.04516129009426,126.91248846205417 146.10322580649517,128.30645740340697 146.9161290321499,130.2812464912422 148.01935483864509,132.02370721218176 149.06451612897217,132.7206914377166 150.45806451584212,133.76616770908004 151.38709677406587,134.11465978139313 154.52258064504713,135.62479199212976 157.01935483864509,136.20561202830868 159.80645161285065,137.018760037201 160.85161290317774,137.07684203609824 162.41935483855195,137.71574400598183 164.21935483883135,138.70313790044747 165.6709677418694,139.69053172320127 167.41290322574787,140.7940894399071 168.5161290320102,141.72340113169048 169.61935483873822,143.98859811382135 170.20000000018626,144.80174565623747 170.89677419350483,145.67297511186916 172.52258064504713,147.35735190071864 174.26451612915844,148.6351548427483 176.06451612897217,150.26144932222087 177.98064516112208,152.0039074770175 179.54838709672913,153.8625292624929 179.95483870944008,153.2236280524521 179.83870967733674,152.70089067635126 181.0,151.53925199096557 180.47741935472004,150.60994097107323 178.6193548385054,149.04172848089365 176.18064516130835,146.7184503848548 175.07741935481317,145.84722099627834 173.6838709677104,144.10476205137093 171.88387096766382,142.88504065695452 170.25806451612152,140.27135158516467 168.98064516112208,138.52889192436123 166.94838709686883,136.72835003968794 166.2516129030846,136.0313660200336 163.98709677392617,134.46315184503328 162.9419354838319,134.11465978139313 160.44516129023395,133.12726555281552 159.22580645163544,133.18534756836016 157.25161290285178,133.4757576418342 155.27741935453378,133.18534756836016 153.41935483855195,132.43028134817723 152.08387096761726,131.67521508585196 149.47096774168313,129.58426214021165 149.23870967747644,127.60947295057122 149.87741935485974,124.93769888294628 150.2838709675707,122.7305807772209 150.22580645163544,120.29113403125666 149.00645161280409,116.98045560106402 147.3225806450937,114.9475824793335 145.23225806443952,113.20511956029804 144.6516129032243,112.74046274402644 143.72258064500056,112.04347748943837 142.38709677406587,111.28841009008465 140.64516129042022,109.8944393954589 138.84516129014082,108.5585506784264 136.81290322565474,107.91964733210625 135.53548387088813,106.93225119216368 135.07096774177626,106.23526563827181 134.08387096738443,106.35142989968881 132.22580645163544,105.13170510414056 129.49677419336513,104.31855517928489 127.40645161294378,103.67965163267218 125.31612903205678,103.62156949046766 123.16774193523452,103.44732306263177 120.90322580630891,103.38924091961235 118.3483870967757,103.50540520553477 117.24516129004769,103.79581591609167 116.31612903228961,106.00293711211998 117.3612903226167,107.80348308413522 118.75483870948665,109.7782751644263 119.27741935476661,111.23032798059285 119.45161290327087,112.50813432974974 119.97419354855083,114.1925152419717 120.20645161275752,114.9475824793335 120.09032258065417,115.70264967455296 120.09032258065417,116.80620934540639 119.74193548364565,119.53606709215092 119.6258064515423,121.1042829954531 119.39354838686995,122.20784222590737 118.92903225799091,123.25331930856919 117.99999999976717,124.70537067839177 117.12903225794435,126.15742189227603 115.73548387084156,126.91248846205417 114.28387096757069,127.37714479176793 112.36774193565361,126.38975007209228 111.67096774186939,126.04125780088361 109.58064516121522,124.87961683206959 107.31612903205678,123.19523725053295 105.80645161261782,122.44017047341913 104.41290322574787,121.62702158949105 102.6129032257013,121.16236506239511 101.45161290303804,120.63962645054562 100.34838709654287,120.69770851946669 99.24516129028052,120.23305196058936 97.67741935444064,120.17496988951461 96.63225806457922,119.71031331253471 95.2387096772436,117.61935851920862 94.01935483864509,116.92237351619406 92.39354838686995,115.93497803376522 90.70967741915956,115.41223921976052 88.21290322579443,115.52840340242255 85.89032258046791,116.16730638907757 85.07741935481317,116.39963474025717 83.85806451598182,114.9475824793335 82.17419354827143,115.87689594441326 79.90967741934583,116.28347056522034 79.50322580616921,115.99306012294255 78.28387096757069,116.98045560106402 77.99354838673025,118.4905897223507 78.80645161261782,119.36182086943882 80.72258064523339,119.53606709215092 81.12903225771151,119.07141049340134 80.19999999995343,118.78100011096103 79.09677419345826,117.96785100712441 78.16774193523452,117.85168684541713 75.09032258065417,119.07141049340134 73.6387096773833,120.46538024197798 72.883870967431,121.1042829954531 71.896774193272,123.19523725053295 71.02580645121634,123.19523725053295 69.28387096757069,124.8215347811929 67.07741935458034,126.4478321163333 65.56774193537422,128.3645394394407 64.0,129.7585082311998 62.78064516116865,131.55905104178237 61.677419354673475,132.7206914377166 60.39999999990687,134.05657777009765 59.006451612804085,135.91520201339154 57.84516129014082,136.72835003968794 56.21935483859852,138.41272793902317 54.651612902991474,139.5743677477003 53.78064516116865,140.09710562927648 53.08387096761726,140.73600745701697 51.225806451402605,141.8395650886814 49.42580645158887,143.46586038224632 47.6258064515423,144.45325385825709 44.664516128832474,145.67297511186916 42.5741935481783,146.7184503848548 39.43870967719704,148.0543353385292 36.24516129004769,149.91295766452095 33.34193548373878,152.41048101423075 32.703225806355476,153.2236280524521 31.832258064299822,155.19841351377545 30.845161290373653,156.8247072076192 30.43870967719704,157.7540178023046 30.090322580421343,159.1479835754726 29.799999999813735,160.6000311038806 29.509677419206128,161.99399658537004 29.509677419206128,164.9561727590044 29.1612903221976,166.6405471583712 29.393548386869952,168.61533067160053 29.625806451542303,169.95121347374516 28.92903225799091,171.1128505866509 28.870967741822824,172.79722422431223 28.580645161215216,173.9588610943756 27.361290322383866,175.81747988052666 27.47741935472004,177.7341802380979 26.664516128832474,179.41855305724312 25.503225806402043,181.91607099189423 25.212903225561604,184.29742487578187 24.516129032243043,184.99440642161062 23.529032257851213,185.98179688391974 21.90322580630891,187.66616868419806 21.496774193597957,190.80258458596654 20.858064515981823,193.35818219510838 19.290322580607608,195.97186107345624 20.045161289861426,195.39104358816985 20.91612903191708,193.82283625454875 21.554838709300384,192.66120107640745 23.006451612804085,189.17629494908033" stroke="#4DD2FF" stroke-dasharray="none" stroke-linecap="round" stroke-linejoin="round" stroke-width="0.5"><title>2026-06-11 10.2km</title><desc>9223370255717407907</desc></polyline></svg>