<?xml version="1.0" encoding="utf-8" ?>
<svg baseProfile="full" height="300mm" version="1.1" viewBox="0,0,200,300" width="200mm" xmlns="http://www.w3.org/2000/svg" xmlns:ev="http://www.w3.org/2001/xml-events" xmlns:xlink="http://www.w3.org/1999/xlink"><defs /><rect fill="#222222" height="300" width="200" x="0" y="0" /><text fill="#FFFFFF" style="font-size:12px; font-family:Arial; font-weight:bold;" x="10" y="20">Over 10km Runs</text><text fill="#FFFFFF" style="font-size:4px; font-family:Arial" x="10" y="280">Runner</text><text fill="#FFFFFF" style="font-size:9px; font-family:Arial" x="10" y="290">Yanfu</text><text fill="#FFFFFF" style="font-size:4px; font-family:Arial" x="65" y="280">SPECIAL TRACKS</text><rect fill="yellow" height="2.6" width="2.6" x="65" y="283" /><text fill="#FFFFFF" style="font-size:3px; font-family:Arial" x="70" y="285.5">Over 20.0 km</text><rect fill="red" height="2.6" width="2.6" x="65" y="287" /><text fill="#FFFFFF" style="font-size:3px; font-family:Arial" x="70" y="289.5">Over 40.0 km</text><text fill="#FFFFFF" style="font-size:4px; font-family:Arial" x="120" y="280">STATISTICS</text><text fill="#FFFFFF" style="font-size:3px; font-family:Arial" x="120" y="285">Number: 3</text><text fill="#FFFFFF" style="font-size:3px; font-family:Arial" x="120" y="290">Weekly: 1.5</text><text fill="#FFFFFF" style="font-size:3px; font-family:Arial" x="141" y="285">Total: 30.4 km</text><text fill="#FFFFFF" style="font-size:3px; font-family:Arial" x="141" y="290">Avg: 10.1 km</text><text fill="#FFFFFF" style="font-size:3px; font-family:Arial" x="167" y="285">Min: 10.1 km</text><text fill="#FFFFFF" style="font-size:3px; font-family:Arial" x="167" y="290">Max: 10.2 km</text><polyline fill="none" opacity="1" points="14.5,97.01780498953303 14.589174311840907,96.6610017066123 15.094495412777178,95.73925980791682 15.926788990851492,95.17432116478449 16.10513761464972,93.95524288428714 16.521284403745085,93.3011032313807 16.848256880766712,92.94429975858657 16.96715596318245,92.17122550471686 17.17522935778834,90.68454400682822 17.086055045831017,90.26827313058311 17.710275229415856,89.28706310986308 17.62110091734212,88.00851651199628 17.88862385309767,87.32464265404269 17.799449541256763,86.2244976114016 18.245321100926958,85.74875916080782 18.334495412767865,84.58914655138506 18.334495412767865,83.57820206769975 18.542568807373755,82.50779010151746 19.493761467863806,81.37791062530596 19.612660550395958,81.14004123851191 19.70183486235328,80.7535034675966 19.76128440350294,79.98042786156293 20.35577981651295,79.44522162235808 20.979999999981374,78.28560796286911 21.633944954024628,77.1259941101307 22.40678899071645,76.62052134453552 23.387706421897747,76.08531484683044 24.93339449528139,75.43117351573892 26.330458715558052,74.65809731808258 27.251926605473273,74.27155918686185 27.905871559516527,73.82555362425046 29.481284403707832,72.93354241305497 30.34330275224056,72.2794007853372 31.324220183421858,71.62525909609394 32.067339449422434,70.91164991020923 33.07798165129498,69.87096971605206 33.672477064072154,69.18709407490678 34.177798165008426,68.6518870043219 35.06954128446523,67.64094020298216 35.3667889906792,67.22466794785578 36.139633027487434,66.03531850979198 37.38807339442428,64.81623512407532 37.80422018340323,64.4891639353591 38.428440366871655,64.10262523783604 39.141834862413816,63.418749027943704 40.003853210946545,62.94300901610404 40.1227522934787,62.19966518203728 40.77669724752195,61.694191329414025 41.54954128433019,61.218451199063566 42.61963302746881,61.188717439887114 43.00605504575651,61.218451199063566 44.313944954192266,61.218451199063566 44.96788990823552,60.98058112169383 45.4137614677893,61.06978240166791 45.77045871550217,61.54552254220471 46.24605504586361,61.634723814961035 46.751376146799885,61.604990057472605 47.256697247736156,61.426587510097306 47.99981651373673,61.24818495824002 49.42660550447181,61.57525629986776 50.3183486238122,61.753658843401354 51.507339449599385,61.57525629986776 51.03174311912153,61.7833926002495 53.23137614678126,62.61593773891218 54.45009174302686,62.94300901610404 55.341834862483665,63.35928152827546 56.94697247701697,64.19182647764683 57.39284403657075,64.57836517016403 57.92788990819827,65.08383881248301 58.55211009166669,65.73798111837823 58.87908256880473,66.0947859865264 59.08715596317779,66.51105830946472 59.889724770677276,67.04626554512652 60.5139449541457,67.90854378242511 61.16788990830537,68.62215327704325 61.70293577981647,68.86002309224568 62.77302752295509,67.61120647133794 63.36752293573227,66.68946072598919 63.902568807359785,65.6190461582737 64.61596330266912,64.13235898461426 65.00238532107323,62.85380776022794 65.38880733947735,61.54552254220471 65.53743119258434,60.47510718007106 65.5077064220095,59.93989943701308 65.5077064220095,58.780282518302556 65.41853211005218,57.23412632464897 65.12128440360539,56.43131431861548 65.35908256866969,55.390631949936505 65.80495412833989,54.58781972998986 66.99394495412707,54.34994942462072 68.2423853209475,54.558085942291655 70.08532110089436,55.15276167227421 70.91761467896868,55.53930086933542 72.0768807339482,55.86637248075567 72.55247706419323,56.49078187777195 73.97926605504472,57.44226275541587 75.28715596324764,58.45321104465984 75.82220183487516,59.01815267128404 76.77339449536521,60.59404222853482 76.74366972479038,61.7833926002495 76.35724770638626,62.40780146361794 76.41669724776875,62.73487275058869 76.56532110087574,63.389015278196894 77.01119266054593,64.19182647764683 77.42733944952488,65.14330629742472 77.30844036687631,65.97585103253368 77.21926605491899,66.86786313791526 78.02183486241847,67.55173900752561 79.35944954119623,68.2058810807066 79.8647706421325,68.47348463837989 80.66733944963198,69.09789289929904 82.39137614681385,69.57363248901675 82.98587155947462,69.78176854923368 83.93706422008108,70.01963832473848 84.82880733942147,70.19804065098288 85.80972477060277,70.55484528979287 87.17706422018819,71.32792194420472 87.77155963308178,71.83339509478537 88.27688073390163,72.0415310873068 88.7822018348379,72.39833563141292 89.3766972477315,73.3795480329427 89.6144954127958,74.33102659304859 89.9117431192426,74.65809731808258 90.65486238535959,75.31223872175906 91.7249541283818,76.11504854215309 92.14110091736075,76.56105395790655 92.64642201829702,76.88812457793392 93.83541284396779,77.86933634564048 94.31100917421281,78.58294481708435 94.72715596330818,78.79108060745057 94.75688073399942,78.40454270609189 95.5,77.60173315001884 94.54880733950995,76.59078765130835 93.59761467890348,75.78797788580414 93.06256880727597,75.43117351573892 92.67614678898826,75.0149017276708 91.66550458711572,74.03368955705082 91.33853210997768,73.67688509699656 90.71431192650925,73.29034691135166 90.5954128439771,72.87407499493565 89.88201834866777,71.80366138112731 89.85229357797652,71.5063242369215 88.63357798161451,70.79271503875498 87.68238532112446,69.87096971605206 86.73119266051799,69.18709407490678 86.10697247704957,68.53295209421776 84.82880733942147,68.41401718201814 84.3829357798677,68.41401718201814 83.25339449534658,68.50321836629882 82.48055045865476,68.38428345369175 80.81596330273896,67.75987512851134 79.74587155948393,67.67067393456819 79.47834862372838,67.22466794785578 78.94330275221728,65.76771485817153 79.21082568808924,65.05410506983753 79.65669724764302,63.83502151159337 79.56752293580212,62.4970027251984 79.56752293580212,61.307652476010844 79.24055045854766,60.3264383666683 78.61633027519565,59.4938929527998 77.27871559630148,58.33427595946705 76.17889908247162,57.47199653077405 74.96018348622601,56.81785344425589 74.39541284402367,56.25291163800284 73.62256880721543,55.62850221944973 72.70110091730021,55.390631949936505 71.66073394496925,54.825690027093515 71.36348623840604,54.58781972998986 71.03651376138441,54.14181290083798 69.99614678893704,53.87420878955163 69.04495412844699,53.63633845973527 68.27211009175517,53.428201914415695 67.38036697229836,53.13086398161249 66.16165137616917,53.13086398161249 64.82403669715859,53.07139639358502 63.84311926597729,52.982195010525174 63.27834862389136,53.10113018768607 62.624403669615276,53.249799156270456 62.327155963284895,53.72553983441321 62.35688073397614,54.32021563599119 62.53522935777437,54.91489138640463 62.83247706410475,55.45009951805696 63.36752293573227,56.133976514975075 63.72422018344514,56.57998321566265 63.99174311920069,57.47199653077405 64.02146788989194,58.304542187892366 63.902568807359785,58.958685133839026 64.11064220173284,60.11830202257261 64.02146788989194,61.634723814961035 63.57559633010533,63.002476519322954 62.98110091732815,64.45943019015249 61.97045871545561,65.2622412656201 61.0489908256568,65.38117623195285 60.06807339435909,64.87570261128712 59.35467889904976,64.45943019015249 58.93853211007081,64.25129397021374 58.10623853211291,63.478216527204495 57.45229357795324,63.151145275332965 56.79834862367716,62.82407400791999 55.99577981652692,62.46726897149347 55.6093577981228,62.40780146361794 55.10403669718653,62.16993142705178 54.479816513718106,62.050996405712795 53.88532110094093,61.426587510097306 53.14220183470752,61.426587510097306 52.815229357685894,61.426587510097306 51.0020183485467,60.088568258681335 50.67504587152507,59.73176308121765 49.81302752299234,59.0776202082634 48.415963302599266,58.6910812088754 47.67284403659869,58.98841890267795 46.89999999990687,59.46415918611456 45.919082568841986,59.76149684673874 45.35431192652322,59.85069814242888 44.49229357787408,59.43442541937111 43.86807339452207,59.64256178407231 43.15467889897991,59.73176308121765 42.70880733942613,59.96963320154464 42.500733944936655,60.41563965508249 42.61963302746881,60.98058112169383 42.916880733915605,61.218451199063566 44.105871559586376,61.426587510097306 44.284220183384605,61.188717439887114 43.600550458650105,60.8913798405556 42.47100917424541,60.83191231911769 40.92532110097818,61.099516161426436 40.15247706428636,61.813126356864814 39.79577981645707,62.79434025567025 39.320183486212045,63.18087902612751 38.3095412843395,63.80528776359279 37.83394495409448,64.13235898461426 36.46660550450906,65.35144249052973 35.485688073327765,66.39212336263154 34.89119266055059,67.22466794785578 34.26697247696575,67.96801124309422 33.82110091741197,68.35454972513253 33.31577981635928,69.00869172264356 32.86990825692192,69.57363248901675 31.651192660443485,70.55484528979287 30.402752293623053,71.83339509478537 29.481284403707832,72.6064716069377 27.935596330207773,73.40928173996508 26.984403669601306,74.09315696533304 26.300733944866806,74.42022770142648 25.379266054951586,74.8364995251759 24.487522935844027,75.10410282731755 23.5066055044299,75.66904309781967 22.139266055077314,76.38265179510927 21.69339449540712,76.50158657081192 20.920550458598882,77.18546149187023 20.088256880640984,77.72066790488316 19.76128440350294,78.31534164887853 19.137064220150933,79.47495530341985 18.83981651358772,79.80202578636818 18.30477064207662,81.16977491235593 18.12642201827839,82.56725743727293 18.007522935746238,83.25113176211016" stroke="#4DD2FF" stroke-dasharray="none" stroke-linecap="round" stroke-linejoin="round" stroke-width="0.5"><title>2026-06-20 10.1km</title><desc>9223370254938036107</desc></polyline><polyline fill="none" opacity="1" points="107.85088379087392,83.07503580348566 107.88134637079202,82.31324311747449 108.70383602869697,81.79522404453019 109.25216246710625,80.69824235403212 109.86141406535171,79.38795844686683 110.98852952232119,78.62616536678979 112.23749529896304,78.10814602585742 113.05998495675158,77.71201356319943 113.57784881535918,77.52918318845332 114.58311395265628,76.98069203592604 115.13144039118197,76.73691817681538 116.71549454680644,75.8227661307319 117.23335840541404,75.57899223198183 118.36047386238351,74.75625526200747 119.82267769833561,73.689744233503 120.82794283563271,72.8060635458678 121.46765701391269,72.04426976165269 121.68089507333934,71.73955222504446 122.29014667170122,71.25200413941639 123.50864986830857,70.0026620174176 124.23975178645924,68.75331967597594 124.84900338482112,68.23529961629538 125.06224144413136,67.99152545747347 125.61056788265705,67.13831583590945 126.3416698006913,66.52888032916235 127.40786009770818,65.79755765205482 127.95618653635029,65.21859381272225 128.8091387739405,64.7310452797683 129.41839037230238,63.42075843154453 130.51504324935377,63.05509694234934 131.76400902599562,63.0855687338626 132.70834900334012,63.024625150777865 133.56130124104675,63.024625150777865 134.41425347875338,63.48170201131143 135.69368183531333,63.54264559043804 136.54663407301996,63.298871270613745 136.8512598722009,63.17698410758749 137.18634825129993,63.17698410758749 138.95317788631655,63.72547632479109 140.11075592332054,63.69500453613 140.7809326814022,63.48170201131143 141.11602106050123,63.938778842333704 141.90804813837167,64.21302492677933 142.63915005652234,64.63962992606685 144.13181647250894,64.97481955040712 145.10661902977154,65.49283984774956 145.95957126736175,65.91944477014476 146.47743512608577,66.4679367756471 147.02576156449504,67.19925938366214 147.90917638211977,68.20482784690103 148.7316660397919,68.9970938086044 149.49323053786065,69.69794439338148 150.43757051520515,70.18549258564599 151.1686724332394,70.7644560203189 151.686536291847,70.36832314904314 152.44810078979935,69.8807749694679 152.84411432861816,68.814263209817 152.93550206837244,68.29624315467663 153.60567882668693,66.86406986438669 154.24539300485048,65.00529133359669 154.55001880403142,63.90830705448752 154.76325686345808,62.71990722743794 154.82418202329427,60.95254301413661 154.61094396398403,59.063291126978584 154.48909364419524,57.661587788606994 154.6718691237038,56.930264197755605 155.34204588190187,55.98563778126845 156.1949981196085,55.98563778126845 157.1088755170349,56.16846871038433 158.08367807453033,56.25988417316694 159.85050770977978,56.96073601557873 160.88623542699497,57.356869634997565 161.6173373447964,57.11309510254068 162.1961263633566,57.1435669195489 162.07427604368422,58.027249555743765 163.01861602102872,58.81951665319502 164.38943211722653,59.672727274592035 164.90729597595055,60.25169156625634 165.30330951488577,60.67829680372961 165.76024821365718,61.318204611656256 166.33903723210096,62.32377390755573 166.58273787144572,63.237927689333446 166.33903723210096,63.72547632479109 165.94302369316574,64.24349671334494 166.24764949234668,64.97481955040712 166.70458819100168,65.70614231214859 167.1006017299369,67.41256179689663 166.85690109070856,67.93058191647287 167.25291462952737,68.84473497670842 168.01447912747972,69.51511381275486 169.1111320045311,70.27690786792664 169.50714554346632,70.6425689854077 169.99454682215583,70.94728656898951 170.78657389990985,71.28247589577222 172.30970289581455,71.64813696156489 173.6500564122107,71.95285450201482 174.5334712298354,72.22710027731955 175.75197442655917,72.65370479552075 176.72677698382176,73.1412527851644 177.73204212111887,73.9335181969218 178.43268145923503,74.48200958420057 179.16378337715287,75.27427484677173 179.43794659653213,75.88370960415341 179.71210981579497,76.31031390326098 180.29089883412234,76.79786164237885 180.68691237317398,77.34635280899238 181.02200075227302,77.77295702043921 181.84449040994514,78.44333501550136 183.0020684468327,79.38795844686683 183.91594584437553,80.24116659979336 184.6165851824917,81.09437465068186 184.92121098167263,80.85060093225911 185.1039864611812,80.21069488185458 185.4695374200819,79.69267565605696 185.1039864611812,79.20512811507797 183.88548326445743,78.41286328982096 183.39808198576793,77.92531566123944 182.5755923279794,77.25493761745747 182.24050394899677,76.85880510747666 181.78356525010895,76.1579552279436 181.0524633320747,75.51804875594098 180.62598721322138,75.3961618024623 180.19951109436806,74.36012261296855 179.31609627685975,73.23266802943544 178.49360661907122,72.56228954374092 178.0366679202998,72.07474151457427 177.6101918014465,71.7090804707841 176.42215118475724,71.28247589577222 176.11752538545989,70.97775832656771 175.1427228281973,70.61209722631611 173.5891312523745,70.61209722631611 172.9798796538962,70.49021018872736 172.6143286949955,70.33785138878739 171.24351259879768,70.03313377912855 170.1773223017808,69.63700086704921 169.0806694244966,68.9970938086044 168.89789394498803,68.6923761414946 168.83696878526825,67.19925938366214 169.1111320045311,66.22416255623102 169.35483264387585,65.55378340964671 169.29390748403966,65.09670668258332 169.32437006395776,63.57311737979762 169.0502068446949,62.44566108525032 168.1667920271866,61.10490201541688 167.25291462952737,60.25169156625634 166.0953365927562,59.42895282176323 165.27284693496767,58.88046027236851 163.93249341868795,57.93583411577856 163.29277924040798,57.417813266743906 162.10473862360232,57.052151468175 161.52594960504211,56.808376925298944 161.1603986461414,56.77790510683553 160.6729973674519,56.32082781434292 160.55114704777952,55.98563778126845 159.42403159081005,55.467616789683234 158.60154193313792,55.22384219232481 157.53535163588822,54.82770845369669 156.2559232794447,54.82770845369669 155.40297104185447,54.67534931754926 154.06261752534192,54.67534931754926 152.81365174881648,54.70582114509307 152.23486273025628,54.919123933825176 151.59514855220914,55.467616789683234 151.56468597217463,56.3512996348436 152.20440015057102,57.26545418630121 152.99642722832505,58.54527036024956 153.2401278676698,59.063291126978584 153.2096652877517,59.489896435756236 153.48382850701455,60.67829680372961 153.51429108693264,61.0439584152773 153.51429108693264,61.44009180663852 153.45336592698004,62.65896364120999 153.39244076726027,63.999722417560406 152.56995110947173,65.85850121139083 152.38717562996317,66.22416255623102 151.38191049266607,67.16878760990221 150.55942083499394,67.26020293100737 149.46276795782614,66.80312631366542 148.2747273411369,66.07180366484681 147.81778864236549,65.64519875159021 146.93437382462434,65.12717846536543 146.38604738621507,64.88340419984888 145.47216998867225,64.48727100068936 144.92384355026297,64.1825531400973 144.34505453170277,64.03019420499913 143.6444151935866,63.75594811339397 143.03516359534115,63.51217380090384 142.06036103796214,63.51217380090384 141.48157201951835,63.359814851370174 140.62861978192814,63.0855687338626 139.92798044381198,62.11047134158434 139.41011658520438,61.44009180663852 138.831327566877,61.0744302154053 137.88698758929968,60.92207121354295 136.94264761195518,60.76971220842097 136.02877021441236,61.16584561497439 135.05396765703335,61.50103540334385 134.59702895826194,61.44009180663852 133.92685220006388,61.379148209351115 133.16528770222794,61.3486764106201 132.4341857841937,61.5619789994671 132.12955998501275,61.40962000808213 131.67262128612492,61.65339439280797 131.3070703271078,62.35424570221221 131.58123354637064,62.933209775190335 132.61696126358584,63.11604052525945 133.13482512219343,62.99415335908998 132.4037232042756,62.75037902034819 131.8553967657499,62.44566108525032 130.60643098910805,62.780850813142024 129.75347875140142,62.99415335908998 129.41839037230238,63.39028664154466 128.71775103418622,64.51774278609082 128.2912749153329,65.00529133359669 127.71248589700554,65.09670668258332 126.9813839790877,65.82802943186834 126.03704400151037,66.31557788944338 125.42779240314849,66.95548518939177 124.87946596473921,67.65633597550914 124.42252726585139,68.17435607733205 123.56957502826117,69.33228322729701 122.77754795050714,70.33785138878739 122.44245957129169,70.61209722631611 121.8332079728134,71.16058886965038 120.94979315530509,71.98332625534385 120.58424219640438,72.2880437814747 120.00545317784417,72.92795054381713 119.33527641976252,73.53738550207345 118.75648740131874,73.9335181969218 117.47705904475879,74.78672700334573 116.71549454680644,75.4266335410648 115.00959007150959,76.46267257531872 113.54738623544108,77.19399415579392 112.08518239948899,77.651070105494 111.4454682210926,77.98625911661657 110.19650244456716,78.56522191688418 109.4654005265329,79.20512811507797 108.61244828882627,79.93644941406092 107.88134637079202,81.03343122178921 107.66810831136536,81.39909178687958 107.24163219251204,81.91711088869488 106.72376833402086,82.92267727287253 106.32775479508564,84.01965862122597 106.11451673565898,85.75654541113181 106.08405415574089,86.67069618339883 106.08405415574089,87.7067335837055 106.35821737500373,88.01145043759607 105.77942835644353,88.89512924017617 105.87081609619781,89.59597786795348 105.68804061680567,90.11399637477007 105.62711545696948,91.1500332755968 105.20063933811616,91.88135335047264 104.89601353893522,92.42984335758956 104.9874012786895,93.55729490652448 104.80462579918094,94.13625644362764 104.62185031978879,94.74568958993768 104.5,95.38559433771297" stroke="#4DD2FF" stroke-dasharray="none" stroke-linecap="round" stroke-linejoin="round" stroke-width="0.5"><title>2026-06-16 10.1km</title><desc>9223370255286294807</desc></polyline><polyline fill="none" opacity="1" points="18.599739486468025,231.4379514348111 19.564384071622044,230.62378861458274 20.167286937241443,229.53823804139392 20.529028656426817,228.57330405840185 21.67454410123173,227.81944929232122 22.91049497597851,227.18621122650802 24.056010420550592,226.70374409056967 24.689058429561555,226.31173951824894 26.377186453319155,225.6483471155516 26.94994417577982,225.22618828131817 28.60792705626227,224.2914079154143 29.693152214516886,223.35662742552813 31.079828805406578,222.30122994910926 32.37606996658724,220.9744443257805 33.6723111277679,219.58734999754233 34.54652028286364,218.47164349170635 35.11927800520789,217.4765537561616 36.023632303695194,216.78300628147554 36.83755117247347,216.0291502531618 37.500744324643165,215.45621961751021 38.25437290663831,214.64205494971247 38.82713062898256,214.40082095604157 39.36974320805166,214.00881569850026 39.36974320805166,213.34542213601526 39.79177521402016,212.9232625636505 41.14830666175112,212.2297146396595 42.534983252640814,212.2900231574895 43.801079270546325,212.38048593333224 44.88630442880094,212.53125722374534 45.91123930038884,212.59156573895598 46.99646445841063,212.59156573895598 47.719947897363454,212.41064019157784 49.016189058544114,212.8026455382933 49.76981764053926,212.86295405117562 51.156494231545366,213.16449660807848 51.54838109423872,213.43588489823742 52.12113881658297,213.34542213601526 53.08578340173699,213.76758168300148 53.77912169706542,213.97866144700674 54.32173427613452,214.15958695398876 55.497394864214584,214.70236344693694 56.552474879077636,215.21498565172078 57.125232601421885,215.75776206312003 57.39653889089823,216.27038419101154 57.878861183533445,216.57192660169676 58.270748046110384,216.9337774774176 58.54205433570314,217.32578257180285 59.38611834764015,218.1097926950897 60.260327502852306,219.07472811144544 61.76758466695901,219.88889226602623 62.58150353562087,219.34611617343035 63.15426125796512,218.0494842271437 63.847599553409964,216.27038419101154 64.51079270569608,214.6722091983538 65.02326014149003,212.7724912816193 65.20413100114092,211.83770926104626 65.17398585786577,210.66169299394824 65.23427614441607,209.57613934174879 65.05340528464876,208.4001226958353 65.02326014149003,207.61611148901284 64.84238928183913,207.25426013331162 64.96296985482331,206.59086593269603 65.17398585786577,205.7767002370092 65.83717901003547,205.2942316320259 66.95254931144882,205.32438592088874 68.30908075917978,205.5656202264363 70.02735392632894,206.25916880881414 71.59490137698594,206.62102021597093 71.926497953129,206.8622544768732 72.49925567547325,207.43518581351964 74.03665798297152,208.58104834647384 74.72999627853278,208.94289963383926 75.15202828438487,209.54598507122137 75.93580200965516,210.36015032959403 76.71957573504187,211.83770926104626 76.8100111647509,212.38048593333224 76.71957573504187,213.28511362726567 76.41812430229038,213.67711892502848 77.14160774101038,215.12452291237423 77.35262374393642,216.1497672231053 77.38276888732798,216.87346899945987 77.80480089329649,217.89871305512497 78.37755861552432,218.80334003904136 78.92017119470984,219.1651907999185 79.64365463331342,219.70796690660063 80.12597692606505,219.88889226602623 81.75381466327235,220.6729021037463 83.05005582445301,220.9744443257805 84.497022701893,221.39660341484705 85.0396352809621,221.4267576346174 85.85355414962396,221.75845404248685 86.78805359138642,222.27107573312242 87.54168217349797,222.7836973865633 88.44603647198528,223.35662742552813 89.01879419421311,223.83909479063004 89.5915519167902,225.0151088546845 89.89300334954169,225.4372677016072 90.25474506884348,225.88958072377136 91.09880908078048,226.76405248430092 92.0031633793842,227.42744478204986 92.93766282103024,228.27176216163207 93.932452549343,229.1763878132333 94.74637141800486,230.14132171380334 94.9573874209309,229.8096257004072 94.8970971343806,229.53823804139392 95.5,228.93515431752894 95.22869371052366,228.45268730126554 94.26404912536964,227.6385241364478 92.99795310758054,226.43235631211428 92.4251953852363,225.9800433247583 91.70171194639988,225.07541726290947 90.76721250463743,224.44217895058682 89.92314849281684,223.08523951808456 89.25995534053072,222.18061308457982 88.20487532566767,221.24583231454017 87.84313360624947,220.8839816605323 86.6674730181694,220.06981762102805 86.12486043921672,219.88889226602623 84.82861927803606,219.37627040193183 84.19557126914151,219.4064246303169 83.17063639743719,219.55719577003038 82.14570152584929,219.4064246303169 81.18105694081169,219.01441965188133 80.48771864536684,218.62241465150146 79.13118719751947,217.53686222905526 79.01060662453528,216.5116181205376 79.34220320067834,215.12452291237423 79.55321920360439,213.97866144700674 79.52307406032924,212.71218276792206 78.89002605131827,210.99338990967954 78.01581689622253,209.93799057777505 76.93059173808433,209.03336245275568 76.62914030521642,208.7921282663592 76.14681801269762,208.43027697119396 75.45347971713636,208.0382713805302 74.54912541876547,207.31456869392423 73.6146259768866,206.62102021597093 72.55954596213996,206.28932309348602 71.89635280985385,205.7767002370092 71.65519166365266,205.4148487864877 71.14272422774229,205.4751573628746 70.1780796428211,204.84191728476435 68.76125790842343,204.41975720098708 67.67603275040165,204.08805997448508 66.59080759203061,204.05790568032535 65.47543729061726,203.96744279726408 64.29977670265362,203.9372885026969 62.97339039831422,203.99759709177306 62.40063267585356,204.14836856228067 61.91831038345117,205.2942316320259 62.46092296252027,206.22901452408405 63.18440640124027,207.25426013331162 63.455712690833025,208.0081171033671 63.54614812065847,208.67151117004687 63.81745441025123,209.54598507122137 63.93803498323541,209.93799057777505 63.87774469680153,210.32999606244266 63.87774469680153,210.90292711602524 63.69687383703422,212.32017741620075 63.63658355048392,213.1343423529761 63.51600297726691,213.70727317786077 63.274841831065714,214.25004970573355 62.79251953854691,215.0039059249102 62.340342389419675,215.75776206312003 61.61685895046685,216.1497672231053 60.863230368471704,216.3910011568223 59.86844064027537,215.87837903772015 59.50669892085716,215.69745357497595 58.421473762602545,215.09436866565375 57.24581317452248,214.21989545528777 56.46203944913577,213.82789018767653 55.73855601053219,213.40573064429918 54.80405656865332,213.16449660807848 54.201153703033924,212.89310830750037 53.628395980689675,212.9232625636505 53.055638258345425,212.68202851089882 52.24171938956715,212.65187425370095 51.69910681073088,212.41064019157784 50.975623371778056,211.3250868098694 50.34257536288351,210.96323564532213 49.4985113509465,210.45061313023325 48.62430219585076,210.17922472476494 47.328061034786515,210.23953326023184 46.12225530331489,210.57123019598657 45.7002232974628,210.6918472595862 45.06717528856825,209.93799057777505 44.19296613323968,210.42045886354754 43.017305545392446,210.63153872807743 42.80628954223357,210.48076739686076 42.173241533339024,210.99338990967954 42.02251581684686,211.77740073931636 42.444547822815366,212.2297146396595 43.439337551244535,212.32017741620075 43.65035355417058,212.07894334278535 43.16803126165178,211.92817204265157 42.59527353930753,211.506012385129 42.112951246788725,211.44570386048872 40.51525865285657,212.07894334278535 39.76163007086143,212.8026455382933 39.36974320805166,213.1343423529761 38.85727577225771,214.21989545528777 38.405098623014055,214.21989545528777 37.500744324643165,215.06421441887505 36.35522887983825,215.9085332810646 35.57145515456796,216.90362323849695 34.7575362859061,217.6273249372607 34.124488276895136,218.56210618797923 33.5517305546673,219.1651907999185 32.88853740238119,219.85873803985305 32.16505396354478,220.82367321639322 31.56215109792538,221.24583231454017 30.718087086104788,222.1203046515584 29.904168217326514,222.72338895866415 29.451991068199277,222.99477688001934 29.09024934878107,223.3264732141397 28.125604763743468,223.89940320898313 27.191105321981013,224.74372101115296 26.256605880334973,225.25634248455754 24.719203572836705,225.88958072377136 23.63397841458209,226.43235631211428 22.006140677374788,227.12590283626923 20.348157796892338,228.0908370174002 18.840900632669218,229.38746711524436 18.509304056642577,229.8096257004072 18.057126907398924,230.8348678732873 17.54465947172139,231.6791848449502 17.333643468562514,232.16165164049016 17.15277260891162,232.88535177207086 17.002046892535873,233.63920599693665 16.85132117604371,234.36290597706102 16.85132117604371,235.90076818852685 16.6704503162764,236.77523870847654 16.791030889493413,237.80047986999853 16.911611462710425,238.49402527714847 16.54986974329222,239.097108184651 16.51972460001707,239.97157830913784 16.368998883641325,240.5746610906208 15.735950874630362,241.53959343396127 15.79624116118066,242.5346797751845 15.374209155328572,243.4091494746972 14.771306289592758,244.70577676122775 14.620580573100597,245.94209558074363" stroke="#4DD2FF" stroke-dasharray="none" stroke-linecap="round" stroke-linejoin="round" stroke-width="0.5"><title>2026-06-11 10.2km</title><desc>9223370255717407907</desc></polyline></svg>