<?xml version="1.0" encoding="utf-8" ?>
<svg baseProfile="full" height="300mm" version="1.1" viewBox="0,0,200,300" width="200mm" xmlns="http://www.w3.org/2000/svg" xmlns:ev="http://www.w3.org/2001/xml-events" xmlns:xlink="http://www.w3.org/1999/xlink"><defs /><rect fill="#222222" height="300" width="200" x="0" y="0" /><text fill="#FFFFFF" style="font-size:12px; font-family:Arial; font-weight:bold;" x="10" y="20">Over 10km Runs</text><text fill="#FFFFFF" style="font-size:4px; font-family:Arial" x="10" y="280">Runner</text><text fill="#FFFFFF" style="font-size:9px; font-family:Arial" x="10" y="290">Yanfu</text><text fill="#FFFFFF" style="font-size:4px; font-family:Arial" x="65" y="280">SPECIAL TRACKS</text><rect fill="yellow" height="2.6" width="2.6" x="65" y="283" /><text fill="#FFFFFF" style="font-size:3px; font-family:Arial" x="70" y="285.5">Over 20.0 km</text><rect fill="red" height="2.6" width="2.6" x="65" y="287" /><text fill="#FFFFFF" style="font-size:3px; font-family:Arial" x="70" y="289.5">Over 40.0 km</text><text fill="#FFFFFF" style="font-size:4px; font-family:Arial" x="120" y="280">STATISTICS</text><text fill="#FFFFFF" style="font-size:3px; font-family:Arial" x="120" y="285">Number: 2</text><text fill="#FFFFFF" style="font-size:3px; font-family:Arial" x="120" y="290">Weekly: 1.0</text><text fill="#FFFFFF" style="font-size:3px; font-family:Arial" x="141" y="285">Total: 20.3 km</text><text fill="#FFFFFF" style="font-size:3px; font-family:Arial" x="141" y="290">Avg: 10.1 km</text><text fill="#FFFFFF" style="font-size:3px; font-family:Arial" x="167" y="285">Min: 10.1 km</text><text fill="#FFFFFF" style="font-size:3px; font-family:Arial" x="167" y="290">Max: 10.2 km</text><polyline fill="none" opacity="1" points="52.0867052024696,103.56263758440036 52.32080924860202,102.9772026069113 52.20375722553581,101.25992645643419 52.67196531803347,99.46459195448551 53.062138728564605,98.4498375148396 53.33526011556387,97.51314100890886 53.9985549133271,97.04479272000026 53.92052023136057,96.49838635261403 54.27167630079202,96.30324121337617 54.58381502889097,95.71780577092431 54.9739884394221,94.62499284464866 55.910404624417424,93.92247018002672 56.495664739981294,92.36130850977497 57.471098265843466,90.83917562419083 59.42196531803347,89.78539117006585 61.06069364165887,89.19995530962478 61.450867051957175,89.04383907385636 62.27023121388629,88.57549035054399 63.32369942194782,87.9900544124539 65.00144508690573,87.20947310328484 66.36705202306621,86.50694986782037 67.03034682082944,86.11665915814228 68.90317919082008,84.55549615214113 70.26878612721339,83.69685638498049 71.55635838164017,82.56501293188194 72.18063583830371,81.66734388639452 72.84393063583411,80.92579112993553 73.89739884412847,79.95006372674834 75.06791907525621,78.23278324323473 76.1994219655171,77.13996822165791 76.39450867054984,76.749677110638 76.70664739888161,76.28132775548147 77.76011560717598,75.26657073636306 78.89161849720404,74.52501745865447 80.0231213872321,73.237056358892 80.84248554916121,73.1199689770583 81.31069364165887,71.63686201121891 82.52023121388629,70.5050170585746 84.70520231220871,70.27084222325357 86.14884393056855,70.30987136287149 87.28034682082944,70.30987136287149 88.0216763005592,70.30987136287149 89.07514450885355,71.0904541205964 90.6358381502796,70.97336671117228 91.49421965307556,70.62210447405232 91.92341040470637,70.5050170585746 93.25,70.93433757440653 94.6156069363933,71.2855997995357 96.41040462441742,71.05142498435453 96.41040462441742,70.93433757440653 97.85404624277726,71.63686201121891 98.43930635857396,72.0661824734998 100.35115606966428,72.57356117566815 101.36560693662614,73.08093984954758 102.88728323718533,73.82249324495206 103.70664739888161,74.29084272676846 104.36994219664484,74.99336690426571 105.61849710973911,76.32035686925519 105.89161849720404,77.13996822165791 107.41329479776323,78.1937541376683 108.77890173415653,79.40365633531474 109.67630057828501,79.87200552993454 110.41763005778193,79.95006372674834 111.43208092497662,79.32559813384432 112.01734104054049,78.34987055923557 112.17341040470637,77.33511377085233 112.7196531794034,76.20326952717733 113.65606936416589,73.93958061770536 114.24132947996259,71.63686201121891 114.31936416192912,71.16851239273092 114.70953757222742,68.90482223022263 114.82658959552646,66.32889825606253 114.08526011556387,64.26035271794535 114.28034682082944,62.89433182129869 114.63150289026089,61.99666083441116 115.6069364163559,61.177048116747756 116.69942196528427,61.21607729542302 118.14306358410977,61.48928154166788 120.01589595386758,61.99666083441116 121.8106936418917,62.89433182129869 123.13728323718533,62.85530264972476 123.7225433527492,62.58209844457451 123.9956647399813,63.24559435714036 124.85404624277726,64.53355687262956 126.21965317917056,65.47025676909834 127.35115606943145,66.28986909938976 127.81936416192912,66.8753064328339 128.32658959552646,67.46074372861767 129.14595375745557,69.02190966624767 129.57514450885355,69.68540510855382 129.45809248555452,70.73919188795844 129.02890173415653,71.59783287718892 129.1069364163559,72.41744465485681 129.65317919082008,73.35414373909589 130.27745664748363,74.8762795450748 130.19942196528427,76.32035686925519 130.23843930638395,76.86676444567274 131.44797687861137,78.34987055923557 132.57947976887226,79.2865690329345 132.73554913280532,79.63783093565144 133.9060693641659,80.14520921575604 134.92052023136057,80.84773294144543 135.8179190752562,81.19899478403386 138.31502890167758,81.62831479537999 139.29046242777258,81.97957660787506 140.89017341053113,82.36986749473726 141.67052023136057,82.76015836489387 143.07514450885355,83.5797691377229 144.44075144501403,84.43840891588479 145.06502890167758,85.14093231072184 146.15751445107162,86.35083358595148 146.43063583807088,86.89724056085106 147.05491329473443,87.83393815590534 147.64017341053113,88.45840316591784 147.91329479776323,88.84869377542054 148.53757225419395,89.51218777324539 149.8641618497204,90.6830594164785 151.2297687861137,91.81490186211886 152.67341040470637,93.21994746144628 153.10260115610436,93.3760636257939 153.29768786136992,92.7515989523381 154.0,91.85393090947764 153.6098265897017,91.22946613188833 152.43930635834113,90.29276888543973 151.73699421971105,89.70733305753674 150.80057803471573,89.0828681330313 150.0202312138863,88.38034504203824 149.43497109832242,87.63879283156712 149.08381502889097,86.85821149230469 147.99132947972976,86.23374637280358 147.44508670526557,85.60928121051984 146.62572254333645,84.2432635189034 145.22109826584347,82.60404201876372 144.90895953774452,82.25278023042483 144.16763005801477,81.47219842998311 143.58236994221807,81.39414024632424 142.21676300582476,80.61355837224983 141.20231213863008,80.22326741018333 139.91473988443613,79.83297643135302 138.19797687861137,79.95006372674834 137.7687861272134,79.67686003510607 136.94942196528427,79.7158891344443 135.46676300582476,79.2865690329345 133.32080924860202,78.0766668196884 132.89161849720404,77.72540485678473 132.5014450866729,76.78870622243267 132.89161849720404,75.14948338072281 133.00867052027024,74.09569711226504 133.32080924860202,73.237056358892 133.2427745666355,71.75394941191189 132.96965317917056,69.88055081764469 132.46242774580605,68.63161820697132 131.48699421994388,67.42171457671793 129.7312138727866,66.13375247077784 128.67774566472508,65.3921984481276 126.92196531803347,64.33841104869498 126.18063583830371,63.635886047792155 125.04913294827566,62.816273478092626 123.80057803471573,62.46501092554536 123.05924855498597,62.308894231158774 122.7471098266542,61.801514955936 122.16184971109033,61.45025236415677 121.06936416192912,60.78675632039085 119.78179190773517,60.43549368932145 118.37716763000935,59.96714349335525 117.3627167630475,59.61588083062088 115.9971098266542,59.61588083062088 114.90462427749299,59.61588083062088 112.64161849720404,59.49879327334929 111.66618497110903,59.88908512506168 111.15895953774452,59.96714349335525 110.4956647399813,60.82578550075414 111.2760115605779,62.62112761725439 112.09537572250701,63.83103188680252 112.36849710997194,64.72870269237319 112.7196531794034,65.43122760875849 112.68063583830371,66.1727816281491 113.07080924860202,67.49977288028458 113.1098265897017,68.00715183722787 113.1098265897017,68.74870564648882 112.91473988466896,71.01239584787982 112.48554913303815,72.76870682282606 111.66618497110903,74.09569711226504 110.84682080917992,75.11045426188502 109.55924855498597,75.89103660767432 108.34971098275855,75.38365809054812 107.3352601157967,74.95433778472943 106.04768786113709,74.09569711226504 105.34537572273985,73.27608548576245 104.40895953751169,72.80773595167557 103.51156069361605,72.33938639360713 102.30202312138863,71.8710368112661 101.75578034692444,71.75394941191189 100.89739884412847,71.2855997995357 99.88294797693379,71.05142498435453 99.06358381500468,70.66113361221505 98.04913294804282,70.85627930040937 97.22976878634654,70.7782210255391 95.98121387301944,69.56831768108532 95.55202312162146,68.82676393876318 94.45953757222742,67.96812268771464 93.32803468219936,67.61686033435399 92.15751445083879,67.38268542470178 90.90895953774452,67.69491863634903 89.58236994221807,68.16326843365096 89.15317919082008,68.31938502751291 88.45086705195718,68.08521013584686 87.55346820829436,68.04618098668288 86.5,68.35841417545453 85.87572254356928,68.24132673093118 85.36849710973911,68.24132673093118 84.8612716763746,68.82676393876318 84.62716763024218,69.72443425067468 85.1343930636067,70.27084222325357 86.7731213872321,70.38792964169988 86.85115606943145,70.03666738187894 85.75867052027024,69.72443425067468 85.05635838164017,69.52928853814956 83.3395953758154,70.07569652260281 82.36416184995323,70.42695878085215 81.31069364165887,71.5197746088379 81.15462427749299,72.45647378539434 80.49132947972976,72.92482333746739 79.39884393080138,73.39317286544247 78.81358381500468,74.05666798894526 77.68208092474379,74.75919218442868 76.94075144524686,75.5788036774029 76.12138728331774,76.35938598297071 75.02890173415653,77.68637574883178 73.93641618499532,79.13045262731612 73.46820809273049,79.83297643135302 73.11705202329904,80.22326741018333 71.98554913303815,81.39414024632424 71.12716763000935,81.97957660787506 70.30780346831307,82.838216536853 69.9956647399813,83.18947830266552 69.02023121388629,83.97005995607469 67.61560693662614,84.94578692869982 66.60115606943145,85.41413583850954 64.80635838140734,86.9362696291646 62.85549132968299,87.7949090913753 60.982658959692344,88.61451941163978 59.42196531803347,89.35607154277386 58.36849710997194,89.82442022615578 57.11994219641201,90.64403036405565 56.417630058014765,91.22946613188833 55.3641618497204,92.32227946456987 54.46676300582476,93.61023786733858 54.154624277492985,94.07858633244177 53.530346820829436,94.62499284464866 52.82803468219936,96.34227024152642 52.437861271901056,98.2937214372214 52.24277456640266,99.65973702620249 51.969653179403394,101.37701347703114 52.00867052027024,101.84536154399393 52.55491329473443,102.46982559596654 51.891618497204036,104.03098553948803 51.891618497204036,104.77253641921561 51.65751445083879,105.43602926074527 51.50144508690573,106.84107276640134 51.1112716763746,107.46553647739347 50.7210982660763,108.48028991697356 50.760115606943145,109.88533295533853 50.60404624277726,110.39270955516258 50.40895953774452,111.44649163406575 49.706647398881614,112.38318671361776 49.51156069384888,113.74920019949786 49.27745664748363,114.25657658535056 48.536127167753875,114.95909768855199 47.79479768779129,116.09093713038601 47.56069364165887,116.71540021104738 47.01445086719468,118.15947092190618 46.5852601157967,119.48645461793058" stroke="#4DD2FF" stroke-dasharray="none" stroke-linecap="round" stroke-linejoin="round" stroke-width="0.5"><title>2026-06-16 10.1km</title><desc>9223370255286294807</desc></polyline><polyline fill="none" opacity="1" points="53.54838709672913,221.86812303576153 53.39354838686995,221.24858309689444 53.31612903205678,220.31927310919855 53.50967741920613,218.6929804016836 53.896774193504825,217.2990149917896 54.59354838705622,216.17609825567342 54.70967741915956,215.47911538393237 55.019354838645086,214.89829628326697 55.251612903084606,214.24003459088271 56.49032258056104,213.1945600399049 57.26451612892561,211.80059378419537 57.72903225780465,210.5615124879405 59.1999999997206,209.59348010731628 60.787096774205565,208.78033282759134 62.25806451588869,208.16079199395608 63.07096774177626,207.6574150354718 65.2387096772436,206.80554627272068 65.974193548318,206.26344792736927 68.10322580626234,205.0630871898611 69.49677419336513,203.8627262932132 71.27741935453378,202.50747992802644 72.94193548359908,200.80374135216698 74.60645161266439,199.02255977038294 75.72903225780465,197.58986998244654 76.46451612887904,196.31206538534025 77.62580645130947,195.42147419566754 78.67096774186939,194.4534401941346 79.52258064504713,193.7177342835348 80.49032258032821,192.67225736007094 81.2258064514026,192.36248639662517 81.922580644954,191.85910855815746 81.922580644954,191.00723830610514 82.46451612887904,190.46513901290018 84.20645161275752,189.57454724627314 85.98709677392617,189.65199001209112 87.6129032257013,189.76815415959572 89.00645161280409,189.96176106872736 90.3225806450937,190.0392038311693 91.71612903196365,190.0392038311693 92.64516129018739,189.8068755416316 94.3096774192527,190.31025349459378 95.27741935453378,190.38769625406712 97.05806451593526,190.77491004159674 97.5612903223373,191.12340243614744 98.2967741934117,191.00723830610514 99.53548387088813,191.5493375667138 100.42580645135604,191.82038718479453 101.12258064490743,192.05271542241098 102.63225806434639,192.74970009934623 103.98709677392617,193.40796335588675 104.72258064500056,194.10494792816462 105.07096774177626,194.76321108592674 105.69032258051448,195.15042468567844 106.19354838691652,195.6150809834944 106.54193548369221,196.11845861241454 107.62580645130947,197.12521378631936 108.74838709668256,198.36429692310048 110.68387096747756,199.4097731875372 111.72903225780465,198.71278902469203 112.46451612887904,197.04777108458802 113.35483870934695,194.76321108592674 114.20645161275752,192.710978729825 114.86451612878591,190.27153211453697 115.09677419345826,189.07116925233277 115.05806451593526,187.56103510188404 115.13548387074843,186.16706489236094 114.90322580630891,184.6569302555872 114.86451612878591,183.65017369034467 114.63225806434639,183.185516776226 114.78709677397273,182.33364570472622 115.05806451593526,181.28816746140365 115.909677419113,180.66862474137451 117.34193548373878,180.70734616270056 119.08387096738443,181.01711752667325 121.29032258060761,181.90771013876656 123.30322580621578,182.37236711889273 123.72903225780465,182.68213842547266 124.46451612887904,183.41784523631213 126.43870967742987,184.88925867766375 127.32903225813061,185.35391550400527 127.87096774182282,186.128343494609 128.8774193546269,187.17382117640227 129.88387096766382,189.07116925233277 129.99999999976717,189.76815415959572 129.88387096766382,190.9297955519869 129.49677419336513,191.43317344214302 130.42580645135604,193.29179925529752 130.69677419331856,194.60832564131124 130.73548387084156,195.53763826889917 131.2774193547666,196.8541643274948 132.01290322560817,198.01580480806297 132.70967741915956,198.48046095843893 133.63870967715047,199.17744513932848 134.25806451612152,199.4097731875372 136.3483870967757,200.41652799467556 138.012903225841,200.80374135216698 139.87096774182282,201.34584002476186 140.56774193537422,201.38456135732122 141.6129032257013,201.81049600394908 142.81290322565474,202.4687586002401 143.78064516116865,203.12702114874264 144.9419354838319,203.8627262932132 145.67741935467348,204.48226742108818 146.41290322574787,205.99239874252817 146.80000000004657,206.5344971041195 147.2645161289256,207.1153167411685 148.34838709654287,208.2382346004597 149.50967741943896,209.09010322846007 150.7096774193924,210.17429954808904 151.98709677392617,211.33593831793405 153.0322580644861,212.5750195083092 153.30322580621578,212.1490853682626 153.2258064514026,211.80059378419537 154.0,211.02616799389943 153.65161290299147,210.4066273139906 152.41290322551504,209.36115232057637 150.78709677397273,207.81230025651166 150.05161290313117,207.23148066410795 149.12258064490743,206.0698413675418 147.922580644954,205.2566937712254 146.83870967733674,203.51423439005157 145.987096774159,202.35259461624082 144.6322580643464,201.15223335975315 144.16774193523452,200.68757734668907 142.6580645160284,199.64210122998338 141.961290322477,199.4097731875372 140.2967741934117,198.75151036848547 139.48387096752413,198.7902317122207 138.16774193523452,198.98383842781186 136.8516129029449,198.7902317122207 135.6129032257013,198.28685423207935 134.72258064500056,197.7834767238237 132.98064516112208,196.38950809341623 132.82580645149574,195.07298196700867 133.2516129030846,193.29179925529752 133.52258064504713,191.82038718479453 133.48387096775696,190.1940893541323 132.67096774163656,187.98697040067054 131.54838709672913,186.6317216528696 130.15483870962635,185.47007970686536 129.76774193532765,185.16030849597882 129.14838709658943,184.69565165956737 128.2580645158887,184.19227339333156 127.09677419345826,183.2629595969338 125.896774193272,182.37236711889273 124.54193548369221,181.9464315546793 123.69032258051448,181.28816746140365 123.38064516126178,180.82351042545633 122.72258064500056,180.9009532664204 121.48387096775696,180.08780340274097 119.66451612883247,179.5457034528372 118.27096774196252,179.11976775503717 116.87741935462691,179.08104632690083 115.44516129000112,178.9648820417351 113.935483870795,178.9261606130167 112.23225806443952,179.0036034703371 111.49677419336513,179.19721061066957 110.87741935485974,180.66862474137451 111.5741935481783,181.8689887227374 112.50322580640204,183.185516776226 112.85161290317774,184.1535519870231 112.96774193528108,185.00542288646102 113.31612903228961,186.128343494609 113.47096774168313,186.6317216528696 113.39354838686995,187.1350997830159 113.39354838686995,187.87080623023212 113.16129032243043,189.69071139470907 113.08387096761726,190.7361886636354 112.92903225775808,191.47189481725218 112.61935483850539,192.16887953900732 111.99999999976717,193.1369137855363 111.41935483855195,194.10494792816462 110.49032258032821,194.60832564131124 109.52258064504713,194.91809652780648 108.24516129028052,194.25983338133665 107.78064516116865,194.02750520053087 106.38709677406587,193.2530778880464 104.87741935462691,192.13015816698316 103.87096774159,191.62678031559335 102.94193548383191,191.0846810596413 101.74193548364565,190.77491004159674 100.96774193528108,190.42641763365828 100.23225806420669,190.46513901290018 99.49677419336513,190.15536797366804 98.45161290303804,190.11664659297094 97.75483870971948,189.8068755416316 96.82580645149574,188.4129056794336 96.01290322560817,187.94824901077664 94.92903225775808,187.28998535580467 93.80645161285065,186.94149281311547 92.14193548378535,187.01893560157623 90.59354838682339,187.4448709260323 90.05161290313117,187.59975649346597 89.2387096772436,186.6317216528696 88.11612903210334,187.25126396288397 86.60645161289722,187.52231371006928 86.33548387070186,187.32870674855076 85.52258064504713,187.98697040067054 85.32903225789778,188.99372648150893 85.87096774159,189.57454724627314 87.14838709658943,189.69071139470907 87.41935483855195,189.38094032887602 86.79999999981374,189.18733340728795 86.06451612873934,188.6452340047108 85.44516129000112,188.56779123021988 83.39354838686995,189.38094032887602 82.42580645158887,190.31025349459378 81.922580644954,190.7361886636354 81.2645161289256,192.13015816698316 80.68387096747756,192.13015816698316 79.52258064504713,193.21435652073706 78.05161290289834,194.2985547442222 77.04516129009426,195.576359626255 75.99999999976717,196.505672154075 75.1870967738796,197.7060340277967 74.45161290303804,198.48046095843893 73.5999999998603,199.37105184671236 72.67096774186939,200.61013467557495 71.896774193272,201.15223335975315 70.81290322565474,202.27515195932938 69.76774193532765,203.04957849840866 69.1870967738796,203.39807041949825 68.72258064500056,203.82400497130584 67.48387096752413,204.55971005908214 66.28387096757069,205.64390692143934 65.08387096761726,206.30216923879925 63.10967741906643,207.1153167411685 61.716129031963646,207.81230025651166 59.62580645130947,208.70289022562793 57.49677419336513,209.9419717763085 55.5612903223373,211.6069873427623 55.13548387074843,212.1490853682626 54.554838709533215,213.46560900914483 53.896774193504825,214.54980480502127 53.62580645130947,215.169345201517 53.39354838686995,216.09865571692353 53.1999999997206,217.06668740254827 53.006451612571254,217.99599772354122 53.006451612571254,219.97078183927806 52.774193548131734,221.093698105542 52.92903225799091,222.41022044769488 53.08387096761726,223.30080898245797 52.61935483850539,224.07523372437572 52.580645160982385,225.19814948283602 52.38709677406587,225.97257406287827 51.5741935481783,227.21165325364564 51.651612902991474,228.48945349204587 51.10967741929926,229.61236870475113 50.335483870701864,231.27738066122402 50.141935483552516,232.8649499171297 49.677419354673475,233.32960428105434 49.019354838645086,233.98786458926043 47.935483870795,235.1107791227405 47.664516129065305,237.20172305725282 47.238709677243605,238.90545479668071 46.19354838691652,240.64790738228476 46.69677419331856,240.26069572544657" stroke="#4DD2FF" stroke-dasharray="none" stroke-linecap="round" stroke-linejoin="round" stroke-width="0.5"><title>2026-06-11 10.2km</title><desc>9223370255717407907</desc></polyline></svg>