<?xml version="1.0" encoding="utf-8" ?>
<svg baseProfile="full" height="300mm" version="1.1" viewBox="0,0,200,300" width="200mm" xmlns="http://www.w3.org/2000/svg" xmlns:ev="http://www.w3.org/2001/xml-events" xmlns:xlink="http://www.w3.org/1999/xlink"><defs /><rect fill="#222222" height="300" width="200" x="0" y="0" /><text fill="#FFFFFF" style="font-size:12px; font-family:Arial; font-weight:bold;" x="10" y="20">Over 10km Runs</text><text fill="#FFFFFF" style="font-size:4px; font-family:Arial" x="10" y="280">Runner</text><text fill="#FFFFFF" style="font-size:9px; font-family:Arial" x="10" y="290">Yanfu</text><text fill="#FFFFFF" style="font-size:4px; font-family:Arial" x="65" y="280">SPECIAL TRACKS</text><rect fill="yellow" height="2.6" width="2.6" x="65" y="283" /><text fill="#FFFFFF" style="font-size:3px; font-family:Arial" x="70" y="285.5">Over 20.0 km</text><rect fill="red" height="2.6" width="2.6" x="65" y="287" /><text fill="#FFFFFF" style="font-size:3px; font-family:Arial" x="70" y="289.5">Over 40.0 km</text><text fill="#FFFFFF" style="font-size:4px; font-family:Arial" x="120" y="280">STATISTICS</text><text fill="#FFFFFF" style="font-size:3px; font-family:Arial" x="120" y="285">Number: 2</text><text fill="#FFFFFF" style="font-size:3px; font-family:Arial" x="120" y="290">Weekly: 1.0</text><text fill="#FFFFFF" style="font-size:3px; font-family:Arial" x="141" y="285">Total: 20.3 km</text><text fill="#FFFFFF" style="font-size:3px; font-family:Arial" x="141" y="290">Avg: 10.1 km</text><text fill="#FFFFFF" style="font-size:3px; font-family:Arial" x="167" y="285">Min: 10.1 km</text><text fill="#FFFFFF" style="font-size:3px; font-family:Arial" x="167" y="290">Max: 10.2 km</text><polyline fill="none" opacity="1" points="51.53142026881687,103.67577571596485 51.41373047605157,103.518809103698 51.92371957865544,101.24279292556457 52.27678895764984,99.51615958689945 52.59062840556726,98.22118437016616 53.335997094167396,97.75028424599441 53.375227025244385,97.2793840977829 53.49291681800969,96.92620897071902 54.00290592084639,96.49455046362709 54.042135851923376,95.51350832678145 55.10134398867376,94.84639961388893 55.80748274619691,93.43369865004206 56.59208136587404,91.74630554713076 58.043588812230155,90.76526290283073 59.652015982661396,90.09815384476678 60.71122411917895,89.58801159117138 61.37813294609077,89.35256131080678 62.6727206686046,88.64621043315856 63.37885942636058,88.33227669226471 65.41881583747454,87.15502506837947 66.08572466415353,86.84109127649572 67.53723211050965,85.78156464948552 69.42026879778132,84.40810402482748 70.71485652029514,83.27009363693651 71.53868507081643,82.28905008576112 71.81329458788969,81.89663263579132 72.59789320756681,81.26876468100818 74.16709044692107,79.65985285030911 75.10860879067332,78.05094073695363 75.89320741035044,77.38383075338788 76.16781692695804,77.06989662657725 76.87395568494685,75.97112709813518 77.81547402846627,75.18629163992591 79.18852161290124,74.2444890011684 79.89466037065722,73.49889517686097 80.99309843825176,72.8710266459384 81.77769705792889,71.18362975557102 83.18997457344085,70.71272824221523 84.79840174363926,70.75197003595531 86.01452960423194,70.67348644835874 87.11296767159365,70.67348644835874 88.21140573942102,71.26211333880201 89.85906284069642,71.3405969212763 90.95750090829097,71.02666258718818 91.34980021812953,70.86969541606959 91.78132945904508,70.86969541606959 94.05666545592248,71.57604766485747 95.54740283335559,71.53680587472627 96.41046131495386,71.26211333880201 96.84199055586942,71.85074019129388 97.86196876130998,72.20391628460493 98.80348710506223,72.7533012915519 100.72575372341089,73.18496091675479 101.98111151484773,73.85207120643463 103.07954958244227,74.40145611437038 103.74645840935409,75.10780809045536 104.45259716687724,76.04961064027157 105.59026516531594,77.34458898811135 106.6494733018335,78.36487483012024 107.63022157666273,79.26743528770749 108.84634943702258,79.8953033798607 109.78786778077483,80.64089668309316 110.45477660745382,80.13075390318409 111.43552488205023,79.50288582738722 111.94551398488693,78.12942426116206 112.06320377765223,77.46231428335886 112.92626225948334,75.61795115034329 113.75009081000462,73.22420269978466 114.14239012007602,71.81149840232683 114.41699963691644,70.2810685003642 114.49545949883759,68.00504406966502 114.22084998199716,65.57205181010067 114.06393025792204,63.766928101773374 114.29930984391831,62.82512428628979 115.16236832551658,61.60862754745176 116.26080639311112,61.60862754745176 117.43770432262681,61.84407854179153 118.69306211429648,61.96180403674953 120.96839811140671,62.864366113906726 122.3022157647647,63.374509857269004 123.24373410828412,63.06057524931384 123.98910279711708,63.09981707582483 123.83218307304196,64.23782997316448 125.04831093363464,65.25811727769906 126.81365782790817,66.35688809369458 127.48056665482,67.10248250054428 127.9905557576567,67.65186781418743 128.5790047221817,68.47594572260277 129.32437341101468,69.7709251428023 129.6382128589321,70.94817900191993 129.32437341101468,71.57604766485747 128.81438430817798,72.24315807194216 129.20668361801654,73.18496091675479 129.7951325827744,74.12676366453525 130.30512168561108,76.3243030324229 129.99128223769367,76.99141309323022 130.50127134029754,78.16866602317896 131.48201961512677,79.03198474220699 132.89429713063873,80.0130286422791 133.40428623347543,80.48392967693508 134.03196512907743,80.87634718738263 135.05194333475083,81.30800642940449 137.01343988394365,81.77890739758732 138.7395568471402,82.17132485250477 139.87722484581172,82.52450054761721 141.44642208516598,83.07388493506005 142.7017798766028,83.70175276621012 143.99636759911664,84.72203789994819 144.8986560117919,85.428389079927 145.84017435531132,86.44867402152158 146.19324373430572,87.23350851470605 146.5463131130673,87.78289262001636 147.29168180166744,88.41076012852136 147.80167090473697,89.11711102427216 148.2332001454197,89.66649501665961 149.29240828193724,90.5298126526759 150.78314565937035,91.74630554713076 151.96004358888604,92.8450731842313 152.8623320015613,93.94384068989893 153.25463131139986,93.62990713026375 153.49001089739613,92.8058314852533 153.96077006915584,92.13872257550247 153.49001089739613,91.51085532212164 151.92081365804188,90.49057094362797 151.29313476220705,89.8627035774407 150.2339266256895,88.99938587873476 149.80239738500677,88.48924356413772 149.2139484200161,87.5866840147064 148.27243007649668,86.7626078267931 147.723211042583,86.60564092552522 147.17399200890213,85.27142215578351 146.03632401046343,83.81947797973407 144.97711587371305,82.95615971193183 144.3886669089552,82.32829182979185 143.83944787527435,81.85739088995615 142.30948056699708,81.30800642940449 141.9171812569257,80.91558893746696 140.66182346548885,80.4446879249881 138.66109698521905,80.4446879249881 137.87649836554192,80.28772091545397 137.4057391937822,80.09151214972371 135.64039229950868,79.69909460563213 134.2673447150737,79.18895177321974 132.85506719956174,78.36487483012024 132.61968761356547,77.97245721198851 132.54122775164433,76.04961064027157 132.89429713063873,74.79387388558825 133.20813657832332,73.9305547667318 133.12967671640217,73.34192804805934 133.16890664747916,71.37983871228062 132.81583726848476,69.92789233272197 131.67816927004606,68.20125309471041 130.50127134029754,67.10248250054428 129.01053396309726,66.04295358824311 127.9513258265797,65.33660091180354 126.22520886338316,64.12010450765956 125.40138031262904,63.45299350749701 123.87141300435178,62.98209159565158 123.12604431528598,62.66815697425045 122.65528514352627,62.62891514581861 122.02760624792427,62.04028769908473 121.87068652384914,61.60862754745176 120.41917907749303,60.941516363760456 119.35997094097547,60.627581672219094 117.98692335630767,60.117437775363214 116.33926625503227,60.117437775363214 115.24082818767056,59.92122857668437 113.51471122424118,59.92122857668437 111.90628405380994,59.96047041681595 111.1609153652098,60.235163292556535 110.33708681468852,60.941516363760456 110.29785688361153,62.079529530135915 111.12168543436565,63.25678438053001 112.14166363980621,64.90494091593428 112.45550308772363,65.57205181010067 112.41627315664664,66.1214372155955 112.76934253564104,67.65186781418743 112.8085724664852,68.12276948522776 112.8085724664852,68.63291293481598 112.73011260456406,70.2025849086931 112.65165274264291,71.92922376882052 111.59244460612535,74.32297255814774 111.35706502012908,74.79387388558825 110.06247729761526,76.0103688693489 109.0032691610977,76.12809418176766 107.59099164558575,75.53946760448162 106.06102433730848,74.5976650021039 105.4725753723178,74.0482801059843 104.3349073738791,73.38116983056534 103.62876861612312,73.06723556638462 102.45187068660744,72.55709236423718 101.74573192885146,72.16467449709307 101.00036324025132,71.9684655572637 100.09807482757606,71.61528945481405 99.31347620789893,71.30135513009736 98.0581184164621,71.30135513009736 97.31274972762913,71.10514617169974 96.21431166003458,70.75197003595531 95.31202324759215,69.49623255390907 94.64511442068033,68.63291293481598 93.89974573208019,68.1620112900273 92.68361787148751,67.9658022642252 91.46749001112767,67.76959323423216 90.29059208161198,68.27973670349456 89.03523428994231,68.71139653993305 88.44678532518446,68.63291293481598 87.58372684358619,68.5544293289422 86.60297856898978,68.5151875258889 85.66146022547036,68.78988014429342 85.2691609156318,68.5936711319955 84.68071195064113,68.90760554966982 84.20995277888142,69.8101669405587 84.56302215764299,70.55576106574154 85.8968398112338,70.79121182946255 86.5637486379128,70.63424465438584 85.62223029439338,70.32031029590871 84.9160915366374,69.92789233272197 83.30766436620615,70.3595520912786 82.20922629861161,70.63424465438584 81.77769705792889,71.1443879637518 80.87540864525363,72.59633415011922 80.32618961133994,73.22420269978466 79.5808209227398,73.34192804805934 78.63930257922038,74.2837307798327 77.4231747186277,74.91159921366489 76.63857609895058,75.73567646782612 75.9324373411946,76.6382371847285 75.34398837643676,77.305347222602 74.24555030884221,78.79653419042006 73.22557210340165,80.09151214972371 72.7940428624861,80.4446879249881 72.00944424257614,81.1510394346551 70.87177624413744,82.21056659705937 70.40101707237773,82.60298403352499 69.65564838377759,83.42706059536431 68.79258990217932,84.21189534728182 68.04722121334635,84.72203789994819 66.39956411207095,85.82080637855688 65.41881583747454,86.64488265116233 63.221939702285454,87.97910122101894 61.338903015013784,88.92090244754218 59.455866327742115,89.50952816504287 58.632037776988,89.94118700060062 57.02361060678959,90.68677948677214 56.08209226303734,91.51085532212164 54.983654195442796,92.45265618612757 54.042135851923376,93.86535730096512 53.76752633508295,94.33625762420706 53.21830730116926,95.00336637429427 52.55139847449027,96.29834204469807 52.04140937165357,97.71104256791295 51.766799854813144,99.9478179520811 51.727569923968986,101.12506793555804 51.727569923968986,102.4592844012077 52.08063930273056,102.85170097195078 51.33527061389759,103.98970893229125 51.45296040689573,104.8922668697196 51.21758082113229,105.55937485350296 51.13912095897831,106.89359067595797 50.589901925297454,107.83538996358402 50.19760261545889,108.54173936607549 50.315292408457026,109.99367963417899 50.079912822460756,110.73927049367921 49.844533236697316,111.52410291222623 49.68761351262219,112.34817687969189 49.0207046859432,113.28997560933931 48.86378496210091,114.70267352333758 48.196876135189086,115.33053919335362 47.49073737766594,115.9191632202128 47.059208136750385,116.93944477755576 46.588448964990675,118.58759167033713 46.39229930983856,119.09773231548024" stroke="#4DD2FF" stroke-dasharray="none" stroke-linecap="round" stroke-linejoin="round" stroke-width="0.5"><title>2026-06-16 10.1km</title><desc>9223370255286294807</desc></polyline><polyline fill="none" opacity="1" points="53.39354838686995,221.24858309689444 53.31612903205678,220.31927310919855 53.50967741920613,218.6929804016836 53.896774193504825,217.2990149917896 54.59354838705622,216.17609825567342 54.70967741915956,215.47911538393237 55.019354838645086,214.89829628326697 55.251612903084606,214.24003459088271 56.49032258056104,213.1945600399049 57.26451612892561,211.80059378419537 57.72903225780465,210.5615124879405 59.1999999997206,209.59348010731628 60.787096774205565,208.78033282759134 62.25806451588869,208.16079199395608 63.07096774177626,207.6574150354718 65.2387096772436,206.80554627272068 65.974193548318,206.26344792736927 68.10322580626234,205.0630871898611 69.49677419336513,203.8627262932132 71.27741935453378,202.50747992802644 72.94193548359908,200.80374135216698 74.60645161266439,199.02255977038294 75.72903225780465,197.58986998244654 76.46451612887904,196.31206538534025 77.62580645130947,195.42147419566754 78.67096774186939,194.4534401941346 79.52258064504713,193.7177342835348 80.49032258032821,192.67225736007094 81.2258064514026,192.36248639662517 81.922580644954,191.85910855815746 81.922580644954,191.00723830610514 82.46451612887904,190.46513901290018 84.20645161275752,189.57454724627314 85.98709677392617,189.65199001209112 87.6129032257013,189.76815415959572 89.00645161280409,189.96176106872736 90.3225806450937,190.0392038311693 91.71612903196365,190.0392038311693 92.64516129018739,189.8068755416316 94.3096774192527,190.31025349459378 95.27741935453378,190.38769625406712 97.05806451593526,190.77491004159674 97.5612903223373,191.12340243614744 98.2967741934117,191.00723830610514 99.53548387088813,191.5493375667138 100.42580645135604,191.82038718479453 101.12258064490743,192.05271542241098 102.63225806434639,192.74970009934623 103.98709677392617,193.40796335588675 104.72258064500056,194.10494792816462 105.07096774177626,194.76321108592674 105.69032258051448,195.15042468567844 106.19354838691652,195.6150809834944 106.54193548369221,196.11845861241454 107.62580645130947,197.12521378631936 108.74838709668256,198.36429692310048 110.68387096747756,199.4097731875372 111.72903225780465,198.71278902469203 112.46451612887904,197.04777108458802 113.35483870934695,194.76321108592674 114.20645161275752,192.710978729825 114.86451612878591,190.27153211453697 115.09677419345826,189.07116925233277 115.05806451593526,187.56103510188404 115.13548387074843,186.16706489236094 114.90322580630891,184.6569302555872 114.86451612878591,183.65017369034467 114.63225806434639,183.185516776226 114.78709677397273,182.33364570472622 115.05806451593526,181.28816746140365 115.909677419113,180.66862474137451 117.34193548373878,180.70734616270056 119.08387096738443,181.01711752667325 121.29032258060761,181.90771013876656 123.30322580621578,182.37236711889273 123.72903225780465,182.68213842547266 124.46451612887904,183.41784523631213 126.43870967742987,184.88925867766375 127.32903225813061,185.35391550400527 127.87096774182282,186.128343494609 128.8774193546269,187.17382117640227 129.88387096766382,189.07116925233277 129.99999999976717,189.76815415959572 129.88387096766382,190.9297955519869 129.49677419336513,191.43317344214302 130.42580645135604,193.29179925529752 130.69677419331856,194.60832564131124 130.73548387084156,195.53763826889917 131.2774193547666,196.8541643274948 132.01290322560817,198.01580480806297 132.70967741915956,198.48046095843893 133.63870967715047,199.17744513932848 134.25806451612152,199.4097731875372 136.3483870967757,200.41652799467556 138.012903225841,200.80374135216698 139.87096774182282,201.34584002476186 140.56774193537422,201.38456135732122 141.6129032257013,201.81049600394908 142.81290322565474,202.4687586002401 143.78064516116865,203.12702114874264 144.9419354838319,203.8627262932132 145.67741935467348,204.48226742108818 146.41290322574787,205.99239874252817 146.80000000004657,206.5344971041195 147.2645161289256,207.1153167411685 148.34838709654287,208.2382346004597 149.50967741943896,209.09010322846007 150.7096774193924,210.17429954808904 151.98709677392617,211.33593831793405 153.0322580644861,212.5750195083092 153.30322580621578,212.1490853682626 153.2258064514026,211.80059378419537 154.0,211.02616799389943 153.65161290299147,210.4066273139906 152.41290322551504,209.36115232057637 150.78709677397273,207.81230025651166 150.05161290313117,207.23148066410795 149.12258064490743,206.0698413675418 147.922580644954,205.2566937712254 146.83870967733674,203.51423439005157 145.987096774159,202.35259461624082 144.6322580643464,201.15223335975315 144.16774193523452,200.68757734668907 142.6580645160284,199.64210122998338 141.961290322477,199.4097731875372 140.2967741934117,198.75151036848547 139.48387096752413,198.7902317122207 138.16774193523452,198.98383842781186 136.8516129029449,198.7902317122207 135.6129032257013,198.28685423207935 134.72258064500056,197.7834767238237 132.98064516112208,196.38950809341623 132.82580645149574,195.07298196700867 133.2516129030846,193.29179925529752 133.52258064504713,191.82038718479453 133.48387096775696,190.1940893541323 132.67096774163656,187.98697040067054 131.54838709672913,186.6317216528696 130.15483870962635,185.47007970686536 129.76774193532765,185.16030849597882 129.14838709658943,184.69565165956737 128.2580645158887,184.19227339333156 127.09677419345826,183.2629595969338 125.896774193272,182.37236711889273 124.54193548369221,181.9464315546793 123.69032258051448,181.28816746140365 123.38064516126178,180.82351042545633 122.72258064500056,180.9009532664204 121.48387096775696,180.08780340274097 119.66451612883247,179.5457034528372 118.27096774196252,179.11976775503717 116.87741935462691,179.08104632690083 115.44516129000112,178.9648820417351 113.935483870795,178.9261606130167 112.23225806443952,179.0036034703371 111.49677419336513,179.19721061066957 110.87741935485974,180.66862474137451 111.5741935481783,181.8689887227374 112.50322580640204,183.185516776226 112.85161290317774,184.1535519870231 112.96774193528108,185.00542288646102 113.31612903228961,186.128343494609 113.47096774168313,186.6317216528696 113.39354838686995,187.1350997830159 113.39354838686995,187.87080623023212 113.16129032243043,189.69071139470907 113.08387096761726,190.7361886636354 112.92903225775808,191.47189481725218 112.61935483850539,192.16887953900732 111.99999999976717,193.1369137855363 111.41935483855195,194.10494792816462 110.49032258032821,194.60832564131124 109.52258064504713,194.91809652780648 108.24516129028052,194.25983338133665 107.78064516116865,194.02750520053087 106.38709677406587,193.2530778880464 104.87741935462691,192.13015816698316 103.87096774159,191.62678031559335 102.94193548383191,191.0846810596413 101.74193548364565,190.77491004159674 100.96774193528108,190.42641763365828 100.23225806420669,190.46513901290018 99.49677419336513,190.15536797366804 98.45161290303804,190.11664659297094 97.75483870971948,189.8068755416316 96.82580645149574,188.4129056794336 96.01290322560817,187.94824901077664 94.92903225775808,187.28998535580467 93.80645161285065,186.94149281311547 92.14193548378535,187.01893560157623 90.59354838682339,187.4448709260323 90.05161290313117,187.59975649346597 89.2387096772436,186.6317216528696 88.11612903210334,187.25126396288397 86.60645161289722,187.52231371006928 86.33548387070186,187.32870674855076 85.52258064504713,187.98697040067054 85.32903225789778,188.99372648150893 85.87096774159,189.57454724627314 87.14838709658943,189.69071139470907 87.41935483855195,189.38094032887602 86.79999999981374,189.18733340728795 86.06451612873934,188.6452340047108 85.44516129000112,188.56779123021988 83.39354838686995,189.38094032887602 82.42580645158887,190.31025349459378 81.922580644954,190.7361886636354 81.2645161289256,192.13015816698316 80.68387096747756,192.13015816698316 79.52258064504713,193.21435652073706 78.05161290289834,194.2985547442222 77.04516129009426,195.576359626255 75.99999999976717,196.505672154075 75.1870967738796,197.7060340277967 74.45161290303804,198.48046095843893 73.5999999998603,199.37105184671236 72.67096774186939,200.61013467557495 71.896774193272,201.15223335975315 70.81290322565474,202.27515195932938 69.76774193532765,203.04957849840866 69.1870967738796,203.39807041949825 68.72258064500056,203.82400497130584 67.48387096752413,204.55971005908214 66.28387096757069,205.64390692143934 65.08387096761726,206.30216923879925 63.10967741906643,207.1153167411685 61.716129031963646,207.81230025651166 59.62580645130947,208.70289022562793 57.49677419336513,209.9419717763085 55.5612903223373,211.6069873427623 55.13548387074843,212.1490853682626 54.554838709533215,213.46560900914483 53.896774193504825,214.54980480502127 53.62580645130947,215.169345201517 53.39354838686995,216.09865571692353 53.1999999997206,217.06668740254827 53.006451612571254,217.99599772354122 53.006451612571254,219.97078183927806 52.774193548131734,221.093698105542 52.92903225799091,222.41022044769488 53.08387096761726,223.30080898245797 52.61935483850539,224.07523372437572 52.580645160982385,225.19814948283602 52.38709677406587,225.97257406287827 51.5741935481783,227.21165325364564 51.651612902991474,228.48945349204587 51.10967741929926,229.61236870475113 50.335483870701864,231.27738066122402 50.141935483552516,232.8649499171297 49.677419354673475,233.32960428105434 49.019354838645086,233.98786458926043 47.935483870795,235.1107791227405 47.664516129065305,237.20172305725282 47.238709677243605,238.90545479668071 46.19354838691652,240.64790738228476" stroke="#4DD2FF" stroke-dasharray="none" stroke-linecap="round" stroke-linejoin="round" stroke-width="0.5"><title>2026-06-11 10.2km</title><desc>9223370255717407907</desc></polyline></svg>