<?xml version="1.0" encoding="utf-8" ?>
<svg baseProfile="full" height="300mm" version="1.1" viewBox="0,0,200,300" width="200mm" xmlns="http://www.w3.org/2000/svg" xmlns:ev="http://www.w3.org/2001/xml-events" xmlns:xlink="http://www.w3.org/1999/xlink"><defs /><rect fill="#222222" height="300" width="200" x="0" y="0" /><text fill="#FFFFFF" style="font-size:12px; font-family:Arial; font-weight:bold;" x="10" y="20">Over 10km Runs</text><text fill="#FFFFFF" style="font-size:4px; font-family:Arial" x="10" y="280">Runner</text><text fill="#FFFFFF" style="font-size:9px; font-family:Arial" x="10" y="290">Yanfu</text><text fill="#FFFFFF" style="font-size:4px; font-family:Arial" x="65" y="280">SPECIAL TRACKS</text><rect fill="yellow" height="2.6" width="2.6" x="65" y="283" /><text fill="#FFFFFF" style="font-size:3px; font-family:Arial" x="70" y="285.5">Over 20.0 km</text><rect fill="red" height="2.6" width="2.6" x="65" y="287" /><text fill="#FFFFFF" style="font-size:3px; font-family:Arial" x="70" y="289.5">Over 40.0 km</text><text fill="#FFFFFF" style="font-size:4px; font-family:Arial" x="120" y="280">STATISTICS</text><text fill="#FFFFFF" style="font-size:3px; font-family:Arial" x="120" y="285">Number: 3</text><text fill="#FFFFFF" style="font-size:3px; font-family:Arial" x="120" y="290">Weekly: 1.5</text><text fill="#FFFFFF" style="font-size:3px; font-family:Arial" x="141" y="285">Total: 30.4 km</text><text fill="#FFFFFF" style="font-size:3px; font-family:Arial" x="141" y="290">Avg: 10.1 km</text><text fill="#FFFFFF" style="font-size:3px; font-family:Arial" x="167" y="285">Min: 10.1 km</text><text fill="#FFFFFF" style="font-size:3px; font-family:Arial" x="167" y="290">Max: 10.2 km</text><polyline fill="none" opacity="1" points="14.5,97.8533908148529 15.000181620009243,96.91159283489105 15.323828550754115,95.73434517963324 15.412095895502716,95.38117084401892 15.91227751551196,94.46880372666055 16.736106066266075,93.90961091790814 16.912640755530447,92.70293154474348 17.32455503102392,92.05544496496441 17.648201961652376,91.70227044136846 17.76589175441768,90.9370589115133 17.971848892164417,89.46549803909147 17.883581547415815,89.05346093856497 18.50145296053961,88.08223053300753 18.413185615674593,86.81668767821975 18.677987649920397,86.13976931176148 18.589720305171795,85.05081353944843 19.031057028798386,84.5799136927817 19.119324373430572,83.43209518180811 19.119324373430572,82.43143273430178 19.32528151117731,81.37190763154649 20.26679985469673,80.25351984633016 20.384489647694863,80.01806976314401 20.472756992443465,79.63546336078434 20.531601888826117,78.87025049247313 21.120050853700377,78.34048768761568 21.737922266707756,77.19266813728609 22.385216127848253,76.04484839562792 23.1501997821033,75.54451665340457 24.12114057398867,75.01475359269534 25.651107882265933,74.36726535181515 27.03396294952836,73.60205189787666 27.94605884491466,73.21944513884955 28.593352706171572,72.77797577521414 30.1527424629312,71.89503696284373 31.00599346170202,71.24754842830589 31.976934253587388,70.60005983288283 32.712495459476486,69.89370856827009 33.71285869961139,68.86361284391023 34.30130766436923,68.18669271236286 34.801489284378476,67.6569290845946 35.68416273163166,66.65626434300793 35.978387213894166,66.24422587759909 36.74337086814921,65.06697298301151 37.97911369416397,63.86028855651966 38.39102796954103,63.53654391824966 39.00889938254841,63.153936598682776 39.71503814030439,62.47701590418001 40.56828913919162,62.00611451212899 40.68597893207334,61.27033102224232 41.33327279321384,60.76999820405035 42.098256447468884,60.2990966947109 43.157464584102854,60.26966534933308 43.53995641123038,60.2990966947109 44.8345441337442,60.2990966947109 45.481837995001115,60.06364592796308 45.92317471851129,60.15193996645394 46.27624409738928,60.62284148589242 46.747003269265406,60.711135517194634 47.24718488927465,60.681704173533944 47.74736650928389,60.50511610900867 48.48292771517299,60.328528040030506 49.895205230568536,60.652272829727735 50.77787867793813,60.82886089044041 51.95477660745382,60.652272829727735 51.48401743546128,60.858292233460816 53.66127860522829,61.68236978625646 54.86759898299351,62.00611451212899 55.750272430246696,62.418153231963515 57.33908463490661,63.2422305974178 57.78042135841679,63.62483791203704 58.31002542679198,64.1251705220202 58.92789683979936,64.77265972780879 59.25154377054423,65.12583563255612 59.45750090805814,65.53787416502018 60.25190701056272,66.06763795623556 60.8697784235701,66.92114620056236 61.51707228482701,67.62749777079443 62.046676353085786,67.8629482780525 63.105884489719756,66.6268330248713 63.6943334544776,65.71446210000431 64.22393752273638,64.65493442222942 64.93007628037594,63.18336793174967 65.31256810750347,61.91782049750327 65.69505993463099,60.62284148589242 65.84217217576224,59.56331302173203 65.81274972762913,59.03354872827185 65.81274972762913,57.885725951899076 65.72448238288052,56.35529528436018 65.4302579005016,55.560648456710624 65.66563748638146,54.53055057997699 66.10697421000805,53.73590354062617 67.28387213952374,53.50045254823635 68.51961496542208,53.70647216704674 70.3438067563111,54.29509961500298 71.16763530706521,54.67770742898574 72.31511078821495,55.001452485710615 72.78586996009108,55.619511187804164 74.19814747548662,56.56131481716875 75.49273519800045,57.56198103152565 76.02233926625922,58.12117679347284 76.96385760989506,59.68103841476841 76.93443516164552,60.858292233460816 76.551943334518,61.47635040731984 76.61078823113348,61.800095142942155 76.75790047226474,62.44758456814452 77.19923719589133,63.2422305974178 77.61115147115197,64.18403317965567 77.49346167815384,65.00811033300124 77.40519433340523,65.89105003044824 78.19960043590982,66.56797038819059 79.52361060655676,67.21545936362236 80.02379222668242,67.48034119963995 80.818198329187,68.0983987772488 82.52470032696147,68.56929975142702 83.1131492916029,68.77531891746912 84.05466763535514,69.01076938540791 84.93734108249191,69.18735723101418 85.90828187437728,69.54053290872253 87.26171449327376,70.30574681475991 87.85016345814802,70.80607893801061 88.35034507815726,71.0120980370557 88.8505266981665,71.3652736209915 89.43897566292435,72.3365063831443 89.6743552488042,73.27830771854497 89.96857973118313,73.60205189787666 90.70414093718864,74.24954021061421 91.7633490737062,75.04418487485964 92.17526334896684,75.48565409312141 92.6754449690925,75.80939816852333 93.85234289860819,76.78063030328485 94.32310207048431,77.48698086073273 94.73501634586137,77.69299975963077 94.7644387941109,77.3103932281665 95.5,76.51574882559362 94.55848165636417,75.51508537336485 93.61696331272833,74.72044076348539 93.08735924435314,74.36726535181515 92.70486741734203,73.95522734869155 91.70450417732354,72.98399481512024 91.38085724657867,72.63081931436318 90.76298583357129,72.24821250143577 90.64529604068957,71.83617437130306 89.93915728305001,70.77664763771463 89.90973483480047,70.48233462718781 88.70341445691884,69.77598335038056 87.76189611339942,68.86361284391023 86.82037776964717,68.18669271236286 86.2025063567562,67.53920382849174 84.93734108249191,67.4214785703225 84.49600435898174,67.4214785703225 83.3779513258487,67.5097725141095 82.61296767159365,67.39204725547461 80.96531057031825,66.7739896143321 79.90610243356787,66.68569566102815 79.6413003995549,66.24422587759909 79.11169633129612,64.80209105397807 79.3764983654255,64.09573919302784 79.81783508893568,62.88905459578382 79.72956774441991,61.56464442764991 79.72956774441991,60.38739073020406 79.40592081355862,59.416156277642585 78.78804940066766,58.59207845243509 77.4640392299043,57.44425560210948 76.37540864513721,56.59074617852457 75.16908826737199,55.943256200058386 74.61006175086368,55.38406026028679 73.84507809660863,54.76600153691834 72.93298220122233,54.53055057997699 71.90319651295431,53.97135452483781 71.60897203045897,53.73590354062617 71.28532509983052,53.29443292331416 70.2555394115625,53.029550539300544 69.31402106804308,52.794099522638135 68.54903741378803,52.58807987644104 67.66636396653485,52.29376608537859 66.46004358888604,52.29376608537859 65.13603341812268,52.23490332567599 64.16509262623731,52.1466091851471 63.606066109729,52.26433470560005 62.95877224847209,52.411491603328614 62.664547766093165,52.88239365487243 62.6939702143427,53.4710211736965 62.870504903723486,54.0596486418799 63.16472938610241,54.5894133199763 63.6943334544776,55.2663347934722 64.04740283323918,55.707805283600464 64.31220486748498,56.59074617852457 64.3416273156181,57.41482424447895 64.22393752273638,58.062314083828824 64.4298946603667,59.210136830603005 64.3416273156181,60.711135517194634 63.90029059199151,62.06497718786704 63.31184162723366,63.507112586754374 62.311478387215175,64.3017584932677 61.399382491828874,64.41948380498798 60.428441699943505,63.919151216425234 59.722302942187525,63.507112586754374 59.31038866692688,63.30109326262027 58.48656011628918,62.535878575989045 57.83926625503227,62.21213387514581 57.19197239365894,61.88838915899396 56.39756629138719,61.535213087685406 56.01507446425967,61.47635040731984 55.51489284413401,61.24089968102635 54.89702143112663,61.1231743148237 54.3085724664852,60.50511610900867 53.57301126036327,60.50511610900867 53.24936432973482,60.50511610900867 51.45459498721175,59.18070548059768 51.13094805669971,58.827529269707156 50.277697057812475,58.18003950259299 48.89484199055005,57.79743188424618 48.15928078466095,58.0917454387818 47.3942971304059,58.5626470996358 46.42335633863695,58.85696062131319 45.86432982201222,58.945254675345495 45.01107882312499,58.5332157468074 44.39320741011761,58.73923521419056 43.68706865236163,58.827529269707156 43.245731928851455,59.062980078946566 43.03977479110472,59.504450324428035 43.157464584102854,60.06364592796308 43.45168906648178,60.2990966947109 44.628586995997466,60.50511610900867 44.80512168549467,60.26966534933308 44.12840537598822,59.975351888366276 43.0103523429716,59.91648919461295 41.48038503457792,60.18137131238473 40.71540138043929,60.8877235763066 40.362332001444884,61.858957820455544 39.891572829685174,62.241565212229034 38.89120958955027,62.85962326146546 38.42045041779056,63.18336793174967 37.06701779877767,64.39005247721798 36.09607700700872,65.42014887256664 35.50762804225087,66.24422587759909 34.88975662912708,66.98000883418717 34.4484199056169,67.36261594042298 33.94823828549124,68.0101048409997 33.50690156209748,68.56929975142702 32.300581184215844,69.54053290872253 31.064838358201087,70.80607893801061 30.1527424629312,71.57129270321457 28.622775154421106,72.36593767689192 27.68125681078527,73.04285739685292 27.004540501278825,73.36660158715677 26.092444605892524,73.77863962558331 25.209771158872172,74.04352120868862 24.23883036687039,74.60271562827984 22.88539774797391,75.30906640924513 22.444061024463736,75.42679153231438 21.679077370092273,76.10371095110895 20.855248819454573,76.63347392802825 20.531601888826117,77.22209941019537 19.913730475935154,78.36991895563551 19.619505993439816,78.69366289535537 19.08990192518104,80.04750102403341 18.91336723580025,81.43077014153823 18.795677442802116,82.10768897013622 18.707410098053515,83.28493894863641 18.530875408672728,84.28560127230594" stroke="#4DD2FF" stroke-dasharray="none" stroke-linecap="round" stroke-linejoin="round" stroke-width="0.5"><title>2026-06-20 10.1km</title><desc>9223370254938036107</desc></polyline><polyline fill="none" opacity="1" points="108.06110283161979,82.98472905921517 108.09128166909795,82.62247455806937 108.18181818176527,82.35078367003007 108.5741430700291,82.01871701481286 108.60432190750726,81.2640200133319 109.41915052162949,80.75082600623136 109.96236959763337,79.6640621034312 110.56594634859357,78.36598277813755 111.6825633381959,77.6112853861996 112.91989567806013,77.09809111361392 113.73472429206595,76.70564840937732 114.24776453047525,76.52452100015944 115.24366616993211,75.9811387443333 115.78688524593599,75.73963550612098 117.35618479875848,74.83399828907568 117.8692250372842,74.59249501157319 118.98584202677011,73.77742138894973 120.43442622944713,72.72084433055716 121.43032786878757,71.84539464785485 122.06408345745876,71.09069655829808 122.27533532038797,70.78881729982095 122.87891207146458,70.30581045942381 124.08606557373423,69.06810527964262 124.81035767518915,67.83039988251403 125.41393442626577,67.31720489793224 125.62518628907856,67.07570136280265 126.16840536508244,66.23043892468559 126.89269746642094,65.626679978217 127.94895678083412,64.90216917404905 128.49217585695442,64.32859806792112 129.3371833084384,63.84559078433085 129.94076005963143,62.54750854533631 131.0271982116392,62.185252994066104 132.264530551387,62.21544095739955 133.2000745155383,62.15506503061624 134.04508196713869,62.15506503061624 134.89008941873908,62.607884468801785 136.15760059619788,62.66826039162697 137.00260804768186,62.426756697008386 137.30439642327838,62.30600484664319 137.63636363646947,62.30600484664319 139.38673621451017,62.84938815719215 140.53353204170708,62.81920019665267 141.19746646785643,62.607884468801785 141.5294336809311,63.06070387776708 142.31408345745876,63.33239550917642 143.03837555891369,63.755026914936025 144.51713859918527,64.08709443022963 145.48286140093114,64.60028965031961 146.32786885241512,65.02292097988538 146.84090909105726,65.56630408071214 147.3841281668283,66.29081481648609 148.25931445602328,67.28701695642667 149.0741430700291,68.07190339174122 149.82861400896218,68.7662259345525 150.76415797322989,69.24923288059654 151.48845007445198,69.8228035858483 152.0014903129777,69.43036047671922 152.75596125191078,68.94735354324803 153.1482861400582,67.89077576051932 153.2388226527255,67.37758078036131 153.90275707899127,65.95874740520958 154.53651266766246,64.1172823853558 154.83830104314256,63.03051591810072 155.04955290607177,61.85318538901629 155.10991058126092,60.102283211948816 154.89865871833172,58.230628678400535 154.77794336806983,56.84198144415859 154.95901639340445,56.1174697347451 155.62295081967022,55.1816419994575 156.4679582711542,55.1816419994575 157.37332339794375,55.362769957922865 158.33904619968962,55.453333935467526 160.08941877807956,56.14765772415558 161.11549925489817,56.54010157438461 161.83979135612026,56.298597669112496 162.4131892697187,56.32878565770807 162.29247391957324,57.20423727086745 163.22801788372453,57.98912483121967 164.58606557373423,58.83438825979829 165.09910581225995,59.407959814067 165.49143070052378,59.83059145580046 165.94411326374393,60.46453887055395 166.5175111774588,61.46074183547171 166.75894187774975,62.366380772029515 166.5175111774588,62.84938815719215 166.12518628919497,63.36258346756222 166.42697466467507,64.08709443022963 166.87965722801164,64.81160531827481 167.27198211627547,66.50213043374242 167.0305514158681,67.01532547775423 167.42287630401552,67.92096369946375 168.1773472429486,68.58509832131676 169.26378539495636,69.33979667926906 169.6561102832202,69.7020518623176 170.13897168415133,70.00393116736086 170.92362146044616,70.33599838789087 172.43256333831232,70.69825351977488 173.76043219072744,71.00013278209371 174.6356184799224,71.27182410715614 175.84277198219206,71.69445503636962 176.80849478393793,72.17746178165544 177.80439642327838,72.96234767208807 178.4985096870223,73.50573016045382 179.2228017883608,74.2906159030972 179.49441132636275,74.89437410718529 179.7660208644811,75.3170048193424 180.33941877796315,75.80001131643075 180.7317436663434,76.34339358616853 181.06371087941807,76.76602421147982 181.87853949330747,77.43015800020657 183.02533532050438,78.36598277813755 183.93070044717751,79.21124376123771 184.62481371092144,80.05650464323116 184.92660208651796,79.81500154436799 185.1076751118526,79.18105587078026 185.46982116252184,78.66786171228159 185.1076751118526,78.18485541141126 183.90052160958294,77.3999701020075 183.4176602086518,76.91696371440776 182.6028315947624,76.25282987742685 182.2708643815713,75.86038712627487 181.81818181823473,75.16606528218836 181.09388971689623,74.53211919084424 180.67138599103782,74.41136754804756 180.24888226529583,73.38497850002022 179.37369597621728,72.26802554272581 178.55886736221146,71.60389126790687 178.10618479875848,71.1208844834473 177.6836810730165,70.75862937333295 176.50670640845783,70.33599838789087 176.2049180327449,70.03411909710849 175.23919523099903,69.67186393111479 173.7000745156547,69.67186393111479 173.09649776446167,69.55111220496474 172.73435171390884,69.40017254435224 171.37630402389914,69.09829321346479 170.32004470948596,68.70585006399779 169.23360655736178,68.07190339174122 169.05253353202716,67.77002400386846 168.99217585695442,66.29081481648609 169.26378539495636,65.32480048557045 169.50521609536372,64.66066555608995 169.44485842029098,64.20784625009401 169.47503725788556,62.69844835286494 169.2034277197672,61.58149370038882 168.32824143080506,60.25322307203896 167.42287630401552,59.407959814067 166.27608047705144,58.59288443339756 165.4612518629292,58.04950079380069 164.13338301051408,57.11367331596557 163.4996274218429,56.60047754936386 162.32265275716782,56.2382216915139 161.74925484345295,55.996717775880825 161.3871087929001,55.96652978588827 160.90424739196897,55.513709919760004 160.78353204170708,55.1816419994575 159.66691505222116,54.668446091644 158.85208643821534,54.426942122052424 157.79582712368574,54.03449815372005 156.52831594634335,54.03449815372005 155.68330849485938,53.88355816010153 154.35543964232784,53.88355816010153 153.1181073024636,53.91374615911627 152.54470938886516,54.125062148377765 151.9109538004268,54.668446091644 151.8807749627158,55.54389791178983 152.5145305515034,56.44953761086799 153.29918032791466,57.71743299334776 153.54061102843843,58.230628678400535 153.51043219072744,58.653260390798096 153.7820417288458,59.83059145580046 153.81222056632396,60.19284712837543 153.81222056632396,60.58529075264232 153.7518628911348,61.79280945908977 153.69150521606207,63.12107979680877 152.87667660205625,64.96254507725826 152.69560357672162,65.32480048557045 151.69970193738118,66.26062687067315 150.88487332349177,66.35119070782093 149.7984351713676,65.8983715105569 148.62146050669253,65.17386073432863 148.16877794335596,64.75122941384325 147.293591654161,64.23803420475451 146.7503725781571,63.99653056397801 145.84500745148398,63.604087130050175 145.30178837559652,63.302207550616004 144.72839046199806,63.15126775606768 144.03427719813772,62.87957611767342 143.4307004470611,62.63807243027259 142.46497764531523,62.63807243027259 141.89157973171677,62.48713262146339 141.0465722802328,62.21544095739955 140.35245901637245,61.249426066933665 139.83941877796315,60.58529075264232 139.2660208644811,60.2230351002072 138.33047690009698,60.07209523959318 137.3949329359457,59.921155375719536 136.48956780927256,60.31359901506221 135.52384500741027,60.64566669292981 135.0711624440737,60.58529075264232 134.40722801780794,60.52491481183097 133.65275707899127,60.49472684127977 132.92846497765277,60.70604263257701 132.62667660205625,60.55510278232396 132.17399403871968,60.79660654126201 131.81184798793402,61.49092980194837 132.08345752605237,62.06450113950996 133.10953800287098,62.245628920558374 133.6225782413967,62.124877067049965 132.8982861401746,61.88337335374672 132.3550670640543,61.58149370038882 131.1177347243065,61.913561318360735 130.2727272727061,62.124877067049965 129.94076005963143,62.51732058345806 129.24664679577108,63.634275087330025 128.8241430700291,64.1172823853558 128.25074515654705,64.20784625009401 127.52645305520855,64.93235712579917 126.59090909094084,65.41536433470901 125.98733233974781,66.04931124625728 125.44411326374393,66.743633988488 124.99143070040736,67.25682901486289 124.14642324892338,68.403970703308 123.36177347251214,69.40017254435224 123.02980625932105,69.67186393111479 122.4262295080116,70.21524667314952 121.55104321904946,71.03032070765039 121.18889716838021,71.33219995570835 120.61549925478175,71.96614633465651 119.9515648286324,72.5699047378148 119.37816691503394,72.96234767208807 118.11065573769156,73.80760930257384 117.35618479875848,74.44155545899412 115.6661698956741,75.46794435323682 114.21758569299709,76.19245407095877 112.76900149032008,76.64527260686737 112.13524590153247,76.97733951470582 110.89791356178466,77.55090959137306 110.17362146044616,78.18485541141126 109.32861400884576,78.90936485031852 108.60432190750726,79.99612886924297 108.39307004469447,80.35838350508129 107.97056631883606,80.87157754070358 107.45752608042676,81.86777762102429 107.06520119216293,82.95454118482303 106.85394932935014,84.67524981911993 106.82377049175557,85.58088577422313 106.82377049175557,86.60727304971078 107.09538002987392,86.9091516318149 106.52198211615905,87.78459944704082 106.61251862882636,88.47892005112953 106.43144560360815,88.99211349728284 106.371087928419,90.01850027800538 105.94858420267701,90.74300850421423 105.6467958270805,91.28638962522382 105.73733233974781,92.40333957626717 105.55625931441318,92.97690840158612 105.37518628919497,93.58066500967834 105.25447093881667,94.21460939280223 104.74143070040736,94.9391171897878 104.62071535014547,96.02587874641176" stroke="#4DD2FF" stroke-dasharray="none" stroke-linecap="round" stroke-linejoin="round" stroke-width="0.5"><title>2026-06-16 10.1km</title><desc>9223370255286294807</desc></polyline><polyline fill="none" opacity="1" points="19.311881188186817,231.67035057768226 19.54950495052617,231.22467255487572 19.7277227723971,230.71957076119725 20.67821782187093,229.91735018987674 21.27227722783573,228.84772261744365 21.628712871228345,227.89694241492543 22.757425742573105,227.15414529113332 23.975247524911538,226.53019564581336 25.103960396023467,226.05480540217832 25.727722772280686,225.66855080530513 27.39108910888899,225.0148891308927 27.955445544677787,224.59892257879255 29.589108910993673,223.67785369604826 30.65841584163718,222.7567846912425 32.02475247520488,221.71686792583205 33.301980198011734,220.40954377112212 34.57920792081859,219.0427955276682 35.44059405941516,217.9434543537791 36.00495049508754,216.96296072728 36.89603960397653,216.27958629955538 37.69801980210468,215.53678793204017 38.351485148537904,214.9722611194593 39.0940594059648,214.1700387276942 39.65841584163718,213.93234318646137 40.193069306900725,213.5460879143211 40.193069306900725,212.89242509717587 40.60891089111101,212.4764578177128 41.9455445545027,211.7930829472607 43.3118811880704,211.85250685177743 44.55940594058484,211.9416427075048 45.62871287134476,212.09020246448927 46.63861386140343,212.14962636638666 47.707920792046934,212.14962636638666 48.420792079297826,211.97135465912288 49.698019801988266,212.3576100190403 50.44059405941516,212.41703391860938 51.806930693099275,212.7141534090042 52.19306930701714,212.98156093951548 52.75742574268952,212.89242509717587 53.70792079216335,213.30839235155145 54.39108910888899,213.5163759693969 54.92574257426895,213.69464763690485 56.08415841590613,214.22946261178004 57.12376237625722,214.73456560564227 57.6881188119296,215.2693805001909 57.955445544444956,215.77448341832496 58.430693069356494,216.07160276465584 58.81683168315794,216.4281459634658 59.08415841590613,216.8144010747783 59.91584158409387,217.5869112329674 60.777227722806856,218.5376928478363 62.262376237660646,219.33991473389324 63.06435643567238,218.80510015349137 63.62871287134476,217.52748737763613 64.3118811880704,215.77448341832496 64.96534653462004,214.19975066982443 65.47029702970758,212.32789806899382 65.6485148514621,211.40682755591115 65.61881188128609,210.24806125235045 65.67821782175452,209.17843064601766 65.5,208.01966396928765 65.47029702970758,207.24715274351183 65.29207920795307,206.89060907176463 65.41089108900633,206.23694562580204 65.61881188128609,205.43472222128185 66.27227722771931,204.9593305301969 67.37128712865524,204.98904251190834 68.70792079204693,205.2267383604776 70.40099009906407,205.9101138796541 71.94554455438629,206.26665760204196 72.27227722771931,206.50435340660624 72.8366336633917,207.06888090993743 74.35148514865432,208.19793577829842 75.03465346549638,208.55447938269936 75.45049504959024,209.1487186824088 76.22277227719314,209.95094165607588 76.99504950491246,211.40682755591115 77.08415841578972,211.9416427075048 76.99504950491246,212.83300120168133 76.69801980198827,213.2192565134028 77.41089108912274,214.64542978588725 77.61881188116968,215.6556356761721 77.64851485157851,216.36872209829744 78.06435643567238,217.37892773729982 78.62871287122834,218.27028553182026 79.16336633672472,218.62682861753274 79.87623762362637,219.16164321178803 80.3514851485379,219.33991473389324 81.95544554456137,220.1124246107065 83.23267326736823,220.40954377112212 84.65841584163718,220.8255105743301 85.19306930690072,220.8552224879386 85.99504950491246,221.1820535286679 86.91584158421028,221.68715601594886 87.65841584163718,222.1922584665008 88.54950495052617,222.7567846912425 89.11386138608214,223.23217516060686 89.67821782187093,224.39093929337105 89.97524752479512,224.80690585798584 90.33168316830415,225.25258429237874 91.1633663366083,226.11422918440076 92.05445544561371,226.76789075537818 92.97524752479512,227.599823574943 93.95544554456137,228.49118005676428 94.75742574268952,229.4419601780246 94.96534653462004,229.11512952600606 94.9059405940352,228.84772261744365 95.5,228.25348500610562 95.23267326725181,227.7780948804575 94.28217821777798,226.9758739696117 93.03465346537996,225.78739837592002 92.470297029824,225.34171997581143 91.7574257425731,224.45036308985436 90.8366336633917,223.82641320157563 90.00495049508754,222.48937753780046 89.3514851485379,221.5980202856008 88.31188118818682,220.6769510046579 87.95544554456137,220.3204080243013 86.79702970292419,219.51818625163287 86.26237623766065,219.33991473389324 84.98514851485379,218.83481207571458 84.36138613859657,218.8645239978796 83.35148514842149,219.0130836063763 82.34158415836282,218.8645239978796 81.39108910888899,218.47826900077052 80.70792079204693,218.09201398206642 79.37128712865524,217.0223845874425 79.25247524760198,216.01217889634427 79.57920792081859,214.64542978588725 79.78712871286552,213.5163759693969 79.7574257425731,212.26847416866804 79.13366336631589,210.57489279349102 78.27227722771931,209.53497419983614 77.20297029707581,208.6436152809183 76.9059405940352,208.4059195498121 76.43069306924008,208.04937593772775 75.74752475239802,207.66312033735448 74.85643564362545,206.9500330183655 73.93564356432762,206.26665760204196 72.89603960397653,205.9398258572328 72.2425742574269,205.43472222128185 72.00495049508754,205.07817845611135 71.49999999988358,205.13760241819546 70.54950495064259,204.51365079014795 69.15346534654964,204.09768300678115 68.08415841590613,203.7708511594683 67.0148514850298,203.74113917257637 65.91584158409387,203.6520032111439 64.7574257425731,203.6222912237863 63.450495049590245,203.68171519844327 62.88613861380145,203.8302751328447 62.41089108923916,204.9593305301969 62.9455445545027,205.88040190201718 63.65841584163718,206.89060907176463 63.92574257426895,207.63340836716816 64.01485148526262,208.28707168111578 64.2821782178944,209.1487186824088 64.40099009894766,209.53497419983614 64.34158415847924,209.92122969578486 64.34158415847924,210.48575692012673 64.1633663366083,211.88221880380297 64.10396039613988,212.68444146058755 63.98514851485379,213.24896845966578 63.74752475251444,213.7837834689417 63.272277227719314,214.52658202446764 62.82673267333303,215.2693805001909 62.113861386082135,215.6556356761721 61.371287128771655,215.89333115838235 60.39108910900541,215.38822824897943 60.03465346537996,215.20995662506903 58.965346534736454,214.61571784567786 57.806930693099275,213.75407152506523 57.034653465263546,213.36781624302967 56.3217821783619,212.95184899220476 55.400990099064074,212.7141534090042 54.806930693099275,212.4467458683066 54.242574257426895,212.4764578177128 53.67821782187093,212.23876221833052 52.87623762374278,212.20905026776018 52.341584158479236,211.97135465912288 51.62871287134476,210.90172431926476 51.00495049508754,210.54518083587755 50.17326732666697,210.04007753630867 49.31188118818682,209.77266989217605 48.034653465496376,209.83209381398046 46.84653465345036,210.15892537479522 46.430693069356494,210.2777732112445 45.806930693099275,209.53497419983614 44.9455445545027,210.0103655763669 43.78712871298194,210.2183492932818 43.57920792081859,210.06978949607583 42.95544554456137,210.57489279349102 42.80693069298286,211.34740364761092 43.222772277193144,211.7930829472607 44.20297029707581,211.88221880380297 44.41089108900633,211.6445231839316 43.935643564444035,211.49596341734286 43.371287128771655,211.07999605400255 42.89603960397653,211.02057214290835 41.321782178245485,211.6445231839316 40.579207920935005,212.3576100190403 40.193069306900725,212.68444146058755 39.6881188119296,213.75407152506523 39.24257425731048,213.75407152506523 38.351485148537904,214.58600590541027 37.222772277193144,215.41794018581277 36.450495049590245,216.39843403093982 35.64851485157851,217.1115203765803 35.02475247520488,218.03259013110073 34.46039603964891,218.62682861753274 33.806930693099275,219.31020281394012 33.0940594059648,220.26098419254413 32.5,220.6769510046579 31.668316831812263,221.53859646472847 30.866336633684114,222.13283465069253 30.42079207918141,222.40024181781337 30.064356435788795,222.7270727857831 29.11386138619855,223.29159896704368 28.19306930701714,224.1235322029679 27.27227722783573,224.6286344761611 25.757425742573105,225.25258429237874 24.688118811813183,225.78739837592002 23.084158415789716,226.47077186708339 21.450495049590245,227.4215522648883 19.965346534736454,228.69916321936762 19.638613861403428,229.11512952600606 19.193069306900725,230.12533330987208 18.688118812046014,230.957265727513 18.48019801976625,231.4326556356973 18.301980198011734,232.14574043714674 18.153465346549638,232.88853702758206 18.00495049508754,233.60162167984527 18.00495049508754,235.1169263230986 17.82673267321661,235.97856999270152 17.945544554502703,236.9887727800524 18.06435643567238,237.6721451705671 17.70792079216335,238.26638197747525 17.678217821754515,239.1280252574943 17.529702970408835,239.7222619401873 16.9059405940352,240.6730405271519 16.965346534736454,241.653530809097 16.54950495052617,242.51517367037013 15.955445544561371,243.79278185474686 15.806930693099275,245.01096618484007 15.450495049590245,245.36750789970392 14.945544554502703,245.872608631209" stroke="#4DD2FF" stroke-dasharray="none" stroke-linecap="round" stroke-linejoin="round" stroke-width="0.5"><title>2026-06-11 10.2km</title><desc>9223370255717407907</desc></polyline></svg>