<?xml version="1.0" encoding="utf-8" ?>
<svg baseProfile="full" height="300mm" version="1.1" viewBox="0,0,200,300" width="200mm" xmlns="http://www.w3.org/2000/svg" xmlns:ev="http://www.w3.org/2001/xml-events" xmlns:xlink="http://www.w3.org/1999/xlink"><defs /><rect fill="#222222" height="300" width="200" x="0" y="0" /><text fill="#FFFFFF" style="font-size:12px; font-family:Arial; font-weight:bold;" x="10" y="20">Over 10km Runs</text><text fill="#FFFFFF" style="font-size:4px; font-family:Arial" x="10" y="280">Runner</text><text fill="#FFFFFF" style="font-size:9px; font-family:Arial" x="10" y="290">Yanfu</text><text fill="#FFFFFF" style="font-size:4px; font-family:Arial" x="65" y="280">SPECIAL TRACKS</text><rect fill="yellow" height="2.6" width="2.6" x="65" y="283" /><text fill="#FFFFFF" style="font-size:3px; font-family:Arial" x="70" y="285.5">Over 20.0 km</text><rect fill="red" height="2.6" width="2.6" x="65" y="287" /><text fill="#FFFFFF" style="font-size:3px; font-family:Arial" x="70" y="289.5">Over 40.0 km</text><text fill="#FFFFFF" style="font-size:4px; font-family:Arial" x="120" y="280">STATISTICS</text><text fill="#FFFFFF" style="font-size:3px; font-family:Arial" x="120" y="285">Number: 5</text><text fill="#FFFFFF" style="font-size:3px; font-family:Arial" x="120" y="290">Weekly: 1.7</text><text fill="#FFFFFF" style="font-size:3px; font-family:Arial" x="141" y="285">Total: 51.0 km</text><text fill="#FFFFFF" style="font-size:3px; font-family:Arial" x="141" y="290">Avg: 10.2 km</text><text fill="#FFFFFF" style="font-size:3px; font-family:Arial" x="167" y="285">Min: 10.1 km</text><text fill="#FFFFFF" style="font-size:3px; font-family:Arial" x="167" y="290">Max: 10.5 km</text><polyline fill="none" opacity="1" points="14.126939351321198,91.82741798012285 14.482369534671307,90.96397464806796 14.913963328697719,89.94815880351234 15.320169252576306,88.9323427862837 15.777150916866958,87.81494496786036 16.081805359805003,87.12926893026452 16.335684062098153,86.3928019873274 16.53878702397924,85.7833120347932 17.09732016932685,84.7928907291498 17.12270803959109,84.41195941402111 17.884344146819785,83.7770738346444 18.036671368055977,82.8120476246113 18.41748942178674,82.0501847169362 18.645980253932066,81.2375308413175 18.849083215813152,79.76459540941869 19.077574048074894,79.12970933513134 19.433004231308587,78.57100953371264 19.686882933718152,77.30123706287122 19.686882933718152,75.7521142816986 19.81382228503935,74.20299109720509 19.940761636127718,72.7046584530035 20.346967560006306,71.4602802072477 20.47390691121109,71.18092995302868 21.413258110173047,69.7841784847842 22.53032440051902,68.56519511694205 23.012693935306743,68.15886727205361 23.444287729333155,67.85412137012463 24.028208744712174,67.60016643989366 24.51057827938348,67.39700248790905 26.033850493724458,66.7113240986364 26.643159379484132,66.40657812246354 26.94781382230576,66.2288096291013 27.50634696765337,65.97485462934128 28.572637517703697,65.39075808867346 29.86741889989935,64.52731092323666 31.111424541682936,63.63846812167321 31.771509167854674,62.92739378448459 32.02538787026424,62.72422967248713 32.96473906910978,61.58143141280743 33.54866008472163,60.99733443942387 34.43723554315511,60.032304531137925 35.07193229906261,59.295834232267225 35.93511988723185,58.381595113140065 36.56981664313935,57.74670675295056 37.07757404795848,57.54354246330331 37.813822284922935,56.730885235010646 38.65162200294435,56.27376549507608 38.60084626241587,55.7658546314924 39.33709449938033,55.105570443643956 40.22566995781381,54.85161496716319 40.885754583985545,54.87701051525073 41.774330042419024,54.85161496716319 42.30747531738598,54.87701051525073 43.043723554350436,54.77542832211475 44.0592383639887,54.87701051525073 45.25246826512739,54.95319715907681 46.26798307488207,54.95319715907681 47.486600846285,55.105570443643956 48.29901269392576,55.18175708441413 49.111424541682936,55.5626902738004 50.27926657279022,56.17218332583434 51.21861777163576,56.42613874556264 52.13258110021707,56.83246739458991 53.07193229906261,57.26419155363692 54.03667136817239,57.97526657045819 54.772919605253264,58.7117370335618 55.17912552901544,59.1688565852528 55.559943582629785,59.575185046036495 56.16925246838946,60.032304531137925 57.05782792670652,60.540215028770035 57.94640338514,60.413237408414716 58.606488011428155,59.5497895180888 59.13963328639511,58.5339683094644 59.77433004230261,57.11181832468719 59.97743300430011,56.12139224054408 60.28208744712174,54.623055028991075 60.23131170659326,53.02313521472388 60.30747531738598,52.51522407197626 60.15514809591696,51.397819404432084 59.97743300430011,50.81372142597684 60.05359661509283,50.305810093472246 60.180535966181196,49.49315187052707 60.84062059246935,48.95984485102235 62.16078984492924,48.985240424459334 62.87165021162946,49.13761386286933 64.34414668555837,49.67092086636694 65.15655853319913,50.05185441081994 65.7658674189588,50.02645884192316 66.01974612125196,50.280414525652304 66.2482369535137,50.635952464537695 66.83215796900913,50.96609481720952 67.26375176303554,51.27084158794605 67.97461212973576,51.677170591108734 68.78702397749294,52.28666404352407 69.62482369539794,53.20090410433477 69.90409026807174,53.4802552057954 70.28490832168609,54.21672622830374 70.81805359665304,55.486503637890564 71.02115655853413,56.68009415449342 71.04654442891479,57.188004939613165 71.09732016932685,57.69591568116448 71.09732016932685,58.762528096558526 71.27503526106011,59.956117952708155 71.65585331455804,60.46402845688863 72.62059238366783,61.04812548283371 72.97602256701794,61.25128965231124 73.68688293383457,61.606826932082186 74.39774330053478,61.80999108235119 75.28631875896826,61.9115731548809 76.14950634702109,62.140132811735384 76.80959097319283,62.41948349145241 77.29196050798055,62.470274522696855 78.28208744723815,63.05437135093962 79.29760225676,63.6130726110714 80.08462623425294,64.34954237361671 80.3385049366625,64.57810193643672 81.0493653032463,65.36536258563865 81.22708039509598,65.84787712537218 81.53173483791761,66.40657812246354 82.31875881529413,67.16844303361722 82.64880112838,67.60016643989366 82.97884344158228,67.75253939937102 83.23272214399185,68.00649432305363 83.51198871654924,68.41282217836124 84.22284908336587,68.97152293400723 84.90832157968543,69.5302236371208 85.3653032440925,70.03813332162099 85.28913963329978,69.96194687171374 85.61918194650207,69.27626877857256 86.0,68.97152293400723 85.13681241194718,68.38742668824852 84.09590973204467,67.72714390637702 83.43582510587294,67.16844303361722 82.92806770117022,66.7113240986364 82.5726375177037,66.27960062772036 82.14104372367729,65.4923400998814 81.65867418900598,65.16219855711097 81.32863187603652,64.62889294922934 80.97320169268642,64.27335585068795 80.49083215801511,63.71465465275105 80.05923836387228,63.40990852258983 79.50070521864109,62.72422967248713 78.15514809603337,61.987759708135854 77.31734837801196,61.68301348926616 76.80959097319283,61.53064037390868 75.89562764472794,61.47984933457337 75.23554301843978,61.25128965231124 73.71227080398239,60.84496130642947 72.72214386460837,60.21007321024081 72.1128349788487,59.85453584665083 71.88434414670337,59.09266999576357 72.01128349790815,58.05145317435381 72.26516220031772,57.03563170868438 72.34132581111044,55.46110809239326 71.98589562776033,54.26751732992125 71.4019746122649,53.42946409742581 70.28490832168609,52.566015188232996 69.44710860378109,51.95652176460135 68.30465444305446,51.19465489676804 67.0860366714187,50.43278793070931 65.94358251057565,50.02645884192316 65.56276445707772,49.64552529584034 64.97884344158228,49.28998729735031 63.96332863194402,48.90905370374094 63.15091678430326,48.680493535794085 62.008462623576634,48.24876875002519 61.67842031037435,48.299559902981855 60.28208744712174,48.172582019877154 58.7080394923687,48.172582019877154 58.22566995769739,48.37574663150008 57.8702397744637,48.78207583379117 57.8702397744637,49.21380058059003 58.68265162210446,50.53437019849662 59.13963328639511,51.42321496742079 59.26657263771631,51.677170591108734 59.29196050774772,52.058104006253416 59.647390691097826,53.45485965165426 59.59661495068576,53.988166265568 59.5458392102737,54.85161496716319 59.393511988804676,55.7658546314924 58.911142454249784,57.06102724742959 58.12411847675685,58.25461744653876 57.08321579697076,58.73713256511837 56.29619181959424,58.559363841835875 55.45839210157283,58.203826379118254 54.950634696753696,57.84828889515484 53.681241184822284,57.01023616976454 52.84344146680087,56.476929828262655 52.31029619195033,56.17218332583434 51.751763046719134,56.045205611852 51.09167842043098,55.816645719780354 50.43159379414283,55.61348136389279 50.10155148094054,55.53729472865234 49.77150916797109,55.61348136389279 48.959097320213914,55.38492145517375 48.70521861780435,55.08017489648773 48.17207334283739,54.85161496716319 47.00423131173011,54.34370398154715 46.141043723677285,54.26751732992125 44.61777150921989,54.419890632125316 43.29760225676,54.34370398154715 42.586741890059784,54.26751732992125 41.444287729333155,54.115144023729954 41.088857545983046,54.165935126220575 40.885754583985545,54.419890632125316 40.885754583985545,54.80082387055154 41.11424541613087,55.02938380182604 42.205923836445436,55.05477934918599 42.15514809591696,54.978592706727795 41.13963328639511,55.08017489648773 40.5049365303712,54.978592706727795 39.41325811005663,55.23254817776615 38.65162200294435,55.94362343868124 38.65162200294435,56.502325369394384 38.169252468273044,56.88325847379747 37.306064880103804,57.41656477874494 36.59520451352,57.89907996560214 36.29055007058196,58.25461744653876 35.630465444293804,59.01648340525571 34.81805359676946,59.77834926598007 33.82792665727902,60.99733443942387 32.837799718021415,62.063946260430384 31.898448519175872,63.05437135093962 31.289139633299783,63.66386363215861 30.1212976021925,64.57810193643672 29.05500705225859,65.23838506863103 27.83638928073924,66.02564563014312 26.643159379484132,66.58434661044157 25.779971791198477,67.01607005918049 24.383638928178698,67.57477094628848 23.571227080537938,67.95570333913201 22.65726375184022,68.53979962744052 21.616361072054133,69.7333875161421 20.905500705353916,70.67302036617184 20.651622002827935,71.07934803911485 20.11847672786098,72.39991278422531 20.09308885759674,72.75544939626707 19.966149506391957,73.79666363782599 19.889985895715654,74.91406408447074 19.712270803982392,76.71714163533761 19.788434414658695,77.12346889535547 19.58533145277761,77.63137793133501 19.509167842101306,78.08849602667033 19.052186177810654,79.2566865553672 18.89985895634163,80.0185498202627 18.92524682660587,80.75501755028381 18.493653032463044,81.97399842078448 18.08744710870087,83.26916532253381 18.036671368055977,83.67549213572056 17.605077574029565,84.08181892117136 17.27503526106011,84.38656399209867 17.021156558650546,85.12303118265118 16.7165021157125,85.47856703519938 16.208744711009786,87.00229187760851 15.92947813833598,87.53559548052726 15.599435825133696,88.32285309306462 15.244005641783588,89.31327381302253 14.86318758816924,90.45606674737064 14.660084626288153,90.7862068877439 14.406205923878588,91.14174240309512" stroke="#4DD2FF" stroke-dasharray="none" stroke-linecap="round" stroke-linejoin="round" stroke-width="0.5"><title>2026-07-24 10.5km</title><desc>9223370251998289207</desc></polyline><polyline fill="none" opacity="1" points="114.08244274824392,86.78214852767996 114.0,85.60011647365172 114.2473282442661,84.96786668131244 114.1648854961386,83.95076905921451 114.5770992366597,83.51094301074045 114.6595419846708,82.4388668917527 114.6595419846708,81.50423628345015 114.85190839704592,80.51462725619785 115.73129770997912,79.47003978452994 115.8412213739939,79.25012661097571 115.92366412212141,78.89276768791024 115.9786259541288,78.17804978240747 116.52824427490123,77.68324503206532 117.10534351144452,76.6111679422902 117.70992366410792,75.53909067381755 118.42442748090252,75.07177488543675 119.33129770995583,74.57696989603573 120.76030534342863,73.97220819047652 122.05190839699935,73.25748973799637 122.90381679392885,72.90013048183755 123.50839694647584,72.48779285396449 124.96488549630158,71.66311751879402 125.76183206110727,71.05835553896031 126.66870229016058,70.45359350225772 127.35572519083507,69.79385303353774 128.29007633589208,68.83173139515566 128.83969465643167,68.1994799542008 129.30687022896018,67.70467443522648 130.1312977100024,66.77004168421263 130.40610687015578,66.38519286477822 131.1206106870668,65.28562468197197 132.2748091603862,64.15856709892978 132.6595419847872,63.856185762473615 133.2366412213305,63.49882598273689 133.89618320623413,62.86657401599223 134.69312977103982,62.426746524113696 134.8030534350546,61.73951600751025 135.407633587718,61.27219921411597 136.1221374045126,60.832371612719726 137.11145038169343,60.80488238664111 137.46870229009073,60.832371612719726 138.67786259553395,60.832371612719726 139.28244274808094,60.612457800714765 139.69465648848563,60.69492548110429 140.02442748099566,61.13475309195928 140.46412213740405,61.21722076565493 140.93129770993255,61.189731541177025 141.39847328246105,61.0247961920395 142.08549618313555,60.85986083871103 143.40458015259355,61.162242316582706 144.22900763363577,61.327177662198665 145.32824427483138,61.162242316582706 144.88854961830657,61.35466688606539 146.92213740455918,62.124365105846664 148.0488549618749,62.426746524113696 148.87328244291712,62.81159558118088 150.3572519083973,63.58129362598993 150.769465648802,63.938653401099145 151.2641221374506,64.40597000002163 151.8412213739939,65.01073260681005 152.14351145050023,65.34060309562483 152.3358778625261,65.72545197769068 153.07786259544082,66.2202576493437 153.65496183210053,67.01744448451791 154.25954198476393,67.67718523863005 154.75419847329613,67.89709880828741 155.74351145047694,66.74255248359987 156.29312977101654,65.89038720584358 156.78778625954874,64.90077577347984 157.44732824421953,63.52631519729039 157.80458015273325,62.3442788660177 158.16183206113055,61.13475309195928 158.29923664114904,60.14514092510217 158.27175572514534,59.65033478435362 158.27175572514534,58.57825468140072 158.18931297713425,57.14881426488864 157.91450381674804,56.40660469184513 158.13435114501044,55.44448104311596 158.54656488553155,54.70227127234102 159.64580152672715,54.482357249595225 160.79999999993015,54.674782019952545 162.50381679390557,55.22456704598153 163.27328244282398,55.581927287508734 164.34503816789947,55.884309014771134 164.78473282442428,56.46158318166272 166.1038167938823,57.34123895489029 167.3129770992091,58.275873081496684 167.8076335878577,58.798168563313084 168.6870229007909,60.25509784012684 168.6595419847872,61.35466688606539 168.3022900763899,61.931940559559735 168.3572519083973,62.23432198690716 168.4946564885322,62.83908479864476 168.9068702290533,63.58129362598993 169.2916030534543,64.46094842121238 169.1816793892067,65.23064626791165 169.0992366411956,66.05532242977642 169.84122137411032,66.68757408196689 171.07786259544082,67.2923364736198 171.54503816796932,67.53973925378523 172.28702290088404,68.11701237037778 173.88091603061184,68.55683947197394 174.43053435103502,68.7492638193944 175.30992366408464,68.96917735232273 176.13435114501044,69.13411249700584 177.04122137406375,69.46398277377011 178.30534351151437,70.17870164851774 178.85496183205396,70.64601779280929 179.32213740458246,70.83844207765651 179.78931297711097,71.16831226684735 180.33893129776698,72.07545519957785 180.55877862591296,72.95510883023962 180.83358778629918,73.25748973799637 181.52061068709008,73.86225151069812 182.50992366403807,74.60445906309178 182.89465648855548,75.01679655516637 183.36183206096757,75.31917736586183 184.4610687022796,76.2263197125867 184.9007633588044,76.88605952079524 185.2854961833218,77.07848361873766 185.3129770993255,76.72112457509502 186.0,75.97891726711532 185.1206106870668,75.04428572035977 184.2412213740172,74.30207821875229 183.74656488536857,73.97220819047652 183.38931297708768,73.58735980285564 182.4549618321471,72.68021708360175 182.15267175564077,72.35034697211813 181.57557251909748,71.99298766560969 181.46564885496628,71.6081391593325 180.80610687029548,70.61852860884392 180.77862595429178,70.34363676217617 179.65190839697607,69.68389628213481 178.77251908404287,68.83173139515566 177.89312977099326,68.1994799542008 177.31603053433355,67.59471764808404 176.13435114501044,67.48476085904986 175.72213740460575,67.48476085904986 174.67786259541754,67.56722845096374 173.96335877862293,67.457271661493 172.42442748090252,66.87999848555773 171.4351145037217,66.79753088473808 171.1877862594556,66.38519286477822 170.69312977103982,65.0382218149316 170.94045801530592,64.37848078925163 171.35267175571062,63.25142304669134 171.27022900769953,62.01440822298173 171.27022900769953,60.914839290315285 170.9679389311932,60.00769477870199 170.3908396946499,59.23799630449503 169.1541984733194,58.165916132507846 168.1374045801349,57.368728195899166 167.0106870229356,56.76396486739395 166.4885496183997,56.241669219511095 165.77404580148868,55.664395032741595 164.92213740455918,55.44448104311596 163.96030534349848,54.922185287461616 163.68549618311226,54.70227127234102 163.38320610683877,54.28993247356266 162.42137404577807,54.04252918154816 161.54198473284487,53.82261513613048 160.82748091605026,53.63019034022 160.00305343500804,53.355297764530405 158.87633587792516,53.355297764530405 157.63969465647824,53.30031924802461 156.73282442742493,53.217851472320035 156.21068702288903,53.327808506350266 155.60610687022563,53.46525479623233 155.33129770995583,53.90508290406433 155.35877862607595,54.45486799630453 155.52366412209813,55.0046530412219 155.79847328248434,55.499459541228134 156.29312977101654,56.13171223556856 156.62290076329373,56.54405091557419 156.87022900767624,57.368728195899166 156.89770992367994,58.138426894991426 156.78778625954874,58.74319009354804 156.98015267180745,59.81527016882319 156.89770992367994,61.21722076565493 156.48549618315883,62.481724962213775 155.93587786250282,63.828696549346205 155.00152671756223,64.57090526205138 154.14961832063273,64.68086210111505 153.24274809157941,64.21354552221601 152.5832061067922,63.828696549346205 152.1984732823912,63.63627205425291 151.4290076335892,62.92155245039612 150.8244274809258,62.61917105555767 150.219847328146,62.31678964634193 149.4778625954641,61.98691900196718 149.1206106870668,61.931940559559735 148.65343511442188,61.712026785331545 148.0763358778786,61.60206989539438 147.526717557339,61.0247961920395 146.83969465643167,61.0247961920395 146.53740458004177,61.0247961920395 144.86106870230287,59.787780938408105 144.55877862591296,59.457910163648194 143.76183206110727,58.853147032583365 142.47022900753655,58.49578697377001 141.78320610686205,58.770679328532424 141.06870229006745,59.2105070714897 140.16183206113055,59.485399395547574 139.63969465636183,59.56786709045991 138.84274809155613,59.18301783845527 138.26564885501284,59.375442467367975 137.60610687022563,59.457910163648194 137.19389312982094,59.67782401535078 137.00152671756223,60.09016246686224 137.11145038169343,60.612457800714765 137.38625954196323,60.832371612719726 138.48549618315883,61.0247961920395 138.65038167941384,60.80488238664111 138.01832061063033,60.5299901192775 136.97404580155853,60.47501166435541 135.54503816808574,60.72241470767767 134.83053435117472,61.382156109728385 134.50076335878111,62.28930042669526 134.0610687022563,62.646660273865564 133.12671755731571,63.22393383097369 132.6870229007909,63.52631519729039 131.4229007633403,64.6533728914801 130.5160305344034,65.61549515661318 129.9664122137474,66.38519286477822 129.38931297708768,67.07242288329871 128.977099236683,67.42978246376151 128.50992366403807,68.03454478547792 128.0977099237498,68.55683947197394 126.97099236643407,69.46398277377011 125.81679389323108,70.64601779280929 124.96488549630158,71.36073653600761 123.53587786259595,72.10294437740231 122.65648854954634,72.73519543392467 122.02442748087924,73.03757635195507 121.17251908394974,73.42242477257969 120.34809160314035,73.66982731650933" stroke="#4DD2FF" stroke-dasharray="none" stroke-linecap="round" stroke-linejoin="round" stroke-width="0.5"><title>2026-06-20 10.1km</title><desc>9223370254938036107</desc></polyline><polyline fill="none" opacity="1" points="14.0,169.273956348683 14.451493913657032,169.0348590738722 14.690520103322342,168.76919542439282 14.982663223752752,168.31756719437544 15.062338620307855,167.20177966239862 15.381040206528269,166.77671769290464 15.779417189070955,165.71406264250982 15.991884913179092,164.83737208967796 15.885651051183231,163.9075486412039 16.49649575795047,162.73862753773574 16.416820361395366,161.96820214518812 16.65584655094426,161.4900070259173 16.60272961994633,160.02885504529695 16.576171154389158,160.08198785060085 16.708963482058607,158.56770272168797 16.815197344054468,156.81431948050158 17.45260051637888,156.41582322039176 17.55883437837474,155.75166273015202 17.930652895593084,155.35316640199744 18.355588343692943,154.66243937262334 19.39136849856004,153.59978225448867 20.108447067439556,152.40429277939256 21.037993360310793,151.8463976123021 21.86130579118617,151.36820171488216 23.242345997714438,150.73060712779989 24.118775359587744,150.30554403332644 25.181113980012015,149.80078157089883 26.216894134879112,149.16318682272686 27.09332349675242,148.60529136448167 27.358908151858486,148.3661932956311 28.02286978974007,147.86143067543162 28.84618222049903,147.1972692705458 29.881962375482544,146.32057610727497 30.545924013247713,145.52358221492614 31.52858723711688,144.54062293996685 32.006639616331086,143.77019529114477 32.80339358153287,142.9997675466293 33.14865363331046,142.38873857766157 33.547030615853146,142.09650731037254 33.786056805518456,141.83084250992397 34.582810770953074,141.16668045902043 35.406123201712035,140.44938536401605 35.77794171881396,140.15715400516638 36.070084839477204,140.18372049296158 36.415344891138375,139.46642528410302 36.33566949458327,139.0944944023213 36.99963113234844,138.53659803781193 37.55735890800133,138.1381006038282 38.69937292498071,138.08496761068818 39.044632976758294,138.1381006038282 40.2397639247356,138.08496761068818 41.461453338270076,138.29749958048342 41.939505717367865,138.48346504813526 43.02840280334931,138.3506325718481 43.85171523410827,138.16466710020904 44.568793802987784,138.40376556268893 45.20619697519578,138.53659803781193 46.029509406071156,138.6428640158847 46.507561785168946,138.56316453247564 46.77314644039143,138.48346504813526 46.87938030238729,138.29749958048342 47.62301733670756,139.1210608946567 48.15418664680328,139.3601593201165 48.36665437114425,139.65239071659744 49.50866838800721,139.83835614350392 50.25230542232748,140.18372049296158 50.70379933598451,140.39625239072484 51.872371818404645,141.14011397547438 52.270748801063746,141.5917441797792 53.09406123193912,142.44187153389794 53.412762818159536,142.6544033541577 54.34230911091436,143.66392940102378 54.475101438583806,143.98272706591524 55.032829214353114,144.35465765415574 56.30763555888552,144.4077905935701 57.210623386199586,143.29199877136853 57.76835116185248,142.22933970630402 58.03393581695855,141.8042760292301 58.5651051272871,140.36968590389006 58.80413131683599,139.1210608946567 59.2821836960502,137.6599036490952 59.41497602360323,137.31453915889142 59.20250829949509,135.90651449913275 59.255625230493024,135.34861784716486 59.069715971825644,134.89698718729778 59.20250829949509,134.3390904443222 58.936923644389026,133.56866152587463 59.09627443749923,132.98419814443332 59.44153448904399,132.29346862240345 60.68978236813564,131.97467035538284 61.83179638511501,132.18720253524953 62.46919955720659,132.42630122884293 63.45186278130859,132.8247990308446 64.62043526372872,133.09046421787934 65.01881224638782,133.462395460665 65.8421246772632,134.15312485207687 67.17004795267712,135.0298197377124 67.96680191811174,135.8533814868424 68.84323127986863,137.02230765210697 69.40095905575436,138.0318346170534 69.4275175210787,138.29749958048342 69.2681667280849,139.28045984604978 69.79933603829704,140.21028698052396 69.95868683140725,141.24637990890187 69.95868683140725,141.9105419512489 69.82589450385422,142.57470392237883 69.95868683140725,143.13259992314852 70.72888233116828,143.8498947075568 71.68498708959669,144.30152471433394 71.63187015848234,144.24839177407557 72.82700110657606,145.2047846293135 73.25193655479234,145.52358221492614 74.18148284754716,145.57671514427057 75.05791220953688,145.8689462474722 75.85466617485508,146.24087672264432 76.59830320917536,146.32057610727497 77.63408336404245,146.85190531192347 78.5636296570301,147.11756989723654 79.20103282912169,147.72859840010642 79.9181113980012,148.18022812448908 80.50239763921127,149.11005392417428 80.84765769087244,149.8273480172502 81.37882700108457,150.03987958451035 81.8303209147416,150.65090779977618 82.28181482839864,151.02283798830467 82.86610106972512,151.34163527505007 83.90188122459222,152.37772634401335 84.77831058646552,153.17471935634967 85.07045370712876,153.78574726326042 85.38915529323276,153.54664939380018 85.41571375867352,153.49351653267513 86.0,152.80278929663473 85.49538915522862,152.24489416534198 84.88454444846138,151.6604325454682 84.00811508670449,150.96970510558458 83.31759498338215,150.43837625344167 82.78642567317002,149.74764867773047 81.98967170785181,149.11005392417428 81.67097012174781,149.00378812555573 81.53817779419478,148.55215846112696 81.08668388042133,147.86143067543162 80.79454075975809,147.22383572813123 79.9181113980012,146.45340841269353 79.46661748434417,146.05491148785222 78.90888970857486,145.17821816308424 78.43083732947707,144.96568642932107 78.16525267425459,144.70002175186528 77.34194024349563,144.3280911843467 76.12025082996115,144.54062293996685 75.53596458875109,144.67345528354053 74.0752489855513,144.4077905935701 72.85355957201682,143.9561605945055 72.40206565835979,143.610796455323 71.89745481370483,143.37169819386327 71.26005164138041,142.46843801182695 71.33972703793552,141.85740899047232 71.76466248626821,140.95414858765434 71.92401327914558,140.31655292990035 71.87089634814765,139.67895720648812 71.76466248626821,138.43033205790562 71.55219476204365,137.60677065188065 70.94135005527642,136.6503766234091 70.14459608995821,135.90651449913275 69.45407598663587,135.29548483007238 68.68388048687484,134.79072114490555 67.83400959055871,134.2328243922384 67.30284028034657,133.75462713566958 66.08115086692851,132.95763162578805 64.96569531527348,132.37316818657564 64.59387679817155,132.0278034011135 63.98303209140431,131.7621381683275 62.57543341931887,131.33707377209794 61.38030247145798,130.93857587411185 60.4773146440275,130.88544281909708 59.91958686825819,130.80574323574547 58.3791958685033,130.75261017962475 57.13094798964448,130.85887629142962 56.65289561043028,131.01827545577544 56.387310955440626,132.0278034011135 56.81224640342407,133.06389769975794 57.582441903301515,134.12655833846657 57.66211729985662,134.97668671791325 57.76835116185248,135.34861784716486 58.06049428251572,136.06591353329713 57.98081888607703,136.78320913622156 58.007377351401374,138.0318346170534 57.79490962740965,139.38672581134597 57.39653264475055,140.31655292990035 56.99815566209145,140.92758210323518 56.281077093211934,141.5917441797792 55.27185540390201,141.8042760292301 54.92659535224084,141.67144362418912 54.10328292136546,141.03384804027155 53.01438583538402,140.58221779530868 52.509774990729056,140.05088805311243 51.65990409429651,139.62582422656124 50.995942456647754,139.3601593201165 50.54444854299072,139.17419387886184 49.322759129456244,138.74912999221124 48.39321283646859,138.48346504813526 47.5167834747117,138.40376556268893 46.82626337138936,137.89900213107467 46.348210992175154,137.31453915889142 45.76392475096509,136.73007613144 44.675027664983645,135.98621401676792 43.9845075616613,135.6939824471774 43.47989671700634,135.72054895406472 42.84249354468193,136.06591353329713 42.550350424135104,136.4909776043787 42.072298045037314,136.75664263393264 41.24898561404552,136.80977563845227 39.78827001096215,136.86290864256443 39.15086683863774,136.86290864256443 38.69937292498071,137.42080515797716 38.83216525253374,137.84586913589737 39.257100700750016,138.11153410727275 39.97417926962953,138.24436658871127 39.97417926962953,137.97870162301115 39.23054223519284,137.81930263814866 38.247879011323676,137.79273614025442 37.31833271845244,138.0318346170534 37.02618959790561,138.32406607622397 36.415344891138375,138.82882947308826 36.3887864255812,139.54612475578324 35.56547399482224,139.89148912156816 34.37034304672852,140.8478826492501 33.60014754696749,141.5917441797792 32.670601254096255,142.49500448963954 32.13943194388412,143.05290049753967 31.820730357663706,143.610796455323 31.156768720014952,144.27495824429207 30.147547030472197,145.39074988960056 29.244559203158133,146.32057610727497 28.155662117293105,147.17070281290216 27.465142013970762,147.78173131059157 27.09332349675242,148.02082940202672 25.791958686779253,148.95065522554796 25.15455551445484,149.3491519644158 23.932866100920364,149.90704735583859 22.790852084057406,150.43837625344167 22.233124308288097,150.59777491391287 21.30357801541686,151.04940442950465 20.374031722545624,151.44790103370906 19.81630394689273,151.8729640499514 18.62117299879901,153.0950200596999" stroke="#4DD2FF" stroke-dasharray="none" stroke-linecap="round" stroke-linejoin="round" stroke-width="0.5"><title>2026-06-18 10.1km</title><desc>9223370255108266507</desc></polyline><polyline fill="none" opacity="1" points="121.9021032503806,155.43951150073553 122.39770554495044,155.21917763495003 123.82944550656248,154.3929255710682 124.2975143402582,154.17259166945587 125.31625238992274,153.4289646957768 126.637858508504,152.46500367610133 127.54646271502133,151.66629300743807 128.12466539186426,150.97774924797704 128.31739961740095,150.7023317235289 128.86806883348618,150.2616636599123 129.96940726565663,149.13245160895167 130.63021032500546,148.00323935959022 131.1808795410907,147.535029344348 131.3736137666274,147.31469520769315 131.8692160610808,146.54352566995658 132.53001912031323,145.99269022914814 133.49369024846237,145.3316876378376 133.9892925429158,144.8083938715281 134.76022944541182,144.36772540354286 135.31089866149705,143.18342874597874 136.3021032504039,142.85292731417576 137.43097514333203,142.88046910086996 138.28451242821757,142.82538552745245 139.05544933059718,142.82538552745245 139.82638623320963,143.23851231636945 140.9827915870119,143.29359588614898 141.7537284893915,143.07326160397497 142.02906309743412,142.96309446007945 142.33193116635084,142.96309446007945 143.92887189274188,143.4588465928391 144.97514340339694,143.43130480873515 145.58087954099756,143.23851231636945 145.88374760979787,143.65163907859824 146.5996175906621,143.89951512319385 147.26042065001093,144.28510006243596 148.6095602294663,144.58805964127532 149.49063097510953,145.05626987139112 150.26156787748914,145.44185474110418 150.72963671130128,145.93760668250616 151.2252390056383,146.59860921141808 152.023709368892,147.50748757764813 152.76711281063035,148.22357347264187 153.45544933073688,148.85703400542843 154.30898661562242,149.29770216540783 154.96978967485484,149.8209955660277 155.43785850855056,149.46295271755662 156.1261950286571,149.02228456901503 156.4841300189728,148.05832288850797 156.5667304013623,147.59011287731119 157.17246653907932,146.2956497274863 157.75066921592224,144.61560142043163 158.02600382396486,143.62409729528008 158.21873804961797,142.54996765343822 158.27380497124977,140.95254375092918 158.08107074571308,139.24495224276325 157.97093690233305,137.97802921693074 158.13613766722847,137.3170257996826 158.7418738049455,136.46322961818078 159.51281070732512,136.46322961818078 160.33881453145295,136.62848050089087 161.2198852772126,136.71110594065976 162.81682600383647,137.34456761012552 163.7529636711115,137.7026111347659 164.41376673034392,137.4822766604193 164.93690248555504,137.50981847007643 164.82676864240784,138.3085308999871 165.68030592729338,139.02461782144383 166.91931166336872,139.79578826285433 167.38738049718086,140.31908243804355 167.74531548761297,140.70466759250849 168.15831739956047,141.28304528066656 168.681453154888,142.19192439955077 168.9017208412988,143.0181780322455 168.681453154888,143.4588465928391 168.3235181644559,143.92705690534785 168.5988527724985,144.58805964127532 169.011854684446,145.24906230915803 169.36978967487812,146.7914016029099 169.1495219884673,147.25961167237256 169.50745697889943,148.08586465290864 170.19579349900596,148.6917834377091 171.1869980879128,149.38032744204975 171.5449330783449,149.71082853787811 171.98546845128294,149.98624610481784 172.70133843203075,150.2892054147378 174.07801147224382,150.61970646391273 175.28948374756146,150.89512399185332 176.0879541109316,151.14299975696485 177.18929254298564,151.52858426142484 178.07036328862887,151.96925223825383 178.9789674951462,152.68533763612504 179.61223709362093,153.18108901879168 180.27304015285335,153.89717428182485 180.52084130013827,154.44800904527074 180.7686424474232,154.83359335170826 181.2917782026343,155.27426110210945 181.64971319318283,155.77001228526933 181.95258126198314,156.15559651245712 182.69598470360506,156.76151453715283 183.7422562141437,157.61530802052584 184.56826003827155,158.3864762308367 185.20152963674627,159.15764434888843 185.47686424478889,158.93731061025755 185.6420650095679,158.35893451067386 185.9724665391259,157.89072524910443 185.6420650095679,157.45005767775 184.54072657751385,156.73397280994686 184.10019120457582,156.29330515943002 183.3567877629539,155.68738709072932 183.0539196941536,155.3293445688323 182.64091778197326,154.69588467347785 181.98011472274084,154.1175081928086 181.5946462714346,154.0073412382917 181.2091778202448,153.07092204820947 180.41070745699108,152.05187748052413 179.66730401525274,151.44595901237335 179.25430210318882,151.00529099977575 178.868833651999,150.67478997047874 177.79502868070267,150.2892054147378 177.51969407254364,150.0137878608075 176.63862332690042,149.68328678054968 175.23441682604607,149.68328678054968 174.68374760984443,149.57311975001357 174.35334608028643,149.43541095918044 173.1143403442111,149.15999336863752 172.15066921606194,148.80195048335008 171.1594646270387,148.22357347264187 170.9942638622597,147.9481558301777 170.93919694062788,146.59860921141808 171.1869980879128,145.7172724910488 171.4072657743236,145.1113534256292 171.35219885280821,144.69822675728938 171.3797323135659,143.32113767086412 171.131931166281,142.30209155668854 170.33346080302726,141.09025272374856 169.50745697889943,140.31908243804355 168.4611854684772,139.5754538604524 167.71778202673886,139.07970142748673 166.50630975153763,138.22590548085282 165.9281070745783,137.7576947521302 164.85430210328195,137.4271930406685 164.331166347838,137.20685855686315 164.00076481828,137.17931674583815 163.5602294454584,136.76618956652237 163.45009560219478,136.46322961818078 162.43135755253024,135.9950187606155 161.68795411090832,135.77468422759557 160.72428298264276,135.4166405952128 159.56787762895692,135.4166405952128 158.7969407265773,135.2789315005066 157.58546845114324,135.2789315005066 156.4565965582151,135.30647331970977 155.93346080288757,135.49926605061046 155.35525812616106,135.9950187606155 155.32772466528695,136.7937313793518 155.9059273422463,137.6199857077445 156.6217973231105,138.77674158845912 156.84206500952132,139.24495224276325 156.8145315486472,139.63053746175137 157.06233269593213,140.70466759250849 157.08986615668982,141.03516913496424 157.08986615668982,141.39321245346218 157.03479923505802,142.49488407719764 156.97973231354263,143.7067226449144 156.2363288718043,145.38677118974738 156.0711281070253,145.7172724910488 155.16252390050795,146.5710674407892 154.41912045888603,146.65369275247212 153.42791586986277,146.24056618337636 152.35411089856643,145.57956361756078 151.9411089865025,145.1939787561132 151.14263862313237,144.72576853606733 150.64703632879537,144.50543430296239 149.82103250466753,144.1473911581852 149.3254302102141,143.87197334089433 148.802294455003,143.7342644278542 148.16902485652827,143.48638837688486 147.61835564044304,143.26605410128832 146.7372848947998,143.26605410128832 146.21414913947228,143.1283451752388 145.44321223697625,142.88046910086996 144.80994263850152,141.99913186999038 144.34187380492222,141.39321245346218 143.8187380497111,141.06271092940005 142.96520076470915,140.9250019560568 142.11166347982362,140.78729297974496 141.2856596558122,141.14533631200902 140.40458891005255,141.4482960391615 139.99158699798863,141.39321245346218 139.3858508602716,141.338128867239 138.6975143402815,141.31058707405464 138.03671128104907,141.50337962433696 137.76137667300645,141.36567066042335 137.34837476082612,141.58600500127068 137.0179732311517,142.21946618903894 137.26577437843662,142.74276016649674 138.20191204571165,142.90801088736043 138.66998087940738,142.79784374061273 138.00917782029137,142.57750944135478 137.51357552572154,142.30209155668854 136.3847036327934,142.60505122918403 135.61376673029736,142.79784374061273 135.31089866149705,143.15588696068153 134.67762906302232,144.17493293932057 134.2921606117161,144.61560142043163 133.76902485650498,144.69822675728938 133.10822179727256,145.3592294139089 132.25468451227061,145.79989781370386 131.7040152963018,146.3782750427199 131.20841300184838,147.0117357574636 130.79541108978447,147.47994581086095 130.02447418728843,148.52653286562418 129.30860420654062,149.43541095918044 129.0057361376239,149.68328678054968 128.45506692142226,150.17903839462087 127.65659655816853,150.92266574403038 127.32619502861053,151.19808325901977 126.803059273283,151.77646000211826 126.19732313568238,152.32729494717205 125.67418738047127,152.68533763612504 124.51778202666901,153.45650643706904 123.82944550656248,154.0348829771392 122.28757170157041,154.97130202694098 120.96596558310557,155.63230362709146 119.64435946452431,156.0454295927775 119.0661567876814,156.34838861742173 117.93728489475325,156.87168144457974 117.27648183552083,157.45005767775 116.50554493290838,158.1110590235039 115.84474187367596,159.10256091490737 115.65200764802285,159.43306151145953 115.26653919683304,159.9012706609792 114.79847036313731,160.81014714809135 114.4405353727052,161.80164862429956 114.24780114705209,163.37152564979624 114.22026768629439,164.19777656238875" stroke="#4DD2FF" stroke-dasharray="none" stroke-linecap="round" stroke-linejoin="round" stroke-width="0.5"><title>2026-06-16 10.1km</title><desc>9223370255286294807</desc></polyline><polyline fill="none" opacity="1" points="23.141108986688778,234.73719773092307 24.104780114954337,234.10373779764632 25.371319311787374,233.19486039321055 26.58279158710502,232.3686080959451 27.766730401664972,231.21185470139608 28.923135755350813,229.97247583346325 30.079541109036654,228.73309672661708 30.437476099585183,227.96192738387617 31.15334608044941,227.24584148285794 31.81414913968183,226.69500612001866 32.750286806956865,225.73104412137764 33.190822179894894,225.53825170430355 33.9342256214004,224.60183131039958 34.45736137672793,224.5192059749388 34.787762906285934,224.05099572072504 34.760229445644654,223.5001600837859 35.58623326965608,222.78407368506305 37.15564053540584,222.61882296635304 37.98164435965009,222.61882296635304 39.27571701724082,222.75653189895093 39.964053537347354,223.03194975524093 41.533460803097114,222.9493243995821 42.056596558424644,222.78407368506305 42.99273422569968,223.08703332504956 43.736137667438015,223.1145751097647 44.75487571710255,223.14211689442163 45.63594646274578,223.5001600837859 46.0489483748097,223.63786899743718 46.73728489491623,223.7755779081781 47.67342256219126,224.18870462253108 48.03135755273979,224.29887174186297 49.10516252391972,224.79462375558796 50.28910133847967,225.2628339555522 50.75717017217539,225.78612766804872 51.0600382409757,225.951378305268 51.30783938826062,226.4471301913436 51.74837476096582,226.72254788927967 52.05124282988254,227.08059087896254 52.38164435944054,227.60388444337877 53.5380497132428,228.6229296833626 54.556787762907334,229.22884839805192 55.79579349909909,229.28393191474606 56.20879541116301,228.73309672661708 56.759464627248235,227.05304911124404 57.47533460799605,225.51070992994937 57.94340344180819,223.9959121591528 58.3013384322403,222.61882296635304 58.27380497136619,222.0679872065375 58.3013384322403,220.3328542537347 58.3839388146298,220.00235268572578 58.13613766734488,218.76297165383585 58.05353728495538,218.2672191739548 57.97093690256588,217.88163388540852 58.10860420647077,217.303255908977 58.411472275387496,216.5871688182524 59.20994263864122,216.22912524288404 60.393881453201175,216.44945975317387 61.93575525819324,216.7799615044205 63.395028680795804,217.41342314664507 64.30363288719673,217.6062158079003 64.68910133850295,218.0744265326066 65.65277246653568,218.84559706342407 66.75411089870613,219.42397490065196 67.24971319315955,219.864643694018 68.02065009565558,220.77352298467304 68.46118546836078,221.62731856454047 68.90172084141523,222.42603045576834 68.95678776293062,222.89424082858022 68.6263862332562,223.80311968992464 68.84665391978342,224.54674775348394 69.42485659662634,225.7585858948005 69.47992351825815,226.36450487966067 69.47992351825815,227.05304911124404 69.89292543020565,227.98946914778207 70.66386233270168,228.8157220078574 71.40726577444002,229.28393191474606 71.65506692160852,229.5318077339325 72.72887189290486,230.05510109875468 74.29827915877104,230.5508526682679 75.45468451234046,230.88135369331576 76.11548757180572,230.88135369331576 76.61108986625914,231.0466041994514 77.65736137668137,231.65252268573386 78.4007648184197,232.06564889362198 78.97896749526262,232.45123333044467 79.80497131939046,233.02960994222667 80.49330783938058,233.96602910829824 80.79617590818089,234.54440558393253 81.154110898613,234.92998987215105 81.40191204589792,235.2054072067549 82.47571701731067,236.30707642729976 83.24665391969029,236.99561959441053 83.96252390067093,237.73924613223062 85.06386233272497,238.73074804909993 85.44933078391477,238.84091491933214 85.36673040152527,238.78583148444886 85.72466539195739,238.01466334666475 86.0,237.71170441017603 85.58699808793608,237.13332821903168 84.18279158696532,236.19690951376106 83.24665391969029,235.31557413734845 83.05391969415359,235.09524027438601 82.31051625241525,234.07619606005028 81.37437858514022,233.11223516825703 80.68604206503369,232.2584411149437 79.86003824090585,231.32202170026721 79.19923518167343,230.82627019027132 78.51089866168331,230.24789338035043 77.73996175907087,229.64197476170375 76.66615678777453,229.22884839805192 76.0879541109316,229.0911396042793 75.48221797333099,229.28393191474606 74.49101338430773,229.20130663953023 73.3070745698642,229.00851432656054 72.67380497138947,228.76063848714693 71.43479923519772,228.0445526750409 70.9942638623761,226.69500612001866 71.1594646271551,225.92383653268917 71.37973231356591,224.9874161949847 71.40726577444002,223.47261830067146 71.24206500966102,222.28832151606912 70.33346080314368,220.74598118980066 69.47992351825815,220.05743628158234 68.9292543020565,219.56168390181847 68.65391969413031,219.34134949857253 68.18585086043458,219.03838968166383 67.27724665391725,218.51509541875566 66.2034416826209,217.66129942433327 65.6252390058944,217.27571409931988 64.57896749523934,216.94521237362642 64.35869980894495,216.50454337956035 63.89063097513281,216.50454337956035 63.5877629063325,216.14649979953538 62.431357552530244,215.67828893396654 61.082217973307706,215.37532894389005 60.06347992352676,215.127452577668 58.7418738049455,215.07236893943627 58.411472275387496,215.09991075861035 56.649330783984624,214.96220166154671 55.9334608031204,215.127452577668 55.41032504790928,215.70583075052127 55.38279158703517,216.47700156643987 56.263862332794815,217.77146665583132 56.704397705500014,218.5977208315453 56.89713193126954,219.17609869109583 56.649330783984624,219.5892257017549 57.144933078438044,220.3328542537347 57.11739961768035,220.6908975999395 57.06233269616496,221.04894092609175 56.95219885278493,221.93027825915487 56.97973231354263,223.08703332504956 56.81453154888004,223.58278543237248 56.649330783984624,224.29887174186297 56.346462715184316,224.87724908746895 55.98852772463579,225.48316815547878 55.24512428313028,226.17171248159138 54.72198852780275,226.36450487966067 54.03365200769622,226.30942133793724 53.262715105200186,225.896294760023 52.84971319313627,225.70350234783837 51.528107074671425,224.71199842263013 50.67456978978589,224.29887174186297 50.013766730437055,223.94082859705668 49.29789674957283,223.58278543237248 48.4168260039296,223.30736759974388 48.14149139577057,223.16965867896215 47.59082217980176,223.1145751097647 46.84741873817984,223.08703332504956 46.32428298285231,222.86669904287555 45.63594646274578,222.59128117951332 44.94760994275566,221.65486035557115 44.56214149144944,221.40698423219146 43.626003824174404,220.9387737509096 42.249330784077756,220.71843939492828 41.12045889114961,220.9938573387044 40.70745697908569,221.13156630613958 40.23938814538997,220.9938573387044 39.468451242893934,220.80106477931258 38.69751434051432,220.9938573387044 37.954110898659565,221.13156630613958 37.70630975160748,221.07648271956714 37.10057361389045,221.98536183842225 37.32084130018484,222.53619760539732 37.899043977144174,222.61882296635304 38.6149139580084,222.64636475307634 38.50478011474479,222.31586330427672 38.03671128116548,222.28832151606912 37.430975143564865,221.87519467942184 36.522370937047526,222.2332379394211 35.55869980889838,222.59128117951332 34.897896749549545,223.27982581575634 34.760229445644654,223.96837037819205 34.04435946478043,224.464122417412 33.658891013474204,224.57428953194176 32.44741873804014,225.51070992994937 31.59388145315461,226.5572972719092 31.0432122371858,226.99796557542868 30.079541109036654,228.20980325419805 29.55640535382554,228.76063848714693 29.226003824267536,229.06359784511733 28.592734225676395,229.69705827478901 27.931931166443974,230.5508526682679 27.463862332864664,231.01906244878774 26.692925430252217,231.8453149193956 25.839388145366684,232.31352460567723 25.48145315493457,232.5614003080991 24.875717017333955,233.16731865162728 24.269980879616924,233.3876525806554 23.141108986688778,234.26898822109797 21.95717017224524,234.84736466954928 21.1586998088751,235.2329489395779 19.61682600399945,235.9214922215906 18.074952199007384,236.6100354299415 16.69827915879432,237.6841626879468 15.789674952276982,238.4828725841944 15.349139579455368,239.39174924223335 15.10133843217045,239.77733324025758 14.660803059348837,240.57604287707363 14.495602294569835,241.01671022048686 14.275334608159028,241.92558652127627 14.247801147284918,242.64167078922037 14.192734225769527,243.79842213107622 14.02753346087411,244.59713126980932" stroke="#4DD2FF" stroke-dasharray="none" stroke-linecap="round" stroke-linejoin="round" stroke-width="0.5"><title>2026-06-11 10.2km</title><desc>9223370255717407907</desc></polyline></svg>