<?xml version="1.0" encoding="utf-8" ?>
<svg baseProfile="full" height="300mm" version="1.1" viewBox="0,0,200,300" width="200mm" xmlns="http://www.w3.org/2000/svg" xmlns:ev="http://www.w3.org/2001/xml-events" xmlns:xlink="http://www.w3.org/1999/xlink"><defs /><rect fill="#222222" height="300" width="200" x="0" y="0" /><text fill="#FFFFFF" style="font-size:12px; font-family:Arial; font-weight:bold;" x="10" y="20">Over 10km Runs</text><text fill="#FFFFFF" style="font-size:4px; font-family:Arial" x="10" y="280">Runner</text><text fill="#FFFFFF" style="font-size:9px; font-family:Arial" x="10" y="290">Yanfu</text><text fill="#FFFFFF" style="font-size:4px; font-family:Arial" x="65" y="280">SPECIAL TRACKS</text><rect fill="yellow" height="2.6" width="2.6" x="65" y="283" /><text fill="#FFFFFF" style="font-size:3px; font-family:Arial" x="70" y="285.5">Over 20.0 km</text><rect fill="red" height="2.6" width="2.6" x="65" y="287" /><text fill="#FFFFFF" style="font-size:3px; font-family:Arial" x="70" y="289.5">Over 40.0 km</text><text fill="#FFFFFF" style="font-size:4px; font-family:Arial" x="120" y="280">STATISTICS</text><text fill="#FFFFFF" style="font-size:3px; font-family:Arial" x="120" y="285">Number: 4</text><text fill="#FFFFFF" style="font-size:3px; font-family:Arial" x="120" y="290">Weekly: 2.0</text><text fill="#FFFFFF" style="font-size:3px; font-family:Arial" x="141" y="285">Total: 40.5 km</text><text fill="#FFFFFF" style="font-size:3px; font-family:Arial" x="141" y="290">Avg: 10.1 km</text><text fill="#FFFFFF" style="font-size:3px; font-family:Arial" x="167" y="285">Min: 10.1 km</text><text fill="#FFFFFF" style="font-size:3px; font-family:Arial" x="167" y="290">Max: 10.2 km</text><polyline fill="none" opacity="1" points="14.592115238774568,94.7953768185107 14.5,93.93537828169065 14.899166034767404,93.19823659717804 15.236921910545789,92.30752362764906 15.114101592102088,91.10966808110243 15.236921910545789,89.69681256497279 15.298332069767639,89.38967002480058 15.636087945429608,88.8060991623206 15.82031842309516,86.99395776144229 15.881728582200594,86.5946723066736 16.31159969663713,85.08967308560386 17.10993176640477,84.47538759867894 17.202047005295753,84.16824483557139 17.355572403408587,83.4311021505273 17.44768764206674,82.81681652192492 18.15390447305981,82.26395941135706 18.82941622438375,80.60538782423828 19.566338134929538,79.83753047831124 20.456785443471745,79.25395884044701 21.684988627792336,78.85467295569833 23.34306292643305,77.99467251310125 24.816906747524627,77.25752919452498 25.55382865818683,76.88895750691881 26.567096285056323,76.3360999400029 27.549658832489513,75.69109939131886 28.532221379806288,74.98467015253846 29.29984837002121,74.30895516328746 30.58946171333082,73.11109661700903 31.29567854432389,72.40466712403577 31.90978013642598,71.69823756144615 32.83093252463732,70.77680759271607 33.168688400415704,70.10109220689628 33.56785443518311,69.48680543730734 34.67323730094358,68.04323132144054 35.59438968915492,67.2753726306255 36.085670962696895,67.02965783223044 36.8225928733591,66.35394209297374 37.74374526145402,65.92394113482442 38.23502653534524,64.91036734555382 38.695602729334496,64.51108066184679 39.094768764218315,63.958222140034195 40.50720242608804,63.65107849834021 41.05989385896828,63.65107849834021 42.25739196361974,63.65107849834021 42.99431387416553,63.62036413338501 43.485595147823915,63.436077941267285 43.946171341929585,63.83536468492821 44.37604245636612,64.11179395590443 44.77520849124994,64.11179395590443 45.48142532224301,64.01965086674318 45.94200151634868,63.958222140034195 47.139499620883726,63.804650320787914 48.275587566313334,64.11179395590443 49.53449583007023,64.20393704390153 49.99507202429231,64.29608013067627 51.16186504927464,64.72608118655626 52.267247915035114,65.37108272203477 53.58756633813027,65.6475119338138 54.84647460200358,66.26179903268348 56.01326762698591,67.02965783223044 56.41243366186973,67.39823002670892 56.842304776306264,67.79751654935535 57.425701288855635,68.56537518417463 57.79416224407032,69.05680466722697 58.13191811973229,69.24109071475687 59.14518574683461,70.22394955455093 59.88210765726399,71.08395092876162 60.31197877181694,71.57538023911184 61.018195602693595,71.11466526170261 62.1542835481232,69.57894845609553 62.399924185010605,69.1182333502802 63.259666414000094,67.67465916014044 63.87376800610218,65.95465548982611 64.11940864287317,64.81822426663712 64.51857467775699,63.62036413338501 64.57998483697884,62.76036186283454 64.57998483697884,61.37821513978997 64.57998483697884,60.54892697784817 64.3957543594297,59.38178051280556 64.11940864287317,58.52177773241419 64.45716451853514,57.29320215241751 65.22479150875006,56.61748549330514 66.97498104628175,56.77105746691814 68.32600454892963,57.10891579714371 69.61561789223924,57.569631676364224 70.87452615622897,57.99963313667104 71.58074298710562,58.24534824537113 72.47119029576425,59.38178051280556 74.09855951473583,60.33392632758478 74.71266110683791,61.00964263523929 75.75663381349295,62.23821757663973 76.27862016670406,63.86607904883567 75.91015921160579,64.57250938389916 75.72592873394024,65.09465349972015 75.81804397259839,65.61679757741513 76.34003032592591,66.32322773966007 76.64708112203516,67.1832295822096 76.80060652003158,68.25823174015386 76.70849128125701,69.08751900889911 76.76990144047886,69.76323449017946 78.27445034112316,70.7153789238655 78.64291129645426,70.89966492872918 79.47194844589103,71.42180858331267 80.97649734641891,72.12823817308526 82.35822592885233,72.46609577833442 83.15655799850356,72.61966741184006 83.77065959060565,72.80395336775109 84.84533737669699,73.0496679682401 86.10424564068671,73.78681171900826 87.24033358611632,74.43181243888102 87.7316148596583,74.70824130100664 88.37642153142951,75.19967036298476 88.71417740709148,75.38395625259727 89.32827899919357,77.1346719674766 89.45109931763727,77.44181503134314 89.91167551174294,77.59538655832876 90.83282789995428,78.45538704871433 91.81539044738747,79.1925302442396 92.3680818801513,79.80681618273957 93.13570887036622,80.51324494706932 94.08756633813027,81.21967364184093 94.57884761178866,81.98753084003692 94.7323730099015,81.68038797064219 94.8551933283452,81.15824506245553 94.82448824855965,79.92967336415313 94.14897649735212,79.3461017337977 93.16641394991893,78.54752995230956 92.85936315380968,78.20967263338389 92.06103108415846,77.71824377751909 91.38551933283452,76.85824319877429 90.67930250184145,76.3360999400029 90.43366186507046,76.12109976354986 89.88097043219022,74.95395583624486 89.72744503407739,74.46252675738651 88.8369977256516,73.81752604030771 88.00796057609841,73.11109661700903 87.14821834722534,72.31252414151095 86.16565579979215,71.51395157724619 85.21379833202809,71.08395092876162 84.26194086426403,71.11466526170261 83.52501895371825,71.29895125626354 82.48104624717962,71.05323659576243 81.06861258530989,70.80752192687942 79.963229719433,70.40823557198746 79.0727824108908,70.28537822753424 78.58150113723241,69.1182333502802 78.39727065956686,68.04323132144054 78.85784685367253,67.0603721824591 79.1956027293345,65.95465548982611 79.13419257011265,64.44965193938697 78.91925701289438,63.19036301097367 78.15163002279587,62.11536009196425 77.47611827147193,61.31678639043821 76.00227445026394,60.21106881019659 74.92759666405618,59.62749557389179 74.00644427596126,58.85963597998489 73.51516300230287,58.4910633455147 72.53260045486968,57.784632409748156 71.15087187266909,57.32391654443927 70.72100075811613,57.04748701112112 70.44465504179243,56.556056702975184 69.67702805157751,56.21819834661437 68.7865807430353,55.94176877033897 67.98824867326766,55.818911177513655 67.22062168316916,55.51176718604984 65.62395754363388,55.38890958583215 64.21152388176415,55.3274807849084 63.628127369331196,55.23533758253325 62.36921910534147,55.204623181489296 61.81652767234482,55.38890958583215 61.355951478355564,55.72676798142493 61.202426080359146,56.31034153624205 61.294541319133714,56.80177186126821 61.69370735413395,57.53891728533199 61.939347990904935,58.12249069212703 62.399924185010605,58.675349665107206 62.89120545866899,59.62749557389179 62.76838514022529,60.45678384276107 62.79909021977801,60.9482138826279 63.04473085666541,62.1460744633805 62.95261561789084,63.52822103793733 62.921910538338125,64.66465246595908 62.215693707345054,66.50751385756303 61.17172100080643,67.64394481253112 60.49620924948249,68.07394566736184 59.05307050794363,67.58251611678861 58.59249431383796,67.55180176883005 57.97839272173587,67.0603721824591 57.36429112951737,66.29251338622998 56.53525398031343,65.83179806894623 56.043972706538625,65.55536886438495 55.337755875545554,65.18679657502798 54.47801364667248,65.00251042318996 54.14025777101051,64.81822426663712 53.34192570124287,64.63393810536945 52.81993934791535,64.32679449260468 52.3593631539261,63.804650320787914 51.53032600460574,64.01965086674318 50.05648218351416,62.79107623134041 49.28885519329924,62.39178942947183 48.981804397306405,61.961788233194966 47.69219105388038,61.255357640446164 46.64821834722534,61.101785763166845 45.48142532224301,61.6853588790982 45.11296436691191,62.053931348840706 43.91546626237687,62.299646318133455 43.45489006815478,62.053931348840706 42.503032600390725,61.869645116326865 41.8275208491832,62.1460744633805 41.213419257081114,62.23821757663973 40.81425322208088,62.637504387123045 40.75284306285903,63.19036301097367 40.99848369974643,63.5896497683716 41.8275208491832,63.74322159221629 42.59514783928171,63.86607904883567 42.34950720251072,63.49750667245826 41.64329037151765,63.40536357543897 40.015921152429655,63.34393484343309 38.910538286552764,63.62036413338501 38.05079605767969,64.60322374472162 37.65163002279587,65.6475119338138 37.00682335102465,65.7396550020203 36.33131159970071,66.56894256238593 35.0724033358274,67.30608697980642 33.90561031072866,68.59608952782582 33.04586808185559,69.36394807707984 32.4317664897535,70.31609256385127 31.90978013642598,70.93037926236866 31.44920394232031,71.36037991999183 30.92721758899279,72.12823817308526 30.006065200897865,72.95752499398077 29.054207733017392,74.155383565987 28.040940106031485,75.01538446871564 26.382865807390772,76.02895682881353 25.33889310073573,76.61252872878686 24.50985595153179,77.04252904572058 23.25094768765848,77.65681516815675 22.606141015770845,77.84110099467216 21.592873388901353,78.45538704871433 20.548900682362728,79.00824445247417 19.504927975824103,79.4689589230693" stroke="#4DD2FF" stroke-dasharray="none" stroke-linecap="round" stroke-linejoin="round" stroke-width="0.5"><title>2026-06-20 10.1km</title><desc>9223370254938036107</desc></polyline><polyline fill="none" opacity="1" points="104.5,97.70039837484364 104.91341596795246,96.37116652997793 105.26777251192834,95.544088809198 105.74024790374096,94.86470346475835 106.09460444771685,94.77608798016445 106.4784907035064,94.3625490370323 106.59660955157597,93.06285505526466 106.68519868759904,92.64931600997807 107.18720379145816,92.02900739587494 107.6301494713407,90.64069743931759 107.51203062338755,89.40007979606162 108.19121399929281,88.39577011269284 108.13215457519982,87.68684554260108 108.27980313531589,86.6529970812262 108.30933284724597,85.70776406716323 108.30933284724597,85.11699336781749 108.36839227122255,84.11268306328566 108.4865111191757,82.31083185749594 109.01804593519773,80.98159706051229 109.3724024790572,80.7157500704634 109.72675902303308,79.82959336324711 109.9334670068929,79.29789928437094 110.93747721461114,78.55943521801964 111.70524972653948,77.14158398951986 112.94549763028044,75.90096392587293 113.38844331016298,75.60557816360961 114.98304775787983,74.896652282594 116.04611738969106,74.42403498812928 117.07965730957221,73.95141766141751 118.70379146921914,73.00618291078717 119.20579657307826,72.76987420287332 120.15074735693634,72.09048662264831 120.62322274874896,71.73602351071895 121.77488151658326,70.87940424849512 122.63124316441827,70.05232348054415 123.57619394815993,69.01847238113987 124.46208530815784,68.30954582343111 125.31844695587642,67.1870786245563 125.90904119587503,66.21230432984885 126.5586948597338,65.3556843813567 126.94258111552335,65.0898367894697 127.29693765949924,64.76491194099071 127.68082391528878,64.35137120261788 128.71436383528635,63.790137303614756 129.48213634709828,62.81536252834485 129.80696317891125,62.81536252834485 130.39755741890986,62.283667138108285 130.2794385709567,61.78151034304756 130.5452059789095,61.33843078758218 131.10627050686162,60.77719664303004 131.9626321545802,60.452271591027966 133.0847612102516,60.452271591027966 134.2364199780859,60.48181023274083 135.29948960989714,60.42273294911138 136.18538096966222,60.865812563570216 136.8055049215909,60.865812563570216 138.25246080942452,60.59996479836991 139.07929274521302,60.62950343947159 139.96518410509452,60.983967122621834 140.52624863293022,61.131660318613285 141.4121399926953,61.01350576203549 141.2054320088355,60.865812563570216 141.88461538474075,60.80673528331681 142.17991250450723,61.01350576203549 143.03627415245865,61.811048979114275 143.50874954438768,62.106435332243564 144.51275975210592,62.25412850416615 145.28053226391785,62.54951483831974 146.10736419982277,62.933517053868854 147.1409041195875,63.4652123938431 147.90867663139943,64.115062198136 148.23350346332882,64.76491194099071 149.03080568730365,65.38522300202749 149.680459351046,66.09414986052434 150.38917243899778,66.8030766461161 150.68446955888066,67.33477168745594 151.71800947876181,68.13231417260249 153.10590594238602,67.0098469449149 153.66697047033813,65.8283022971882 154.19850528624374,64.85352781027905 154.75956981419586,63.81967593103764 155.11392635805532,62.60859210373019 155.61593146191444,60.71811936193262 155.88169886975084,59.802421441010665 155.94075829396024,59.00487799124676 155.7635800219141,57.646100048936205 155.70452059793752,57.20302022708347 155.52734232589137,56.73040171904722 155.67499088589102,55.93285791299422 155.4978126139613,54.92854335883749 155.7340503098676,54.27869268684299 156.53135253372602,53.71745796609321 157.88971928553656,53.86515131811029 158.95278891723137,54.07192200559075 159.63197229313664,54.3968473590794 160.96080933290068,54.839927361754235 162.0829383886885,55.13531401439104 162.3191760845948,55.57839396945201 163.82519139628857,56.67132440322894 164.8882610280998,57.29163619375322 165.95133065991104,58.59133690674207 166.66004374774639,59.595650925912196 167.10298942762893,60.59996479836991 166.9258111556992,60.95442848306266 167.13251913967542,62.4018216728291 167.54593510762788,63.81967593103764 167.63452424365096,64.55814157490386 167.5164053955814,65.26706851852941 167.66405395558104,65.88737953433883 167.8117025155807,66.30092018051073 168.845242435229,67.15754001159803 169.81972293113358,67.42338752374053 170.32172803510912,67.8369280777406 170.97138169885147,68.42770025474601 171.73915421077982,68.84124074855936 173.186110098497,69.0480109861528 173.5404666424729,69.13662680031848 174.69212541019078,69.55016725164023 175.7551950418856,69.96370767807821 177.05450236971956,70.49540247570258 177.64509660960175,70.99755863580504 178.26522056141403,71.35202178565669 179.12158220924903,72.44494971632957 179.4759387532249,73.09479867407936 180.0960627051536,73.71510898589622 180.50947867310606,74.12864916268154 181.01148377696518,74.6308050584048 181.54301859275438,75.07388375964365 182.42890995263588,75.78280962252757 183.58056872047018,76.78712113693473 184.4074006562587,77.76189393777167 184.58457892818842,78.05727960789227 184.9094057601178,77.76189393777167 184.9094057601178,77.43696968609584 185.47047028806992,76.63942827630672 184.67316806409508,75.87142535028397 183.87586584035307,75.39880812249612 182.84232592058834,74.39449640622479 182.16314254468307,73.83326332463184 181.54301859275438,73.00618291078717 180.86383521696553,72.71079702465795 180.56853809696622,72.50402689687326 180.3913598250365,71.64740772990626 179.8302952972008,71.02709723234875 179.2101713452721,70.25909368181601 178.61957710550632,69.6978602639283 178.0585125775542,68.72308632428758 177.2316806417657,68.2504686069733 176.96591323369648,67.95508251723368 176.52296755381394,67.54154197027674 175.01695224212017,67.54154197027674 174.30823915428482,67.77785085726646 173.03846153849736,67.60061919272994 171.4733868027106,67.33477168745594 170.73514400294516,66.86215387500124 170.14454976306297,66.35999741367414 169.1995989792049,65.88737953433883 169.1700692672748,65.03075954547967 169.31771782727446,64.55814157490386 169.67207437125035,63.287980618391884 169.87878235511016,62.726746632833965 169.7901932190871,61.84058761497727 169.4948960992042,60.42273294911138 168.96336128329858,59.21164852412767 168.19558877137024,58.29595040268032 167.7526430914877,57.882409275567625 166.5714546117233,57.08486560313031 166.06944950774778,56.75994037667988 164.82920160412323,55.84424192883307 163.94331024424173,55.10577534962795 162.5554137805011,54.48546336189611 161.87623040459584,54.07192200559075 161.2265767408535,53.5697646108747 160.22256653301883,53.185761872533476 159.10043747723103,52.831297787313815 157.91924899746664,52.44729500770336 156.91523878963199,52.506372359843226 155.61593146191444,52.38821765506873 153.81461903033778,52.29960162518546 153.04684651840944,52.476833683787845 152.6334305505734,53.27437789097894 152.69248997443356,54.16053801259841 153.63744075829163,55.54885530669708 154.0213270141976,56.81901769177057 153.84414874238428,57.23255888282438 154.3461538462434,57.94148658096674 154.37568355805706,58.8571847496205 154.40521327021997,59.625189571263036 154.37568355805706,61.22027623467147 153.7260298943147,62.81536252834485 153.4307327743154,63.31751924799755 152.75154939852655,64.20367807577713 151.86565803864505,64.61721882296843 151.12741523887962,64.52860295062419 150.5663507109275,64.3218325774942 149.53281079116277,63.67198279272998 148.64691943116486,63.140287468762835 147.84961720753927,62.372283039352624 147.1409041195875,62.076896697544726 146.46172074368224,61.78151034304756 145.1919431280112,61.27935351134511 144.48323004017584,61.131660318613285 143.4792198323412,60.95442848306266 142.65238789643627,60.71811936193262 141.85508567257784,59.684266861731885 141.05778344883583,59.32980311152642 140.0242435290711,58.502720956894336 139.28600072907284,58.08917984220898 138.5182282172609,57.882409275567625 137.6913962814724,58.00056388587109 137.3960991614731,58.53225960693089 136.8055049215909,58.8571847496205 135.86055413773283,59.00487799124676 134.91560335399117,58.975339343131054 133.79347429831978,59.03441663912963 133.2028800584376,59.30026446492411 132.93711265036836,60.00919194991002 133.35052861832082,60.48181023274083 133.91159314615652,60.51134887430817 134.50218738615513,60.59996479836991 133.85253372217994,60.304578380455496 132.8485235143453,60.09780788043281 131.60827561072074,60.39319430719479 131.16532993072178,60.51134887430817 130.75191396288574,61.10212167960708 130.39755741890986,61.870126250752946 129.80696317891125,62.49043757250183 128.74389354721643,63.169826098921476 127.50364564347547,64.05598494570586 126.64728399575688,64.91260505581158 125.79092234780546,65.88737953433883 125.43656580382958,66.41907464637188 124.75738242792431,67.0098469449149 123.96008020429872,67.9846211266995 122.71983230032492,69.34339702909347 121.6862923806766,70.28863228150294 121.06616842874791,70.76124985911883 120.2098067807965,71.47017616487574 119.26485599705484,72.03140943858307 117.99507838138379,72.85848996927962 117.25683558138553,73.24249161055195 116.07564710162114,73.77418615549686 114.8058694859501,74.39449640622479 114.33339409402106,74.54218931484502 112.73878964642063,75.19203807521262 112.32537367846817,75.54650100963772 111.29183375858702,76.63942827630672 110.40594239882194,77.61420109801111 110.1992344148457,78.38220383031876 109.19522420701105,79.5637463288731" stroke="#4DD2FF" stroke-dasharray="none" stroke-linecap="round" stroke-linejoin="round" stroke-width="0.5"><title>2026-06-18 10.1km</title><desc>9223370255108266507</desc></polyline><polyline fill="none" opacity="1" points="21.77359572041314,230.78968748176703 22.083110431791283,230.66584441513987 22.73309132596478,230.2943152024527 23.568781047011726,229.8299036596436 24.899694306543097,229.21068822295638 25.98299579671584,228.65339428454172 26.50917080626823,228.34378652251326 27.994841421488672,227.10535534156952 29.07814291177783,226.4242181017762 30.09954145969823,225.5263552783872 30.594764998182654,224.8142570978962 31.120940007735044,224.2260020262911 31.95662972878199,223.45198212220566 32.88517386326566,222.08970688958652 33.78276652668137,221.22280433523702 33.93752388237044,220.91319625481265 34.18513565149624,220.5416665408411 35.0208253726596,219.73668542830274 35.918418035958894,219.14842994313221 36.816010699258186,218.12672293395735 37.46599159343168,218.03384047135478 37.837409247295,216.8573291755165 38.79690485296305,215.95946516265394 40.53018723730929,215.7737001805799 41.6753916698508,215.80466101126513 42.57298433315009,215.80466101126513 43.16106228507124,215.80466101126513 43.996752006118186,216.4238775970298 45.23481085221283,216.33099511254113 45.91574321745429,216.05234765197383 46.25620940013323,215.95946516265394 47.30855941923801,216.300034284126 48.39186090941075,216.57868173520546 49.81562858237885,216.39291676908033 49.81562858237885,216.300034284126 50.960833014920354,216.8573291755165 51.4251050822204,217.19789825449698 52.94172716862522,217.60038896359038 53.7464654186042,218.00287965027383 54.95357279339805,218.59113522869302 55.60355368733872,218.96266504313098 56.12972869700752,219.5199597288156 57.12017577374354,220.57262735103723 57.33683607191779,221.22280433523702 58.54394344671164,222.05874608596787 59.627244937000796,223.01853093964746 60.33912877354305,223.39006052626064 60.92720672523137,223.45198212220566 61.731944975210354,222.95660934003536 62.1962170425104,222.18258929997683 62.32002292701509,221.37760837044334 62.75334352313075,220.479744919925 63.49617883074097,218.68401768413605 63.96045089804102,216.8573291755165 64.02235384029336,216.48579925269587 64.33186855178792,214.6900710229529 64.42472296522465,212.6466555967345 63.83664501341991,211.0057306685485 63.99140236910898,209.92210079403594 64.26996560941916,209.21000107348664 65.04375238833018,208.5598230062751 65.91039358044509,208.5907838679268 67.05559801310301,208.80750989587978 68.54126862832345,209.21000107348664 69.96503630117513,209.92210079403594 71.01738632027991,209.8911399380304 71.48165838746354,209.6744139426737 71.69831868552137,210.20074849156663 72.37925105076283,211.2224566238583 73.46255254105199,211.96551699267002 74.3601452044677,212.6156947525451 74.7315628582146,213.08010740223108 75.13393198314589,213.54452002205653 75.7839128774358,214.78295352857094 76.12437905999832,215.30928770441096 76.03152464656159,216.14523014007136 75.69105846399907,216.82636834925506 75.75296140625142,217.47654567082645 76.18628200225066,218.21960539527936 76.68150554073509,219.42707728414098 76.61960259836633,220.57262735103723 76.65055406955071,221.00607868027873 77.61004967521876,222.18258929997683 78.50764233863447,222.92564854008378 78.63144822302274,223.20429573539877 79.55999235773925,223.6067861096817 80.36473060760181,224.16408043692354 81.07661444414407,224.44272758450825 83.0575085976161,224.78329630580265 83.83129537641071,225.06194342952222 85.10030569357332,225.37155133212218 85.71933511656243,225.6811592214508 86.83358807803597,226.33133574586827 87.91688956820872,227.01247299445095 88.41211310657673,227.56976705929264 89.27875429892447,228.52955118130194 89.49541459686588,228.96300203335704 89.9906381352339,229.70606057648547 90.45491020253394,230.20143289625412 90.67157050059177,230.51104057882912 91.16679403895978,231.03737360879313 92.21914405794814,231.966196509602 93.30244554835372,232.86405853374163 94.44764998089522,233.97864571918035 94.78811616357416,234.10248872917145 94.94287351926323,233.60711667640135 95.5,232.8950192912598 95.19048528862186,232.39964715583483 94.26194115390535,231.656588889251 93.704814673285,231.192177433928 92.96197936567478,230.69680518197129 92.34294994268566,230.1395113581675 91.87867787538562,229.55125671968563 91.60011463507544,228.93204125907505 90.73347344284412,228.43666885251878 90.30015284672845,227.94129641196923 89.65017195267137,226.8576690799673 88.53591899119783,225.55731606727932 88.28830722207204,225.27866896271007 87.7002292702673,224.65945313626435 87.23595720296726,224.5975315507967 86.1526557126781,223.9783156659687 85.34791746269912,223.66870770370588 84.32651891489513,223.3590997281135 82.96465418417938,223.45198212220566 82.62418800150044,223.2352565341862 81.97420710744336,223.2662173329154 80.79805120371748,222.92564854008378 79.0957202904392,221.96586367394775 78.75525410776027,221.68721643090248 78.44573939626571,220.94415706337895 78.75525410776027,219.6438029864221 78.84810852119699,218.80786095606163 79.0957202904392,218.12672293395735 79.03381734818686,216.95021165313665 78.81715705001261,215.46409186645178 78.41478792519774,214.47334517189302 77.64100114640314,213.51355918159243 76.24818494450301,212.4918513742159 75.41249522357248,211.90359529817943 74.01967902190518,211.0676523707225 73.43160106998403,210.51035703183152 72.53400840668473,209.86017908196663 71.5435613298323,209.5815313712228 70.95548337791115,209.45768794073956 70.70787160866894,209.05519677704433 70.24359954148531,208.7765490351594 69.37695834925398,208.2502143821912 68.35555980133358,207.97156660910696 67.24130683986004,207.60003622825025 66.43656858999748,207.3213884300785 65.35326709982473,207.3213884300785 64.4866259075934,207.3213884300785 62.69144058087841,207.22850582824321 61.917653802083805,207.53811449627392 61.51528467715252,207.60003622825025 60.98910966760013,208.28117524518166 61.60813909047283,209.70537479961058 62.25811998476274,210.6651612968999 62.474780282820575,211.37726087367628 62.75334352313075,211.93455614551203 62.72239205206279,212.52281221898738 63.03190676344093,213.5754808622296 63.06285823462531,213.9779717734782 63.06285823462531,214.5662276802468 62.90810087893624,216.36195594089804 62.5676346962573,217.75519307650393 61.917653802083805,218.80786095606163 61.26767290791031,219.61284217220964 60.24627435998991,220.2320584312547 59.286778754438274,219.82956786896102 58.48204050445929,219.48899891407927 57.46064195642248,218.80786095606163 56.90351547580212,218.15768375451444 56.16068016807549,217.78615389863262 55.448796331649646,217.4146240237169 54.48930072598159,217.04309412965085 54.055980129982345,216.95021165313665 53.375047764740884,216.57868173520546 52.5703095147619,216.39291676908033 51.92032862058841,216.0833084814949 51.115590370609425,216.23811262694653 50.46560947666876,216.17619096906856 49.47516239969991,215.21640520554502 49.13469621713739,214.62814935192 48.26805502490606,213.94701093499316 47.37046236160677,213.66836338222492 46.441918226890266,213.48259834112832 45.45147115015425,213.73028506152332 44.39912113104947,214.10181512619602 44.05865494837053,214.22565847693477 43.50152846775018,214.03989345015725 42.789644631324336,214.00893261190504 41.953954910160974,214.25661931425566 41.45873137190938,214.16373680188553 41.056362246745266,214.16373680188553 40.6539931219304,214.62814935192 40.46828429505695,215.34024853707524 40.87065341998823,215.7737001805799 42.170615208218805,215.8665826722281 42.232518150587566,215.58793519367464 41.365876958472654,215.34024853707524 40.80875047761947,215.18544437229866 39.44688574702013,215.61889602523297 38.67309896834195,215.89754350250587 37.837409247295,216.76444669661578 37.71360336255748,217.50750649429392 37.187428353121504,217.8790363643784 36.32078716089018,218.250566215429 35.85651509359013,218.77690013835672 34.958922430174425,219.3341948383022 34.37084447836969,219.98437193402788 33.72086358431261,220.60358816111693 32.85422239196487,221.65625562536297 31.987581199849956,222.8018053387059 31.616163546103053,223.3590997281135 31.337600305792876,223.66870770370588 30.440007642377168,224.5975315507967 29.759075277019292,225.06194342952222 29.109094382962212,225.74308079772163 28.86148261372,226.02172788436292 28.0876958349254,226.64094359410228 26.973442873568274,227.41496315668337 26.168704623589292,227.7864925173344 24.74493695073761,228.99396280752262 23.197363393264823,229.6750998054049 21.71169277804438,230.32527597085573 20.473633931949735,230.91353054635692 19.637944210902788,231.28505972737912 18.647497134050354,231.9352357481257 18.090370653546415,232.39964715583483 17.254680932383053,233.2665483704768 16.542797095957212,234.2882532402291 16.295185326715,234.6597822480835 15.799961788346991,235.0932327330811 15.242835307726637,236.45550551719498 14.933320596115664,238.00354246108327 14.778563240310177,239.08716812514467 14.561902942485176,240.44944015872898 14.592854413436726,240.8209688507486 15.02617500955239,241.31634041049983 14.5,242.55476916203042" stroke="#4DD2FF" stroke-dasharray="none" stroke-linecap="round" stroke-linejoin="round" stroke-width="0.5"><title>2026-06-16 10.1km</title><desc>9223370255286294807</desc></polyline><polyline fill="none" opacity="1" points="112.08891013381071,230.59271687205182 112.73938814538997,230.18991905724397 114.47399617591873,229.50826116581447 115.06252390076406,229.07447883783607 116.76615678786766,228.11396073340438 117.88126195047516,227.15344250155613 119.30611854686867,226.06898628006456 120.63804971321952,224.70566965674516 121.96998087968677,223.2803838212276 122.8682600382017,222.13395805400796 123.45678776293062,221.111470054253 124.38604206510354,220.39882681739982 125.22237093711738,219.62421452364651 125.90382409188896,219.03550912480569 126.67820267693605,218.19892768602585 127.26673040166497,217.95105168566806 127.82428298285231,217.54825316672213 127.82428298285231,216.866594083549 128.2579349904554,216.43281099718297 129.65181644365657,215.72016729862662 131.0766730401665,215.7821363186813 132.3776290632086,215.87508984777378 133.49273422569968,216.0300123936031 134.54588910145685,216.09198141098022 135.66099426383153,216.09198141098022 136.40439770556986,215.90607435716083 137.73632887203712,216.30887296772562 138.5107074569678,216.37084198265802 139.93556405359413,216.68068704975303 140.33824091788847,216.95954759872984 140.9267686426174,216.866594083549 141.91797323152423,217.30037714389618 142.63040152972098,217.51726866432 143.18795411090832,217.70317567663733 144.3959847036749,218.26089668489294 145.48011472274084,218.78763315308606 146.06864244746976,219.34535407752264 146.34741873806342,219.87209046666976 146.84302103263326,220.1819353834726 147.24569789681118,220.55374926613877 147.52447418740485,220.95654761738842 148.39177820272744,221.7621442527161 149.2900573614752,222.75364768051077 150.83881453156937,223.5902285919874 151.6751434034668,223.03250799508533 152.2636711281957,221.70017528394237 152.97609942639247,219.87209046666976 153.65755258128047,218.2299121855176 154.18413001915906,216.27788845996838 154.36998087959364,215.3173686552327 154.33900573616847,214.10897259035846 154.4009560229024,212.99352988926694 154.2151051624678,211.78513343509985 154.18413001915906,210.97953568649245 153.9982791588409,210.60772131063277 154.12217973230872,209.92606157180853 154.33900573616847,209.0894790769089 155.02045889105648,208.59372644143878 156.16653919697274,208.62471098225797 157.5604206500575,208.87258730310714 159.32600382412784,209.58523167821113 160.93671128107235,209.95704610686516 161.27743785851635,210.2049223817885 161.86596558324527,210.79362850100733 163.44569789688103,211.9710405950318 164.1581261951942,212.34285490069306 164.5917782027973,212.96254536730703 165.39713193115313,213.79912741290173 166.2024856597418,215.3173686552327 166.29541108978447,215.87508984777378 166.2024856597418,216.80462507286575 165.89273422560655,217.20742363313911 166.63613766734488,218.6946796614793 166.85296367108822,219.74815249617677 166.8839388146298,220.49178028706228 167.3175908222329,221.54525285976706 167.9061185468454,222.474787355226 168.46367112814914,222.84660111990524 169.20707456965465,223.4043217311846 169.7026768643409,223.5902285919874 171.37533460813574,224.39582493383205 172.7072657744866,224.70566965674516 174.19407265773043,225.13945224659983 174.75162523903418,225.17043671634747 175.5879541109316,225.51126587425824 176.5481835565297,226.03800181415863 177.32256214146037,226.5647377158166 178.2518164436333,227.15344250155613 178.8403441682458,227.64919386291876 179.4288718929747,228.85758766409708 179.73862332710996,229.291370005114 180.11032504786272,229.75613677012734 180.9776290630689,230.65468576457351 181.90688336535823,231.33634354820242 182.8671128108399,232.20390790724196 183.88929254293907,233.13344103377312 184.7256214149529,234.1249429040472 184.94244741869625,233.78411415143637 184.88049713196233,233.50525425100932 185.5,232.88556554506067 185.22122370940633,232.3898145420826 184.23001912038308,231.55323464772664 182.92906309757382,230.31385684886482 182.3405353729613,229.84909011959098 181.59713193110656,228.91955657151993 180.6369024856249,228.26888301694999 179.7695984704187,226.87458234577207 179.0881453155307,225.94504841585876 178.0040152964648,224.98452989611542 177.63231357559562,224.61271624127403 176.4242829827126,223.77613544807537 175.86673040152527,223.5902285919874 174.53479923517443,223.06349247385515 173.8843212237116,223.09447695250856 172.83116634795442,223.2493993435055 171.77801147219725,223.09447695250856 170.78680688340683,222.69167872035177 170.07437858509365,222.28888046566863 168.68049713189248,221.1734390280908 168.55659655842464,220.11996640113648 168.89732313575223,218.6946796614793 169.11414913961198,217.51726866432 169.08317399618682,216.21591944416286 168.43269598472398,214.44980227015913 167.53441682609264,213.36534414213384 166.41931166348513,212.43580847402336 166.1095602294663,212.18793227570131 165.61395793501288,211.81611796206562 164.9015296366997,211.41331910080044 163.97227533475962,210.66969037463423 163.01204588916153,209.95704610686516 161.9279158700956,209.61621621466475 161.24646271509118,209.0894790769089 160.99866156792268,208.71766460355138 160.47208412992768,208.77963368379278 159.48087954125367,208.12895831483183 158.02504780120216,207.69517470290884 156.90994263871107,207.35434470383916 155.79483747610357,207.32336015760666 154.6487571701873,207.23040651832707 153.44072657753713,207.1994219716289 152.07782026776113,207.26139106490882 151.4892925430322,207.4163137957803 150.9936902486952,208.59372644143878 151.55124282988254,209.5542471416411 152.29464627150446,210.60772131063277 152.57342256221455,211.38233457203023 152.66634799249005,212.06399417325156 152.94512428308371,212.96254536730703 153.06902485655155,213.36534414213384 153.00707456981763,213.76814289443428 153.00707456981763,214.35684872267302 152.82122370938305,215.8131208284758 152.75927342264913,216.6497025436256 152.63537284894846,217.23840813693823 152.38757170177996,217.79612918104976 151.89196940732654,218.57074167084647 151.4273422562983,219.34535407752264 150.68393881455995,219.74815249617677 149.90956022951286,219.99602843495086 148.88738049729727,219.46929205488414 148.5156787764281,219.283385088027 147.4005736138206,218.66369516396662 146.192543021054,217.76514467969537 145.38718929258175,217.36234615044668 144.64378585095983,216.92856309382478 143.68355640536174,216.68068704975303 143.06405353732407,216.40182649006601 142.47552581259515,216.43281099718297 141.88699808809906,216.1849349361146 141.05066921608523,216.15395042783348 140.4931166348979,215.90607435716083 139.74971319315955,214.79063193395268 139.0992351816967,214.41881775454385 138.23193116637412,213.89208096754737 137.33365200774278,213.61322030000156 136.00172084150836,213.67518933815882 134.7627151052002,214.01601903850678 134.3290630975971,214.1399571073125 133.67858508613426,213.36534414213384 132.7803059273865,213.86109644948738 131.57227533473633,214.0779880732298 131.35544933087658,213.92306548543274 130.70497131941374,214.44980227015913 130.5500956022879,215.25539963121992 130.983747609891,215.72016729862662 132.00592734233942,215.8131208284758 132.22275334608275,215.56524474616162 131.72715105174575,215.4103221903788 131.13862332701683,214.97653901641024 130.6430210325634,214.91456998942886 129.00133843219373,215.56524474616162 128.22695984726306,216.30887296772562 127.82428298285231,216.6497025436256 127.29770554497372,217.76514467969537 126.83307839382906,217.76514467969537 125.90382409188896,218.63271066639572 124.72676864243113,219.50027654884616 123.92141491407529,220.52276477665873 123.08508604217786,221.26639248774154 122.43460803059861,222.2269115014351 121.84608030610252,222.84660111990524 121.1646271510981,223.55924411554588 120.42122370947618,224.55074729700573 119.80172084143851,224.98452989611542 118.93441682611592,225.88307948294096 118.09808795410208,226.50276878813747 117.63346080319025,226.78162895824062 117.26175908232108,227.1224580403068 116.27055449341424,227.7111627807608 115.31032504793257,228.57872757402947 114.35009560245089,229.10546329070348 112.77036328881513,229.75613677012734 111.65525812620763,230.31385684886482 109.98260038241278,231.02649910905166 108.27896749530919,232.01800126762828 106.7302103250986,233.35033207945526 106.38948374777101,233.78411415143637 105.92485659662634,234.83758478949312 105.39827915886417,235.7051487294375 105.18145315500442,236.2008995055803 104.99560229456984,236.94452560634818 104.84072657756042,237.7191360469442 104.68585086043458,238.46276199212298 104.68585086043458,240.0429668725119 104.5,240.9415145922685 104.62390057370067,241.99498419108568 104.74780114728492,242.70762530353386" stroke="#4DD2FF" stroke-dasharray="none" stroke-linecap="round" stroke-linejoin="round" stroke-width="0.5"><title>2026-06-11 10.2km</title><desc>9223370255717407907</desc></polyline></svg>