<?xml version="1.0" encoding="utf-8" ?>
<svg baseProfile="full" height="300mm" version="1.1" viewBox="0,0,200,300" width="200mm" xmlns="http://www.w3.org/2000/svg" xmlns:ev="http://www.w3.org/2001/xml-events" xmlns:xlink="http://www.w3.org/1999/xlink"><defs /><rect fill="#222222" height="300" width="200" x="0" y="0" /><text fill="#FFFFFF" style="font-size:12px; font-family:Arial; font-weight:bold;" x="10" y="20">Over 10km Runs</text><text fill="#FFFFFF" style="font-size:4px; font-family:Arial" x="10" y="280">Runner</text><text fill="#FFFFFF" style="font-size:9px; font-family:Arial" x="10" y="290">Yanfu</text><text fill="#FFFFFF" style="font-size:4px; font-family:Arial" x="65" y="280">SPECIAL TRACKS</text><rect fill="yellow" height="2.6" width="2.6" x="65" y="283" /><text fill="#FFFFFF" style="font-size:3px; font-family:Arial" x="70" y="285.5">Over 20.0 km</text><rect fill="red" height="2.6" width="2.6" x="65" y="287" /><text fill="#FFFFFF" style="font-size:3px; font-family:Arial" x="70" y="289.5">Over 40.0 km</text><text fill="#FFFFFF" style="font-size:4px; font-family:Arial" x="120" y="280">STATISTICS</text><text fill="#FFFFFF" style="font-size:3px; font-family:Arial" x="120" y="285">Number: 4</text><text fill="#FFFFFF" style="font-size:3px; font-family:Arial" x="120" y="290">Weekly: 2.0</text><text fill="#FFFFFF" style="font-size:3px; font-family:Arial" x="141" y="285">Total: 40.5 km</text><text fill="#FFFFFF" style="font-size:3px; font-family:Arial" x="141" y="290">Avg: 10.1 km</text><text fill="#FFFFFF" style="font-size:3px; font-family:Arial" x="167" y="285">Min: 10.1 km</text><text fill="#FFFFFF" style="font-size:3px; font-family:Arial" x="167" y="290">Max: 10.2 km</text><polyline fill="none" opacity="1" points="14.5,95.21008858754067 14.714610143913887,93.67670210689539 14.622634368017316,93.24735383375082 15.266464799526148,92.23531851713778 15.17448902351316,90.91660561808385 15.45041635131929,90.21124745649286 15.35844057542272,89.07654070365243 15.818319455138408,88.58585664688144 15.910295230918564,87.38981411821442 15.910295230918564,86.34711021289695 16.12490537483245,85.24307061865693 17.105980318039656,84.07769530726364 17.228614685940556,83.83235311234603 17.320590461837128,83.4336720276624 17.38190764572937,82.63630979205482 17.99507948535029,82.08428973087575 18.63890991685912,80.88824611913878 19.313398940255865,79.69220230809879 20.11052233155351,79.17084981518565 21.122255866765045,78.61882948735729 22.71650264947675,77.94413791765692 24.15745647251606,77.14677507180022 25.107872823718935,76.74809361551888 25.78236184711568,76.28807652310934 27.407267221948132,75.36804224963998 28.29636638914235,74.69335037400015 29.308099924353883,74.01865843485575 30.074564723763615,73.2826307923533 31.116956850863062,72.20925701141823 31.730128690367565,71.50389701058157 32.251324753975496,70.95187609188724 33.17108251340687,69.90916979603935 33.4776684329845,69.4798201006488 34.27479182439856,68.2531065432122 35.562452687416226,66.99572492844891 35.991672975127585,66.65837860404281 36.63550340652,66.2596965636476 37.37130961404182,65.55433597619412 38.26040878123604,65.0636503091664 38.38304314913694,64.29695388686378 39.05753217253368,63.77560027275467 39.854655563947745,63.284914483490866 40.958364875172265,63.25424662057776 41.35692657076288,63.284914483490866 42.70590461790562,63.284914483490866 43.38039364130236,63.03957157628611 43.84027252078522,63.131575167470146 44.20817562460434,63.62226096726954 44.69871309620794,63.714264551003 45.21990915981587,63.68359668983612 45.7411052234238,63.49958952044835 46.50757002271712,63.315582346345764 47.979182437527925,63.65292882861104 48.8989401969593,63.83693599404069 50.12528387596831,63.65292882861104 49.63474640424829,63.86760385450907 51.90348221047316,64.72630389343249 53.16048448148649,65.0636503091664 54.08024224091787,65.49300026969286 55.7358062074054,66.35170011338778 56.19568508700468,66.75038214866072 56.74753974261694,67.27173554582987 57.39137017412577,67.94642812095117 57.728614685940556,68.31444222608116 57.94322482962161,68.74379199137911 58.77100681315642,69.29581308038905 59.414837244548835,70.1851803009049 60.089326268061996,70.92120826186147 60.64118092355784,71.16655089869164 61.74489023478236,69.87850196153158 62.35806207428686,68.92779902584152 62.90991672978271,67.82375674840296 63.64572293718811,66.2903644136968 64.04428463289514,64.97164674283704 64.44284632860217,63.62226096726954 64.59613928839099,62.51821787044173 64.56548069650307,61.96619625808671 64.56548069650307,60.77014928479912 64.47350492049009,59.17541967553552 64.16691900079604,58.34738685324555 64.41218773648143,57.2740108295111 64.87206661619712,56.445977786614094 66.09841029532254,56.200634644250385 67.38607115822379,56.41530989430612 69.28690386074595,57.02866771572735 70.14534443616867,57.42735027131857 71.34102952317335,57.76469703181647 71.83156699477695,58.408722621097695 73.30317940958776,59.39009483595146 74.65215745649766,60.432802666386124 75.20401211210992,61.01549227000214 76.18508705531713,62.64088933408493 76.1544284633128,63.86760385450907 75.75586676760577,64.51162889337866 75.81718395161442,64.84897531924071 75.97047691140324,65.5236681230017 76.43035579111893,66.35170011338778 76.85957607883029,67.33307123713894 76.73694171081297,68.19177085981937 76.64496593479998,69.1118060555309 77.47274791833479,69.81716629205039 78.85238455713261,70.4918586271815 79.37358062074054,70.7678691095789 80.20136260415893,71.4118935270817 81.9795609387802,71.90257875871612 82.59273277816828,72.11725353694055 83.57380772137549,72.36259613285074 84.49356548069045,72.54660307412269 85.50529901590198,72.91461694269674 86.91559424682055,73.71198025962804 87.52876608632505,74.23333314963384 88.04996214993298,74.44800785800908 88.57115821354091,74.81602162891068 89.18433005304541,75.8280594010721 89.42959878884722,76.80942922562826 89.73618470854126,77.14677507180022 90.5026495080674,77.82146671641385 91.6063588190591,78.64949728437932 92.03557910665404,79.10951422533253 92.55677517026197,79.44685996323824 93.78311884927098,80.45889708166942 94.273656320991,81.19492398732109 94.70287660870235,81.40959848719649 94.73353520070668,81.01091726799496 95.5,80.18288697267417 94.5189250567928,79.1401820203173 93.53785011358559,78.31215150898788 92.98599545785692,77.94413791765692 92.58743376238272,77.51478870393476 91.54504163516685,76.50275116990088 91.20779712335207,76.13473748572869 90.56396669184323,75.73605597327696 90.44133232405875,75.30670662719058 89.70552611665335,74.2026653336361 89.67486752464902,73.89598716632463 88.41786525363568,73.15995951119112 87.43679031042848,72.20925701141823 86.45571536710486,71.50389701058157 85.81188493571244,70.82920477091102 84.49356548069045,70.70653344778111 84.03368660109118,70.70653344778111 82.86866010597441,70.79853694024496 82.07153671456035,70.67586561664939 80.35465556406416,70.03184113290627 79.25094625272322,69.93983763048891 78.97501892503351,69.4798201006488 78.42316426953766,67.97709596384084 78.6990915973438,67.24106769997161 79.15897047694307,65.9836859072675 79.0669947010465,64.6036324656452 79.0669947010465,63.3769180715899 78.7297501891153,62.36487853794824 78.08591975783929,61.506178215146065 76.70628311880864,60.310131164849736 75.57191521569621,59.420762715511955 74.31491294479929,58.74606933520408 73.73239969729912,58.16337954637129 72.93527630576864,57.51935393491294 71.98485995456576,57.2740108295111 70.91180923546199,56.691320920421276 70.60522331565153,56.445977786614094 70.26797880395316,55.985959387908224 69.19492808484938,55.70994833443547 68.21385314164218,55.46460516680963 67.41672975022811,55.249929888232145 66.49697199079674,54.94325090764323 65.23996972001623,54.94325090764323 63.86033308098558,54.88191510993056 62.84859954577405,54.789911412401125 62.26608629839029,54.91258300887421 61.591597274760716,55.06592250143876 61.28501135506667,55.55660885566613 61.315669947071,56.16996675095288 61.499621498864144,56.783324593503494 61.8062074186746,57.33534660667647 62.35806207428686,58.04070800577756 62.72596517787315,58.500726272002794 63.00189250567928,59.420762715511955 63.03255109768361,60.279463289130945 62.90991672978271,60.95415652450174 63.12452687358018,62.15020346688107 63.03255109768361,63.714264551003 62.57267221796792,65.12498601933476 61.95950037846342,66.6277107555652 60.917108251247555,67.45574261801085 59.96669190004468,67.5784139969619 58.954958364833146,67.05706062214449 58.21915215742774,66.6277107555652 57.7899318698328,66.41303581261309 56.931491294526495,65.61567168228794 56.257002271013334,65.27832529263105 55.582513247500174,64.94097888702527 54.754731264314614,64.57296460837824 54.356169568607584,64.51162889337866 53.83497350488324,64.26628602831624 53.191143073374406,64.14361459261272 52.57797123398632,63.49958952044835 51.81150643446017,63.49958952044835 51.4742619227618,63.49958952044835 49.60408781224396,62.119535599136725 49.26684330054559,61.751521175028756 48.37774413335137,61.07682801497867 46.93679031031206,60.67814566323068 46.170325511018746,60.98482439736836 45.373202119604684,61.47551034449134 44.361468584509566,61.78218904440291 43.77895533677656,61.87419265182689 42.889856169582345,61.444842473836616 42.24602573818993,61.65951756609138 41.51021953066811,61.751521175028756 41.05034065106884,61.99686412647134 40.835730507271364,62.45688213780522 40.958364875172265,63.03957157628611 41.26495079486631,63.284914483490866 42.491294473875314,63.49958952044835 42.67524602578487,63.25424662057776 41.9700984103838,62.947567983937915 40.805071915267035,62.88623225496849 39.210825132671744,63.16224303096533 38.41370174125768,63.898271714744624 38.045798637438565,64.9103110312717 37.55526116583496,65.30899314692942 36.5128690386191,65.95301805593772 36.0223315670155,66.2903644136968 34.612036336096935,67.5477461523842 33.60030280100182,68.6211206325097 32.987130961497314,69.4798201006488 32.34330052987207,70.24651596724289 31.88342165038921,70.64519778534304 31.362225586664863,71.31989004247589 30.902346707182005,71.90257875871612 29.645344436052255,72.91461694269674 28.357683573151007,74.23333314963384 27.407267221948132,75.03069631976541 25.81302043912001,75.85872721020132 24.831945495912805,76.56408678216394 24.126797880395316,76.9014326398028 23.17638152919244,77.330781890254 22.256623769993894,77.60679210914532 21.244890234665945,78.18948031397304 19.834595003863797,78.92550745251356 19.374716124264523,79.04817863489734" stroke="#4DD2FF" stroke-dasharray="none" stroke-linecap="round" stroke-linejoin="round" stroke-width="0.5"><title>2026-06-20 10.1km</title><desc>9223370254938036107</desc></polyline><polyline fill="none" opacity="1" points="104.5,98.04672100467724 105.08887677197345,96.30901855428237 105.2655398035422,95.71996677716379 105.67775354417972,94.68912604654906 106.1782988003688,94.42405269099982 106.44329334783833,94.12952672847314 106.76717557234224,93.62883256343775 106.85550708812661,92.39182329439791 107.20883315149695,91.92058160985471 107.65049073053524,90.74247725805617 107.88604143925477,89.77054101674003 107.76826608495321,88.73969939918607 108.44547437294386,87.44378400463029 108.35714285692666,86.58965781630832 108.6221374043962,86.05951047374401 108.563249727129,84.43961556392605 108.53380588861182,84.4985208400467 108.68102508166339,82.81972027386655 108.79880043608136,80.87584542372497 109.5054525625892,80.43405560863903 109.62322791700717,79.69773918727878 110.03544165752828,79.25594929675572 110.50654307508375,78.49018008602434 111.65485278062988,77.31207344183349 112.4498364230385,75.9867032263137 113.48037077405024,75.36819703850779 114.39312977087684,74.83804883324774 115.92420937831048,74.13118449616013 116.89585605228785,73.65994156443048 118.07360959646758,73.10034054110292 119.22191930189729,72.39347602546331 120.19356597587466,71.77496951486683 120.48800436186139,71.50989527901402 121.22410032711923,70.95029408083064 122.136859323713,70.21397664543474 123.28516902937554,69.2420375100919 124.02126499440055,68.35845635872101 125.1106870227959,67.26870611563209 125.64067611773498,66.4145774258941 126.52399127569515,65.56044863007264 126.90676117769908,64.88303606130648 127.34841875662096,64.55905611353228 127.6134133040905,64.26452887497726 128.4967284622835,63.52821072336519 129.40948745899368,62.73298703096225 129.8217011995148,62.40900698167388 130.1455834241351,62.438459714117926 130.5283533259062,61.64323589549167 130.44002181012183,61.23089758283459 131.17611777526326,60.61239006748656 131.7944383858703,60.170598950993735 133.0605234458344,60.11169346663519 133.44329334783833,60.170598950993735 134.7682660849532,60.11169346663519 136.1226826608181,60.34731540098437 136.65267175564077,60.55348458699882 137.85986913833767,60.40622088336386 138.77262813504785,60.200051692983834 139.56761177745648,60.46512636516127 140.2742639038479,60.61239006748656 141.1870229006745,60.730201027094154 141.71701199549716,60.641842807555804 142.0114503816003,60.55348458699882 142.12922573590185,60.34731540098437 142.95365321694408,61.26035032028449 143.54252998891752,61.52542495148373 143.77808069786988,61.84940504247788 145.04416575783398,62.055574183294084 145.8685932387598,62.438459714117926 146.36913849506527,62.6740815686062 147.66466739354655,63.49875799563597 148.10632497258484,63.99945434948313 149.01908396929502,64.94194150474505 149.37241003266536,65.17756327331881 150.4029443836771,66.29676656381343 150.55016357684508,66.65019914403092 151.16848418756854,67.06253713124897 152.5817884405842,67.12144255603198 153.58287895307876,65.88442853066954 154.2011995636858,64.70631972802221 154.49563794978894,64.23507615039125 155.0845147218788,62.644628837239 155.34950926934835,61.26035032028449 155.879498364171,59.640449573576916 156.02671755722258,59.257563886698335 155.79116684838664,57.69656817271607 155.85005452553742,57.0780603386811 155.64394765521865,56.57736347982427 155.79116684838664,55.958855544857215 155.4967284622835,55.104725447599776 155.67339149396867,54.456764613161795 156.05616139573976,53.69099263899261 157.44002181023825,53.33755939119146 158.70610687020235,53.573181558429496 159.41275899659377,53.83825648686616 160.5021810249891,54.28004801136558 161.7977099235868,54.57457567850361 162.23936750274152,54.98691439136746 163.1521264994517,55.75268622074509 164.62431842950173,56.72462726559024 165.50763358781114,57.63766266711173 166.4792802616721,58.93358367343899 167.09760087239556,60.05278798172367 167.12704471079633,60.34731540098437 166.950381679344,61.43706674230634 167.53925845143385,62.46791244632914 167.7159214830026,63.61656890576705 167.7159214830026,64.35288704786217 167.56870228995103,65.08920511099859 167.7159214830026,65.70771222308394 168.5697928024456,66.50293557115947 169.62977099232376,67.00363170602941 169.57088331505656,66.94472628028598 170.89585605228785,68.0050238663971 171.36695746995974,68.35845635872101 172.3974918210879,68.41736177235725 173.36913849506527,68.74134153820341 174.25245365314186,69.15367940007127 175.07688113418408,69.2420375100919 176.2251908396138,69.83109154790873 177.25572519085836,70.12561854795786 177.96237731724977,70.80303060001461 178.7573609596584,71.30372642178554 179.40512540889904,72.33457064596587 179.78789531067014,73.12979322762112 180.37677208276,73.36541471569217 180.87731733906548,74.04282644888735 181.37786259537097,74.45516399297048 182.02562704472803,74.8085961539764 183.17393675015774,75.95725055199 184.1455834241351,76.84083072774229 184.46946564887185,77.51824211908388 184.82279171200935,77.25316810433287 184.85223555064294,77.19426276633749 185.5,76.42849332650076 184.94056706642732,75.80998717833427 184.26335877855308,75.16202829687973 183.29171210469212,74.39625863102265 182.5261723009171,73.80720498401206 181.93729552882724,73.04143516760087 181.05398037075065,72.33457064596587 180.70065430749673,72.21675988531206 180.55343511444516,71.71606413001427 180.05288985802326,70.95029408083064 179.72900763351936,70.24342934440938 178.7573609596584,69.38930102426093 178.2568157033529,68.9475104722369 177.63849509262946,67.9755711578473 177.1085059979232,67.73994948519976 176.81406761170365,67.44542238296708 175.90130861499347,67.03308441874105 174.546892039245,67.26870611563209 173.89912759000435,67.41596967208898 172.27971646666992,67.12144255603198 170.92529989080504,66.62074642974767 170.42475463461597,66.23786113204551 169.8653217011597,65.972786682687 169.15866957453545,64.97139422624605 169.24700109043624,64.29398159935954 169.71810250822455,63.29258889815537 169.89476553967688,62.58572337409714 169.8358778625261,61.87885777725023 169.71810250822455,60.4945791058708 169.4825517992722,59.581544084707275 168.80534351139795,58.521245197887765 167.92202835332137,57.69656817271607 167.15648854954634,57.01915482777986 166.30261722998694,56.45955244888319 165.36041439464316,55.841044503235025 164.7715376226697,55.31089479115326 163.41712104692124,54.42731184652075 162.1804798253579,53.77935094808345 161.7682660849532,53.39646493384498 161.09105779696256,53.10193721600808 159.53053435112815,52.63069284107769 158.20556161389686,52.18890121014556 157.2044711014023,52.12999565721839 156.58615049067885,52.04163732685265 154.87840785156004,51.982731772674015 153.4945474372944,52.10054288056563 152.9645583422389,52.27725953864865 152.67011995636858,53.39646493384498 153.14122137392405,54.54512291244464 153.99509269348346,55.72323345969198 154.08342420938425,56.66572175169131 154.2011995636858,57.0780603386811 154.52508178830612,57.8732846864732 154.43675027263816,58.668508942006156 154.46619411103893,60.05278798172367 154.2306434023194,61.55487768774037 153.7889858232811,62.58572337409714 153.3473282441264,63.263136169465724 152.5523446018342,63.99945434948313 151.43347873492166,64.23507615039125 151.05070883303415,64.08781252577319 150.13794983632397,63.38094708358403 148.93075245351065,62.88025068468414 148.37131952005439,62.29119605093729 147.4291166847106,61.81995230753091 146.6930207196856,61.52542495148373 146.1924754633801,61.31925579474773 144.83805888763163,60.84801198475179 143.80752453638706,60.55348458699882 142.8358778625261,60.46512636516127 142.07033805875108,59.9055242674076 141.540348963812,59.257563886698335 140.89258451457135,58.60960344475461 139.68538713187445,57.784926430205815 138.91984732809942,57.4609461472719 138.36041439464316,57.49039890090353 137.65376226813532,57.8732846864732 137.329880043515,58.34452870092355 136.79989094869234,58.6390561934968 135.88713195186574,58.697961690457305 134.26772082864773,58.75686718695215 133.5610687021399,58.75686718695215 133.0605234458344,59.375374869588995 133.20774263888597,59.846618780778954 133.67884405655786,60.141146208829014 134.4738276989665,60.28840991813922 134.4738276989665,59.993882496404694 133.64940021792427,59.81716603730456 132.55997818952892,59.78771329368465 131.52944383851718,60.05278798172367 131.20556161389686,60.376768142246874 130.5283533259062,60.936370201496175 130.49890948738903,61.73159410202061 129.58615049067885,62.11447965091793 128.26117775344756,63.17477798255277 127.40730643400457,63.99945434948313 126.37677208276,65.00084694763063 125.78789531067014,65.61935406763223 125.43456924741622,66.23786113204551 124.6984732823912,66.97417899325956 123.57960741524585,68.21119282246218 122.57851690275129,69.2420375100919 121.3713195201708,70.1845239464019 120.60577971639577,70.8619359927252 120.19356597587466,71.12701025357819 118.75081788434181,72.1578545042139 118.04416575771756,72.5996448500955 116.68974918185268,73.21815128662274 115.423664122005,73.80720498401206 114.80534351139795,73.98392108347616 113.77480916015338,74.48461667375523 112.74427480902523,74.92640687033418 112.12595419841819,75.39764971533441 110.8009814611869,76.75247271524859 110.62431842950173,77.5476947867428 109.97655398014467,78.46072742235265 109.26990185375325,79.28540195696405 109.00490730628371,79.66828652881668" stroke="#4DD2FF" stroke-dasharray="none" stroke-linecap="round" stroke-linejoin="round" stroke-width="0.5"><title>2026-06-18 10.1km</title><desc>9223370255108266507</desc></polyline><polyline fill="none" opacity="1" points="21.146946564898826,230.82944647880504 21.98167938925326,230.42741738789482 22.50725190830417,230.24186549236765 23.527480916003697,229.68520977685694 24.083969465689734,229.43780722288648 25.691603053477593,228.51004757004557 26.217175572528504,228.26264497585362 27.361068702302873,227.42766115785344 28.845038167899475,226.34527458349476 29.865267175482586,225.44843987032073 30.514503816724755,224.67530640761834 30.730916030472144,224.3660529993358 31.349236641195603,223.8712475185166 32.585877862526104,222.60330831917236 33.32786259544082,221.33536889700918 33.94618320616428,220.80963785172207 34.16259541979525,220.56223499361658 34.71908396948129,219.69632492342498 35.46106870227959,219.07781766681 36.54312977090012,218.33560888882494 37.09961832058616,217.7480268854415 37.96526717557572,217.25322095060255 38.58358778618276,215.92342983250273 39.69656488543842,215.55232529068599 40.96412213740405,215.58325066993712 41.92251908394974,215.52139991131844 42.78816793882288,215.52139991131844 43.65381679381244,215.98528058774536 44.95229007641319,216.0471313422313 45.817938931286335,215.7997283207369 46.127099236589856,215.6760268068174 46.46717557264492,215.6760268068174 48.26030534342863,216.23268360283691 49.43511450383812,216.20175822643796 50.115267175482586,215.98528058774536 50.45534351130482,216.44916123413714 51.259160305256955,216.72748960769968 52.00114503817167,217.16044483409496 53.5160305344034,217.5006239222712 54.5053435114678,218.02635520877084 55.37099236634094,218.45931035710964 55.896564885624684,219.01596693822648 56.45305343507789,219.75817564612953 57.34961832058616,220.7787124948809 58.18435114494059,221.58277172857197 58.95725190837402,222.29405482206494 59.91564885491971,222.78886041109217 60.65763358771801,223.37644200376235 61.183206106885336,222.97441249812255 61.95610687031876,222.4796069219592 62.358015267062,221.39721960562747 62.45076335873455,220.87148856488056 63.13091603049543,219.41799666458974 63.780152671737596,217.5315492930822 64.08931297704112,216.4182358586695 64.30572519078851,215.21214611054165 64.36755725194234,213.41847380396212 64.15114503819495,211.50109946500743 64.02748091588728,210.078531076957 64.21297709923238,209.33632137160748 64.89312977099326,208.37763372214977 65.7587786258664,208.37763372214977 66.68625954189338,208.5631861804286 67.6755725190742,208.65596240776358 69.46870229020715,209.36724677757593 70.51984732830897,209.76927704241825 71.26183206099086,209.52187380514806 71.8492366411956,209.5527992102434 71.72557251912076,210.4496359009645 72.68396946566645,211.25369628722547 74.0751908395905,212.11960737209301 74.60076335887425,212.70718983456027 75.0026717557339,213.14014530263375 75.46641221374739,213.78957845579134 76.05381679395214,214.81011614960153 76.30114503821824,215.73787756398087 76.05381679395214,216.23268360283691 75.65190839697607,216.75841498188674 75.96106870227959,217.5006239222712 76.42480916029308,218.24283278622897 76.82671755726915,219.97465317166643 76.57938931300305,220.50038427778054 76.9812977098627,221.4281449598493 77.75419847329613,222.10850271751406 78.86717557255179,222.88163645518944 79.26908396952786,223.25274061982054 79.76374045806006,223.56199407583335 80.56755725189578,223.90217286208645 82.11335877864622,224.27327697427245 83.47366412216797,224.5825303865131 84.37022900767624,224.86085844621994 85.60687022900674,225.29381318442756 86.59618320607115,225.78861856774893 87.61641221377067,226.59267724328674 88.32748091605026,227.14933319704141 89.06946564884856,227.9533917211811 89.34770992363337,228.57189821725478 89.6259541985346,229.00485273305094 90.21335877862293,229.49965786212124 90.61526717571542,230.05631359195104 90.95534351153765,230.48926801874768 91.79007633577567,231.1696249229135 92.96488549618516,232.12830954272067 93.89236641221214,232.9942181223887 94.60343511460815,233.8601265984471 94.91259541991167,233.61272418726003 95.09809160314035,232.963292817818 95.46908396948129,232.43756261881208 95.09809160314035,231.94275769073283 93.86145038180985,231.13869961042656 93.36679389316123,230.64389459352242 92.5320610688068,229.9635376399383 92.19198473286815,229.56150850094855 91.72824427485466,228.8502261232352 90.98625954205636,228.20079432590865 90.55343511444516,228.07709302462172 90.12061068695039,227.0256318777101 89.22404580155853,225.88139457331272 88.3893129772041,225.20103717123857 87.9255725190742,224.70623174775392 87.49274809157941,224.33512765786145 86.28702290088404,223.90217286208645 85.97786259534769,223.59291942062555 84.9885496183997,223.22181527351495 83.41183206113055,223.22181527351495 82.79351145029068,223.0981138868956 82.42251908394974,222.9434871506528 81.03129770990927,222.6342336680973 79.94923664128873,222.23220412107185 78.83625954191666,221.58277172857197 78.65076335868798,221.2735181877506 78.58893129765056,219.75817564612953 78.86717557255179,218.7685640185955 79.11450381681789,218.08820594585268 79.05267175578047,217.62432540487498 79.08358778629918,216.07805671932874 78.80534351139795,214.9338176784222 77.9087786260061,213.573100744572 76.9812977098627,212.70718983456027 75.80648854968604,211.87220421555685 74.97175572521519,211.31554708245676 73.61145038180985,210.35685969679616 72.96221374045126,209.83112785039702 71.75648854975589,209.46002299449174 71.16908396943472,209.21261974656954 70.79809160309378,209.18169434001902 70.30343511444516,208.7178132252302 70.17977099237032,208.37763372214977 69.03587786259595,207.8519017311046 68.2011450381251,207.60449842794333 67.11908396938816,207.20246804202907 65.82061068702023,207.20246804202907 64.95496183214709,207.04784096457297 63.59465648850892,207.04784096457297 62.327099236659706,207.0787663803785 61.73969465645496,207.29524428694276 61.090458015329204,207.8519017311046 61.05954198469408,208.7487386338762 61.70877862605266,209.67650082946057 62.512595419888385,210.9753677021945 62.759923664154485,211.50109946500743 62.72900763351936,211.93405500549125 63.007251908420585,213.14014530263375 63.038167938939296,213.51124996872386 63.038167938939296,213.91328000213252 62.97633587778546,215.15029534872156 62.91450381674804,216.51101198478136 62.079770992393605,218.39745962322922 61.894274809164926,218.7685640185955 60.8740458014654,219.72725028492277 60.03931297722738,219.82002636842662 58.92633587785531,219.3561459388584 57.72061068704352,218.6139371895115 57.25687022891361,218.1809820504859 56.360305343405344,217.65525077527855 55.80381679383572,217.4078478088486 54.87633587780874,217.0058179704356 54.31984732823912,216.696564233338 53.73244274803437,216.54193735984154 53.02137404575478,216.26360897911945 52.403053435031325,216.01620596501743 51.413740457966924,216.01620596501743 50.826335877762176,215.86157907691086 49.96068702288903,215.58325066993712 49.24961832060944,214.59363846911583 48.72404580155853,213.91328000213252 48.1366412214702,213.54217535670614 47.178244274808094,213.38754841545597 46.219847328262404,213.23292147094617 45.292366412235424,213.63495151983807 44.30305343505461,213.97513077454641 43.83931297704112,213.91328000213252 43.15916030528024,213.85142922919476 42.38625954196323,213.82050384260947 41.644274809164926,214.03698154637823 41.335114503861405,213.88235461578006 40.8713740457315,214.12975770310732 40.50038167927414,214.84104153205408 40.77862595417537,215.4286237725173 41.82977099227719,215.61417604901362 42.3553435113281,215.4904745318927 41.613358778646216,215.24307149118977 41.05687022896018,214.9338176784222 39.78931297711097,215.27399687177967 38.92366412200499,215.4904745318927 38.58358778618276,215.8925044548232 37.87251908390317,217.03674334351672 37.43969465640839,217.5315492930822 36.85229007632006,217.62432540487498 36.11030534352176,218.3665342561435 35.15190839685965,218.86134011443937 34.53358778625261,219.5107727520517 33.97709923668299,220.22205604985356 33.51335877855308,220.7477871379233 32.64770992367994,221.92295060807373 31.84389312984422,222.9434871506528 31.50381679390557,223.22181527351495 30.885496183065698,223.77847148710862 29.988931297673844,224.61345572705613 29.6179389313329,224.92270912468666 29.030534351128154,225.5721412167186 28.35038167948369,226.1906479167519 27.76297709927894,226.59267724328674 26.46450381667819,227.45858648611465 25.691603053477593,228.10801835020538 23.960305343498476,229.15947933954885 22.476335877901874,229.90168700460345 20.992366412188858,230.3655667566345 20.34312977094669,230.70574522251263 19.075572519097477,231.29332617128966 18.333587786299177,231.94275769073283 17.467938931193203,232.68496507016243 16.725954198394902,233.79827599640703 16.509541984647512,234.16937960044015 16.076717557152733,234.6951096736011 15.551145038101822,235.71564441232476 15.149236641125754,236.8289548723842 14.93282442749478,238.59169608401135 14.901908396976069,239.5194544440601 14.901908396976069,240.57091377518373 15.18015267176088,240.88016649062047 14.592748091439717,241.7769992906251 14.685496183112264,242.48828039801447 14.5,243.01400986727094" stroke="#4DD2FF" stroke-dasharray="none" stroke-linecap="round" stroke-linejoin="round" stroke-width="0.5"><title>2026-06-16 10.1km</title><desc>9223370255286294807</desc></polyline><polyline fill="none" opacity="1" points="111.86082474212162,230.52230123715708 112.32474226795603,230.24386712297564 113.74742268037517,229.62512460851576 114.89175257727038,229.13013055874035 115.97422680410091,228.41857655294007 117.39690721640363,227.39765111799352 118.75773195864167,226.4695369610563 120.08762886596378,225.17017694097012 121.38659793802071,223.7780052315211 122.68556701019406,222.38583325367654 123.08762886596378,221.5195927763125 123.89175257727038,220.71522652579006 124.6340206185123,220.09648319508415 125.68556701019406,219.0136822387576 126.18041237106081,218.79712202801602 127.01546391739976,217.7452580545796 127.60309278336354,217.65244652016554 127.9742268039845,217.12651446909877 127.94329896906856,216.50777083053254 128.87113402050454,215.70340402098373 130.63402061839588,215.5177808983717 131.5618556700647,215.5177808983717 133.01546391739976,215.67246683425037 133.78865979379043,215.98183869605418 135.55154639168177,215.88902713888092 136.13917525764555,215.70340402098373 137.19072164944373,216.04371306672692 138.02577319578268,216.07465025188867 139.1701030926779,216.1055874369922 140.15979381429497,216.50777083053254 140.62371134012938,216.6624567451072 141.39690721640363,216.81714265648043 142.4484536080854,217.28120037040208 142.85051546397153,217.40494908904657 144.05670103081502,217.96181829692796 145.38659793813713,218.4877502869931 145.9123711339198,219.07555658346973 146.25257731950842,219.2611796145211 146.53092783503234,219.81804867903702 147.02577319566626,220.1274203629 147.3659793813713,220.52960353216622 147.73711340187583,221.11740966228535 149.0360824741656,222.26208462042268 150.1804123710608,222.94270207703812 151.5721649484476,223.00457638810622 152.0360824741656,222.38583325367654 152.65463917516172,220.4986663660966 153.45876288646832,218.7661848544376 153.98453608248383,217.06464010762284 154.38659793813713,215.5177808983717 154.35567010298837,214.8990371217369 154.38659793813713,212.9499938779627 154.47938144323416,212.57874748605536 154.20103092782665,211.1865733458544 154.1082474226132,210.6297036143951 154.01546391739976,210.19658268243074 154.1701030926779,209.54690123553155 154.5103092782665,208.74253364867764 155.40721649467014,208.34034982149024 156.73711340199225,208.587847563962 158.46907216485124,208.9590941616916 160.1082474226132,209.67065008712234 161.12886597926263,209.88721057213843 161.5618556700647,210.41314315167256 162.6443298967788,211.27938496362185 163.88144329888746,211.92906625411706 164.4381443299353,212.42406148376176 165.3041237113066,213.44498903752537 165.79896907205693,214.4040420621168 166.2938144330401,215.3012205825653 166.35567010298837,215.8271527668112 165.9845360823674,216.84807983826613 166.231958762859,217.68338369834237 166.88144329888746,219.04461941117188 166.94329896906856,219.72523717128206 166.94329896906856,220.4986663660966 167.40721649478655,221.55052993807476 168.27319587615784,222.4786447272054 169.1082474226132,223.00457638810622 169.3865979380207,223.28301078121876 170.59278350509703,223.870816687122 172.35567010298837,224.4276853959891 173.65463917516172,224.79893117799656 174.39690721652005,224.79893117799656 174.95360824745148,224.98455406184075 176.12886597926263,225.66517126187682 176.9639175258344,226.1292284068768 177.61340206186287,226.56234838208184 178.54123711341526,227.2120282961405 179.3144329895731,228.26389089028817 179.65463917516172,228.91357065137709 180.05670103081502,229.34669045970077 180.33505154633895,229.65606173541164 181.54123711341526,230.89354670612374 182.40721649478655,231.6669747052365 183.21134020620957,232.50227685144637 184.44845360820182,233.61601289641112 184.88144329888746,233.7397613352514 184.78865979379043,233.6778871160932 185.19072164944373,232.8116479922901 185.5,232.4713397367159 185.0360824741656,231.82166029518703 183.45876288658474,230.76979821862187 182.40721649478655,229.77981024206383 182.19072164944373,229.5323132267804 181.35567010310479,228.3876394207473 180.3041237113066,227.30483970767818 179.53092783491593,226.34578839776805 178.60309278336354,225.29392552434 177.86082474223804,224.7370568822953 177.08762886596378,224.08737674570875 176.22164948447607,223.40675939701032 175.01546391751617,222.94270207703812 174.3659793813713,222.78801629709778 173.68556701031048,223.00457638810622 172.5721649483312,222.91176492127124 171.2422680412419,222.69520482746884 170.53092783503234,222.4167704116553 169.13917525764555,221.61240426101722 168.6443298967788,220.09648319508415 168.8298969072057,219.23024244303815 169.07731958758086,218.17837853275705 169.1082474226132,216.47683364717523 168.92268041230273,215.14653463871218 167.9020618556533,213.41405184095493 166.94329896906856,212.64062188606476 166.3247422678396,212.08375226700446 166.01546391751617,211.83625464478973 165.48969072161708,211.49594540032558 164.46907216485124,210.90813848556718 163.26288659789134,209.94908499525627 162.61340206186287,209.51596402237192 161.4381443298189,209.14471745333867 161.19072164956015,208.6497219982557 160.66494845354464,208.6497219982557 160.32474226795603,208.2475381658296 159.02577319578268,207.72160542808706 157.5103092782665,207.3812959890929 156.36597938125487,207.10286098148208 154.88144329888746,207.04098653391702 154.5103092782665,207.07192375778686 152.53092783503234,206.9172376371571 151.72680412360933,207.10286098148208 151.13917525776196,207.75254264904652 151.1082474226132,208.61878478119615 152.0979381443467,210.07283383992035 152.59278350509703,211.00095010688528 152.80927835055627,211.6506314225262 152.53092783503234,212.11468946927926 153.08762886584736,212.9499938779627 153.05670103093144,213.3521774476976 152.99484536086675,213.75436099490616 152.87113402050454,214.74435116926907 152.90206185553689,216.04371306672692 152.71649484534282,216.60058237973135 152.53092783503234,217.40494908904657 152.19072164944373,218.0546298273839 151.78865979367401,218.73524768085917 150.95360824745148,219.50867698184447 150.3659793813713,219.72523717128206 149.59278350498062,219.66336283209966 148.72680412360933,219.1993052714388 148.26288659777492,218.98274506616872 146.77835051552393,217.86900676530786 145.81958762882277,217.40494908904657 145.07731958758086,217.00276574556483 144.27319587615784,216.60058237973135 143.28350515465718,216.29121054452844 142.9742268039845,216.13652462192113 142.35567010310479,216.07465025188867 141.52061855664942,216.04371306672692 140.93298969068564,215.7962155805435 140.15979381429497,215.48684371082345 139.3865979380207,214.43497925437987 138.95360824733507,214.15654451958835 137.9020618556533,213.6306122134556 136.35567010310479,213.38311464438448 135.08762886596378,213.69248660444282 134.62371134012938,213.84717257943703 134.09793814423028,213.69248660444282 133.231958762859,213.47592623380478 132.3659793814877,213.69248660444282 131.53092783491593,213.84717257943703 131.25257731962483,213.7852981898468 130.5721649483312,214.80622555065202 130.81958762870636,215.42496933526127 131.46907216496766,215.5177808983717 132.27319587615784,215.54871808574535 132.14948453602847,215.17747182777384 131.62371134012938,215.14653463871218 130.94329896906856,214.68247678736225 129.92268041230273,215.08466026029782 128.8402061855886,215.48684371082345 128.09793814423028,216.2602733602398 127.94329896906856,217.03370292671025 127.13917525764555,217.5905721631716 126.7061855669599,217.714320876461 125.34536082460545,218.7661848544376 124.38659793802071,219.94179735414218 123.76804123702459,220.43679203354986 122.68556701019406,221.7980272268178 122.09793814423028,222.4167704116553 121.72680412372574,222.7570791406324 121.01546391751617,223.46863370406209 120.27319587627426,224.4276853959891 119.74742268037517,224.95361691492144 118.88144329888746,225.8817312665633 117.92268041230273,226.4076626796741 117.52061855664942,226.6860969416448 116.84020618558861,227.36671398131875 116.15979381441139,227.61421107081696 114.89175257727038,228.60419934388483 113.56185567006469,229.25387907441473 112.66494845354464,229.68699886230752 110.93298969068564,230.46042699052487 109.20103092782665,231.23385503597092 107.65463917516172,232.44040262175258 106.6340206185123,233.33757890126435 106.13917525764555,234.35850349784596 105.86082474212162,234.79162298014853 105.36597938137129,235.68879896821454 105.18041237106081,236.1837925692089 104.93298969068564,237.20471676444868 104.90206185553689,238.00908118055668 104.8402061854722,239.30843889486277 104.65463917516172,240.20561432349496 104.90206185553689,240.9790413279552 104.74742268037517,242.15465021680575 104.80927835032344,242.64964337617857" stroke="#4DD2FF" stroke-dasharray="none" stroke-linecap="round" stroke-linejoin="round" stroke-width="0.5"><title>2026-06-11 10.2km</title><desc>9223370255717407907</desc></polyline></svg>