<?xml version="1.0" encoding="utf-8" ?>
<svg baseProfile="full" height="300mm" version="1.1" viewBox="0,0,200,300" width="200mm" xmlns="http://www.w3.org/2000/svg" xmlns:ev="http://www.w3.org/2001/xml-events" xmlns:xlink="http://www.w3.org/1999/xlink"><defs /><rect fill="#222222" height="300" width="200" x="0" y="0" /><text fill="#FFFFFF" style="font-size:12px; font-family:Arial; font-weight:bold;" x="10" y="20">Over 10km Runs</text><text fill="#FFFFFF" style="font-size:4px; font-family:Arial" x="10" y="280">Runner</text><text fill="#FFFFFF" style="font-size:9px; font-family:Arial" x="10" y="290">Yanfu</text><text fill="#FFFFFF" style="font-size:4px; font-family:Arial" x="65" y="280">SPECIAL TRACKS</text><rect fill="yellow" height="2.6" width="2.6" x="65" y="283" /><text fill="#FFFFFF" style="font-size:3px; font-family:Arial" x="70" y="285.5">Over 20.0 km</text><rect fill="red" height="2.6" width="2.6" x="65" y="287" /><text fill="#FFFFFF" style="font-size:3px; font-family:Arial" x="70" y="289.5">Over 40.0 km</text><text fill="#FFFFFF" style="font-size:4px; font-family:Arial" x="120" y="280">STATISTICS</text><text fill="#FFFFFF" style="font-size:3px; font-family:Arial" x="120" y="285">Number: 3</text><text fill="#FFFFFF" style="font-size:3px; font-family:Arial" x="120" y="290">Weekly: 1.5</text><text fill="#FFFFFF" style="font-size:3px; font-family:Arial" x="141" y="285">Total: 30.4 km</text><text fill="#FFFFFF" style="font-size:3px; font-family:Arial" x="141" y="290">Avg: 10.1 km</text><text fill="#FFFFFF" style="font-size:3px; font-family:Arial" x="167" y="285">Min: 10.1 km</text><text fill="#FFFFFF" style="font-size:3px; font-family:Arial" x="167" y="290">Max: 10.2 km</text><polyline fill="none" opacity="1" points="14.5,96.86347322684014 15.005878030904569,95.94071544794133 15.839088905253448,95.37515416851966 16.01763409259729,94.15473230439238 16.434239529888146,93.49987170402892 16.761572373332456,93.14267498708796 16.88060249807313,92.36874870432075 17.088905216776766,90.8804286889499 16.999632623046637,90.46369902777951 17.62454077892471,89.481407585321 17.535268185078166,88.20145186182344 17.803085966268554,87.51682428544154 17.713813372538425,86.41546673909761 18.16017634095624,85.93920396250905 18.249448934569955,84.77831330831395 18.249448934569955,83.76625463162782 18.45775165327359,82.69466293143341 19.40999265247956,81.56353818025673 19.52902277733665,81.32540663029067 19.61829537106678,80.93844284419902 19.677810433437116,80.16451520775445 20.272961058071814,79.62871910131071 20.897869213833474,78.46782739588525 21.552534900722094,77.30693549703574 22.326230712700635,76.80090563429985 23.30822924314998,76.26510926906485 24.855620866990648,75.61024698871188 26.25422483473085,74.83631875994615 27.17670830269344,74.44935461314162 27.831373989698477,74.00285749410978 29.40852314478252,73.10986316989874 30.271491550374776,72.45500059251208 31.253490080824122,71.80013795359991 31.99742836144287,71.08574227709323 33.00918442313559,70.0439151172177 33.60433504777029,69.35928575560683 34.110213078558445,68.82348881690996 35.00293901551049,67.81142781995004 35.300514327711426,67.39469677838497 36.07421013957355,66.20403652166715 37.324026451213285,64.98360954661621 37.740631888387725,64.65617788268719 38.36554004403297,64.26921316894004 39.07972079364117,63.58458323800005 39.94268919911701,63.10831889847759 40.0617193239741,62.36415580229368 40.71638501097914,61.858124851365574 41.490080822841264,61.3818603932159 42.561351947137155,61.3520938634756 42.94819985306822,61.3818603932159 44.257531227194704,61.3818603932159 44.912196914083324,61.14372815185925 45.358559882384725,61.23302774329204 45.71565025718883,61.70929221174447 46.19177075685002,61.79859179595951 46.69764878775459,61.76882526796544 47.20352681854274,61.59022609767271 47.94746509916149,61.41162692283979 49.37582659802865,61.739058739854954 50.2685525349807,61.917657906364184 51.458853784017265,61.739058739854954 50.98273328423966,61.94742443365976 53.184790595201775,62.78088714595651 54.40484937548172,63.10831889847759 55.297575312433764,63.52505019737873 56.904481998528354,64.35851272020955 57.35084496694617,64.74547742895084 57.886480529094115,65.25150816928362 58.51138868473936,65.90637142554624 58.8387215284165,66.26356953935465 59.047024246887304,66.68030064878985 59.85047759010922,67.2160977528547 60.475385745754465,68.0793263335363 61.130051432875916,68.79372231912566 61.665686994907446,69.03185429802397 62.73695811908692,67.78166131785838 63.332108743605204,66.85889968811534 63.867744305636734,65.78730538359378 64.58192505512852,64.2989796862239 64.96877296105959,63.01901933114277 65.35562086710706,61.70929221174447 65.50440852309112,60.63769711187342 65.47465099196415,60.10189949988853 65.47465099196415,58.94100453169085 65.38537839823402,57.39314427168574 65.08780308591668,56.58944746182533 65.32586333574727,55.54761812504148 65.77222630416509,54.743921101035085 66.96252755331807,54.5057886315044 68.21234386472497,54.71415454283124 70.05731080088299,55.309485683217645 70.89052167534828,55.69645089702681 72.05106539314147,56.02388298412552 72.52718589280266,56.648980561993085 73.95554739166982,57.601510095992126 75.26487876556348,58.613572582486086 75.80051432782784,59.179136848659255 76.75275532703381,60.75676324230153 76.72299779579043,61.94742443365976 76.33614988985937,62.572521477239206 76.39566495234612,62.89995323959738 76.54445260844659,63.55481671780581 76.9908155768644,64.35851272020955 77.40742101403885,65.3110411951784 77.28839088906534,66.14450350345578 77.19911829533521,67.03749872284243 78.00257163855713,67.72212831315119 79.34166054369416,68.37699133640854 79.84753857459873,68.64488982816692 80.65099191782065,69.269986268715 82.37692872900516,69.74625018570805 82.97207935340703,69.95461563905701 83.92432035272941,70.19274757814128 84.81704628956504,70.37134652707027 85.79904482001439,70.72854441124946 87.16789125651121,71.50247309729457 87.7630418810295,72.00850334536517 88.26891991193406,72.21686873096041 88.77479794272222,72.57406652031932 89.36994856735691,73.55636034626514 89.6080088170711,74.50888756022323 89.90558412938844,74.83631875994615 90.64952241012361,75.4911811130005 91.72079353418667,76.29487573483493 92.13739897136111,76.74137270689243 92.64327700214926,77.06880380149232 93.83357825130224,78.05109699291643 94.30969875096343,78.76549195422558 94.72630418825429,78.97385713743279 94.75606171938125,78.58689322078135 95.5,77.78319886355894 94.54775900079403,76.77113917068345 93.59551800147165,75.96744460385526 93.0598824393237,75.61024698871188 92.67303453350905,75.19351641467074 91.66127847181633,74.21122281986754 91.3339456282556,73.85402511467692 90.70903747249395,73.46706091339001 90.59000734763686,73.05033021082636 89.87582659814507,71.97873686125968 89.8460690670181,71.68107201263774 88.62601028662175,70.96667632379103 87.67376928741578,70.0439151172177 86.7215282880934,69.35928575560683 86.09662013233174,68.70442282495787 84.81704628956504,68.58535683096852 84.37068332114723,68.58535683096852 83.239897134481,68.6746563265915 82.46620132250246,68.55559033213649 80.79977957392111,67.93049382732715 79.72850844962522,67.8411943220417 79.46069066866767,67.39469677838497 78.92505510663614,65.93613793578697 79.19287288771011,65.22174165619072 79.63923585601151,64.00131450837944 79.5499632623978,62.661821050336584 79.5499632623978,61.471159981621895 79.22263041872066,60.48886444600066 78.59772226307541,59.65540145820705 77.25863335782196,58.494506415270735 76.15760470239911,57.63127664185595 74.93754592211917,56.97641260409728 74.37215282896068,56.410848158062436 73.59845701686572,55.785750558716245 72.67597354890313,55.54761812504148 71.63445995596703,54.98205356230028 71.33688464353327,54.743921101035085 71.00955180008896,54.29742271400755 69.96803820726927,54.029523668054026 69.0157972080633,53.79139117395971 68.24210139608476,53.583025234984234 67.34937545913272,53.285359596891794 66.12931667896919,53.285359596891794 64.79022777371574,53.22582646779483 63.80822924314998,53.13652677310165 63.24283614999149,53.25559303240152 62.58817046287004,53.40442585363053 62.290595150669105,53.88069086021278 62.32035268191248,54.476022072311025 62.498897869256325,55.07135323318653 62.79647318145726,55.607151234231424 63.332108743605204,56.291781953012105 63.68919911829289,56.738280211400706 63.95701689936686,57.63127664185595 63.98677443061024,58.4647398731322 63.867744305636734,59.11960377020296 64.07604702422395,60.28049870842369 63.98677443061024,61.79859179595951 63.54041146207601,63.16785194264958 62.945260837557726,64.62641136703314 61.933504775865,65.43010724527994 61.01102130790241,65.54917329346063 60.02902277733665,65.04314257478109 59.31484202796128,64.62641136703314 58.89823659078684,64.41804575372953 58.06502571643796,63.644116278213914 57.41036002943292,63.316684551071376 56.75569434231147,62.98925280838739 55.952240999322385,62.63205452612601 55.56539309339132,62.572521477239206 55.05951506237034,62.33438927686075 54.434606906725094,62.21532317355741 53.83945628220681,61.59022609767271 53.09551800135523,61.59022609767271 52.76818515791092,61.59022609767271 50.952975753112696,60.25073217402678 50.625642909668386,59.89353375061182 49.76267450407613,59.23866992664989 48.36407053633593,58.851704910746776 47.62013225571718,59.14937030954752 46.84643644373864,59.62563492101617 45.86443791340571,59.92330028663855 45.29904481989797,60.01259989378741 44.43607641442213,59.59586838376708 43.81116825866047,59.804234141949564 43.096987509168684,59.89353375061182 42.65062454075087,60.13166603492573 42.44232182216365,60.578164045873564 42.561351947137155,61.14372815185925 42.85892725933809,61.3818603932159 44.04922850849107,61.59022609767271 44.22777369583491,61.3520938634756 43.5433504775865,61.054428559262305 42.41256429103669,60.99489549687132 40.865172667312436,61.26279427355621 40.091476855333894,61.97719096078072 39.73438648052979,62.95948628563201 39.2582659808686,63.346451072371565 38.24650991917588,63.97154798993142 37.770389419514686,64.2989796862239 36.40154298301786,65.51940678159008 35.41954445268493,66.56123462010873 34.82439382816665,67.39469677838497 34.199485672288574,68.13885933515849 33.75312270387076,68.52582383312983 33.24724467296619,69.18068678065902 32.80088170466479,69.74625018570805 31.580822924268432,70.72854441124946 30.33100661286153,72.00850334536517 29.40852314478252,72.78243188891793 27.861131520941854,73.58612682373496 26.90889052161947,74.27075576904463 26.224467303371057,74.59818697988521 25.301983835408464,75.01491758960765 24.409257898689248,75.28281582560157 23.427259368123487,75.84837873413926 22.058412931743078,76.56277392152697 21.612049963325262,76.68183977890294 20.83835415134672,77.36646841961192 20.005143276997842,77.90226470009657 19.677810433437116,78.4975938522839 19.052902277791873,79.6584855527617 18.75532696535811,79.98591651016613 18.21969140332658,81.35517307452392 18.041146215982735,82.75419580802554" stroke="#4DD2FF" stroke-dasharray="none" stroke-linecap="round" stroke-linejoin="round" stroke-width="0.5"><title>2026-06-20 10.1km</title><desc>9223370254938036107</desc></polyline><polyline fill="none" opacity="1" points="107.76440677954815,82.64469559764257 108.58813559322152,82.12589608161943 109.13728813559283,81.02726168802474 109.74745762697421,79.7150037184474 110.87627118628006,78.95206292753574 112.12711864407174,78.43326314311707 112.9508474576287,78.03653387073427 113.46949152532034,77.85342804534594 114.4762711863732,77.30411054077558 115.02542372886091,77.05996941408375 116.61186440673191,76.14444011443993 117.13050847453997,75.90029894805048 118.25932203384582,75.07632244966226 119.72372881346382,74.00820462492993 120.73050847451668,73.12319259159267 121.37118644057773,72.36025109543698 121.58474576263689,72.05507447407581 122.19491525413468,71.56679185270332 123.4152542372467,70.31556748272851 124.14745762711391,69.06434289284516 124.75762711872812,68.54554238868877 124.97118644055445,68.30140096182004 125.52033898304217,67.4469059020048 126.25254237279296,66.8365522249951 127.32033898297232,66.10412774351425 127.86949152546003,65.52429164230125 128.72372881346382,65.0360085729044 129.33389830507804,63.7237476578448 130.43220338982064,63.35753526625922 131.6830508473795,63.38805296632927 132.62881355918944,63.32701756613096 133.48305084730964,63.32701756613096 134.33728813554626,63.78478305472527 135.61864406778477,63.845818450907245 136.47288135590497,63.60167686280329 136.77796610165387,63.479606065608095 137.11355932208244,63.479606065608095 138.88305084733292,64.02892463648459 140.04237288131844,63.998406939266715 140.71355932194274,63.78478305472527 141.0491525422549,64.24254851369187 141.8423728812486,64.51720777497394 142.57457627123222,64.944455493649 144.06949152552988,65.28015011176467 145.04576271190308,65.7989508540486 145.90000000002328,66.22619849565672 146.41864406783134,66.7755168544827 146.96779661008622,67.50794126681285 147.8525423728861,68.51502471073763 148.67627118644305,69.30848429352045 149.4389830508735,70.0103907737066 150.38474576268345,70.49867350183195 151.11694915255066,71.07850919786142 151.63559322035871,70.68177951616235 152.39830508478917,70.19349680072628 152.7949152541114,69.12537824374158 152.88644067791756,68.60657774406718 153.55762711865827,67.17224675387843 154.19830508471932,65.31066780351102 154.50338983046822,64.21203081734711 154.71694915252738,63.02184055745602 154.77796610165387,61.25181364850141 154.56440677971113,59.35971543076448 154.4423728812253,57.9559002983151 154.62542372872122,57.22347490169341 155.29661016946193,56.277425319189206 156.15084745758213,56.277425319189206 157.06610169482883,56.46053169982042 158.04237288143486,56.5520848883898 159.81186440691818,57.25399262807332 160.84915254241787,57.650723058963194 161.58135593216866,57.40658125793561 162.1610169491032,57.43709898350062 162.03898305085022,58.32211296830792 162.98474576266017,59.11557368852664 164.35762711858843,59.970069749630056 164.8762711865129,60.54990630393149 165.27288135595154,60.97715426114155 165.7305084746331,61.61802614858607 166.31016949156765,62.62511042651022 166.55423728819005,63.540641464467626 166.31016949156765,64.02892463648459 165.913559322129,64.54772547003813 166.2186440678779,65.28015011176467 166.67627118644305,66.01257467805408 167.0728813558817,67.72156503959559 166.8288135593757,68.24036560382228 167.22542372869793,69.15589591913158 167.9881355932448,69.82728474208852 169.0864406779874,70.59022650960833 169.48305084754247,70.95643852895591 169.97118644078728,71.26161519740708 170.76440677966457,71.59730951749953 172.28983050852548,71.96352148515871 173.63220338977408,72.26869811036158 174.51694915257394,72.5433570619789 175.73728813568596,72.97060429892736 176.71355932205915,73.45888682408258 177.72033898311201,74.2523458560463 178.42203389829956,74.8016635957174 179.15423728816677,75.59512247826206 179.42881355935242,76.20547540474217 179.70338983053807,76.63272242224775 180.28305084747262,77.12100469652796 180.6796610171441,77.67032221518457 181.01525423733983,78.09756914485479 181.83898305078037,78.76895712560508 182.9983050847659,79.7150037184474 183.913559322129,80.56949730741326 184.61525423731655,81.42399079410825 184.92033898318186,81.17984980833717 185.10338983067777,80.5389796810341 185.46949152543675,80.02018001192482 185.10338983067777,79.53189793607453 183.88305084756576,78.7384394914261 183.39491525432095,78.25015732785687 182.571186440764,77.57876929832855 182.23559322045185,77.18203997850651 181.7779661017703,76.48013420461211 181.04576271190308,75.83926365507068 180.61864406778477,75.71719306777231 180.19152542366646,74.67959299060749 179.30677966109943,73.55043979379116 178.48305084754247,72.87905132171 178.02542372886091,72.39076875685714 177.5983050847426,72.02455681125866 176.40847457642667,71.59730951749953 176.10338983044494,71.29213286348386 175.12711864407174,70.92592086142395 173.571186440764,70.92592086142395 172.96101694914978,70.80385018984089 172.59491525427438,70.65126184746623 171.22203389834613,70.34608515287982 170.15423728828318,69.94935543037718 169.05593220330775,69.30848429352045 168.87288135581184,69.00330754136667 168.81186440680176,67.50794126681285 169.0864406779874,66.53137536690338 169.33050847460981,65.8599862329429 169.26949152548332,65.40222087799339 169.30000000004657,63.876336148765404 169.02542372886091,62.74718123837374 168.14067796617746,61.40440219256561 167.22542372869793,60.54990630393149 166.06610169506166,59.72592802834697 165.2423728813883,59.1766091248719 163.9000000001397,58.23055980261415 163.25932203396223,57.711758507881314 162.06949152552988,57.34554580639815 161.4898305083625,57.10140399489319 161.12372881360352,57.07088626787299 160.63559322035871,56.61312034673756 160.5135593219893,56.277425319189206 159.38474576268345,55.758623881672975 158.5610169491265,55.514482015627436 157.49322033894714,55.11775146535365 156.21186440682504,55.11775146535365 155.35762711870484,54.96516278630588 154.01525423722342,54.96516278630588 152.76440677966457,54.995680522406474 152.1847457626136,55.20930467126891 151.54406779666897,55.758623881672975 151.5135593219893,56.64363807573682 152.15423728816677,57.55916988453828 152.94745762716047,58.8409142185119 153.19152542378288,59.35971543076448 153.1610169491032,59.786963459453546 153.43559322040528,60.97715426114155 153.4661016948521,61.34336677531246 153.4661016948521,61.740096977795474 153.40508474572562,62.960805154114496 153.34406779659912,64.30358390603215 152.52033898304217,66.16516311990563 152.33728813554626,66.53137536690338 151.3305084744934,67.47742358449614 150.50677966116928,67.56897663115524 149.40847457619384,67.11121138616 148.2186440677615,66.37878693290986 147.76101694907993,65.95153930044034 146.87627118639648,65.43273856933229 146.32711864402518,65.18859703565249 145.41186440677848,64.791867025604 144.86271186440717,64.48669007973513 144.2830508473562,64.33410160196945 143.58135593216866,64.05944233358605 142.97118644055445,63.815300752816256 141.99491525418125,63.815300752816256 141.4152542372467,63.66271226061508 140.5610169491265,63.38805296632927 139.85932203382254,62.411486500757746 139.3406779661309,61.740096977795474 138.76101694919635,61.373884483997244 137.81525423726998,61.221295939350966 136.86949152546003,61.06870739144506 135.95423728809692,61.46543760917848 134.9779661016073,61.801132391614374 134.52033898304217,61.740096977795474 133.84915254230145,61.6790615633945 133.0864406779874,61.6485438561067 132.3542372881202,61.8621678048512 132.0491525423713,61.7095792706823 131.59152542368975,61.953720923746005 131.22542372869793,62.65562812972348 131.49999999988358,63.23546446493128 132.5372881354997,63.418570666224696 133.05593220330775,63.29649986588629 132.32372881355695,63.05235825886484 131.77457627118565,62.74718123837374 130.5237288135104,63.08287596021546 129.66949152539019,63.29649986588629 129.33389830507804,63.693229959346354 128.63220338977408,64.82238471956225 128.20508474565577,65.31066780351102 127.62542372883763,65.40222087799339 126.89322033908684,66.13464543182636 125.94745762704406,66.62292842572788 125.33728813554626,67.26379980443744 124.78813559317496,67.96570648625493 124.3305084744934,68.48450703267008 123.4762711863732,69.64417870569741 122.6830508474959,70.65126184746623 122.34745762706734,70.92592086142395 121.73728813545313,71.47523885749979 120.85254237276968,72.2992157721892 120.4864406780107,72.60439238307299 119.90677966095973,73.2452632234199 119.23559322033543,73.8556163511239 118.65593220340088,74.2523458560463 117.37457627116237,75.10684009944089 116.61186440673191,75.74771071487339 114.9033898304915,76.78531063656555 113.4389830508735,77.51773401978426 111.97457627113909,77.9754985961481 111.33389830496162,78.31119260011474 110.08305084740277,78.89102766074939 109.35084745753556,79.53189793607453 108.49661016941536,80.26432103739353 107.76440677954815,81.36295554839307 107.550847457489,81.72916701453505 107.1237288134871,82.24796655942919 106.60508474567905,83.25504792120773 106.2084745762404,84.35368197219213 105.99491525418125,86.09318554069614 105.964406779618,87.00871356460266 105.964406779618,88.04631184984464 106.23898305080365,88.35148778749863 105.65932203375269,89.23649793292861 105.75084745744243,89.93840245320462 105.56779661017936,90.45720140216872 105.50677966093644,91.49479918723227 105.07966101681814,92.22722106258152 104.77457627106924,92.7765374199953 104.8661016948754,93.90568757767323 104.68305084737949,94.48552137322258 104.5,95.09587268624455" stroke="#4DD2FF" stroke-dasharray="none" stroke-linecap="round" stroke-linejoin="round" stroke-width="0.5"><title>2026-06-16 10.1km</title><desc>9223370255286294807</desc></polyline><polyline fill="none" opacity="1" points="18.64067164179869,231.46988273388706 19.638059701537713,230.71405921556288 20.15186567173805,229.2628778340295 20.72611940302886,228.5675199830439 22.207089552422985,227.78146319970256 23.536940298508853,227.2070370335132 23.990298507502303,226.93494041223312 25.380597015027888,226.33028121618554 26.49888059706427,225.846553822048 27.556716418010183,225.15119563502958 28.947014925419353,224.15350768202916 30.27686567173805,223.24651851144154 31.576492537395097,221.97673347691307 32.84589552239049,220.61624925787328 34.1152985075023,219.25576477654977 34.508208955288865,218.40924096677918 35.29402985086199,217.6231830525794 36.01940298511181,217.01852305885404 37.04701492539607,215.9603679451393 37.53059701505117,215.74873690336244 38.346641791053116,214.72081460995832 38.920895522343926,214.63011557684513 39.28358208946884,214.1161543672788 39.253358209040016,213.51149407273624 40.160074626794085,212.72543561219936 41.882835820899345,212.54403749346966 42.789552238886245,212.54403749346966 44.21007462684065,212.69520259281853 44.96567164186854,212.99753278162098 46.688432835857384,212.90683372627245 47.26268656726461,212.72543561219936 48.29029850754887,213.0579988177633 49.10634328366723,213.08823183563072 50.22462686570361,213.11846485343995 51.191791044780985,213.51149407273624 51.645149253774434,213.66265915118856 52.40074626868591,213.81382422649767 53.42835820897017,214.26731943280902 53.821268656873144,214.38825148285832 55.0,214.93244568258524 56.29962686577346,215.44640683260513 56.813432835857384,216.02083395590307 57.14589552243706,216.2022319851676 57.417910447809845,216.74642604484688 57.901492537232116,217.04875605978305 58.233955223928206,217.4417850598693 58.596641791053116,218.01621202065144 59.86604477616493,219.13483280997025 60.98432835820131,219.79995860054623 62.34440298518166,219.86042457842268 62.797761194058694,219.25576477654977 63.402238806011155,217.41155206068652 64.18805970146786,215.7185038968455 64.7018656716682,214.05568834015867 65.09477611945476,212.54403749346966 65.06455223879311,211.93937706405995 65.09477611945476,210.034696371702 65.1854477613233,209.67189999093534 64.9134328358341,208.31141339649912 64.82276119408198,207.76721868501045 64.73208955221344,207.34395610261708 64.88320895517245,206.70906218123855 65.21567164186854,205.9230029610335 66.09216417907737,205.52997331804363 67.39179104473442,205.7718377163401 69.08432835817803,206.13463429821422 70.68619402986951,206.82999436120735 71.68358208949212,207.04162567097228 72.10671641794033,207.5555873970152 73.16455223876983,208.40211251098663 74.37350746267475,209.03700627957005 74.91753731353674,209.52073482680134 75.76380597020034,210.51842485036468 76.24738805962261,211.45564868301153 76.73097014927771,212.3324063490727 76.7914179104846,212.84636768879136 76.42873134324327,213.84405724110547 76.67052238807082,214.66034858796047 77.30522388056852,215.9906009506085 77.3656716417754,216.65572703781072 77.3656716417754,217.41155206068652 77.81902985076886,218.439473961771 78.66529850743245,219.34646375011653 79.48134328366723,219.86042457842268 79.7533582089236,220.13252147228923 80.93208955228329,220.70694821397774 82.65485074627213,221.25114192609908 83.92425373126753,221.6139377108193 84.64962686575018,221.6139377108193 85.19365671649575,221.79533559613628 86.34216417907737,222.46046113601187 87.15820895531215,222.91395578632364 87.79291044780985,223.33721743372735 88.69962686568033,223.97210985718993 89.4552238805918,225.00003080279566 89.78768656717148,225.63492307678098 90.18059701484162,226.05818456108682 90.45261194033083,226.3605141771841 91.63134328369051,227.56983251235215 92.47761194035411,228.32565636670915 93.26343283581082,229.14194603869691 94.47238805971574,230.23033212142764 94.89552238804754,230.35126389807556 94.80485074629541,230.29079801001353 95.19776119408198,229.44427552295383 95.5,229.11171308963094 95.04664179100655,228.47682112792972 93.50522388063837,227.44890068814857 92.47761194035411,226.48144602007233 92.26604477618821,226.2395823323168 91.45000000006985,225.12096266890876 90.42238805978559,224.06280877016252 89.6667910447577,223.12558661325602 88.76007462688722,222.09766539477278 88.03470149252098,221.55347174796043 87.27910447760951,220.9185791069758 86.4328358208295,220.2534534218721 85.25410447770264,219.79995860054623 84.61940298508853,219.64879365364322 83.95447761192918,219.86042457842268 82.86641791043803,219.7697256114334 81.5667910448974,219.55809468391817 80.8716417910764,219.2859977678745 79.51156716421247,218.49993995123077 79.02798507455736,217.01852305885404 79.20932835817803,216.17199898062972 79.45111940300558,215.14407674892573 79.48134328366723,213.48126105661504 79.30000000004657,212.1812412419822 78.30261194030754,210.48819182132138 77.3656716417754,209.73236605571583 76.76119402970653,209.18817145412322 76.45895522390492,208.94630717334803 75.945149253821,208.61374377360335 74.94776119408198,208.03931604605168 73.76902985072229,207.10209175839555 73.13432835834101,206.6788291359553 71.98582089552656,206.31603258213727 71.74402985081542,205.83230381458998 71.23022388061509,205.83230381458998 70.89776119403541,205.43927416647784 69.6283582089236,204.9253122858354 68.1473880597623,204.59274869598448 67.02910447749309,204.3206512016477 65.57835820887703,204.2601850903593 65.21567164186854,204.2904181460617 63.28134328359738,204.13925286621088 62.495522388024256,204.3206512016477 61.92126865684986,204.95554533868562 61.89104477618821,205.80207076558145 62.85820895526558,207.22302393155405 63.34179104480427,208.13001516408985 63.55335820908658,208.7649089571787 63.28134328359738,209.21840448869625 63.825373134342954,210.034696371702 63.79514925379772,210.42772576317657 63.734701492707245,210.82075513259042 63.613805970177054,211.78821194858756 63.64402985072229,213.0579988177633 63.46268656721804,213.60219312022673 63.28134328359738,214.38825148285832 62.94888059713412,215.02314471179852 62.55597014923114,215.68827089027036 61.7399253732292,216.4440960168722 61.16567164182197,216.65572703781072 60.410074626794085,216.59526103246026 59.56380597013049,216.14176597597543 59.11044776113704,215.93013493955368 57.659701492637396,214.841746652266 56.72276119410526,214.38825148285832 55.99738805973902,213.99522231245646 55.2115671641659,213.60219312022673 54.24440298520494,213.2998629574431 53.94216417905409,213.14869787113275 53.33768656721804,213.08823183563072 52.52164179109968,213.0579988177633 51.94738805969246,212.81613466981798 51.191791044780985,212.51380447327392 50.43619402986951,211.48588170780567 50.01305970153771,211.21378448005999 48.985447761253454,210.69982302124845 47.47425373143051,210.45795879233629 46.23507462698035,210.76028907718137 45.7817164179869,210.91145421465626 45.26791044778656,210.76028907718137 44.421641791122966,210.54865787911694 43.57537313445937,210.76028907718137 42.75932835822459,210.91145421465626 42.48731343296822,210.85098816006212 41.82238805969246,211.84867799509084 42.06417910452001,212.45333843241679 42.69888059713412,212.54403749346966 43.484701492474414,212.57427051354898 43.363805970177054,212.21147426369134 42.84999999997672,212.1812412419822 42.18507462693378,211.7277459015022 41.18768656719476,212.1207751982729 40.129850746365264,212.51380447327392 39.40447761199903,213.2696299403906 39.253358209040016,214.02545532642398 38.46753731346689,214.56964955414878 38.04440298513509,214.6905815989594 36.714552238816395,215.7185038968455 35.77761194028426,216.8673580523464 35.1731343283318,217.3510860617971 34.1152985075023,218.6813379167579 33.54104477609508,219.2859977678745 33.17835820908658,219.6185606638319 32.48320895526558,220.31391939573223 31.75783582101576,221.25114192609908 31.244029850815423,221.76510261563817 30.39776119403541,222.67209197644843 29.46082089561969,223.1860525626107 29.06791044783313,223.458149328304 28.402985074790195,224.12327471148456 27.73805970151443,224.36513847170863 26.49888059706427,225.33259342960082 25.199253731407225,225.9674856737838 24.322761194081977,226.39074713812442 22.630223880754784,227.14657111861743 20.93768656719476,227.90239501826 19.426492537371814,229.08148014033213 18.42910447763279,229.95823561644647 17.945522388094105,230.95592275017407 17.673507462721318,231.37918391590938 17.189925373182632,232.25593910727184 17.00858208956197,232.73966606281465 16.766791044850834,233.73735280439723 16.736567164189182,234.52340892591747 16.67611940309871,235.79319170722738 16.494776119478047,236.66994635178708 16.736567164189182,237.42576923419256 16.58544776123017,238.57461986102862 16.64589552243706,239.05834638501983 16.19253731344361,240.1164980411413 16.343656716519035,240.53975865937537 15.64850746281445,241.74907457223162 15.708955223904923,242.44443112873705 15.255597015027888,243.56304805487162 14.983582089771517,244.50026750582037 14.5,245.86074713378912" stroke="#4DD2FF" stroke-dasharray="none" stroke-linecap="round" stroke-linejoin="round" stroke-width="0.5"><title>2026-06-11 10.2km</title><desc>9223370255717407907</desc></polyline></svg>