<?xml version="1.0" encoding="utf-8" ?>
<svg baseProfile="full" height="300mm" version="1.1" viewBox="0,0,200,300" width="200mm" xmlns="http://www.w3.org/2000/svg" xmlns:ev="http://www.w3.org/2001/xml-events" xmlns:xlink="http://www.w3.org/1999/xlink"><defs /><rect fill="#222222" height="300" width="200" x="0" y="0" /><text fill="#FFFFFF" style="font-size:12px; font-family:Arial; font-weight:bold;" x="10" y="20">Over 10km Runs</text><text fill="#FFFFFF" style="font-size:4px; font-family:Arial" x="10" y="280">Runner</text><text fill="#FFFFFF" style="font-size:9px; font-family:Arial" x="10" y="290">Yanfu</text><text fill="#FFFFFF" style="font-size:4px; font-family:Arial" x="65" y="280">SPECIAL TRACKS</text><rect fill="yellow" height="2.6" width="2.6" x="65" y="283" /><text fill="#FFFFFF" style="font-size:3px; font-family:Arial" x="70" y="285.5">Over 20.0 km</text><rect fill="red" height="2.6" width="2.6" x="65" y="287" /><text fill="#FFFFFF" style="font-size:3px; font-family:Arial" x="70" y="289.5">Over 40.0 km</text><text fill="#FFFFFF" style="font-size:4px; font-family:Arial" x="120" y="280">STATISTICS</text><text fill="#FFFFFF" style="font-size:3px; font-family:Arial" x="120" y="285">Number: 4</text><text fill="#FFFFFF" style="font-size:3px; font-family:Arial" x="120" y="290">Weekly: 2.0</text><text fill="#FFFFFF" style="font-size:3px; font-family:Arial" x="141" y="285">Total: 40.5 km</text><text fill="#FFFFFF" style="font-size:3px; font-family:Arial" x="141" y="290">Avg: 10.1 km</text><text fill="#FFFFFF" style="font-size:3px; font-family:Arial" x="167" y="285">Min: 10.1 km</text><text fill="#FFFFFF" style="font-size:3px; font-family:Arial" x="167" y="290">Max: 10.2 km</text><polyline fill="none" opacity="1" points="14.5,96.56076450034743 15.185682738316245,96.2923740647384 15.811740890494548,94.8907794005936 15.960802355548367,94.35399839119054 16.55704821483232,93.66811148583656 16.61667280085385,93.10150920902379 16.94460802350659,91.8788409816334 16.855171144590713,91.04384792310884 17.24273095303215,90.32813950802665 17.570666175801307,89.46332507533953 17.451417003991082,88.30029860063223 17.570666175801307,86.92852353560738 17.630290761822835,86.63031152938493 17.958225984475575,86.06370868242811 18.137099742307328,84.3042574437568 18.196724328096025,83.91658168751746 18.61409642966464,82.45534210518235 19.38921604701318,81.85891769791488 19.478652925929055,81.56070547521813 19.627714390750043,80.84499608870829 19.717151269549504,80.2485715438961 20.402834007982165,79.71178941003745 21.058704453287646,78.10144276049687 21.774199484614655,77.3559117783443 22.638755980762653,76.78930817852961 23.83124769956339,76.40163200482493 25.441111519932747,75.56663709587883 26.87210158247035,74.85092709428864 27.587596613913774,74.49307206593221 28.57140228175558,73.95628948899684 29.52539565693587,73.33004309691023 30.47938903188333,72.64415412669769 31.224696356221102,71.98808635288151 32.47681266092695,70.82505696557928 33.1624953992432,70.13916774862446 33.75874125864357,69.45327846414875 34.65311004780233,68.5586401654291 34.98104527045507,67.90257200656924 35.36860507901292,67.30614635389065 36.44184762600344,65.90454586892156 37.33621641504578,65.15901358099654 37.81321310251951,64.92044323199661 38.52870813384652,64.2643747299444 39.42307692288887,63.84687656001188 39.90007361059543,62.86277363175759 40.34725800505839,62.47509668231942 40.73481781373266,61.93831317825243 42.10618329036515,61.64010010252241 42.642804563743994,61.64010010252241 43.805483989650384,61.64010010252241 44.52097902086098,61.6102787941345 44.99797570845112,61.431350941827986 45.44516010291409,61.81902794947382 45.862532204482704,62.0874197112862 46.25009201315697,62.0874197112862 46.93577475147322,61.997955791826826 47.3829591460526,61.93831317825243 48.545638571842574,61.78920664195903 49.648693411727436,62.0874197112862 50.87099742353894,62.176883629581425 51.31818181811832,62.26634754682891 52.45104895089753,62.683845811581705 53.52429149788804,63.310093161824625 54.80622009560466,63.57848486612784 56.02852410741616,64.1749108384829 57.16139124019537,64.92044323199661 57.54895104886964,65.2782987524406 57.96632315043826,65.665975545533 58.53275671694428,66.41150777909206 58.89050423249137,66.88864836661378 59.21843945526052,67.06757607858162 60.202245123218745,68.02185713098152 60.917740154545754,68.85685294441646 61.33511225611437,69.33399336430011 62.02079499443062,68.88667422166327 63.12384983431548,67.39561020507244 63.36234817816876,66.94829093775479 64.19709238130599,65.5466903806664 64.79333824070636,63.87669785867911 65.03183658444323,62.773309722251724 65.41939639300108,61.6102787941345 65.47902097902261,60.77528211043682 65.47902097902261,59.43332294392167 65.47902097902261,58.62814731959952 65.30014722119085,57.49493702343898 65.03183658444323,56.65993984468514 65.35977180697955,55.46708655793918 66.10507913131732,54.81101716274861 67.80437983060256,54.96012384892674 69.11612072132993,55.288158547191415 70.36823702603579,55.73547856538789 71.59054103784729,56.152977222867776 72.27622377616353,56.39154787309235 73.14078027242795,57.49493702343898 74.72083179967012,58.41939806845039 75.31707765907049,59.07546712248586 76.33069562003948,60.26831978914561 76.83750460052397,61.84884925681399 76.47975708497688,62.53473929135362 76.30088332714513,63.04170144721866 76.39032020594459,63.54866356612183 76.89712918642908,64.23455343290698 77.19525211630389,65.06954970106017 77.34431358100846,66.1132948952145 77.25487670209259,66.9184696523007 77.31450128811412,67.57453790394356 78.77530364354607,68.4989976080833 79.13305115932599,68.67792527860729 79.93798306956887,69.18488698662259 81.39878542511724,69.87077629758278 82.74033860873897,70.19881029194221 83.51545822597109,70.34791664790828 84.11170408537146,70.52684427087661 85.15513433923479,70.76541442773305 86.37743835116271,71.48112484894227 87.48049319104757,72.10737140732817 87.95748987840489,72.37576277216431 88.58354803093243,72.85290295083541 88.91148325358517,73.03183050948428 89.50772911298554,74.73164208693197 89.62697828479577,75.02985460159834 90.07416267937515,75.17896085418761 90.96853146853391,76.01395580952521 91.92252484359778,76.72966569167329 92.45914611697663,77.32609053736087 93.20445344119798,78.01197904685978 94.1286345232511,78.6978674888378 94.60563121084124,79.44339832756668 94.75469267577864,79.14518600160955 94.87394184758887,78.63822501827963 94.8441295545781,77.4453755003633 94.18825910927262,76.87877190788276 93.23426573420875,76.10341954883188 92.93614280445036,75.77538583247224 92.16102318733465,75.29824585386086 91.50515274191275,74.46325081278337 90.8194700035965,73.95628948899684 90.58097165985964,73.74754069792107 90.0443503864808,72.6143328656326 89.8952889215434,72.13719267054694 89.03073242551181,71.510946114955 88.22580051515251,70.82505696557928 87.3910563121317,70.04970393277472 86.4370629369514,69.2743508136482 85.5128818548983,68.85685294441646 84.58870077284519,68.88667422166327 83.87320574151818,69.06560188217554 82.8595877806656,68.82703166711144 81.48822230403312,68.58846144389827 80.4149797570426,68.20078481367091 79.5504232608946,68.08149969240185 79.07342657342087,66.94829093775479 78.89455281558912,65.90454586892156 79.34173721005209,64.95026452600723 79.66967243282124,63.87669785867911 79.61004784679972,62.415454072877765 79.40136179607362,61.19278046482941 78.65605447185226,60.149034531612415 78.00018402643036,59.373680308344774 76.56919396377634,58.30011277925223 75.52576370991301,57.73350762744667 74.63139492075425,56.98797446268145 74.15439823339693,56.630118515051436 73.20040485821664,55.94422789721284 71.85885167459492,55.49690789257875 71.4414795730263,55.22851587604964 71.17316893627867,54.75137448741589 70.42786161205731,54.423339763772674 69.56330511590932,54.15494770556688 68.7881854986772,54.03566234308528 68.04287817445584,53.737448927771766 66.4926389399916,53.61816355807241 65.1212734633591,53.55852087243693 64.5548398969695,53.46905684308149 63.33253588504158,53.43923549965257 62.79591461154632,53.61816355807241 62.34873021708336,53.946198319783434 62.19966875226237,54.51280378078809 62.28910563106183,54.989945185836405 62.67666543985251,55.70565723167965 62.91516378347296,56.2722625490278 63.36234817816876,56.809046491165645 63.83934486552607,57.73350762744667 63.72009569371585,58.53868335561128 63.7499079866102,59.015824483765755 63.98840633034706,60.178855846228544 63.8989694515476,61.52081486862153 63.86915715865325,62.62420320394449 63.18347442033701,64.41348121315241 62.16985645936802,65.51686908921693 61.51398601394612,65.93436715874122 60.11280824430287,65.45722650573589 59.66562384972349,65.42740521387896 59.06937799032312,64.95026452600723 58.47313213092275,64.20473213569494 57.66820022079628,63.757412663137075 57.191203533206135,63.48902096581878 56.505520794773474,63.13116535329027 55.670776591752656,62.9522375400411 55.342841369099915,62.773309722251724 54.56772175186779,62.59438189980574 54.0609127713833,62.29616885219002 53.61372837680392,61.78920664195903 52.80879646667745,61.997955791826826 51.37780640413985,60.80510342225898 50.63249907980207,60.4174263580353 50.33437615004368,59.999927956960164 49.082259845454246,59.31403767224401 48.06864188425243,59.164931079605594 46.93577475147322,59.731536114471965 46.578027235809714,60.089391902205534 45.41534781001974,60.32796241703909 44.96816341544036,60.089391902205534 44.04398233338725,59.91046401060885 43.38811188808177,60.178855846228544 42.7918660286814,60.26831978914561 42.404306219890714,60.655996861634776 42.34468163410202,61.19278046482941 42.583179977722466,61.5804574858048 43.38811188808177,61.72956402658019 44.133419212303124,61.84884925681399 43.89492086856626,61.49099355976796 43.209238130250014,61.40152963262517 41.62918660277501,61.3418870139285 40.555944055784494,61.6102787941345 39.721199852763675,62.56456059566699 39.33364004408941,63.57848486612784 38.70758189179469,63.66794876527274 38.05171144637279,64.47312380548101 36.82940743456129,65.18883487401763 35.696540301665664,66.44132906675804 34.86179609852843,67.18686121725477 34.26555023912806,68.11132097290829 33.75874125864357,68.70774655649439 33.31155686406419,69.1252444346319 32.804747883579694,69.87077629758278 31.910379094537348,70.67595061985776 30.986198012367822,71.83898003201466 30.002392344293185,72.67397538770456 28.39252852392383,73.65807692834642 27.378910562954843,74.22468078270322 26.57397865294479,74.64217832998838 25.35167464101687,75.23860335425707 24.725616488605738,75.41753085161326 23.741810820647515,76.01395580952521 22.72819285967853,76.55073822801933 21.714574898709543,76.9980568785104 21.297202797140926,77.08752060524421 19.985461906413548,78.16108523565345 19.687338976655155,78.63822501827963 19.329591461108066,79.44339832756668 18.733345601707697,80.15910785784945 18.375598086044192,81.05374466738431 18.017850570380688,82.66409063566243" stroke="#4DD2FF" stroke-dasharray="none" stroke-linecap="round" stroke-linejoin="round" stroke-width="0.5"><title>2026-06-20 10.1km</title><desc>9223370254938036107</desc></polyline><polyline fill="none" opacity="1" points="104.5,99.76303138272488 104.90370238525793,99.67649810080184 105.13438946241513,98.75347635813523 105.13438946241513,97.85929892532295 105.36507653968874,96.8785880569776 106.1724813102046,95.37867704292876 106.74919900321402,93.67685452921432 106.92221431119833,93.09996544453315 107.32591669645626,92.09040942817228 107.81612673564814,91.83080928539857 108.0756496975664,91.5423646706331 108.39284442865755,91.05200879732729 108.4793520825915,89.84054119352368 108.82538269856013,89.37902966834372 109.2579209683463,88.22525071792188 109.4886080455035,87.27338293584762 109.37326450704131,86.26382605088293 110.0364898542175,84.9946686103649 109.94998220005073,84.15817834899644 110.20950516196899,83.63897744499263 110.15183339267969,82.05252999148797 110.12299750803504,82.1102189963276 110.2671769313747,80.4660821655998 110.3825204699533,78.56234428280732 111.07458170165773,78.12967650734936 111.18992524035275,77.40856348664965 111.59362762561068,76.97589563726797 112.0550017800415,76.2259379659954 113.17960128153209,75.07215677047498 113.9581701674033,73.77415268970071 114.96742613031529,73.1684173665708 115.8613385547651,72.64921561765368 117.36080455686897,71.95694655703846 118.31238875049166,71.49543381042895 119.46582413674332,70.94738738282467 120.59042363835033,70.25511814732454 121.54200783197302,69.64938250806881 121.83036667853594,69.38978150315234 122.55126379500143,68.84173490427202 123.44517621933483,68.12062089049141 124.56977572094183,67.16875027411152 125.29067283729091,66.30341323339962 126.35760056960862,65.23616406333167 126.87664649356157,64.3996713522356 127.7417230331339,63.563178537238855 128.11658953374717,62.899753127247095 128.54912780341692,62.582462690683315 128.8086507653352,62.29401682622847 129.67372730525676,61.57290211101645 130.56763972947374,60.79409813170787 130.97134211473167,60.476807595725404 131.28853684582282,60.50565219059354 131.6634033464361,59.72684808768099 131.57689569250215,59.32302370242542 132.29779280896764,58.717287079198286 132.9033463865053,58.28461802919628 134.1432894268073,58.226928820397006 134.5181559274206,58.28461802919628 135.81577073701192,58.226928820397006 137.1422214312479,58.4576856525091 137.661267354968,58.65959787418251 138.8435386258643,58.51537485935842 139.7374510501977,58.31346263337764 140.5160199359525,58.57306406565476 141.20808116765693,58.717287079198286 142.10199359210674,58.832665487832855 142.62103951582685,58.746131681517 142.90939836250618,58.65959787418251 143.02474190096837,58.4576856525091 143.83214667148422,59.3518683022121 144.40886436449364,59.61146969432593 144.63955144188367,59.92876027114107 145.87949448206928,60.13067244857666 146.68689925246872,60.50565219059354 147.1771092916606,60.73640894450364 148.44588821637444,61.54405752074672 148.87842648627702,62.03441553763696 149.77233891061042,62.957442295970395 150.11836952657904,63.18819896571222 151.12762548949104,64.2842930391198 151.2718049128307,64.63042797258822 151.8773584907176,65.03425203909865 153.26148095412645,65.09194118954474 154.2419010325102,63.88046892761486 154.8474546102807,62.72668561822502 155.1358134568436,62.265172239072854 155.71253114996944,60.70756435068324 155.9720541118877,59.3518683022121 156.49110003560781,57.765415132336784 156.63527945894748,57.390435237495694 156.40459238167387,55.86167083407054 156.46226415107958,55.255933898704825 156.2604129583342,54.76557538725319 156.40459238167387,54.15983835305087 156.11623353511095,53.32334426351008 156.28924884309527,52.688762470846996 156.66411534347571,51.93880209318013 158.01940192247275,51.59266650589416 159.25934496277478,51.823423566063866 159.9514061943628,52.083025249274215 161.0183339267969,52.51569469887181 162.28711285162717,52.8041409830621 162.71965112152975,53.207965760229854 163.61356354586314,53.95792599613196 165.0553577785613,54.90979848254938 165.92043431836646,55.80398160452023 166.87201851198915,57.07314454091829 167.47757208975963,58.16923961110297 167.50640797428787,58.4576856525091 167.33339266641997,59.52493589813821 167.9101103595458,60.534496785199735 168.0831256675301,61.659435880952515 168.0831256675301,62.380550586851314 167.93894624419045,63.10166521545034 168.0831256675301,63.707401443767594 168.9193663225742,64.48620508582098 169.95745817013085,64.976562888216 169.89978640084155,64.91887373686768 171.19740121043287,65.95727838599123 171.6587753649801,66.30341323339962 172.6680313278921,66.36110237290268 173.6196155215148,66.67839263132191 174.48469206131995,67.08221657507238 175.2920968317194,67.16875027411152 176.41669633320998,67.74564157283749 177.4259522962384,68.03408720370498 178.11801352794282,68.69751210766844 178.89658241369762,69.1878696034546 179.53097187611274,70.19742904123268 179.90583837672602,70.97623193269828 180.48255606985185,71.20698832775815 180.97276610892732,71.87041291943751 181.4629761481192,72.27423655195162 182.09736561065074,72.6203710748814 183.22196511214133,73.74530815175967 184.17354930576403,74.61064423702192 184.490744037088,75.27406849389081 184.83677465294022,75.01446770550683 184.86561053758487,74.95677864007303 185.5,74.20682074438082 184.95211819151882,73.60108546007541 184.28889284445904,72.96650558008696 183.33730865083635,72.21654746306012 182.5875756497262,71.63965654710773 182.01085795660038,70.88969828261179 181.14578141691163,70.19742904123268 180.79975080105942,70.08205082744826 180.65557137771975,69.59169339673826 180.16536133852787,68.84173490427202 179.8481666073203,68.14946545255953 178.89658241369762,67.3129731034278 178.40637237462215,66.88030460625305 177.80081879673526,65.92843381452258 177.28177287301514,65.69767723869882 176.9934140263358,65.40923150777235 176.09950160211883,65.00540746378829 174.77305090788286,65.23616406333167 174.13866144546773,65.3803869340336 172.5526877893135,65.09194118954474 171.22623709507752,64.60158339553163 170.73602705588564,64.22660388183431 170.18814524752088,63.96700266780681 169.49608401570003,62.986286880099215 169.58259166963398,62.32286141318036 170.04396582429763,61.34214538577362 170.2169811320491,60.649875162693206 170.1593093627598,59.957604868279304 170.04396582429763,58.601908668584656 169.8132787469076,57.70772591914283 169.15005339984782,56.669319996173726 168.28497686015908,55.86167083407054 167.53524385904893,55.198244663944934 166.69900320400484,54.65019690876943 165.7762548950268,54.04445986408973 165.19953720190097,53.525256639492 163.8730865077814,52.65991784250946 162.66197935200762,52.02533598718583 162.2582769668661,51.650355771766044 161.59505161980633,51.36190943789552 160.0667497330578,50.90039527788758 158.7691349235829,50.46772572409827 157.78871484531555,50.41003644812736 157.18316126742866,50.32350253328332 155.51067995722406,50.265813256119145 154.15539337845985,50.38119181001093 153.63634745462332,50.55425963710877 153.34798860817682,51.650355771766044 153.80936276260763,52.77529635527753 154.64560341765173,53.92908137323684 154.73211107158568,54.852109244820895 154.8474546102807,55.255933898704825 155.16464934137184,56.03473851986928 155.0781416875543,56.813543050637236 155.10697757208254,58.16923961110297 154.87629049480893,59.64031429289025 154.44375222502276,60.649875162693206 154.01121395512018,61.31330079460167 153.2326450694818,62.03441553763696 152.13688145251945,62.265172239072854 151.76201495202258,62.12094930160674 150.8681025276892,61.42867915867828 149.68583125667647,60.93832109766663 149.1379494483117,60.361429215350654 148.21520113921724,59.89991567385732 147.49430402286816,59.61146969432593 147.00409398367628,59.40955750129069 145.6776432894403,58.948043894575676 144.6683873264119,58.65959787418251 143.71680313290562,58.57306406565476 142.96707013179548,58.02501658577239 142.44802420784254,57.390435237495694 141.81363474554382,56.755853829236 140.63136347464751,55.94820467758109 139.88163047353737,55.630913912755204 139.3337486650562,55.65975852837437 138.64168743323535,56.03473851986928 138.32449270202778,56.49625232684775 137.80544677830767,56.784698440053035 136.91153435385786,56.84238766116323 135.32556069782004,56.90007688186597 134.6334994659992,56.90007688186597 134.1432894268073,57.50581366894767 134.28746885014698,57.967327374761226 134.7488430046942,58.255773424811196 135.527411890449,58.39999644522322 135.527411890449,58.111550401343266 134.72000711993314,57.93848276909557 133.65307938761543,57.9096381632844 132.64382342470344,58.16923961110297 132.32662869349588,58.48653025602107 131.6634033464361,59.03457769815577 131.63456746179145,59.81338188124937 130.74065503745805,60.18836164099048 129.44304022786673,61.22676702021272 128.60679957293905,62.03441553763696 127.59754360991064,63.01513146411162 127.02082591678482,63.6208677001996 126.67479530081619,64.22660388183431 125.9538981844671,64.9477183126437 124.85813456738833,66.1591903824883 123.87771448912099,67.16875027411152 122.6954432183411,68.09177632836509 121.94571021723095,68.7552012266824 121.54200783197302,69.0148022561043 120.12904948391952,70.02436171978479 119.43698825198226,70.45703001509537 118.11053755774628,71.06276558179525 116.87059451767709,71.63965654710773 116.26504093990661,71.81272382714087 115.2557849768782,72.30308109623729 114.24652901396621,72.73574924530112 113.64097543619573,73.19726190695656 112.34336062660441,74.52411063347245 112.1703453186201,75.30291302531259 111.53595585608855,76.19709343847353 110.84389462450054,77.00474016138469 110.58437166258227,77.37971896425006 110.35368458530866,78.21621006468195 110.18066927744076,79.48536877782317 110.12299750803504,79.9180364664353 110.18066927744076,80.7256827444071 109.94998220005073,81.53332892581238" stroke="#4DD2FF" stroke-dasharray="none" stroke-linecap="round" stroke-linejoin="round" stroke-width="0.5"><title>2026-06-18 10.1km</title><desc>9223370255108266507</desc></polyline><polyline fill="none" opacity="1" points="17.923396226367913,232.58268121111905 18.656981131993234,232.03232760669198 19.115471698110923,230.8093194453977 19.879622641485184,229.61688628676347 21.407924528233707,228.79135552188382 22.691698113223538,228.33272727805888 22.99735849048011,228.2104264080408 23.639245282975025,227.84352378558833 24.464528301847167,227.38489548087819 25.778867924469523,226.77339102880796 26.848679245216772,226.22303697722964 27.368301886715926,225.91728470806265 28.835471698082983,224.69427550031105 29.905283018830232,224.02162034687353 30.9139622640796,223.1349384568166 31.40301886794623,222.43170791398734 31.922641509445384,221.85077828291105 32.747924528317526,221.08639711729484 33.66490566032007,219.74108606681693 34.551320754690096,218.88497890270082 34.70415094331838,218.57922631915426 34.94867924519349,218.21232320164563 35.773962264182046,217.41736638214206 36.66037735843565,216.83643634268083 37.54679245268926,215.82745247735875 38.18867924530059,215.73572666430846 38.55547169817146,214.57386626384687 39.50301886792295,213.68718319910113 41.214716981048696,213.50373151677195 42.345660377293825,213.53430679749 43.23207547166385,213.53430679749 43.81283018866088,213.53430679749 44.638113207533024,214.14581238426035 45.860754717024975,214.05408654961502 46.533207547036,213.7789090385195 46.86943396227434,213.68718319910113 47.90867924527265,214.02351127110887 48.9784905660199,214.29868877277477 50.38452830188908,214.11523710621987 50.38452830188908,214.02351127110887 51.515471698134206,214.57386626384687 51.97396226413548,214.9101942939451 53.47169811325148,215.30767285457114 54.266415094491094,215.70515139307827 55.45849056611769,216.28608152468223 56.100377358379774,216.65298474143492 56.61999999999534,217.20333953102818 57.59811320749577,218.2428984621074 57.81207547173835,218.88497890270082 59.00415094336495,219.710510812758 60.07396226422861,220.65834362868918 60.77698113210499,221.02524662041105 61.35773584898561,221.08639711729484 62.15245283022523,220.59719312825473 62.61094339634292,219.83281182829523 62.73320754710585,219.03785518952645 63.1611320754746,218.15117268014 63.89471698109992,216.3778073306894 64.35320754721761,214.57386626384687 64.41433962259907,214.2069629401085 64.71999999997206,212.4335966090439 64.81169811321888,210.41562748816796 64.23094339622185,208.79513671941822 64.38377358485013,207.7250011037686 64.65886792447418,207.02176904003136 65.42301886796486,206.37968752993038 66.27886792446952,206.41026284120744 67.40981132083107,206.62429001677083 68.87698113208171,207.02176904003136 70.2830188680673,207.7250011037686 71.32226415106561,207.69442579802126 71.78075471695047,207.4803986546467 71.99471698119305,208.00017884880072 72.66716981120408,209.00916382321157 73.73698113206774,209.7429709873977 74.62339622643776,210.38505219406215 74.99018867919222,210.84368159191217 75.38754716981202,211.3023109601927 76.02943396230694,212.52532246458577 76.36566037742887,213.04510229028529 76.27396226418205,213.8706348767737 75.93773584917653,214.5432909875526 75.998867924558,215.18537176132668 76.42679245281033,215.91917828918668 76.91584905656055,217.11161373567302 76.85471698106267,218.2428984621074 76.88528301892802,218.67095209553372 77.83283018867951,219.83281182829523 78.71924528304953,220.56661787786288 78.84150943392888,220.84179512696574 79.75849056604784,221.23927335697226 80.55320754728746,221.78962779260473 81.25622641516384,222.06480499455938 83.2124528301647,222.40113267139532 83.97660377365537,222.67630984977586 85.22981132077985,222.98206225776812 85.84113207552582,223.28781465266366 86.94150943402201,223.9298946391791 88.01132075465284,224.60254980128957 88.50037735851947,225.15290397778153 89.35622641514055,226.1007360711228 89.5701886791503,226.5287892332999 90.05924528301693,227.26259459462017 90.51773584913462,227.75179812696297 90.73169811326079,228.05755031766603 91.22075471689459,228.57732901180862 92.2599999998929,229.4945854387479 93.32981132075656,230.38126653950894 94.46075471700169,231.48197396000614 94.79698113212362,231.60427477402845 94.9498113207519,231.11507150530815 95.5,230.41184174799128 95.19433962274343,229.92263839766383 94.27735849050805,229.18883330951212 93.72716981137637,228.73020509112393 92.99358490563463,228.24100162571995 92.38226415100507,227.69064768729731 91.92377358488739,227.1097184838727 91.64867924537975,226.4982140082866 90.79283018864226,226.0090103901457 90.36490566038992,225.5198067384772 89.72301886789501,224.44967363367323 88.62264150939882,223.1655136962072 88.37811320752371,222.89033653674414 87.79735849064309,222.27883169986308 87.3388679245254,222.21768121334026 86.26905660377815,221.6061763187754 85.47433962253854,221.30042385187699 84.46566037740558,220.99467137188185 83.12075471691787,221.08639711729484 82.78452830191236,220.87237037613522 82.14264150941744,220.9029456253047 80.98113207553979,220.56661787786288 79.29999999993015,219.6187850497081 78.96377358492464,219.34360775345704 78.65811320755165,218.60980157804443 78.96377358492464,217.32564058958087 79.05547169817146,216.50010840338655 79.29999999993015,215.82745247735875 79.23886792454869,214.6655920917401 79.0249056603061,213.197978702432 78.62754716980271,212.2195696081617 77.86339622654486,211.2717356698704 76.4879245281918,210.26275101630017 75.66264150943607,209.68182039330713 74.28716981143225,208.856287321134 73.70641509443521,208.30593188648345 72.82000000006519,207.66385049227392 71.84188679256476,207.38867273408687 71.26113207545131,207.2663715048693 71.01660377357621,206.86889249528758 70.55811320757493,206.5937147064251 69.70226415083744,206.07393440947635 68.69358490570448,205.7987565897638 67.5932075472083,205.4318528136355 66.79849056596868,205.15667496918468 65.72867924533784,205.15667496918468 64.87283018871676,205.15667496918468 63.09999999997672,205.0649490186479 62.335849056602456,205.37070218252484 61.93849056609906,205.4318528136355 61.41886792459991,206.1045097220922 62.03018867911305,207.51097396126715 62.67207547172438,208.45880840037717 62.88603773585055,209.1620403220295 63.1611320754746,209.71239569043973 63.13056603784207,210.29332631092984 63.43622641498223,211.33288625034038 63.466792452847585,211.7303650106187 63.466792452847585,212.31129546643933 63.3139622642193,214.08466182800476 62.97773584909737,215.46054921817267 62.335849056602456,216.50010840338655 61.69396226410754,217.29506532516098 60.68528301885817,217.90657058922807 59.737735849106684,217.5090921735391 58.94301886798348,217.1727642660844 57.934339622501284,216.50010840338655 57.38415094348602,215.85802774806507 56.650566037744284,215.4911244904506 55.94754716975149,215.12422121397685 55.0,214.7573179185274 54.57207547174767,214.6655920917401 53.899622641620226,214.29868877277477 53.10490566038061,214.11523710621987 52.463018867885694,213.80948431807337 51.66830188676249,213.96236071380554 51.02641509438399,213.90121015586192 50.04830188676715,212.95337644143729 49.712075471761636,212.37244603806175 48.85622641502414,211.69978972215904 47.96981132077053,211.42461212002672 47.05283018865157,211.24116037948988 46.07471698115114,211.48576269921614 45.03547169803642,211.85266616311856 44.69924528291449,211.97496731363935 44.14905660378281,211.79151558713056 43.44603773590643,211.76094029896194 42.62075471691787,212.00554260087665 42.131698113284074,211.9138167386409 41.73433962254785,211.9138167386409 41.33698113204446,212.37244603806175 41.15358490566723,213.07567757298239 41.550943396170624,213.50373151677195 42.83471698104404,213.59545735857682 42.89584905654192,213.32027982966974 42.04000000003725,213.07567757298239 41.48981132067274,212.92280115821632 40.14490566030145,213.3508551112609 39.3807547170436,213.6260326388874 38.55547169817146,214.48214043467306 38.43320754705928,215.21594703488518 37.91358490556013,215.5828503065859 37.05773584905546,215.94975355948554 36.59924528293777,216.4695331354742 35.71283018856775,217.0198879391537 35.13207547168713,217.66196848993422 34.490188679192215,218.27347372251097 33.63433962257113,219.31303249759367 32.77849056595005,220.4443168748403 32.4116981131956,220.99467137188185 32.13660377357155,221.30042385187699 31.25018867920153,222.21768121334026 30.577735848957673,222.67630984977586 29.935849056579173,223.34896513004787 29.691320754704066,223.6241422718158 28.92716981121339,224.2356469935039 27.826792452833615,225.00002782186493 27.032075471594,225.36693059047684 25.62603773572482,226.5593644581968 24.097735849092714,227.23201937275007 22.630566037725657,227.87409900478087 21.407924528233707,228.45502814592328 20.582641509361565,228.82193073717644 19.604528301744722,229.46401022636564 19.054339622729458,229.92263839766383 18.2290566037409,230.7787442386616 17.526037735748105,231.787725991162 17.281509433872998,232.15462841140106 16.792452830122784,232.58268121111905 16.24226415087469,233.9279898435343 15.936603773501702,235.45674934628187 15.783773584873416,236.52688080392545 15.569811320747249,237.87218869524077 15.600377358379774,238.23909080354497 16.028301886632107,238.7282935854164 15.508679245132953,239.95130039396463 15.508679245132953,240.53222855483182 15.325283018755727,241.0520063431468 15.20301886787638,242.15271212346852 14.897358490503393,242.64191463816678 14.59169811324682,243.43686865351629 14.622264150879346,244.53757406771183 14.5,244.9350509813521" stroke="#4DD2FF" stroke-dasharray="none" stroke-linecap="round" stroke-linejoin="round" stroke-width="0.5"><title>2026-06-16 10.1km</title><desc>9223370255286294807</desc></polyline><polyline fill="none" opacity="1" points="109.30918595974799,231.36881953355623 109.9141150113428,230.27962073218077 110.277072441997,229.31144387915265 111.42643763998058,228.55505562055623 112.66654219571501,227.9196894208435 113.81590739346575,227.43560084939236 114.45108289772179,227.04227886069566 116.14488424186129,226.37665698392084 116.7195668410277,225.95307939330814 118.3831217327388,225.01515749521786 119.47199402551632,224.0772354726796 120.86333084385842,223.01829110406106 122.16392830468249,221.6870465297834 123.46452576550655,220.29529057018226 124.34167289012112,219.17583449051017 124.91635548917111,218.17740054003661 125.82374906644691,217.48152224859223 126.64040328620467,216.72513272351352 127.3058252427727,216.15027663018554 128.0619865570916,215.3333757853834 128.63666915614158,215.09133107255911 129.18110530241393,214.69800839631353 129.18110530241393,214.03238535579294 129.604555638507,213.60880702460418 130.96564600453712,212.91292828234145 132.35698282299563,212.97343948006164 133.62733383127488,213.0642062756815 134.7162061240524,213.2154842657037 135.74458551162388,213.27599546080455 136.833457804285,213.27599546080455 137.55937266617548,213.0944618738722 138.85997012699954,213.48778463958297 139.61613144131843,213.5482958322973 141.00746825989336,213.85085178841837 141.40067214344162,214.1231521377922 141.9753547423752,214.03238535579294 142.94324122497346,214.45596366154496 143.6389096340863,214.6677528048749 144.18334578047507,214.84928635129472 145.36295743100345,215.39388696238166 146.42158327111974,215.90823194530094 146.99626587005332,216.4528324746061 147.2684839431895,216.96717738040024 147.75242718460504,217.2697331897216 148.14563106792048,217.63280014385236 148.41784914117306,218.026122656418 149.26474981324282,218.81276761583285 150.1418969380902,219.78094590699766 151.6542195668444,220.59784623683663 152.47087378648575,220.05324602744076 153.04555638541933,218.75225646817125 153.74122479453217,216.96717738040024 154.40664675133303,215.36363137396984 154.92083644506056,213.45752904296387 155.10231516056228,212.51960548461648 155.07206870801747,211.3396369597176 155.1325616131071,210.25043506897055 154.95108289760537,209.07046616397565 154.92083644506056,208.28382011741633 154.73935772979166,207.92075268173357 154.8603435398545,207.25512900092872 155.07206870801747,206.43822712486144 155.7374906647019,205.9541370794177 156.85660941002425,205.98439270828385 158.21769977593794,206.22643773409072 159.9417475728551,206.9223171369522 161.51456310681533,207.28538462420693 161.84727408515755,207.5274296051939 162.42195668409113,208.10228640190326 163.96452576562297,209.25199985451763 164.66019417485222,209.61506722163176 165.0836445109453,210.22017945849802 165.870052277809,211.03708089585416 166.65646004478913,212.51960548461648 166.74719940242358,213.0642062756815 166.65646004478913,213.97187416726956 166.35399551910814,214.36519688385306 167.0799103808822,215.8174651863519 167.29163554892875,216.84615505294641 167.32188200158998,217.57228898617905 167.74533233768307,218.60097859695088 168.32001493650023,219.50864577607717 168.8644510830054,219.87171261495678 169.59036594466306,220.4163128384389 170.0743091860786,220.59784623683663 171.70761762512848,221.38449090969516 173.00821508595254,221.6870465297834 174.4600448096171,222.11062437610235 175.00448095588945,222.14087993558496 175.8211351755308,222.47369108122075 176.75877520546783,222.98803554830374 177.51493651978672,223.50237997801742 178.4223300970625,224.0772354726796 178.9970126959961,224.561324274051 179.57169529504608,225.74129058851395 179.8741598208435,226.1648681918159 180.23711725173052,226.61870131001342 181.08401792380027,227.49611192260636 181.9914115011925,228.16173369414173 182.92905153112952,229.00888858543476 183.92718446603976,229.91655442782212 184.7438386856811,230.88473119807895 184.95556385361124,230.55192044825526 184.8950709485216,230.27962073218077 185.5,229.6745102145942 185.22778192686383,229.19042176322546 184.25989544426557,228.3735224264674 182.98954443621915,227.1633010134683 182.41486183728557,226.7094679301954 181.68894697539508,225.80180167622166 180.75130694545805,225.16643522912636 179.9044062733883,223.8049355073017 179.23898431670386,222.8972688803915 178.18035847658757,221.95934657676844 177.81740104558412,221.59627984510735 176.63778939505573,220.77937963075237 176.09335324866697,220.59784623683663 174.79275578795932,220.08350159577094 174.1575802838197,220.1137571639847 173.1292008961318,220.2650350028416 172.10082150856033,220.1137571639847 171.1329350261949,219.72043476771796 170.43726661684923,219.32711234950693 169.07617625081912,218.23791169264587 168.95519044075627,217.20922202884685 169.28790141898207,215.8174651863519 169.49962658702862,214.6677528048749 169.4693801344838,213.39701784943463 168.83420463034417,211.67244861490326 167.9570575056132,210.6135023845709 166.86818521283567,209.7058340604417 166.56572068715468,209.46378915430978 166.08177744585555,209.10072177933762 165.3861090366263,208.70739876880543 164.4787154593505,207.9812639222946 163.54107542941347,207.28538462420693 162.48244958929718,206.95257276156917 161.81702763261274,206.43822712486144 161.57505601202138,206.07515959395096 161.06086631806102,206.13567085040268 160.092979835812,205.5003026316408 158.67139656457584,205.0767237872933 157.58252427191474,204.74391182034742 156.4936519790208,204.71365618612617 155.37453323369846,204.62288928293856 154.1949215832865,204.59263364830986 152.8640776699176,204.65314491750905 152.28939507098403,204.80442308820784 151.8054518298013,205.9541370794177 152.34988797619008,206.8920615122188 153.07580283796415,207.92075268173357 153.34802091121674,208.67714315169724 153.4387602689676,209.3427666980424 153.7109783422202,210.22017945849802 153.83196415228304,210.6135023845709 153.7714712471934,211.00682528875768 153.7714712471934,211.58168180135544 153.5899925318081,213.003695078718 153.52949962671846,213.82059619342908 153.40851381630637,214.39545247663045 153.166542195715,214.9400531227584 152.68259895441588,215.6964428392821 152.2289021658944,216.4528324746061 151.5029873038875,216.84615505294641 150.7468259895686,217.08819970564218 149.74869305465836,216.57385480875382 149.3857356236549,216.39232130674645 148.2968633308774,215.78720959968632 147.117251680349,214.90979753236752 146.33084391336888,214.516474846052 145.6049290515948,214.09289654390886 144.66728902165778,213.85085178841837 144.0623599701794,213.57855142856715 143.4876773711294,213.60880702460418 142.91299477231223,213.3667622525245 142.09634055255447,213.33650665538153 141.55190440639853,213.0944618738722 140.82598954439163,212.00526025448926 140.19081404036842,211.64219301060075 139.34391336818226,211.1278477163287 138.46676624345127,210.85554725123802 137.16616878286004,210.91605846665334 135.95631067967042,211.24887014192063 135.53286034357734,211.3698925653589 134.89768483955413,210.6135023845709 134.02053771470673,211.09759210969787 132.84092606429476,211.3093813539017 132.6292008961318,211.1581033229013 131.9940253921086,211.67244861490326 131.8427931291517,212.45909428305458 132.26624346524477,212.91292828234145 133.26437640038785,213.003695078718 133.47610156831797,212.7616502858582 132.99215832713526,212.6103722860571 132.41747572820168,212.18679386936128 131.93353248690255,212.126282664889 130.3304705003975,212.7616502858582 129.5743091860786,213.48778463958297 129.18110530241393,213.82059619342908 128.6669156086864,214.90979753236752 128.21321881993208,214.90979753236752 127.3058252427727,215.75695401307894 126.15646004478913,216.60411039192695 125.37005227792542,217.6025445650448 124.55339805828407,218.3286784203956 123.91822255414445,219.26660120632732 123.34353995521087,219.87171261495678 122.67811799852643,220.56759067083476 121.95220313675236,221.5357687214273 121.34727408515755,221.95934657676844 120.5003734130878,222.8367577678291 119.68371919333003,223.4418688705191 119.23002240480855,223.71416884992504 118.86706497392152,224.0469799215207 117.89917849143967,224.62183537194505 116.96153846161906,225.4689906872809 116.02389843179844,225.983334936318 114.4813293502666,226.61870131001342 113.39245705748908,227.1633010134683 111.7591486183228,227.85917835118016 110.09559372672811,228.82735540298745 108.5832710978575,230.12834310758626 108.25056011951528,230.55192044825526 107.79686333087739,231.58060816989746 107.28267363714986,232.42776265193243 107.0709484689869,232.911850881821 106.88946975348517,233.63798316469183 106.73823749064468,234.39437088021077 106.58700522780418,235.1205030111596 106.58700522780418,236.66353354218882 106.40552651230246,237.54094291006913 106.52651232271455,238.56962961691897 106.64749813301023,239.26550583390053 106.2845407021232,239.8706155323307 106.25429424946196,240.7480245034094 106.10306198662147,241.35313407541253 105.46788648248184,242.32130928325932 105.52837938768789,243.31973982800264 105.10492905159481,244.197148372652 104.5,245.49813325650757" stroke="#4DD2FF" stroke-dasharray="none" stroke-linecap="round" stroke-linejoin="round" stroke-width="0.5"><title>2026-06-11 10.2km</title><desc>9223370255717407907</desc></polyline></svg>