<?xml version="1.0" encoding="utf-8" ?>
<svg baseProfile="full" height="300mm" version="1.1" viewBox="0,0,200,300" width="200mm" xmlns="http://www.w3.org/2000/svg" xmlns:ev="http://www.w3.org/2001/xml-events" xmlns:xlink="http://www.w3.org/1999/xlink"><defs /><rect fill="#222222" height="300" width="200" x="0" y="0" /><text fill="#FFFFFF" style="font-size:12px; font-family:Arial; font-weight:bold;" x="10" y="20">Over 10km Runs</text><text fill="#FFFFFF" style="font-size:4px; font-family:Arial" x="10" y="280">Runner</text><text fill="#FFFFFF" style="font-size:9px; font-family:Arial" x="10" y="290">Yanfu</text><text fill="#FFFFFF" style="font-size:4px; font-family:Arial" x="65" y="280">SPECIAL TRACKS</text><rect fill="yellow" height="2.6" width="2.6" x="65" y="283" /><text fill="#FFFFFF" style="font-size:3px; font-family:Arial" x="70" y="285.5">Over 20.0 km</text><rect fill="red" height="2.6" width="2.6" x="65" y="287" /><text fill="#FFFFFF" style="font-size:3px; font-family:Arial" x="70" y="289.5">Over 40.0 km</text><text fill="#FFFFFF" style="font-size:4px; font-family:Arial" x="120" y="280">STATISTICS</text><text fill="#FFFFFF" style="font-size:3px; font-family:Arial" x="120" y="285">Number: 5</text><text fill="#FFFFFF" style="font-size:3px; font-family:Arial" x="120" y="290">Weekly: 1.7</text><text fill="#FFFFFF" style="font-size:3px; font-family:Arial" x="141" y="285">Total: 51.0 km</text><text fill="#FFFFFF" style="font-size:3px; font-family:Arial" x="141" y="290">Avg: 10.2 km</text><text fill="#FFFFFF" style="font-size:3px; font-family:Arial" x="167" y="285">Min: 10.1 km</text><text fill="#FFFFFF" style="font-size:3px; font-family:Arial" x="167" y="290">Max: 10.5 km</text><polyline fill="none" opacity="1" points="14.076595744700171,91.42770215254859 14.510638297884725,90.40612281384529 14.919148936169222,89.38454330147943 15.378723404253833,88.26080563728465 15.685106382938102,87.57123923918698 15.940425531938672,86.83059376038727 16.144680851022713,86.21764570882078 16.706382978707552,85.2216049915296 16.73191489360761,84.83851236396004 17.497872340492904,84.20002459691023 17.651063829660416,83.22952306087245 18.03404255316127,82.4633375267731 18.263829787261784,81.64607284902013 18.468085106345825,80.16478033666499 18.697872340446338,79.52629207188147 19.05531914893072,78.96442234251299 19.310638297814876,77.6874454888457 19.310638297814876,76.12953335855855 19.43829787231516,74.57162082265131 19.565957446815446,73.0647870003304 19.974468085099943,71.81334845247329 20.102127659600228,71.53241323225666 21.046808510669507,70.12773693300551 22.17021276592277,68.9018373474828 22.655319149023853,68.4932040963613 23.089361702208407,68.18672913967748 23.676595744676888,67.93133333043079 24.161702127661556,67.72701667516958 25.69361702131573,67.03744791206555 26.30638297868427,66.7309728806722 26.612765957368538,66.55219577174284 27.174468085053377,66.29679989255965 28.24680851062294,65.7093893289566 29.548936170176603,64.84104317254969 30.79999999993015,63.947157291229814 31.463829787215218,63.23204848970636 31.719148936099373,63.02773167353007 32.66382978716865,61.878449452109635 33.25106382975355,61.29103845334612 34.14468085113913,60.32053319804254 34.78297872340772,59.579884344304446 35.65106382977683,58.66045805285103 36.289361702045426,58.02196748921415 36.79999999993015,57.817650494369445 37.54042553191539,57.00038244493771 38.38297872338444,56.54066911782138 38.331914893584326,56.029876490472816 39.072340425569564,55.36584600934293 39.96595744683873,55.110449650732335 40.62978723400738,55.135989287053235 41.52340425539296,55.110449650732335 42.05957446806133,55.135989287053235 42.800000000046566,55.033830741012935 43.821276595816016,55.135989287053235 45.021276595653035,55.21260819552117 46.0425531915389,55.21260819552117 47.268085106275976,55.36584600934293 48.085106382961385,55.442464914754964 48.90212765953038,55.82555942720501 50.07659574470017,56.43851059584995 51.02127659576945,56.69390689738793 51.94042553182226,57.10254095718847 52.885106382891536,57.53671461500926 53.85531914897729,58.25182410000707 54.59574468084611,58.992473118938506 55.00425531913061,59.45218625673442 55.38723404263146,59.86082012721454 56.0,60.32053319804254 56.893617021269165,60.83132545737317 57.78723404253833,60.703627396636875 58.4510638298234,59.83528051117901 58.98723404260818,58.81369577796431 59.625531914876774,57.38347685709596 59.82978723407723,56.38743133418029 60.1361702127615,54.88059291857644 60.085106382961385,53.27159554508398 60.161702127661556,52.76080263702897 60.008510638261214,51.63705808483064 59.82978723407723,51.04964607529109 59.9063829787774,50.53885297634406 60.03404255316127,49.721583926613675 60.69787234044634,49.18525105167646 62.02553191490006,49.210790713492315 62.74042553198524,49.36402868203004 64.22127659572288,49.90036154084373 65.03829787229188,50.28345641036867 65.65106382977683,50.25791675315122 65.90638297866099,50.51331332020345 66.1361702127615,50.87086849560728 66.7234042553464,51.20288399638957 67.15744680853095,51.509359826828586 67.87234042549971,51.91799424277269 68.68936170206871,52.530945814040024 69.53191489365418,53.45037305250298 69.81276595743839,53.73130912476336 70.19574468082283,54.471958706271835 70.73191489360761,55.74894052668242 70.93617021269165,56.94930318807019 70.96170212770812,57.46009573651827 71.01276595739182,57.97088824113598 71.01276595739182,59.04355235816911 71.19148936180864,60.24391435534926 71.57446808507666,60.754706621257355 72.544680851046,61.34211767290253 72.90212765953038,61.54643454684992 73.61702127661556,61.90398905944312 74.33191489358433,62.10830591409467 75.2255319149699,62.2104643388011 76.0936170212226,62.44032078803866 76.75744680850767,62.72125643613981 77.24255319160875,62.772335643472616 78.23829787236173,63.35974649628042 79.25957446813118,63.92161769265658 80.05106382980011,64.66226600701339 80.30638297880068,64.8921223616926 81.02127659576945,65.68384973797947 81.20000000006985,66.16910194884986 81.50638297875412,66.7309728806722 82.29787234042305,67.49716042962973 82.62978723400738,67.93133333043079 82.96170212770812,68.08457081732922 83.21702127659228,68.33996661999845 83.49787234037649,68.74859988159733 84.21276595746167,69.31047057057731 84.90212765953038,69.87234120676294 85.3617021277314,70.38313264833414 85.28510638303123,70.30651393489097 85.61702127661556,69.61694546957733 86.0,69.31047057057731 85.13191489363089,68.7230603035714 84.08510638296138,68.05903123642202 83.42127659579273,67.49716042962973 82.91063829790801,67.03744791206555 82.55319148930721,66.60327494627563 82.11914893612266,65.81154769202112 81.63404255313799,65.47953300573863 81.30212765967008,64.94320155042806 80.9446808511857,64.58564722014125 80.4595744679682,64.02377608630923 80.02553191478364,63.717300900112605 79.46382978721522,63.02773167353007 78.11063829797786,62.28708315620315 77.26808510639239,61.98060788077419 76.75744680850767,61.82737023709342 75.83829787233844,61.776291021640645 75.17446808516979,61.54643454684992 73.64255319151562,61.13780079194112 72.64680851064622,60.49931049376028 72.03404255316127,60.141755896940595 71.80425531906076,59.375567402894376 71.93191489356104,58.32844296834082 72.18723404256161,57.306857976625906 72.26382978726178,55.72340089298086 71.9063829787774,54.52303798435605 71.3191489361925,53.68022983989795 70.19574468082283,52.811881929810625 69.35319148935378,52.1989303874434 68.20425531920046,51.43274087071768 66.97872340423055,50.66655125521356 65.82978723396081,50.25791675315122 65.44680851057637,49.87482188199647 64.8595744681079,49.517266646638745 63.83829787245486,49.1341717276664 63.02127659576945,48.904314764455194 61.87234042561613,48.47014047636185 61.54042553191539,48.52121980604716 60.1361702127615,48.39352148104808 58.553191489423625,48.39352148104808 58.06808510632254,48.5978387996729 57.71063829783816,49.00647341590957 57.71063829783816,49.44064766482916 58.52765957452357,50.76870987628354 58.98723404260818,51.66259773611091 59.114893617108464,51.91799424277269 59.140425531892106,52.30108898226172 59.49787234037649,53.70576948238886 59.446808510576375,54.24210194943589 59.395744680892676,55.110449650732335 59.242553191492334,56.029876490472816 58.757446808507666,57.332397603517165 57.96595744683873,58.53275994560681 56.91914893616922,59.018012738612015 56.127659574500285,58.83923539845273 55.28510638291482,58.481680701923324 54.774468085030094,58.1241259840026 53.497872340492904,57.28131834953092 52.65531914890744,56.744986156438245 52.11914893623907,56.43851059584995 51.55744680867065,56.31081244093366 50.89361702138558,56.08095575514017 50.2297872339841,55.876638693676796 49.89787234039977,55.8000197938527 49.565957446815446,55.876638693676796 48.74893617024645,55.646781991177704 48.49361702124588,55.34030637398246 47.9574468084611,55.110449650732335 46.78297872340772,54.59965690068202 45.914893617038615,54.52303798435605 44.38297872338444,54.67627581593115 43.055319148814306,54.59965690068202 42.34042553184554,54.52303798435605 41.19148936169222,54.369800148764625 40.83404255320784,54.42087942772196 40.62978723400738,54.67627581593115 40.62978723400738,55.05937037768308 40.859574468107894,55.289227102912264 41.957446808577515,55.314766738476465 41.906382978660986,55.23814783137641 40.885106382891536,55.34030637398246 40.24680851062294,55.23814783137641 39.14893617015332,55.493544184515486 38.38297872338444,56.208653915004106 38.38297872338444,56.770525785774225 37.89787234039977,57.15362021274632 37.029787234030664,57.68995236905175 36.3148936170619,58.175205230741994 36.008510638261214,58.53275994560681 35.34468085097615,59.2989485480648 34.52765957452357,60.06513705194811 33.53191489353776,61.29103845334612 32.53617021278478,62.363701972644776 31.591489361715503,63.35974649628042 30.97872340423055,63.97269688974484 29.804255319060758,64.8921223616926 28.73191489360761,65.55615178114385 27.506382978754118,66.34787906924612 26.30638297868427,66.90974998418824 25.438297872198746,67.34392292765551 24.034042553277686,67.9057937488833 23.217021276592277,68.28888746027951 22.297872340423055,68.87629777009715 21.251063829753548,70.07665778865339 20.536170212784782,71.02162188888178 20.280851063784212,71.43025496709743 19.74468085099943,72.75831227813615 19.719148936215788,73.11586611915845 19.591489361599088,74.16298795925104 19.514893617015332,75.28672826659749 19.336170212714933,77.10003604472149 19.412765957415104,77.50866870759637 19.208510638331063,78.01945949697983 19.131914893630892,78.47917117018369 18.67234042554628,79.6539897302282 18.51914893614594,80.42017562358524 18.544680851045996,81.16082189392182 18.110638297861442,82.38671896795859 17.702127659576945,83.6892343343934 17.651063829660416,84.09786654793425 17.21702127647586,84.50649873356451 16.88510638300795,84.81297285456094 16.62978723400738,85.55361858234392 16.323404255323112,85.9111716595944 15.812765957554802,87.44354174932232 15.531914893654175,87.97987118829042 15.199999999953434,88.77159551071236 14.842553191469051,89.76763563900022 14.459574467968196,90.91691250487929 14.255319148884155,91.24892578081926 14.0,91.60647851895192" stroke="#4DD2FF" stroke-dasharray="none" stroke-linecap="round" stroke-linejoin="round" stroke-width="0.5"><title>2026-07-24 10.5km</title><desc>9223370251998289207</desc></polyline><polyline fill="none" opacity="1" points="114.1648854961386,86.60346927514183 114.05496183212381,85.53139364096569 114.1648854961386,84.26689394575078 114.2198473282624,83.99200267487322 114.52213740465231,83.46970922782202 114.68702290079091,81.84785035913228 114.7419847327983,81.49049157043919 115.1267175571993,80.14352365006926 115.8412213739939,79.59374074439984 115.92366412212141,79.31884927395731 116.06106870237272,78.6591096970078 116.14351145038381,78.109326664533 116.77557251905091,77.61452189515694 117.38015267171431,76.13010735847638 118.03969465650152,75.44287829031236 118.83664122142363,74.92058414928033 119.93587786261924,74.56322497571819 121.41984732821584,73.7935282267863 122.73893129767384,73.13378808280686 123.39847328257747,72.8039179854386 124.30534351139795,72.30911280761939 125.18473282444756,71.73184005197254 126.06412213738076,71.09958887912217 126.75114503817167,70.49482682938105 127.90534351137467,69.42274851040565 128.53740458015818,68.79049711007974 129.0870229008142,68.15824564747163 129.91145038174,67.33356973313494 130.2137404581299,66.72880732847261 130.5709923664108,66.1790232748026 131.5603053434752,64.88703056311351 132.384732824401,64.19980029124417 132.8244274808094,63.97988658869872 133.48396946571302,63.375123867735965 134.3083969465224,62.99027483374812 134.74809160316363,62.08313059082138 135.16030534356833,61.72577070223633 135.51755725196563,61.230964669783134 136.78167938941624,60.95607241304242 137.27633587783203,60.95607241304242 138.34809160314035,60.95607241304242 139.00763358781114,60.928583186643664 139.44732824433595,60.76364782624296 139.85954198474064,61.12100776852458 140.24427480914164,61.36841079374426 140.60152671753895,61.36841079374426 141.23358778632246,61.28594311972847 141.64580152672715,61.230964669783134 142.71755725191906,61.09351854288252 143.73435114498716,61.36841079374426 144.86106870230287,61.45087846668321 145.27328244282398,61.53334613863262 146.31755725189578,61.91819526007748 147.3068702290766,62.49546889890917 148.4885496183997,62.742871871130774 149.615267175599,63.292656219535274 150.6595419846708,63.97988658869872 151.0167938930681,64.30975713970838 151.4015267174691,64.66711688417126 151.9236641221214,65.35434710592381 152.2534351143986,65.79417440918041 152.55572519090492,65.95910964015638 153.46259541984182,66.83876413360122 154.12213740462903,67.60846171632875 154.50687022903003,68.04828886501491 155.13893129769713,67.63595091406023 156.15572519088164,66.2614908858668 156.37557251914404,65.849152819952 157.14503816794604,64.55716004181886 157.69465648860205,63.017764051212 157.91450381674804,62.0006629259733 158.27175572514534,60.928583186643664 158.32671755726915,60.15888480169815 158.32671755726915,58.92186934611527 158.32671755726915,58.17965995805571 158.16183206113055,57.13506882157526 157.91450381674804,56.36536998031079 158.21679389313795,55.26580004647258 158.90381679392885,54.66103650216246 160.47022900765296,54.798482767277164 161.67938931297977,55.10086454002885 162.83358778618276,55.51320329809096 163.96030534349848,55.898052781500155 164.592366412282,56.11796676169615 165.3893129772041,57.13506882157526 166.8458015266806,57.98723528787377 167.3954198473366,58.59199851762969 168.3297709923936,59.691567879897775 168.7969465648057,61.14849699396291 168.4671755725285,61.780749147961615 168.3022900763899,62.24806591725792 168.38473282428458,62.715382652473636 168.8519083968131,63.347634651785484 169.12671755731571,64.11733265366638 169.2641221373342,65.07945502604707 169.1816793892067,65.82166361468262 169.2366412213305,66.4264261048229 170.5832061067922,67.27859133502352 170.9129770991858,67.44352652784437 171.65496183210053,67.91084288436105 173.00152671756223,68.54309437132906 174.23816793900914,68.84547549518174 174.95267175568733,68.98292145589949 175.50229007634334,69.14785660488997 176.46412213728763,69.3677701302804 177.59083969471976,70.02751066107885 178.60763358778786,70.60478356998647 179.04732824419625,70.85218622928369 179.62442748097237,71.2920131556748 179.92671755724587,71.45694824532256 180.47633587790187,73.02383138559526 180.58625954191666,73.29872312519001 180.99847328243777,73.4361689905636 181.82290076336358,74.20586578233633 182.7022900764132,74.86560581618687 183.19694656482898,75.41538912602118 183.88396946561988,76.04763987418846 184.7358778625494,76.67989056016086 185.1755725190742,77.36711949613527 185.3129770993255,77.09222793055233 185.4229007633403,76.62491224208497 185.39541984722018,75.5253457823128 184.7908396946732,75.00305164806196 183.91145038162358,74.28833329025656 183.63664122135378,73.9859524226631 182.92213740455918,73.54612568070297 182.31755725189578,72.77642880991334 181.68549618322868,72.30911280761939 181.46564885496628,72.11668856150936 180.97099236643407,71.07209969629184 180.83358778629918,70.63227275482495 180.03664122149348,70.05499984842027 179.29465648846235,69.42274851040565 178.52519083966035,68.70802953152452 177.64580152672715,67.99331047313171 176.79389312979765,67.60846171632875 175.94198473286815,67.63595091406023 175.28244274796452,67.80088609765517 174.34809160314035,67.58097251856816 173.08396946568973,67.36105893194326 172.09465648850892,67.00369933762704 171.2977099235868,66.89374253540882 170.85801526717842,65.849152819952 170.69312977103982,64.88703056311351 171.10534351144452,64.00737580191344 171.40763358783443,63.017764051212 171.35267175571062,61.6707922561327 171.16030534356833,60.543734005710576 170.47328244277742,59.58161095212563 169.86870229011402,58.86689087591367 168.5496183205396,57.877278330823174 167.5877862594789,57.35498275922146 166.76335877855308,56.667751679051435 166.3236641221447,56.33788073429605 165.4442748092115,55.70562804266228 164.207633587881,55.29328929708572 163.82290076336358,55.04588603702723 163.57557251909748,54.60605799537734 162.88854961830657,54.303676199226175 162.09160305350088,54.05627290077973 161.37709923670627,53.94631587617914 160.69007633591536,53.67142330642673 159.26106870232616,53.56146627524868 157.99694656487554,53.5064877589175 157.47480916033965,53.424019983562175 156.34809160302393,53.39653072488727 155.85343511437532,53.56146627524868 155.44122137397062,53.86384810646996 155.30381679395214,54.3861439631728 155.38625954196323,54.82597201995668 155.74351145047694,55.48571404835093 155.96335877862293,56.008009772602236 156.37557251914404,56.50281620878377 156.81526717555244,57.35498275922146 156.70534351142123,58.09719224294531 156.73282442742493,58.53702004454681 156.95267175568733,59.609100184286945 156.87022900767624,60.846115507010836 156.84274809167255,61.863216815603664 156.21068702288903,63.51256994571304 155.27633587794844,64.52967083096155 154.67175572516862,64.91451977245742 153.3801526717143,64.47469240881037 152.96793893130962,64.44720319763292 152.4183206106536,64.00737580191344 151.8687022899976,63.32014543568948 151.12671755731571,62.90780718057067 150.6870229006745,62.66040421478101 150.0549618320074,62.33053357890458 149.2854961832054,62.165598254534416 148.9832061068155,62.0006629259733 148.26870229002088,61.835727593133925 147.80152671749238,61.56083536229562 147.38931297708768,61.09351854288252 146.64732824428938,61.28594311972847 145.32824427483138,60.186374031269224 144.64122137404047,59.82901403692085 144.36641221377067,59.44416478983476 143.21221374056768,58.8119124052173 142.27786259539425,58.674466226337245 141.23358778632246,59.196761690225685 140.90381679381244,59.52663248759927 139.83206106873695,59.74654634302715 139.41984732821584,59.52663248759927 138.56793893128633,59.361697091022506 137.96335877873935,59.609100184286945 137.41374045808334,59.691567879897775 137.05648854956962,60.04892788195866 137.00152671756223,60.543734005710576 137.22137404570822,60.90109396024491 137.96335877873935,61.038540091278264 138.65038167941384,61.14849699396291 138.43053435115144,60.81862628017552 137.79847328248434,60.7361585990875 136.34198473289143,60.68118014445645 135.35267175571062,60.928583186643664 134.58320610690862,61.80823837060598 134.22595419851132,62.742871871130774 133.6488549618516,62.8253395264328 133.0442748091882,63.567548376042396 131.9175572519889,64.22728950352757 130.87328244268429,65.38183631325956 130.1038167938823,66.06906645841082 129.55419847322628,66.9212317361671 129.0870229008142,67.47101572618703 128.67480916029308,67.85586449119728 128.20763358776458,68.54309437132906 127.38320610695519,69.28530255911755 126.53129770990927,70.35738090108498 125.62442748085596,71.12707806186518 124.14045801525936,72.03422102570767 123.20610687020235,72.55651540134568 122.46412213752046,72.94136386140599 121.33740458020475,73.49114733585157 120.76030534342863,73.6560823690379" stroke="#4DD2FF" stroke-dasharray="none" stroke-linecap="round" stroke-linejoin="round" stroke-width="0.5"><title>2026-06-20 10.1km</title><desc>9223370254938036107</desc></polyline><polyline fill="none" opacity="1" points="14.0,169.19865897487034 14.319881525356323,169.1186648083676 14.666419844375923,168.74535868436215 14.773047019611113,167.57211072123027 14.853017400950193,167.19880450502387 15.306182895204984,166.63884513903758 15.706034801900387,165.38560256687924 15.599407626781613,164.26568346022395 16.212513883714564,163.3590821318503 16.159200296155177,162.71912817380507 16.292484265053645,161.7858618676255 16.31914105883334,160.93258969433373 16.31914105883334,160.3992945268401 16.372454646392725,159.49269263772294 16.4790818215115,157.86614185984945 16.9589041096624,156.66622707992792 17.278785634902306,156.42624409627751 17.598667160375044,155.62630075088236 17.785264716716483,155.14633469440741 18.691595705226064,154.47971511021024 19.384672343498096,153.19980530900648 20.50425768236164,152.07988401741022 20.904109588940628,151.8132360612217 22.34357645304408,151.17328091981472 23.303221029229462,150.74664412232232 24.236208811518736,150.3200072957261 25.70233246940188,149.4667335548147 26.15549796365667,149.2534151013242 27.00851536472328,148.64012450687005 27.43502406508196,148.3201467814215 28.474639022606425,147.5468672104762 29.247686042217538,146.8002523611649 30.10070344316773,145.8669836736226 30.900407256674953,145.22702792132623 31.67345427616965,144.21376451221295 32.20659015187994,143.33382510198862 32.793039615033194,142.56054491153918 33.139577934052795,142.32056138460757 33.45945945940912,142.0272481724387 33.805997778545134,141.65394042784465 34.73898556095082,141.14730845286977 35.432062199222855,140.26736860882374 35.72528693068307,140.26736860882374 36.25842280627694,139.7874013685796 36.15179563127458,139.33409894106444 36.39170677529182,138.93412618344883 36.898185857106,138.42749398679007 37.67123287671711,138.13418059088872 38.68419104034547,138.13418059088872 39.723805997753516,138.16084544561454 40.68345057382248,138.10751573595917 41.48315438721329,138.5074885468639 42.042947056586854,138.5074885468639 43.34912995190825,138.267504863441 44.09552017773967,138.29416971764294 44.895223991246894,138.61414795875316 45.401703072944656,138.7474722210609 46.20140688621905,138.64081281141262 46.01480932987761,138.5074885468639 46.627915586926974,138.45415884026443 46.894483524607494,138.64081281141262 47.66753054421861,139.3607637906971 48.094039244693704,139.62741228027153 49.000370233203284,139.7607365208678 49.69344687147532,140.02738499332918 50.439837097306736,140.37402799047413 51.37282487959601,140.8539951853454 52.06590151786804,141.4406217065989 52.35912624944467,142.0272481724387 53.07885968161281,142.5872097472893 53.66530914476607,143.22716577109531 54.30507219559513,143.86712172909756 54.57164013327565,144.34708865440916 55.504627915564924,145.06703897294938 56.75749722321052,144.05377553784638 57.263976305141114,142.9871822699206 57.7437985931756,142.10724268620834 58.250277674989775,141.1739732947026 58.57015920022968,140.08071468651178 59.02332469448447,138.3741642794048 59.263235838501714,137.54755375752575 59.31654942617752,136.82760256819893 59.156608663499355,135.6010188680957 59.10329507582355,135.20104586999514 58.94335431314539,134.77440797700547 59.076638282160275,134.05445646605222 58.91669751948211,133.14785074073006 59.12995186960325,132.56122343617608 59.84968530165497,132.05459071943187 61.075897815753706,132.18791512260213 62.03554239170626,132.37456928219763 62.64864864863921,132.6678829502489 63.84820436872542,133.06785611162195 64.86116253247019,133.33450487154187 65.07441688259132,133.73447798987036 66.43391336535569,134.72107823830447 67.39355794154108,135.28104047168745 68.35320251761004,136.45429451117525 68.99296556832269,137.36089975351933 69.39281747501809,138.267504863441 69.23287671222351,138.5874831059482 69.41947426879779,139.89406075852457 69.7926693817135,141.1739732947026 69.87263976305258,141.8405943029502 69.7660125879338,142.4805504035903 69.89929655683227,143.04051193763735 70.03258052573074,143.41381959899445 70.9655683079036,144.18709968344774 71.8452425027499,144.42708313840558 72.29840799700469,144.80039071652573 72.88485746015795,145.33368721793522 73.57793409842998,145.70699474171852 74.88411699375138,145.89364849522826 75.2039985191077,145.97364295925945 76.24361347651575,146.3469504446839 77.2032580524683,146.7202579076984 78.37615697889123,147.20022461298504 78.9092928544851,147.65352646732936 79.46908552385867,147.973504227004 80.24213254346978,148.96010221587494 80.5620140688261,149.54672797294916 81.12180673831608,150.10668887148495 81.49500185123179,150.47999610909028 81.94816734548658,150.9332977247832 82.42798963340465,151.33326971129281 83.22769344679546,151.97322483634343 84.26730840431992,152.87982781764003 85.01369863015134,153.75976587933837 85.1736393928295,154.02641375231906 85.46686412440613,153.75976587933837 85.46686412440613,153.4664532058814 85.9733432062203,152.74650385804125 85.25360977405217,152.05321922237636 84.53387634211686,151.6265824850998 83.60088855971117,150.7199793215841 82.98778230277821,150.21334808447864 82.42798963340465,149.4667335548147 81.8148833764717,149.20008548680926 81.54831543867476,149.01343183245626 81.3883746759966,148.24015234748367 80.88189559418242,147.6801912812807 80.32210292480886,146.98690608184552 79.78896704921499,146.4802745411871 79.28248796740081,145.60033545148326 78.53609774156939,145.17369827232324 78.29618659755215,144.907050020498 77.89633469085675,144.53374244872248 76.53683820809238,144.53374244872248 75.89707515737973,144.74706106388476 74.7508330247365,144.58707210316788 73.33802295441274,144.34708865440916 72.6716031099204,143.92045138933463 72.13846723432653,143.46714926307322 71.28544983337633,143.04051193763735 71.25879303959664,142.2672317107208 71.39207700849511,141.8405943029502 71.71195853396785,140.69400612448226 71.89855609030928,140.1873740713927 71.8185857089702,139.38742864015512 71.55201777117327,138.10751573595917 71.07219548313878,137.01425658824155 70.37911884486675,136.18764588533668 69.97926693805493,135.81433778983774 68.91299518686719,135.09438639949076 68.4598296926124,134.80107284613769 67.34024435386527,133.97446184855653 66.54054054047447,133.3078399960068 65.28767123282887,132.7478775845957 64.67456497589592,132.37456928219763 64.08811551274266,131.92126631335123 63.18178452423308,131.57462284425856 62.168826360604726,131.25464424022357 61.10255460930057,130.908000733878 60.19622362079099,130.9613305053499 59.02332469448447,130.85467096194043 57.397260273923166,130.7746763031464 56.704183635651134,130.9346656196285 56.330988522735424,131.65461749272072 56.38430211029481,132.45456392029882 57.237319511245005,133.70781311616884 57.58385783038102,134.8544025841984 57.423917067819275,135.22771073738113 57.877082562074065,135.8676675191382 57.90373935573734,136.69427826468018 57.93039614951704,137.3875646115339 57.90373935573734,138.82746677708928 57.317289892584085,140.26736860882374 57.05072195478715,140.72067096829414 56.4376156978542,141.52061622793553 55.63791188446339,141.89392398047494 54.971492039971054,141.81392946394044 54.465012958156876,141.6272755880782 53.5320251758676,141.04064908446162 52.73232136236038,140.56068190402584 52.01258793042507,139.86739591122023 51.37282487959601,139.60074743186124 50.75971862266306,139.33409894106444 49.61347649025265,138.88079648045823 48.973713439540006,138.7474722210609 48.067382451030426,138.5874831059482 47.32099222508259,138.3741642794048 46.601258793030865,137.44089432738838 45.88152536097914,137.1209160257422 44.948537578689866,136.37429992467514 44.28211773419753,136.00099184038118 43.58904109580908,135.81433778983774 42.84265086997766,135.9209972480021 42.576082932180725,136.40096478690975 42.042947056586854,136.69427826468018 41.18992965563666,136.82760256819893 40.33691225468647,136.80093770768144 39.32395409105811,136.85426742848358 38.79081821546424,137.09425116659258 38.550907071447,137.73420775594423 38.92410218436271,138.16084544561454 39.43058126606047,138.18751030022395 39.96371714177076,138.267504863441 39.3772676786175,138.00085631539696 38.47093669010792,137.81420232501114 37.35135135136079,138.08085088105872 36.95149944466539,138.18751030022395 36.57830433174968,138.7208073687798 36.25842280627694,139.41409348952584 35.72528693068307,139.97405529973912 34.76564235473052,140.5873467483034 33.64605701586697,141.38729202511604 32.873009996372275,142.1605723614921 32.09996297664475,143.04051193763735 31.780081451288424,143.52047892674454 31.166975194355473,144.05377553784638 30.447241762420163,144.93371484611998 29.327656423440203,146.16029670479475 28.394668641267344,147.01357089867815 27.83487597189378,147.44020795173128 27.061828952166252,148.08016347658122 26.208811551332474,148.5867948870873 25.062569418689236,149.33340952222352 24.396149574196897,149.68005200097105 23.329877823009156,150.16001847820007 22.183635690482333,150.7199793215841 21.757126990007237,150.8533033244894 20.317660125903785,151.43992890338995 19.944465012988076,151.75990646862192 19.011477230582386,152.74650385804125" stroke="#4DD2FF" stroke-dasharray="none" stroke-linecap="round" stroke-linejoin="round" stroke-width="0.5"><title>2026-06-18 10.1km</title><desc>9223370255108266507</desc></polyline><polyline fill="none" opacity="1" points="122.22699386521708,155.52315014600754 123.66257668717299,154.6946803810133 124.13190184056293,154.4737550924183 125.15337423316669,153.72813218744704 126.47852760739625,152.76158384906012 127.38957055215724,151.96072940176236 127.96932515338995,151.2703375571 128.162576687173,150.99418079847237 128.7147239263868,150.55232996013365 129.81901840493083,149.42008704860928 130.48159509210382,148.28784393818933 131.03374233143404,147.8183772242628 131.22699386498425,147.59745169995585 131.7239263803931,146.8242123053351 132.38650306756608,146.27189839520724 133.35276073624846,145.60912164047477 133.84969325154088,145.08442332799314 134.62269938655663,144.64257208423805 135.17484662577044,143.45509671632317 136.16871165647171,143.12370820247452 137.30061349691823,143.15132391263614 138.15644171775784,143.09609249222558 138.9294478527736,143.09609249222558 139.70245398778934,143.51032813370693 140.86196319025476,143.56555955050862 141.6349693251541,143.34463388030417 141.9110429448774,143.23417104236432 142.2147239265032,143.23417104236432 143.81595092022326,143.73125379820704 144.86503067496233,143.70363809057744 145.4723926379811,143.51032813370693 145.7760736196069,143.92456374847097 146.49386503070127,144.17310510450625 147.15644171787426,144.55972497264156 148.50920245412271,144.86349770988454 149.3926380368648,145.33296463923762 150.16564417176414,145.71958443764015 150.6349693252705,146.2166670016013 151.13190184044652,146.87944369373145 151.93251533748116,147.7907615341246 152.677914110478,148.50876943877665 153.36809815955348,149.14393021073192 154.2239263803931,149.58578114569536 154.88650306756608,150.11047909146873 155.3558282208396,149.75147523841588 156.0460122700315,149.30962431491935 156.40490797546227,148.34307531398372 156.48773006140254,147.87360860413173 157.09509202453773,146.5756710516871 157.67484662577044,144.89111341253738 157.95092024537735,143.8969480416563 158.1441717791604,142.81993538312963 158.19938650308177,141.218223916454 158.00613496941514,139.5060491488839 157.89570552145597,138.23572563944617 158.0613496932201,137.5729480566224 158.66871165647171,136.71686024425435 159.44171779137105,136.71686024425435 160.26993865030818,136.8825546684384 161.1533742331667,136.9654018789297 162.75460122711957,137.60056379062007 163.69325153389946,137.95956832164666 164.3558282208396,137.73864245874574 164.88036809815094,137.7662581919867 164.76993865030818,138.56711440524668 165.6257668711478,139.2851233391557 166.86809815943707,140.058363639866 167.33742331294343,140.5830623623042 167.6963190184906,140.9696824462735 168.11042944784276,141.5496125285281 168.6349693252705,142.46093112355447 168.8558282208396,143.28940246155253 168.6349693252705,143.73125379820704 168.27607361972332,144.20072081015678 168.55214723933022,144.86349770988454 168.96625766868237,145.52627454136382 169.32515337422956,147.07275354949525 169.10429447854403,147.54222031772952 169.4631901839748,148.3706910018227 170.1533742331667,148.97823610238265 171.14723926386796,149.66862819262315 171.50613496941514,150.00001636962406 171.9478527607862,150.27617317080148 172.66564417176414,150.57994563839748 174.04601226991508,150.91133376859943 175.26073619630188,151.18749053071951 176.06134969333652,151.4360316065431 177.16564417188056,151.82265103873215 178.04907975462265,152.26450179005042 178.96012269938365,152.98250919627026 179.59509202453773,153.47959119995357 180.25766871171072,154.19759847098612 180.50613496941514,154.7499117020052 180.75460122711957,155.1365309356188 181.27914110431448,155.57838145986898 181.63803680997808,156.07546326357988 181.94171779148746,156.46208241774002 182.6871165643679,157.06962675612886 183.73619631910697,157.92571186312125 184.56441717792768,158.69894992676564 185.19938650319818,159.47218789788894 185.4754601228051,159.25126277271193 185.64110429456923,158.67133428325178 185.97239263809752,158.20186832506442 185.64110429456923,157.76001798032667 184.5368098160252,157.04201110560098 184.09509202465415,156.60016068146797 183.3496932516573,155.99261629892862 183.0460122700315,155.63361277335207 182.63190184056293,154.99845264054602 181.96932515338995,154.4185237690108 181.58282208582386,154.30806112097343 181.1963190183742,153.3691285358218 180.39570552157238,152.34734880251926 179.65030674857553,151.7398040194821 179.23619631899055,151.29795323227881 178.84969325154088,150.96656512201298 177.77300613513216,150.57994563839748 177.49693251529243,150.30378885022947 176.61349693255033,149.9724006888573 175.2055214724969,149.9724006888573 174.65337423305027,149.86193796459702 174.3220858896384,149.7238595566305 173.07975460134912,149.44770273173344 172.11349693266675,149.08869884177693 171.11963190184906,148.50876943877665 170.9539877299685,148.23261256184196 170.89877300616354,146.87944369373145 171.14723926386796,145.99574142237543 171.36809815955348,145.38819604041055 171.3128834356321,144.9739605198265 171.340490797651,143.5931752587203 171.09202453994658,142.57139397473657 170.29141104302835,141.35630250693066 169.4631901839748,140.5830623623042 168.41411042958498,139.83743784911348 167.66871165647171,139.34035479227896 166.45398773020133,138.4842672154482 165.8742331288522,138.01479978614952 164.7975460124435,137.68341099185636 164.27300613489933,137.4624851194967 163.94171779148746,137.43486938488786 163.5,137.02063335196 163.38957055215724,136.71686024425435 162.36809815955348,136.24739268576377 161.62269938655663,136.02646676404402 160.65644171775784,135.6674621249549 159.49693251540884,135.6674621249549 158.7239263805095,135.52938341230038 157.5092024540063,135.52938341230038 156.37730061355978,135.5569991550874 155.85276073613204,135.7503093511623 155.27300613513216,136.24739268576377 155.24539877299685,137.04824908837327 155.82515337434597,137.87672112393193 156.54294478532393,139.03658179420745 156.76380368112586,139.5060491488839 156.73619631910697,139.89266929749283 156.9846625768114,140.9696824462735 157.01226993871387,141.30107107109507 157.01226993871387,141.66007539539714 156.95705521467607,142.7647039598378 156.9018404908711,143.9797951617511 156.15644171787426,145.6643530393485 155.9907975459937,145.99574142237543 155.0797546012327,146.85182799963513 154.33435582835227,146.93467508172034 153.34049079753458,146.5204396606423 152.26380368100945,145.8576629314921 151.84969325154088,145.47104314135504 151.04907975462265,145.001576222101 150.55214723933022,144.78065060111112 149.7239263803931,144.42164645093726 149.22699386510067,144.1454893987102 148.70245398778934,144.00741086821654 148.06748466251884,143.7588695057202 147.51533742330503,143.53794384215144 146.63190184056293,143.53794384215144 146.1073619632516,143.39986529856105 145.33435582823586,143.15132391263614 144.69938650308177,142.26762112937286 144.23006134969182,141.66007539539714 143.7055214724969,141.32868678905652 142.84969325154088,141.190608198056 141.99386503070127,141.05252960408689 141.16564417188056,141.4115339422424 140.28220858902205,141.71530682814773 139.86809815955348,141.66007539539714 139.26073619630188,141.6048439621518 138.57055214734282,141.5772282454127 137.90797546016984,141.77053826037445 137.63190184056293,141.63245967886178 137.21779141109437,141.85338540788507 136.88650306744967,142.48854683656828 137.1349693251541,143.01324536075117 138.07361963193398,143.17893962265225 138.5429447852075,143.06847678188933 137.88036809826735,142.84755109454272 137.3834355828585,142.57139397473657 136.251533742412,142.8751668058976 135.47852760739625,143.06847678188933 135.17484662577044,143.42748100752942 134.53987730061635,144.44926215556916 134.1533742331667,144.89111341253738 133.62883435597178,144.9739605198265 132.9662576687988,145.6367373400135 132.11042944784276,146.07858851543278 131.55828220862895,146.65851813732297 131.06134969333652,147.29367909173016 130.64723926386796,147.76314584387 129.8742331288522,148.8125419896678 129.15644171799067,149.7238595566305 128.85276073624846,149.9724006888573 128.30061349691823,150.46948292458546 127.5,151.2151062063058 127.16871165647171,151.49126295541646 126.64417177916039,152.07119209007942 126.0368098160252,152.62350550317205 125.51226993871387,152.98250919627026 124.35276073624846,153.75574785211938 123.66257668717299,154.33567678323016 122.1165644172579,155.27460922769387 120.79141104302835,155.93738498858875 119.46625766879879,156.35161980462726 118.88650306756608,156.6553919861617 117.75460122700315,157.1800893569307 117.09202453994658,157.76001798032667 116.31901840493083,158.42279348612647 115.65644171775784,159.41695661726408 115.46319018409122,159.74834429365 115.07668711664155,160.21781013949658 114.6073619632516,161.12912609570776 114.24846625770442,162.12328881054418 114.05521472392138,163.69737946300302 114.0276073620189,164.5258480735938" stroke="#4DD2FF" stroke-dasharray="none" stroke-linecap="round" stroke-linejoin="round" stroke-width="0.5"><title>2026-06-16 10.1km</title><desc>9223370255286294807</desc></polyline><polyline fill="none" opacity="1" points="23.364957918878645,234.71145735119353 24.87987758219242,233.857336857036 25.871461361879483,233.00321624963544 27.138485080213286,232.03888639528304 28.322876817081124,230.82658580192947 29.50726855394896,229.55918039177777 30.306044376338832,228.53974542405922 30.82938026008196,227.63051950570662 31.655700076487847,226.99681651688297 32.39938791131135,226.308008849388 33.005355776520446,225.78451497267815 33.69395562354475,225.04060254816432 34.21729150728788,224.82018403554684 34.713083397015,224.4620039362635 34.713083397015,223.85585295353667 35.098699311260134,223.47012048019678 36.33817903592717,222.8364170808054 37.60520275426097,222.89152172673494 38.76205049722921,222.97417869474157 39.75363427691627,223.11194030565093 40.69013006880414,223.16704494916485 41.681713848374784,223.16704494916485 42.34276970161591,223.0017310170806 43.52716143836733,223.35991119785467 44.21576128527522,223.4150158392149 45.482785003841855,223.69053903920576 45.84085692418739,223.93850990911596 46.36419280793052,223.85585295353667 47.245600612135604,224.2415854036808 47.8791124712443,224.43445162006537 48.37490436108783,224.59976551524596 49.44912012235727,225.09570717520546 50.413159908144735,225.56409648552653 50.936495791887864,226.06003807098023 51.18439173663501,226.52842731101555 51.62509563891217,226.80395037741982 51.98316755925771,227.13457804147038 52.231063504121266,227.4927579916839 53.002295332727954,228.20911783233169 53.80107115523424,229.09079137266963 55.17827084928285,229.83470332823345 55.92195868398994,229.33876203408 56.44529456773307,228.15401323200786 57.078806426841766,226.52842731101555 57.684774292167276,225.0681548617431 58.15302218811121,223.33235887691262 58.318286151392385,222.4782368708693 58.2907421576092,221.4036961211532 58.345830145291984,220.41181219244027 58.18056618201081,219.3372710965923 58.15302218811121,218.62091026597773 57.98775822494645,218.29028216333245 58.09793420031201,217.68413059753948 58.2907421576092,216.94021723387414 58.89671002293471,216.49937964428682 59.91583779640496,216.52693199456553 61.15531752095558,216.7473507921677 62.72532517218497,217.38105479316437 64.15761285379995,217.71168294275412 64.4605967864627,217.93210169955273 64.98393267020583,218.45559621680877 66.38867635803763,219.50258512303117 67.02218821737915,219.83321316321963 67.40780413162429,220.38425985889626 68.12394797243178,221.1281728229951 68.84009181323927,222.4782368708693 68.92272379482165,222.97417869474157 68.84009181323927,223.80074831593083 68.56465187447611,224.15892845200142 69.22570772760082,225.4814395508729 69.41851568466518,226.41821808111854 69.4460596786812,227.07947343203705 69.83167559292633,228.01625172924832 70.35501147655305,228.8428207016841 70.85080336651299,229.17344826084445 71.51185921940487,229.6693895678327 71.95256312168203,229.83470332823345 73.43993879109621,230.55106290790718 74.62433052796405,230.82658580192947 75.94644223409705,231.21231783367693 76.44223412382416,231.23987012082944 77.18592195864767,231.54294527103775 78.03978576895315,232.0113341115648 78.72838561586104,232.47972291806946 79.55470543226693,233.00321624963544 80.07804131589364,233.44405270632706 80.60137719975319,234.51859144307673 80.87681713851634,234.90432325354777 81.20734506496228,235.31760731054237 81.97857689356897,236.11662307879305 82.80489671009127,236.7227729059232 83.65876052028034,237.4942362397269 84.56771231815219,238.32080399486586 85.31140015309211,239.2024761501816 85.50420811004005,238.89940136042424 85.44912012235727,238.65143106723554 86.0,238.10038593719946 85.75210405502003,237.659549799253 84.87069625081494,236.9156387480616 83.71384850796312,235.81354814395308 83.1905126243364,235.40026411876897 82.52945677109528,234.57369598883088 81.67559296090622,233.99509823476546 80.90436113229953,232.75524572940776 80.29839326697402,231.92867725988617 79.33435348118655,231.07455639643013 79.0038255546242,230.74392893494223 77.92960979335476,230.00001708453055 77.43381790351123,229.83470332823345 76.2494261667598,229.36631432920694 75.67100229533389,229.3938666242757 74.73450650332961,229.53162809752394 73.79801071144175,229.3938666242757 72.91660290735308,229.035686779971 72.28309104812797,228.67750691564288 71.04361132346094,227.68562411054154 70.93343534809537,226.748845765047 71.23641928075813,225.4814395508729 71.4292272379389,224.43445162006537 71.4016832440393,223.2772542348248 70.82325937249698,221.70677173542208 70.0244835501071,220.74244018571335 69.03289977042004,219.91587017057464 68.75745983165689,219.6954514819081 68.31675592949614,219.3648234345892 67.68324407027103,219.0066430309089 66.85692425398156,218.34538684831932 66.00306044367608,217.71168294275412 65.03902065800503,217.40860713960137 64.4330527925631,216.94021723387414 64.21270084159914,216.60958904458676 63.7444529455388,216.66469374398002 62.863045141566545,216.08609437654377 61.56847742910031,215.70036143591278 60.57689364964608,215.39728553770692 59.585309869842604,215.36973318259697 58.56618209625594,215.28707611659775 57.491966335102916,215.25952376105124 56.280030604451895,215.31462847205694 55.756694720708765,215.45239024754846 55.31599081866443,216.49937964428682 55.81178270850796,217.35350244661095 56.472838561516255,218.29028216333245 56.72073450649623,218.97909069128218 56.803366488195024,219.58524213466444 57.05126243305858,220.38425985889626 57.16143840842415,220.74244018571335 57.106350420741364,221.1006204925652 57.106350420741364,221.6241147511173 56.94108645746019,222.91907404951053 56.885998469777405,223.6629867197771 56.77582249417901,224.1864807693928 56.55547054321505,224.6824224612501 56.1147666410543,225.37123030310613 55.70160673290957,226.06003807098023 55.04055087978486,226.41821808111854 54.35195103287697,226.6386365389626 53.4429992348887,226.17024730698904 53.11247130832635,226.00493345223367 52.12088752863929,225.45388723906945 51.046671767369844,224.6548701460415 50.33052792644594,224.29669003756135 49.669472073437646,223.91095759070595 48.81560826313216,223.69053903920576 48.26472838560585,223.4425681598077 47.74139250186272,223.47012048019678 47.218056618236005,223.2497019136208 46.474368783296086,223.2221495922422 45.978576893685386,223.0017310170806 45.31752104044426,222.0098473354592 44.73909716901835,221.6792194074951 43.96786534041166,221.21082981367363 43.16908951790538,220.96285883840756 41.98469778127037,221.0179635004315 40.88293802598491,221.3210391329776 40.49732211162336,221.43124845030252 39.91889824019745,220.74244018571335 39.120122417691164,221.18327748362208 38.045906656538136,221.37614379188744 37.853098699240945,221.23838214366697 37.27467482781503,221.70677173542208 37.13695485831704,222.4231322214182 37.52257077267859,222.8364170808054 38.43152257078327,222.91907404951053 38.62433052784763,222.69865546398796 38.1836266258033,222.56089384420193 37.66029074206017,222.1751612930093 37.219586840015836,222.12005664093886 35.75975516450126,222.69865546398796 35.071155317593366,223.35991119785467 34.713083397015,223.6629867197771 34.244835501071066,224.6548701460415 33.831675592809916,224.6548701460415 33.005355776520446,225.4263349272078 31.958684009034187,226.19779961567838 31.242540168343112,227.10702573679737 30.498852333636023,227.76828101676074 29.920428462093696,228.6224023193936 29.39709257846698,229.17344826084445 28.791124713025056,229.80715103520197 28.130068859900348,230.68882435644628 27.579188982374035,231.07455639643013 26.807957153767347,231.87357269146014 26.064269318943843,232.42461835432914 25.65110941079911,232.6725888873043 25.32058148435317,232.97566397007904 24.439173680148087,233.49915726130712 23.58530986995902,234.27062098128954 22.731446059653535,234.73900962329935 21.32670237182174,235.31760731054237 20.335118592134677,235.81354814395308 18.847742922604084,236.44725026428932 17.332823259290308,237.32892267600982 15.95562356535811,238.51366978909937 15.652639632695355,238.89940136042424 15.239479724434204,239.8361779373081 14.771231828606687,240.60764089843724 14.578423871425912,241.04847683472326 14.413159908144735,241.70973068271996 14.275439938763157,242.39853670232696 14.137719969265163,243.05979041199316 14.137719969265163,244.4649543199048" stroke="#4DD2FF" stroke-dasharray="none" stroke-linecap="round" stroke-linejoin="round" stroke-width="0.5"><title>2026-06-11 10.2km</title><desc>9223370255717407907</desc></polyline></svg>