<?xml version="1.0" encoding="utf-8" ?>
<svg baseProfile="full" height="300mm" version="1.1" viewBox="0,0,200,300" width="200mm" xmlns="http://www.w3.org/2000/svg" xmlns:ev="http://www.w3.org/2001/xml-events" xmlns:xlink="http://www.w3.org/1999/xlink"><defs /><rect fill="#222222" height="300" width="200" x="0" y="0" /><text fill="#FFFFFF" style="font-size:12px; font-family:Arial; font-weight:bold;" x="10" y="20">Over 10km Runs</text><text fill="#FFFFFF" style="font-size:4px; font-family:Arial" x="10" y="280">Runner</text><text fill="#FFFFFF" style="font-size:9px; font-family:Arial" x="10" y="290">Yanfu</text><text fill="#FFFFFF" style="font-size:4px; font-family:Arial" x="65" y="280">SPECIAL TRACKS</text><rect fill="yellow" height="2.6" width="2.6" x="65" y="283" /><text fill="#FFFFFF" style="font-size:3px; font-family:Arial" x="70" y="285.5">Over 20.0 km</text><rect fill="red" height="2.6" width="2.6" x="65" y="287" /><text fill="#FFFFFF" style="font-size:3px; font-family:Arial" x="70" y="289.5">Over 40.0 km</text><text fill="#FFFFFF" style="font-size:4px; font-family:Arial" x="120" y="280">STATISTICS</text><text fill="#FFFFFF" style="font-size:3px; font-family:Arial" x="120" y="285">Number: 4</text><text fill="#FFFFFF" style="font-size:3px; font-family:Arial" x="120" y="290">Weekly: 2.0</text><text fill="#FFFFFF" style="font-size:3px; font-family:Arial" x="141" y="285">Total: 40.5 km</text><text fill="#FFFFFF" style="font-size:3px; font-family:Arial" x="141" y="290">Avg: 10.1 km</text><text fill="#FFFFFF" style="font-size:3px; font-family:Arial" x="167" y="285">Min: 10.1 km</text><text fill="#FFFFFF" style="font-size:3px; font-family:Arial" x="167" y="290">Max: 10.2 km</text><polyline fill="none" opacity="1" points="14.5,95.63856798608322 14.561178247793578,95.05720152606955 14.8976586102508,93.8026737414184 14.805891238618642,92.94592293328606 15.203549848869443,92.21156501641963 15.540030211443081,91.32421576656634 15.417673715972342,90.13088384369621 15.540030211443081,88.72336388460826 15.601208459236659,88.41738124832045 15.937688821693882,87.83601420326158 16.1212235649582,86.03071623673895 16.182401812635362,85.63293865753803 16.610649546724744,84.13362296822015 17.40596676734276,83.52165729057742 17.49773413897492,83.21567443216918 17.65067975828424,82.48131551861297 17.742447129799984,81.86934969975846 18.445996978785843,81.31858041812666 19.11895770393312,79.66627231886378 19.85309667675756,78.90131473640213 20.74018126889132,78.3199469189276 21.96374622359872,77.9221689113183 23.6155589123955,77.06541620456846 25.083836857927963,76.33105665986659 25.817975830868818,75.96387685928494 26.827416918356903,75.4131071230513 27.806268882239237,74.77054237708217 28.78512084588874,74.06678092241054 29.549848942668177,73.39361772692064 30.834592144936323,72.20028281561099 31.53814199392218,71.49652110773604 32.14992447127588,70.79275933053577 33.06759818724822,69.87480908219004 33.404078549938276,69.20164549170295 33.80173716007266,68.58967853616923 34.90294561930932,67.15155598416459 35.82061933539808,66.3865970618208 36.31004531716462,66.14181018940872 37.04418428998906,65.46864624676527 37.9618580059614,65.04026915930444 38.45128398796078,64.03052306559402 38.91012084588874,63.63274426216958 39.30777945613954,63.08197357458994 40.71487915411126,62.7759898409131 41.26548338367138,62.7759898409131 42.4584592145402,62.7759898409131 43.19259818736464,62.745391466713045 43.6820241692476,62.561801219475456 44.14086102717556,62.95958008267917 44.56910876126494,63.23496543650981 44.96676737163216,63.23496543650981 45.6703172205016,63.143170319730416 46.129154078662395,63.08197357458994 47.32212990929838,62.92898170935223 48.45392749237362,63.23496543650981 49.7080815709196,63.326760552066844 50.16691842896398,63.41855566651793 51.3293051358778,63.84693285136018 52.43051359511446,64.4894985803985 53.74584592145402,64.76488387514837 55.0,65.37685115874046 56.16238670691382,66.14181018940872 56.56004531716462,66.50899049494183 56.988293051254004,66.90676913794596 57.56948640476912,67.67172800452681 57.93655589118134,68.16130163607886 58.27303625375498,68.3448917393107 59.28247734135948,69.32403887651162 60.01661631418392,70.1807925113826 60.4448640482733,70.67036597093102 61.14841389725916,70.21139085362665 62.2802114803344,68.6814735828666 62.524924471392296,68.22249833768001 63.38141993957106,66.78437571169343 63.99320241692476,65.07086752349278 64.23791540786624,63.93872795905918 64.63557401811704,62.745391466713045 64.69675226591062,61.88863693893654 64.69675226591062,60.51170980324969 64.69675226591062,59.68555339414161 64.5132175226463,58.52281458192738 64.23791540786624,57.66605954617262 64.57439577032346,56.442123602028005 65.3391238671029,55.76895874296315 67.08270392753184,55.92195076204371 68.42862537759356,56.25853319221642 69.71336857997812,56.71750920783961 70.96752265864052,57.14588679559529 71.67107250762638,57.390673977090046 72.55815709976014,58.52281458192738 74.17938066460192,59.471364679862745 74.79116314195562,60.14452918880852 75.8311933533987,61.36846449668519 76.35120845923666,62.99017845583148 75.98413897282444,63.69394100259524 75.80060422956012,64.21411327505484 75.89237160107587,64.73428550962126 76.4123867067974,65.43804788420675 76.71827794564888,66.29480198567035 76.8712235649582,67.36574446776649 76.77945619332604,68.19189998699585 76.84063444111962,68.86506367265247 78.33950151049066,69.81361239473335 78.70657099690288,69.9972024554736 79.5324773414759,70.51737426850013 81.03134441084694,71.22113607276697 82.40785498498008,71.55771778069902 83.20317220536526,71.71070946095278 83.81495468271896,71.8942994728568 84.88557401811704,72.13908614811953 86.13972809666302,72.87344612344168 87.27152567973826,73.51601103995927 87.7609516615048,73.7913959864527 88.4033232628135,74.28096919850213 88.73980362538714,74.46455914439866 89.35158610274084,76.20866339514032 89.47394259809516,76.5146465532016 89.93277945625596,76.66763812728459 90.8504531722283,77.5243908817065 91.82930513599422,78.25875030382304 92.37990936543792,78.87071643135278 93.14463746221736,79.57447741331998 94.09290030202828,80.27823832602007 94.58232628402766,81.04319576139096 94.73527190333698,80.73721279704478 94.85762839880772,80.21704172762111 94.82703927485272,78.99310965056065 94.15407854982186,78.41174184059491 93.17522658605594,77.61618581356015 92.8693353474373,77.27960439090384 92.0740181269357,76.79003138415283 91.40105740178842,75.93327854172094 90.69750755280256,75.4131071230513 90.4527945619775,75.19891888083657 89.90219033241738,74.03618259675568 89.74924471299164,73.54660936788423 88.8621601209743,72.9040444541024 88.03625377640128,72.20028281561099 87.17975830822252,71.40472609724384 86.20090634434018,70.60916929034283 85.25264350452926,70.1807925113826 84.30438066471834,70.21139085362665 83.57024169177748,70.39498090412235 82.53021148045082,70.15019416908035 81.1231117824791,69.90540742565645 80.02190332324244,69.50762894976651 79.13481873110868,69.38523556815926 78.64539274934214,68.22249833768001 78.46185800607782,67.15155598416459 78.92069486400578,66.17240854888223 79.25717522657942,65.07086752349278 79.19599697890226,63.571547521220054 78.98187311179936,62.31701421568869 78.21714501513634,61.246070975321345 77.54418428998906,60.45051303552464 76.07590634434018,59.34897112590261 75.00528700905852,58.7676017160411 74.08761329296976,58.00264189398149 73.59818731120322,57.63546115014469 72.6193353474373,56.93169800488977 71.24282477342058,56.472722003178205 70.81457703921478,56.197336387995165 70.53927492455114,55.70776193449274 69.7745468277717,55.37117947824299 68.88746223575436,55.09579382033553 68.09214501513634,54.9734001912293 67.32741691847332,54.667416109121405 65.7367824773537,54.545022472622804 64.3296827794984,54.4838256535586 63.748489426099695,54.39203042403096 62.4943353474373,54.36143201391678 61.94373111776076,54.545022472622804 61.4848942598328,54.88160496792989 61.33194864052348,55.462974695139565 61.42371601203922,55.952549165464006 61.82137462240644,56.68691080767894 62.06608761334792,57.26828038744861 62.524924471392296,57.8190515243914 63.01435045315884,58.7676017160411 62.8919939576881,59.59375823161099 62.92258308152668,60.08333241788205 63.16729607246816,61.27666935592424 63.07552870095242,62.65359634376364 63.04493957711384,63.7857361122733 62.34138972812798,65.62163805752061 61.3013595166849,66.75377735483926 60.62839879153762,67.18215433933074 59.19070996984374,66.69258064060705 58.731873111682944,66.66198228334542 58.120090634329244,66.17240854888223 57.50830815709196,65.40744952153182 56.68240181275178,64.9484740656917 56.1929758307524,64.67308877804317 55.489425981766544,64.30590837803902 54.63293051358778,64.12231817090651 54.29645015101414,63.93872795905918 53.50113293051254,63.75513774243882 52.981117824674584,63.44915403763298 52.52228096674662,62.92898170935223 51.69637462240644,63.143170319730416 50.22809667675756,61.919235316629056 49.46336858009454,61.521456395392306 49.15747734135948,61.09307907073526 47.87273413897492,60.38931626721751 46.83270392741542,60.23632434417959 45.6703172205016,60.81769363413332 45.30324773408938,61.18487421388272 44.11027190333698,61.42966125655221 43.6514350452926,61.18487421388272 42.70317220536526,61.00128392636543 42.03021148045082,61.27666935592424 41.41842900309712,61.36846449668519 41.020770392613485,61.76624342647847 40.95959214505274,62.31701421568869 41.2043051358778,62.7147930925712 42.03021148045082,62.867784962349106 42.79493957699742,62.99017845583148 42.55022658617236,62.622997969039716 41.8466767371865,62.531202844460495 40.2254531722283,62.47000609408133 39.12424471299164,62.745391466713045 38.26774924469646,63.72453937260434 37.87009063444566,64.76488387514837 37.22771903325338,64.85667897108942 36.5547583081061,65.68283478083322 35.30060422956012,66.41719542030478 34.138217522529885,67.70232635748107 33.28172205435112,68.4672851387877 32.66993957699742,69.41583391377935 32.14992447127588,70.02780079841614 31.691087613231502,70.45617758651497 31.17107250750996,71.22113607276697 30.25339879153762,72.04729114589281 29.305135951610282,73.24062608275563 28.29569486400578,74.097379247949 26.643882175209,75.10712391790003 25.603851963649504,75.68849199649412 24.777945619425736,76.11686844518408 23.52379154076334,76.72883475595154 22.881419939454645,76.9124246389838 21.87197885196656,77.5243908817065 20.83194864052348,78.07516045530792 19.791918429080397,78.53413506766083 19.3636706948746,78.62592998659238 18.01774924469646,79.72746892203577" stroke="#4DD2FF" stroke-dasharray="none" stroke-linecap="round" stroke-linejoin="round" stroke-width="0.5"><title>2026-06-20 10.1km</title><desc>9223370254938036107</desc></polyline><polyline fill="none" opacity="1" points="104.5,98.57256369307288 105.31612090684939,97.05646076452103 105.89906441164203,95.33626665113843 106.07394746306818,94.75314990454353 106.48200791655108,93.73269547850941 106.97750989568885,93.47029288727208 107.2398344730027,93.17873444073484 107.56045340048149,92.68308505316963 107.64789492625277,91.45853935359628 107.99766102922149,90.9920456960972 108.43486865772866,89.82581141332048 108.668046059669,88.86366798050585 108.55145735887345,87.84321267646737 109.22184238943737,86.56035436398815 109.13440086354967,85.71483398106648 109.3967254407471,85.19002817344153 109.33843109023292,83.58645462291315 109.30928391509224,83.64476639500936 109.45501979137771,81.98288069598493 109.57160849228967,80.05859148665331 110.27114069811068,79.62125295435544 110.38772939902265,78.89235533823376 110.79578985250555,78.45501673125545 111.26214465638623,77.69696307933191 112.39888449071441,76.53072652727133 113.18585822242312,75.21871016782825 114.20600935583934,74.60643578038434 115.10957178846002,74.0816291187657 116.62522490101401,73.38188684050692 117.58708168403246,72.91539194836514 118.75296869385056,72.3614292225102 119.88970852817874,71.66168676750385 120.85156531119719,71.04941206049989 121.14303706365172,70.78700859783567 121.87171644484624,70.23304569887114 122.7752788773505,69.50414707895834 123.9120187117951,68.54200078122085 124.64069809287321,67.66732221073471 125.71914357680362,66.58855181897525 126.2437927313149,65.74302895987057 127.11820798844565,64.89750599573017 127.49712126667146,64.22691874252632 127.93432889517862,63.90620307633071 128.19665347237606,63.614643366629025 129.07106872985605,62.885744037717814 129.9746311623603,62.09853267468861 130.3826916157268,61.77781690802658 130.703310543322,61.80697288751253 131.0822238215478,61.019761399540585 130.99478229577653,60.6115776290535 131.72346167685464,59.99930192748434 132.33555235690437,59.56196210687631 133.58888089237735,59.50365012863767 133.96779417060316,59.56196210687631 135.2794170564739,59.50365012863767 136.62018711771816,59.7368980384781 137.1448362719966,59.94098995308741 138.3398704569554,59.79521001473768 139.24343288945965,59.5911180957919 140.03040662116837,59.85352199044428 140.72993882687297,59.99930192748434 141.63350125949364,60.11592587488121 142.1581504137721,60.02845791450818 142.44962216634303,59.94098995308741 142.56621086713858,59.7368980384781 143.38233177398797,60.640733613516204 143.9652752787806,60.90313746756874 144.19845268095378,61.22385327552911 145.45178121631034,61.42794514540583 146.26790212315973,61.80697288751253 146.7634041022975,62.04022071827785 148.04587981279474,62.85658806291758 148.48308744153474,63.35223961720476 149.386649874039,64.28523068022332 149.7364159770077,64.51847842594725 150.75656711042393,65.626405108982 150.9023029867094,65.97627665565233 151.51439366687555,66.38446010396001 152.91345807851758,66.44277202320518 153.90446203679312,65.21822161524324 154.51655271684285,64.05198292646674 154.80802446929738,63.5854873949429 155.39096797409002,62.01106473983964 155.65329255128745,60.640733613516204 156.17794170568231,59.03715428488795 156.3236775819678,58.658126388298115 156.09050017991103,57.11285859084455 156.14879453042522,56.50058257376077 155.94476430362556,56.00493051952799 156.09050017991103,55.39265440258896 155.7990284274565,54.5471301501093 155.97391147899907,53.905697888316354 156.35282475699205,53.14764150080737 157.72274199360982,52.79776929327636 158.9760705290828,53.03101743364823 159.67560273467097,53.29342158194049 160.7540482188342,53.73076180645148 162.03652392944787,54.02232194042881 162.47373155818786,54.43050610704813 163.37729399069212,55.18856235124986 164.83465275273193,56.15071053922293 165.7090680100955,57.054546591622056 166.67092479311395,58.33741045932402 167.2830154732801,59.44533814990427 167.31216264830437,59.7368980384781 167.13727959699463,60.81566951741115 167.72022310178727,61.836128866736544 167.89510615332983,62.97321196136181 167.89510615332983,63.70211128087249 167.74937027704436,64.43101052221027 167.89510615332983,65.0432858245913 168.7403742353199,65.83049684672733 169.78967254410964,66.32614818424918 169.73137819347903,66.26783626407268 171.0430010795826,67.31745075108483 171.5093558834633,67.66732221073471 172.5295070168795,67.72563411894953 173.49136379989795,68.04634960505064 174.36577905726153,68.45453292925959 175.18189996411093,68.54200078122085 176.3186397984391,69.1251197657839 177.33879093208816,69.4166792393662 178.03832313779276,70.08726598107023 178.82529686938506,70.58291700866539 179.46653472469188,71.60337489307858 179.8454480029177,72.39058515653596 180.42839150771033,72.62383262458025 180.9238934868481,73.29441905062413 181.41939546598587,73.70260206027888 182.0606333214091,74.05247319192858 183.1973731557373,75.18955424588057 184.15922993875574,76.0642318505852 184.47984886658378,76.73481793823885 184.82961496943608,76.47241469443543 184.85876214457676,76.41410286110477 185.5,75.65604898237507 184.94620367034804,75.04377463419223 184.27581863978412,74.40234430567943 183.3139618568821,73.64429020322859 182.55613530043047,73.06117160554277 181.97319179563783,72.3031173540221 181.09877653839067,71.60337489307858 180.74901043553837,71.48675114259822 180.6032745592529,70.99110018080682 180.1077725799987,70.23304569887114 179.7871536522871,69.53330302526592 178.82529686938506,68.6877805320546 178.32979489024729,68.25044127021101 177.71770421008114,67.2882947952603 177.1930550559191,67.05504714450217 176.90158330334816,66.76348756978405 175.9980208708439,66.35530414420646 174.65725080959965,66.58855181897525 174.01601295440923,66.7343316116312 172.41291831596754,66.44277202320518 171.0721482547233,65.94712069415255 170.57664627558552,65.56809318283922 170.02284994604997,65.30568950876477 169.32331774011254,64.31438664888265 169.41075926588383,63.643799338140525 169.87711406988092,62.65249623593991 170.05199712119065,61.952752782643074 169.99370277079288,61.25300925731426 169.87711406988092,59.8826779780793 169.64393666794058,58.97884230222553 168.97355163726024,57.92922652763082 168.09913638001308,57.11285859084455 167.34130982367788,56.44227056927048 166.4960417415714,55.88830650152522 165.56333213392645,55.276030373963295 164.9803886290174,54.75122222068603 163.63961856788956,53.87654187501175 162.41543720755726,53.23510954983067 162.00737675419077,52.85608132919879 161.33699172351044,52.564521145046456 159.79219143581577,52.098024824255845 158.48056854994502,51.66068449441809 157.48956459166948,51.602372448309325 156.87747391150333,51.51490437821485 155.18693774729036,51.45659233088372 153.81702051102184,51.57321642508032 153.29237135651056,51.748152562679024 153.00089960428886,52.85608132919879 153.46725440805312,53.99316592764808 154.3125224901596,55.15940634344588 154.3999640159309,56.09239853176405 154.51655271684285,56.50058257376077 154.83717164443806,57.287794585572556 154.7497301187832,58.07500650602742 154.77887729392387,59.44533814990427 154.54569989198353,60.932293450809084 154.10849226347636,61.952752782643074 153.67128463473637,62.62334026017925 152.88431090314407,63.35223961720476 151.77671824395657,63.5854873949429 151.39780496584717,63.43970753479516 150.4942425333429,62.739964162552496 149.2992083482677,62.244312563649146 148.74541201873217,61.66119298918056 147.8127024108544,61.194697293569334 147.0840230298927,60.90313746756874 146.58852105075493,60.699045581917744 145.24775098951068,60.23254982038634 144.22759985597804,59.94098995308741 143.265743073076,59.85352199044428 142.5079165167408,59.299558200960746 141.98326736234594,58.658126388298115 141.34202950703911,58.01669451504131 140.14699532208033,57.200326588819735 139.38916876574513,56.87961059084046 138.83537243609317,56.908766591281164 138.13584023027215,57.287794585572556 137.81522130267695,57.7542905495211 137.29057214828208,58.04585051065078 136.3870097156614,58.104162501345854 134.78391507733613,58.16247449160437 134.0843828713987,58.16247449160437 133.58888089237735,58.77475035880343 133.7346167685464,59.241246220481116 134.2009715725435,59.532806117786095 134.98794530401938,59.67858606175287 134.98794530401938,59.38702617070521 134.17182439716998,59.21209023008123 133.09337891323958,59.18293423956493 132.07322777970694,59.44533814990427 131.75260885211173,59.7660540266661 131.0822238215478,60.32001777802361 131.05307664629072,61.107229347049724 130.14951421378646,61.48625710705528 128.8378913277993,62.53587233208236 127.99262324580923,63.35223961720476 126.97247211227659,64.34354261739645 126.38952860736754,64.95581792763551 126.03976250439882,65.56809318283922 125.31108312343713,66.2969922242628 124.20349046413321,67.52154243807308 123.21248650585767,68.54200078122085 122.0174523210153,69.47499113256345 121.2596257646801,70.14557786859223 120.85156531119719,70.40798135602381 119.42335372441448,71.42843926660134 118.72382151847705,71.86577832436888 117.3830514572328,72.47805295800208 116.12972292187624,73.06117160554277 115.5176322418265,73.2361071901687 114.49748110829387,73.7317579886003 113.47732997487765,74.16909689854947 112.8652392947115,74.63559170480585 111.55361640872434,75.97676409516134 111.37873335729819,76.76397385357996 110.73749550187495,77.66780716791982 110.03796329617035,78.4841726392333 109.77563871897291,78.86319943203125 109.54246131703258,79.70872066306765" stroke="#4DD2FF" stroke-dasharray="none" stroke-linecap="round" stroke-linejoin="round" stroke-width="0.5"><title>2026-06-18 10.1km</title><desc>9223370255108266507</desc></polyline><polyline fill="none" opacity="1" points="19.965878764749505,230.82278007722925 21.231986275292,230.2976510541048 22.06576439202763,229.89608177536866 22.59073579881806,229.71074210078223 23.609797941404395,229.15472304832656 24.165650019189343,228.90760345570743 25.771444910555147,227.9809049080941 26.29641631722916,227.73378527531167 27.439001143793575,226.8997564521269 28.9212733511813,225.818607834226 29.940335493767634,224.922798856569 30.588829584419727,224.15054964867886 30.80499428138137,223.84164994233288 31.422607701155357,223.347410384682 32.65783454058692,222.08092136355117 33.3989706444554,220.81443211995065 34.01658406422939,220.2893023682991 34.2327487609582,220.04218247183599 34.788600838859566,219.17726276780013 35.52973694249522,218.55946291558212 36.61056042695418,217.8181030229316 37.16641250485554,217.23119305388536 38.03107129246928,216.7369530427386 38.648684712243266,215.408682844718 39.76038886781316,215.03800274571404 41.026496378239244,215.06889275473077 41.98379717883654,215.0071127366391 42.848455966450274,215.0071127366391 43.713114754180424,215.4704628594336 45.01010293571744,215.53224287350895 45.87476172321476,215.28512281388976 46.18356843315996,215.16156278090784 46.523255814099684,215.16156278090784 48.31433473119978,215.71758291264996 49.487800228758715,215.6866929065436 50.16717499040533,215.4704628594336 50.506862371228635,215.9338129523676 51.309759816969745,216.21182299376233 52.05089592083823,216.644283036876 53.56404879922047,216.98407305253204 54.55223027069587,217.5092030451633 55.41688905830961,217.94166301033692 55.94186046521645,218.4976829274674 56.49771254288498,219.23904275003588 57.39325200149324,220.25841238163412 58.22703011822887,221.06155198987108 58.99904689297546,221.77202156855492 59.95634769357275,222.2662612342392 60.697483797208406,222.85317079309607 61.222455203998834,222.451601100096 61.99447197874542,221.9573614472174 62.395920701441355,220.87621208815835 62.488562714424916,220.351082341047 63.167937476187944,218.89925284089986 63.81643156695645,217.01496305310866 64.12523827678524,215.90292294707615 64.34140297363047,214.69821263826452 64.40316431573592,212.90659180586226 64.18699961877428,210.99141042272095 64.0634769347962,209.5704690667917 64.24876096076332,208.82910824782448 64.92813572252635,207.87151707685553 65.79279451014008,207.87151707685553 66.71921463974286,208.05685731343692 67.70739611133467,208.1495274299523 69.4984750286676,208.85999828355853 70.54841784224845,209.2615687349462 71.28955394588411,209.01444845978403 71.87628669466358,209.04533849458676 71.7527640106855,209.94114944757894 72.71006481128279,210.74429020704702 74.09969500568695,211.60921092465287 74.6246664125938,212.19612135225907 75.02611513540614,212.62858163681813 75.48932520020753,213.27727201476227 76.076057948987,214.296642490488 76.32310331682675,215.22334279760253 76.076057948987,215.71758291264996 75.67460922617465,216.242712997715 75.98341593600344,216.98407305253204 76.44662600080483,217.72543303098064 76.84807472361717,219.4552726839902 76.60102935577743,219.98040249646874 77.00247807847336,220.907102072204 77.77449485321995,221.58668168523582 78.88619900878984,222.3589311678079 79.28764773160219,222.72961088997545 79.78173846751451,223.0385106439935 80.5846359130228,223.37830035801744 82.12866946239956,223.7489800278563 83.48741898592561,224.0578797381022 84.38295844453387,224.3358894661069 85.61818528408185,224.7683490215568 86.60636675555725,225.26258848188445 87.62542889814358,226.06572753255023 88.33568433090113,226.6217468229588 89.07682043453678,227.4248857224011 89.35474647348747,228.04268481495092 89.63267251243815,228.4751441483386 90.2194052611012,228.96938335464802 90.62085398414638,229.52540242136456 90.96054136496969,229.95786166586913 91.79431948147248,230.63744042639155 92.96778497903142,231.59502857126063 93.8942051086342,232.45994678651914 94.60446054139175,233.32486489834264 94.91326725133695,233.0777454483905 95.09855127718765,232.42905685212463 95.46911932900548,231.90392794576474 95.09855127718765,231.40968894021353 93.86332443775609,230.6065504840808 93.36923370196018,230.1123113897629 92.53545558522455,229.4327325798804 92.19576820440125,229.03116325312294 91.73255813959986,228.3206943893456 90.99142203584779,227.6720053657191 90.55909264192451,227.54844554513693 90.12676324811764,226.4981869843905 89.2312237896258,225.35525837686146 88.39744567289017,224.67567911901278 87.93423560808878,224.18143961858004 87.50190621428192,223.8107599710347 86.29756004584488,223.37830035801744 85.98875333578326,223.0694006186095 85.00057186430786,222.69872091384605 83.42565764393657,222.69872091384605 82.80804422404617,222.57516100804787 82.43747617234476,222.42071112280246 81.0478459779406,222.11181134229992 79.96702249348164,221.71024160797242 78.85531833767891,221.06155198987108 78.6700343118282,220.75265215116087 78.60827296983916,219.23904275003588 78.88619900878984,218.2505629695952 79.13324437662959,217.57098304177634 79.07148303475697,217.10763305419823 79.10236370575149,215.5631328803138 78.8244376668008,214.42020253831288 77.92889820819255,213.06104189530015 77.00247807847336,212.19612135225907 75.82901258114725,211.36209073022474 74.99523446429521,210.8060702617513 73.63648494100198,209.84847935423022 72.98799085023347,209.32334880233975 71.78364468179643,208.95266838971293 71.19691193290055,208.70554810389876 70.82634388108272,208.67465806758264 70.33225314528681,208.2113075068919 70.20873046130873,207.87151707685553 69.06614563474432,207.34638638049364 68.2323675181251,207.09926603955682 67.15154403354973,206.69769546727184 65.85455585212912,206.69769546727184 64.98989706451539,206.54324524122057 63.63114754098933,206.54324524122057 62.365040030446835,206.5741352867335 61.77830728166737,206.79036560136592 61.12981319113169,207.34638638049364 61.09893252002075,208.2421975453035 61.74742661090568,209.16889863274992 62.550324056413956,210.46627995430026 62.79736942437012,210.99141042272095 62.7664887533756,211.42387077957392 63.04441479232628,212.62858163681813 63.075295463204384,212.9992618599208 63.075295463204384,213.40083208010765 63.01353412121534,214.63643261691323 62.95177277934272,215.9955929624848 62.11799466260709,217.8798830169253 61.93271063675638,218.2505629695952 60.91364849405363,219.20815275900532 60.07987037755083,219.30082273192238 58.96816622186452,218.83747285563732 57.76382005342748,218.09611299162498 57.30060998850968,217.66365303570637 56.40507052990142,217.1385230543674 55.849218452116475,216.89140304981265 54.9227983225137,216.48983302444685 54.36694624484517,216.18093298963504 53.78021349594928,216.0264829673688 53.06995806330815,215.7484729187563 52.45234464353416,215.5013528665295 51.464163171942346,215.5013528665295 50.87743042316288,215.3469028295949 50.01277163554914,215.06889275473077 49.30251620290801,214.08041240170132 48.77754479611758,213.40083208010765 48.19081204745453,213.0301518776687 47.23351124674082,212.87570178764872 46.27621044614352,212.72125169436913 45.34979031654075,213.1228219300392 44.36160884483252,213.46261211199453 43.89839878003113,213.40083208010765 43.2190240182681,213.3390520476387 42.44700724363793,213.3081620312878 41.70587114000227,213.52439214329934 41.39706443017349,213.36994206398958 40.933854365255684,213.61706218938343 40.56328631332144,214.32753250264795 40.84121235227212,214.91444270854117 41.89115516585298,215.09978276357288 42.41612657264341,214.97622272744775 41.67499046900775,214.72910264867824 41.119138391222805,214.42020253831288 39.85303088079672,214.75999265897553 38.98837209306657,214.97622272744775 38.648684712243266,215.37779283727286 37.93842927948572,216.52072302723536 37.50609988567885,217.01496305310866 36.9193671370158,217.10763305419823 36.17823103326373,217.84899302007398 35.22093023255002,218.34323295473587 34.603316812892444,218.99192281771684 34.047464735107496,219.70239260047674 33.58425467030611,220.22752239491092 32.719595882692374,221.40134179702727 31.91669843706768,222.42071112280246 31.577011056127958,222.69872091384605 30.959397636237554,223.2547404638608 30.063858177745715,224.08876970846904 29.693290125927888,224.39766940416303 29.10655737714842,225.04635872214567 28.427182615501806,225.6641580184223 27.840449866605923,226.06572753255023 26.54346168518532,226.93064641021192 25.771444910555147,227.5793355005444 24.042127335211262,228.62959390395554 22.55985512782354,229.37095268489793 21.077582920435816,229.83430188440252 20.429088829667307,230.17409127845895 19.16298131912481,230.76100019412115 18.421845215489157,231.40968894021353 17.557186427759007,232.15104743582197 16.816050324123353,233.26308503659675 16.59988562716171,233.6337641988066 16.167556233354844,234.15889297949616 15.642584826564416,235.1782605035114 15.24113610375207,236.2902976386249 15.024971406906843,238.05102275277022 14.994090735912323,238.97772000910481 14.994090735912323,240.02797675610054 15.272016774863005,240.33687577041565 14.685284025967121,241.23268283711514 14.777926038834266,241.94315043202369 14.592642013099976,242.46827860944904 14.53088067099452,243.51853485015454" stroke="#4DD2FF" stroke-dasharray="none" stroke-linecap="round" stroke-linejoin="round" stroke-width="0.5"><title>2026-06-16 10.1km</title><desc>9223370255286294807</desc></polyline><polyline fill="none" opacity="1" points="110.64291158539709,230.55809677246725 112.00114329264034,229.9714115112438 112.46417682920583,229.69350794987986 113.88414634147193,229.0759444417199 115.02629573165905,228.58189359708922 116.10670731717255,227.87169544876087 117.52667682920583,226.85271537478548 118.88490853656549,225.92636972805485 120.21227134147193,224.62948562263045 121.50876524380874,223.23996667942265 122.80525914637838,221.85044746828498 123.20655487803742,220.98585760162678 124.00914634147193,220.18302406114526 124.75,219.5654597383691 125.79954268294387,218.48472204600694 126.29344512196258,218.26857448811643 127.1269054877339,217.21871482866118 127.71341463411227,217.12608014547732 128.0838414633181,216.60115025151754 128.0529725609813,215.98358562140493 128.97903963399585,215.18075152300298 130.73856707301456,214.9954821029678 131.66463414637838,214.9954821029678 133.11547256086487,215.1498732867185 133.88719512196258,215.4586556442082 135.6467225609813,215.36602093832335 136.23323170735966,215.18075152300298 137.28277439018711,215.5204121140414 138.11623475607485,215.55129034875426 139.25838414626196,215.58216858340893 140.24618902429938,215.98358562140493 140.7092225609813,216.13797678390983 141.48094512184616,216.2923679430969 142.53048780479003,216.7555414007511 142.9317835365655,216.8790543177165 144.13567073165905,217.43486241810024 145.4630335365655,217.9597922511748 145.98780487803742,218.54647848993773 146.32736280479003,218.73174781858688 146.6051829267526,219.28755577583797 147.09908536577132,219.5963379557943 147.43864329264034,219.99775476986542 147.80907012184616,220.5844408426201 149.10556402429938,221.7269346365356 150.2477134146029,222.4062551849056 151.6368140244158,222.46801159519237 152.0998475609813,221.85044746828498 152.71722560969647,219.96687655424466 153.51981707301456,218.23769626498688 154.0445884146029,216.53939379088115 154.44588414637838,214.9954821029678 154.41501524380874,214.37791733513586 154.44588414637838,212.4325879694661 154.53849085362162,212.06204898300348 154.26067073165905,210.67252761370037 154.16806402429938,210.11671899067005 154.07545731705613,209.68442336533917 154.22980182920583,209.03597987856483 154.56935975607485,208.23314500431297 155.4645579267526,207.83172753354302 156.79192073165905,208.07875367207453 158.52057926822454,208.4492928638938 160.15663109754678,209.1594929282437 161.175304877921,209.37564075988485 161.6074695121497,209.90057118126424 162.68788109743036,210.76516238000477 163.92263719509356,211.41360571072437 164.4782774390187,211.90765773301246 165.34260670724325,212.92663992173038 165.83650914614554,213.8838654825231 166.3304115853971,214.7793344402453 166.39214939018711,215.30426446709316 166.02172256086487,216.32324617449194 166.26867378049064,217.15695837326348 166.91692073165905,218.51560026803054 166.9786585365655,219.194921119255 166.9786585365655,219.96687655424466 167.44169207313098,221.01673581299838 168.30602134135552,221.94308209070005 169.13948170735966,222.46801159519237 169.41730182920583,222.74591543496354 170.62118902429938,223.33260128396796 172.3807164633181,223.88840888626873 173.67721036577132,224.25894726399565 174.4180640244158,224.25894726399565 174.97370426834095,224.44421644567046 176.14672256086487,225.12353673792677 176.98018292686902,225.58670962770702 177.62842987803742,226.01900429808302 178.5544969511684,226.6674462549272 179.3262195121497,227.71730453777127 179.6657774389023,228.36574634199496 180.06707317067776,228.79804084578063 180.34489329264034,229.10682261834154 181.5487804878503,230.34194957651198 182.41310975607485,231.11390381801175 183.21570121950936,231.94761430617655 184.45045731705613,233.05922814068617 184.8826219511684,233.18274077837123 184.79001524380874,233.12098445981974 185.1913109755842,232.25639594404493 185.5,231.91673614172032 185.0369664633181,231.2682946564746 183.4626524390187,230.21843689022353 182.41310975607485,229.2303353237221 182.1970274390187,228.98330991098192 181.36356707313098,227.84081726690056 180.31402439018711,226.76008081546752 179.54230182920583,225.80285696615465 178.61623475595843,224.7529984046123 177.87538109754678,224.1971908689593 177.1036585365655,223.54874868993647 176.23932926822454,222.86942824930884 175.03544207313098,222.4062551849056 174.38719512184616,222.25186415680218 173.70807926822454,222.46801159519237 172.59679878037423,222.3753769795294 171.26943597570062,222.15922953834524 170.55945121950936,221.8813256758731 169.17035060969647,221.0784922351595 168.67644817067776,219.5654597383691 168.86166158528067,218.7008695974946 169.10861280479003,217.65101000107825 169.13948170735966,215.9527073884965 168.95426829264034,214.62494324857835 167.9355945121497,212.89576167566702 166.9786585365655,212.12380548205692 166.36128048761748,211.56799697130919 166.0525914634345,211.32097095280187 165.52782012196258,210.98131016344996 164.50914634147193,210.39462330762763 163.30525914626196,209.43739728204673 162.65701219520997,209.00510161585407 161.48399390245322,208.63456245267298 161.23704268294387,208.14051020535408 160.71227134135552,208.14051020535408 160.3727134146029,207.73909272934543 159.0762195121497,207.21416215004865 157.56364329264034,206.87450116651598 156.4214939023368,206.5965967134107 154.93978658528067,206.5348401668598 154.56935975607485,206.56571844022255 152.59375,206.41132707206998 151.7911585365655,206.5965967134107 151.20464939030353,207.24504042050103 151.1737804877339,208.1096319388016 152.16158536588773,209.5609103247407 152.65548780479003,210.4872580774827 152.87157012196258,211.1357014332898 152.59375,211.5988752231351 153.14939024380874,212.4325879694661 153.11852134147193,212.83400518324925 153.0567835366819,213.23542237462243 152.9333079267526,214.22352613485418 152.96417682920583,215.5204121140414 152.7789634146029,216.07622031931533 152.59375,216.8790543177165 152.2541920732474,217.52749709732598 151.85289634135552,218.20681804174092 151.0194359755842,218.9787735826685 150.43292682920583,219.194921119255 149.66120426822454,219.13316468091216 148.796875,218.6699913762859 148.3338414633181,218.4538438238087 146.85213414637838,217.34222773771035 145.89519817067776,216.8790543177165 145.1543445121497,216.47763732966268 144.35175304871518,216.07622031931533 143.36394817079417,215.76743798842654 143.05525914626196,215.61304681794718 142.43788109754678,215.55129034875426 141.60442073177546,215.5204121140414 141.0179115853971,215.27338623127434 140.24618902429938,214.9646038658684 139.4744664634345,213.9147437243373 139.04230182920583,213.63683954352746 137.99275914637838,213.11190939502558 136.4493140244158,212.86488342954544 135.1836890244158,213.17366588505683 134.7206554877339,213.32805710786488 134.19588414626196,213.17366588505683 133.33155487803742,212.95751816756092 132.46722560981289,213.17366588505683 131.63376524380874,213.32805710786488 131.35594512196258,213.2663006191724 130.67682926822454,214.28528261528118 130.9237804877339,214.90284739120398 131.5720274390187,214.9954821029678 132.3746189023368,215.02636033995077 132.25114329264034,214.65582148719113 131.7263719511684,214.62494324857835 131.04725609754678,214.1617696538451 130.02858231705613,214.56318677100353 128.94817073177546,214.9646038658684 128.20731707313098,215.73655975452857 128.0529725609813,216.50851556041744 127.25038109754678,217.06432368932292 126.81821646343451,217.18783660099143 125.45998475595843,218.23769626498688 124.50304878037423,219.41106864938047 123.88567073165905,219.90512012247927 122.80525914637838,221.26376149867428 122.21874999988358,221.8813256758731 121.84832317079417,222.22098595072748 121.13833841460291,222.93118465563748 120.39748475607485,223.88840888626873 119.87271341460291,224.4133382490836 119.00838414626196,225.3396840901696 118.05144817067776,225.86461334733758 117.65015243901871,226.14251705619972 116.97103658539709,226.82183718844317 116.29192073165905,227.0688626752235 115.02629573165905,228.0569645377691 113.69893292686902,228.70540631149197 112.80373475607485,229.13770079490496 111.07507621950936,229.90965516521828 109.34641768294387,230.68160945299314 107.80297256098129,231.88585797703126 106.78429878049064,232.78132469806587 106.29039634135552,233.80030393530615 106.01257621939294,234.232598113711 105.51867378049064,235.12806454388192 105.33346036577132,235.62211494060466 105.08650914637838,236.6410937772016 105.05564024380874,237.44392548676115 104.99390243901871,238.74080729082925 104.8086890244158,239.63627316255588 105.05564024380874,240.408226411324 104.90129573165905,241.58159519179026 104.96303353644907,242.07564514770638 104.5,243.15637930866797 104.6543445122661,243.58867292793002" stroke="#4DD2FF" stroke-dasharray="none" stroke-linecap="round" stroke-linejoin="round" stroke-width="0.5"><title>2026-06-11 10.2km</title><desc>9223370255717407907</desc></polyline></svg>