<?xml version="1.0" encoding="utf-8" ?>
<svg baseProfile="full" height="300mm" version="1.1" viewBox="0,0,200,300" width="200mm" xmlns="http://www.w3.org/2000/svg" xmlns:ev="http://www.w3.org/2001/xml-events" xmlns:xlink="http://www.w3.org/1999/xlink"><defs /><rect fill="#222222" height="300" width="200" x="0" y="0" /><text fill="#FFFFFF" style="font-size:12px; font-family:Arial; font-weight:bold;" x="10" y="20">Over 10km Runs</text><text fill="#FFFFFF" style="font-size:4px; font-family:Arial" x="10" y="280">Runner</text><text fill="#FFFFFF" style="font-size:9px; font-family:Arial" x="10" y="290">Yanfu</text><text fill="#FFFFFF" style="font-size:4px; font-family:Arial" x="65" y="280">SPECIAL TRACKS</text><rect fill="yellow" height="2.6" width="2.6" x="65" y="283" /><text fill="#FFFFFF" style="font-size:3px; font-family:Arial" x="70" y="285.5">Over 20.0 km</text><rect fill="red" height="2.6" width="2.6" x="65" y="287" /><text fill="#FFFFFF" style="font-size:3px; font-family:Arial" x="70" y="289.5">Over 40.0 km</text><text fill="#FFFFFF" style="font-size:4px; font-family:Arial" x="120" y="280">STATISTICS</text><text fill="#FFFFFF" style="font-size:3px; font-family:Arial" x="120" y="285">Number: 4</text><text fill="#FFFFFF" style="font-size:3px; font-family:Arial" x="120" y="290">Weekly: 2.0</text><text fill="#FFFFFF" style="font-size:3px; font-family:Arial" x="141" y="285">Total: 40.5 km</text><text fill="#FFFFFF" style="font-size:3px; font-family:Arial" x="141" y="290">Avg: 10.1 km</text><text fill="#FFFFFF" style="font-size:3px; font-family:Arial" x="167" y="285">Min: 10.1 km</text><text fill="#FFFFFF" style="font-size:3px; font-family:Arial" x="167" y="290">Max: 10.2 km</text><polyline fill="none" opacity="1" points="14.5,95.6753904595389 14.835340609773993,95.30945539614186 14.957282649469562,94.51659602776635 15.170681219431572,92.99186622659909 15.079224689514376,92.56494182394817 15.71942039905116,91.55861991713755 15.627963868901134,90.24735176534159 15.902333458769135,89.54597567842575 15.81087692885194,88.41767487261677 16.268159578437917,87.92976095544873 16.359616108355112,86.74047064280603 16.359616108355112,85.70365328562912 16.573014678200707,84.60584650811506 17.548550997278653,83.44705028203316 17.670493037207052,83.20309315779014 17.761949567124248,82.80666281317826 17.82292058703024,82.01380205800524 18.43263078655582,81.46489840658614 19.072826495976187,80.27560701704351 19.74350771540776,79.08631542924559 20.53613097476773,78.56790621345863 21.54215280385688,78.01900229696184 23.127399322460406,77.34811967477435 24.56021829135716,76.55525831278646 25.505269100423902,76.15882759861415 26.175950319855474,75.7014075165498 27.79168234858662,74.7865672641783 28.67576213774737,74.11568433779757 29.68178396683652,73.44480134820333 30.443921716185287,72.71292892389465 31.48042905528564,71.64561483688885 32.090139254694805,70.9442369210883 32.60839292430319,70.39533241704339 33.52295822359156,69.35851268289844 33.82781332323793,68.93158686615061 34.620436582597904,67.7117986768717 35.900828001555055,66.46151556581026 36.32762514112983,66.1260737181874 36.9678208505502,65.72964242321905 37.699473090004176,65.02826392411953 38.58355287916493,64.54034840577515 38.705494919093326,63.777980341168586 39.37617613840848,63.2595700105303 40.16879939776845,62.77165437064832 41.26627775689121,62.74115964205703 41.66258938645478,62.77165437064832 43.00395182543434,62.77165437064832 43.674633044865914,62.52769653813448 44.131915694335476,62.61918072635308 44.49774181412067,63.107096376712434 44.98550997371785,63.19858055742225 45.50376364320982,63.16808583063539 46.02201731281821,62.9851174671785 46.78415506205056,62.802149099181406 48.247459540725686,63.13759110367391 49.16202484013047,63.320559463172685 50.381445239065215,63.13759110367391 49.89367707935162,63.35105418931926 52.14960481750313,64.20490646734834 53.39951072644908,64.54034840577515 54.31407602573745,64.96727448620368 55.96029356413055,65.82112657016842 56.41757621371653,66.2175578600145 56.96631539333612,66.73596797493519 57.606511102756485,67.40685159689747 57.94185171253048,67.77278809132986 58.15525028225966,68.19971397763584 58.97835905163083,68.74861865100684 59.6185547610512,69.63296498020645 60.28923598048277,70.36483772122301 60.837975159985945,70.60879528481746 61.935453519108705,69.32801798259607 62.54516371851787,68.38268220686587 63.09390289802104,67.28487276128726 63.825555137358606,65.76013713900466 64.22186676703859,64.44886424235301 64.61817839671858,63.107096376712434 64.77060594654176,62.009286116284784 64.74012043664698,61.4603809225373 64.74012043664698,60.27108619036153 64.64866390672978,58.68535957095446 64.34380880696699,57.86200137884589 64.58769288670737,56.79468506167177 65.04497553629335,55.971326650178526 66.26439593534451,55.72736858390272 67.54478735418525,55.94083189236699 69.43488897255156,56.5507270238013 70.28848325193394,56.947158831055276 71.47741814085748,57.282601112267 71.96518630045466,57.92299087776337 73.42849077912979,58.8988227903028 74.76985321787652,59.935644050419796 75.3185923974961,60.51504410034977 76.29412871657405,62.13126504252432 76.26364320667926,63.35105418931926 75.86733157699928,63.99144340743078 75.92830259702168,64.32688535592752 76.08073014684487,64.99776920524891 76.53801279654726,65.82112657016842 76.96480993612204,66.79695739777526 76.84286789607722,67.65080926194787 76.75141136616003,68.56565043138107 77.5745201355312,69.26702858146746 78.94636808428913,69.93791196472012 79.46462175389752,70.21236423967639 80.28773052326869,70.85275284003 82.05589010170661,71.34066792548401 82.66560030111577,71.55413076479454 83.64113662031014,71.79808828764362 84.55570191948209,71.98105642426526 85.56172374868765,72.3469926834805 86.96405720745679,73.13985451386543 87.57376740698237,73.65826412447495 88.09202107647434,73.87172689434374 88.61027474608272,74.23766305641038 89.21998494549189,75.24398740497418 89.46386902523227,76.2198169407202 89.76872412499506,76.55525831278646 90.53086187446024,77.22614100947976 91.62834023335017,78.04949696001131 92.05513737304136,78.50691689149244 92.57339104253333,78.84235815593274 93.79281144146807,79.84868185443338 94.28057960106526,80.58055354608223 94.70737674087286,80.79401610861532 94.73786225076765,80.39758563024225 95.5,79.57422995078377 94.52446368092205,78.53741155256284 93.54892736172769,77.7140556583181 93.0001881821081,77.34811967477435 92.60387655254453,76.92119433695916 91.5673692135606,75.91487022518413 91.23202860367019,75.54893414932303 90.59183289424982,75.15250337927137 90.46989085443784,74.72557790984865 89.73823861510027,73.6277694425662 89.70775310508907,73.32282261608634 88.45784719614312,72.5909501791466 87.48231087706517,71.64561483688885 86.50677455787081,70.9442369210883 85.86657884845044,70.27335363271413 84.55570191948209,70.15137484623119 84.09841927001253,70.15137484623119 82.93996989086736,70.24285893625347 82.14734663150739,70.12088014924666 80.44015807309188,69.48049148306018 79.3426797138527,69.3890073831426 79.06831012421753,68.93158686615061 78.51957094471436,67.43734630552353 78.79394053458236,66.70547326334054 79.25122318405192,65.45518997532781 79.15976665425114,64.0829275767901 79.15976665425114,62.86313855572371 78.82442604436073,61.85681245563319 78.18423033505678,61.002959895296954 76.81238238618243,59.813665086519904 75.68441851716489,58.92931753542507 74.43451260821894,58.25843311287463 73.85528791882098,57.67903287871741 73.06266465934459,57.038643091218546 72.11761385016143,56.79468506167177 71.05062100116629,56.215284707956016 70.74576590128709,55.971326650178526 70.41042529162951,55.51390526915202 69.34343244263437,55.23945242638001 68.36789612355642,54.995494334958494 67.57527286419645,54.78203099814709 66.66070756490808,54.47708336292999 65.41080165607855,54.47708336292999 64.0389537072042,54.4160938343266 63.032931877998635,54.32460954040289 62.453707188600674,54.44658859871561 61.7830259691691,54.599062418565154 61.47817086940631,55.08697862026747 61.508656379417516,55.69687382510165 61.69156943925191,56.30676897754893 61.9964245390147,56.85567456984427 62.54516371851787,57.557053876051214 62.91098983818665,58.014475125295576 63.18535942793824,58.92931753542507 63.21584493794944,59.78317034523934 63.09390289802104,60.454054623667616 63.30730146786664,61.64334932516795 63.21584493794944,63.19858055742225 62.75856228824705,64.60133784735808 62.14885208872147,66.0955790039734 61.112344749621116,66.91893624170916 60.16729394055437,67.040915083664 59.16127211134881,66.52250499097863 58.429619872011244,66.0955790039734 58.00282273243647,65.88211600080831 57.14922845317051,65.08925336162793 56.47854723373894,64.75381144921994 55.80786601419095,64.41836952086305 54.984757245052606,64.05243285384495 54.58844561537262,63.99144340743078 54.070191945764236,63.74748561688466 53.42999623634387,63.62550671846839 52.820286036934704,62.9851174671785 52.05814828746952,62.9851174671785 51.72280767781194,62.9851174671785 49.86319156945683,61.61285459174542 49.52785095968284,61.246917780081276 48.643771170522086,60.57603357656626 47.21095220162533,60.17960197199136 46.44881445239298,60.484549362096004 45.65619119303301,60.97246515902225 44.650169364060275,61.27741251513362 44.07094467431307,61.368896719417535 43.18686488515232,60.94197042268934 42.54666917573195,61.15543357428396 41.81501693627797,61.246917780081276 41.35773428680841,61.49087565660011 41.144335716962814,61.94829665240832 41.26627775689121,62.52769653813448 41.57113285653759,62.77165437064832 42.79055325547233,62.9851174671785 42.97346631542314,62.74115964205703 42.27229958598036,62.43621234886814 41.113850207068026,62.37522288860055 39.5286036884645,62.64967545546824 38.73598042910453,63.381548915233 38.37015430931933,64.3878747993731 37.88238614972215,64.7843061691965 36.84587881073821,65.42469525820343 36.35811065102462,65.76013713900466 34.95577719225548,67.01042037334992 33.94975536316633,68.07773515558802 33.34004516375717,68.93158686615061 32.699849454220384,69.69395437819185 32.24256680463441,70.09038545214571 31.724313135026023,70.76126875780756 31.26703048555646,71.34066792548401 30.017124576610513,72.3469926834805 28.736733157769777,73.65826412447495 27.79168234858662,74.45112580887508 26.206435829866678,75.27448208007263 25.230899510672316,75.97585956938565 24.52973278122954,76.31130095286062 23.584681972046383,76.73822632723022 22.670116672990844,77.01267834013561 21.66409484378528,77.59207699925173 20.261761385016143,78.32394892245065 19.804478735430166,78.44592756900238 19.011855476070195,79.14730474626413 18.158261196804233,79.69620857591508 17.82292058703024,80.30610167054692" stroke="#4DD2FF" stroke-dasharray="none" stroke-linecap="round" stroke-linejoin="round" stroke-width="0.5"><title>2026-06-20 10.1km</title><desc>9223370254938036107</desc></polyline><polyline fill="none" opacity="1" points="104.5,98.8683009785018 105.13939720136113,97.38562227343209 105.77879440272227,95.8157268234645 106.18568353075534,94.50748033964192 106.53444564063102,93.69346017882344 106.9994617869379,93.02480068840669 107.34822389669716,92.93758422834799 107.72604951553512,92.53057406650623 107.84230355231557,91.25139911426231 107.92949407978449,90.84438885189593 108.42357373528648,90.23387341285706 108.85952637251467,88.86748151807114 108.74327233585063,87.64645023157937 109.41173304629046,86.65799617292942 109.35360602801666,85.96026380988769 109.49892357375938,84.94273731918656 109.5279870829545,84.01242725190241 109.5279870829545,83.4309833953157 109.5861141012283,82.44252872528159 109.70236813789234,80.6691243989917 110.22551130258944,79.3608750096464 110.5742734123487,79.09922510158503 110.92303552222438,78.22705866891192 111.1264800861245,77.70375875561149 112.11463939712849,76.97695325361565 112.87029063503724,75.5814864722488 114.09095801936928,74.36045280355029 114.52691065659747,74.0697304692003 116.09634015068877,73.37199681595666 117.14262648008298,72.90684100726503 118.15984930039849,72.44168516687932 119.7583423035685,71.51137339044362 120.25242195907049,71.2787954263913 121.18245425191708,70.61013373546302 121.64747039822396,70.2612667401554 122.78094725508709,69.4181714275328 123.62378902046476,68.60414826768101 124.55382131319493,67.58661918059806 125.42572658788413,66.88888486134238 126.26856835314538,65.78413870901568 126.84983853623271,64.82475374656497 127.48923573747743,63.98165775850066 127.86706135631539,63.72000725811813 128.21582346607465,63.400212188396836 128.5936490849126,62.993200259661535 129.61087190534454,62.44082688866183 130.36652314313687,61.481441453215666 130.68622174381744,61.481441453215666 131.26749192678835,60.95814024927677 131.15123789024074,60.46391129741096 131.4128094726475,60.02782689820742 131.9650161465397,59.47545328552951 132.80785791180097,59.15565801548655 133.91227125935256,59.15565801548655 135.0457481162157,59.18473031333997 136.0920344457263,59.1265857173712 136.96393972006626,59.56267017466598 137.5742734123487,59.56267017466598 138.99838536069728,59.3010195037059 139.81216361676343,59.33009180100635 140.68406889145263,59.67895935854176 141.23627556522842,59.824320835614344 142.10818083956838,59.70803165418329 141.90473627566826,59.56267017466598 142.5731969861081,59.50452558201505 142.86383207747713,59.70803165418329 143.7066738428548,60.49298358976375 144.1716899892781,60.78370650566649 145.1598493003985,60.92906795901945 145.91550053819083,61.21979085626663 146.72927879437339,61.597730604116805 147.74650161457248,62.1210317586083 148.50215285248123,62.760622003726894 148.8218514531618,63.400212188396836 149.60656620026566,64.01073003569036 150.24596340151038,64.70846465099021 150.94348762114532,65.40619919454912 151.23412271263078,65.92950005512103 152.25134553282987,66.71445127029438 153.61733046278823,65.60970508962055 154.16953713679686,64.44681417872198 154.69268030149397,63.48742902709637 155.24488697526976,62.46989917251631 155.59364908502903,61.27793543433654 156.08772874053102,59.41730869203457 156.34930032282136,58.516067430056864 156.407427341328,57.73111526548746 156.23304628639016,56.39378914574627 156.17491926799994,55.95770448431722 156.00053821317852,55.49254748126259 156.14585575892124,54.70759496599203 155.9714747039834,53.71913611344644 156.20398277719505,53.079545014334144 156.9886975241825,52.527170834568096 158.32561894517858,52.67253246519249 159.37190527457278,52.87603874283377 160.0403659850126,53.19583430959028 161.34822389669716,53.631919148989255 162.45263724436518,53.92264235968469 162.68514531757683,54.35872715219739 164.16738428419922,55.43440285359975 165.21367061359342,56.044921418855665 166.25995694298763,57.32410299612093 166.95748116262257,58.312561322090914 167.39343379973434,59.3010195037059 167.2190527447965,59.64988706278382 167.42249730904587,61.07442940920009 167.82938643707894,62.46989917251631 167.91657696454786,63.19670622708509 167.80032292788383,63.894440926174866 167.94564047362655,64.50495872896863 168.0909580194857,64.91197056695819 169.10818083956838,65.75506643945118 170.06727664161008,66.01671686134068 170.56135629711207,66.4237286085845 171.2007534983568,67.00517391951871 171.95640473626554,67.41218560753623 173.38051668461412,67.61569144236273 173.7292787944898,67.70290822684183 174.8627556512365,68.10991987303714 175.9090419805143,68.51693149475614 177.18783638323657,69.04023211542517 177.76910656620748,69.53446044237353 178.3794402583735,69.88332747502136 179.22228202363476,70.95900071287178 179.57104413351044,71.59859012483503 180.18137782567646,72.2091072347248 180.58826695370954,72.61611861074925 181.08234660932794,73.11034667745116 181.60548977390863,73.54643023596145 182.4773950484814,74.24416387133533 183.61087190534454,75.23261973212357 184.42465016141068,76.19200322430697 184.59903121634852,76.48272546799853 184.9187298170291,76.19200322430697 184.9187298170291,75.87220874195918 185.4709364909213,75.08725858514663 184.68622174370103,74.33138057074393 183.90150699683,73.86622482773964 182.88428417651448,72.87776876828866 182.21582346607465,72.32539620177704 181.60548977390863,71.51137339044362 180.9370290634688,71.22065093414858 180.64639397198334,71.0171452074137 180.4720129170455,70.17404998850543 179.9198062432697,69.5635326957854 179.30947255110368,68.80765406676801 178.72820236813277,68.25528116928763 178.17599569435697,67.29589655631571 177.3622174381744,66.8307403314684 177.10064585576765,66.54001767479349 176.66469321842305,66.13300593444728 175.18245425191708,66.13300593444728 174.48493003228214,66.36558407478151 173.2351991388714,66.19115047025844 171.69483315385878,65.92950005512103 170.96824542526156,65.4643437366467 170.38697524217423,64.97011511324672 169.45694294932764,64.50495872896863 169.42787944024894,63.66186270114849 169.5731969861081,63.19670622708509 169.92195909586735,61.946598044916755 170.1254036598839,61.39422458873014 170.03821313241497,60.522055881883716 169.7475780408131,59.1265857173712 169.2244348762324,57.934621390973916 168.46878363832366,57.03337993164314 168.03283100097906,56.62636762030888 166.87029063503724,55.84141523655853 166.37621097941883,55.52161979483208 165.1555435952032,54.62037801425322 164.28363832074683,53.89357003910118 162.91765339067206,53.28305127975182 162.24919268023223,52.87603874283377 161.6097954789875,52.381809200771386 160.62163616798352,52.00386893839459 159.5172228201991,51.65500098513439 158.35468245425727,51.27706068212865 157.36652314313687,51.335205345530994 156.08772874053102,51.21891601823154 154.31485468242317,51.1316990214691 153.55920344451442,51.306133013858926 153.15231431648135,52.09108592389384 153.21044133475516,52.96325571706984 154.14047362760175,54.32965483359294 154.51829924655613,55.57976442176732 154.3439181917347,55.98677679602406 154.8379978472367,56.68451223769807 154.86706135619897,57.58575374350767 154.8961248655105,58.34163362355321 154.86706135619897,59.91153772035614 154.22766415507067,61.481441453215666 153.9370290634688,61.975670330866706 153.26856835302897,62.84783885063371 152.3966630785726,63.25485078807105 151.67007534985896,63.16763394634472 151.11786867596675,62.96412797810626 150.10064585576765,62.32453775219619 149.22874058119487,61.80123661344987 148.44402583432384,61.04535711943754 147.74650161457248,60.75463421468157 147.07804090413265,60.46391129741096 145.82831001083832,59.969682309485506 145.13078579120338,59.824320835614344 144.1426264801994,59.64988706278382 143.32884822390042,59.41730869203457 142.54413347691298,58.39977822630317 141.7594187298091,58.05091060276027 140.74219590961002,57.23688607811346 140.01560818089638,56.82987377900281 139.25995694298763,56.62636762030888 138.44617868680507,56.7426568546216 138.1555435953196,57.26595838420326 137.5742734123487,57.58575374350767 136.6442411195021,57.73111526548746 135.71420882677194,57.70204296128941 134.60979547910392,57.76018756945268 134.028525296133,58.02183830004651 133.76695371372625,58.719573531940114 134.17384284175932,59.18473031333997 134.72604951553512,59.213802611106075 135.30731969862245,59.3010195037059 134.66792249726132,59.010296524036676 133.67976318625733,58.80679043091368 132.4590958020417,59.09751341928495 132.0231431646971,59.213802611106075 131.61625403666403,59.795248540409375 131.26749192678835,60.55112817391637 130.68622174381744,61.16164627781836 129.63993541453965,61.8303088999819 128.4192680302076,62.702477438462665 127.57642626494635,63.545573585579405 126.73358449956868,64.50495872896863 126.384822389693,65.0282596590987 125.71636167925317,65.60970508962055 124.93164693226572,66.56908994095284 123.71097954781726,67.90641405299539 122.69375672773458,68.83672632332309 122.08342303556856,69.3018824106257 121.24058127019089,69.99961648194585 120.31054897746071,70.55198923748685 119.06081808404997,71.3660121638386 118.33423035521992,71.74395134646329 117.17168998916168,72.2672517184983 115.92195909586735,72.87776876828866 115.45694294944406,73.02312996250112 113.88751345535275,73.66271918019629 113.48062432731967,74.01158600082272 112.46340150700416,75.08725858514663 111.5914962325478,76.04664209784823 111.38805166853126,76.80251992159174 110.39989235741086,77.96540871722391 110.16738428419922,78.31427531709778 109.90581270190887,78.92479182401439 109.64424111950211,80.20396908934345" stroke="#4DD2FF" stroke-dasharray="none" stroke-linecap="round" stroke-linejoin="round" stroke-width="0.5"><title>2026-06-18 10.1km</title><desc>9223370255108266507</desc></polyline><polyline fill="none" opacity="1" points="19.217548534390517,231.0606576500577 20.7592310620239,230.22789917007321 22.054244385217316,229.76525552856037 22.36258089065086,229.64188388583716 23.010087552363984,229.27176894497825 23.842596117290668,228.80912524211453 25.168443090980873,228.1922669254709 26.24762086023111,227.6370943952934 26.771792919607833,227.32866519340314 28.25180814624764,226.09494825376896 29.330985915497877,225.41640384698985 30.348496383754537,224.52195884939283 30.841834792518057,223.81257135851774 31.36600685189478,223.22655555250822 32.198515416821465,222.4554820508347 33.12352493335493,221.09839248715434 34.01770079950802,220.23478990443982 34.17186905210838,219.92636038543424 34.418538256548345,219.5562449452118 35.251046821591444,218.7543280926766 36.145222687511705,218.16831187473144 37.039398553431965,217.15049411944347 37.68690521502867,217.0579652254237 38.05690902180504,215.8859324651421 39.01275218883529,214.99148628261173 40.73943661968224,214.8064284378779 41.880281690042466,214.83727141231066 42.77445755607914,214.83727141231066 43.36029691668227,214.83727141231066 44.19280548160896,215.45413087366614 45.42615150369238,215.3616019578185 46.10449181566946,215.0840152032324 46.443661971832626,214.99148628261173 47.492006090586074,215.33075898565585 48.571183859952725,215.60834573075408 49.989531785366125,215.42328790191095 49.989531785366125,215.33075898565585 51.130376855726354,215.8859324651421 51.5928816141095,216.22520512592746 53.10373049112968,216.626163704379 53.90540540555958,217.027122260537 55.1079177770298,217.61313857143978 55.75542443851009,217.98325411172118 56.27959649800323,218.53842738637468 57.26627331553027,219.58708789927186 57.48210886947345,220.23478990443982 58.68462124094367,221.06754953961354 59.76379901031032,222.02368085377384 60.47297297301702,222.39379616704537 61.05881233350374,222.4554820508347 61.86048724781722,221.96199496637564 62.322992006200366,221.19092132919468 62.446326608303934,220.38900465896586 62.87799771607388,219.49455903662601 63.618005329277366,217.70566745835822 64.08051008766051,215.8859324651421 64.14217738865409,215.5158168168855 64.45051389420405,213.72692424844718 64.54301484592725,211.69128733547404 63.957175485324115,210.05660879070638 64.11134373804089,208.97710388718406 64.38884659309406,208.26771486218786 65.15968785691075,207.6200117780827 66.02303007233422,207.6508547833655 67.16387514292728,207.8667558169691 68.64389036933426,208.26771486218786 70.06223829474766,208.97710388718406 71.1105824135011,208.9462608874892 71.57308717176784,208.73035988642368 71.7889227255946,209.2546908778604 72.4672630376881,210.27250975189963 73.54644080705475,211.01274156960426 74.44061667309143,211.66044434753712 74.81062047963496,212.12308915314497 75.21145793690812,212.5857339289505 75.85896459850483,213.819453185366 76.19813475455157,214.3437838051468 76.1056338029448,215.17654412263073 75.76646364689805,215.85508949513314 75.82813094789162,216.50279183639213 76.25980205566157,217.24302301224088 76.75314046442509,218.44589851022465 76.6914731633151,219.58708789927186 76.7223068139283,220.01888924243394 77.67814998107497,221.19092132919468 78.57232584711164,221.93115202250192 78.6956604490988,222.20873851282522 79.62066996586509,222.60969675774686 80.42234488017857,223.16486967535457 81.13151884288527,223.4424561181222 83.10487247817218,223.78172842250206 83.87571374198887,224.05931484152097 85.13989341456909,224.36774418340065 85.756566425669,224.67617351206718 86.86657784553245,225.32387505925726 87.94575561478268,226.00241947476752 88.43909402366262,226.55759213090641 89.3024362392025,227.51372271613218 89.51827179291286,227.9455235839705 90.01161020179279,228.68575358297676 90.47411496017594,229.17924020678038 90.6899505140027,229.48766932945 91.18328892276622,230.01199880777858 92.23163304151967,230.9372860294534 93.31081081088632,231.83173023088602 94.45165588124655,232.942074602528 94.79082603740972,233.0654461887898 94.94499429012649,232.57195983093698 95.5,231.86257313244278 95.19166349468287,231.36908669222612 94.26665397791658,230.62885696877493 93.71164826804306,230.16621335298987 92.97164065483958,229.67272679670714 92.35496764373966,229.11755438067485 91.89246288547292,228.5315390061005 91.61496003053617,227.91468066570815 90.75161781499628,227.42119395534974 90.31994670734275,226.92770721117267 89.67244004574604,225.8482048404985 88.5624286258826,224.5528017821489 88.31575942144264,224.2752153822221 87.72992006107233,223.65835667733336 87.26741530268919,223.5966708039632 86.18823753332254,222.97981204092503 85.38656261900906,222.67138263961533 84.36905215086881,222.3629532250343 83.01237152644899,222.4554820508347 82.67320137040224,222.23958145547658 82.02569470880553,222.27042439812794 80.85401598794851,221.93115202250192 79.15816520748194,220.9750206960016 78.8189950514352,220.69743415812263 78.51065854588524,219.95720333786448 78.8189950514352,218.66179921932053 78.91149600315839,217.82903930556495 79.15816520748194,217.15049411944347 79.09649790648837,215.97846137417946 78.88066235242877,214.49799868604168 78.47982489538845,213.5110233910964 77.70898363168817,212.55489094479708 76.32146935665514,211.53707239439245 75.48896079184487,210.95105558773503 74.10144651704468,210.11829478025902 73.51560715655796,209.56312085490208 72.6214312906377,208.91541788779432 71.63475447287783,208.63783088396303 71.04891511239111,208.51445887878072 70.80224590783473,208.11349984741537 70.33974114968441,207.8359128126176 69.47639893414453,207.31158171745483 68.45888846600428,207.03399465157418 67.34887704614084,206.6638785469695 66.54720213171095,206.38629145605955 65.46802436246071,206.38629145605955 64.60468214703724,206.38629145605955 62.816330414963886,206.29376242338913 62.045489151147194,206.60219252773095 61.644651693990454,206.6638785469695 61.12047963461373,207.3424247240764 61.737152645597234,208.76120288699167 62.38465930719394,209.71733583847526 62.60049486113712,210.4267247202224 62.87799771607388,210.98189857875695 62.84716406557709,211.56791538285324 63.155500571010634,212.6165769128711 63.18633422162384,213.01753569272114 63.18633422162384,213.60355233075097 63.032165968907066,215.39244492992293 62.6929958127439,216.78037853632122 62.045489151147194,217.82903930556495 61.397982489550486,218.63095626124414 60.38047202141024,219.24781539710239 59.42462885437999,218.8468569648685 58.622953939950094,218.50758442777442 57.60544347157702,217.82903930556495 57.05043776181992,217.18133708380628 56.31043014850002,216.81122150225565 55.60125618579332,216.44110590172932 54.64541301864665,216.07099028205266 54.21374191099312,215.97846137417946 53.535401598899625,215.60834573075408 52.73372668446973,215.42328790191095 52.08622002287302,215.114858176501 51.284545108443126,215.2690730408649 50.63703844696283,215.20738709543366 49.65036162931938,214.25125487498008 49.31119147327263,213.66523828991922 48.44784925773274,212.98669271048857 47.55367339181248,212.7091058640508 46.628663875046186,212.52404796058545 45.641987057519145,212.77079183090245 44.59364293864928,213.14090762048727 44.254472782602534,213.26427954621613 43.69946707272902,213.07922165689524 42.99029311013874,213.0483786749537 42.15778454509564,213.29512252722634 41.66444613633212,213.20259358361363 41.26360867905896,213.20259358361363 40.86277122201864,213.66523828991922 40.67776931868866,214.37462678155862 41.0786067758454,214.8064284378779 42.3736200989224,214.8989573608269 42.43528740014881,214.62137058831286 41.57194518472534,214.37462678155862 41.016939474618994,214.2204118979862 39.660258850432,214.65221356361872 38.88941758661531,214.9298003349104 38.05690902180504,215.7934035548824 37.93357441946864,216.53363480366534 37.40940236009192,216.90375039941864 36.546060144668445,217.27386597619625 36.0835553862853,217.7981963439961 35.18937952024862,218.35336963285226 34.60354015987832,219.00107174913865 33.95603349828161,219.6179308532155 33.092691282741725,220.66659120871918 32.22934906731825,221.80778024555184 31.859345260774717,222.3629532250343 31.58184240583796,222.67138263961533 30.687666539801285,223.5966708039632 30.009326227591373,224.05931484152097 29.36181956611108,224.73785937624052 29.115150361671112,225.01544575829757 28.344309097738005,225.6323043470038 27.23429767799098,226.40337750845356 26.432622763561085,226.77349259669427 25.014274838147685,227.97636650205823 23.472592310630716,228.65491066785762 21.992577084107324,229.30261185741983 20.7592310620239,229.8886271691881 19.926722497097217,230.25874207849847 18.94004567945376,230.90644312393852 18.385039969580248,231.36908669222612 17.552531404653564,232.23268794029718 16.843357441946864,233.25050356425345 16.596688237506896,233.6206183010945 16.10334982862696,234.0524188032723 15.548344118753448,235.40950592776062 15.240007613203488,236.95165007782634 15.085839360486716,238.03115078690462 14.870003806659952,239.38823716371553 14.900837457040325,239.75835158588598 15.332508564810269,240.25183745264076 14.808336505433545,241.4855519721168 14.808336505433545,242.07156629505334 14.623334602103569,242.59589485957986 14.5,243.70623757666908" stroke="#4DD2FF" stroke-dasharray="none" stroke-linecap="round" stroke-linejoin="round" stroke-width="0.5"><title>2026-06-16 10.1km</title><desc>9223370255286294807</desc></polyline><polyline fill="none" opacity="1" points="109.93085714278277,230.74117823061533 111.19599999999627,230.09298368479358 112.36857142834924,229.59912113455357 113.01657142851036,229.1978577875998 114.74457142839674,228.51879668817855 115.33085714280605,228.08666686428478 117.02799999993294,227.129807876423 118.13885714288335,226.17294876166852 119.55828571412712,225.09262380196014 120.88514285709243,223.73450076580048 122.21199999994133,222.31464459060226 123.106857142644,221.1725861596642 123.69314285705332,220.1539933522581 124.61885714274831,219.44406494678697 125.45200000004843,218.67240355699323 126.13085714285262,218.0859408454271 126.9022857141681,217.25254638353363 127.488571428461,217.00561467267107 128.043999999878,216.60435062431497 128.043999999878,215.92528833763208 128.4759999999078,215.49315775826108 129.8645714285085,214.783228892833 131.28399999986868,214.84496184042655 132.57999999984168,214.93756126088556 133.69085714279208,215.09189362556208 134.73999999987427,215.15362657047808 135.85085714270826,215.15362657047808 136.59142857138067,214.96842773398384 137.91828571422957,215.36969187366776 138.68971428554505,215.43142481619725 140.10914285702165,215.74008952110307 140.51028571417555,216.01788774417946 141.09657142858487,215.92528833763208 142.08400000003166,216.35741889110068 142.79371428559534,216.5734841580852 143.34914285701234,216.758682953252 144.55257142847404,217.3142793099978 145.63257142843213,217.8390091630863 146.21885714272503,218.39460543636233 146.49657142837532,218.91933521069586 146.99028571427334,219.2279997659498 147.39142857131083,219.59839721478056 147.66914285707753,219.99966109613888 148.53314285702072,220.8021887918585 149.42799999995623,221.7899150637677 150.97085714282002,222.62330900033703 151.8039999998873,222.06771305331495 152.39028571429662,220.74045589537127 153.0999999998603,218.91933521069586 153.7788571427809,217.28341284685303 154.303428571322,215.33882540214108 154.488571428461,214.38196472049458 154.4577142857015,213.17817206919426 154.5194285713369,212.06697867356706 154.3342857141979,210.8631856344873 154.303428571322,210.06065682967892 154.11828571429942,209.6902588895755 154.2417142855702,209.01119594974443 154.4577142857015,208.17780043574749 155.1365714285057,207.68393638177076 156.2782857142156,207.71480288618477 157.66685714269988,207.96173491631635 159.425714285695,208.67166445573093 161.03028571419418,209.0420624484541 161.36971428559627,209.28899443283444 161.95599999988917,209.87545786204282 163.52971428574529,211.04838457668666 164.23942857142538,211.4187824468827 164.67142857145518,212.03611218795413 165.47371428564657,212.86950725427596 166.27599999995437,214.38196472049458 166.36857142834924,214.93756126088556 166.27599999995437,215.86355539935175 165.96742857131176,216.26481948897708 166.70799999986775,217.7464097799966 166.92399999988265,218.79586938489228 166.95485714287497,219.53666430799058 167.38685714278836,220.5861236518249 167.97314285696484,221.51211706351023 168.52857142849825,221.88251439481974 169.26914285693783,222.4381103561609 169.76285714283586,222.62330900033703 171.42914285708684,223.42583640373778 172.75599999993574,223.73450076580048 174.23714285704773,224.16663085052278 174.79257142846473,224.19749728421448 175.62571428564843,224.53702804533532 176.58228571421932,225.06175737216836 177.35371428565122,225.58648666081717 178.27942857134622,226.17294876166852 178.8657142855227,226.6668115464272 179.45200000004843,227.87060194264632 179.76057142857462,228.3027317794622 180.13085714285262,228.76572800450958 180.9948571427958,229.660853955138 181.92057142860722,230.3399149471661 182.87714285717811,231.20417429914232 183.89542857126798,232.13016634708038 184.7285714285681,233.11789106740616 184.9445714284666,232.77836071007187 184.8828571428312,232.5005631330423 185.5,231.8832351459423 185.2222857142333,231.38937271822942 184.23485714267008,230.55597979488084 182.9388571428135,229.32132343528792 182.3525714285206,228.85832724592183 181.6119999998482,227.9323347780737 180.6554285713937,227.28413997986354 179.79142857145052,225.89515093027148 179.11257142852992,224.9691580819781 178.03257142857183,224.01229868043447 177.66228571417741,223.64190145855537 176.45885714271571,222.80850763985654 175.90342857129872,222.62330900033703 174.57657142844982,222.09857949597063 173.92857142852154,222.1294459385099 172.87942857120652,222.28377814899432 171.83028571412433,222.1294459385099 170.84285714279395,221.72818217577878 170.13314285699744,221.32691839063773 168.74457142839674,220.2157262538094 168.62114285712596,219.16626685590018 168.96057142852806,217.7464097799966 169.17657142854296,216.5734841580852 169.14571428566705,215.2770924587967 168.49771428562235,213.51770335016772 167.60285714280326,212.43737649120158 166.49199999996927,211.5113819114049 166.18342857132666,211.2644500033348 165.68971428554505,210.8940521251643 164.97999999986496,210.49278773576953 164.05428571428638,209.7519918809412 163.09771428559907,209.0420624484541 162.01771428564098,208.70253095583757 161.33885714272037,208.17780043574749 161.09199999994598,207.80740239849547 160.56742857128847,207.86913540604291 159.5800000000745,207.22093880042667 158.1297142856056,206.78880769747775 157.018857142888,206.44927609839942 155.9079999998212,206.4184095885721 154.7662857141113,206.32581005833345 153.562857142766,206.29494354804046 152.2051428570412,206.35667656856822 151.6188571427483,206.5110091175884 151.12514285708312,207.68393638177076 151.68057142850012,208.64079795550788 152.4211428570561,209.6902588895755 152.69885714282282,210.4619212432881 152.79142857145052,211.1409840459819 153.06914285710081,212.03611218795413 153.192571428488,212.43737649120158 153.13085714285262,212.83864077209728 153.13085714285262,213.4251039114897 152.9457142855972,214.8758283140487 152.88399999996182,215.7092230512062 152.7605714284582,216.29568595654564 152.51371428568382,216.85128234903095 152.0199999999022,217.6229439341114 151.55714285711292,218.39460543636233 150.8165714284405,218.79586938489228 150.0451428570086,219.04280103440396 149.02685714291874,218.51807126909262 148.65657142852433,218.33287251921138 147.54571428569034,217.71554331865627 146.34228571422864,216.82041588390712 145.53999999980442,216.41915182519006 144.79942857148126,215.98702127544675 143.84285714279395,215.74008952110307 143.22571428562514,215.46229128731648 142.63942857133225,215.49315775826108 142.05314285703935,215.24622598697897 141.21999999985565,215.21535951492842 140.66457142855506,214.96842773398384 139.92399999988265,213.8572346152505 139.27599999995437,213.486836870783 138.41199999989476,212.9621067001135 137.51714285707567,212.68430835899198 136.1902857143432,212.7460413246299 134.95599999988917,213.08557262609247 134.52399999997579,213.20903854985954 133.87599999993108,212.43737649120158 132.98114285699558,212.93124021834228 131.7777142856503,213.14730558829615 131.5617142856354,212.99297318182653 130.9137142855907,213.51770335016772 130.7594285713276,214.3202317689429 131.19142857124098,214.783228892833 132.2097142856801,214.8758283140487 132.42571428557858,214.6288965215208 131.9319999999134,214.47456414689077 131.3457142856205,214.04243348026648 130.85199999983888,213.98070052574622 129.2165714285802,214.6288965215208 128.4451428571483,215.36969187366776 128.043999999878,215.7092230512062 127.5194285713369,216.82041588390712 127.0565714284312,216.82041588390712 126.13085714285262,217.68467685731594 124.9582857141504,218.5489377268823 124.15599999995902,219.56753076141467 123.32285714277532,220.3083256050595 122.67485714273062,221.2651854986907 122.08857142855413,221.88251439481974 121.40971428563353,222.59244256000966 120.66914285707753,223.58016858645715 120.05199999990873,224.01229868043447 119.18799999996554,224.90742522123037 118.35485714266542,225.52475380524993 117.89199999987613,225.80255165090784 117.52171428571455,226.14208233647514 116.53428571415134,226.72854439221555 115.57771428569686,227.5928041767329 114.62114285712596,228.11753328115446 113.04742857126985,228.76572800450958 111.93657142843585,229.32132343528792 110.27028571418487,230.03125086781802 108.57314285705797,231.0189758753404 107.03028571419418,232.34623114118585 106.69085714279208,232.77836071007187 106.22799999988638,233.82781812665053 105.7034285714617,234.6920770611032 105.48742857133038,235.18593926285394 105.30228571419138,235.92673250229564 105.14799999992829,236.6983920459752 104.99371428554878,237.4391851304099 104.99371428554878,239.01337018265622 104.80857142840978,239.90849486348452 104.93199999991339,240.95795124478173 105.05542857130058,241.66787753393874 104.685142857139,242.28520468535135 104.65428571414668,243.18032896140357 104.5,243.7976559837698" stroke="#4DD2FF" stroke-dasharray="none" stroke-linecap="round" stroke-linejoin="round" stroke-width="0.5"><title>2026-06-11 10.2km</title><desc>9223370255717407907</desc></polyline></svg>