<?xml version="1.0" encoding="utf-8" ?>
<svg baseProfile="full" height="300mm" version="1.1" viewBox="0,0,200,300" width="200mm" xmlns="http://www.w3.org/2000/svg" xmlns:ev="http://www.w3.org/2001/xml-events" xmlns:xlink="http://www.w3.org/1999/xlink"><defs /><rect fill="#222222" height="300" width="200" x="0" y="0" /><text fill="#FFFFFF" style="font-size:12px; font-family:Arial; font-weight:bold;" x="10" y="20">Over 10km Runs</text><text fill="#FFFFFF" style="font-size:4px; font-family:Arial" x="10" y="280">Runner</text><text fill="#FFFFFF" style="font-size:9px; font-family:Arial" x="10" y="290">Yanfu</text><text fill="#FFFFFF" style="font-size:4px; font-family:Arial" x="65" y="280">SPECIAL TRACKS</text><rect fill="yellow" height="2.6" width="2.6" x="65" y="283" /><text fill="#FFFFFF" style="font-size:3px; font-family:Arial" x="70" y="285.5">Over 20.0 km</text><rect fill="red" height="2.6" width="2.6" x="65" y="287" /><text fill="#FFFFFF" style="font-size:3px; font-family:Arial" x="70" y="289.5">Over 40.0 km</text><text fill="#FFFFFF" style="font-size:4px; font-family:Arial" x="120" y="280">STATISTICS</text><text fill="#FFFFFF" style="font-size:3px; font-family:Arial" x="120" y="285">Number: 9</text><text fill="#FFFFFF" style="font-size:3px; font-family:Arial" x="120" y="290">Weekly: 1.8</text><text fill="#FFFFFF" style="font-size:3px; font-family:Arial" x="141" y="285">Total: 92.4 km</text><text fill="#FFFFFF" style="font-size:3px; font-family:Arial" x="141" y="290">Avg: 10.3 km</text><text fill="#FFFFFF" style="font-size:3px; font-family:Arial" x="167" y="285">Min: 10.0 km</text><text fill="#FFFFFF" style="font-size:3px; font-family:Arial" x="167" y="290">Max: 10.9 km</text><polyline fill="none" opacity="1" points="13.0,81.98968256928492 13.348246674751863,81.40184207161656 13.587666263571009,80.8575452544028 13.805320435203612,80.35679213149706 14.001209189766087,79.83426708134357 14.240628778701648,79.33351385834976 14.436517533147708,78.832760586316 14.632406287710182,78.31023538068985 14.828295042272657,77.80948200853891 15.024183796835132,77.35227236503852 15.24183796858415,76.89506268073455 15.568319226033054,76.50316863300395 15.87303506641183,76.15481834317325 16.025392986717634,75.65406475999043 16.090689238277264,75.1097673313343 16.33010882709641,74.65255744644674 16.482466747285798,74.15180371605675 16.7001209189184,73.67282184108626 16.808948004734702,73.19383992120856 16.76541717047803,72.69308604783146 16.983071342110634,72.21410403610207 17.22249093092978,71.756893892074 17.309552599675953,71.27791179253836 17.46191051986534,70.7989296479791 17.440145102795213,70.29817553973407 17.440145102795213,69.84096522408072 17.483675937051885,69.31843909888994 17.52720677142497,68.79591292017722 17.570737605798058,68.27338668794255 17.570737605798058,67.75086040215683 17.61426844005473,67.25010599466623 17.67956469161436,66.79289540578611 17.788391777547076,66.29214090423193 17.962515114806592,65.81315829147934 18.158403869252652,65.33417563373223 18.4413542925613,64.89873681485187 18.76783555012662,64.46329795871861 19.09431680769194,64.04963101100293 19.42079806525726,63.6577359768562 19.769044739892706,63.30938481006888 20.160822249017656,62.98280556956888 20.57436517532915,62.65622630811413 21.00967351871077,62.438506788836094 21.44498186209239,62.22078726024483 21.902055622660555,62.06838358470122 22.380894800415263,61.87243599517387 22.79443772661034,61.63294448654051 23.251511487178504,61.43699688027846 23.730350665049627,61.262821223877836 24.18742442561779,61.00155772807193 24.60096735181287,60.740294218907366 25.014510278124362,60.50080265698489 25.406287787132896,60.261311083857436 25.81983071344439,60.000047536654165 26.25513905682601,59.673468083754415 26.646916565834545,59.39043254093849 27.01692865777295,59.15094091548235 27.408706166781485,58.82436140804202 27.756952841533348,58.454237940954044 28.083434099098668,58.10588641790673 28.409915356663987,57.735762898490066 28.736396614229307,57.43095527400146 29.084643288864754,57.039059729955625 29.432889963616617,56.71248008683324 29.759371221298352,56.29881250875769 30.064087061677128,55.95046083795023 30.41233373642899,55.60210914319032 30.76058041106444,55.21021345802001 31.065296251443215,54.88363369734725 31.413542926195078,54.535281929478515 31.740024183643982,54.18693013768643 32.06650544132572,53.838578321941895 32.480048367520794,53.59908643478411 32.78476420789957,53.207190595014254 33.28536880284082,53.03301465656841 33.65538089477923,52.72820674980176 33.698911729152314,52.249222859332804 34.068923820974305,51.90087091064197 34.39540507865604,51.617834934644634 34.91777509066742,51.50897493970115 35.44014510279521,51.465430941054365 35.940749697736464,51.465430941054365 36.50665054412093,51.42188694202923 37.02902055613231,51.40011494240025 37.48609431681689,51.334798942902125 38.03022974601481,51.4436589415709 38.552599758142605,51.465430941054365 39.074969770153984,51.4436589415709 39.597339782398194,51.4436589415709 40.076178960036486,51.48720294039231 40.59854897216428,51.55251893796958 41.12091898417566,51.6396069333714 41.62152357911691,51.661378931981744 42.07859733980149,51.74846692549181 42.49214026599657,51.922642908088164 42.94921402656473,52.1403628779226 43.47158403857611,52.40162682934897 43.99395405082032,52.597574784158496 44.49455864564516,52.70643475576071 44.973397823399864,52.88061070544063 45.408706166781485,53.09833063415135 45.84401451027952,53.316050553519744 46.27932285366114,53.59908643478411 46.71463119704276,53.8821223002451 47.10640870616771,54.20870212535374 47.43288996373303,54.57882590175723 47.69407496973872,54.99249361990951 48.06408706156071,55.253757424565265 48.499395404942334,55.60210914319032 48.91293833125383,55.97223281805054 49.34824667475186,56.277040530054364 49.82708585250657,56.342356465931516 50.30592503014486,56.16818063502433 50.654171704896726,55.776284993538866 50.89359129383229,55.34084535649163 51.13301088265143,54.861861712590326 51.32889963721391,54.404650010343175 51.54655380884651,53.94743826694321 51.742442563408986,53.49022648233222 51.85126964922529,52.96769867805415 51.98186215234455,52.46694281511009 52.09068923816085,51.944414905505255 52.19951632397715,51.465430941054365 52.24304715835024,50.9211309265811 52.24304715835024,50.39860285760369 52.22128174116369,49.87607473487151 52.26481257553678,49.33177454973338 52.15598548960406,48.831018327735364 52.06892382109072,48.39557809458347 51.93833131797146,47.829505735397106 52.06892382109072,47.30697734776186 52.19951632397715,46.762676886603 52.61305925028864,46.414324560784735 53.13542926230002,46.3272364755976 53.67956469161436,46.39255253964802 54.2237001209287,46.47964062370011 54.746070132940076,46.588500726706116 55.24667472788133,46.74090486697969 55.70374848844949,46.958625059371116 56.16082224913407,47.15457322454313 56.59613059251569,47.350521382148145 57.11850060452707,47.39406541606877 57.575574365095235,47.590013564389665 57.90205562277697,48.06899789511226 58.293833131785505,48.39557809458347 58.72914147505071,48.65684223899734 59.16444981866516,48.89633435953874 59.53446191048715,49.22291450569173 59.90447400242556,49.5930386458931 60.27448609424755,49.98493476488511 60.62273276899941,50.42037486159825 60.84038694074843,50.89935892474023 61.05804111249745,51.356570942822145 61.275695284013636,51.857326915313024 61.38452236994635,52.379854833940044 61.47158403857611,52.90238269872498 61.558645707322285,53.44668250071118 61.60217654169537,53.94743826694321 61.47158403857611,54.4699659703474 61.53688029013574,54.97072163561825 61.623941958881915,55.47147725149989 61.819830713327974,55.95046083795023 62.146311970893294,56.320584487431915 62.5163240628317,56.62539217848098 62.99516324070282,56.86488392294268 63.474002418341115,57.08260368084302 63.88754534453619,57.32209540368058 64.34461910522077,57.43095527400146 64.84522370016202,57.496271195064764 65.36759371205699,57.58335908851586 65.8899637243012,57.670446980482666 66.30350665049627,57.64867500765831 66.45586457068566,57.23500750577659 66.93470374844037,57.25677948037628 66.6299879080616,57.19146355625708 66.08585247886367,57.10437565605389 65.56348246661946,57.08260368084302 65.0411124547245,56.99551577877719 64.56227327685338,57.017287754424615 64.06166868191212,56.77779601715156 63.58282950415742,56.51653229090152 63.212817412335426,56.25526855123462 62.712212817394175,55.9286888577044 62.27690447389614,55.58033716146019 62.124546553823166,55.01426560417167 62.16807738807984,54.4699659703474 62.34220072545577,53.969210255658254 62.45102781127207,53.468454491579905 62.5163240628317,52.945926685031736 62.55985489720479,52.40162682934897 62.53808948001824,51.87909891302115 62.42926239420194,51.40011494240025 62.211608222452924,50.9211309265811 61.90689238207415,50.463918869179906 61.53688029013574,50.0937947925413 61.14510278112721,49.745442695799284 60.731559854815714,49.41886258329032 60.31801692862064,49.135826468787855 59.90447400242556,48.80924631701782 59.46916565892752,48.569754192314576 59.0338573155459,48.28671803040197 58.59854897216428,47.98190983830136 58.141475211596116,47.69887364353053 57.66263603384141,47.546469532098854 57.205562273273245,47.43760944969836 56.770253929891624,47.15457322454313 56.378476420766674,46.784448906139005 55.92140266019851,46.52318466518773 55.42079806525726,46.370780518394895 54.963724304689094,46.21837636700366 54.48488512693439,46.0442001883348 54.006045949296094,45.8264799566241 53.50544135423843,45.73939186130883 53.048367593670264,45.78293590917019 52.52599758154247,45.761163885268616 52.025392986717634,45.761163885268616 51.50302297458984,45.695847813098226 50.980652962462045,45.6740757888183 50.523579202010296,45.8264799566241 50.24062877858523,46.196604344964726 50.26239419588819,46.71913284723996 50.50181378470734,47.176345242449315 50.850060459342785,47.590013564389665 51.15477629983798,48.02545386689599 51.372430471586995,48.460894131916575 51.50302297458984,48.939878380217124 51.633615477592684,49.50595061536296 51.742442563408986,50.05025078181643 51.72067714622244,50.616322892863536 51.698911729152314,51.16062294007861 51.633615477592684,51.7049229289114 51.52478839177638,52.205678867088864 51.372430471586995,52.70643475576071 51.17654171702452,53.207190595014254 50.93712212808896,53.68617439508671 50.610640870640054,54.14338616200257 50.19709794432856,54.49173795682145 49.69649334938731,54.70945781641058 49.1088270858163,54.665913845208706 48.60822249087505,54.4699659703474 48.08585247886367,54.16515814990271 47.541717049549334,53.92566627811175 47.128174123354256,53.577314444526564 46.69286577985622,53.25073457873077 46.21402660210151,52.989470670960145 45.75695284153335,52.79352273137192 45.27811366377864,52.597574784158496 44.79927448602393,52.40162682934897 44.34220072545577,52.205678867088864 43.90689238207415,51.9879589000484 43.36275695275981,52.00973089717445 42.86215235781856,51.9879589000484 42.42684401443694,51.857326915313024 42.035066505428404,51.40011494240025 41.490931076114066,51.11707893849234 40.946795646916144,51.07353493649862 40.402660217601806,50.9211309265811 39.85852478828747,50.9211309265811 39.35792019346263,50.942902928218246 38.83555018133484,50.942902928218246 38.33494558639359,51.05176293535624 37.899637243011966,51.13885093937279 37.31197097944096,51.05176293535624 36.76783555012662,51.00821893275133 36.22370012081228,50.9211309265811 35.76662636024412,50.638094895897666 35.67956469161436,50.115566797874635 36.049576783552766,49.745442695799284 36.35429262393154,49.26645852360525 36.61547762993723,48.76570229517529 36.876662636059336,48.24317400404834 37.333736396511085,47.43760944969836 37.48609431681689,46.958625059371116 37.725513905636035,46.47964062370011 37.96493349445518,45.97888411980239 38.160822249017656,45.456355541187804 38.37847642065026,44.977370963431895 38.61789600958582,44.47661431090091 38.83555018133484,43.97585760880611 39.074969770153984,43.54041695804335 39.314389359089546,43.08320423439727 39.532043530838564,42.604219431988895 39.68440145102795,42.05991846503457 39.9238210398471,41.60270560751087 40.11970979429316,41.167264752381016 39.967351874220185,40.949544310744386 39.466747279278934,40.73182385976543 38.987908101524226,40.492331352841575 38.50906892376952,40.296382929664105 38.03022974601481,40.07866245054174 37.50785973388702,39.86094196198974 37.00725513906218,39.599677363352384 36.48488512693439,39.36018480279017 35.940749697736464,39.1424642833299 35.44014510279521,38.85942759393947 34.91777509066742,38.57639088871656 34.35187424428295,38.35867033546674 33.807738814968616,38.184493886103155 33.50302297458984,38.01031743071508 34.15598548972048,38.140949772816384 34.67835550173186,38.31512622369337 35.15719467960298,38.55461883384851 35.63603385724127,38.81588348650257 36.09310761792585,39.07714812565246 36.59371221275069,39.31664069966064 37.072551390505396,39.57790531287901 37.63845223688986,39.81739786316757 38.182587666320615,40.05689040207653 38.63966142677236,40.296382929664105 39.16203143890016,40.535875445842976 39.66263603384141,40.75359590529115 40.141475211596116,40.99308839987498 40.076178960036486,41.450301312463125 39.85852478828747,41.972830304846866 39.66263603384141,42.495359243243 39.48851269658189,42.996116091904696 39.249093107529916,43.47510085723479 39.03143893589731,43.97585760880611 38.85731559852138,44.5201583695889 38.57436517521273,44.95559893606696 38.313180169207044,45.41281149056158 38.07376058027148,45.87002400372876 37.899637243011966,46.39255253964802 37.769044739892706,46.893309002625756 37.63845223688986,47.41583743295632 37.333736396511085,47.851277750422014 37.02902055613231,48.33026205634815 36.76783555012662,48.787474306096556 36.50665054412093,49.26645852360525 36.201934703742154,49.701898681989405 35.89721886336338,50.0937947925413 35.83192261180375,50.463918869179906 36.201934703742154,50.81227091662004 36.68077388149686,50.89935892474023 36.876662636059336,50.85581492088386 36.33252720662858,50.83404291878105 35.85368802899029,50.76872691203607 35.57073760579806,51.13885093937279 35.875453446176834,51.55251893796958 36.48488512693439,51.59606293583056 36.76783555012662,51.530746938835364 36.18016928655561,51.50897493970115 35.592503022868186,51.50897493970115 35.048367593670264,51.530746938835364 34.50423216447234,51.6396069333714 34.068923820974305,51.944414905505255 33.72067714622244,52.33631084283115 33.61185006040614,52.88061070544063 33.13301088265143,53.12010262650438 32.719467956456356,53.40313851868268 32.327690447331406,53.75149036428775 31.870616686763242,53.990982244256884 31.52237001201138,54.426421997108264 31.13059250288643,54.84008972768788 30.738814993877895,55.23198544137995 30.390568319126032,55.68919706912129 30.02055622730404,56.10286469687708 29.67230955255218,56.53830426861532 29.324062877800316,56.99551577877719 28.93228536879178,57.409183300158475 28.562273276853375,57.822850787837524 28.17049576784484,58.21474627146381 27.756952841533348,58.58486975598498 27.365175332524814,58.976765180850634 26.951632406329736,59.32511664420599 26.494558645645157,59.62992415507324 25.993954050703906,59.91295968455961" stroke="#4DD2FF" stroke-dasharray="none" stroke-linecap="round" stroke-linejoin="round" stroke-width="0.5"><title>2026-08-08 10.0km</title><desc>9223370250704284807</desc></polyline><polyline fill="none" opacity="1" points="73.0,75.7755802811298 73.23093371349387,75.27507551887538 73.42337847466115,74.7938208875712 73.63506771204993,74.37031676972401 73.82751247321721,73.9468126122083 74.00071275839582,73.54255860680132 74.1931575195631,73.08055398490978 74.34711332863662,72.61854931578273 74.52031361369882,72.19504499435425 74.67426942265593,71.81004103136365 74.92444761225488,71.386536634207 75.27084818249568,71.05928320923704 75.48253741976805,70.65502894570818 75.54027084819973,70.17377382292761 75.71347113326192,69.76951948020724 75.86742694221903,69.32676468236605 76.02138275117613,68.88400984118925 76.17533856024966,68.46050516981632 76.15609408414457,68.03700045877486 76.31004989310168,67.59424549117102 76.52173913037404,67.18999091754085 76.61796151101589,66.74723586681648 76.69493941555265,66.32373099509277 76.771917319973,65.90022608358413 76.75267284386791,65.43822068025474 76.79116179607809,65.03396591352066 76.82965074840467,64.53345996173448 76.86813970061485,64.03295395430177 76.86813970061485,63.532447891368065 76.90662865282502,63.03194177284604 76.9643620812567,62.56993607565528 77.07982893800363,62.127180571405916 77.25302922306582,61.7036752658023 77.4647184604546,61.28016992035555 77.71489664993715,60.89516502630431 77.9843193157576,60.529410346469376 78.25374198146164,60.18290588553646 78.56165359937586,59.87490189791424 78.86956521740649,59.528397386631696 79.19672131142579,59.23964360685204 79.5431218816666,58.989390316040954 79.94725588033907,58.79688777518459 80.35138987877872,58.604385226091836 80.7555238774512,58.43113292483031 81.14041339990217,58.27713087378652 81.52530292235315,58.10387855992303 81.92943692090921,57.93062623948208 82.31432644336019,57.73812365334015 82.71846044191625,57.54562105893274 83.10334996436723,57.33386819559382 83.46899501071312,57.10286506055854 83.85388453316409,56.85261165097472 84.23877405561507,56.583107963437214 84.60441910196096,56.31360425983439 84.97006414819043,56.08260107241222 85.33570919453632,55.832347605988616 85.68210976477712,55.485842783295084 85.99002138269134,55.1585882040381 86.27868852450047,54.8505838723504 86.56735566642601,54.54257951962063 86.89451176044531,54.176824323280016 87.24091233068611,53.849569648649776 87.56806842482183,53.46456411865074 87.83749109052587,53.13730939209927 88.126158232335,52.82930492190644 88.49180327868089,52.482799867604626 88.78047042060643,52.136294786585495 89.06913756229915,51.78978967887815 89.37704918032978,51.42403425829252 89.80042765499093,51.17378053237917 90.14682822523173,50.88502621583757 90.47398431936745,50.538521011476405 90.91660727013368,50.44226956105558 91.08980755519588,50.0187631547451 91.28225231647957,49.691508177056676 91.60940841049887,49.34500288046547 92.05203136138152,49.17175022212905 92.47540983604267,49.09474903851515 92.91803278680891,49.09474903851515 93.41838916600682,49.07549874240067 93.88025659299456,49.03699814993888 94.3036350676557,48.99849755715695 94.74625801853836,49.07549874240067 95.20812544540968,49.13324963051127 95.6892373485025,49.15249992639292 96.15110477537382,49.13324963051127 96.57448325015139,49.09474903851515 97.03635067702271,49.13324963051127 97.47897362790536,49.22950110898819 97.9215965786716,49.32575258539873 98.34497505333275,49.30650229033199 98.74910905200522,49.32575258539873 99.05702066991944,49.53750582630164 99.57662152533885,49.86476081525325 100.01924447610509,50.07651403071941 100.46186742698774,50.19201578031061 100.88524590164889,50.288267236115644 101.30862437631004,50.51927072153194 101.73200285097118,50.69252332783071 102.13613684952725,50.92352679243777 102.52102637197822,51.15453024514136 102.84818246611394,51.44328454436618 103.17533856013324,51.77053939431789 103.46400570205878,52.11704450356774 103.69493941555265,52.425049022596795 104.09907341410872,52.71380324009806 104.4647184604546,53.00255743897287 104.83036350668408,53.27206134123844 105.23449750535656,53.44531384125003 105.6771204561228,53.40681328627397 106.04276550246868,53.13730939209927 106.25445473974105,52.752303801011294 106.46614397712983,52.367298176919576 106.65858873841353,51.9437919522461 106.81254454737063,51.53953597327927 106.98574483243283,51.135279957874445 107.12045616528485,50.71177361696027 107.19743406982161,50.288267236115644 107.33214540267363,49.86476081525325 107.42836778331548,49.42200405980111 107.48610121163074,48.95999696402578 107.52459016384091,48.478739521990065 107.52459016384091,48.01673232900794 107.50534568773583,47.535474785690894 107.50534568773583,47.07346749547287 107.42836778331548,46.707711690309225 107.31290092656855,46.22645400639158 107.27441197424196,45.76444658121909 107.35138987877872,45.263938483491074 107.543834639946,44.85968190219137 107.94796863850206,44.60942780977348 108.40983606560621,44.59017749436316 108.85245901637245,44.64792844027397 109.31432644324377,44.72492970034364 109.75694939412642,44.840431587887 110.18032786878757,44.99443410002277 110.60370634356514,45.16768691982725 111.02708481822629,45.36019004508853 111.43121881678235,45.45644160461961 111.873841767665,45.5719434733619 112.18175338557921,45.89919875180931 112.5473984319251,46.20720369799528 112.93228795437608,46.45745770112262 113.33642195293214,46.707711690309225 113.7405559514882,46.919465054845205 114.06771204562392,47.188969322509365 114.37562366353814,47.535474785690894 114.68353528145235,47.90123052330455 114.95295794715639,48.247735931450734 115.16464718454517,48.651992207043804 115.35709194571245,49.05624844622798 115.51104775466956,49.46050464894506 115.6265146114165,49.9032614006137 115.70349251595326,50.326767817809014 115.74198146816343,50.7695244839997 115.7997148965951,51.19303081947146 115.70349251595326,51.655037685268326 115.78047042049002,52.09779422037536 115.76122594438493,52.559800993069075 115.93442622956354,53.00255743897287 116.20384889526758,53.34906245316961 116.56949394149706,53.618566334596835 116.89665003551636,53.907320475322194 117.39700641471427,54.0613226761634 117.80114041338675,54.234575145703275 118.2245188880479,54.3885773353104 118.68638631503563,54.465578428149456 119.14825374190696,54.56182979227742 119.62936564499978,54.63883088211878 120.03349964355584,54.79283305784338 120.4761225944385,54.8505838723504 120.89950106909964,55.0430865821254 121.24590163934045,55.31259036195115 121.59230220958125,55.5243433204887 121.93870277970564,55.75534653660725 122.28510334994644,56.02485027370858 122.63150392007083,56.31360425983439 122.95866001420654,56.660109018703224 123.26657163212076,57.025864012975944 123.47826086950954,57.43011949834181 123.74768353521358,57.757373912318144 124.0555951531278,58.12312881735852 124.32501781894825,58.43113292483031 124.65217391296756,58.739137011318235 124.96008553088177,59.027890823199414 125.22950819658581,59.35514512096415 125.51817533851136,59.66314914418035 125.86457590863574,59.932652647199575 126.21097647887655,60.22140638253768 126.48039914458059,60.56791084050201 126.59586600144394,60.45240935747279 126.51888809690718,60.39465861482313 126.8075552387163,59.971153146296274 126.9807555237785,59.72089989614324 126.51888809690718,59.45139638046385 126.01853171770927,59.143392342783045 125.61439771903679,58.8738887924992 125.24875267280731,58.604385226091836 124.94084105477668,58.334881643531844 124.67141838907264,58.026877529453486 124.38275124726351,57.757373912318144 124.24803991441149,57.54562105893274 124.0555951531278,57.21836662958958 123.74768353521358,56.87186191373621 123.43977191729937,56.44835611365852 123.15110477537382,56.101851338433335 122.8624376335647,55.77459680402535 122.41981468279846,55.54359358892543 122.1696364931995,55.197088743996574 121.86172487528529,54.92758495727321 121.43834640050773,54.77358278614702 121.05345687805675,54.523329246847425 120.64932287950069,54.29232596739894 120.24518888094462,54.196074597508414 119.80256593006197,54.099823225464206 119.34069850319065,54.11907350010006 118.87883107620291,53.96507130126702 118.45545260154177,53.96507130126702 118.03207412688062,53.83031937296619 117.58945117599797,53.63781661121175 117.26229508186225,53.38756300864043 116.8581610834226,53.23356078474899 116.47327156085521,52.92555632110452 116.28082679957151,52.482799867604626 116.3193157518981,52.02079308699467 116.39629365631845,51.53953597327927 116.4925160369603,51.09677938307868 116.56949394149706,50.63477245980175 116.62722736981232,50.19201578031061 116.6464718459174,49.768509350396926 116.58873841771856,49.32575258539873 116.51176051306538,48.921496370545356 116.3193157518981,48.51724011922488 116.04989308619406,48.15148443187354 115.74198146816343,47.843479619332356 115.37633642193396,47.57397539104568 115.02993585169315,47.30447114654817 114.68353528145235,47.03496688581072 114.27940128289629,46.78471291490132 113.93300071265548,46.572959544020705 113.56735566642601,46.30345523930737 113.16322166775353,46.07245153663098 112.75908766931389,45.80294720182428 112.33570919453632,45.64894471745356 111.97006414819043,45.5719434733619 111.56593014963437,45.36019004508853 111.23877405549865,45.01368441365776 110.834640057059,44.7634303298546 110.41126158228144,44.570927178894635 109.94939415541012,44.47467560035875 109.50677120452747,44.32067307032412 109.08339272986632,44.12816990035935 108.6022808267735,44.08966926540597 108.15965787600726,44.08966926540597 107.67854597279802,44.051168630074244 107.23592302203178,44.03191831227741 106.79330007114913,43.99341767645092 106.33143264427781,43.97416735845036 105.94654312182683,44.166670535021694 105.73485388443805,44.513176231994294 105.81183178897481,44.99443410002277 106.06200997857377,45.417940981074935 106.3506771203829,45.80294720182428 106.63934426219203,46.18795338948257 106.77405559516046,46.53445893008029 106.85103349958081,46.97721597069176 107.0434782608645,47.419972967589274 107.10121168929618,47.862729920772836 107.10121168929618,48.32473712961655 107.08196721307468,48.80599458818324 107.024233784643,49.24875140446238 106.94725588022266,49.691508177056676 106.81254454737063,50.134264905849705 106.63934426219203,50.55777130127535 106.46614397712983,51.00052794467774 106.21596578753088,51.38553368599969 105.86956521729007,51.69353825529106 105.46543121873401,51.924541668384336 105.02280826796778,51.98229251979501 104.58018531708512,51.86679081621696 104.13756236631889,51.69353825529106 103.65645046322607,51.48178511616425 103.31004989310168,51.21228110647644 102.94440484675579,50.92352679243777 102.55951532430481,50.67327303858474 102.17462580185384,50.44226956105558 101.78973627940286,50.269016945094336 101.3663578046253,50.07651403071941 100.96222380606923,49.94176198562491 100.53884533129167,49.807009936572285 100.07697790442035,49.61450700229034 99.59586600144394,49.63375729613472 99.23022095498163,49.49900523782708 98.8068424804369,49.30650229033199 98.42195295798592,49.03699814993888 97.96008553088177,48.84449518262409 97.51746258011553,48.767493993393146 97.05559515324421,48.61349161094404 96.5552387740463,48.536490417754976 96.07412687095348,48.61349161094404 95.59301496786065,48.671242504991824 95.11190306476783,48.690492802881636 94.65003563789651,48.63274190906668 94.13043478259351,48.55574071616866 93.64932287950069,48.59424131279229 93.22594440483954,48.49798982066568 92.84105488238856,48.63274190906668 92.86029935849365,49.05624844622798 93.2836778331548,49.22950110898819 93.76478973624762,49.22950110898819 93.68781183171086,49.17175022212905 93.20669992873445,49.15249992639292 92.68709907343145,49.15249992639292 92.20598717033863,49.19100051786518 91.7248752672458,49.30650229033199 91.3977191732265,49.65300758983358 91.12829650752246,50.0187631547451 90.99358517455403,50.44226956105558 90.57020669989288,50.59627188075683 90.2045616536634,50.8657759274065 89.87740555952769,51.21228110647644 89.51176051306538,51.46253483029432 89.165359942941,51.82829024770763 88.83820384880528,52.19404563528951 88.51104775478598,52.52130043049692 88.18389166065026,52.8485552018974 87.87598004273605,53.23356078474899 87.54882394860033,53.59931605789461 87.24091233068611,53.98432157639763 86.91375623666681,54.35007678839611 86.5866001425311,54.715831970621366 86.2401995722903,55.06233685265761 85.89379900204949,55.428091976908036 85.5473984319251,55.75534653660725 85.18175338557921,56.08260107241222 84.77761938702315,56.35210478989757 84.37348538846709,56.62160849123029 83.96935138979461,56.91036243902636 83.54597291513346,57.16061584543786 83.16108339268249,57.39161897750455 82.73770491802134,57.64187235716963 82.31432644336019,57.87287546446896 81.87170349247754,58.046127787209116 81.4290805417113,58.23863036019611 81.02494654315524,58.450383180897916 80.60156806849409,58.62363548137364 80.15894511761144,58.79688777518459 79.73556664295029,59.027890823199414 79.33143264427781,59.25889385936898 78.94654312182683,59.58614814034081 78.61938702780753,59.932652647199575 78.29223093367182,60.25990687916055 77.96507483965252,60.62566158091067 77.71489664993715,61.04916698788293 77.48396293655969,61.53042308386648 77.3107626514975,62.01167912836536 77.15680684242398,62.454434643965214 77.07982893800363,62.897190116054844 77.00285103346687,63.37844601465622 77.00285103346687,63.85970186186023 76.9643620812567,64.36020788850146 76.84889522450976,64.78371294456883 76.88738417671993,65.24571841489524 76.88738417671993,65.76547451250372 76.84889522450976,66.26598032767652 76.67569493933115,66.74723586681648 76.56022808258422,67.26699179149 76.29080541699659,67.70974679125356 76.23307198856492,68.19100217646337 76.23307198856492,68.67225751045044 76.04062722739764,69.11501237246557 75.9251603706507,69.6155178163026 75.73271560948342,70.07752279221313 75.63649322872516,70.53952772094635 75.54027084819973,71.00153260238585 75.09764789731707,71.3095358305145 74.80898075550795,71.69453983611311 74.63578047044575,72.13729440199677 74.48182466148864,72.59929912025109 74.28937990020495,73.08055398490978 74.15466856735293,73.52330841511139 73.94297932996415,73.9660628020938 73.75053456879687,74.40881714571151 73.53884533140808,74.8708216320083 73.36564504634589,75.33282607115689 73.21168923738878,75.79483046321548" stroke="#4DD2FF" stroke-dasharray="none" stroke-linecap="round" stroke-linejoin="round" stroke-width="0.5"><title>2026-08-06 10.4km</title><desc>9223370250876524807</desc></polyline><polyline fill="none" opacity="1" points="73.51194539235439,160.95893215888645 73.51194539235439,159.70941219091765 73.61433447094169,158.45989189759712 73.71672354941256,157.25133917320636 74.04436860058922,156.2476256621303 74.14675767917652,156.02230219199555 74.90443686000071,154.89568468235666 75.80546075070743,153.91245463935775 76.19453924917616,153.58471124683274 76.54266211600043,153.33890368771972 77.0136518770596,153.13406404547277 77.40273037541192,152.97019232538878 78.6313993174117,152.41712522870512 79.12286689411849,152.1713176096673 79.36860068247188,152.02792982605752 79.81911262788344,151.82309012772748 80.67918088729493,151.3519587883202 81.72354948800057,150.65550367994 82.72696245729458,149.9385644918657 83.25938566541299,149.3650130640017 83.46416382247116,149.2011412148713 84.22184300329536,148.279361958761 84.69283276447095,147.80823027034057 85.40955631399993,147.02983868331648 85.92150170647074,146.4358029132418 86.61774744023569,145.6983790958766 87.1296928327065,145.18627915575053 87.53924914670642,145.0224071633129 88.1331058020005,144.36691913730465 88.80887372011784,143.99820708311745 88.76791808870621,143.58852698953706 89.36177474400029,143.05594281526282 90.07849829352926,142.85110273241298 90.61092150164768,142.87158674106468 91.32764505117666,142.85110273241298 91.7576791808242,142.87158674106468 92.35153583611827,142.78965070584673 93.17064846411813,142.87158674106468 94.1331058020005,142.9330387666123 94.95221843000036,142.9330387666123 95.93515358353034,143.05594281526282 96.59044368588366,143.11739483836573 97.24573378835339,143.4246549422096 98.18771331058815,143.91627106722444 98.94539249141235,144.12111110429396 99.68259385658894,144.44885514542693 100.44027303741314,144.79708316450706 101.21843003411777,145.3706351405417 101.81228668941185,145.96467104306794 102.13993174058851,146.33338294542045 102.44709897611756,146.66112683471874 102.93856655282434,147.02983868331648 103.65529010235332,147.43951848178403 104.3720136518823,147.33709853544133 104.90443686011713,146.640642842307 105.33447098976467,145.82128307336825 105.84641638223547,144.67417916070553 106.01023890788201,143.87530305871041 106.2559726962354,142.6667466502986 106.21501706470735,141.37625387634034 106.27645051188301,140.96657355758362 106.15358361764811,140.06527673243545 106.01023890788201,139.59414423332782 106.07167235494126,139.18446376148495 106.17406143341213,138.52897493320052 106.70648464164697,138.0988103406562 107.77133105800021,138.11929436976789 108.34470989764668,138.24219854248804 109.53242320811842,138.67236312208115 110.18771331047174,138.97962351230672 110.67918088741135,138.95913948689122 110.88395904423669,139.16397973694257 111.06825938564725,139.45075607215404 111.53924914670642,139.71704836800927 111.88737201364711,139.96285662791342 112.46075085317716,140.2906009547005 113.1160409556469,140.78221740265144 113.79180887364782,141.5196419795684 114.0170648463536,141.7449661330611 114.32423208188266,142.33900248684222 114.7542662115302,143.3632029230066 114.91808873717673,144.32595113266143 114.93856655294076,144.7356311629701 114.97952218423598,145.14531115815043 114.97952218423598,146.0056390335958 115.1228668942349,146.9683867105341 115.43003412964754,147.37806651424034 116.20819112623576,147.84919824506505 116.49488054600079,148.01307014055783 117.06825938564725,148.29984594415873 117.6416382251773,148.46371782419737 118.35836177470628,148.54565376209212 119.05460750847124,148.73000961728394 119.58703071670607,148.95533343061106 119.97610921505839,148.99630139552755 120.77474402729422,149.46743296689237 121.59385665529408,149.91808051345288 122.22866894199979,150.51211585092824 122.43344709894154,150.69647163027548 123.0068259384716,151.33147481604828 123.15017064847052,151.72067027527373 123.39590443682391,152.1713176096673 124.03071672352962,152.78583663358586 124.29692832764704,153.13406404547277 124.56313993176445,153.25696783189778 124.76791808870621,153.46180746887694 124.99317406141199,153.78955086978385 125.56655290105846,154.2401980094146 126.11945392482448,154.69084510669927 126.4880546075292,155.1005242492538 126.42662116035353,155.03907238011016 126.69283276447095,154.48600552228163 127.0,154.2401980094146 126.30375426611863,153.76906690790202 125.46416382247116,153.23648386768764 124.93174061435275,152.78583663358586 124.52218430035282,152.41712522870512 124.23549488047138,152.06889776466414 123.88737201364711,151.43389467679663 123.49829351529479,151.16760303420597 123.23208191129379,150.7374395802908 122.94539249152876,150.45066392287845 122.55631399306003,150.00001642649295 122.20819112623576,149.7542086832691 121.7576791808242,149.2011412148713 120.67235494882334,148.60710571461823 119.996587030706,148.36129789982806 119.58703071670607,148.2383939877036 118.84982935152948,148.19742601623875 118.31740614329465,148.01307014055783 117.08873720129486,147.68532634395524 116.29010238905903,147.1732266167528 115.79863481223583,146.8864507455728 115.61433447094169,146.2719309636741 115.71672354941256,145.4320871339005 115.92150170647074,144.61272715759696 115.98293515352998,143.3427189164504 115.69624573376495,142.37997050851118 115.22525597270578,141.70399810597883 114.32423208188266,141.00754159103963 113.64846416376531,140.51592516628443 112.72696245729458,139.90140456412337 111.7440273037646,139.28688388274168 110.82252559717745,138.95913948689122 110.51535836176481,138.65187909535598 110.04436860070564,138.36510271206498 109.22525597270578,138.0578422821709 108.56996587023605,137.8734860147233 107.64846416388173,137.52525749013876 107.38225255976431,137.56622555322247 106.2559726962354,137.46380539494567 104.98634812282398,137.46380539494567 104.59726962458808,137.62767764707678 104.31058020470664,137.9554221344879 104.31058020470664,138.3036506276694 104.96587030717637,139.36881997814635 105.33447098976467,140.08576075310702 105.43686006823555,140.2906009547005 105.45733788388316,140.59786124061793 105.74402730364818,141.72448211954907 105.70307167235296,142.15464638493722 105.66211604094133,142.85110273241298 105.53924914670642,143.58852698953706 105.15017064847052,144.63321115871076 104.51535836176481,145.59595911225188 103.67576791811734,145.98515503839008 103.04095563141163,145.84176706933067 102.36518771317787,145.55499111817335 101.95563139917795,145.26821514987387 100.93174061435275,144.59224315636675 100.25597269611899,144.1620791107125 99.82593856658787,143.91627106722444 99.3754266211763,143.8138510453573 98.84300341294147,143.6294950004376 98.31058020470664,143.46562295456533 98.04436860058922,143.40417093594442 97.77815699658822,143.46562295456533 97.12286689411849,143.28126689622877 96.91808873717673,143.03545880736783 96.4880546075292,142.85110273241298 95.54607508529443,142.44142254037433 94.84982935152948,142.37997050851118 93.6211604095297,142.50287457139348 92.55631399306003,142.44142254037433 91.98293515352998,142.37997050851118 91.06143344705924,142.25706644242746 90.77474402729422,142.2980344647949 90.61092150164768,142.50287457139348 90.61092150164768,142.81013471476035 90.79522184294183,142.9944907913159 91.67576791800093,143.01497479935642 91.6348122865893,142.95352277491475 90.81569965858944,143.03545880736783 90.30375426611863,142.95352277491475 89.42320819105953,143.1583628533699 88.80887372011784,143.73191502626287 88.80887372011784,144.18256311374716 88.41979522176553,144.4898231490224 87.72354948800057,144.91998716519447 87.15017064847052,145.30918314639712 86.90443686000071,145.59595911225188 86.37201365176588,146.21047898111283 85.71672354952898,146.82499877092778 84.91808873706032,147.80823027034057 84.11945392482448,148.66855766635854 83.36177474400029,149.46743296689237 82.87030716717709,149.9590484701912 81.92832764494233,150.69647163027548 81.06825938553084,151.22905495305895 80.08532423200086,151.86405806808034 79.12286689411849,152.31470538894064 78.42662116023712,152.66293283508276 77.30034129694104,153.11358008076786 76.6450511944713,153.42083954211557 75.90784982929472,153.89197067797068 75.06825938564725,154.85471676793532 74.49488054600079,155.612623128196 74.29010238894261,155.94036638204125 73.86006825929508,157.0055318021623 73.83959044364747,157.2923070671677 73.73720136506017,158.13214881604654 73.67576791800093,159.0334422365995 73.53242320811842,160.48780171733233 73.59385665517766,160.81554463811335 73.43003412964754,161.22522325755563 73.36860068247188,161.59393398521934 73.0,162.53619460505433" stroke="#4DD2FF" stroke-dasharray="none" stroke-linecap="round" stroke-linejoin="round" stroke-width="0.5"><title>2026-07-24 10.5km</title><desc>9223370251998289207</desc></polyline><polyline fill="none" opacity="1" points="133.0,157.66925593747874 133.8837970540626,157.38193565266556 135.07692307699472,156.76309190815664 136.13747954170685,156.23265435374924 136.66775777423754,155.96743555614376 137.39689034374896,155.56960733424057 138.1039279869292,155.10547436989145 138.81096563010942,154.59713821823243 139.3633387888549,154.11090359149966 140.29132569557987,153.24894209526246 140.79950900166295,152.74060576071497 141.24140752863605,152.23226937607978 141.9042553191539,151.56922184265568 142.14729950902984,151.08298693058896 142.43453355156817,150.64095515257213 143.22995090018958,149.6021803250187 143.89279869070742,149.04964043785003 144.24631751223933,148.87282766148564 144.77659574477002,148.38659249508055 145.43944353517145,148.0771700925543 145.79296235681977,147.34781721309992 146.12438625202049,147.06049635342788 146.41162029467523,146.66266744435416 147.42798690672498,146.44165137049276 147.8256955810357,146.44165137049276 148.6873977087671,146.44165137049276 149.21767594106495,146.41954976253328 149.57119476271328,146.28694011311745 149.902618657914,146.57426101595047 150.21194762689993,146.77317547771963 150.49918166943826,146.77317547771963 151.00736497552134,146.70687065797392 151.33878887072206,146.66266744435416 152.20049099833705,146.55215940860217 153.01800327328965,146.77317547771963 153.92389525368344,146.83948029662133 154.25531914900057,146.90578511467902 155.09492635028437,147.21520758752013 155.89034369890578,147.6793412619445 156.84042553196196,147.87825568110566 157.74631751235574,148.32028769608587 158.58592471363954,148.87282766148564 158.87315875617787,149.13804682379123 159.1824877250474,149.42536756760092 159.6022913256893,149.9779074144899 159.86743044189643,150.3315328853787 160.11047463177238,150.46414243074832 160.8396072014002,151.17139328166377 161.36988543369807,151.79023769657942 161.679214402684,152.14386304322397 162.18739770865068,151.81233928148868 163.0049099837197,150.70725992167718 163.18166939448565,150.37573606753722 163.8003273323411,149.33696118660737 164.2422258593142,148.09927169332514 164.41898527008016,147.28151240071747 164.7062193126185,146.41954976253328 164.7504091653973,145.80070470261853 164.7504091653973,144.80613212886965 164.7504091653973,144.2093884923961 164.61783960729372,143.3695269608288 164.41898527008016,142.75068153403117 164.6620294598397,141.86661650947644 165.21440261870157,141.38038068110473 166.47381342062727,141.49088882797514 167.44599018001463,141.73400674265577 168.37397708673961,142.06553115326096 169.2798690671334,142.37495391714037 169.7880523732165,142.55176691678935 170.42880523740314,143.3695269608288 171.59983633388765,144.05467716796556 172.04173486086074,144.5409127434541 172.79296235681977,145.42497730845935 173.16857610479929,146.59636262315325 172.90343698859215,147.1046995636716 172.77086743048858,147.48042683521635 172.83715220948216,147.8561540793453 173.21276595746167,148.36449089550297 173.43371522100642,148.98333564744098 173.54418985266238,149.75689148282981 173.4779050736688,150.35363447654527 173.5220949263312,150.83986945738434 174.60474631749094,151.5250186707126 174.86988543369807,151.6576281853777 175.46644844522234,152.03335512505146 176.54909983638208,152.54169152924442 177.54337152221706,152.78480892220978 178.1178396071773,152.89531682434608 178.5597381342668,153.02792630379554 179.3330605564406,153.20473893775488 180.2389525368344,153.7351768031367 181.056464811787,154.19930989071145 181.40998363331892,154.39822405827 181.87397708673961,154.75184922618791 182.11702127661556,154.8844586579071 182.55891980358865,156.14424808943295 182.64729950902984,156.36526374748792 182.97872340434697,156.47577157296473 183.6415711948648,157.0946153519326 184.34860883804504,157.62505281777703 184.74631751223933,158.06708399773925 185.2986906711012,158.57541980795213 185.98363338795025,159.08375556816463 186.33715220948216,159.63629438125645 186.44762684137095,159.4152788631036 186.53600654669572,159.03955246054102 186.5139116202481,158.1554902291973 186.02782324061263,157.7355606163328 185.3207855974324,157.16092003814992 185.09983633388765,156.91780285121058 184.525368248811,156.56417783160578 184.0392798690591,155.94533398910426 183.53109656297602,155.56960733424057 183.35433715221006,155.4148963507614 182.95662847801577,154.57503664528485 182.8461538462434,154.22141146525973 182.20540098205674,153.75727837969316 181.60883797053248,153.24894209526246 180.99018003279343,152.67430101774517 180.2831423894968,152.09965987625765 179.59819967264775,151.79023769657942 178.91325695591513,151.81233928148868 178.38297872338444,151.9449487887614 177.63175122754183,151.76813611164107 176.61538461549208,151.59132342846715 175.81996726675425,151.30400280538015 175.1792144025676,151.21559645660454 174.8256955810357,150.37573606753722 174.69312602293212,149.6021803250187 175.02454991813283,148.89492925885133 175.2675941081252,148.09927169332514 175.2234042553464,147.01629314286401 175.06873977091163,146.11012724184548 174.51636661216617,145.33657085875166 174.03027823241428,144.76192889895174 172.96972176758572,143.96627069474198 172.19639934541192,143.54633992622257 171.53355155489407,142.99379938919446 171.18003273336217,142.7285799102974 170.47299509006552,142.22024253749987 169.47872340434697,141.8887181369064 169.16939443536103,141.68980348634068 168.97054009826388,141.33617742173374 168.41816693951841,141.09305948825204 167.77741407533176,140.89414480680716 167.2029459902551,140.80573827927583 166.65057283150963,140.58472195375361 165.5016366612399,140.49631542089628 164.48527004907373,140.45211215387098 164.06546644854825,140.38580725266365 163.15957446815446,140.36370561874355 162.76186579372734,140.49631542089628 162.43044189852662,140.7394333826087 162.31996726687066,141.15936438029166 162.38625204574782,141.512990457064 162.67348608840257,142.0434295265295 162.85024549916852,142.46336041775066 163.18166939448565,142.8611896514485 163.53518821601756,143.54633992622257 163.4468085106928,144.14308363961754 163.46890343702398,144.49670951120788 163.64566284778994,145.35867247133865 163.57937806879636,146.35324493827648 163.55728314246517,147.17100437826593 163.04909983638208,148.49710049148416 162.29787234053947,149.31485959113343 161.81178396078758,149.6242819192703 160.77332242229022,149.2706563998363 160.4418985269731,149.24855480410042 160.0,148.89492925885133 159.5581014730269,148.34238929580897 158.96153846161906,148.0108652895724 158.60801963985432,147.81195087556262 158.09983633388765,147.54673164500855 157.4811783960322,147.41412202455103 157.23813420627266,147.28151240071747 156.6636661210796,147.14890277347877 156.2880523732165,146.92788672045572 155.95662847789936,146.55215940860217 155.3600654664915,146.70687065797392 154.29950900166295,145.82280631313915 153.7471358429175,145.53548536839662 153.52618657937273,145.22606279456522 152.59819967276417,144.71772566862637 151.84697217680514,144.60721759108128 151.00736497552134,145.0271482729877 150.7422258591978,145.29236763337394 149.8805237315828,145.469180532702 149.54909983638208,145.29236763337394 148.86415711953305,145.1597579548834 148.37806873989757,145.35867247133865 147.93617021280807,145.42497730845935 147.64893617015332,145.7122982593719 147.60474631749094,146.11012724184548 147.7815057282569,146.3974481545738 148.37806873989757,146.50795619364362 148.93044189852662,146.59636262315325 148.75368248776067,146.33114332993864 148.2454991816776,146.26483850451768 147.07446808519308,146.22063528711442 146.27905073645525,146.41954976253328 145.6603927987162,147.1268011686334 145.37315875617787,147.87825568110566 144.9091653028736,147.9445604858047 144.4230769231217,148.54130368935876" stroke="#4DD2FF" stroke-dasharray="none" stroke-linecap="round" stroke-linejoin="round" stroke-width="0.5"><title>2026-06-20 10.1km</title><desc>9223370254938036107</desc></polyline><polyline fill="none" opacity="1" points="13.0,249.87259215986705 13.29336437722668,249.55817902085255 13.628637951100245,249.0131961987936 14.445867287460715,248.17476096967584 15.011641443590634,247.23152116552228 15.745052386424504,246.79134252818767 16.394644935964607,246.41404652179335 17.484284051228315,245.91098513483303 18.1757857974153,245.5756108481437 19.013969732215628,245.17735385289416 19.831199068576097,244.6742923388665 20.5227008148795,244.23411347178626 20.73224679857958,244.04546537378337 21.256111757829785,243.64720825408585 21.905704307369888,243.12318567879265 22.722933643730357,242.43147579356446 23.24679860298056,241.8026485403243 24.022118742694147,241.02709481670172 24.399301513447426,240.4192282986478 25.027939464431256,239.81136170509853 25.300349243334495,239.3292605599272 25.6146682187682,239.09869043025537 25.80325960414484,238.88908121196437 26.431897555361502,238.36505812697578 27.08149010478519,237.79911313205957 27.374854481895454,237.56854293012293 27.605355064035393,237.58950385806384 27.877764842822216,237.0235587733332 27.814901047735475,236.73010574057116 28.33876600698568,236.289926158468 28.778812572709285,235.97551214694977 29.679860302596353,235.93359027718543 29.95227008149959,235.97551214694977 30.89522700814996,235.93359027718543 31.859138533240184,236.10127775394358 32.23632130376063,236.24800429143943 33.09545983700082,236.14319962228183 33.745052386424504,235.99647308167187 34.31082654255442,236.18512149021262 34.813736903248355,236.289926158468 35.46332945278846,236.37376989141922 35.84051222342532,236.31088709182222 36.05005820724182,236.24800429143943 36.133876600652,236.10127775394358 36.72060535510536,236.75106667209184 37.13969732238911,236.93971505144145 37.30733410944231,237.170285283064 38.20838183932938,237.31701178840012 38.79511059378274,237.58950385806384 39.151338765979744,237.7571912779822 40.073341094190255,238.34409720238182 40.38766006985679,238.70043290781905 41.03725261928048,239.3711824005586 41.28870779974386,239.53886975932983 42.02211874269415,240.33538463508012 42.12689173454419,240.586915621534 42.56693830038421,240.88036842268775 43.57275902212132,240.9222902500187 44.28521536674816,240.04193180124275 44.72526193247177,239.20349503599573 44.93480791617185,238.8681202896114 45.35389988357201,237.736230350798 45.54249126894865,236.75106667209184 45.919674039585516,235.59821530635236 46.02444703143556,235.32572312562843 45.856810244498774,234.21479330823058 45.898719441262074,233.77461349929217 45.75203725253232,233.41827743442263 45.856810244498774,232.97809755368507 45.64726426079869,232.3702300339355 45.772991850972176,231.9090891063679 46.045401629759,231.3641043176176 47.030267753172666,231.1125728560437 47.93131548317615,231.28026049854816 48.43422584387008,231.46890908942441 49.20954598370008,231.78332339131157 50.13154831202701,231.99293291461072 50.44586728757713,232.28638623218285 51.09545983700082,232.8313709179056 52.143189755501226,233.52308216207894 52.77182770660147,234.17287142339046 53.46332945278846,235.09515280698542 53.90337601862848,235.89166840707185 53.92433061695192,236.10127775394358 53.79860302677844,236.87683225917863 54.2176949941786,237.61046478583012 54.34342258435208,238.4279409001465 54.34342258435208,238.951963978383 54.23864959250204,239.4759870004491 54.34342258435208,239.91616629555938 54.95110593712889,240.48211104542133 55.705471478402615,240.83844659500755 55.663562281639315,240.7965247670072 56.6065192084061,241.55111761641456 56.94179278227966,241.8026485403243 57.67520372522995,241.8445703597099 58.366705471416935,242.075140359957 58.99534342251718,242.36859307187842 59.58207217697054,242.43147579356446 60.39930151333101,242.85069391751313 61.13271245639771,243.0603029660415 61.635622817091644,243.54240374348592 62.20139697322156,243.8987390702532 62.66239813726861,244.6323705437244 62.93480791617185,245.19831474815146 63.35389988357201,245.3660019072995 63.710128055885434,245.84810245782137 64.06635622808244,246.14155494360602 64.52735739236232,246.39308563168743 65.34458672872279,247.21056027893792 66.03608847490977,247.8393868378771 66.26658905704971,248.32148714509094 66.51804423739668,248.13283920445247 66.53899883583654,248.09091743887984 67.0,247.54593445375212 66.60186263092328,247.10575584461913 66.11990686843637,246.64461630693404 65.42840512224939,246.09963316097856 64.88358556455933,245.6804153151752 64.46449359715916,245.1354320620303 63.83585564605892,244.6323705437244 63.58440046571195,244.5485269523342 63.479627473745495,244.19219167286064 63.12339930143207,243.64720825408585 62.89289871940855,243.14414658289752 62.20139697322156,242.53628032791312 61.84516880090814,242.22186671811505 61.40512223506812,241.5301567054703 61.02793946454767,241.36246941497666 60.818393480731174,241.15286029371782 60.16880093130749,240.8594075089204 59.20488940621726,241.02709481670172 58.743888242170215,241.13189938111464 57.59138533170335,240.9222902500187 56.62747380672954,240.56595470651519 56.27124563441612,240.2934628027724 55.87310826545581,240.10481455278932 55.37019790452905,239.3921433206997 55.43306169961579,238.91004213417182 55.76833527360577,238.19737072786666 55.89406286366284,237.69430849616765 55.852153667015955,237.19124621266383 55.76833527360577,236.2060824240034 55.600698486552574,235.5562934334157 55.11874272406567,234.80169965833193 54.490104772965424,234.21479330823058 53.94528521527536,233.73269161066855 53.337601862614974,233.33443365068524 52.66705471475143,232.89425376232248 52.247962747351266,232.51695668356842 51.28405122237746,231.8881281540962 50.403958090697415,231.42698718095198 50.11059371358715,231.1544947672519 49.62863795098383,230.944885207864 48.518044237513095,230.60950989410048 47.57508731086273,230.29509551648516 46.86263096623588,230.2531735979428 46.42258440039586,230.19029071944533 45.20721769495867,230.14836880002986 44.222351571545005,230.23221263854066 43.84516880090814,230.35797839364386 43.63562281720806,231.1544947672519 43.970896391081624,231.97197196274647 44.57857974385843,232.810409969592 44.64144353894517,233.48116027130163 44.72526193247177,233.77461349929217 44.95576251449529,234.34055896062637 44.892898719524965,234.90650435630232 44.91385331773199,235.89166840707185 44.74621653079521,236.96067598208901 44.43189755524509,237.69430849616765 44.117578579694964,238.1764098026324 43.55180442368146,238.70043290781905 42.75552968564443,238.8681202896114 42.48311990685761,238.7633156766824 41.83352735743392,238.26025350322016 40.97438882419374,237.9039177657105 40.57625145511702,237.48469921766082 39.90570430725347,237.14932435334777 39.381839348119684,236.93971505144145 39.02561117580626,236.79298853478394 38.06169965071604,236.45761362303165 37.32828870776575,236.24800429143943 36.636786961578764,236.18512149021262 36.0919674038887,235.78686373028904 35.71478463325184,235.32572312562843 35.253783469088376,234.86458247737028 34.39464493596461,234.27767613486503 33.849825378274545,234.0471057666582 33.45168800931424,234.0680667096749 32.94877764838748,234.34055896062637 32.71827706636395,234.6759340178687 32.34109429572709,234.8855434169236 31.691501746186987,234.92746529562282 30.538998835836537,234.9693871740019 30.036088474909775,234.9693871740019 29.679860302596353,235.40956687519792 29.784633294446394,235.744941858924 30.119906868436374,235.95455121208215 30.685681024449877,236.05935588528519 30.685681024449877,235.84974653663812 30.098952269996516,235.72398092315416 29.32363213028293,235.7030199872388 28.59022118744906,235.89166840707185 28.35972060530912,236.1222386881709 27.877764842822216,236.52049642067868 27.856810244498774,237.08644156370428 27.207217695075087,237.3589336462319 26.264260768308304,238.11352702620206 25.656577415647916,238.70043290781905 24.923166472581215,239.41310424078256 24.504074505181052,239.85328354153899 24.25261932471767,240.2934628027724" stroke="#4DD2FF" stroke-dasharray="none" stroke-linecap="round" stroke-linejoin="round" stroke-width="0.5"><title>2026-06-18 10.1km</title><desc>9223370255108266507</desc></polyline><polyline fill="none" opacity="1" points="79.99954358732793,238.33588387977215 80.44317663169932,237.86746311336174 81.13327247835696,237.4730034909153 81.62619808304589,236.4128931213927 82.51346417167224,236.11704833217664 83.52396166138351,236.14170206524432 84.2879963486921,236.09239459907985 84.97809219534975,236.09239459907985 85.66818804200739,236.4622005848214 86.70333181205206,236.51150804775534 87.39342765859328,236.31427819337114 87.63989046099596,236.21566326366155 87.91099954373203,236.21566326366155 89.34048379736487,236.65943043408333 90.27704244642518,236.63477670334396 90.81926061154809,236.4622005848214 91.09036969416775,236.8320065466978 91.73117298039142,237.05389011238003 92.32268370618112,237.39904230867978 93.5303514378611,237.67023330548545 94.31903240538668,238.0893466390553 95.0091282519279,238.43449877310195 95.4281150160823,238.87826577221858 95.87174806022085,239.46995505099767 96.58649018709548,240.28352770998026 97.25193975353613,240.92452426932869 97.86809675954282,241.49155962758232 98.63213144685142,241.88601897435728 99.2236421725247,242.3544394133787 99.64262893656269,242.03394122235477 100.25878594256938,241.63948188582435 100.579187585623,240.77660199269303 100.65312642627396,240.35748885507928 101.19534459151328,239.19876413917518 101.71291647653561,237.69488703183015 101.95937927893829,236.80735281665693 102.13190324057359,235.84585726208752 102.18119580100756,234.41594049858395 102.00867183937225,232.8874083920673 101.9100867183879,231.7533359208319 102.05796439980622,231.16164584687795 102.60018256504554,230.3973794110061 103.29027841170318,230.3973794110061 104.0296668187948,230.54530195493135 104.81834778643679,230.61926322546788 106.24783204030246,231.18629960122053 107.08580556837842,231.50679839751683 107.67731629393529,231.309568371129 108.14559561852366,231.33422212477308 108.0470104975393,232.04918093496235 108.8110451848479,232.6901784131478 109.92012779554352,233.38048330962192 110.33911455969792,233.8489044420421 110.65951620275155,234.19405683100922 111.02921040623914,234.71178537543165 111.49748973082751,235.5253587081097 111.6946599726798,236.26497072872007 111.49748973082751,236.65943043408333 111.17708808765747,237.07854384140228 111.42355089006014,237.67023330548545 111.79324509354774,238.26192270868341 112.11364673671778,239.64253107924014 111.91647649486549,240.06164426897885 112.2368781378027,240.80125570579548 112.8530351438094,241.343637365615 113.74030123243574,241.9599800988508 114.06070287548937,242.25582458730787 114.45504335931037,242.50236164944363 115.09584664541762,242.77355240553152 116.32816065731458,243.0693968522246 117.4125969876768,243.31593387946486 118.12733911466785,243.53781719499966 119.11319032416213,243.8829690020939 119.90187129168771,244.27742818492698 120.71519853954669,244.91842429930693 121.282062985003,245.36219079824514 121.87357371067628,246.0031867919315 122.09539023286197,246.4962605846231 122.31720675504766,246.84141221447499 122.7854860794032,247.2358711945999 123.10588772268966,247.6796375150152 123.3769968051929,248.02478907391196 124.04244637151714,248.56717005334212 124.97900502057746,249.33143407400348 125.71839342778549,250.02173697334365 126.28525787324179,250.71203979011625 126.53172067564446,250.51481042228988 126.67959835706279,249.9970832998224 126.97535371978302,249.57797083325568 126.67959835706279,249.18351201337646 125.6937471475685,248.54251637353445 125.2994066637475,248.1480574827874 124.63395709730685,247.60567646395066 124.36284801468719,247.2851785652747 123.99315381108318,246.71814377760165 123.40164308540989,246.20041631403728 123.05659516202286,246.1018015538575 122.71154723875225,245.26357602368807 121.99680511187762,244.35138927865773 121.33135554555338,243.80900790228043 120.96166134194937,243.41454868743313 120.61661341856234,243.1187042585516 119.65540848940145,242.77355240553152 119.40894568688236,242.5270153550373 118.62026471935678,242.23117088052095 117.36330442724284,242.23117088052095 116.87037882243749,242.13255605229642 116.57462345960084,242.00928751463653 115.46554084902164,241.76275043134228 114.60292104072869,241.4422522073728 113.71565495210234,240.92452426932869 113.56777727068402,240.67798713955563 113.51848471025005,239.46995505099767 113.74030123243574,238.68103599906317 113.93747147428803,238.1386540880194 113.88817891385406,237.76884821022395 113.91282519407105,236.5361617790477 113.69100867188536,235.62397364966455 112.97626654501073,234.5392091991671 112.2368781378027,233.8489044420421 111.30031948897522,233.18325334764086 110.63486992241815,232.7394859085034 109.55043359205592,231.97521968287765 109.03286170703359,231.55610590300057 108.0716567778727,231.26026086349157 107.60337745316792,231.0630308286345 107.3076220904477,231.03837707379716 106.9132816066267,230.66857073857682 106.81469648564234,230.3973794110061 105.90278411691543,229.97826551581966 105.23733455047477,229.7810354368994 104.37471474218182,229.460536544153 103.33957097225357,229.460536544153 102.64947512559593,229.3372677344887 101.56503879511729,229.3372677344887 100.55454130540602,229.36192149666022 100.08626198081765,229.53449782868847 99.56869009591173,229.97826551581966 99.54404381569475,230.69322449504398 100.06161570071708,231.432837138389 100.70241898682434,232.4682946788089 100.89958922879305,232.8874083920673 100.87494294845965,233.2325608387764 101.09675947064534,234.19405683100922 101.12140575086232,234.4899017192365 101.12140575086232,234.81040033101453 101.07211319031194,235.79654979336192 101.02282062987797,236.88131400648854 100.35737106355373,238.38519132666988 100.20949338201899,238.68103599906317 99.39616613416001,239.44530133230728 98.73071656795219,239.51926248823293 97.84345047920942,239.14945669923327 96.88224555004854,238.55776738742134 96.51255134644452,238.21261526073795 95.79780921945348,237.7935019362194 95.35417617531493,237.59627212578198 94.61478776810691,237.27577366947662 94.17115472396836,237.02923638324137 93.70287539937999,236.90596773620928 93.13601095392369,236.6840841647645 92.64308534911834,236.48685431631748 91.85440438159276,236.48685431631748 91.38612505700439,236.36358565761475 90.69602921046317,236.14170206524432 90.12916476500686,235.35278255632147 89.71017800096888,234.81040033101453 89.24189867649693,234.5145554592309 88.47786398907192,234.3912867581821 87.71382930176333,234.26801805448486 86.9744408945553,234.5885166786029 86.18575992702972,234.85970780815114 85.81606572342571,234.81040033101453 85.27384755818639,234.76109285338316 84.65769055229612,234.73643911449471 84.06617982662283,234.9090152848512 83.81971702422015,234.7857465922716 83.45002282061614,234.98297649913002 83.1542674577795,235.55001244370942 83.37608397996519,236.0184333991201 84.21405750792474,236.16635579813737 84.63304427196272,236.06774086589576 84.04153354640584,235.87051099623204 83.59790050203446,235.62397364966455 82.5874030123232,235.89516473031836 81.89730716566555,236.06774086589576 81.62619808304589,236.38823938957648 81.05933363758959,237.30042739759665 80.71428571431898,237.69488703183015 80.24600638984703,237.76884821022395 79.65449566417374,238.360537603352 78.89046097674873,238.7549971647677 78.39753537194338,239.27272529821494 77.95390232780483,239.8397608193627 77.58420812420081,240.25887399469502 76.89411227754317,241.19571509977686 76.25330899143592,242.00928751463653 75.98219990869984,242.23117088052095 75.48927430389449,242.67493758662022 74.77453217713628,243.34058758162428 74.47877681429964,243.58712459728122 74.01049748971127,244.1048522957717 73.46827932458837,244.59792625103728 73.0,244.91842429930693" stroke="#4DD2FF" stroke-dasharray="none" stroke-linecap="round" stroke-linejoin="round" stroke-width="0.5"><title>2026-06-16 10.1km</title><desc>9223370255286294807</desc></polyline><polyline fill="none" opacity="1" points="142.0486486486625,236.71523440483725 142.46216216206085,236.30159587220987 143.14324324321933,236.1556057947164 143.84864864859264,236.1556057947164 144.26216216210742,236.20426915431744 144.57837837841362,236.1556057947164 145.28378378378693,236.27726419296232 145.72162162163295,236.27726419296232 146.15945945947897,236.3989225885307 146.32972972968128,236.52058098153793 146.9864864865085,236.44758594603627 147.71621621621307,236.44758594603627 147.86216216208413,236.44758594603627 148.17837837839033,236.30159587220987 148.44594594591763,236.30159587220987 149.00540540541988,236.56924433793756 149.4918918919284,236.61790769401705 149.6621621621307,236.59357601599186 150.09999999997672,236.66657104960177 150.56216216215398,236.61790769401705 151.21891891898122,236.9098878215009 151.34054054052103,236.9342194981291 151.535135135171,237.12887290728395 151.7054054053733,237.05587787961122 151.99729729734827,237.05587787961122 152.31351351353806,237.1775362585031 152.77567567583174,237.3965213338961 153.14054054045118,237.54251137949177 153.33513513510115,237.56684305335511 153.4567567568738,237.63983807442128 153.77297297294717,237.71283309458522 154.40540540544316,238.07780818114406 154.72162162163295,238.15080319566187 155.4513513513375,238.49144658414298 155.57297297299374,238.56444159333478 155.86486486485228,238.95374829298817 156.035135135171,239.00241162860766 156.13243243237957,239.09973829850787 156.2540540540358,239.4160499642312 156.3513513513608,239.53770829248242 156.64324324333575,239.6593666181434 156.74054054054432,239.78102494115592 156.95945945940912,239.95134658904863 157.0081081080716,240.09733656886965 157.17837837839033,240.2676582072163 157.29999999993015,240.55963814689312 157.8594594594324,240.9002813908155 158.32162162160967,241.45990953288856 158.56486486492213,241.6788944430009 159.22162162163295,241.9952059649513 159.7810810811352,242.33584912269725 160.3162162163062,242.04386927446467 160.43783783784602,241.89787934467313 160.68108108104207,241.55723616064643 160.90000000002328,240.85161807149416 161.16756756755058,240.07300490583293 161.45945945940912,239.4160499642312 161.79999999993015,238.7104316088371 161.99459459458012,238.12647152424324 162.21351351356134,237.37218965930515 162.4081081080949,236.59357601599186 162.52972972975112,236.1556057947164 162.55405405408237,235.83929394715233 162.50540540541988,235.66897217583028 162.52972972975112,234.8903582985804 162.52972972975112,234.13607600299292 162.57837837841362,234.01441755882115 162.60270270274486,233.84409573260928 162.43243243242614,233.0654816046008 162.38378378376365,232.74916958450922 162.4081081080949,232.43285754675162 162.3108108107699,232.31119906596723 162.26216216222383,232.1408771885326 162.23783783789258,231.97055530594662 162.3594594594324,231.6055798260495 162.3594594594324,231.4595896274841 162.52972972975112,230.9486239028629 162.6270270270761,230.8269653902098 163.0648648648057,230.559316653118 163.33243243244942,230.51065324508818 163.964864864829,230.5836483570747 164.37837837834377,230.70530687496648 165.05945945938583,230.77830198442098 165.74054054054432,230.99728730722563 166.44594594603404,231.33793112583226 167.02972972975112,231.55691642695456 167.7108108107932,231.62991152549512 167.832432432333,231.72723832193878 167.97837837832049,231.82456511678174 168.17297297297046,232.1408771885326 168.44054054049775,232.28686736954842 169.02432432433125,232.82216466765385 169.68108108115848,233.21147176172235 169.99729729734827,233.3331302231527 170.24054054066073,233.5034520647896 170.4351351351943,233.72243728215108 170.58108108118176,233.9900858696783 171.11621621623635,234.52538300683955 171.21351351356134,234.64704144001007 171.50540540530346,235.2796652505349 171.8459459459409,235.83929394715233 171.8945945946034,235.98528403282398 171.91891891881824,236.27726419296232 171.9432432432659,236.3989225885307 171.8459459459409,237.00721452734433 171.65135135129094,237.20186793393805 171.60270270274486,237.3235263096867 171.8459459459409,237.85882313200273 172.18648648646194,238.49144658414298 172.35675675678067,238.9294166250911 172.35675675678067,239.3187232997152 172.40540540544316,239.46471329583437 172.38108108111192,239.9026832616364 172.40540540544316,240.07300490583293 172.72162162163295,240.72995977141545 172.77027027029544,240.9002813908155 173.1837837838102,241.45990953288856 173.4513513513375,241.63023113040254 173.62162162165623,241.7518894111272 174.10810810816474,242.04386927446467 174.2054054053733,242.18985920050181 174.32702702702954,242.26285416202154 174.59459459467325,242.33584912269725 175.27567567571532,242.725155563734 175.9081081082113,242.96847207582323 176.6621621621307,243.16312527799164 176.95405405410565,243.21178857749328 177.6837837838102,243.45510506871506 178.12162162165623,243.55243166227592 178.2675675676437,243.45510506871506 178.55945945950225,243.57676331044058 178.70540540548973,243.60109495843062 179.21621621621307,243.8444114329759 179.62972972972784,244.13639118871652 179.9702702703653,244.25804941580282 180.28648648655508,244.5013658622338 180.57837837841362,244.67168736856547 180.79729729739483,244.84200886977487 181.30810810811818,245.13398857420543 181.5270270270994,245.35297334266943 181.77027027017903,245.52329482347704 182.13513513514772,246.1802490586415 182.2324324324727,246.472228694387 182.40270270267501,246.69121341127902 182.47567567578517,246.81287158376654 182.7189189188648,247.03185628753272 182.7675675676437,247.1778460854548 182.93783783784602,247.27517261522007 183.44864864868578,247.88346338889096 183.8864864865318,248.24843782189419 184.17837837850675,248.41875921594328 184.56756756757386,248.85672849148978 184.93243243254256,249.10004474112066 185.20000000006985,249.51368234161055 185.73513513512444,249.82999342758558 186.17297297308687,250.38962069049012 186.39189189195167,250.6086052566534 186.5135135136079,250.48694716536556 186.56216216215398,250.34095745245577 186.44054054061417,250.43828392811702 186.5135135136079,250.12197287598974 186.75675675680395,249.75699856315623 187.0,249.6353404537076 187.0,249.48935071891174 186.7810810811352,249.24603448592825 186.63513513514772,248.978386617644 186.00270270265173,248.5890806049283 185.3945945946034,248.1511113087472 184.98108108108863,247.61581545654917 184.56756756757386,247.37249914341373 184.51891891902778,247.2508409829752 184.39729729737155,247.1778460854548 183.9351351351943,246.52089196551242 183.74054054054432,246.27757560554892 183.18108108115848,246.00992759756627 182.91351351351477,245.42596826364752 182.50000000011642,244.915003797214 182.30540540546644,244.67168736856547 181.9648648649454,244.18505447986536 181.57567567564547,243.8444114329759 181.11351351358462,243.43077342005563 180.9918918919284,243.4064417712798 180.82162162160967,243.13879362808075 180.38378378388006,242.8954771232966 179.8729729729239,242.48183904125472 179.70270270272158,242.3601807761006 179.4351351351943,242.33584912269725 178.75405405415222,241.9952059649513 178.38918918918353,241.92221099991002 178.24324324319605,241.87354768937803 177.87837837846018,241.9465426550596 177.70810810814146,242.04386927446467 177.05135135131422,242.06820092906128 176.83243243244942,241.97087431003456 176.22432432428468,241.9465426550596 175.78648648655508,241.80055272273603 175.44594594591763,241.63023113040254 175.22702702705283,241.5815678173385 174.8864864865318,241.31391958805034 174.132432432496,240.9489447096712 173.79189189185854,240.4379798405571 173.74324324319605,239.75669327675132 173.69459459464997,239.61070328814094 173.88918918918353,239.0754066311929 173.96216216217726,238.49144658414298 174.08378378371708,238.2481298801431 174.132432432496,237.56684305335511 174.10810810816474,236.9098878215009 174.10810810816474,236.54491265976685 173.96216216217726,235.86362562834984 173.59729729732499,235.15800683092675 173.15945945947897,234.50105131982127 172.89189189195167,234.30639782047365 172.40540540544316,233.89275911205914 172.01621621625964,233.57644713818445 171.91891891881824,233.4547886819346 171.77297297294717,233.38179360702634 171.6756756757386,233.26013514664373 171.38378378376365,233.08981329767266 171.26216216222383,232.99248652462848 170.8243243242614,232.77350127900718 170.45945945952553,232.5301843295165 170.09459459467325,232.1895405826217 169.51081081083976,231.77590171957854 169.34054054052103,231.62991152549512 169.00000000011642,231.4352579273691 168.48918918927666,231.3622628263547 168.0756756757619,231.14327751769451 167.95405405410565,230.9486239028629 167.88108108111192,230.7539702813665 167.75945945945568,230.65664346812991 167.46756756759714,230.7539702813665 167.3459459459409,230.70530687496648 167.20000000006985,230.43765813211212 166.56756756769028,230.1943410822132 166.17837837839033,230.0240191410703 165.42432432435453,229.85369719477603 164.9864864865085,229.75637036605622 164.5486486486625,229.58604841172928 164.08648648648523,229.53738499523024 163.67297297297046,229.5617167034943 162.91891891893465,229.48872157835285 162.77297297294717,229.48872157835285 162.6270270270761,229.51305328684975 161.8243243243778,229.46438986976864 161.070270270342,229.3913947433175 160.7540540540358,229.51305328684975 160.43783783784602,229.53738499523024 160.29189189185854,229.63471182776266 159.97567567578517,230.048350847268 159.90270270279143,230.559316653118 159.9513513513375,230.7296385782247 160.34054054052103,231.3135994251934 160.72972972982097,231.8732285136066 160.92432432435453,232.1408771885326 161.11891891888808,232.6031794154551 161.14324324333575,232.74916958450922 161.2891891892068,233.11414499071543 161.21621621632949,233.2844668389007 161.070270270342,233.47912037343485 161.4351351351943,233.9900858696783 161.5081081080716,234.13607600299292 161.53243243240286,234.30639782047365 161.48378378385678,234.4523879456683 161.48378378385678,234.62270975360298 161.4351351351943,234.76869987061946 161.48378378385678,235.08501177787548 161.3378378378693,235.54731376454583 161.3378378378693,236.22860083394335 161.36216216220055,236.56924433793756 161.2891891892068,236.88555614478537 161.21621621632949,237.00721452734433 161.19189189188182,237.3478579845687 161.070270270342,237.63983807442128 160.99729729734827,237.78582811378874 160.8027027028147,238.15080319566187 160.60810810816474,238.3941199038527 160.4864864863921,238.6860999398341 160.24324324331246,239.00241162860766 159.8297297297977,239.29439163336065 159.65945945947897,239.3187232997152 159.36756756762043,239.46471329583437 159.05135135131422,239.51337662703008 158.75945945945568,239.4160499642312 158.24864864873234,239.09973829850787 158.07837837841362,239.0510749637906 157.9567567567574,238.95374829298817 157.71351351344492,238.88075328883133 157.08108108106535,238.46711491417955 156.54594594601076,238.00481316572404 156.13243243237957,237.7614964408276 155.79189189185854,237.63983807442128 155.5,237.44518468287424 155.20810810814146,237.3235263096867 154.91621621628292,237.10454123147065 154.57567567564547,237.00721452734433 154.1621621621307,236.9098878215009 153.79729729739483,236.76389775969437 153.6756756756222,236.69090272730682 153.55405405396596,236.64223937189672 153.21351351344492,236.71523440483725 153.06756756757386,236.59357601599186 152.75135135138407,236.52058098153793 152.41081081086304,236.56924433793756 152.09459459455684,236.4962493031053 151.94864864868578,236.37459090960328 151.65675675682724,236.30159587220987 151.34054054052103,236.13127411477035 151.07297297299374,235.42565535067115 150.7324324324727,235.30399693417712 150.56216216215398,235.13367514673155 150.39189189195167,235.08501177787548 149.8810810809955,234.72003649867838 149.56486486492213,234.67137312632985 149.1756756757386,234.50105131982127 148.34864864870906,234.476719632803 148.12972972984426,234.5497146936541 147.3513513513608,234.72003649867838 147.15675675671082,234.81736324212397 146.9864864865085,234.84169492765795 146.8162162161898,234.91468998385244 146.57297297299374,234.72003649867838 146.30540540546644,234.30639782047365 145.89189189195167,234.5497146936541 145.59999999997672,234.69570481259143 145.2108108109096,234.72003649867838 144.65135135140736,234.86602661319193 144.55405405408237,234.84169492765795 144.48108108108863,234.74436818467802 144.33513513521757,234.79303155641537 143.97027027024888,235.15800683092675 143.80000000004657,235.59597712932737 143.84864864859264,235.79063058443717 143.99459459458012,236.08261075455812 144.18918918911368,236.1556057947164 144.50540540541988,236.1556057947164 144.9918918919284,236.22860083394335 145.13783783779945,236.17993747454602 145.1621621621307,236.03394739390933 145.04054054047447,235.88795730948914 144.77297297294717,235.91228899048292 144.6270270270761,235.86362562834984 144.3108108107699,235.5716454469657 144.0918918919051,235.49865039932774 143.92162162158638,235.52298208192224 143.2891891892068,235.8149622658384 142.632432432496,236.03394739390933 142.43783783796243,236.13127411477035 142.02432432444766,236.61790769401705 141.85405405401252,236.73956608228036 141.70810810814146,236.88555614478537 141.7324324324727,237.3478579845687 141.2945945946267,237.7614964408276 141.09999999997672,237.78582811378874 140.929729729658,237.7614964408276 140.75945945945568,237.8831548045273 140.20000000006985,238.44278324421612 139.68918918911368,238.7104316088371 139.2756756755989,239.12406996570644 138.93513513507787,239.63503495318582 138.64324324321933,239.92701492537162 138.44864864856936,240.02434157941025 137.9864864865085,240.51097482463229 137.59729729732499,241.09493466388085 137.47567567566875,241.26525627227966 137.13513513514772,241.5815678173385 137.0135135134915,241.7518894111272 136.84324324328918,241.8492160339083 136.47837837832049,242.3115174692939 136.28378378378693,242.40884408241254 135.8945945946034,243.09013032799703 135.70000000006985,243.16312527799164 135.4081081080949,243.43077342005563 135.28648648655508,243.57676331044058 134.72702702705283,244.13639118871652 134.6054054053966,244.30671270593302 134.0702702702256,244.62302408154937 133.8513513513608,244.720350655145 133.7054054053733,244.84200886977487 133.535135135171,244.9393354395579 133.41351351351477,245.10965693273465 133.0,245.4746315437369" stroke="#4DD2FF" stroke-dasharray="none" stroke-linecap="round" stroke-linejoin="round" stroke-width="0.5"><title>2026-06-11 10.2km</title><desc>9223370255717407907</desc></polyline></svg>