<?xml version="1.0" encoding="utf-8" ?>
<svg baseProfile="full" height="300mm" version="1.1" viewBox="0,0,200,300" width="200mm" xmlns="http://www.w3.org/2000/svg" xmlns:ev="http://www.w3.org/2001/xml-events" xmlns:xlink="http://www.w3.org/1999/xlink"><defs /><rect fill="#222222" height="300" width="200" x="0" y="0" /><text fill="#FFFFFF" style="font-size:12px; font-family:Arial; font-weight:bold;" x="10" y="20">Over 10km Runs</text><text fill="#FFFFFF" style="font-size:4px; font-family:Arial" x="10" y="280">Runner</text><text fill="#FFFFFF" style="font-size:9px; font-family:Arial" x="10" y="290">Yanfu</text><text fill="#FFFFFF" style="font-size:4px; font-family:Arial" x="65" y="280">SPECIAL TRACKS</text><rect fill="yellow" height="2.6" width="2.6" x="65" y="283" /><text fill="#FFFFFF" style="font-size:3px; font-family:Arial" x="70" y="285.5">Over 20.0 km</text><rect fill="red" height="2.6" width="2.6" x="65" y="287" /><text fill="#FFFFFF" style="font-size:3px; font-family:Arial" x="70" y="289.5">Over 40.0 km</text><text fill="#FFFFFF" style="font-size:4px; font-family:Arial" x="120" y="280">STATISTICS</text><text fill="#FFFFFF" style="font-size:3px; font-family:Arial" x="120" y="285">Number: 4</text><text fill="#FFFFFF" style="font-size:3px; font-family:Arial" x="120" y="290">Weekly: 2.0</text><text fill="#FFFFFF" style="font-size:3px; font-family:Arial" x="141" y="285">Total: 40.5 km</text><text fill="#FFFFFF" style="font-size:3px; font-family:Arial" x="141" y="290">Avg: 10.1 km</text><text fill="#FFFFFF" style="font-size:3px; font-family:Arial" x="167" y="285">Min: 10.1 km</text><text fill="#FFFFFF" style="font-size:3px; font-family:Arial" x="167" y="290">Max: 10.2 km</text><polyline fill="none" opacity="1" points="14.5,94.25787772500189 15.14480667177122,93.24430785898585 15.052691432880238,91.92359539528843 15.329037149320357,91.21716769895284 15.236921910545789,90.080740389938 15.697498104651459,89.58931230887538 15.789613343309611,88.39145622064825 15.789613343309611,87.34717126312898 16.00454890076071,86.24145761341788 16.987111448077485,85.07431524322601 17.10993176640477,84.82860103581334 17.202047005295753,84.42931543092709 17.26345716440119,83.63074415479787 17.877558756619692,83.0778870654176 18.522365428274497,81.88002989254892 19.197877179598436,80.68217251996975 19.996209249366075,80.16002950014081 21.009476876351982,79.607172143762 22.606141015770845,78.93145753908902 24.04927975742612,78.13288565177936 25.001137225190178,77.73359967471333 25.6766489763977,77.27288505824981 27.304018195718527,76.3514557366143 28.19446550414432,75.6757408255362 29.207733131130226,75.00002585083712 29.975360121228732,74.2628821694525 31.019332827883773,73.18788083165418 31.63343441998586,72.48145129327895 32.155420773196965,71.92859334510285 33.07657316152472,70.8843059935025 33.38362395751756,70.45430527505232 34.181956027285196,69.22573165153153 35.47156937071122,67.96644346881658 35.901440485264175,67.62858562602196 36.54624715691898,67.22929906396894 37.283169067581184,66.52286893810378 38.173616376006976,66.0314392442815 38.296436694450676,65.26358028000686 38.9719484456582,64.74143613735214 39.77028051542584,64.25000632111914 40.87566338130273,64.21929195651319 41.27482941618655,64.25000632111914 42.62585291895084,64.25000632111914 43.301364670158364,64.00429140037159 43.761940864264034,64.09643449663417 44.130401819595136,64.58786432340275 44.62168309325352,64.68000741221476 45.14366944658104,64.64929304935504 45.66565579990856,64.46500686986838 46.433282789890654,64.28072068566689 47.90712661098223,64.6185786864371 48.82827899930999,64.80286486196565 50.05648218351416,64.6185786864371 49.56520090973936,64.83357922412688 51.83737680059858,65.69358131010085 53.096285064471886,66.0314392442815 54.017437452683225,66.46144022827502 55.67551175132394,67.32144211872946 56.13608794531319,67.72072867566021 56.688779378309846,68.24287260108395 57.33358604996465,68.91858821274946 57.671341925743036,69.28716033772798 57.88627748284489,69.71716112620197 58.71531463228166,70.27001924492652 59.36012130405288,71.16073501313804 60.03563305537682,71.89787901344243 60.58832448825706,72.14359366340796 61.69370735413395,70.85359165730188 62.30780894623604,69.90144717053045 62.860500379116274,68.79573083360447 63.59742228954565,67.260013415711 63.99658832442947,65.93929617293179 64.3957543594297,64.58786432340275 64.5492797573097,63.482147165806964 64.51857467775699,62.929288522922434 64.51857467775699,61.73142798332265 64.42645943898242,60.13428028521594 64.11940864287317,59.30499191652052 64.36504927964415,58.229988332488574 64.82562547386624,57.40069974295329 66.05382865807042,57.154984586755745 67.34344200149644,57.36998534889426 69.24715693702456,57.984273204929195 70.10689916613046,58.38356028299313 71.3043972706655,58.721418562403414 71.79567854432389,59.36642068787478 73.26952236541547,60.34928095759824 74.62054586806335,61.39356984623009 75.17323730106,61.97714298218489 76.15579984837677,63.605004636221565 76.12509476882406,64.83357922412688 75.72592873394024,65.47858079831349 75.78733889316209,65.81643874262227 75.9408642911585,66.49215458327672 76.40144048526417,67.32144211872946 76.83131159970071,68.3043012957205 76.70849128125701,69.16430296486942 76.61637604236603,70.0857332101441 77.4454131918028,70.7921629845514 78.8271417740034,71.46787835581927 79.34912812733091,71.74430735298665 80.17816527676769,72.38930830487516 81.95905989396852,72.88073756266385 82.57316148595419,73.09573785227258 83.55572403338738,73.3414524612017 84.4768764214823,73.5257384122815 85.49014404858463,73.89431030035485 86.90257771045435,74.6928826594376 87.51667930255644,75.21502607694129 88.03866565588396,75.43002629664261 88.56065200909507,75.79859808686888 89.17475360131357,76.8121704121586 89.42039423808455,77.79502828797558 89.72744503407739,78.13288565177936 90.49507202429231,78.80860033148201 91.60045489005279,79.63788644241868 92.03032600448932,80.09860090713482 92.55231235781685,80.43645816243952 93.78051554202102,81.45002983300947 94.27179681579582,82.18717277643736 94.70166793034878,82.4021727872896 94.7323730099015,82.00288704765262 95.5,81.1736012098263 94.51743745268323,80.12931520375423 93.53487490525004,79.30002914951183 92.98218347225338,78.93145753908902 92.58301743748598,78.50145730306394 91.53904473094735,77.48788521630922 91.20128885516897,77.11931351287058 90.55648218351416,76.72002747951774 90.43366186507046,76.29002711095382 89.69673995452467,75.18431175936712 89.66603487497196,74.87716857588384 88.40712661109865,74.14002488180995 87.42456406378187,73.18788083165418 86.44200151623227,72.48145129327895 85.79719484457746,71.80573601758806 84.4768764214823,71.68287868791958 84.01630022749305,71.68287868791958 82.8495072023943,71.77502168528736 82.05117513262667,71.65216435515322 80.3316906747641,71.00716333690798 79.2263078087708,70.91502032952849 78.9499620924471,70.45430527505232 78.39727065956686,68.94930255727377 78.67361637612339,68.21215825359104 79.13419257011265,66.95286989258602 79.0420773314545,65.57072387560038 79.0420773314545,64.34214941423852 78.7043214555597,63.32857532479102 78.0595147840213,62.46857295453083 76.67778620158788,61.27071233780589 75.54169825627469,60.379995338909794 74.28278999240138,59.70427892089356 73.69939347996842,59.12070559937274 72.90106141008437,58.47570345172426 71.94920394232031,58.229988332488574 70.87452615622897,57.646414890594315 70.5674753600033,57.40069974295329 70.22971948434133,56.93998381821439 69.15504169824999,56.66355424915673 68.17247915093321,56.41783906763885 67.37414708116557,56.20283827686217 66.45299469283782,55.89569427882088 65.19408642919734,55.89569427882088 63.81235784688033,55.8342654776643 62.79909021977801,55.7421222749399 62.215693707345054,55.86497987835901 61.540181956021115,56.018551879620645 61.23313115991186,56.50998226169031 61.26383623969741,57.12427019170718 61.44806671713013,57.7385580688715 61.755117513239384,58.29141711309785 62.30780894623604,58.9978480518912 62.67626990145072,59.458563843916636 62.95261561789084,60.379995338909794 62.98332069744356,61.23999796039425 62.860500379116274,61.91571423324058 63.07543593633454,63.1135747419321 62.98332069744356,64.68000741221476 62.52274450333789,66.09286795783555 61.9086429112358,67.59787127590971 60.86467020458076,68.4271586832474 59.91281273693312,68.55001606885344 58.8995451098308,68.02787216578145 58.16262319940142,67.59787127590971 57.73275208484847,67.38287082128227 56.8730098559754,66.58429764752509 56.19749810465146,66.24643973953789 55.521986353211105,65.90858181548538 54.692949204007164,65.54000951664057 54.293783169123344,65.47858079831349 53.77179681567941,65.23286591976648 53.1269901440246,65.11000847734977 52.51288855203893,64.46500686986838 51.74526156170759,64.46500686986838 51.407505686045624,64.46500686986838 49.53449583007023,63.082860372494906 49.19673995452467,62.71428792795632 48.30629264598247,62.03857173054712 46.86315390444361,61.63928485661745 46.0955269143451,61.94642860785825 45.29719484457746,62.43785858218325 44.28392721770797,62.745002299081534 43.70053070492577,62.83714541158406 42.81008339649998,62.40714420977747 42.16527672484517,62.622144813940395 41.42835481418297,62.71428792795632 40.9677786200773,62.96000289305812 40.75284306285903,63.420718429784756 40.87566338130273,64.00429140037159 41.18271417741198,64.25000632111914 42.41091736161616,64.46500686986838 42.59514783928171,64.21929195651319 41.88893100828864,63.91214830294484 40.72213798330631,63.85071957058972 39.12547384388745,64.1271488618222 38.32714177411981,64.86429358605528 37.95868081878871,65.87786745803896 37.46739954513032,66.2771540954709 36.42342683847528,66.92215553956339 35.93214556481689,67.260013415711 34.51971190283075,68.5193017226411 33.50644427596126,69.59430376067758 32.89234268385917,70.45430527505232 32.24753601208795,71.2221636827453 31.78695981798228,71.62145002221223 31.26497346465476,72.29716531530721 30.804397270665504,72.88073756266385 29.545489006792195,73.89431030035485 28.25587566336617,75.21502607694129 27.304018195718527,76.0135982890497 25.707354056066833,76.84288472292246 24.724791508633643,77.54931383172516 24.018574677756988,77.88717120699584 23.06671720999293,78.31717147980817 22.145564821898006,78.59360021306202 21.132297194795683,79.17717194813304" stroke="#4DD2FF" stroke-dasharray="none" stroke-linecap="round" stroke-linejoin="round" stroke-width="0.5"><title>2026-06-20 10.1km</title><desc>9223370254938036107</desc></polyline><polyline fill="none" opacity="1" points="104.5,97.14882787357783 104.85617442289367,96.3175071743899 105.33107365330216,95.63463652587961 105.68724807619583,95.54556643636897 106.07310370088089,95.12990600359626 106.19182850851212,93.82354448217666 106.28087211423554,93.40788394672563 106.78545254666824,92.78439309715759 107.23067057516892,91.3889609934995 107.11194576753769,90.1419788771891 107.79461341141723,89.13251700054388 107.73525100760162,88.41995558765484 107.88365701714065,87.38080339651788 107.91333821904846,86.43072125740582 107.91333821904846,85.83691985462792 107.97270062286407,84.82745735358912 108.09142543049529,83.01636249921285 108.6256870648358,81.68030861573061 108.98186148761306,81.41309780819574 109.33803591062315,80.52239504241152 109.54580432374496,79.98797332809772 110.55496518861037,79.24572087882552 111.32667643809691,77.82059595402097 112.57328691822477,76.5736114049214 113.01850494672544,76.27671028877376 114.62128984963056,75.56414755823789 115.68981311819516,75.0891056972323 116.72865518496837,74.61406380380504 118.3611212897813,73.66397991921986 118.86570172209758,73.42645892774453 119.81550018314738,72.74358603195287 120.29039941355586,72.38730449439026 121.4479662879603,71.52629070315743 122.30872114317026,70.69496694114059 123.25851960410364,69.65581209847005 124.14895566145424,68.94324868777767 125.00971051654778,67.81502313760575 125.60333455482032,66.83524816861609 126.25632099667564,65.97423368756426 126.6421766213607,65.70702227513539 126.99835104425438,65.38043053483125 127.38420666893944,64.96476829756284 128.42304873582907,64.40065522136865 129.1947599853156,63.42087976937182 129.52125320618507,63.42087976937182 130.1148772443412,62.88645673694555 129.99615243670996,62.381723835191224 130.26328325388022,61.936371244315524 130.82722609012853,61.372257921262644 131.6879809453385,61.04566597635858 132.8158666177187,61.04566597635858 133.97343349200673,61.07535615377128 135.04195676068775,61.01597579871304 135.9323928176891,61.46132844896056 136.55569805786945,61.46132844896056 138.01007695123553,61.19411686231615 138.8411506045377,61.22380703914678 139.7315866618883,61.58008915086975 140.29552949790377,61.728540025418624 141.18596555502154,61.60977932601236 140.9781971417833,61.46132844896056 141.66086478566285,61.401948097278364 141.9576768046245,61.60977932601236 142.81843165983446,62.411414006957784 143.29333089035936,62.708315716998186 144.30249175510835,62.85676656733267 145.0742030045949,63.15366825828096 145.90527665801346,63.53964043757878 146.94411872467026,64.0740634194226 147.71582997427322,64.72724700800609 148.04232319514267,65.38043053483125 148.84371564676985,66.00392384384759 149.49670208862517,66.71648755687056 150.20905093441252,67.4290511966683 150.50586295337416,67.96347387833521 151.54470502014738,68.76510782365222 152.93972150958143,67.63688224449288 153.50366434594616,66.44927617313806 154.03792598017026,65.46950101095717 154.60186881641857,64.43034538446227 154.95804323919583,63.21304859506199 155.46262367162853,61.312877568707336 155.72975448868237,60.39248204033356 155.7891168926144,59.590847125451546 155.61102968116757,58.22509853774682 155.55166727735195,57.77974567905767 155.37358006590512,57.304702598252334 155.52198607544415,56.50306732527679 155.3438988639973,55.49360055278521 155.58134847914334,54.84041609207634 156.3827409306541,54.27630218991544 157.7480762184132,54.42475322127575 158.8165994869778,54.63258465984836 159.49926713074092,54.959176907723304 160.83492121647578,55.40452994819498 161.9628068889724,55.7014319592854 162.20025650411844,56.14678495185217 163.71399780130014,57.245322210830636 164.78252106998116,57.86881625314709 165.85104433854576,59.17518454033416 166.5633931843331,60.18465077504516 167.00861121283378,61.19411686231615 166.83052400138695,61.55039897561073 167.038292414858,63.005217414407525 167.45382924145088,64.43034538446227 167.5428728471743,65.17259941931115 167.42414803942665,65.88516321789939 167.5725540490821,66.50865648151375 167.72096005862113,66.92431862605736 168.7598021251615,67.78533298906405 169.73928178823553,68.05254432134097 170.24386222055182,68.46820637321798 170.89684866240714,69.06200926128076 171.6685599120101,69.47767125268001 173.12293880537618,69.6855022390373 173.47911322826985,69.77457265980775 174.63668010255788,70.19023460848257 175.70520337112248,70.6058965321863 177.01117625506595,71.14031896891538 177.60480029310565,71.6450512324227 178.22810553316958,72.00133280811133 179.08886038826313,73.09986755118007 179.4450348111568,73.75305028888397 180.06834005133715,74.3765428448678 180.48387687793002,74.79220451763831 180.98845731036272,75.29693651542766 181.5227189445868,75.74228824774036 182.413155001821,76.45485095999902 183.57072187610902,77.46431467711227 184.40179552941117,78.44408814457711 184.579882740858,78.74098916811636 184.90637596184388,78.44408814457711 184.90637596184388,78.11749700416112 185.4703187980922,77.31586413970217 184.668926346465,76.54392129392363 183.86753389518708,76.06887949991506 182.82869182841387,75.05941557994811 182.14602418453433,74.49530332529685 181.5227189445868,73.66397991921986 180.84005130070727,73.36707867862424 180.54323928174563,73.15924780268688 180.3651520702988,72.29823410714744 179.8012092341669,71.67474136449164 179.17790399398655,70.90279789100168 178.58427995606326,70.33868529839674 178.02033711981494,69.35891068627825 177.18926346651278,68.88386840024032 176.92213264934253,68.58696695498656 176.47691462060902,68.17130491015268 174.96317332354374,68.17130491015268 174.2508244777564,68.4088260816643 172.97453279583715,68.23068520374363 171.40142909483984,67.96347387833521 170.6593990472611,67.48843149666209 170.06577500910498,66.98369893041672 169.1159765480552,66.50865648151375 169.0862953462638,65.64764195989119 169.23470135580283,65.17259941931115 169.5908757786965,63.89592243003426 169.79864419193473,63.33180926681962 169.7096005862113,62.44110417854972 169.41278856713325,61.01597579871304 168.87852693290915,59.798678408551496 168.1068156833062,58.87828267860459 167.6615976546891,58.462620050646365 166.47434957849327,57.66098491195589 165.96976914606057,57.33439279173035 164.72315866604913,56.413996733608656 163.83272260893136,55.67174175864784 162.4377061193809,55.0482475181343 161.75503847550135,54.63258465984836 161.10205203364603,54.12785115535371 160.09289116889704,53.74187845061533 158.9650054964004,53.385595934756566 157.77775742020458,52.999623188516125 156.7685965554556,53.059003612434026 155.46262367162853,52.940242764074355 153.65207035536878,52.85117212648038 152.88035910576582,53.02931340050418 152.46482227917295,53.83094907668419 152.52418468287215,54.721655274392106 153.47398314392194,56.11709475325188 153.85983876872342,57.39377317839535 153.681751557393,57.809435870614834 154.1863319897093,58.52200042759068 154.21601319150068,59.44239620503504 154.2456943935249,60.21434095612494 154.21601319150068,61.81761054857634 153.56302674964536,63.42087976937182 153.2662147305673,63.925612595281564 152.58354708680417,64.81631749257213 151.69311102957,65.23197973862989 150.95108098199125,65.14290925941896 150.38713814574294,64.93507813679753 149.34829607908614,64.28189456788823 148.45786002185196,63.74747160210973 147.65646757057402,62.97552724526031 146.94411872467026,62.67862554662861 146.26145108079072,62.381723835191224 144.9851593989879,61.87699089664966 144.27281055331696,61.728540025418624 143.26364968856797,61.55039897561073 142.4325760351494,61.312877568707336 141.63118358363863,60.27372131810989 140.82979113224428,59.917439138982445 139.79094906558748,59.08611398318317 139.04891901789233,58.67045136773959 138.27720776828937,58.462620050646365 137.44613411498722,58.58138080406934 137.14932209590916,59.115804168977775 136.55569805786945,59.44239620503504 135.60589959681965,59.590847125451546 134.65610113588627,59.56115694157779 133.52821546350606,59.62053730909247 132.93459142534994,59.88774895662209 132.66746060817968,60.60031329933554 133.08299743488897,61.07535615377128 133.64694027102087,61.10504633106757 134.240564309177,61.19411686231615 133.58757786720525,60.897215087199584 132.57841700245626,60.68938383704517 131.33180652256124,60.98628562106751 130.88658849382773,61.10504633106757 130.47105166723486,61.69884985068347 130.1148772443412,62.470794350025244 129.52125320618507,63.09428792109247 128.45272993773688,63.777161767939106 127.20611945760902,64.66786668426357 126.34536460239906,65.52888132777298 125.48460974707268,66.50865648151375 125.12843532417901,67.04307923425222 124.44576768041588,67.63688224449288 123.64437522902153,68.6166570999776 122.39776474877726,69.98240363725927 121.3589226823533,70.93248802621383 120.73561744217295,71.40753017179668 119.87486258696299,72.12009332928574 118.92506412602961,72.6842057769536 117.64877244399395,73.51552930049365 116.9067423962988,73.9015009025461 115.71949432010297,74.43592308531515 114.44320263830014,75.05941557994811 113.96830340777524,75.20786616561236 112.36551850487012,75.86104870488634 111.94998167827725,76.21733006404247 110.91113961150404,77.31586413970217 110.02070355426986,78.29563762812177 109.81293514091522,79.06758027919568" stroke="#4DD2FF" stroke-dasharray="none" stroke-linecap="round" stroke-linejoin="round" stroke-width="0.5"><title>2026-06-18 10.1km</title><desc>9223370255108266507</desc></polyline><polyline fill="none" opacity="1" points="22.367686424404383,231.24338886863552 23.38986615673639,230.68566880183062 23.94741873804014,230.43779320281465 25.558126194984652,229.50825963099487 26.08470363286324,229.260383991641 27.230783938779496,228.42380364629207 28.71759082202334,227.3393474991317 29.739770554355346,226.44079799688188 30.390248565818183,225.66618626751006 30.607074569677934,225.35634155245498 31.226577437715605,224.86058998090448 32.46558317390736,223.5902264235774 33.2089866156457,222.31986264308216 33.82848948368337,221.7931263759383 34.045315487426706,221.54525047214702 34.60286806873046,220.67768474220065 35.346271510468796,220.0579948713421 36.43040152953472,219.3143669560668 36.98795411083847,218.72566146898316 37.855258126044646,218.22990944248158 38.47476099419873,216.89757570275106 39.58986615668982,216.52576159196906 40.85984703619033,216.5567461019964 41.820076481672004,216.49477708194172 42.68738049699459,216.49477708194172 43.55468451231718,216.9595447194297 44.85564053535927,217.02151373546803 45.722944550565444,216.7736376679968 46.032695984700695,216.64969963108888 46.3734225621447,216.64969963108888 48.169980879407376,217.20742078049807 49.347036328865215,217.1764362733229 50.028489483636804,216.9595447194297 50.369216061080806,217.4243123269407 51.17456978955306,217.70317287713988 51.917973231407814,218.13695593376178 53.43575525819324,218.47778545995243 54.426959846983664,219.0045219688327 55.29426386230625,219.43830494728172 55.82084130018484,219.99602588132257 56.378393881372176,220.7396537263412 57.27667304011993,221.76214188837912 58.11300191201735,222.56773852021433 58.88738049706444,223.28038161963923 59.847609942546114,223.7761332996306 60.59101338428445,224.3648383753025 61.11759082216304,223.96204017073615 61.89196940721013,223.46628850366687 62.294646271388046,222.38183161307825 62.387571701663546,221.85509535047458 63.06902485655155,220.39882430696161 63.71950286801439,218.50876996153966 64.02925430203322,217.39332782075508 64.24608030589297,216.18493197363568 64.30803059274331,214.38783008331666 64.09120458888356,212.46678963664453 63.96730401518289,211.0415012325393 64.15315487561747,210.29787238815334 64.83460803050548,209.3373516839929 65.70191204582807,209.3373516839929 66.63116634788457,209.52325892698718 67.62237093690783,209.6162125467672 69.41892925440334,210.328856924898 70.4720841300441,210.73165589012206 71.21548757166602,210.48377960646758 71.80401529627852,210.51476414239733 71.68011472269427,211.4133156259777 72.64034416817594,212.2189134126529 74.03422562137712,213.08648015925428 74.5608030592557,213.67518610629486 74.96347992355004,214.10896940511884 75.42810707457829,214.75964430428576 76.01663479930721,215.7821333130123 76.26443594647571,216.71166864980478 76.01663479930721,217.20742078049807 75.61395793501288,217.73415738204494 75.92370936903171,218.47778545995243 76.38833652005997,219.22141346131684 76.79101338423789,220.9565451667877 76.54321223706938,221.48328149493318 76.9458891012473,222.41281609801808 77.7202676864108,223.09447473095497 78.8353728489019,223.86908673582366 79.23804971319623,224.2409004686633 79.73365200764965,224.55074523144867 80.53900573612191,224.8915744550759 82.0877629063325,225.26338813541224 83.4506692159921,225.57323285436723 84.34894837473985,225.85209309012862 85.5879541109316,226.28587565763155 86.57915869972203,226.7816271315678 87.60133843205404,227.58722320420202 88.3137667303672,228.14494350965833 89.05717017210554,228.95053943054518 89.33594646269921,229.57022853946546 89.6147227534093,230.00401088420767 90.2032504780218,230.499762103369 90.60592734231614,231.05748218443478 90.94665391976014,231.49126444006106 91.78298279154114,232.172922217811 92.96003824099898,233.13343988661654 93.88929254305549,234.00100412324537 94.60172084136866,234.86856825603172 94.9114722753875,234.62069280009018 95.09732313582208,233.97001968801487 95.46902485657483,233.4432842687238 95.09732313582208,232.947533250961 93.85831739974674,232.14193777472246 93.3627151051769,231.64618666790193 92.52638623327948,230.96452884055907 92.1856596559519,230.56173100345768 91.72103250480723,229.84908862120938 90.9776290631853,229.19841508043464 90.54397705534939,229.07447725662496 90.1103250477463,228.02100566774607 89.21204588911496,226.87458052911097 88.37571701721754,226.19292225246318 87.91108986607287,225.69717073824722 87.47743785846978,225.32535708032083 86.26940726581961,224.8915744550759 85.95965583168436,224.58172970690066 84.96845124289393,224.20991599163972 83.38871892925818,224.20991599163972 82.76921606110409,224.08597808226477 82.39751434035134,223.9310556926066 81.00363288726658,223.62121090322034 79.91950286820065,223.21841265726835 78.80439770547673,222.56773852021433 78.61854684504215,222.2578936724458 78.55659655830823,220.7396537263412 78.8353728489019,219.74814991594758 79.08317399618682,219.06649096735055 79.0212237094529,218.60172346548643 79.05219885276165,217.05249824328348 78.77342256205156,215.9060713647632 77.87514340353664,214.54275267774938 76.9458891012473,213.67518610629486 75.7688336520223,212.83860395650845 74.93250478000846,212.28088246943662 73.56959847046528,211.32036202948075 72.91912045888603,210.79362495965324 71.71108986623585,210.42181053425884 71.12256214139052,210.17393424001057 70.75086042063776,210.14294970256742 70.25525812618434,209.67818162584445 70.1313575526001,209.3373516839929 68.98527724668384,208.8106144692283 68.14894837478641,208.56273811956635 67.06481835560407,208.15993903309572 65.7638623326784,208.15993903309572 64.89655831747223,208.00501630158396 63.5336520075798,208.00501630158396 62.263671128079295,208.0360008481657 61.675143403350376,208.25289267045446 61.02466539200395,208.8106144692283 60.99369024857879,209.70916616526665 61.644168260041624,210.63870228471933 62.44952198851388,211.94005265051965 62.6973231357988,212.46678963664453 62.666347992257215,212.90057300799526 62.9451242829673,214.10896940511884 62.976099426392466,214.48078364034882 62.976099426392466,214.88358237367356 62.91414913942572,216.1229629503796 62.8521988526918,217.48628133902093 62.01586998091079,219.3763359519653 61.83001912035979,219.74814991594758 60.80783938802779,220.70866923441645 59.971510516363196,220.8016227100743 58.856405353639275,220.33685531979427 57.6483747609891,219.59322743327357 57.18374760984443,219.15944446413778 56.285468451096676,218.632707966608 55.72791586990934,218.38483195437584 54.79866156773642,217.98203341645421 54.24110898654908,217.67218837200198 53.65258126182016,217.51726584485732 52.94015296350699,217.2384052874986 52.32065009546932,216.99052922747796 51.329445506678894,216.99052922747796 50.740917781949975,216.83560668566497 49.873613766627386,216.5567461019964 49.16118546843063,215.56524171726778 48.634608030552045,214.88358237367356 48.04608030593954,214.5117681591073 47.08585086034145,214.3568455640925 46.12562141485978,214.20192296575988 45.19636711280327,214.60472171450965 44.20516252378002,214.94555140758166 43.740535372751765,214.88358237367356 43.05908221786376,214.8216133391834 42.28470363281667,214.79062882182188 41.54130019119475,215.00752044090768 41.231548757175915,214.85259785648668 40.76692160603125,215.1004739899654 40.39521988516208,215.81311782618286 40.67399617575575,216.40182355087018 41.72715105151292,216.5877306117909 42.253728489391506,216.46379257173976 41.510325047769584,216.21591648506 40.95277246646583,215.9060713647632 39.68279158696532,216.2469009963679 38.81548757152632,216.46379257173976 38.47476099419873,216.86659119429532 37.76233269588556,218.01301792025333 37.328680688282475,218.50876996153966 36.74015296366997,218.60172346548643 35.99674952204805,219.34535145416157 35.03652007644996,219.84110340394545 34.417017208295874,220.4917777865776 33.85946462710854,221.20442109066062 33.39483747596387,221.73115740070352 32.527533460757695,222.90856783738127 31.72217973228544,223.9310556926066 31.381453154841438,224.20991599163972 30.761950286570936,224.7676365574589 29.863671127939597,225.60421732557006 29.491969407186843,225.91406202991493 28.903441682457924,226.56473586591892 28.221988527686335,227.18442517908989 27.633460802957416,227.58722320420202 26.33250478003174,228.45478810521308 25.558126194984652,229.1054617128102 23.823518164339475,230.15893314382993 22.336711280979216,230.90255994402105 20.849904397618957,231.36732665536692 20.19942638615612,231.7081555580953 18.929445506539196,232.2968599886517 18.186042064917274,232.947533250961 17.318738049594685,233.69115976494504 16.575334607856348,234.80659939278848 16.358508604113013,235.1784125639242 15.92485659639351,235.7051478571375 15.39827915863134,236.72763390513137 14.995602294337004,237.84307306585833 14.778776290477253,239.60918471956393 14.747801147168502,240.53871699620504 14.747801147168502,241.59218676574528 15.026577437878586,241.9020307865576" stroke="#4DD2FF" stroke-dasharray="none" stroke-linecap="round" stroke-linejoin="round" stroke-width="0.5"><title>2026-06-16 10.1km</title><desc>9223370255286294807</desc></polyline><polyline fill="none" opacity="1" points="113.63766730413772,230.2983638587175 114.78374761005398,229.80261264787987 115.86787762923632,229.08997022296535 117.29273422574624,228.06748314294964 118.65564053552225,227.1379493084969 119.9875717018731,225.8366017396329 121.28852772468235,224.4423005132703 122.58948374772444,223.04799901804654 122.99216061201878,222.18043350748485 123.79751434049103,221.37483686883934 124.54091778211296,220.7551470855833 125.59407265787013,219.67068983713398 126.08967495232355,219.4537983679329 126.92600382410455,218.40032542479457 127.51453154883347,218.3073719224194 127.88623326958623,217.78063538641436 127.85525812627748,217.16094529489055 128.78451242833398,216.35534809628734 130.5500956022879,216.16944103775313 131.47934990457725,216.16944103775313 132.93518164439593,216.3243635869003 133.70956022955943,216.6342086752411 135.47514340351336,216.54125515010674 136.06367112824228,216.35534809628734 137.11682600388303,216.69617769127944 137.95315487578046,216.7271621990949 139.0992351816967,216.75814670685213 140.09043977060355,217.16094529489055 140.5550669216318,217.3158678226755 141.3294455066789,217.47079034725903 142.38260038243607,217.93555790098617 142.78527724684682,218.05949591018725 143.993307839497,218.6172169256024 145.32523900584783,219.14395340060582 145.85181644361,219.7326588271535 146.192543021054,219.91856579401065 146.4713193117641,220.4762866658857 146.9669216061011,220.78613157605287 147.3076481836615,221.18892993940972 147.67934990441427,221.77763519942528 148.98030592733994,222.9240610943525 150.1263862332562,223.60571964841802 151.5202676865738,223.6676886046771 151.98489483748563,223.04799901804654 152.6043977056397,221.1579454507446 153.40975143399555,219.422813871759 153.93632887199055,217.71866637963103 154.33900573616847,216.16944103775313 154.3080305927433,215.54975080792792 154.33900573616847,213.5977262360393 154.43193116644397,213.22591197205475 154.1531548757339,211.83160831115674 154.0602294455748,211.27388677129056 153.9673040152993,210.84010332165053 154.12217973230872,210.18942809820874 154.46290630986914,209.38383012113627 155.36118546838406,208.9810310988105 156.69311663485132,209.2289074229193 158.42772466538008,209.6007218930754 160.06940726586618,210.31336624058895 161.09158699808177,210.53025798447197 161.52523900580127,211.05699504975928 162.6093690248672,211.9245618969435 163.84837476094253,212.57523696380667 164.4059273423627,213.07098935637623 165.27323135756887,214.09347855835222 165.76883365190588,215.0539985857322 166.26443594659213,215.9525494633126 166.32638623332605,216.4792861327296 165.95468451234046,217.50177485175664 166.2024856597418,218.33835642324993 166.85296367108822,219.70167433226015 166.91491395793855,220.38333319022786 166.91491395793855,221.1579454507446 167.3795411089668,222.2114179918426 168.2468451242894,223.14095245947829 169.08317399618682,223.6676886046771 169.36195028678048,223.9465489012655 170.56998087954707,224.5352539367159 172.335564053501,225.09297445241828 173.63652007642668,225.46478810557164 174.37992351816501,225.46478810557164 174.93747609958518,225.65069492498878 176.11453154869378,226.33235322206747 176.9508604207076,226.7971202059416 177.60133843217045,227.23090269736713 178.53059273422696,227.88157638558187 179.30497131927405,228.9350479474524 179.64569789671805,229.58572148252279 180.04837476101238,230.0195038067759 180.32715105160605,230.32934830820886 181.53518164437264,231.56872618134366 182.40248565969523,232.34333724429598 183.20783938816749,233.17991709936177 184.44684512435924,234.2953567558434 184.88049713196233,234.4192944848328 184.78757170168683,234.35732562060002 185.19024856598116,233.48976146557834 185.5,233.1489326620358 185.03537284885533,232.49825944699114 183.455640535336,231.44478840357624 182.40248565969523,230.4532861051266 182.18565965583548,230.20541050925385 181.34933078393806,229.05898576817708 180.2961759082973,227.97452976490604 179.5217973231338,227.0140114549431 178.59254302096087,225.96053961338475 177.84913957933895,225.40281916467939 177.07476099429186,224.7521452534711 176.20745697896928,224.07048680749722 174.9994263863191,223.60571964841802 174.34894837473985,223.450797255442 173.66749521996826,223.6676886046771 172.55239005736075,223.57473517005565 171.22045889112633,223.3578438179684 170.50803059281316,223.0789834986208 169.11414913961198,222.27338696003426 168.61854684515856,220.7551470855833 168.80439770559315,219.887581299874 169.05219885276165,218.8341084199492 169.08317399618682,217.12996078887954 168.89732313575223,215.797626906191 167.87514340342022,214.06249403912807 166.91491395793855,213.28788101737155 166.29541108978447,212.7301595901372 165.98565965588205,212.48228338646004 165.45908221800346,212.14145359245595 164.43690248567145,211.55274754669517 163.22887189290486,210.59222705295542 162.57839388155844,210.1584435623372 161.40133843221702,209.7866291209357 161.15353728504851,209.2908765025786 160.6269598470535,209.2908765025786 160.2862332696095,208.88807747507235 158.98527724668384,208.36134025128558 157.4674952198984,208.02051026246045 156.32141491386574,207.74164935050067 154.8346080306219,207.67968025745358 154.46290630986914,207.71066480403533 152.48049713205546,207.55574206984602 151.6751434034668,207.74164935050067 151.0866156788543,208.39232479495695 151.05564053542912,209.25989196286537 152.04684512433596,210.71616518840892 152.54244741878938,211.6457011360908 152.75927342264913,212.2963762280997 152.48049713205546,212.7611441150657 153.0380497132428,213.5977262360393 153.00707456981763,214.00052500050515 152.94512428308371,214.40332374244463 152.82122370938305,215.39482824219158 152.85219885280821,216.69617769127944 152.66634799249005,217.25389881199226 152.48049713205546,218.05949591018725 152.13977055461146,218.71017042401945 151.7370936902007,219.39182937552687 150.9007648184197,220.166441742389 150.3122370938072,220.38333319022786 149.5378585086437,220.32136420579627 148.6705544933211,219.85659680562094 148.20592734229285,219.63970534189139 146.719120459049,218.52426342607941 145.75889101345092,218.05949591018725 145.015487571829,217.65669737226563 144.21013384324033,217.25389881199226 143.2189292544499,216.94405375031056 142.90917782019824,216.78913121443475 142.28967495227698,216.7271621990949 141.45334608037956,216.69617769127944 140.86481835576706,216.44830162380822 140.09043977060355,216.13845652755117 139.31606118555646,215.08498310059076 138.88240917795338,214.80612246179953 137.8292543021962,214.27938567037927 136.2804971319856,214.03150951990392 135.0105162524851,214.34135470667388 134.54588910145685,214.4962772949948 134.01931166357826,214.34135470667388 133.15200764825568,214.12446307728533 132.2847036330495,214.34135470667388 131.44837476103567,214.4962772949948 131.169598470442,214.43430826009717 130.488145315554,215.45679726882372 130.7359464627225,216.0764875066816 131.38642447430175,216.16944103775313 132.1917782026576,216.20042554778047 132.06787762907334,215.82861141790636 131.54130019131117,215.797626906191 130.85984703642316,215.33285921491915 129.83766730409116,215.73565788241103 128.75353728502523,216.13845652755117 128.0101338432869,216.91306924331002 127.85525812627748,217.68768187606474 127.04990439780522,218.24540292017628 126.61625239020213,218.36934092402225 125.25334608030971,219.422813871759 124.29311663482804,220.60022463148925 123.67361376679037,221.09597647294868 122.58948374772444,222.4592938615824 122.00095602299552,223.0789834986208 121.62925430224277,223.41981277638115 120.9168260039296,224.13245575973997 120.17342256230768,225.09297445241828 119.64684512442909,225.61971045547398 118.7795411091065,226.54924448492238 117.81931166362483,227.07598038198194 117.4166347993305,227.35484054719564 116.7351816445589,228.03649868367938 116.05372848955449,228.28437435382511 114.78374761005398,229.27587694930844 113.45181644370314,229.9265504538198 112.55353728495538,230.36033275764203 110.81892925442662,231.13494394987356 109.08432122378144,231.9095550592756 107.53556405368727,233.1179482245352 106.51338432135526,234.01649685780285 106.01778202678543,235.03898309811484 105.73900573619176,235.4727650958812 105.24340344185475,236.3713134372956 105.05755258142017,236.86706419865368 104.80975143413525,237.88955003704177 104.77877629071008,238.69514483847888 104.71682600397617,239.99649009807035 104.53097514354158,240.89503787911963 104.77877629071008,241.66964794596424" stroke="#4DD2FF" stroke-dasharray="none" stroke-linecap="round" stroke-linejoin="round" stroke-width="0.5"><title>2026-06-11 10.2km</title><desc>9223370255717407907</desc></polyline></svg>