<?xml version="1.0" encoding="utf-8" ?>
<svg baseProfile="full" height="300mm" version="1.1" viewBox="0,0,200,300" width="200mm" xmlns="http://www.w3.org/2000/svg" xmlns:ev="http://www.w3.org/2001/xml-events" xmlns:xlink="http://www.w3.org/1999/xlink"><defs /><rect fill="#222222" height="300" width="200" x="0" y="0" /><text fill="#FFFFFF" style="font-size:12px; font-family:Arial; font-weight:bold;" x="10" y="20">Over 10km Runs</text><text fill="#FFFFFF" style="font-size:4px; font-family:Arial" x="10" y="280">Runner</text><text fill="#FFFFFF" style="font-size:9px; font-family:Arial" x="10" y="290">Yanfu</text><text fill="#FFFFFF" style="font-size:4px; font-family:Arial" x="65" y="280">SPECIAL TRACKS</text><rect fill="yellow" height="2.6" width="2.6" x="65" y="283" /><text fill="#FFFFFF" style="font-size:3px; font-family:Arial" x="70" y="285.5">Over 20.0 km</text><rect fill="red" height="2.6" width="2.6" x="65" y="287" /><text fill="#FFFFFF" style="font-size:3px; font-family:Arial" x="70" y="289.5">Over 40.0 km</text><text fill="#FFFFFF" style="font-size:4px; font-family:Arial" x="120" y="280">STATISTICS</text><text fill="#FFFFFF" style="font-size:3px; font-family:Arial" x="120" y="285">Number: 3</text><text fill="#FFFFFF" style="font-size:3px; font-family:Arial" x="120" y="290">Weekly: 1.5</text><text fill="#FFFFFF" style="font-size:3px; font-family:Arial" x="141" y="285">Total: 30.4 km</text><text fill="#FFFFFF" style="font-size:3px; font-family:Arial" x="141" y="290">Avg: 10.1 km</text><text fill="#FFFFFF" style="font-size:3px; font-family:Arial" x="167" y="285">Min: 10.1 km</text><text fill="#FFFFFF" style="font-size:3px; font-family:Arial" x="167" y="290">Max: 10.2 km</text><polyline fill="none" opacity="1" points="14.5,98.66724393668119 15.110771992825903,97.47443051691516 15.430700179422274,96.51436102803564 15.925134649849497,95.58338442520471 16.2450628366787,94.4196634934633 16.33231597847771,94.07054717533174 16.826750448788516,93.16866327082971 17.64111310604494,92.61589565771283 17.815619389526546,91.42308118220535 18.222800718271174,90.78303430459346 18.542728904867545,90.43391780063394 18.65906642714981,89.67749864744837 18.86265709158033,88.22284619437414 18.77540394978132,87.81554345189943 19.386175942607224,86.85547260579187 19.2989228006918,85.6044709974376 19.560682226205245,84.9353305080731 19.473429084406234,83.85888697442715 19.909694793634117,83.39339782617753 19.99694793531671,82.25876789414906 19.99694793531671,81.26960318392958 20.200538599747233,80.22225215774961 21.131238779169507,79.11671478874632 21.247576301568188,78.88397005660227 21.334829443367198,78.50575984988245 21.39299820456654,77.74933937357855 21.974685816909187,77.22566360994824 22.58545780973509,76.09103265049635 23.225314183044247,74.95640150192776 23.981508078984916,74.46181863429956 24.941292639123276,73.93814261772786 26.453680430771783,73.29809409810696 27.82064631965477,72.54167304289876 28.722262118477374,72.16346248364425 29.362118491902947,71.72706565845874 30.903590664383955,70.85427192400675 31.74703770200722,70.21422311413335 32.70682226214558,69.57417424401501 33.43393177737016,68.87593904419919 34.42280071810819,67.85767924916581 35.004488330334425,67.18853701499756 35.49892280064523,66.66486043788609 36.371454219101,65.67569345992524 36.6622980250977,65.26838936828426 37.41849192103837,64.1046632573998 38.64003590669017,62.91184378662729 39.04721723520197,62.59181901492411 39.65798922802787,62.21360790156177 40.3560143627692,61.54446511089918 41.199461400392465,61.07897443501861 41.315798922791146,60.351645189890405 41.9556552961003,59.857061258662725 42.71184919204097,59.391570466861594 43.75888689409476,59.362477291346295 44.136983842006885,59.391570466861594 45.416696588974446,59.391570466861594 46.056552962283604,59.1588250589848 46.49281867139507,59.24610458788811 46.84183123882394,59.71159538967186 47.30718132853508,59.79887491147383 47.8016157989623,59.769781737646554 48.29605026927311,59.59522269217996 49.02315978449769,59.42066364231869 50.41921005374752,59.74068856370286 51.291741472203285,59.91524760541506 52.45511669665575,59.74068856370286 51.98976660671178,59.944340778602054 54.14201077201869,60.75894957673154 55.33447037707083,61.07897443501861 56.20700179541018,61.486278778203996 57.777558348258026,62.30088739114581 58.21382405736949,62.67909849964781 58.737342908396386,63.1736822250532 59.34811490122229,63.81373169849394 59.66804308805149,64.16284956771415 59.871633752132766,64.57015372568276 60.65691202878952,65.09383046432049 61.26768402161542,65.93753179168561 61.907540395040996,66.6357672935701 62.431059245951474,66.86851244495483 63.47809694800526,65.64660031136009 64.05978456023149,64.7447126430925 64.58330341114197,63.69735907149152 65.28132854576688,62.24270106491167 65.65942549367901,60.991694929718506 66.03752244170755,59.71159538967186 66.1829443447059,58.66424104073667 66.15385996410623,58.14056380558759 66.15385996410623,57.00592965717078 66.0666068221908,55.49308383031166 65.7757630161941,54.707567594596185 66.00843806099147,53.689305671927286 66.44470377021935,52.903789226926165 67.60807899467181,52.67104359602672 68.8296229802072,52.874696023529395 70.63285457808524,53.45656006812351 71.44721723522525,53.83477167022647 72.58150807896163,54.15479685558239 73.04685816878919,54.765753985528136 74.44290843803901,55.69673617280205 75.72262118489016,56.685904606594704 76.24614003591705,57.2386751389713 77.17684021545574,58.78061375420657 77.14775583485607,59.944340778602054 76.76965888694394,60.555297386366874 76.82782764814328,60.87532225425821 76.97324955114163,61.5153719446098 77.40951526036952,62.30088739114581 77.81669658888131,63.23186854334199 77.70035906636622,64.04647694664891 77.61310592456721,64.91927155602025 78.39838420110755,65.58841401376412 79.70718132855836,66.2284632594965 80.20161579886917,66.49030156995286 80.98689407552592,67.1012575882778 82.67378815088887,67.56674785111682 83.25547576299869,67.77039983103168 84.18617594253737,68.0031449435046 85.05870736087672,68.17770377258421 86.01849192101508,68.52682141738478 87.35637342918199,69.28324291945319 87.93806104140822,69.77782616374316 88.43249551171903,69.9814780774177 88.92692998202983,70.33059562955168 89.50861759425607,71.29066880518803 89.74129263916984,72.2216487248952 90.03213644528296,72.54167304289876 90.75924596062396,73.18172163359122 91.80628366244491,73.96723573075724 92.21346499095671,74.40363241222803 92.70789946138393,74.72365662749507 93.87127468571998,75.68372918298701 94.33662477554753,76.38196368375793 94.74380610417575,76.58561539961374 94.77289048477542,76.20740506530274 95.5,75.42189122678246 94.56929982057773,74.43272552336566 93.63859964092262,73.64721147992532 93.11508078989573,73.29809409810696 92.7369838419836,72.89079046342522 91.74811490136199,71.9307175137219 91.42818671453279,71.58160004383535 90.81741472170688,71.20338943129173 90.7010771993082,70.79608567105606 90.00305206468329,69.74873303278582 89.97396768408362,69.45780171573278 88.78150807903148,68.75956650386797 87.85080789949279,67.85767924916581 86.9201077199541,67.18853701499756 86.3093357271282,66.5484878597781 85.05870736087672,66.43211527963285 84.62244165176526,66.43211527963285 83.51723518851213,66.51939471488004 82.76104129257146,66.40302213426912 81.13231597852428,65.79206605310901 80.08527827635407,65.70478660843219 79.82351885095704,65.26838936828426 79.30000000004657,63.84282485500444 79.56175942556001,63.14458906571963 79.99802513467148,61.95176942614489 79.91077199287247,60.642576897284016 79.91077199287247,59.47884999276721 79.59084380604327,58.51877514613443 78.98007181333378,57.7041660787072 77.67127468576655,56.56953185718157 76.59515260322951,55.72582936414983 75.40269299817737,55.08577912687906 74.85008976666722,54.53300841874443 74.09389587072656,53.922051267756615 73.19228007178754,53.689305671927286 72.17432675044984,53.136534849734744 71.8834829442203,52.903789226926165 71.56355475762393,52.46739116249955 70.54560143628623,52.20555231036269 69.61490125674754,51.97280665548169 68.85870736092329,51.76915420091245 67.98617594246753,51.47822211225866 66.7937163375318,51.47822211225866 65.48491921008099,51.42003569306689 64.52513464982621,51.33275606331881 63.972531418316066,51.44912890275009 63.33267504489049,51.594594949216116 63.04183123877738,52.06008627699339 63.07091561949346,52.641950391669525 63.24542190297507,53.22381445628707 63.536265709088184,53.74749207161949 64.05978456023149,54.41663563234033 64.40879712742753,54.853033571038395 64.67055655294098,55.72582936414983 64.69964093354065,56.540438669529976 64.58330341114197,57.18048876928515 64.78689407545608,58.315122888452606 64.69964093354065,59.79887491147383 64.26337522431277,61.137160771206254 63.681687612086535,62.56272585311672 62.692818671348505,63.34824117831886 61.7912028725259,63.46461381140398 60.83141831238754,62.97003010715707 60.13339317776263,62.56272585311672 59.726211849134415,62.35907371691428 58.91184919211082,61.602651443186915 58.27199281868525,61.282626609667204 57.63213644514326,60.9626017609844 56.84685816883575,60.61348372712382 56.468761220923625,60.555297386366874 55.97432675037999,60.32255201850785 55.363554757554084,60.20617933155154 54.78186714544427,59.59522269217996 54.05475763010327,59.59522269217996 53.73482944339048,59.59522269217996 51.96068222611211,58.2860297083389 51.64075403951574,57.936911536497064 50.79730700189248,57.296861508191796 49.43034111300949,56.91865009945468 48.70323159790132,57.20958195423009 47.94703770196065,57.67507289585774 46.98725314193871,57.966004718182376 46.43464991019573,58.053284262423404 45.59120287257247,57.645979712950066 44.980430879746564,57.84963199077174 44.282405745005235,57.936911536497064 43.84614003589377,58.16965698634158 43.64254937157966,58.60605468324502 43.75888689409476,59.1588250589848 44.049730700207874,59.391570466861594 45.213105924543925,59.59522269217996 45.38761220825836,59.362477291346295 44.71867145423312,59.07154552900465 43.61346499109641,59.01335917500546 42.101077199331485,59.275197763956385 41.34488330350723,59.97343395158532 40.99587073607836,60.93350859222119 40.53052064625081,61.31171977700433 39.54165170551278,61.92267626157263 39.07630161580164,62.24270106491167 37.73842010763474,63.43552065329277 36.778635547612794,64.45378111160244 36.19694793538656,65.26838936828426 35.58617594244424,65.99571808625478 35.14991023344919,66.37392898875987 34.65547576290555,67.0139781604812 34.2192100539105,67.56674785111682 33.026750448858365,68.52682141738478 31.80520646320656,69.77782616374316 30.903590664383955,70.53424752660794 29.391202872502618,71.31976192968432 28.460502692963928,71.98890375698102 27.791561938938685,72.30892808586941 26.889946139999665,72.71623175544664 26.01741472177673,72.978069815872 25.057630161521956,73.53083902128856 23.719748653587885,74.22907374301576 23.283482944476418,74.34544618963264 22.527289048419334,75.01458771925536 21.71292639139574,75.53826365296845 21.39299820456654,76.12012575435801 20.78222621185705,77.25475670897868 20.49138240562752,77.57478079016437 19.96786355471704,78.91306314858957 19.793357271002606,80.28043833011179 19.677019748603925,80.94957927629002 19.589766606804915,82.11330250458559 19.41526032309048,83.10246709242347 19.41526032309048,84.46984143331065 19.32800718129147,84.9644235741871" stroke="#4DD2FF" stroke-dasharray="none" stroke-linecap="round" stroke-linejoin="round" stroke-width="0.5"><title>2026-06-20 10.1km</title><desc>9223370254938036107</desc></polyline><polyline fill="none" opacity="1" points="108.1397790054325,83.84854166314472 108.37845303863287,82.86371658812277 108.94530386733823,82.50559834449086 108.97513812151738,82.14748008258175 109.06464088393841,81.87889137410093 109.4524861878017,81.55061627191026 109.48232044186443,80.80453643685905 110.28784530388657,80.29720210353844 110.82486187841278,79.22284692304675 111.42154696118087,77.93958912958624 112.52541436452884,77.19350890867645 113.748618784477,76.68617431283928 114.55414364638273,76.29821253824048 115.0613259668462,76.11915325041628 116.04585635359399,75.58197535917861 116.58287292823661,75.34322961652651 118.13425414357334,74.44793300860329 118.64143646403681,74.20918722706847 119.74530386738479,73.4034201541217 121.17734806623776,72.35890714311972 122.16187845298555,71.49345338682178 122.78839778993279,70.74737247620942 122.997237568954,70.44894008955453 123.59392265183851,69.97144824435236 124.78729281760752,68.74787524162093 125.50331491720863,67.52430202392861 126.09999999997672,67.01696672430262 126.30883977888152,66.77822068805108 126.84585635352414,65.94260949699674 127.56187845300883,65.34574429906206 128.6060773479985,64.62950599391479 129.14309392264113,64.06248395016883 129.9784530386096,63.584991666837595 130.5751381214941,62.301730993029196 131.64917127066292,61.94361169298645 132.87237569061108,61.97345496871276 133.79723756900057,61.91376841714373 134.63259668496903,61.91376841714373 135.4679558010539,62.3614175413386 136.72099447518121,62.42110408900771 137.55635359114967,62.182357895129826 137.85469613259193,62.06298479513498 138.18287292821333,62.06298479513498 139.91325966839213,62.60016372904647 141.04696132591926,62.570320456055924 141.70331491704565,62.3614175413386 142.03149171255063,62.80906663660426 142.80718232039362,63.077656079956796 143.5232044198783,63.49546186008956 144.98508287302684,63.82373781257775 145.93977900559548,64.33107334509259 146.77513812156394,64.74887904990464 147.2823204420274,65.28605777648045 147.81933701655362,66.00229601393221 148.68453038670123,66.98712347017135 149.49005524860695,67.76304803456878 150.2359116022708,68.44944276934257 151.16077348066028,68.92693471891107 151.87679558014497,69.49395636637928 152.38397790049203,69.10599419148639 153.12983425415587,68.62850225431612 153.51767955790274,67.5839885273017 153.6071823204402,67.07665323204128 154.26353591156658,65.67402016429696 154.89005524863023,63.85358108021319 155.1883977900725,62.779223364486825 155.3972375689773,61.615335651731584 155.4569060773356,59.884425359545276 155.24806629831437,58.03414146712748 155.1287292817142,56.66134987346595 155.30773480655625,55.94511067349231 155.96408839779906,55.01996826409595 156.79944751376752,55.01996826409595 157.69447513809428,55.199028094881214 158.64917127077933,55.28855800855672 160.37955801119097,55.97495397500461 161.3939226520015,56.36291688255733 162.10994475136977,56.12417048041243 162.67679558007512,56.154013781109825 162.55745856359135,57.019469445804134 163.48232044198085,57.79539512243355 164.82486187841278,58.63100729271537 165.33204419899266,59.19802977953805 165.71988950285595,59.61583579290891 166.16740331496112,60.242544765758794 166.73425414366648,61.227373037545476 166.97292817675043,62.122671345307026 166.73425414366648,62.60016372904647 166.3464088398032,63.10749935079366 166.64475138124544,63.82373781257775 167.0922651933506,64.53997620061273 167.4801104972139,66.21119881939376 167.24143646412995,66.71853417775128 167.62928176787682,67.61383177893003 168.37513812154066,68.27038327982882 169.44917127070948,69.01646445580991 169.8370165746892,69.37458339182194 170.3143646409735,69.6730158245191 171.09005524858367,70.00129148561973 172.58176795579493,70.35941037110751 173.89447513816413,70.65784276154591 174.75966850831173,70.92643190204399 175.95303867408074,71.34423721104395 176.9077348066494,71.82172896224074 177.89226519339718,72.59765298798447 178.57845303870272,73.13483110908419 179.294475138071,73.9107549887267 179.5629834254505,74.50761945272097 179.83149171283003,74.9254245471675 180.39834254141897,75.40291605296079 180.78618784539867,75.94009395793546 181.11436464102007,76.35789896652568 181.91988950269297,77.01444964378607 183.0535911602201,77.93958912958624 183.94861878454685,78.77519888232928 184.6348066299688,79.61080853512976 184.93314917129464,79.37206293019699 185.11215469625313,78.74535567866405 185.47016574593727,78.23802119563334 185.11215469625313,77.76052988384617 183.91878453048412,76.98460643249564 183.4414364641998,76.50711503496859 182.63591160229407,75.85056430991972 182.30773480678909,75.4626024889294 181.8602209945675,74.77620844484773 181.1441988950828,74.14950078038964 180.72651933692396,74.0301278855768 180.30883977899794,73.01545819686726 179.44364640885033,71.91125866188668 178.63812154706102,71.25470750406384 178.19060773483943,70.77721571415896 177.772928176797,70.41909685026621 176.60939226532355,70.00129148561973 176.31104972376488,69.70285906700883 175.35635359119624,69.34474014787702 173.83480662992224,69.34474014787702 173.23812154692132,69.22536717075855 172.88011049723718,69.07615094643552 171.53756906080525,68.777718488127 170.49337016581558,68.38975627336185 169.41933701653033,67.76304803456878 169.24033149168827,67.46461552003166 169.18066298344638,66.00229601393221 169.44917127070948,65.0473116809153 169.68784530390985,64.39075987588149 169.62817679566797,63.94311088236282 169.6580110497307,62.450947362638544 169.3895027624676,61.346746151859406 168.52430939232,60.03364178107586 167.62928176787682,59.19802977953805 166.49558011058252,58.392260968568735 165.69005524856038,57.855081709392834 164.37734806642402,56.92993955448037 163.75082872936036,56.422603481740225 162.5872928177705,56.06448387861019 162.02044198894873,55.82573746627895 161.6624309392646,55.795894164126366 161.18508287286386,55.34824461693643 161.0657458563801,55.01996826409595 159.9618784530321,54.51263205171563 159.1563535911264,54.273885586007964 158.1121546961367,53.88592256169068 156.85911602212582,53.88592256169068 156.02375690615736,53.73670600814512 154.71104972367175,53.73670600814512 153.48784530384,53.76654931914527 152.92099447501823,53.97545249230461 152.2944751381874,54.51263205171563 152.26464088400826,55.37808792106807 152.8911602210719,56.27338698267704 153.66685082868207,57.52680547500495 153.90552486199886,58.03414146712748 153.8756906077033,58.45194755034754 154.1441988950828,59.61583579290891 154.17403314914554,59.97395521285944 154.17403314914554,60.36191789706936 154.11436464078724,61.55564909707755 154.05469613266177,62.868753180489875 153.24917127075605,64.68919252220076 153.07016574579757,65.0473116809153 152.08563535904977,65.97245275555179 151.28011049737688,66.06198253046023 150.20607734797522,65.61433364445111 149.04254143650178,64.89809536701068 148.5950276242802,64.4802896711044 147.72983425401617,63.9729541495326 147.19281767948996,63.73420800885651 146.2977900551632,63.346245512890164 145.760773480637,63.04781280894531 145.19392265193164,62.898596452199854 144.5077348065097,62.6300070019206 143.9110497237416,62.39126081520226 142.95635359117296,62.39126081520226 142.38950276235119,62.24204444431234 141.55414364638273,61.97345496871276 140.8679558010772,61.01847008249024 140.36077348061372,60.36191789706936 139.79392265202478,60.003798497025855 138.86906077340245,59.854582074913196 137.94419889501296,59.705365649657324 137.0491712706862,60.09332834876841 136.09447513800114,60.421604461967945 135.6469613260124,60.36191789706936 134.99060773476958,60.3022313315887 134.24475138122216,60.27238804876106 133.52872928173747,60.48129102628445 133.23038674029522,60.33207461441634 132.78287292807363,60.570820871856995 132.4248618783895,61.25721631635679 132.6933701656526,61.82423858891707 133.70773480657954,62.00329824432265 134.2149171269266,61.8839251412428 133.49889502767473,61.645178928854875 132.9618784530321,61.346746151859406 131.73867403320037,61.67502220586175 130.90331491699908,61.8839251412428 130.5751381214941,62.27188771875808 129.88895027618855,63.37608878262108 129.47127071814612,63.85358108021319 128.90441988955718,63.94311088236282 128.1883977900725,64.6593492582324 127.26353591156658,65.1368414676399 126.66685082868207,65.76354994304711 126.12983425415587,66.44994487497024 125.68232044193428,66.95728021592367 124.84696132596582,68.09132378565846 124.07127071835566,69.07615094643552 123.74309392261785,69.34474014787702 123.14640883961692,69.88191851973534 122.28121546958573,70.6876859999029 121.9232044199016,70.98611837625504 121.35635359107982,71.61282632511575 120.70000000006985,72.20969098591013 120.13314917124808,72.59765298798447 118.88011049712077,73.43326338066254 118.13425414357334,74.0599711095565 116.46353591152001,75.07464064622764 115.03149171266705,75.79087787732715 113.59944751381408,76.23852610948961 112.97292817675043,76.56680146144936 111.74972375680227,77.13382248755079 111.033701657434,77.76052988384617 110.19834254134912,78.47676683933241 109.48232044186443,79.55112213460961 109.27348066295963,79.90924052963965 108.85580110491719,80.41657489124918 108.34861878445372,81.40140031132614 107.96077348059043,82.47575515671633 107.75193370156921,84.17681665741839 107.72209944750648,85.07211201783502 107.72209944750648,86.08677995426115 107.99060773476958,86.38521167228464 107.42375690594781,87.2506635824684 107.51325966836885,87.93705640063854 107.3342541436432,88.44439017947298 107.2745856352849,89.45905762672191 106.85690607724246,90.17529338330496 106.5585635358002,90.71247015270637 106.64806629833765,91.8166667157202 106.46906077337917,92.38368650473421 106.29005524865352,92.98054939095164 106.17071823193692,93.60725536674727 105.66353591147345,94.32349069899647 105.54419889498968,95.3978435601457 105.0370165745262,95.87533366773278 104.5,96.32298061414622" stroke="#4DD2FF" stroke-dasharray="none" stroke-linecap="round" stroke-linejoin="round" stroke-width="0.5"><title>2026-06-16 10.1km</title><desc>9223370255286294807</desc></polyline><polyline fill="none" opacity="1" points="19.24736075720284,232.07896886271192 19.77812158712186,231.22359817818506 19.86658172553871,230.69267838966334 20.1024754276732,230.2502452014014 20.27939570439048,229.74882088712184 21.222970513277687,228.95244101891876 21.812704768846743,227.89060105168028 22.166545322048478,226.94674316584133 23.287040407652967,226.20935410266975 24.495995631674305,225.5899472286983 25.616490717045963,225.11801814447972 26.23571168538183,224.73457573977066 27.886967600905336,224.08567316021072 28.447215143823996,223.67273512322572 30.06898434658069,222.7583722389245 31.130506006535143,221.8440092333767 32.48689479427412,220.81166375859175 33.75482344371267,219.51385779940756 35.02275209315121,218.1570603986329 35.87786676362157,217.06572316482197 36.43811430642381,216.0923681886925 37.3227156897774,215.41396918453393 38.11885693494696,214.67657888669055 38.767564615933225,214.11616220744327 39.50473243533634,213.31978053200874 40.06497997813858,213.08381557354005 40.5957408080576,212.70037249854067 40.5957408080576,212.0514687844843 41.00855478690937,211.6385300254915 42.335456861997955,210.96013058183598 43.69184564973693,211.01912184047978 44.93028758640867,211.1076087274996 45.991809246479534,211.25508686996181 46.99435748090036,211.31407812604448 48.0558791407384,211.31407812604448 48.763560247491114,211.13710435616667 50.03148889692966,211.52054751836113 50.76865671633277,211.5795387721446 52.125045504188165,211.87449503366952 52.50837277027313,212.1399556582328 53.06862031307537,212.0514687844843 54.01219512207899,212.46440751868067 54.69038951583207,212.67087687645108 55.221150345751084,212.84785060680588 56.371132144122384,213.37877177045448 57.403167091310024,213.88019727618666 57.96341463411227,214.41111836009077 58.22879504901357,214.91254379061866 58.700582453631796,215.20749990909826 59.08390971960034,215.56144723459147 59.34929013461806,215.94489014998544 60.17491809243802,216.71177591677406 61.03003276302479,217.65563520463184 62.504368401831016,218.4520163780544 63.300509646884166,217.92109560599783 63.86075718968641,216.65278470693738 64.53895158343948,214.91254379061866 65.18765926465858,213.34927615130437 65.68893338181078,211.49105189123657 65.86585365852807,210.57668738841312 65.83636694576126,209.42635767973843 65.89534037129488,208.36451470069005 65.7184200945776,207.2141846214945 65.68893338181078,206.4472977948899 65.51201310520992,206.0933499999228 65.62995995627716,205.44444566167658 65.83636694576126,204.64806298087933 66.48507462686393,204.17613245971734 67.5760829995852,204.20562811827403 68.90298507455736,204.44159338186728 70.5837277029641,205.11999346956145 72.11703676730394,205.47394131481997 72.44139060785528,205.70990653469926 73.00163815065753,206.270323899691 74.5054605024634,207.3911584923626 75.18365489633288,207.7451062204782 75.59646887518466,208.3350190600613 76.36312340735458,209.13140131311957 77.1297779395245,210.57668738841312 77.21823807782494,211.1076087274996 77.1297779395245,211.9924775347754 76.83491081173997,212.37592064912315 77.54259191849269,213.79171042487724 77.74899890786037,214.79456133962958 77.7784856207436,215.5024560149759 78.19129959959537,216.50530668027932 78.7515471422812,217.3901747930213 79.28230797231663,217.74412200620282 79.98998907883652,218.27504279196728 80.46177648345474,218.4520163780544 82.05405897344463,219.21890186544624 83.32198762288317,219.51385779940756 84.73734983615577,219.92679608566687 85.2681106661912,219.95629167664447 86.06425191112794,220.28074316846323 86.97834000736475,220.78216817128123 87.71550782676786,221.28359313771944 88.60010921000503,221.8440092333767 89.16035675269086,222.31593854172388 89.72060429572593,223.46626609546365 90.01547142351046,223.87920414481778 90.3693119767122,224.3216377416975 91.19493993441574,225.17700928173144 92.07954131788574,225.82591175867128 92.99362941400614,226.65178755001398 93.96669093554374,227.53665435960284 94.76283218059689,228.48051216476597 94.96923916996457,228.1560610588349 94.91026574443094,227.89060105168028 95.5,227.30068988815765 95.23461958498228,226.8287609210238 94.29104477609508,226.03238071579835 93.05260283942334,224.85255802047323 92.49235529673751,224.4101244576741 91.7846741899848,223.52525724685984 90.87058609398082,222.90585013173404 90.04495813616086,221.5785489831469 89.39625045505818,220.6936814087967 88.36421550787054,219.77931812914903 88.01037495443597,219.42537102053757 86.86039315618109,218.62898995968862 86.32963232614566,218.4520163780544 85.06170367670711,217.95059120553196 84.44248270837124,217.98008680497878 83.439934473834,218.1275648000592 82.43738623941317,217.98008680497878 81.49381143064238,217.59664400297333 80.81561703677289,217.21320117951836 79.48871496168431,216.1513594033604 79.37076811073348,215.1485086863686 79.6951219511684,213.79171042487724 79.9015289406525,212.67087687645108 79.87204222788569,211.4320606366964 79.25282125954982,209.75080966833048 78.39770658907946,208.71846237863065 77.3361849290086,207.83359314964036 77.04131780122407,207.59762800266617 76.56953039672226,207.24368026689626 75.89133600285277,206.8602368660504 75.0067346196156,206.1523413003597 74.0926465234952,205.47394131481997 73.06061157630756,205.1494891240145 72.41190389508847,204.64806298087933 72.17601019295398,204.29411509310012 71.67473607556894,204.35310640899115 70.73116126691457,203.73369756669854 69.34528576629236,203.32075830743997 68.28376410633791,202.99630601491663 67.22224244615063,202.96681035115034 66.13123407342937,202.8783233592403 64.98125227517448,202.84882769503747 63.68383691296913,202.90781902335584 63.12358937016688,203.05529734195443 62.65180196578149,204.17613245971734 63.18256279581692,205.09049781499198 63.89024390245322,206.0933499999228 64.15562431747094,206.8307412189024 64.24408445577137,207.47964542606496 64.50946487078909,208.3350190600613 64.62741172185633,208.71846237863065 64.56843829632271,209.10190567580867 64.56843829632271,209.66232276381925 64.39151801960543,211.0486174695834 64.33254459418822,211.84499940811656 64.21459774288815,212.4054162724933 63.978704040753655,212.9363374702807 63.506916636251844,213.67372795476695 63.06461594463326,214.41111836009077 62.356934837880544,214.79456133962958 61.61976701859385,215.03052623951226 60.64670549693983,214.5291008176282 60.29286494362168,214.3521271305508 59.231343283550814,213.76221480750246 58.081361485179514,212.90684184923884 57.31470695300959,212.52339876440237 56.607025846489705,212.11046003375668 55.692937750252895,211.87449503366952 55.10320349468384,211.609034398949 54.542955951881595,211.6385300254915 53.982708409195766,211.4025650092517 53.1865671640262,211.37306938160327 52.6558063342236,211.13710435616667 51.94812522747088,210.0752616416721 51.328904259135015,209.72131403366802 50.503276301315054,209.2198882244411 49.6481616308447,208.95442748707137 48.38023298152257,209.01341876294464 47.20076447026804,209.33787077109446 46.78795049141627,209.45585331565235 46.1687295230804,208.71846237863065 45.31361485249363,209.19039258750854 44.163633054238744,209.3968620436499 43.95722606475465,209.24938386125723 43.33800509641878,209.75080966833048 43.19057153246831,210.51769612598582 43.603385511320084,210.96013058183598 44.57644703309052,211.0486174695834 44.782854022458196,210.81265243308735 44.3110666180728,210.6651742811082 43.750819075270556,210.2522354387911 43.279031670768745,210.19324417354073 41.71623589366209,210.81265243308735 40.97906807437539,211.52054751836113 40.5957408080576,211.84499940811656 40.09446669090539,212.90684184923884 39.65216599917039,212.90684184923884 38.767564615933225,213.73271919006947 37.647069530328736,214.55859643165604 36.88041499815881,215.5319516248419 36.08427375322208,216.23984622422722 35.465052784769796,217.15420997404726 34.90480524208397,217.74412200620282 34.25609756086487,218.42252078076126 33.54841645422857,219.36637983404216 32.95868219865952,219.77931812914903 32.13305424095597,220.6346902330988 31.33691299590282,221.22460196705651 30.894612304284237,221.4900622308778 30.540771750966087,221.81451365051907 29.59719694207888,222.37492970301537 28.683108845958486,223.20080590777798 27.769020749954507,223.7022306980798 26.26519839814864,224.3216377416975 25.20367673819419,224.85255802047323 23.611394248204306,225.53095609490993 21.98962504544761,226.47481417452218 20.51528940652497,227.74312326547806 20.190935566090047,228.1560610588349 19.748634874355048,229.15890988247702 19.24736075720284,229.9847852748644 19.040953767718747,230.45671402610606 18.864033491001464,231.16460709253442 18.716599927167408,231.90199562627822 18.569166363216937,232.6098885445972 18.569166363216937,234.11416075509624 18.392246086499654,234.9695310816751 18.510192937683314,235.9723789160198 18.62813978875056,236.6507758978114 18.274299235548824,237.24068626275402 18.244812522665597,238.09605620254297 18.09737895883154,238.68596644417266 17.47815799037926,239.62982272615773 17.537131416029297,240.60317438209313 17.124317437177524,241.45854390616296 16.53458318160847,242.72685024721432 16.387149617657997,243.93616537938942 16.03330906445626,244.29011123173404 15.53203494718764,244.79153449164005 14.706406989367679,245.64690349830198 14.5,247.23965929844417" stroke="#4DD2FF" stroke-dasharray="none" stroke-linecap="round" stroke-linejoin="round" stroke-width="0.5"><title>2026-06-11 10.2km</title><desc>9223370255717407907</desc></polyline></svg>