<?xml version="1.0" encoding="utf-8" ?>
<svg baseProfile="full" height="300mm" version="1.1" viewBox="0,0,200,300" width="200mm" xmlns="http://www.w3.org/2000/svg" xmlns:ev="http://www.w3.org/2001/xml-events" xmlns:xlink="http://www.w3.org/1999/xlink"><defs /><rect fill="#222222" height="300" width="200" x="0" y="0" /><text fill="#FFFFFF" style="font-size:12px; font-family:Arial; font-weight:bold;" x="10" y="20">Over 10km Runs</text><text fill="#FFFFFF" style="font-size:4px; font-family:Arial" x="10" y="280">Runner</text><text fill="#FFFFFF" style="font-size:9px; font-family:Arial" x="10" y="290">Yanfu</text><text fill="#FFFFFF" style="font-size:4px; font-family:Arial" x="65" y="280">SPECIAL TRACKS</text><rect fill="yellow" height="2.6" width="2.6" x="65" y="283" /><text fill="#FFFFFF" style="font-size:3px; font-family:Arial" x="70" y="285.5">Over 20.0 km</text><rect fill="red" height="2.6" width="2.6" x="65" y="287" /><text fill="#FFFFFF" style="font-size:3px; font-family:Arial" x="70" y="289.5">Over 40.0 km</text><text fill="#FFFFFF" style="font-size:4px; font-family:Arial" x="120" y="280">STATISTICS</text><text fill="#FFFFFF" style="font-size:3px; font-family:Arial" x="120" y="285">Number: 3</text><text fill="#FFFFFF" style="font-size:3px; font-family:Arial" x="120" y="290">Weekly: 1.5</text><text fill="#FFFFFF" style="font-size:3px; font-family:Arial" x="141" y="285">Total: 30.4 km</text><text fill="#FFFFFF" style="font-size:3px; font-family:Arial" x="141" y="290">Avg: 10.1 km</text><text fill="#FFFFFF" style="font-size:3px; font-family:Arial" x="167" y="285">Min: 10.1 km</text><text fill="#FFFFFF" style="font-size:3px; font-family:Arial" x="167" y="290">Max: 10.2 km</text><polyline fill="none" opacity="1" points="14.5,98.50579358331743 15.05359712219797,97.54399746115087 15.694604316493496,95.97014897014014 15.8111510790186,95.44553272603662 16.102517985505983,94.45459082210436 16.335611510789022,93.63852091121953 17.005755395744927,93.37621270489763 17.617625899147242,92.00638079753844 17.763309352565557,91.48176424985286 18.346043165423907,90.81142082472797 18.404316546744667,90.25765881530242 18.724820143776014,89.06269853698905 18.63741007191129,88.24662798302597 19.016187050146982,87.54713885934325 19.33669064741116,86.70192273933208 19.22014388476964,85.56525262002833 19.33669064741116,84.22456454389612 19.39496402873192,83.93311057952815 19.715467625763267,83.37934801290976 19.890287769725546,81.65976923034759 19.94856115092989,81.28087893189513 20.356474819942378,79.85275377173093 21.114028776879422,79.2698454571946 21.201438848860562,78.97839128124178 21.34712230216246,78.27890120819211 21.43453237391077,77.69599275919609 22.104676258866675,77.17137511252076 22.7456834531622,75.5975219302054 23.44496402866207,74.86888607463334 24.28992805746384,74.31512277224101 25.45539568341337,73.93623206572374 27.02877697837539,73.12015970333596 28.42733812937513,72.42066902908846 29.126618704991415,72.07092366507277 30.088129496318288,71.54630558536155 31.020503597101197,70.93425110791577 31.95287769776769,70.26390566476039 32.68129496392794,69.62270561381592 33.905035971081816,68.48603264792473 34.57517985603772,67.8156869635859 35.15791366901249,67.14534121321049 36.03201438835822,66.27097709180089 36.3525179856224,65.629776664573 36.731294963974506,65.04686713285628 37.78021582728252,63.677029536513146 38.65431654674467,62.94839240476722 39.1205035969615,62.7152285061311 39.81978417257778,62.07402774351067 40.69388489192352,61.665990863053594 41.16007194237318,60.70418954791967 41.597122302046046,60.32529808333493 41.97589928051457,59.80067909747595 43.31618705030996,59.509224087843904 43.84064748196397,59.509224087843904 44.97697841725312,59.509224087843904 45.67625899275299,59.48007858611527 46.14244604320265,59.30520557361888 46.579496402759105,59.684097095159814 46.98741007188801,59.94640659762081 47.366187050240114,59.94640659762081 48.03633093519602,59.85897009790642 48.4733812949853,59.80067909747595 49.60971223015804,59.65495159421698 50.68776978412643,59.94640659762081 51.88237410061993,60.03384309617104 52.31942446040921,60.121279593673535 53.426618704921566,60.529316566855414 54.475539568345994,61.141371980687836 55.72841726616025,61.40368142697844 56.923021582653746,61.98659127118299 58.03021582728252,62.7152285061311 58.408992805634625,63.064974351087585 58.81690647476353,63.44386566290632 59.370503597077914,64.17250274153776 59.72014388476964,64.638830430893 60.040647481917404,64.81370330619393 61.00215827336069,65.74635856493842 61.70143884886056,66.56243181141326 62.10935251787305,67.02875933685573 62.779496402828954,66.5915772827284 63.85755395679735,65.13430356580648 64.09064748208039,64.6971213897923 64.90647482010536,63.327283723047 65.48920863308012,61.695136355323484 65.72230215824675,60.61675305792596 66.10107913659886,59.48007858611527 66.15935251803603,58.66400448913919 66.15935251803603,57.35245662750094 66.15935251803603,56.565527788887266 65.98453237407375,55.4579981577117 65.72230215824675,54.64192357688444 66.0428057552781,53.47610257688211 66.77122302155476,52.83490094132139 68.43201438849792,52.98062859111815 69.71402877697255,53.30122940955334 70.93776978401002,53.7384123193915 72.13237410073634,54.14644967633649 72.80251798557583,54.37961386938696 73.6474820143776,55.4579981577117 75.19172661867924,56.3615091862448 75.774460431654,57.00271048830473 76.76510791364126,58.16853088227799 77.26043165463489,59.713242595869815 76.91079136694316,60.38358907928341 76.73597122298088,60.87906252441462 76.8233812948456,61.37453593342798 77.31870503583923,62.04488225284149 77.61007194244303,62.86095594370272 77.75575539562851,63.88104791945079 77.66834532364737,64.66797591044451 77.72661870496813,65.30917642833083 79.15431654662825,66.21268614634755 79.5039568344364,66.38755898116506 80.29064748203382,66.88303198866197 81.71834532369394,67.55337776485248 83.02949640294537,67.87397789527313 83.78705035964958,68.0197052223375 84.36978417262435,68.1945780107053 85.38956834527198,68.4277417215053 86.5841726618819,69.12723280588398 87.66223021585029,69.73928744581644 88.12841726606712,70.00159656032338 88.74028776981868,70.46792385008303 89.06079136685003,70.64279657552834 89.64352517982479,72.3040872431302 89.7600719423499,72.59554170444608 90.19712230213918,72.74126893040375 91.07122302160133,73.55734133822261 92.00359712238424,74.25683189570555 92.52805755380541,74.83974063876667 93.25647482008208,75.5100856316567 94.1597122302046,76.18043055859744 94.62589928053785,76.90906627400545 94.77158273383975,76.61761199717876 94.88812949636485,76.12213969798177 94.85899280570447,74.95632238138933 94.21798561152536,74.40255908612744 93.28561151074246,73.64477766180062 92.99424460425507,73.32417780309333 92.23669064755086,72.85785070888232 91.59568345325533,72.04177821727353 90.92553956829943,71.54630558536155 90.6924460431328,71.34228743234416 90.16798561159521,70.23476020924863 90.02230215829331,69.76843290345278 89.17733812949155,69.15637826619786 88.39064748189412,68.48603264792473 87.57482014386915,67.72825056512374 86.64244604308624,66.97046839797986 85.73920863308012,66.56243181141326 84.8359712229576,66.5915772827284 84.13669064734131,66.76645010776701 83.14604316547047,66.53328634003992 81.80575539567508,66.30012256428017 80.75683453236707,65.9212314116885 79.9118705035653,65.80464951437898 79.44568345323205,64.6971213897923 79.27086330938619,63.677029536513146 79.70791366894264,62.74437399386079 80.02841726620682,61.695136355323484 79.97014388488606,60.26700708694989 79.76618705037981,59.07204154986539 79.03776978421956,58.05194885187666 78.39676258992404,57.29416560559184 76.99820143869147,56.24492712478968 75.97841726616025,55.691162305593025 75.1043165466981,54.9625243168266 74.63812949648127,54.61277805434656 73.70575539569836,53.942431000905344 72.39460431656335,53.50524810428033 71.98669064743444,53.24293835283606 71.72446043160744,52.77660988061689 70.99604316544719,52.45600903738523 70.15107913676184,52.19369924525381 69.39352517982479,52.077117112174165 68.66510791366454,51.78566177067114 67.15000000002328,51.66907963057747 65.80971223011147,51.61078855977394 65.2561151079135,51.52335195263731 64.06151079130359,51.49420641668257 63.53705035953317,51.66907963057747 63.09999999997672,51.989680511003826 62.95431654679123,52.54344563244376 63.04172661853954,53.00977412072825 63.42050359712448,53.709266792895505 63.6535971222911,54.263031773938565 64.09064748208039,54.78765118782758 64.55683453229722,55.691162305593025 64.44028776977211,56.47809124563355 64.46942446031608,56.94441946333973 64.7025179854827,58.0810943597171 64.61510791361798,59.392642080492806 64.58597122307401,60.471025572216604 63.915827338118106,62.21975519490661 62.92517985613085,63.298138237791136 62.28417266183533,63.7061750201683 60.91474820137955,63.239847266842844 60.47769784159027,63.21070178123773 59.894964028615505,62.74437399386079 59.312230215757154,62.01573676202679 58.52553956839256,61.57855438545812 58.05935251782648,61.316244945977814 57.38920863298699,60.96649901103228 56.5733812948456,60.79162603672012 56.252877697814256,60.61675305792596 55.49532374087721,60.441880074649816 54.999999999883585,60.15042509252089 54.56294964021072,59.65495159421698 53.77625899272971,59.85897009790642 52.37769784172997,58.69314999424387 51.649280575453304,58.31425841746386 51.35791366896592,57.906221311102854 50.13417266192846,57.235874583158875 49.14352517970838,57.090147024806356 48.03633093519602,57.64391172977048 47.68669064738788,57.99365783596295 46.55035971221514,58.226821896707406 46.11330935242586,57.99365783596295 45.210071942419745,57.81878478510771 44.569064748240635,58.0810943597171 43.98633093526587,58.16853088227799 43.60755395668093,58.54742246720707 43.54928057547659,59.07204154986539 43.78237410064321,59.45093308441574 44.569064748240635,59.59666059204028 45.29748201428447,59.713242595869815 45.06438848923426,59.363496578269405 44.394244604278356,59.276060071075335 42.84999999997672,59.21776906566811 41.80107913655229,59.48007858611527 40.985251798527315,60.412734577053925 40.60647482005879,61.40368142697844 39.99460431654006,61.49111790681491 39.35359712224454,62.278046174527844 38.15899280575104,62.97753789150738 37.05179856100585,64.20164822306833 36.23597122298088,64.93028522050008 35.65323741000611,65.83379498889553 35.15791366901249,66.41670445314958 34.720863309223205,66.82474104844732 34.22553956822958,67.55337776485248 33.351438848883845,68.34030533087207 32.448201438761316,69.47697832112317 31.486690647318028,70.29305112018483 29.91330935235601,71.25485107916757 28.922661870368756,71.80861463031033 28.135971223004162,72.21665090226452 26.94136690639425,72.79955981989042 26.329496402759105,72.97443248546915 25.367985611432232,73.55734133822261 24.37733812944498,74.08195926301414 23.386690647457726,74.51914083620068 22.97877697844524,74.60657714752597 21.69676258985419,75.65581279533217 21.405395683366805,76.12213969798177 21.055755395675078,76.90906627400545 20.473021582700312,77.60855648759753 20.12338129489217,78.48291915361187 19.773741007200442,80.0567716700607 19.598920863238163,80.96027943209629 19.453237409936264,82.0969503178203 19.249280575546436,82.67985839082394 19.16187050344888,84.45772770649637 19.22014388476964,84.83661782869603" stroke="#4DD2FF" stroke-dasharray="none" stroke-linecap="round" stroke-linejoin="round" stroke-width="0.5"><title>2026-06-20 10.1km</title><desc>9223370254938036107</desc></polyline><polyline fill="none" opacity="1" points="107.97613762493711,83.61804360430688 108.18590455048252,82.89862741995603 108.69533851277083,82.53891930019017 108.63540510542225,82.11925980378874 108.90510543843266,81.96938140608836 109.14483906771056,81.51974619389512 109.44450610433705,80.68042705405969 110.16370699228719,80.14086469676113 110.61320754722692,78.94183708762284 111.36237513879314,77.77278497134103 112.86071032192558,76.96344108425546 114.11931187578011,76.51380555104697 114.41897891229019,76.39390273735626 115.04827968927566,76.03419428388588 115.85738068819046,75.58455869107274 117.14594894566108,74.98504452238558 118.19478357385378,74.44548172666691 118.70421753602568,74.14572460006457 120.14261931192596,72.94669596507447 121.19145394011866,72.28723012830596 122.18035516096279,71.41793415765278 122.65982241963502,70.72849244903773 123.16925638192333,70.15895359503338 123.97835738072172,69.40956029540394 124.87735849060118,68.09062789293239 125.74639289686456,67.25130714382976 125.89622641517781,66.95154970895965 126.13596004445571,66.59184077027021 126.94506104337052,65.81247133942088 127.81409544951748,65.24293208500603 128.68312985566445,64.25373221701011 129.31243063264992,64.16380494931946 129.6720310767414,63.02472612535348 130.60099889023695,62.15542900306173 132.2791342951823,61.97557441255776 133.3879023307236,62.005550177942496 134.25693673698697,62.005550177942496 134.82630410662387,62.005550177942496 135.63540510553867,62.605065459094476 136.83407325204462,62.51513817021623 137.49334073252976,62.24535629665479 137.82297447288875,62.15542900306173 138.84184239746537,62.48516240698518 139.89067702554166,62.754944271349814 141.26914539409336,62.57508969632909 141.26914539409336,62.48516240698518 142.37791342963465,63.02472612535348 142.82741398457438,63.354459488240536 144.29578246409073,63.74414435157087 145.07491675938945,64.13382919324795 146.2436182021629,64.70336853794288 146.87291897891555,65.06307757395552 147.38235294120386,65.60264109319542 148.3412874584319,66.62181651580613 148.55105438409373,67.25130714382976 149.71975582686719,68.0606521536829 150.7685904551763,68.98990001244238 151.45782463939395,69.3496088279062 152.02719200891443,69.40956029540394 152.80632630421314,68.92994854145218 153.25582685915288,68.1805551100988 153.37569367373362,67.40118585643359 153.79522752505727,66.53188927861629 154.5144284130074,64.79329579876503 154.96392896794714,63.02472612535348 155.0238623751793,62.66501698439242 155.3235294118058,60.926422542193905 155.41342952288687,58.94802144332789 154.84406215324998,57.3593050033669 154.9938956714468,56.3101524389931 155.2635960044572,55.6207092392724 156.01276359613985,54.991217562695965 156.85183129867073,55.021193358057644 157.96059933421202,55.23102392232977 159.39900110999588,55.6207092392724 160.77746947854757,56.3101524389931 161.79633740300778,56.28017664904473 162.24583795794751,56.07034611637937 162.45560488349292,56.57993454200914 163.11487236409448,57.56913549726596 164.1637069922872,58.28855428571114 165.03274139855057,58.918045664788224 165.39234184240922,59.36768232937902 165.7819089901168,59.8173189649242 166.41120976710226,61.016349851561245 166.74084350734483,61.52593791601248 166.65094339638017,62.335283589025494 166.3213096561376,62.994750364276115 166.38124306336977,63.62424131896114 166.800776914577,64.34365948353661 167.28024417324923,65.51271384285064 167.22031076590065,66.62181651580613 167.25027746963315,67.04147694073617 168.1792452831287,68.1805551100988 169.04827968939207,68.89997280575335 169.1681465038564,69.16975442250259 170.06714761385228,69.55943896173267 170.846281909151,70.09900213393848 171.53551609336864,70.36878370447084 173.45338512770832,70.69851672102232 174.20255271927454,70.96829826844623 175.43118756939657,71.26805553113809 176.03052164264955,71.56781278102426 177.10932297457475,72.19730296393391 178.15815760276746,72.85676880914252 178.63762486132327,73.39633172721369 179.47669256397057,74.32557887758594 179.68645948951598,74.74523884052178 180.1659267480718,75.46465586137492 180.61542730312794,75.94426716759335 180.82519422878977,76.24402421730338 181.30466148722917,76.7536111723748 182.3235294118058,77.65288217918715 183.3723640399985,78.52217737602768 184.4811320755398,79.60130229807692 184.81076581589878,79.7212050568778 184.96059933421202,79.2415940091596 185.5,78.5521530705737 185.20033296348993,78.07254194281995 184.30133185349405,77.35312518972205 183.76193118770607,76.90348968148464 183.04273029975593,76.42387844092445 182.44339622650295,75.8843157562078 181.99389567156322,75.31477732147323 181.72419533866923,74.71526312973583 180.88512763602193,74.23565173940733 180.46559378469829,73.7560403161915 179.83629300782923,72.70689021341968 178.75749167602044,71.44790988258319 178.51775804674253,71.17812835366931 177.94839067722205,70.5786138077383 177.4988901221659,70.51866235036869 176.4500554939732,69.91914774785982 175.67092119867448,69.61939042736776 174.68201997794677,69.3196330940118 173.36348501662724,69.40956029540394 173.03385127638467,69.19973015703727 172.4045504995156,69.22970589151373 171.26581576035824,68.89997280575335 169.61764705891255,67.97072493500309 169.28801331866998,67.70094327203697 168.9883462820435,66.98152545298217 169.28801331866998,65.72254409175366 169.37791342963465,64.9131988111767 169.61764705891255,64.25373221701011 169.5577136516804,63.11465340759605 169.34794672590215,61.67581675143447 168.958379578311,60.716592149226926 168.2092119868612,59.78734319010982 166.86071032180917,58.798142549348995 166.0516093231272,58.228602722869255 164.703107658308,57.41925657365937 164.1337402886711,56.87969242205145 163.26470588252414,56.25020085909637 162.3057713652961,55.98041874327464 161.7364039956592,55.86051557731116 161.49667036626488,55.4708302738145 161.04716981144156,55.201048127841204 160.20810210879426,54.69145960145397 159.21920088806655,54.42167742532911 158.14039955614135,54.06196784088388 157.36126526084263,53.79218564037001 156.31243063276634,53.79218564037001 155.47336293023545,53.79218564037001 153.7352941177087,53.70225823792862 152.98612652614247,54.002016241662204 152.59655937855132,54.06196784088388 152.087125416263,54.721435398154426 152.68645948939957,56.10032190714264 153.31576026650146,57.029571357241366 153.52552719204687,57.71901441767113 153.79522752505727,58.25857850437751 153.7652608214412,58.82811832841253 154.06492785795126,59.84729473956395 154.09489456168376,60.236979798646644 154.09489456168376,60.80651946121361 153.94506104348693,62.54511393333087 153.61542730312794,63.89402313937899 152.98612652614247,64.9131988111767 152.356825749157,65.69256834231783 151.36792452842928,66.29208330711117 150.43895671493374,65.90239858586574 149.65982241963502,65.57266534323571 148.67092119867448,64.9131988111767 148.1315205328865,64.28370797267416 147.41231964493636,63.92399889655644 146.7230854606023,63.56428980198689 145.79411764710676,63.204580688790884 145.37458379589953,63.11465340759605 144.71531631529797,62.754944271349814 143.93618202011567,62.57508969632909 143.3068812431302,62.27533206087537 142.52774694783147,62.425210880232044 141.89844617107883,62.36525935283862 140.9395116538508,61.43601061322261 140.60987791360822,60.866471002053004 139.77081021096092,60.20700402563671 138.90177580481395,59.93722206284292 138.00277469481807,59.75736741523724 137.04384017770644,59.99717361101648 136.0249722530134,60.35688288934762 135.69533851277083,60.47678597806953 135.15593784686644,60.29693134431727 134.4667036627652,60.26695557159837 133.657602663734,60.506761749857105 133.17813540517818,60.41683443397051 132.78856825747062,60.41683443397051 132.39900110999588,60.866471002053004 132.21920088795014,61.55591368331807 132.6087680356577,61.97557441255776 133.86736958939582,62.065501708420925 133.9273029967444,61.795719817397185 133.08823529421352,61.55591368331807 132.5488346281927,61.40603484533494 131.230299667106,61.825695583596826 130.4811320755398,62.09547747345641 129.6720310767414,62.93479884188855 129.55216426192783,63.654217077360954 129.04273029963952,64.0139261672739 128.20366259722505,64.373635238735 127.7541620421689,64.88322305830661 126.88512763590552,65.42278659134172 126.31576026638504,66.05227732739877 125.68645948951598,66.65179226128384 124.84739178686868,67.67096753098303 124.0083240843378,68.78006986161927 123.64872364047915,69.3196330940118 123.37902330746874,69.61939042736776 122.50998890120536,70.51866235036869 121.8507214206038,70.96829826844623 121.22142064385116,71.62776422942989 120.98168701445684,71.89754574105609 120.23251942289062,72.49706017400604 119.15371809108183,73.24645314307418 118.37458379578311,73.60616173967719 116.99611542734783,74.77521455119131 115.4977802443318,75.43468015367398 114.05937846843153,76.06416998902569 112.86071032192558,76.63370836270042 112.05160932301078,76.99341678549536 111.09267480578274,77.62290648074122 110.55327413999476,78.07254194281995 109.74417314096354,78.91186139476486 109.0549389567459,79.90105919138296 108.815205327468,80.26076744648162 108.33573806879576,80.68042705405969 107.79633740300778,81.99935708584962 107.4966703663813,83.49814091203734 107.34683684795164,84.54728939995402 107.13706992240623,85.86621870513773 107.1670366259059,86.22592665447155 107.58657047722954,86.70553722494515 107.07713651494123,87.90456350782188 107.07713651494123,88.47410092042992 106.89733629289549,88.98368698742706 106.77746947843116,90.06281030143145 106.47780244180467,90.54242060997058 106.17813540517818,91.32178729167208 106.20810210879426,92.40091024676803 106.08823529421352,92.79059349541785 105.93840177590027,93.59993555827532 105.39900110987946,94.31935064715799 105.24916759168264,95.36849751975387 105.0693673696369,95.75818060408346 104.5,96.29774176212959" stroke="#4DD2FF" stroke-dasharray="none" stroke-linecap="round" stroke-linejoin="round" stroke-width="0.5"><title>2026-06-16 10.1km</title><desc>9223370255286294807</desc></polyline><polyline fill="none" opacity="1" points="19.082116788369603,232.18576573292376 19.673357664374635,231.38735155636095 19.880291970795952,230.82550448804977 19.998540146043524,230.5002245855867 20.323722627712414,229.7905229270691 21.299270073068328,229.05125028869952 21.80182481755037,227.63184660163824 22.363503649714403,226.95171556496643 23.81204379571136,226.1828717038734 25.11277372261975,225.62102421282907 25.556204379652627,225.35488591171452 26.91605839424301,224.76346742801252 28.009854014613666,224.2903326045489 29.04452554753516,223.61020123914932 30.40437956212554,222.63436046757852 31.70510948903393,221.74723237374565 32.97627737233415,220.50525285091135 34.21788321167696,219.17456025708816 35.45948905113619,217.8438674067438 35.84379562048707,217.01588061472285 36.61240875918884,216.24703564750962 37.32189781032503,215.65561638362124 38.32700729928911,214.62063254977693 38.800000000046566,214.41363576438744 39.598175182472914,213.40822271828074 40.15985401463695,213.31950979540125 40.51459854003042,212.8168032108515 40.48503649642225,212.2253836526652 41.37189781013876,211.45653815110563 43.05693430651445,211.27911225397838 43.94379562046379,211.27911225397838 45.33321167877875,211.4269671686343 46.07226277375594,211.72267698834185 47.757299270131625,211.6339640437218 48.31897810229566,211.45653815110563 49.32408759125974,211.7818189506943 50.122262773802504,211.81138993168133 51.21605839417316,211.84096091263928 52.16204379557166,212.2253836526652 52.60547445260454,212.37323854694841 53.34452554746531,212.52109343811753 54.34963503642939,212.96465809244546 54.73394160589669,213.08294199540978 55.886861313832924,213.6152195338509 57.158029197133146,214.11792606013478 57.66058394161519,214.6797744873038 57.985766423284076,214.85720029694494 58.2518248175038,215.38947769836523 58.724817518144846,215.6851873480482 59.050000000046566,216.0696098736662 59.40474452544004,216.6314581418701 60.64635036501568,217.72558358541573 61.740145985386334,218.37614457769087 63.070437956252135,218.4352864830289 63.5138686131686,217.8438674067438 64.10510948905721,216.04003891092725 64.87372262764256,214.38406479451805 65.37627737224102,212.75766125728842 65.7605839415919,211.27911225397838 65.7310218977509,210.6876925638935 65.7605839415919,208.82472020786372 65.84927007299848,208.46986827341607 65.58321167889517,207.139173356205 65.49452554748859,206.6068953172362 65.40583941608202,206.1929012585315 65.55364963493776,205.57191012374824 65.87883211683948,204.803063879197 66.7361313868314,204.41864072470344 68.00729927001521,204.65520882233977 69.66277372266632,205.01006095350021 71.22956204379443,205.69019415377988 72.20510948891751,205.89719120133668 72.61897810222581,206.3998982910125 73.65364963503089,207.22788635868346 74.83613138680812,207.84887734401855 75.36824817524757,208.3220132953138 76.1959854013985,209.29785609210376 76.66897810203955,210.21455677514314 77.14197080291342,211.07211536820978 77.201094890479,211.57482208005968 76.8463503648527,212.55066441590316 77.08284671534784,213.34908076975262 77.70364963496104,214.65020351862768 77.76277372264303,215.3007648009807 77.76277372264303,216.04003891092725 78.2062043795595,217.04545157332905 79.03394160571042,217.93258027144475 79.8321167883696,218.4352864830289 80.09817518247291,218.70142505076365 81.25109489052556,219.26327310464694 82.93613138690125,219.7955501661636 84.17773722624406,220.15040151763242 84.88722627738025,220.15040151763242 85.4193430658197,220.32782718652743 86.54270072991494,220.97838793354458 87.3408759124577,221.42195204406744 87.96167883218732,221.83594518827158 88.84854014602024,222.4569348578807 89.58759124088101,223.4623465857003 89.9127737225499,224.08333610914997 90.29708029190078,224.4973290938069 90.56313868612051,224.79303835335304 91.71605839417316,225.97587526511052 92.5437956204405,226.71514823217876 93.31240875914227,227.51356294783182 94.4948905109195,228.57811575868982 94.90875912411138,228.69639939421904 94.82007299270481,228.63725757668726 95.20437956205569,227.80927207838977 95.5,227.48399203413283 95.05656934296712,226.86300281612785 93.54890510940459,225.85759158307337 92.5437956204405,224.9113220536965 92.33686131390277,224.67475465111784 91.53868613136001,223.58063030874473 90.53357664239593,222.54564766329713 89.79452554741874,221.62894861929817 88.9076642334694,220.62353662456735 88.19817518244963,220.0912596269627 87.45912408758886,219.4702697445755 86.6313868612051,218.81970885544433 85.47846715326887,218.37614457769087 84.85766423353925,218.22828981210478 84.20729927008506,218.4352864830289 83.14306569343898,218.34657362481812 81.87189781025518,218.13957695118734 81.19197080295999,217.87343836177024 79.86167883209419,217.10459349004668 79.38868613133673,215.65561638362124 79.56605839414988,214.8276293289964 79.80255474441219,213.82221634322195 79.8321167883696,212.19581267339527 79.65474452555645,210.92426044595777 78.67919708031695,209.26828510020277 77.76277372264303,208.5290102637664 77.171532846638,207.99673233227804 76.87591240881011,207.76016434960184 76.37335766421165,207.43488336005248 75.39781021897215,206.87303434193018 74.2448905109195,205.95633321380592 73.6240875913063,205.54233911595657 72.50072992709465,205.18748701224104 72.26423357671592,204.714350845461 71.76167883211747,204.714350845461 71.43649635033216,204.3299276859616 70.19489051087294,203.82722044503316 68.7463503649924,203.50193926956854 67.65255474438891,203.2358001144894 66.23357664223295,203.17665807864978 65.87883211683948,203.2062290966569 63.986861313926056,203.05837400542805 63.21824817522429,203.2358001144894 62.65656934317667,203.8567914602172 62.62700729921926,204.68477983397315 63.572992700734176,206.0746172372019 64.04598540137522,206.9617473478429 64.25291970814578,207.58273835718865 63.986861313926056,208.02630332962144 64.51897810213268,208.82472020786372 64.4894160584081,209.2091431162844 64.43029197084252,209.59356600319734 64.31204379559495,210.5398376334051 64.34160583931953,211.7818189506943 64.1642335767392,212.31409658966004 63.986861313926056,213.08294199540978 63.66167883214075,213.7039324529469 63.27737226267345,214.35449382453226 62.47919708036352,215.09376803599298 61.917518248199485,215.3007648009807 61.1784671532223,215.2416228687507 60.350729926954955,214.79805836093146 59.90729927003849,214.59106158078066 58.48832116799895,213.52650661364896 57.57189781020861,213.08294199540978 56.86240875918884,212.69851930320146 56.09379562048707,212.31409658966004 55.14781021908857,212.01838679536013 54.85218978091143,211.8705318934226 54.26094890513923,211.81138993168133 53.46277372271288,211.7818189506943 52.90109489054885,211.5452510980249 52.16204379557166,211.24954127072124 51.42299270071089,210.24412776288227 51.00912408763543,209.97798886857345 50.00401459855493,209.47528204022092 48.52591240883339,209.2387141083309 47.31386861321516,209.5344240219565 46.870437956182286,209.68227897395263 46.367883211700246,209.5344240219565 45.5401459854329,209.3274270837428 44.71240875928197,209.5344240219565 43.91423357662279,209.68227897395263 43.64817518251948,209.62313699358492 42.99781021894887,210.5989796059148 43.2343065693276,211.19039930371218 43.85510948905721,211.27911225397838 44.62372262775898,211.30868323714822 44.50547445251141,210.9538314306992 44.00291970802937,210.92426044595777 43.35255474457517,210.48069566034246 42.37700729933567,210.86511847621296 41.342335766530596,211.24954127072124 40.63284671539441,211.9888158151589 40.48503649642225,212.7280902803468 39.71642335772049,213.26036784617463 39.30255474452861,213.37865174401668 38.0018248175038,214.38406479451805 37.08540145982988,215.50776155971107 36.494160583941266,215.9808969850419 35.45948905113619,217.2820192373183 34.897810218972154,217.87343836177024 34.54306569346227,218.19871885856264 33.863138686167076,218.87885075694066 33.1536496351473,219.7955501661636 32.65109489054885,220.2982562420948 31.823357664281502,221.18538452201756 30.90693430660758,221.68809049678384 30.5226277372567,221.95422893913928 29.872262773802504,222.60478953289567 29.221897810231894,222.84135700640036 28.009854014613666,223.78762681924854 26.73868613142986,224.40861631350708 25.881386861321516,224.82260927863535 24.22591240890324,225.56188236904563 22.570437956252135,226.3011553803808 21.09233576641418,227.4544211202301 20.11678832117468,228.31197757134214 19.643795620417222,229.28781754156807 19.377737226197496,229.7018102146103 18.904744525556453,230.55936638716958 18.727372262859717,231.03250078167184 18.490875912480988,232.0083403682802 18.46131386863999,232.77718358207494 18.402189781074412,234.01916090099257 18.22481751826126,234.87671653876896 18.46131386863999,235.61598855510238 18.313503649667837,236.73968186893035 18.372627737233415,237.21281584131066 17.929197080316953,238.24779629328987 18.077007299405523,238.66178843085072 17.39708029211033,239.84462297332357 17.456204379559495,240.52475274394965 17.012773722643033,241.61887440891587 16.746715328656137,242.5355708061834 16.273722627782263,243.86625890946016 16.06678832124453,244.54638828596217 15.505109489080496,245.04909256487736 14.884306569350883,245.7883634972677 14.559124087681994,246.94162599460105" stroke="#4DD2FF" stroke-dasharray="none" stroke-linecap="round" stroke-linejoin="round" stroke-width="0.5"><title>2026-06-11 10.2km</title><desc>9223370255717407907</desc></polyline></svg>