<?xml version="1.0" encoding="utf-8" ?>
<svg baseProfile="full" height="300mm" version="1.1" viewBox="0,0,200,300" width="200mm" xmlns="http://www.w3.org/2000/svg" xmlns:ev="http://www.w3.org/2001/xml-events" xmlns:xlink="http://www.w3.org/1999/xlink"><defs /><rect fill="#222222" height="300" width="200" x="0" y="0" /><text fill="#FFFFFF" style="font-size:12px; font-family:Arial; font-weight:bold;" x="10" y="20">Over 10km Runs</text><text fill="#FFFFFF" style="font-size:4px; font-family:Arial" x="10" y="280">Runner</text><text fill="#FFFFFF" style="font-size:9px; font-family:Arial" x="10" y="290">Yanfu</text><text fill="#FFFFFF" style="font-size:4px; font-family:Arial" x="65" y="280">SPECIAL TRACKS</text><rect fill="yellow" height="2.6" width="2.6" x="65" y="283" /><text fill="#FFFFFF" style="font-size:3px; font-family:Arial" x="70" y="285.5">Over 20.0 km</text><rect fill="red" height="2.6" width="2.6" x="65" y="287" /><text fill="#FFFFFF" style="font-size:3px; font-family:Arial" x="70" y="289.5">Over 40.0 km</text><text fill="#FFFFFF" style="font-size:4px; font-family:Arial" x="120" y="280">STATISTICS</text><text fill="#FFFFFF" style="font-size:3px; font-family:Arial" x="120" y="285">Number: 4</text><text fill="#FFFFFF" style="font-size:3px; font-family:Arial" x="120" y="290">Weekly: 2.0</text><text fill="#FFFFFF" style="font-size:3px; font-family:Arial" x="141" y="285">Total: 40.5 km</text><text fill="#FFFFFF" style="font-size:3px; font-family:Arial" x="141" y="290">Avg: 10.1 km</text><text fill="#FFFFFF" style="font-size:3px; font-family:Arial" x="167" y="285">Min: 10.1 km</text><text fill="#FFFFFF" style="font-size:3px; font-family:Arial" x="167" y="290">Max: 10.2 km</text><polyline fill="none" opacity="1" points="14.592115238774568,94.47287737205625 14.5,94.04287807800574 15.14480667177122,93.0293082119897 15.052691432880238,91.70859574829228 15.329037149320357,91.00216805195669 15.236921910545789,89.86574074294185 15.697498104651459,89.37431266187923 15.789613343309611,88.1764565736521 15.789613343309611,87.13217161613284 16.00454890076071,86.02645796642173 16.987111448077485,84.85931559622986 17.10993176640477,84.61360138881719 17.202047005295753,84.21431578393094 17.26345716440119,83.41574450780172 17.877558756619692,82.86288741842145 18.522365428274497,81.66503024555277 19.197877179598436,80.4671728729736 19.996209249366075,79.94502985314466 21.009476876351982,79.39217249676585 22.606141015770845,78.71645789209288 24.04927975742612,77.91788600478321 25.001137225190178,77.51860002771718 25.6766489763977,77.05788541125366 27.304018195718527,76.13645608961815 28.19446550414432,75.46074117854005 29.207733131130226,74.78502620384097 29.975360121228732,74.04788252245635 31.019332827883773,72.97288118465804 31.63343441998586,72.2664516462828 32.155420773196965,71.7135936981067 33.07657316152472,70.66930634650635 33.38362395751756,70.23930562805617 34.181956027285196,69.01073200453538 35.47156937071122,67.75144382182043 35.901440485264175,67.41358597902581 36.54624715691898,67.01429941697279 37.283169067581184,66.30786929110764 38.173616376006976,65.81643959728535 38.296436694450676,65.04858063301072 38.9719484456582,64.52643649035599 39.77028051542584,64.035006674123 40.87566338130273,64.00429230951704 41.27482941618655,64.035006674123 42.62585291895084,64.035006674123 43.301364670158364,63.78929175337544 43.761940864264034,63.881434849638026 44.130401819595136,64.3728646764066 44.62168309325352,64.46500776521862 45.14366944658104,64.43429340235889 45.66565579990856,64.25000722287223 46.433282789890654,64.06572103867074 47.90712661098223,64.40357903944096 48.82827899930999,64.5878652149695 50.05648218351416,64.40357903944096 49.56520090973936,64.61857957713073 51.83737680059858,65.4785816631047 53.096285064471886,65.81643959728535 54.017437452683225,66.24644058127888 55.67551175132394,67.10644247173332 56.13608794531319,67.50572902866406 56.688779378309846,68.0278729540878 57.33358604996465,68.70358856575331 57.671341925743036,69.07216069073183 57.88627748284489,69.50216147920582 58.71531463228166,70.05501959793037 59.36012130405288,70.94573536614189 60.03563305537682,71.68287936644629 60.58832448825706,71.92859401641181 61.69370735413395,70.63859201030573 62.30780894623604,69.6864475235343 62.860500379116274,68.58073118660832 63.59742228954565,67.04501376871485 63.99658832442947,65.72429652593564 64.3957543594297,64.3728646764066 64.5492797573097,63.267147518810816 64.51857467775699,62.714288875926286 64.51857467775699,61.5164283363265 64.42645943898242,59.91928063821979 64.11940864287317,59.08999226952437 64.36504927964415,58.014988685492426 64.82562547386624,57.185700095957145 66.05382865807042,56.9399849397596 67.34344200149644,57.15498570189811 69.24715693702456,57.76927355793305 70.10689916613046,58.16856063599698 71.3043972706655,58.50641891540727 71.79567854432389,59.15142104087863 73.26952236541547,60.13428131060209 74.62054586806335,61.178570199233945 75.17323730106,61.76214333518874 76.15579984837677,63.39000498922542 76.12509476882406,64.61857957713073 75.72592873394024,65.26358115131734 75.78733889316209,65.60143909562612 75.9408642911585,66.27715493628057 76.40144048526417,67.10644247173332 76.83131159970071,68.08930164872436 76.70849128125701,68.94930331787327 76.61637604236603,69.87073356314795 77.4454131918028,70.57716333755525 78.8271417740034,71.25287870882312 79.34912812733091,71.5293077059905 80.17816527676769,72.17430865787901 81.95905989396852,72.6657379156677 82.57316148595419,72.88073820527643 83.55572403338738,73.12645281420555 84.4768764214823,73.31073876528535 85.49014404858463,73.6793106533587 86.90257771045435,74.47788301244145 87.51667930255644,75.00002642994514 88.03866565588396,75.21502664964646 88.56065200909507,75.58359843987273 89.17475360131357,76.59717076516245 89.42039423808455,77.58002864097944 89.72744503407739,77.91788600478321 90.49507202429231,78.59360068448586 91.60045489005279,79.42288679542253 92.03032600448932,79.88360126013868 92.55231235781685,80.22145851544337 93.78051554202102,81.23503018601332 94.27179681579582,81.97217312944122 94.70166793034878,82.18717314029345 94.7323730099015,81.78788740065647 95.5,80.95860156283015 94.51743745268323,79.91431555675808 93.53487490525004,79.08502950251568 92.98218347225338,78.71645789209288 92.58301743748598,78.2864576560678 91.53904473094735,77.27288556931308 91.20128885516897,76.90431386587443 90.55648218351416,76.50502783252159 90.43366186507046,76.07502746395767 89.69673995452467,74.96931211237097 89.66603487497196,74.6621689288877 88.40712661109865,73.9250252348138 87.42456406378187,72.97288118465804 86.44200151623227,72.2664516462828 85.79719484457746,71.59073637059191 84.4768764214823,71.46787904092344 84.01630022749305,71.46787904092344 82.8495072023943,71.56002203829121 82.05117513262667,71.43716470815707 80.3316906747641,70.79216368991183 79.2263078087708,70.70002068253234 78.9499620924471,70.23930562805617 78.39727065956686,68.73430291027762 78.67361637612339,67.9971586065949 79.13419257011265,66.73787024558987 79.0420773314545,65.35572422860423 79.0420773314545,64.12714976724237 78.7043214555597,63.11357567779487 78.0595147840213,62.25357330753468 76.67778620158788,61.05571269080974 75.54169825627469,60.164995691913646 74.28278999240138,59.48927927389741 73.69939347996842,58.90570595237659 72.90106141008437,58.26070380472811 71.94920394232031,58.014988685492426 70.87452615622897,57.43141524359817 70.5674753600033,57.185700095957145 70.22971948434133,56.72498417121824 69.15504169824999,56.448554602160584 68.17247915093321,56.202839420642704 67.37414708116557,55.98783862986602 66.45299469283782,55.680694631824736 65.19408642919734,55.680694631824736 63.81235784688033,55.619265830668155 62.79909021977801,55.527122627943754 62.215693707345054,55.64998023136286 61.540181956021115,55.8035522326245 61.23313115991186,56.29498261469416 61.26383623969741,56.909270544711035 61.44806671713013,57.52355842187535 61.755117513239384,58.0764174661017 62.30780894623604,58.78284840489505 62.67626990145072,59.24356419692049 62.95261561789084,60.164995691913646 62.98332069744356,61.0249983133981 62.860500379116274,61.70071458624443 63.07543593633454,62.89857509493595 62.98332069744356,64.46500776521862 62.52274450333789,65.8778683108394 61.9086429112358,67.38287162891356 60.86467020458076,68.21215903625125 59.91281273693312,68.33501642185729 58.8995451098308,67.8128725187853 58.16262319940142,67.38287162891356 57.73275208484847,67.16787117428612 56.8730098559754,66.36929800052894 56.19749810465146,66.03144009254174 55.521986353211105,65.69358216848923 54.692949204007164,65.32500986964442 54.293783169123344,65.26358115131734 53.77179681567941,65.01786627277033 53.1269901440246,64.89500883035362 52.51288855203893,64.25000722287223 51.74526156170759,64.25000722287223 51.407505686045624,64.25000722287223 49.53449583007023,62.86786072549876 49.19673995452467,62.49928828096017 48.30629264598247,61.82357208355097 46.86315390444361,61.4242852096213 46.0955269143451,61.731428960862104 45.29719484457746,62.222858935187105 44.28392721770797,62.530002652085386 43.70053070492577,62.62214576458791 42.81008339649998,62.19214456278132 42.16527672484517,62.40714516694425 41.42835481418297,62.49928828096017 40.9677786200773,62.74500324606197 40.75284306285903,63.20571878278861 40.87566338130273,63.78929175337544 41.18271417741198,64.035006674123 42.41091736161616,64.25000722287223 42.59514783928171,64.00429230951704 41.88893100828864,63.697148655948695 40.72213798330631,63.63571992359357 39.12547384388745,63.91214921482606 38.32714177411981,64.64929393905913 37.95868081878871,65.66286781104282 37.46739954513032,66.06215444847476 36.42342683847528,66.70715589256724 35.93214556481689,67.04501376871485 34.51971190283075,68.30430207564496 33.50644427596126,69.37930411368143 32.89234268385917,70.23930562805617 32.24753601208795,71.00716403574916 31.78695981798228,71.40645037521608 31.26497346465476,72.08216566831106 30.804397270665504,72.6657379156677 29.545489006792195,73.6793106533587 28.25587566336617,75.00002642994514 27.304018195718527,75.79859864205355 25.707354056066833,76.62788507592632 24.724791508633643,77.33431418472901 24.018574677756988,77.6721715599997 23.06671720999293,78.10217183281202 22.145564821898006,78.37860056606587 21.132297194795683,78.96217230113689" stroke="#4DD2FF" stroke-dasharray="none" stroke-linecap="round" stroke-linejoin="round" stroke-width="0.5"><title>2026-06-20 10.1km</title><desc>9223370254938036107</desc></polyline><polyline fill="none" opacity="1" points="104.5,97.34028552297968 104.67795679229312,96.74691992840962 105.09318930795416,95.70853001630167 105.59740021976177,95.44151544250781 105.86433540831786,95.14483257068787 106.19058952759951,94.64047165965894 106.27956792374607,93.39440336998086 106.63548150856514,92.91971062950324 107.08037348953076,91.73297863692278 107.31764921266586,90.7539245908265 107.19901135121472,89.71553378528915 107.88117905531544,88.41012798139127 107.79220065905247,87.54974674957339 108.05913584760856,87.01571696583414 107.99981691676658,85.38395903946366 107.970157451462,85.44329569808906 108.11845477845054,83.75220073008677 108.23709264001809,81.79409025306813 108.9489198095398,81.34906506771222 109.06755767110735,80.60735636204481 109.4827901867684,80.16233110066969 109.9573416330386,79.39095391327282 111.11406078352593,78.20421961147804 111.91486634931061,76.86914327944396 112.95294763811398,76.24610756989568 113.87239106558263,75.71207691717427 115.4146832661936,75.00003598298645 116.39344562427141,74.52534198621288 117.57982424017973,73.9616428228328 118.73654339066707,73.2496017087833 119.71530574874487,72.62656567408703 120.01190040272195,72.35955021349946 120.75338703766465,71.795850873983 121.67283046501689,71.05414114688756 122.82954961550422,70.075084185577 123.57103625044692,69.18503228243208 124.66843647009227,68.08730144443689 125.20230684732087,67.22691769286757 126.0920908091357,66.36653383442899 126.47766385949217,65.68416035344126 126.92255584022496,65.35780779528432 127.18949102878105,65.06112363812281 128.0792749908287,64.31941318954341 128.99871841818094,63.51836581574753 129.41395093372557,63.19201315531973 129.74020505300723,63.22168157971464 130.12577810324728,62.42063407873502 130.0367997069843,62.00527607870754 130.77828634204343,61.38223903195467 131.40113511518575,60.93721253564581 132.67649212735705,60.877875667240005 133.0620651775971,60.93721253564581 134.39674112037756,60.877875667240005 135.7610765286954,61.1152231375454 136.2949469058076,61.32290216750698 137.5109849871369,61.17456000391394 138.43042841437273,60.96688096958678 139.23123398027383,61.2338968697004 139.94306114967912,61.38223903195467 140.86250457703136,61.50091275945306 141.39637495414354,61.41190746403299 141.69296960823704,61.32290216750698 141.81160746968817,61.1152231375454 142.64207250089385,62.03494450816652 143.2352618087316,62.3019603669527 143.47253753209952,62.62831306934822 144.747894544038,62.835992053791415 145.57835957524367,63.22168157971464 146.08257048705127,63.45902896957705 147.38758696441073,64.28974476992153 147.83247894537635,64.79410788574023 148.75192237261217,65.74349718057783 149.10783595743123,65.98084448388545 150.14591724635102,67.10824406356551 150.29421457333956,67.4642649453599 150.91706334683113,67.87962261756184 152.34071768587455,67.93895942595555 153.34913950937334,66.69288634508848 153.97198828263208,65.50614986906294 154.26858293660916,65.03145522164414 154.86177224456333,63.42936054622987 155.12870743323583,62.03494450816652 155.662577810348,60.40318070212379 155.81087513733655,60.01749101898167 155.57359941408504,58.445063626393676 155.63291834492702,57.822026258625556 155.4253020870965,57.317662634071894 155.57359941408504,56.69462516461499 155.27700476010796,55.83423999522347 155.4549615525175,55.18153393315151 155.84053460264113,54.41015396208968 157.23452947637998,54.05413240782218 158.50988648843486,54.291480112762656 159.22171365784016,54.558496270969044 160.31911387771834,55.003523178282194 161.6241303551942,55.30020776716992 162.06902233615983,55.71556617034366 162.98846576351207,56.486945995595306 164.47143903316464,57.46600488037802 165.3612229952123,58.385726736683864 166.3399853532901,59.69113819341874 166.96283412666526,60.818538798368536 166.99249359196983,61.1152231375454 166.81453679967672,62.2129550818936 167.40772610763088,63.251350003818516 167.5856829000404,64.40841844759416 167.5856829000404,65.15012888656929 167.43738557293545,65.89183924603276 167.5856829000404,66.51487588661257 168.44580739643425,67.315922913549 169.51354815077502,67.82028580881888 169.45422921993304,67.76094899949385 170.7889051628299,68.82901148922974 171.26345660921652,69.18503228243208 172.3015378981363,69.2443690795917 173.2803002562141,69.57072145451093 174.17008421814535,69.98607900040224 175.00054924935102,70.075084185577 176.15726839983836,70.66845205746358 177.19534968875814,70.96513597434387 177.90717685816344,71.6475089348969 178.70798242394812,72.15187151479768 179.36049066262785,73.1902649460244 179.7460637128679,73.99131120095262 180.33925302082207,74.22865822166204 180.84346393251326,74.91103086102521 181.34767484432086,75.3263880868908 182.000183083117,75.68240854633041 183.15690223348793,76.83947491360595 184.13566459168214,77.72952583397273 184.46191871108022,78.41189812892117 184.81783229578286,78.14488289109431 184.84749176120386,78.08554617018672 185.5,77.31416875199648 184.9364701573504,76.69113308243686 184.2543024532497,76.03842898766743 183.2755400951719,75.26705134182703 182.5043939948082,74.67368386365706 181.91120468685403,73.9023060661275 181.0214207249228,73.1902649460244 180.66550714022014,73.07159141893499 180.5172098132316,72.56722890597302 180.01299890130758,71.795850873983 179.68674478202593,71.08380953752203 178.70798242394812,70.22342615830712 178.20377151225694,69.7784002305707 177.58092273888178,68.7993430888746 177.04705236188602,68.5619958821917 176.75045770779252,68.26531186240027 175.8310142804403,67.84995421330677 174.46667887212243,68.08730144443689 173.8141706334427,68.23564345971681 172.18290003656875,67.93895942595555 170.8185646282509,67.4345965393004 170.3143537165597,67.04890724818688 169.75082387402654,66.781891572522 169.0389967043884,65.77316559391329 169.12797510065138,65.09079205436865 169.6025265471544,64.08206582913408 169.7804833393311,63.37002369930269 169.72116440860555,62.65798149607144 169.6025265471544,61.2635653023608 169.3652508239029,60.34384382923599 168.68308311968576,59.27578002930386 167.79329915775452,58.445063626393676 167.02215305739082,57.76268936350243 166.16202856088057,57.19898883468704 165.21292566822376,56.57595135446172 164.6197363602696,56.041919183859136 163.25540095206816,55.15186547435587 162.00970340520144,54.49915934778983 161.5944708896568,54.11346933490131 160.91230318555608,53.816784694907255 159.34035151952412,53.34208924439736 158.00567557674367,52.897062229865696 156.99725375324488,52.8377252924256 156.3744049797533,52.748719885305036 154.6541559867328,52.68938294664258 153.26016111311037,52.80805682356004 152.72629073588178,52.98606763506541 152.4296960820211,54.11346933490131 152.9042475282913,55.27053930895636 153.76437202491798,56.4572775423876 153.85335042106453,57.4066679822281 153.97198828263208,57.822026258625556 154.29824240203016,58.62307429261273 154.2092640058836,59.424122233642265 154.23892347118817,60.818538798368536 154.00164774805307,62.33162879513111 153.55675576708745,63.37002369930269 153.11186378612183,64.05239740858087 152.31105822033715,64.79410788574023 151.1839985352708,65.03145522164414 150.79842548514716,64.88311313767917 149.87898205779493,64.17107109026983 148.6629439764656,63.666707928990945 148.09941413404886,63.07333945686696 147.15031124127563,62.59864464250859 146.40882460633293,62.3019603669527 145.90461369464174,62.0942813665024 144.54027828632388,61.619586485030595 143.50219699728768,61.32290216750698 142.5234346393263,61.2338968697004 141.7522885389626,60.670196624007076 141.218418161734,60.01749101898167 140.56590992305428,59.36478535231436 139.34987184184138,58.53406896011438 138.57872574147768,58.20771606435301 138.0151958988281,58.237384510051925 137.30336872930638,58.62307429261273 136.97711461002473,59.09776938002324 136.44324423291255,59.39445379306562 135.5238008054439,59.45379067410249 133.89253020868637,59.51312755473191 133.18070303904824,59.51312755473191 132.67649212735705,60.13616476999596 132.8247894543456,60.61085975338938 133.2993409007322,60.90754410147201 134.10014646640047,61.055886270769406 134.10014646640047,60.759201929031406 133.2696814353112,60.58119131793501 132.17228121554945,60.55152288224781 131.13419992674608,60.818538798368536 130.807945807348,61.144891570846085 130.12577810324728,61.7085917777149 130.0961186378263,62.50963936111657 129.17667521059047,62.89532890525879 127.8419992675772,63.96339214593172 126.98187477118336,64.79410788574023 125.94379348226357,65.80283400713233 125.35060417430941,66.4258706556866 124.99469058949035,67.04890724818688 124.25320395454764,67.79061740427278 123.12614426936489,69.03669028752483 122.1177224458661,70.075084185577 120.90168436476961,71.02447275619488 120.13053826440591,71.70684571092715 119.71530574874487,71.97386119671864 118.26199194439687,73.01225465460448 117.55016477475874,73.45728037465597 116.18582936644088,74.08031633473001 114.910472354386,74.67368386365706 114.28762358112726,74.85169411246898 113.24954229209106,75.35605645918986 112.2114610032877,75.80108202883275 111.58861223002896,76.27577593829483 110.25393628701568,77.6405207470525 110.07597949460614,78.44156648806529 109.42347125581,79.36128555820324" stroke="#4DD2FF" stroke-dasharray="none" stroke-linecap="round" stroke-linejoin="round" stroke-width="0.5"><title>2026-06-18 10.1km</title><desc>9223370255108266507</desc></polyline><polyline fill="none" opacity="1" points="22.083110431791283,231.0218926576199 22.73309132596478,230.65036344493274 23.568781047011726,230.18595190212363 24.899694306543097,229.5667364654364 25.98299579671584,229.00944252702175 26.50917080626823,228.69983476499328 27.994841421488672,227.46140358404955 29.07814291177783,226.78026634425623 30.09954145969823,225.88240352086723 30.594764998182654,225.17030534037622 31.120940007735044,224.58205026877113 31.95662972878199,223.8080303646857 32.88517386326566,222.44575513206655 33.78276652668137,221.57885257771704 33.93752388237044,221.26924449729268 34.18513565149624,220.89771478332113 35.0208253726596,220.09273367078276 35.918418035958894,219.50447818561224 36.816010699258186,218.48277117643738 37.46599159343168,218.3898887138348 37.837409247295,217.21337741799653 38.79690485296305,216.31551340513397 40.53018723730929,216.12974842305994 41.6753916698508,216.16070925374515 42.57298433315009,216.16070925374515 43.16106228507124,216.16070925374515 43.996752006118186,216.77992583950981 45.23481085221283,216.68704335502116 45.91574321745429,216.40839589445386 46.25620940013323,216.31551340513397 47.30855941923801,216.65608252660604 48.39186090941075,216.9347299776855 49.81562858237885,216.74896501156036 49.81562858237885,216.65608252660604 50.960833014920354,217.21337741799653 51.4251050822204,217.553946496977 52.94172716862522,217.9564372060704 53.7464654186042,218.35892789275385 54.95357279339805,218.94718347117305 55.60355368733872,219.318713285611 56.12972869700752,219.87600797129562 57.12017577374354,220.92867559351726 57.33683607191779,221.57885257771704 58.54394344671164,222.4147943284479 59.627244937000796,223.3745791821275 60.33912877354305,223.74610876874067 60.92720672523137,223.8080303646857 61.731944975210354,223.31265758251539 62.1962170425104,222.53863754245685 62.32002292701509,221.73365661292337 62.75334352313075,220.83579316240503 63.49617883074097,219.04006592661608 63.96045089804102,217.21337741799653 64.02235384029336,216.8418474951759 64.33186855178792,215.04611926543294 64.42472296522465,213.00270383921452 63.83664501341991,211.36177891102852 63.99140236910898,210.27814903651597 64.26996560941916,209.56604931596667 65.04375238833018,208.91587124875514 65.91039358044509,208.94683211040683 67.05559801310301,209.1635581383598 68.54126862832345,209.56604931596667 69.96503630117513,210.27814903651597 71.01738632027991,210.24718818051042 71.48165838746354,210.03046218515374 71.69831868552137,210.55679673404666 72.37925105076283,211.57850486633833 73.46255254105199,212.32156523515005 74.3601452044677,212.97174299502512 74.7315628582146,213.4361556447111 75.13393198314589,213.90056826453656 75.7839128774358,215.13900177105097 76.12437905999832,215.665335946891 76.03152464656159,216.5012783825514 75.69105846399907,217.1824165917351 75.75296140625142,217.83259391330648 76.18628200225066,218.5756536377594 76.68150554073509,219.783125526621 76.61960259836633,220.92867559351726 76.65055406955071,221.36212692275876 77.61004967521876,222.53863754245685 78.50764233863447,223.2816967825638 78.63144822302274,223.5603439778788 79.55999235773925,223.96283435216174 80.36473060760181,224.52012867940357 81.07661444414407,224.79877582698828 83.0575085976161,225.13934454828268 83.83129537641071,225.41799167200224 85.10030569357332,225.7275995746022 85.71933511656243,226.03720746393083 86.83358807803597,226.6873839883483 87.91688956820872,227.36852123693097 88.41211310657673,227.92581530177267 89.27875429892447,228.88559942378197 89.49541459686588,229.31905027583707 89.9906381352339,230.0621088189655 90.45491020253394,230.55748113873415 90.67157050059177,230.86708882130915 91.16679403895978,231.39342185127316 92.21914405794814,232.32224475208204 93.30244554835372,233.22010677622166 94.44764998089522,234.33469396166038 94.78811616357416,234.45853697165148 94.94287351926323,233.96316491888138 95.5,233.25106753373984 95.19048528862186,232.75569539831486 94.26194115390535,232.01263713173103 93.704814673285,231.54822567640804 92.96197936567478,231.0528534244513 92.34294994268566,230.49555960064754 91.87867787538562,229.90730496216565 91.60011463507544,229.28808950155508 90.73347344284412,228.7927170949988 90.30015284672845,228.29734465444926 89.65017195267137,227.21371732244734 88.53591899119783,225.91336430975934 88.28830722207204,225.6347172051901 87.7002292702673,225.01550137874437 87.23595720296726,224.95357979327673 86.1526557126781,224.33436390844872 85.34791746269912,224.0247559461859 84.32651891489513,223.71514797059353 82.96465418417938,223.8080303646857 82.62418800150044,223.59130477666622 81.97420710744336,223.62226557539543 80.79805120371748,223.2816967825638 79.0957202904392,222.32191191642778 78.75525410776027,222.0432646733825 78.44573939626571,221.30020530585898 78.75525410776027,219.99985122890212 78.84810852119699,219.16390919854166 79.0957202904392,218.48277117643738 79.03381734818686,217.30625989561668 78.81715705001261,215.8201401089318 78.41478792519774,214.82939341437304 77.64100114640314,213.86960742407246 76.24818494450301,212.84789961669594 75.41249522357248,212.25964354065945 74.01967902190518,211.42370061320253 73.43160106998403,210.86640527431155 72.53400840668473,210.21622732444666 71.5435613298323,209.93757961370284 70.95548337791115,209.8137361832196 70.70787160866894,209.41124501952436 70.24359954148531,209.13259727763943 69.37695834925398,208.60626262467122 68.35555980133358,208.327614851587 67.24130683986004,207.95608447073027 66.43656858999748,207.67743667255854 65.35326709982473,207.67743667255854 64.4866259075934,207.67743667255854 62.69144058087841,207.58455407072324 61.917653802083805,207.89416273875395 61.51528467715252,207.95608447073027 60.98910966760013,208.6372234876617 61.60813909047283,210.0614230420906 62.25811998476274,211.02120953937992 62.474780282820575,211.7333091161563 62.75334352313075,212.29060438799206 62.72239205206279,212.8788604614674 63.03190676344093,213.93152910470963 63.06285823462531,214.33402001595823 63.06285823462531,214.92227592272684 62.90810087893624,216.71800418337807 62.5676346962573,218.11124131898396 61.917653802083805,219.16390919854166 61.26767290791031,219.96889041468967 60.24627435998991,220.58810667373473 59.286778754438274,220.18561611144105 58.48204050445929,219.8450471565593 57.46064195642248,219.16390919854166 56.90351547580212,218.51373199699447 56.16068016807549,218.14220214111265 55.448796331649646,217.77067226619693 54.48930072598159,217.39914237213088 54.055980129982345,217.30625989561668 53.375047764740884,216.9347299776855 52.5703095147619,216.74896501156036 51.92032862058841,216.43935672397492 51.115590370609425,216.59416086942656 50.46560947666876,216.53223921154859 49.47516239969991,215.57245344802504 49.13469621713739,214.98419759440003 48.26805502490606,214.3030591774732 47.37046236160677,214.02441162470495 46.441918226890266,213.83864658360835 45.45147115015425,214.08633330400335 44.39912113104947,214.45786336867604 44.05865494837053,214.5817067194148 43.50152846775018,214.39594169263728 42.789644631324336,214.36498085438507 41.953954910160974,214.6126675567357 41.45873137190938,214.51978504436556 41.056362246745266,214.51978504436556 40.6539931219304,214.98419759440003 40.46828429505695,215.69629677955527 40.87065341998823,216.12974842305994 42.170615208218805,216.22263091470813 42.232518150587566,215.94398343615467 41.365876958472654,215.69629677955527 40.80875047761947,215.5414926147787 39.44688574702013,215.974944267713 38.67309896834195,216.2535917449859 37.837409247295,217.1204949390958 37.71360336255748,217.86355473677395 37.187428353121504,218.23508460685844 36.32078716089018,218.60661445790902 35.85651509359013,219.13294838083675 34.958922430174425,219.69024308078224 34.37084447836969,220.3404201765079 33.72086358431261,220.95963640359696 32.85422239196487,222.012303867843 31.987581199849956,223.15785358118592 31.616163546103053,223.71514797059353 31.337600305792876,224.0247559461859 30.440007642377168,224.95357979327673 29.759075277019292,225.41799167200224 29.109094382962212,226.09912904020166 28.86148261372,226.37777612684295 28.0876958349254,226.9969918365823 26.973442873568274,227.7710113991634 26.168704623589292,228.14254075981444 24.74493695073761,229.35001105000265 23.197363393264823,230.03114804788493 21.71169277804438,230.68132421333576 20.473633931949735,231.26957878883695 19.637944210902788,231.64110796985915 18.647497134050354,232.29128399060573 18.090370653546415,232.75569539831486 17.254680932383053,233.62259661295684 16.542797095957212,234.64430148270912 16.295185326715,235.01583049056353 15.799961788346991,235.44928097556112 15.242835307726637,236.811553759675 14.933320596115664,238.3595907035633 14.778563240310177,239.4432163676247 14.561902942485176,240.805488401209 14.592854413436726,241.17701709322864 15.02617500955239,241.67238865297986" stroke="#4DD2FF" stroke-dasharray="none" stroke-linecap="round" stroke-linejoin="round" stroke-width="0.5"><title>2026-06-16 10.1km</title><desc>9223370255286294807</desc></polyline><polyline fill="none" opacity="1" points="112.73938814538997,230.4377942167921 114.47399617591873,229.7561363253626 115.06252390076406,229.3223539973842 116.76615678786766,228.3618358929525 117.88126195047516,227.40131766110426 119.30611854686867,226.3168614396127 120.63804971321952,224.9535448162933 121.96998087968677,223.52825898077572 122.8682600382017,222.3818332135561 123.45678776293062,221.35934521380113 124.38604206510354,220.64670197694795 125.22237093711738,219.87208968319464 125.90382409188896,219.28338428435382 126.67820267693605,218.44680284557398 127.26673040166497,218.1989268452162 127.82428298285231,217.79612832627026 127.82428298285231,217.11446924309712 128.2579349904554,216.6806861567311 129.65181644365657,215.96804245817475 131.0766730401665,216.03001147822943 132.3776290632086,216.1229650073219 133.49273422569968,216.27788755315123 134.54588910145685,216.33985657052835 135.66099426383153,216.33985657052835 136.40439770556986,216.15394951670896 137.73632887203712,216.55674812727375 138.5107074569678,216.61871714220615 139.93556405359413,216.92856220930116 140.33824091788847,217.20742275827797 140.9267686426174,217.11446924309712 141.91797323152423,217.54825230344431 142.63040152972098,217.76514382386813 143.18795411090832,217.95105083618546 144.3959847036749,218.50877184444107 145.48011472274084,219.0355083126342 146.06864244746976,219.59322923707077 146.34741873806342,220.1199656262179 146.84302103263326,220.42981054302072 147.24569789681118,220.8016244256869 147.52447418740485,221.20442277693655 148.39177820272744,222.01001941226423 149.2900573614752,223.0015228400589 150.83881453156937,223.83810375153553 151.6751434034668,223.28038315463345 152.2636711281957,221.9480504434905 152.97609942639247,220.1199656262179 153.65755258128047,218.47778734506574 154.18413001915906,216.5257636195165 154.36998087959364,215.56524381478084 154.33900573616847,214.3568477499066 154.4009560229024,213.24140504881507 154.2151051624678,212.03300859464798 154.18413001915906,211.22741084604058 153.9982791588409,210.8555964701809 154.12217973230872,210.17393673135666 154.33900573616847,209.33735423645703 155.02045889105648,208.8416016009869 156.16653919697274,208.8725861418061 157.5604206500575,209.12046246265527 159.32600382412784,209.83310683775926 160.93671128107235,210.2049212664133 161.27743785851635,210.45279754133662 161.86596558324527,211.04150366055546 163.44569789688103,212.21891575457994 164.1581261951942,212.59073006024119 164.5917782027973,213.21042052685516 165.39713193115313,214.04700257244986 166.2024856597418,215.56524381478084 166.29541108978447,216.1229650073219 166.2024856597418,217.05250023241388 165.89273422560655,217.45529879268724 166.63613766734488,218.94255482102744 166.85296367108822,219.9960276557249 166.8839388146298,220.7396554466104 167.3175908222329,221.7931280193152 167.9061185468454,222.72266251477413 168.46367112814914,223.09447627945337 169.20707456965465,223.65219689073274 169.7026768643409,223.83810375153553 171.37533460813574,224.64370009338018 172.7072657744866,224.9535448162933 174.19407265773043,225.38732740614796 174.75162523903418,225.4183118758956 175.5879541109316,225.75914103380637 176.5481835565297,226.28587697370676 177.32256214146037,226.81261287536472 178.2518164436333,227.40131766110426 178.8403441682458,227.8970690224669 179.4288718929747,229.1054628236452 179.73862332710996,229.53924516466213 180.11032504786272,230.00401192967547 180.9776290630689,230.90256092412164 181.90688336535823,231.58421870775055 182.8671128108399,232.45178306679009 183.88929254293907,233.38131619332125 184.7256214149529,234.37281806359533 184.94244741869625,234.0319893109845 184.88049713196233,233.75312941055745 185.5,233.1334407046088 185.22122370940633,232.63768970163073 184.23001912038308,231.80110980727477 182.92906309757382,230.56173200841295 182.3405353729613,230.0969652791391 181.59713193110656,229.16743173106806 180.6369024856249,228.51675817649812 179.7695984704187,227.1224575053202 179.0881453155307,226.1929235754069 178.0040152964648,225.23240505566355 177.63231357559562,224.86059140082216 176.4242829827126,224.0240106076235 175.86673040152527,223.83810375153553 174.53479923517443,223.31136763340328 173.8843212237116,223.3423521120567 172.83116634795442,223.49727450305363 171.77801147219725,223.3423521120567 170.78680688340683,222.9395538798999 170.07437858509365,222.53675562521676 168.68049713189248,221.42131418763893 168.55659655842464,220.3678415606846 168.89732313575223,218.94255482102744 169.11414913961198,217.76514382386813 169.08317399618682,216.463794603711 168.43269598472398,214.69767742970726 167.53441682609264,213.61321930168197 166.41931166348513,212.6836836335715 166.1095602294663,212.43580743524944 165.61395793501288,212.06399312161375 164.9015296366997,211.66119426034857 163.97227533475962,210.91756553418236 163.01204588916153,210.2049212664133 161.9279158700956,209.86409137421288 161.24646271509118,209.33735423645703 160.99866156792268,208.9655397630995 160.47208412992768,209.0275088433409 159.48087954125367,208.37683347437996 158.02504780120216,207.94304986245697 156.90994263871107,207.6022198633873 155.79483747610357,207.5712353171548 154.6487571701873,207.4782816778752 153.44072657753713,207.44729713117704 152.07782026776113,207.50926622445695 151.4892925430322,207.66418895532843 150.9936902486952,208.8416016009869 151.55124282988254,209.80212230118923 152.29464627150446,210.8555964701809 152.57342256221455,211.63020973157836 152.66634799249005,212.3118693327997 152.94512428308371,213.21042052685516 153.06902485655155,213.61321930168197 153.00707456981763,214.0160180539824 153.00707456981763,214.60472388222115 152.82122370938305,216.06099598802393 152.75927342264913,216.89757770317374 152.63537284894846,217.48628329648636 152.38757170177996,218.0440043405979 151.89196940732654,218.8186168303946 151.4273422562983,219.59322923707077 150.68393881455995,219.9960276557249 149.90956022951286,220.243903594499 148.88738049729727,219.71716721443227 148.5156787764281,219.53126024757512 147.4005736138206,218.91157032351475 146.192543021054,218.0130198392435 145.38718929258175,217.6102213099948 144.64378585095983,217.1764382533729 143.68355640536174,216.92856220930116 143.06405353732407,216.64970164961414 142.47552581259515,216.6806861567311 141.88699808809906,216.43281009566272 141.05066921608523,216.4018255873816 140.4931166348979,216.15394951670896 139.74971319315955,215.0385070935008 139.0992351816967,214.66669291409198 138.23193116637412,214.1399561270955 137.33365200774278,213.8610954595497 136.00172084150836,213.92306449770695 134.7627151052002,214.2638941980549 134.3290630975971,214.38783226686064 133.67858508613426,213.61321930168197 132.7803059273865,214.1089716090355 131.57227533473633,214.32586323277792 131.35544933087658,214.17094064498087 130.70497131941374,214.69767742970726 130.5500956022879,215.50327479076805 130.983747609891,215.96804245817475 132.00592734233942,216.06099598802393 132.22275334608275,215.81311990570975 131.72715105174575,215.65819734992692 131.13862332701683,215.22441417595837 130.6430210325634,215.16244514897699 129.00133843219373,215.81311990570975 128.22695984726306,216.55674812727375 127.82428298285231,216.89757770317374 127.29770554497372,218.0130198392435 126.83307839382906,218.0130198392435 125.90382409188896,218.88058582594385 124.72676864243113,219.7481517083943 123.92141491407529,220.77063993620686 123.08508604217786,221.51426764728967 122.43460803059861,222.47478666098323 121.84608030610252,223.09447627945337 121.1646271510981,223.807119275094 120.42122370947618,224.79862245655386 119.80172084143851,225.23240505566355 118.93441682611592,226.1309546424891 118.09808795410208,226.7506439476856 117.63346080319025,227.02950411778875 117.26175908232108,227.37033319985494 116.27055449341424,227.95903794030892 115.31032504793257,228.8266027335776 114.35009560245089,229.3533384502516 112.77036328881513,230.00401192967547 111.65525812620763,230.56173200841295 109.98260038241278,231.2743742685998 108.27896749530919,232.2658764271764 106.7302103250986,233.5982072390034 106.38948374777101,234.0319893109845 105.92485659662634,235.08545994904125 105.39827915886417,235.95302388898563 105.18145315500442,236.44877466512844 104.99560229456984,237.1924007658963 104.84072657756042,237.96701120649232 104.68585086043458,238.7106371516711 104.68585086043458,240.29084203206003 104.5,241.18938975181663 104.62390057370067,242.2428593506338" stroke="#4DD2FF" stroke-dasharray="none" stroke-linecap="round" stroke-linejoin="round" stroke-width="0.5"><title>2026-06-11 10.2km</title><desc>9223370255717407907</desc></polyline></svg>