<?xml version="1.0" encoding="utf-8" ?>
<svg baseProfile="full" height="300mm" version="1.1" viewBox="0,0,200,300" width="200mm" xmlns="http://www.w3.org/2000/svg" xmlns:ev="http://www.w3.org/2001/xml-events" xmlns:xlink="http://www.w3.org/1999/xlink"><defs /><rect fill="#222222" height="300" width="200" x="0" y="0" /><text fill="#FFFFFF" style="font-size:12px; font-family:Arial; font-weight:bold;" x="10" y="20">Over 10km Runs</text><text fill="#FFFFFF" style="font-size:4px; font-family:Arial" x="10" y="280">Runner</text><text fill="#FFFFFF" style="font-size:9px; font-family:Arial" x="10" y="290">Yanfu</text><text fill="#FFFFFF" style="font-size:4px; font-family:Arial" x="65" y="280">SPECIAL TRACKS</text><rect fill="yellow" height="2.6" width="2.6" x="65" y="283" /><text fill="#FFFFFF" style="font-size:3px; font-family:Arial" x="70" y="285.5">Over 20.0 km</text><rect fill="red" height="2.6" width="2.6" x="65" y="287" /><text fill="#FFFFFF" style="font-size:3px; font-family:Arial" x="70" y="289.5">Over 40.0 km</text><text fill="#FFFFFF" style="font-size:4px; font-family:Arial" x="120" y="280">STATISTICS</text><text fill="#FFFFFF" style="font-size:3px; font-family:Arial" x="120" y="285">Number: 3</text><text fill="#FFFFFF" style="font-size:3px; font-family:Arial" x="120" y="290">Weekly: 1.5</text><text fill="#FFFFFF" style="font-size:3px; font-family:Arial" x="141" y="285">Total: 30.4 km</text><text fill="#FFFFFF" style="font-size:3px; font-family:Arial" x="141" y="290">Avg: 10.1 km</text><text fill="#FFFFFF" style="font-size:3px; font-family:Arial" x="167" y="285">Min: 10.1 km</text><text fill="#FFFFFF" style="font-size:3px; font-family:Arial" x="167" y="290">Max: 10.2 km</text><polyline fill="none" opacity="1" points="14.5,99.24951829540078 14.673262032098137,99.24951829540078 15.077540106954984,97.7474687731883 15.683957219240256,96.56316026192508 16.001604277989827,95.60993618829525 16.492513368837535,94.68559756482136 16.810160427819937,93.53017410851317 16.8967914438108,93.18354703328805 17.387700534774922,92.28809367356007 18.196256684605032,91.7392673624854 18.369518716586754,90.55495780304773 18.773796791560017,89.91947453952162 19.091443850309588,89.57284727983642 19.20695187151432,88.82182148957509 19.40909090905916,87.3775408899819 19.3224598930683,86.97314226691378 19.928877005469985,86.0199168457184 19.842245989246294,84.77783503491082 20.102139037451707,84.11346560073434 20.01550802134443,83.0446972438076 20.44866310164798,82.5825270912901 20.535294117522426,81.45598721221904 20.535294117522426,80.47387536981842 20.737433155067265,79.43399208714254 21.661497326218523,78.33633733753231 21.77700534753967,78.10525210434571 21.863636363646947,77.72973858361365 21.921390374191105,76.97871147969272 22.498930481262505,76.45876958960434 23.105347593547776,75.33222869044403 23.740641711163335,74.2056876035349 24.491443850216456,73.71463117349776 25.444385026698,73.19468903224333 26.945989304687828,72.55920413843705 28.303208556142636,71.80817645974457 29.19839572184719,71.43266258898075 29.83368983946275,70.99937732762191 31.364171123015694,70.13280672137626 32.201604278059676,69.49732153938385 33.15454545454122,68.86183629758307 33.87647058814764,68.16857960185735 34.85828876995947,67.15758012622246 35.43582887691446,66.49320895966957 35.92673796787858,65.9732662618917 36.793048128369264,64.99115216793143 37.08181818178855,64.5867522052722 37.83262032084167,63.43132360675372 39.04545454541221,62.24700908767409 39.44973262026906,61.92926613250165 40.05614973255433,61.55375171158812 40.749197861063294,60.889379992499016 41.58663101599086,60.42720832323539 41.702139037428424,59.70506502635544 42.33743315492757,59.21400754028582 43.08823529398069,58.751835755916545 44.12780748656951,58.72295001836028 44.50320855609607,58.751835755916545 45.77379679156002,58.751835755916545 46.40909090905916,58.520749851857545 46.842245989246294,58.60740706679644 47.18877005344257,59.06957886109012 47.650802139076404,59.156236069014994 48.14171122992411,59.12735033314675 48.632620320888236,58.954035915463464 49.354545454494655,58.7807214933855 50.740641711163335,59.09846459716209 51.60695187165402,59.27177901112009 52.76203208556399,59.09846459716209 52.29999999993015,59.30066474634805 54.43689839576837,60.109465282119345 55.62085561489221,60.42720832323539 56.48716577549931,60.83160853560548 58.04652406414971,61.64040888749878 58.47967914433684,62.01592330361018 58.99946524063125,62.50698058534181 59.605882352916524,63.14246642618673 59.92352941178251,63.48909504141193 60.12566844909452,63.89349506990402 60.90534759359434,64.41343792807311 61.511764705879614,65.25112355969031 62.14705882361159,65.94438055533101 62.66684491978958,66.17546620473149 63.7064171123784,64.96226645712159 64.28395721933339,64.06680936046178 64.80374331551138,63.02692355052568 65.49679144378752,61.58263743703719 65.87219251331408,60.340551131695975 66.24759358284064,59.06957886109012 66.39197860960849,58.02969227934955 66.3631016042782,57.50974892821978 66.3631016042782,56.383204862853745 66.27647058817092,54.88114581553964 65.98770053475164,54.10123040858889 66.21871657751035,53.09022882045247 66.65187165769748,52.31031320572947 67.80695187160745,52.079227080219425 69.019786096178,52.28142744052457 70.81016042781994,52.85914272186346 71.61871657765005,53.234657628054265 72.74491978611331,53.55240099391085 73.20695187163074,54.15900192328263 74.59304812829942,55.083346091385465 75.86363636364695,56.065461630845675 76.38342245994136,56.61429084034171 77.3074866309762,58.14523524083779 77.27860962564591,59.30066474634805 76.90320855611935,59.90726515726419 76.96096256689634,60.225008207926294 77.10534759354778,60.86049426413956 77.53850267385133,61.64040888749878 77.94278074870817,62.56475202794536 77.8272727271542,63.37355217165896 77.74064171116333,64.24012364656664 78.52032085566316,64.90449503509444 79.81978609622456,65.53998064986081 80.31069518707227,65.7999520204612 81.0903743315721,66.40655184615753 82.76524064177647,66.86872310534818 83.34278074861504,67.07092302123783 84.2668449197663,67.30200863201753 85.13315508014057,67.47532283485634 86.08609625662211,67.82195122726262 87.41443850274663,68.5729793496721 87.99197860970162,69.06403615369345 88.48288770054933,69.26623600383755 88.97379679151345,69.61286430424661 89.55133689846843,70.56609203835251 89.78235294111073,71.49043395507033 90.07112299464643,71.80817645974457 90.79304812836926,72.44366142412764 91.83262032084167,73.22357470775023 92.23689839569852,73.65685982644209 92.72780748654623,73.97460222913651 93.8828877004562,74.92782934749266 94.34491978609003,75.62108534915023 94.7491978610633,75.82328500287258 94.77807486627717,75.44777135542245 95.5,74.66785832858295 94.57593582884874,73.68574550005724 93.65187165769748,72.90583226975286 93.13208556140307,72.55920413843705 92.75668449199293,72.15480462950654 91.7748663101811,71.20157711970387 91.45721925131511,70.85494890096015 90.85080213902984,70.47943497725646 90.73529411759228,70.07503534367424 90.04224598931614,69.03515046040411 90.01336898398586,68.74629351991462 88.82941176462919,68.05303681225632 87.90534759359434,67.15758012622246 86.98128342244308,66.49320895966957 86.37486631015781,65.85772343480494 85.13315508014057,65.74218060568091 84.70000000006985,65.74218060568091 83.60267379670404,65.82883772766218 82.85187165765092,65.71329489807249 81.23475935833994,65.10669500997756 80.1951871656347,65.02003787865397 79.93529411754571,64.5867522052722 79.41550802136771,63.17135214485461 79.67540106957313,62.47809486387996 80.10855614964385,61.29378017716226 80.0219251337694,59.99392235439154 80.0219251337694,58.838492967915954 79.704278074787,57.8852635747171 79.09786096261814,57.07646277159802 77.79839572182391,55.94991863364703 76.72994652402122,55.1122318446578 75.54598930478096,54.47674524545437 74.99732620327268,53.92791586142266 74.24652406410314,53.321314911183435 73.35133689839859,53.09022882045247 72.34064171125647,52.541399323235964 72.05187165760435,52.31031320572947 71.73422459885478,51.877026713948 70.72352941171266,51.617054805508815 69.79946524067782,51.385968656191835 69.0486631016247,51.18376826902386 68.1823529410176,50.89491056249244 66.99839572189376,50.89491056249244 65.69893048121594,50.83713901974261 64.7459893047344,50.75048170462833 64.19732620322611,50.86602479117573 63.56203208549414,51.010453646595124 63.273262032074854,51.47262596312794 63.302139037521556,52.050341314054094 63.47540106950328,52.62805661527091 63.76417112292256,53.14800034387736 64.28395721933339,53.81237282749498 64.63048128341325,54.24565919445013 64.89037433150224,55.1122318446578 64.91925133683253,55.92103288407088 64.80374331551138,56.55651934671914 65.0058823529398,57.68306338303955 64.91925133683253,59.156236069014994 64.4860962566454,60.48497978359228 63.90855614969041,61.90038040856598 62.92673796787858,62.68029491146444 62.03155080205761,62.79583779317909 61.078609625576064,62.30478053246043 60.38556149729993,61.90038040856598 59.981283422443084,61.69818033752381 59.17272727272939,60.947151448985096 58.537433154997416,60.62940843246179 57.90213903738186,60.311665400862694 57.122459893114865,59.96503662216128 56.747058823588304,59.90726515726419 56.256149732507765,59.676179292902816 55.649732620222494,59.56063635775354 55.072192513383925,58.954035915463464 54.350267379544675,58.954035915463464 54.032620320795104,58.954035915463464 52.271122994599864,57.65417764094309 51.95347593573388,57.30754872522084 51.11604278080631,56.67206233346951 49.7588235293515,56.29654761927668 49.036898395745084,56.58540509364684 48.28609625669196,57.047577026765794 47.33315508021042,57.33643446888891 46.784491978469305,57.42309169910732 45.94705882354174,57.01869128187536 45.34064171125647,57.22089149354724 44.647593582747504,57.30754872522084 44.214438502676785,57.538634670956526 44.01229946524836,57.97192079783417 44.12780748656951,58.520749851857545 44.41657754010521,58.751835755916545 45.57165775401518,58.954035915463464 45.744919786113314,58.72295001836028 45.080748663051054,58.4340926357836 43.983422459918074,58.376321157760685 42.48181818192825,58.63629280490568 41.73101604275871,59.32955048137228 41.38449197856244,60.28277967005852 40.922459893045016,60.65829416186898 39.940641711233184,61.26489445049083 39.47860962559935,61.58263743703719 38.15026737959124,62.7669520729105 37.19732620322611,63.777952207106864 36.61978609627113,64.5867522052722 36.01336898386944,65.30889497871976 35.580213903682306,65.68440919028944 35.08930481271818,66.31989473156864 34.656149732647464,66.86872310534818 33.47219251329079,67.82195122726262 32.259358288836665,69.06403615369345 31.364171123015694,69.81506413785974 29.862566844909452,70.594977725239 28.938502673758194,71.25934848783072 28.274331550695933,71.57709100330248 27.379144384991378,71.98149054686655 26.51283422461711,72.24146166926948 25.55989304801915,72.79028956129332 24.231550802127458,73.48354578233557 23.798395721940324,73.59908847886254 23.047593582770787,74.26345894590486 22.239037433173507,74.78340100485366 21.921390374191105,75.36111435687053 21.31497326202225,76.48765525119961 21.02620320848655,76.80539752077311 20.506417112308554,78.13413775898516 20.333155080094002,79.49176338483812 20.217647058772855,80.1561332725687 20.13101604266558,81.3115590090456 19.95775401056744,82.29367072993773 19.95775401056744,83.65129552115104 19.87112299457658,84.14235122967511 19.668983957264572,84.86449191285647 19.611229946487583,85.29777628573356" stroke="#4DD2FF" stroke-dasharray="none" stroke-linecap="round" stroke-linejoin="round" stroke-width="0.5"><title>2026-06-20 10.1km</title><desc>9223370254938036107</desc></polyline><polyline fill="none" opacity="1" points="108.31628926214762,84.51402531031636 108.6712929145433,83.15277095456258 108.9671292915009,82.38336620043265 109.17421475518495,81.67314635153161 109.67713659594301,81.31803639983991 109.61796932062134,80.90374143316876 109.8842220598599,80.75577893899754 110.1208911613794,80.31189143771189 110.41672753822058,79.48330135919969 111.12673484289553,78.95063625628245 111.57048940833192,77.76693588102353 112.31008035049308,76.61282782023773 113.78926223516464,75.81382981920615 115.03177501820028,75.3699420010089 115.32761139504146,75.25157191135804 115.94886778667569,74.89646163026919 116.74762600427493,74.45257375319488 118.01972242514603,73.86072320613312 119.05514974426478,73.32805767041282 119.55807158502284,73.03213235508883 120.97808619425632,71.84843096707482 122.01351351349149,71.19739511731314 122.98977355728857,70.33921140339226 123.46311176044401,69.65858286488219 123.96603360120207,69.0963244564191 124.76479181880131,68.35651069128653 125.65230094955768,67.05443827208364 126.51022644271143,66.22584660488064 126.65814463107381,65.92992098527611 126.89481373259332,65.5748102251091 127.69357195030898,64.80540351523086 128.5514974433463,64.24314471150865 129.40942293638363,63.26658983819652 130.03067932790145,63.177812115551205 130.38568298029713,62.05329419692862 131.30277574865613,61.1951093460666 132.95945945940912,61.01755384641001 134.05405405396596,61.04714642997715 134.9119795471197,61.04714642997715 135.47406866319943,61.04714642997715 136.2728268809151,61.638998075330164 137.45617238862906,61.55022033175919 138.1070124177495,61.28388709426508 138.43243243242614,61.1951093460666 139.43827611394227,61.52062775034574 140.47370343306102,61.78696097875945 141.83455076697282,61.609405494324164 141.83455076697282,61.52062775034574 142.92914536152966,62.05329419692862 143.37289992696606,62.37881256060791 144.82249817391858,62.76351606159005 145.5916727539152,63.14821954112267 146.7454346239101,63.71047843404813 147.3666910151951,64.06558929025778 147.86961285606958,64.59825554021518 148.81628926214762,65.60440278911847 149.02337472618092,66.22584660488064 150.17713659605943,67.0248457143025 151.2125639152946,67.94221494815429 151.8929875822505,68.29732558657997 152.45507669833023,68.35651069128653 153.22425127832685,67.88302983995527 153.66800584376324,67.14321594481589 153.78634039440658,66.37380940988078 154.20051132212393,65.51562509656651 154.91051862679888,63.799256149854045 155.35427319223527,62.05329419692862 155.41344046744052,61.69818323710933 155.70927684439812,59.98181334033143 155.79802775755525,58.02870224817889 155.2359386413591,56.46029445523163 155.38385682972148,55.42455326401978 155.65010956896003,54.74392325349618 156.38970051135402,54.12247840256896 157.2180423666723,54.152071015763795 158.31263696134556,54.359219304751605 159.73265157057904,54.74392325349618 161.09349890437443,55.42455326401978 162.09934258589055,55.39496065620915 162.54309715121053,55.18781239839154 162.750182615011,55.690886727999896 163.40102264424786,56.6674426747486 164.43644996348303,57.377665094449185 165.29437545663677,57.99910965163144 165.64937910879962,58.4429985867464 166.03396639879793,58.88688749325229 166.65522279043216,60.07059110412956 166.98064280499239,60.573665077157784 166.89189189195167,61.3726648412412 166.56647187739145,62.02370161758154 166.62563915271312,62.645145755814156 167.03981008031406,63.355367559648585 167.5131482834695,64.50947783474112 167.4539810080314,65.60440278911847 167.48356464575045,66.01869867244386 168.40065741422586,67.14321594481589 169.2585829072632,67.8534372857248 169.37691745790653,68.11977026969544 170.26442658877932,68.50447345065186 171.03360116877593,69.03713935805717 171.71402483573183,69.30347229642211 173.60737764788792,69.6289903181605 174.3469685902819,69.89532323370804 175.5598977355985,70.1912486833462 176.15157048939727,70.4871741203242 177.21658144635148,71.10861749664764 178.25200876547024,71.75965335479123 178.72534696862567,72.29231901135063 179.55368882406037,73.20968754580826 179.76077428774443,73.62398297307664 180.23411249089986,74.33420364779886 180.67786705633625,74.80768405713025 180.88495252013672,75.10360929646413 181.35829072305933,75.6066821742861 182.36413440457545,76.49445775186177 183.39956172392704,77.35264070186531 184.49415631848387,78.41797111247433 184.8195763331605,78.53634114796296 184.9674945216393,78.06286099381396 185.5,77.38223321552505 185.20416362315882,76.90875298238825 184.31665449228603,76.19853257201612 183.78414901392534,75.75464477846981 183.0741417093668,75.28116443392355 182.48246895545162,74.74849900777917 182.03871439001523,74.18624101325986 181.7724616508931,73.59439044338069 180.9441197954584,73.12090995101607 180.52994886774104,72.64742942622979 179.90869247633964,71.61169066512957 178.84368151938543,70.36880394699983 178.60701241786592,70.10247104978771 178.04492330178618,69.51062013022602 177.6011687363498,69.45143503553118 176.56574141711462,68.85958406017744 175.796566837118,68.56365855349577 174.82030679332092,68.26773303409573 173.5186267348472,68.35651069128653 173.19320672017056,68.14936282279086 172.57195032876916,68.17895537585719 171.44777209649328,67.8534372857248 169.82067202334292,66.93606804002775 169.4952520087827,66.6697350104514 169.1994156318251,65.95951354774297 169.4952520087827,64.71662581237615 169.5840029218234,63.91762643569382 169.82067202334292,63.26658983819652 169.76150474802125,62.142071933922125 169.55441928410437,60.721628003404476 169.16983199422248,59.77466522046598 168.4302410519449,58.85729490034282 167.09897735563572,57.88073926413199 166.3002191381529,57.31847989562084 164.96895544207655,56.51947966142325 164.4068663258804,55.98681278710137 163.54894083284307,55.36536804836942 162.60226442664862,55.09903457170003 162.04017531045247,54.980664134345716 161.80350620881654,54.59596019881428 161.35975164349657,54.32962669242988 160.53140978806186,53.82655226334464 159.5551497443812,53.56021872712881 158.490138787427,53.205107329500606 157.72096420743037,52.93877376927412 156.68553688831162,52.93877376927412 155.85719503299333,52.93877376927412 154.14134404668584,52.849995913595194 153.4017531045247,53.14592209478724 153.01716581452638,53.205107329500606 152.51424397376832,53.85614487779094 153.10591672745068,55.217405007075286 153.7271731190849,56.13477581186453 153.93425858288538,56.815405684901634 154.20051132212393,57.34807249510777 154.1709276845213,57.910331861203304 154.46676406136248,58.91648008595803 154.49634769908153,59.301183780131396 154.49634769908153,59.86344298685435 154.34842951071914,61.57981291311444 154.0230094960425,62.91147894086316 153.4017531045247,63.91762643569382 152.78049671289045,64.68703324455419 151.80423666909337,65.278884577594 150.88714390073437,64.89418121692142 150.11796932073776,64.56866297186934 149.14170927670784,63.91762643569382 148.60920379846357,63.29618241213029 147.89919649378862,62.94107151631033 147.21877282683272,62.58596060227137 146.30168005847372,62.230849669867894 145.88750913075637,62.142071933922125 145.23666910163593,61.78696097875945 144.4674945216393,61.609405494324164 143.84623813000508,61.313479676726274 143.07706355000846,61.46144258714048 142.45580715860706,61.40225742329494 141.5091307524126,60.48488731987891 141.18371073785238,59.92262816391303 140.35536888241768,59.27159118905547 139.49744338938035,59.00525786343496 138.60993425850756,58.82770230740425 137.66325785242952,59.06444304782781 136.65741417079698,59.41955414324184 136.33199415623676,59.537924504402326 135.79948867787607,59.36036896199221 135.11906501103658,59.33077637117822 134.3203067932045,59.567517094284995 133.8469685902819,59.47873932408402 133.46238130016718,59.47873932408402 133.0777940102853,59.92262816391303 132.90029218408745,60.603257662645774 133.28487947408576,61.01755384641001 134.52739225700498,61.10633159682038 134.58655953244306,60.839998342096806 133.75821767712478,60.603257662645774 133.22571219864767,60.45529473380884 131.92403214017395,60.869590926507954 131.1844411980128,61.13592418003827 130.38568298029713,61.96451645868365 130.26734842942096,62.67473833251279 129.7644265886629,63.02984924195334 128.93608473334461,63.3849601331749 128.49233016790822,63.888033864466706 127.6344046748709,64.42070012810291 127.07231555879116,65.04214405047242 126.45105916727334,65.63399535301141 125.62271731183864,66.64014245086582 124.79437545652036,67.73506706728949 124.43937180424109,68.26773303409573 124.17311906500254,68.56365855349577 123.3151935718488,69.45143503553118 122.66435354261193,69.89532323370804 122.04309715121053,70.54635920617147 121.8064280495746,70.81269208629965 121.06683710729703,71.40454289433546 120.00182615045924,72.14435633306857 119.23265157046262,72.49946675557294 117.87180423655082,73.65357550259796 116.39262235211208,74.30461112115881 114.9726077427622,74.9260541543481 113.78926223516464,75.48831208865158 112.99050401744898,75.84342233947245 112.04382761125453,76.46486523438944 111.51132213301025,76.90875298238825 110.71256391517818,77.73734336905181 110.03214024822228,78.7138961974415 109.79547114681918,79.06900628274889 109.32213294366375,79.48330135919969 108.78962746530306,80.78537143804715 108.49379108834546,82.26499623068958 108.34587289986666,83.30073339751107 108.1387874360662,84.60280275903642 108.16837107366882,84.95791254250798 108.58254200126976,85.43139222546597 108.0796201605117,86.61509129145998 108.0796201605117,87.17734827697859 107.90211833443027,87.68042027807678 107.78378378378693,88.74574910118827 107.48794740682933,89.21922852561693 107.19211102987174,89.98863252144656 107.22169466759078,91.05396099027712 107.10336011683103,91.43866289718426 106.95544192846864,92.23765909727081 106.42293644987512,92.9478778647026 106.27501826151274,93.98361343692522 106.0975164353149,94.36831518160761 105.53542731911875,94.90097910061013 104.9733382029226,95.75915977312252 104.79583637684118,96.23263871957897" stroke="#4DD2FF" stroke-dasharray="none" stroke-linecap="round" stroke-linejoin="round" stroke-width="0.5"><title>2026-06-16 10.1km</title><desc>9223370255286294807</desc></polyline><polyline fill="none" opacity="1" points="19.586250451160595,232.76328080226085 19.673944424372166,231.8860787327576 19.937026344356127,230.83343610103475 20.521652832976542,230.04395402100636 20.726272103842348,229.48839250270976 20.843197401729412,229.16675160315935 21.164741970365867,228.46498958786833 22.129375676624477,227.7339874120953 22.62630819203332,226.330463015649 23.181703356211074,225.6579408068501 24.614038253435865,224.89769823040115 25.90021652833093,224.34213629411533 26.33868639485445,224.0789753612189 27.683327318751253,223.49417325173272 28.764886322664097,223.02633152808994 29.78798267780803,222.35380899425945 31.13262360158842,221.38888524321374 32.4188018765999,220.51168171485187 33.67574882716872,219.28359658579575 34.90346445317846,217.9677908452577 36.13118007942103,216.65198485105066 36.51118729705922,215.8332609931822 37.27120173233561,215.0730173229822 37.97275351861026,214.48821444204077 38.966618549311534,213.46480927977245 39.434319740277715,213.26012822889606 40.223565499763936,212.26596303714905 40.77896066394169,212.1782425720594 41.12973655713722,211.68115991537343 41.100505232810974,211.0963567434519 41.97744496562518,210.33611254487187 43.643630458274856,210.16067156396457 44.520570191321895,210.16067156396457 45.894442439544946,210.30687238177052 46.62522555037867,210.59927400789456 48.29141104291193,210.51155352135538 48.8468062072061,210.33611254487187 49.84067123779096,210.65775433156523 50.62991699751001,210.6869944932114 51.71147600142285,210.71623465477023 52.6468783832388,211.0963567434519 53.08534824976232,211.242557541118 53.81613136047963,211.3887583356991 54.8099963911809,211.82736070049577 55.1900036088191,211.94432132630027 56.330025261617266,212.47064411785686 57.58697221218608,212.96772671691724 58.08390472759493,213.52328957887948 58.40544929623138,213.6987304732611 58.66853121621534,214.22505312931025 59.13623240694869,214.51745458730147 59.45777697581798,214.89757646396174 59.808552868897095,215.4531391687342 61.036268495139666,216.5350243059802 62.11782749905251,217.17830727918772 63.43323709862307,217.23678754648427 63.87170696503017,216.65198485105066 64.45633345365059,214.86833632038906 65.21634788881056,213.23088807822205 65.7132804042194,211.6226796004339 66.0932876218576,210.16067156396457 66.06405629729852,209.57586826157058 66.0932876218576,207.73373753062333 66.18098159518559,207.3828554301581 65.91789967520162,206.06704739219276 65.83020570187364,205.54072410575463 65.74251172854565,205.13136152154766 65.88866835075896,204.51731759900576 66.21021291951183,203.75707266575773 67.0579213279998,203.37695016726502 68.31486827856861,203.61087170732208 69.95182244677562,203.96175400231732 71.50108264165465,204.6342783504806 72.46571634779684,204.8389596605848 72.87495488999411,205.3360428167507 73.89805124502163,206.15476793597918 75.06730422226246,206.76881171073182 75.59346806211397,207.23665454960428 76.41194514615927,208.20158030319726 76.87964633700904,209.10802558343858 77.34734752797522,209.95599041381502 77.40581017686054,210.45307319637504 77.0550342835486,211.41799849420204 77.28888487908989,212.20748272712808 77.90274269215297,213.49404942939873 77.9612053410383,214.13733268945361 77.9612053410383,214.86833632038906 78.3996752074454,215.86250113270944 79.2181522914907,216.73970525857294 80.00739805132616,217.23678754648427 80.2704799710773,217.4999487430032 81.41050162399188,218.05551123587065 83.07668711652514,218.58183355579968 84.30440274265129,218.93271507980535 85.00595452904236,218.93271507980535 85.53211836889386,219.10815583504154 86.64290869713295,219.75143856575596 87.43215445696842,220.19004039285937 88.04601226991508,220.59940207278123 88.92295200296212,221.21344454653445 89.65373511367943,222.2076084347209 89.97527968231589,222.8216507639445 90.35528689995408,223.2310122861236 90.61836881993804,223.52341335837264 91.75839047273621,224.69301752228057 92.57686755678151,225.42402002308518 93.3368819920579,226.21350263617933 94.50613496929873,227.2661459785595 94.91537351137958,227.3831063399266 94.8276795380516,227.324626159505 95.20768675568979,226.5059035808954 95.5,226.18426254109363 95.06153013347648,225.5702205139096 93.57073258748278,224.57605711490032 92.57686755678151,223.64037378379726 92.37224828579929,223.40645293102716 91.58300252619665,222.32456888264278 90.58913749549538,221.30116489544162 89.85835438466165,220.3947212359053 88.98141465173103,219.40055708377622 88.27986286533996,218.87423482703161 87.54907975462265,218.2601921428868 86.73060267046094,217.6169092716591 85.59058101766277,217.17830727918772 84.9767232045997,217.03210660879267 84.33363406709395,217.23678754648427 83.28130638750736,217.14906714536482 82.02435943705495,216.94438620499568 81.35203897510655,216.68122498702724 80.03662937565241,215.92098141124006 79.56892818468623,214.48821444204077 79.7443161313422,213.66949032453704 79.97816672676709,212.67532519245287 80.00739805132616,211.06711658352287 79.83201010467019,209.80978958850028 78.86737639841158,208.1723401307827 77.9612053410383,207.4413357814774 77.37657885230146,206.91501260132645 77.08426560810767,206.68109117491986 76.58733309281524,206.35944920041948 75.62269938655663,205.80388575411052 74.48267773364205,204.8974400337902 73.86881992069539,204.48807741087512 72.75802959222347,204.13719514300465 72.52417899679858,203.66935209106305 72.02724648138974,203.66935209106305 71.70570191263687,203.28922958762269 70.47798628651071,202.7921462819213 69.04565138940234,202.47050412357203 67.96409238537308,202.20734234628617 66.56098881259095,202.14886194994324 66.21021291951183,202.1781021481729 64.33940815587994,202.03190115577308 63.57939372071996,202.20734234628617 63.02399855654221,202.8213864773861 62.99476723198313,203.64011189926532 63.930169613915496,205.01440077865846 64.39787080476526,205.8916063013021 64.6024900758639,206.50565009977436 64.33940815587994,206.94425277912524 64.86557199561503,207.73373753062333 64.83634067128878,208.1138597857789 64.77787802240346,208.4939820196887 64.6609527246328,209.42966742810677 64.69018404907547,210.65775433156523 64.51479610253591,211.1840772224532 64.33940815587994,211.94432132630027 64.01786358724348,212.55836457916303 63.63785636948887,213.20164792748983 62.84861060988624,213.93265165877528 62.29321544570848,214.13733268945361 61.56243233487476,214.07885239561438 60.74395525082946,213.64025017566746 60.30548538430594,213.43556912997155 58.90238181175664,212.38292365544476 57.99621075426694,211.94432132630027 57.294658967875876,211.56419928494142 56.534644532599486,211.1840772224532 55.599242150899954,210.89167562147486 55.30692890647333,210.74547481621266 54.72230241796933,210.6869944932114 53.93305665825028,210.65775433156523 53.37766149407253,210.42383303368115 52.6468783832388,210.13143140007742 51.91609527252149,209.1372657517495 51.50685673044063,208.87410423229448 50.51299169973936,208.3770213345415 49.05142547818832,208.1430999583681 47.85294117650483,208.43550167736248 47.41447130998131,208.5817025321012 46.91753879468888,208.43550167736248 46.09906171064358,208.2308204753499 45.280584626598284,208.43550167736248 44.49133886676282,208.5817025321012 44.22825694701169,208.52322219061898 43.58516780950595,209.48814776184736 43.819018404814415,210.07295107180835 44.43287621799391,210.16067156396457 45.19289065315388,210.1899117277353 45.07596535549965,209.83902975384262 44.579032840090804,209.80978958850028 43.93594370270148,209.3711870938714 42.97130999644287,209.75130925752455 41.94821364141535,210.13143140007742 41.24666185490787,210.8624354606145 41.100505232810974,211.59343944280408 40.340490797534585,212.11976226139814 39.93125225557014,212.23672288213857 38.64507398044225,213.23088807822205 37.73890292306896,214.34201371396193 37.15427643444855,214.80985603277804 36.13118007942103,216.09642224397976 35.57578491512686,216.68122498702724 35.22500902204774,217.0028664743004 34.55268856009934,217.67538953511394 33.85113677382469,218.58183355579968 33.35420425841585,219.07891570954234 32.535727174254134,219.95611942189862 31.629556116997264,220.45320147564053 31.24954889935907,220.71636254817713 30.60645976185333,221.359645127377 29.96337062434759,221.59356605028734 28.764886322664097,222.5292496616894 27.50793937209528,223.1432919620711 26.660230963490903,223.55265346492524 25.023276795400307,224.283656087704 23.386322627193294,225.01465863230987 21.924756405642256,226.1550224457751 20.960122699383646,227.0029851581785 20.492421508417465,227.96790811681421 20.22933958854992,228.37726933087106 19.761638397700153,229.2252317678358 19.586250451160595,229.69307306734845 19.35239985573571,230.65799564667395 19.323168531176634,231.41823758307146 19.264705882407725,232.64632053286186 19.08931793575175,233.49428244101 19.323168531176634,234.22528400173178 19.177011909079738,235.3364062246983 19.235474557848647,235.80424710683292 18.797004691441543,236.82764892510022 18.943161313654855,237.23700960964197 18.270840851706453,238.40661143080797 18.329303500591777,239.0791323876765 17.890833634068258,240.16101378863095 17.627751714317128,241.0674548310344 17.16005052323453,242.38325613125926 16.95543125225231,243.0557766984566 16.400036087958142,243.5528570752649 15.78617827501148,244.28385756417993 15.46463370625861,245.42421817145078 15.084626488620415,246.79849865182769 14.5,247.96809884422692" stroke="#4DD2FF" stroke-dasharray="none" stroke-linecap="round" stroke-linejoin="round" stroke-width="0.5"><title>2026-06-11 10.2km</title><desc>9223370255717407907</desc></polyline></svg>