<?xml version="1.0" encoding="utf-8" ?>
<svg baseProfile="full" height="300mm" version="1.1" viewBox="0,0,200,300" width="200mm" xmlns="http://www.w3.org/2000/svg" xmlns:ev="http://www.w3.org/2001/xml-events" xmlns:xlink="http://www.w3.org/1999/xlink"><defs /><rect fill="#222222" height="300" width="200" x="0" y="0" /><text fill="#FFFFFF" style="font-size:12px; font-family:Arial; font-weight:bold;" x="10" y="20">Over 10km Runs</text><text fill="#FFFFFF" style="font-size:4px; font-family:Arial" x="10" y="280">Runner</text><text fill="#FFFFFF" style="font-size:9px; font-family:Arial" x="10" y="290">Yanfu</text><text fill="#FFFFFF" style="font-size:4px; font-family:Arial" x="65" y="280">SPECIAL TRACKS</text><rect fill="yellow" height="2.6" width="2.6" x="65" y="283" /><text fill="#FFFFFF" style="font-size:3px; font-family:Arial" x="70" y="285.5">Over 20.0 km</text><rect fill="red" height="2.6" width="2.6" x="65" y="287" /><text fill="#FFFFFF" style="font-size:3px; font-family:Arial" x="70" y="289.5">Over 40.0 km</text><text fill="#FFFFFF" style="font-size:4px; font-family:Arial" x="120" y="280">STATISTICS</text><text fill="#FFFFFF" style="font-size:3px; font-family:Arial" x="120" y="285">Number: 4</text><text fill="#FFFFFF" style="font-size:3px; font-family:Arial" x="120" y="290">Weekly: 2.0</text><text fill="#FFFFFF" style="font-size:3px; font-family:Arial" x="141" y="285">Total: 40.5 km</text><text fill="#FFFFFF" style="font-size:3px; font-family:Arial" x="141" y="290">Avg: 10.1 km</text><text fill="#FFFFFF" style="font-size:3px; font-family:Arial" x="167" y="285">Min: 10.1 km</text><text fill="#FFFFFF" style="font-size:3px; font-family:Arial" x="167" y="290">Max: 10.2 km</text><polyline fill="none" opacity="1" points="14.5,96.06693692080444 14.651515151723288,95.52132000995334 15.257575757685117,94.82414278521901 15.31818181835115,94.2482137219049 15.651515151606873,93.00541926862206 15.560606060666032,92.15668146836106 15.954545454471372,91.42919184477068 16.287878787959926,90.5501417836058 16.166666666744277,89.36797084019054 16.287878787959926,87.97361511568306 16.348484848625958,87.67049426981248 16.68181818188168,87.09456462704111 16.863636363763362,85.30615122802556 16.92424242431298,84.91209397785133 17.348484848509543,83.42680106905755 18.136363636353053,82.82055897609098 18.227272727293894,82.51743791019544 18.378787878900766,81.78994729928672 18.46969696972519,81.18370506650535 19.166666666744277,80.63808701268863 19.83333333337214,79.0012325993739 20.560606060666032,78.24342950229766 21.439393939450383,77.66749909427017 22.651515151606873,77.27344141970389 24.287878787959926,76.42470173869515 25.742424242431298,75.69721050246153 26.469696969841607,75.33346485637594 27.46969696972519,74.78784635220654 28.439393939450383,74.15129137755139 29.409090909175575,73.45411205396522 30.166666666744277,72.78724481054815 31.439393939450383,71.60507090663305 32.13636363646947,70.90789133223007 32.7424242424313,70.21071168908384 33.65151515160687,69.30134683405049 33.98484848497901,68.63447919930331 34.37878787878435,68.02823584043654 35.46969696972519,66.60356374253752 36.378787878900766,65.84575931815198 36.86363636364695,65.60326188523322 37.59090909094084,64.93639390170574 38.5,64.51202333392575 38.98484848497901,63.51172118046088 39.43939393945038,63.11766271753004 39.83333333337214,62.5720432709204 41.22727272741031,62.268921338021755 41.77272727282252,62.268921338021755 42.95454545458779,62.268921338021755 43.68181818188168,62.23860914388206 44.16666666674428,62.056735977123026 44.62121212121565,62.450794499367476 45.04545454552863,62.72360423253849 45.43939393945038,62.72360423253849 46.13636363646947,62.632667655998375 46.590909091057256,62.5720432709204 47.77272727282252,62.420482306100894 48.893939393921755,62.72360423253849 50.13636363635305,62.814540807914454 50.59090909094084,62.90547738218447 51.7424242424313,63.329848046414554 52.83333333337214,63.96640399500029 54.13636363646947,64.23921366973082 55.37878787878435,64.84545735357096 56.53030303027481,65.60326188523322 56.92424242431298,65.96700803155545 57.34848484850954,66.36106633563759 57.92424242431298,67.11887070472585 58.28787878784351,67.60386545833899 58.62121212121565,67.78573848237284 59.621212121332064,68.75572786486009 60.34848484850954,69.60446846537525 60.772727272706106,70.08946304849815 61.46969696972519,69.63478062784998 62.59090909094084,68.11917234759312 62.833333333488554,67.66448980016867 63.68181818188168,66.2398176289862 64.28787878795993,64.54233551817015 64.53030303039122,63.4207846140489 64.92424242431298,62.23860914388206 64.98484848497901,61.389867658843286 64.98484848497901,60.02581862953957 64.98484848497901,59.20738908543717 64.80303030309733,58.05552512186114 64.53030303039122,57.20678313355893 64.86363636364695,55.9942944017821 65.62121212133206,55.32742551033152 67.34848484850954,55.478986627596896 68.68181818188168,55.812421074020676 69.95454545447137,56.26710438466398 71.19696969701909,56.691475447965786 71.89393939403817,56.93397318711504 72.77272727282252,58.05552512186114 74.37878787878435,58.995203632628545 74.9848484848626,59.66207217721967 76.0151515151374,60.87456027872395 76.53030303027481,62.48110669240123 76.16666666674428,63.17828709789319 75.9848484848626,63.69359430979239 76.07575757568702,64.20890148414765 76.59090909082443,64.90608171909116 76.89393939403817,65.75482278177515 77.04545454541221,66.81574896682287 76.95454545447137,67.63417762937024 77.0151515151374,68.30104535841383 78.5,69.24072250619065 78.86363636364695,69.42259548814036 79.68181818188168,69.93790224491386 81.16666666674428,70.63508191489382 82.53030303039122,70.96851564577082 83.31818181823473,71.12007642735261 83.92424242431298,71.30194936098997 84.9848484848626,71.54444659856381 86.2272727272939,72.27193826134317 87.34848484850954,72.90849340497516 87.83333333325572,73.18130273470888 88.46969696972519,73.66629707271932 88.80303030309733,73.84816994093126 89.40909090905916,75.57596195588121 89.53030303027481,75.87908331857761 89.9848484848626,76.03064399503637 90.89393939403817,76.87938372330973 91.86363636376336,77.60687483806396 92.40909090905916,78.21311737672659 93.16666666662786,78.91029623203212 94.10606060607824,79.60747501871083 94.59090909094084,80.3652779700351 94.74242424254771,80.06215679924935 94.86363636364695,79.5468507790938 94.83333333325572,78.33436587819597 94.16666666674428,77.75843547761906 93.19696969690267,76.97032011672854 92.89393939392176,76.63688666844973 92.10606060607824,76.15189253381686 91.43939393945038,75.30315271840664 90.7424242424313,74.78784635220654 90.5,74.57566136703826 89.95454545458779,73.42379990790505 89.80303030309733,72.93880555324722 88.92424242431298,72.30225041235099 88.10606060607824,71.60507090663305 87.2575757575687,70.8169548609294 86.28787878784351,70.02883872750681 85.34848484850954,69.60446846537525 84.40909090917557,69.63478062784998 83.68181818176527,69.81665359961335 82.65151515160687,69.57415630284231 81.25757575768512,69.33165899774758 80.16666666674428,68.93760085920803 79.28787878784351,68.81635219685268 78.80303030309733,67.66448980016867 78.62121212121565,66.60356374253752 79.07575757580344,65.633574064821 79.40909090917557,64.54233551817015 79.34848484850954,63.057038336701225 79.13636363635305,61.81423841405194 78.37878787890077,60.75331147789257 77.71212121215649,59.965194222168066 76.2575757575687,58.87395479955012 75.19696969701909,58.298022813978605 74.28787878784351,57.54021749831736 73.80303030309733,57.17647091782419 72.83333333337214,56.4792899194872 71.4696969698416,56.024606622580905 71.04545454541221,55.751796630444005 70.77272727282252,55.26680106262211 70.0151515151374,54.933366590412334 69.13636363646947,54.660556555958465 68.34848484850954,54.53930764837423 67.59090909105726,54.236185370304156 66.01515151525382,54.11493645538576 64.62121212121565,54.05431199714076 64.04545454552863,53.96337530884193 62.80303030309733,53.933063079137355 62.2575757575687,54.11493645538576 61.80303030309733,54.44837096630363 61.65151515160687,55.024303266138304 61.7424242424313,55.5092988506658 62.13636363646947,56.2367921647965 62.378787878900766,56.81272431864636 62.833333333488554,57.358344210428186 63.318181818234734,58.298022813978605 63.196969697019085,59.11645246355329 63.227272727293894,59.60144776664674 63.469696969608776,60.78362367831869 63.378787878900766,62.14767256117193 63.34848484862596,63.26922366739018 62.65151515160687,65.08795481256675 61.621212121332064,66.20950545201777 60.95454545458779,66.63387591781793 59.530303030391224,66.14888109767344 59.075757575803436,66.11856892035576 58.46969696972519,65.633574064821 57.86363636364695,64.87576953636017 57.04545454552863,64.42108678031946 56.56060606054962,64.14827711263206 55.86363636364695,63.78453087277012 55.015151515137404,63.60265774570871 54.68181818188168,63.4207846140489 53.893939393921755,63.238911477674264 53.37878787878435,62.93578957329737 52.92424242431298,62.420482306100894 52.10606060619466,62.632667655998375 50.65151515160687,61.420179856417235 49.89393939403817,61.02612127678003 49.59090909094084,60.60175047401572 48.31818181835115,59.90456981421448 47.28787878784351,59.75300879206043 46.13636363646947,60.328940658830106 45.772727272706106,60.69268707674928 44.59090909094084,60.93518467829563 44.13636363635305,60.69268707674928 43.196969697019085,60.510813870118 42.530303030391224,60.78362367831869 41.92424242431298,60.87456027872395 41.53030303027481,61.26861886685947 41.46969696972519,61.81423841405194 41.71212121215649,62.20829694980057 42.530303030391224,62.359857919218484 43.287878787959926,62.48110669240123 43.04545454552863,62.11736036656657 42.34848484862596,62.02642378222663 40.74242424254771,61.96579939202638 39.65151515160687,62.23860914388206 38.80303030309733,63.208599287841935 38.409090909175575,64.23921366973082 37.77272727282252,64.33015022566542 37.106060606078245,65.14857917599147 35.86363636376336,65.87607149669202 34.71212121215649,67.14918287779437 33.86363636364695,67.90698716242332 33.2575757575687,68.84666436264524 32.7424242424313,69.45290765131358 32.28787878784351,69.87727792252554 31.772727272706106,70.63508191489382 30.863636363763362,71.45351013541222 29.92424242431298,72.63568406470586 28.924242424196564,73.48442419990897 27.28787878784351,74.4847249428858 26.257575757568702,75.06065560958814 25.4393939395668,75.48502554453444 24.196969697019085,76.09126826468855 23.560606060549617,76.2731410706183 22.560606060666032,76.87938372330973 21.530303030391224,77.42500206636032 20.500000000116415,77.87968398683006 20.07575757591985,77.9706203675014 18.742424242431298,79.06185684370575 18.439393939450383,79.5468507790938 18.07575757591985,80.3652779700351" stroke="#4DD2FF" stroke-dasharray="none" stroke-linecap="round" stroke-linejoin="round" stroke-width="0.5"><title>2026-06-20 10.1km</title><desc>9223370254938036107</desc></polyline><polyline fill="none" opacity="1" points="104.5,99.26372869830811 104.58709677425213,98.42154357917025 105.22580645175185,96.94045915227616 105.86451612925157,95.3722517619317 106.27096774207894,94.0654119947576 106.61935483885463,93.25226712445146 107.08387096785009,92.58432662274572 107.43225806462578,92.49720394378528 107.80967741936911,92.09063142730156 107.92580645170528,90.81283193198033 108.01290322595742,90.40625931505929 108.50645161303692,89.7964003442612 108.94193548394833,88.4314776880492 108.82580645172857,87.21175933841732 109.49354838719591,86.22436813361128 109.43548387102783,85.52738602043246 109.58064516144805,84.51095364423236 109.60967741941568,83.58164391035098 109.60967741941568,83.00082526219194 109.66774193558376,82.01343344667112 109.78387096791994,80.24193600672879 110.30645161308348,78.9350933371461 110.65483870985918,78.67372477307799 111.00322580663487,77.80249615377397 111.20645161299035,77.27975892854738 112.19354838714935,76.55373493788647 112.94838709686883,75.15976865839912 114.16774193558376,73.94004792915075 114.60322580649517,73.64963819945115 116.1709677419858,72.9526547974383 117.21612903231289,72.48799915629206 118.23225806467235,72.02334348348086 119.82903225813061,71.09403204228147 120.32258064521011,70.86170416206005 121.25161290331744,70.1937614622293 121.71612903231289,69.8452695927117 122.84838709689211,69.00308083416894 123.6903225807473,68.18993296803092 124.61935483873822,67.17349799827207 125.49032258079387,66.47651393097476 126.33225806464907,65.37295567773981 126.9129032259807,64.41460231199744 127.551612903364,63.57241287876968 127.92903225810733,63.3110437230207 128.27741935499944,62.99159251895617 128.65483870962635,62.58501823747065 129.67096774210222,62.03323881630786 130.42580645170528,61.07488497812301 130.74516129039694,61.07488497812301 131.32580645172857,60.552146463654935 131.2096774193924,60.05844894074835 131.47096774203237,59.622833449509926 132.02258064527996,59.07105378693086 132.86451612913515,58.75160238277749 133.9677419355139,58.75160238277749 135.10000000009313,58.780643420119304 136.14516129042022,58.72256134523195 137.01612903224304,59.15817689450341 137.62580645165872,59.15817689450341 139.04838709696196,58.8968075683224 139.8612903226167,58.92584860511124 140.73225806467235,59.27434103624546 141.28387096791994,59.4195462106436 142.15483870974276,59.30338207134628 141.95161290338729,59.15817689450341 142.61935483885463,59.10009482290479 142.90967741934583,59.30338207134628 143.75161290331744,60.087489972560434 144.2161290324293,60.377900283172494 145.2032258065883,60.52310543390922 145.95806451619137,60.81351572589483 146.77096774196252,61.19104908691952 147.78709677420557,61.71378755196929 148.54193548392504,62.35269006565795 148.8612903226167,62.99159251895617 149.64516129042022,63.601453895447776 150.28387096780352,64.2984382584691 150.98064516147133,64.9954225498368 151.27096774196252,65.51816072131624 152.28709677432198,66.30226790290908 153.6516129032243,65.1987096213561 154.2032258065883,64.03706913077622 154.72580645175185,63.07871557609178 155.27741935499944,62.062279839621624 155.62580645165872,60.87159778288333 156.11935483873822,59.012971714517334 156.38064516126178,58.11269952918519 156.43870967754629,57.328591399185825 156.26451612915844,55.99270326452097 156.20645161299035,55.55708751134807 156.0322580646025,55.092430677090306 156.1774193549063,54.308322196797235 156.00322580651846,53.32092620324693 156.23548387095798,52.682022836466786 157.0193548387615,52.13024260743987 158.3548387098126,52.2754479352443 159.4000000001397,52.478735388926 160.06774193560705,52.79818708950188 161.3741935484577,53.23380302047008 162.47741935495287,53.524213625554694 162.7096774193924,53.959829509665724 164.1903225807473,55.034348570537986 165.2354838710744,55.64421066423529 166.28064516140148,56.92201677741832 166.97741935495287,57.9094122449751 167.41290322586428,58.8968075683224 167.23870967747644,59.24530000099912 167.44193548394833,60.66831058144453 167.8483870968921,62.062279839621624 167.93548387114424,62.78830538125476 167.81935483869165,63.485289827978704 167.96451612911187,64.09515116002876 168.1096774195321,64.50172535085585 169.1258064515423,65.34391466865782 170.0838709678501,65.60528374600108 170.5774193549296,66.01185784622794 171.2161290323129,66.59267794713378 171.97096774203237,66.99925198816345 173.3935483872192,67.20253899952513 173.7419354839949,67.28966200249852 174.8741935484577,67.69623600176419 175.91935483866837,68.10280997658265 177.1967741936678,68.62554790845024 177.77741935488302,69.11924480705056 178.3870967742987,69.46773671387928 179.22903225803748,70.54225331381895 179.5774193549296,71.18115499522537 180.18709677434526,71.79101563512813 180.59354838717263,72.19758936448488 181.08709677425213,72.691286003188 181.60967741941568,73.12690065463539 182.48064516135491,73.82388403880759 183.61290322593413,74.81127704383107 184.42580645170528,75.76962894084863 184.60000000009313,76.06003857994801 184.91935483878478,75.76962894084863 184.91935483878478,75.45017832354642 185.47096774203237,74.66607219912112 184.68709677411243,73.91100695679779 183.90322580654174,73.44635138125159 182.88709677418228,72.45895817776909 182.21935483871493,71.90717956027947 181.60967741941568,71.09403204228147 180.94193548394833,70.80362219078233 180.6516129032243,70.60033528739586 180.47741935483646,69.75814662250923 179.92580645170528,69.14828580000903 179.3161290322896,68.3932199436822 178.7354838710744,67.84144099557307 178.1838709678268,66.88308797893114 177.37096774205565,66.4184319220949 177.10967741941568,66.12802187041962 176.67419354838785,65.72144777711947 175.19354838714935,65.72144777711947 174.49677419359796,65.95377583341906 173.24838709679898,65.77952979190741 171.7096774193924,65.51816072131624 170.98387096787337,65.05350457091117 170.40322580654174,64.55980737615027 169.4741935484344,64.09515116002876 169.44516129035037,63.252961687074276 169.5903225807706,62.78830538125476 169.93870967754629,61.53954140143469 170.14193548390176,60.9877618952014 170.05483870964963,60.11653100416879 169.76451612904202,58.72256134523195 169.2419354839949,57.531878700858215 168.48709677427541,56.631606318376726 168.0516129032476,56.225031654699706 166.89032258058432,55.440923305781325 166.39677419350483,55.12147173011908 165.1774193549063,54.221199026709655 164.30645161296707,53.49517256551189 162.94193548394833,52.88531027795398 162.27419354836456,52.478735388926 161.63548387109768,51.98503727646312 160.64838709693868,51.60750340149389 159.5451612903271,51.25901057504234 158.38387096778024,50.881476659473265 157.39677419362124,50.93955880170688 156.11935483873822,50.82339451671578 154.3483870968921,50.73627130166278 153.59354838717263,50.910517730604624 153.18709677422885,51.6946266052837 153.24516129028052,52.56585858145263 154.17419354850426,53.93078845163109 154.551612903364,55.17955383594381 154.37741935497615,55.5861285624851 154.87096774205565,56.28311375100748 154.90000000002328,57.183386179909576 154.92903225810733,57.938453285896685 154.90000000002328,59.50666931379237 154.26129032263998,61.07488497812301 153.97096774203237,61.568582426873036 153.30322580656502,62.43981313102995 152.43225806462578,62.84638742118841 151.70645161299035,62.7592643610551 151.15483870974276,62.55597721639788 150.13870967749972,61.91707472194685 149.26774193544406,61.39433627258404 148.48387096787337,60.639269552222686 147.78709677420557,60.34885925272829 147.11935483873822,60.05844894074835 145.87096774205565,59.56475138186943 145.17419354850426,59.4195462106436 144.18709677434526,59.24530000099912 143.3741935484577,59.012971714517334 142.5903225807706,57.99653536756523 141.80645161296707,57.64804287048173 140.79032258084044,56.83489364106208 140.0645161290886,56.428318989579566 139.3096774193691,56.225031654699706 138.49677419359796,56.34119584684959 138.20645161299035,56.86393468658207 137.62580645165872,57.183386179909576 136.6967741935514,57.328591399185825 135.76774193556048,57.29955035552848 134.66451612918172,57.35763244261034 134.0838709678501,57.61900182830868 133.8225806452101,58.31598680728348 134.2290322581539,58.780643420119304 134.78064516128507,58.8096844573156 135.3612903227331,58.8968075683224 134.7225806452334,58.60639719400206 133.7354838710744,58.40310992463492 132.51612903235946,58.69352030765731 132.08064516133163,58.8096844573156 131.67419354850426,59.39050517595024 131.32580645172857,60.14557203568984 130.74516129039694,60.75543366849888 129.70000000018626,61.42337729857536 128.48064516135491,62.294608021416934 127.63870967761613,63.13679761355161 126.79677419364452,64.09515116002876 126.44838709686883,64.61788940094993 125.78064516140148,65.1987096213561 124.99677419371437,66.15706287606736 123.77741935488302,67.49294900518726 122.7612903227564,68.42226093975478 122.15161290334072,68.88691685922095 121.30967741936911,69.58390067884466 120.3806451613782,70.13567948518903 119.13225806457922,70.94882711805985 118.40645161294378,71.32635991447023 117.24516129039694,71.84909759793663 115.99677419371437,72.45895817776909 115.5322580646025,72.60416306962725 113.96451612911187,73.24306455699843 113.5580645162845,73.59155625200947 112.54193548392504,74.66607219912112 111.6709677419858,75.62442411665688 111.46774193563033,76.37948916855385 110.48064516135491,77.54112754613743 110.2483870969154,77.88961902062874 109.98709677427541,78.49947905819863 109.72580645163544,79.77728086407296 109.6967741936678,80.47426356610958" stroke="#4DD2FF" stroke-dasharray="none" stroke-linecap="round" stroke-linejoin="round" stroke-width="0.5"><title>2026-06-18 10.1km</title><desc>9223370255108266507</desc></polyline><polyline fill="none" opacity="1" points="19.0,231.78267468436388 19.7653061223682,230.58843890565913 21.295918367337435,229.76166017289506 22.58163265301846,229.30233861348825 22.88775510189589,229.17985285934992 23.53061224485282,228.8123955843621 24.357142857159488,228.35307396401186 25.67346938769333,227.74064509104937 26.744897959171794,227.1894590604934 27.2653061223682,226.88324458076386 28.734693877515383,225.65838653076207 29.80612244887743,224.9847145138774 30.816326530533843,224.0966922127991 31.306122448993847,223.39239858527435 31.826530612190254,222.81059075368103 32.65306122449692,222.04505406093085 33.571428571478464,220.6977092825109 34.45918367349077,219.84030792769045 34.61224489798769,219.53409313311568 34.85714285704307,219.1666353623732 35.68367346946616,218.37047679413809 36.57142857136205,217.78866855351953 37.459183673374355,216.7781593913678 38.10204081633128,216.68629491492175 38.46938775514718,215.52267811173806 39.41836734698154,214.63465463422472 41.1326530611841,214.450925625104 42.2653061223682,214.48154712689575 43.15306122449692,214.48154712689575 43.73469387751538,214.48154712689575 44.56122448982205,215.0939771363628 45.785714285681024,215.0021126382635 46.459183673374355,214.72651913703885 46.795918367337435,214.63465463422472 47.836734693846665,214.97149113868363 48.908163265208714,215.24708463053685 50.31632653053384,215.0633556371904 50.31632653053384,214.97149113868363 51.44897959183436,215.52267811173806 51.90816326532513,215.85951457428746 53.408163265441544,216.2575940095121 54.20408163277898,216.65567342255963 55.39795918366872,217.23748175543733 56.040816326392815,217.60493962554028 56.56122448982205,218.15612639521714 57.54081632650923,219.1972568439669 57.755102040828206,219.84030792769045 58.94897959183436,220.66708780737827 60.02040816331282,221.61635347717674 60.72448979597539,221.98381112189963 61.30612244899385,222.04505406093085 62.10204081633128,221.55511053453665 62.56122448982205,220.78957370726857 62.68367346934974,219.99341532005928 63.11224489798769,219.10539239866193 63.84693877550308,217.32934622478206 64.30612244899385,215.52267811173806 64.3673469388159,215.1552201344166 64.67346938780975,213.37917297746753 64.76530612248462,211.35815326083684 64.18367346934974,209.7352127705817 64.33673469373025,208.66345941397594 64.61224489787128,207.95916426327312 65.37755102047231,207.3161121084122 66.23469387751538,207.3467336408794 67.3673469388159,207.5610843646573 68.83673469396308,207.95916426327312 70.24489795928821,208.66345941397594 71.28571428579744,208.63283788709668 71.7448979591718,208.41848719550762 71.95918367349077,208.93905314960284 72.6326530611841,209.94956342253136 73.70408163266256,210.6844798946404 74.59183673479129,211.3275317455409 74.95918367349077,211.78685446071904 75.35714285715949,212.24617714626947 76.00000000011642,213.4710374964634 76.33673469396308,213.99160308158025 76.2448979591718,214.81838363868883 75.90816326532513,215.49205661431188 75.96938775514718,216.13510803173995 76.39795918366872,216.8700238665333 76.8877551020123,218.06426193652442 76.82653061219025,219.1972568439669 76.85714285715949,219.6259575728327 77.80612244899385,220.78957370726857 78.69387755112257,221.5244890630711 78.81632653053384,221.8000823019538 79.7346938776318,222.19816140603507 80.53061224496923,222.74934782116907 81.2346938776318,223.02494101290358 83.19387755100615,223.3617771215504 83.95918367349077,223.6373702896526 85.21428571431898,223.94358490838204 85.82653061219025,224.24979951395653 86.92857142863795,224.89285014302004 88.0,225.56652216851944 88.48979591834359,226.11770832410548 89.34693877561949,227.0669732702081 89.56122448970564,227.4956735271262 90.05102040816564,228.2305881935754 90.51020408165641,228.720531262632 90.72448979597539,229.02674566372298 91.21428571420256,229.54731011553667 92.25510204071179,230.4659531735233 93.32653061219025,231.35397468414158 94.45918367349077,232.45634606142994 94.79591836745385,232.5788317595143 94.94897959183436,232.08888895448763 95.5,231.38459611363942 95.19387755112257,230.894653226831 94.27551020402461,230.15973883395782 93.72448979597539,229.70041730004596 92.98979591834359,229.21047429804457 92.37755102047231,228.65928838087711 91.91836734686513,228.07748097763397 91.64285714284051,227.46505208103918 90.78571428568102,226.97510892606806 90.35714285715949,226.48516573751112 89.71428571431898,225.41341489559272 88.6122448979877,224.12731367326342 88.3673469388159,223.8517205241369 87.78571428579744,223.2392912657233 87.32653061230667,223.17804833705304 86.2551020408282,222.56561902089743 85.45918367337435,222.25940434314543 84.44897959183436,221.95318965229671 83.10204081621487,222.04505406093085 82.7653061223682,221.83070377225522 82.1224489796441,221.86132524249842 80.95918367349077,221.5244890630711 79.27551020402461,220.5752233809908 78.93877551017795,220.29963009490166 78.6326530611841,219.56471461307956 78.93877551017795,218.27861233818112 79.03061224496923,217.4518321819487 79.27551020402461,216.7781593913678 79.21428571431898,215.61454260302708 78.99999999988358,214.1447105993866 78.60204081633128,213.16482242866186 77.83673469396308,212.21555563481525 76.45918367337435,211.20504568319302 75.63265306130052,210.62323685816955 74.25510204094462,209.79645581461955 73.67346938780975,209.24526839895407 72.78571428579744,208.60221636015922 71.80612244899385,208.3266226114356 71.22448979597539,208.20413649751572 70.97959183668718,207.8060566125787 70.52040816331282,207.53046283312142 69.66326530603692,207.00989677611506 68.65306122449692,206.73430296574952 67.55102040816564,206.36684453539783 66.7551020408282,206.09125070023583 65.68367346934974,206.09125070023583 64.82653061230667,206.09125070023583 63.05102040816564,205.99938608612865 62.28571428579744,206.3056014618487 61.88775510201231,206.36684453539783 61.3673469388159,207.04051830992103 61.97959183668718,208.4491087233182 62.622448979644105,209.39837601868203 62.836734693846665,210.10267102712533 63.11224489798769,210.65385837649228 63.081632653134875,211.23566719895462 63.38775510201231,212.27679865754908 63.41836734698154,212.67487829271704 63.41836734698154,213.25668695033528 63.26530612248462,215.03273413784336 62.928571428521536,216.41070147865685 62.28571428579744,217.4518321819487 61.64285714284051,218.2479908526293 60.632653061300516,218.86042053892743 59.68367346946616,218.46234124881448 58.88775510212872,218.12550490914145 57.877551020355895,217.4518321819487 57.32653061230667,216.80878088320605 56.59183673467487,216.4413229721249 55.88775510201231,216.07386504212627 54.93877551017795,215.70640709321015 54.51020408165641,215.61454260302708 53.83673469396308,215.24708463053685 53.04081632650923,215.0633556371904 52.39795918366872,214.75714063772466 51.60204081621487,214.91024813911645 50.95918367349077,214.84900513890898 49.97959183680359,213.89973856927827 49.64285714295693,213.31792996422155 48.785714285681024,212.64425678312546 47.89795918366872,212.3686631906894 46.97959183668718,212.1849341233028 46.0,212.42990621220088 44.959183673374355,212.7973643298028 44.62244897952769,212.9198503649095 44.07142857136205,212.73612131160917 43.3673469388159,212.70549980225042 42.54081632650923,212.95047187327873 42.05102040816564,212.8586073476472 41.65306122438051,212.8586073476472 41.255102040828206,213.31792996422155 41.07142857136205,214.02222458535107 41.46938775514718,214.450925625104 42.75510204071179,214.54279013024643 42.81632653065026,214.26719661121024 41.95918367349077,214.02222458535107 41.408163265208714,213.86911706492538 40.06122448970564,214.2978181138751 39.295918367337435,214.57341163168894 38.46938775514718,215.43081361916848 38.34693877538666,216.16572952643037 37.826530612190254,216.53318745165598 36.969387755030766,216.9006453579641 36.510204081539996,217.42121069290442 35.622448979411274,217.97239747666754 35.04081632650923,218.6154486707528 34.39795918366872,219.22787832544418 33.540816326392815,220.26900861790637 32.68367346934974,221.40200317563722 32.31632653065026,221.95318965229671 32.04081632650923,222.25940434314543 31.153061224380508,223.17804833705304 30.479591836570762,223.6373702896526 29.83673469396308,224.31104243348818 29.59183673467487,224.58663556491956 28.826530612190254,225.1990647079656 27.72448979585897,225.9646010629367 26.928571428521536,226.3320584842004 25.520408163196407,227.5262949730386 23.98979591834359,228.19996675063157 22.520408163196407,228.84301702462835 21.295918367337435,229.4248243655311 20.469387755030766,229.7922816092032 19.489795918227173,230.43533174006734 18.938775510294363,230.894653226831 18.11224489787128,231.75205325661227 17.408163265208714,232.7625603027409 17.16326530603692,233.13001737516606 16.67346938769333,233.55871726910118 16.12244897952769,234.90605962579139 15.816326530650258,236.4371301784413 15.66326530603692,237.50887937069638 15.448979591950774,238.8562209851807 15.479591836687177,239.22367774520535 15.908163265208714,239.71362006268464 15.387755101895891,240.9384757099324 15.387755101895891,241.52028206910472 15.20408163254615,242.04084561369382 15.08163265301846,243.14321534830378 14.775510204141028,243.63315739820246" stroke="#4DD2FF" stroke-dasharray="none" stroke-linecap="round" stroke-linejoin="round" stroke-width="0.5"><title>2026-06-16 10.1km</title><desc>9223370255286294807</desc></polyline><polyline fill="none" opacity="1" points="109.3673469388159,230.7109254336683 110.53061224496923,229.94538962241495 111.78571428591385,229.3023394777556 112.94897959183436,228.81239647162147 113.59183673479129,228.41431775438832 115.30612244899385,227.74064602871658 115.88775510224514,227.31194580666488 117.57142857159488,226.3626809377456 118.67346938792616,225.41341594292317 120.08163265313487,224.34166499087587 121.39795918378513,222.99432070896728 122.71428571443539,221.5857332336018 123.60204081633128,220.4527387584094 124.18367346946616,219.44223002088256 125.1020408164477,218.7379359678598 125.92857142875437,217.97239887481555 126.6020408164477,217.39059062919114 127.3673469388159,216.56381040910492 127.94897959195077,216.31883847370045 128.5,215.92075906065293 128.5,215.24708615720738 128.92857142863795,214.81838518555742 130.30612244911026,214.1140906762448 131.71428571431898,214.17533367982833 133.00000000011642,214.26719818421407 134.1020408164477,214.42030568886548 135.14285714295693,214.48154868977144 136.2448979591718,214.48154868977144 136.9795918368036,214.29781968536554 138.29591836745385,214.69589918892598 139.06122448982205,214.75714218750363 140.46938775514718,215.06335717253387 140.8673469388159,215.3389506477979 141.44897959195077,215.24708615720738 142.42857142875437,215.67578710307134 143.13265306130052,215.89013756636996 143.68367346946616,216.07386652979767 144.8775510204723,216.62505339167546 145.94897959183436,217.1456187221338 146.53061224496923,217.6968055011821 146.80612244899385,218.21737075352576 147.29591836745385,218.52358559006825 147.69387755100615,218.891043376585 147.96938775514718,219.28912262397353 148.82653061230667,220.08528105227742 149.71428571431898,221.06516822677804 151.2448979592882,221.89194792573107 152.07142857147846,221.34076147037558 152.65306122461334,220.02403809939278 153.3571428571595,218.21737075352576 154.03061224496923,216.5944319004775 154.55102040816564,214.66527768940432 154.7346938776318,213.7160111402045 154.70408163277898,212.52177239878802 154.76530612248462,211.41939799842658 154.58163265301846,210.22515887237387 154.55102040816564,209.42899934377056 154.36734693893231,209.06154106982285 154.4897959183436,208.38786751840962 154.70408163277898,207.56108625454362 155.3775510204723,207.07114175654715 156.5102040816564,207.1017632887233 157.8877551020123,207.34673554083565 159.63265306130052,208.05103071877966 161.2244897959754,208.41848904488143 161.56122448982205,208.66346125165 162.1428571428405,209.2452702091541 163.70408163277898,210.40888798166998 164.40816326544154,210.77634618617594 164.83673469396308,211.38877648487687 165.63265306130052,212.21555730467662 166.42857142863795,213.7160111402045 166.5204081631964,214.26719818421407 166.42857142863795,215.18584316287888 166.1224489796441,215.5839226168464 166.8571428571595,217.05375425476814 167.07142857147846,218.09488481516019 167.1020408164477,218.82980041351402 167.53061224496923,219.8709307149402 168.1122448979877,220.7895749725867 168.66326530615333,221.1570326424553 169.39795918366872,221.70821911207167 169.88775510212872,221.89194792573107 171.54081632662565,222.6881060639862 172.8571428572759,222.99432070896728 174.32653061230667,223.42302118981024 174.8775510204723,223.45364265178796 175.70408163266256,223.79047872440424 176.65306122461334,224.31104353268165 177.41836734698154,224.8316083031823 178.33673469396308,225.41341594292317 178.91836734686513,225.90335918177152 179.50000000011642,227.09759568597656 179.80612244911026,227.52629592095036 180.17346938780975,227.98561757273274 181.03061224485282,228.8736393491854 181.94897959195077,229.5473109682207 182.89795918378513,230.4047111189575 183.90816326532513,231.32335402374156 184.7346938776318,232.30323965894058 184.94897959183436,231.96640398696763 184.88775510212872,231.69081115262816 185.5,231.07838259398704 185.2244897959754,230.5884397093905 184.2448979591718,229.76166101556737 182.95918367349077,228.53680351591902 182.3775510204723,228.0774818995269 181.6428571428405,227.15883857826702 180.69387755100615,226.5157881831983 179.83673469396308,225.13782285625348 179.16326530615333,224.21917915757513 178.0918367347913,223.26991387817543 177.7244897959754,222.90245631686412 176.53061224485282,222.07567673479207 175.9795918368036,221.89194792573107 174.66326530615333,221.37138294125907 174.02040816331282,221.40200441202614 172.97959183668718,221.55511176370783 171.93877551017795,221.40200441202614 170.95918367349077,221.0039252823335 170.2551020408282,220.60584613040555 168.8775510203559,219.50347297883127 168.75510204094462,218.46234262373764 169.0918367347913,217.05375425476814 169.30612244899385,215.89013756636996 169.27551020414103,214.60403469006997 168.6326530611841,212.85860898712417 167.7448979592882,211.78685615083668 166.64285714295693,210.86821073433384 166.33673469396308,210.62323860329343 165.84693877550308,210.25578039087122 165.1428571428405,209.85770063946256 164.2244897960918,209.12278411682928 163.27551020414103,208.41848904488143 162.20408163277898,208.08165224670665 161.53061224496923,207.56108625454362 161.28571428579744,207.19362788426224 160.7653061223682,207.25487094727578 159.78571428591385,206.61181875917828 158.34693877550308,206.18311726814136 157.2448979592882,205.84628036431968 156.1428571428405,205.81565882678842 155.0102040816564,205.72379421349615 153.81632653065026,205.69317267544102 152.46938775514718,205.75441575137665 151.88775510212872,205.90752343891654 151.39795918378513,207.07114175654715 151.94897959195077,208.02040919079445 152.68367346946616,209.06154106982285 152.95918367360719,209.82707911916077 153.05102040828206,210.5007525345427 153.32653061242308,211.38877648487687 153.44897959183436,211.78685615083668 153.38775510212872,212.18493579456117 153.38775510212872,212.76674446457764 153.20408163266256,214.20595518138725 153.14285714295693,215.03273567464203 153.02040816331282,215.61454411246814 152.77551020414103,216.1657310097944 152.28571428579744,216.93126829655375 151.82653061230667,217.6968055011821 151.09183673467487,218.09488481516019 150.32653061230667,218.33985668967944 149.31632653076667,217.81929144629976 148.94897959195077,217.63556252780836 147.8469387756195,217.0231327653746 146.65306122449692,216.13510951655917 145.8571428571595,215.7370300932671 145.12244897976052,215.3083291510702 144.17346938780975,215.06335717253387 143.56122448982205,214.78776368667604 142.9795918368036,214.81838518555742 142.39795918378513,214.57341319025727 141.57142857136205,214.54279169021174 141.02040816342924,214.29781968536554 140.28571428579744,213.19544555962784 139.64285714295693,212.8279874798027 138.78571428568102,212.30742183426628 137.89795918378513,212.03182824183023 136.5816326532513,212.0930712633417 135.3571428571595,212.42990787193412 134.92857142863795,212.55239390744828 134.28571428579744,211.78685615083668 133.39795918378513,212.2768003246165 132.20408163277898,212.49115088995313 131.98979591846,212.33804334385786 131.3469387756195,212.85860898712417 131.19387755100615,213.65476813266287 131.6224489795277,214.1140906762448 132.63265306130052,214.20595518138725 132.84693877550308,213.96098316501593 132.3571428572759,213.8078756504692 131.77551020414103,213.37917459238088 131.28571428579744,213.31793158192886 129.66326530626975,213.96098316501593 128.89795918390155,214.69589918892598 128.5,215.03273567464203 127.97959183680359,216.13510951655917 127.52040816331282,216.13510951655917 126.6020408164477,216.99251127592288 125.43877551017795,217.84991293225903 124.64285714295693,218.86042189510772 123.81632653076667,219.59533741453197 123.17346938780975,220.5446031820029 122.59183673479129,221.1570326424553 121.91836734698154,221.8613264571759 121.18367346946616,222.84121338819386 120.57142857147846,223.26991387817543 119.71428571443539,224.15793624008074 118.8877551020123,224.7703653909266 118.42857142863795,225.04595849174075 118.06122448993847,225.38279448938556 117.08163265313487,225.96460208430653 116.13265306130052,226.82200266426662 115.18367346958257,227.342567251937 113.6224489796441,227.98561757273274 112.52040816331282,228.53680351591902 110.8673469388159,229.24109660380054 109.18367346946616,230.22098252392607 107.65306122461334,231.53770401782822 107.31632653076667,231.96640398696763 106.85714285715949,233.00753237644676 106.3367346940795,233.86493211297784 106.1224489796441,234.35487477347488 105.93877551029436,235.08978870150167 105.78571428579744,235.85532396304188 105.63265306130052,236.59023773734225 105.63265306130052,238.1519292574376 105.44897959183436,239.03994977410184 105.57142857159488,240.0810771365068 105.69387755112257,240.78536909003742 105.32653061242308,241.39779681962682 105.29591836745385,242.28581693471642 105.14285714295693,242.89824453630717 104.5,243.87812859017868" stroke="#4DD2FF" stroke-dasharray="none" stroke-linecap="round" stroke-linejoin="round" stroke-width="0.5"><title>2026-06-11 10.2km</title><desc>9223370255717407907</desc></polyline></svg>