<?xml version="1.0" encoding="utf-8" ?>
<svg baseProfile="full" height="300mm" version="1.1" viewBox="0,0,200,300" width="200mm" xmlns="http://www.w3.org/2000/svg" xmlns:ev="http://www.w3.org/2001/xml-events" xmlns:xlink="http://www.w3.org/1999/xlink"><defs /><rect fill="#222222" height="300" width="200" x="0" y="0" /><text fill="#FFFFFF" style="font-size:12px; font-family:Arial; font-weight:bold;" x="10" y="20">Over 10km Runs</text><text fill="#FFFFFF" style="font-size:4px; font-family:Arial" x="10" y="280">Runner</text><text fill="#FFFFFF" style="font-size:9px; font-family:Arial" x="10" y="290">Yanfu</text><text fill="#FFFFFF" style="font-size:4px; font-family:Arial" x="65" y="280">SPECIAL TRACKS</text><rect fill="yellow" height="2.6" width="2.6" x="65" y="283" /><text fill="#FFFFFF" style="font-size:3px; font-family:Arial" x="70" y="285.5">Over 20.0 km</text><rect fill="red" height="2.6" width="2.6" x="65" y="287" /><text fill="#FFFFFF" style="font-size:3px; font-family:Arial" x="70" y="289.5">Over 40.0 km</text><text fill="#FFFFFF" style="font-size:4px; font-family:Arial" x="120" y="280">STATISTICS</text><text fill="#FFFFFF" style="font-size:3px; font-family:Arial" x="120" y="285">Number: 4</text><text fill="#FFFFFF" style="font-size:3px; font-family:Arial" x="120" y="290">Weekly: 2.0</text><text fill="#FFFFFF" style="font-size:3px; font-family:Arial" x="141" y="285">Total: 40.5 km</text><text fill="#FFFFFF" style="font-size:3px; font-family:Arial" x="141" y="290">Avg: 10.1 km</text><text fill="#FFFFFF" style="font-size:3px; font-family:Arial" x="167" y="285">Min: 10.1 km</text><text fill="#FFFFFF" style="font-size:3px; font-family:Arial" x="167" y="290">Max: 10.2 km</text><polyline fill="none" opacity="1" points="14.5,95.36326486547478 14.836734693846665,94.10778883611783 14.744897959171794,93.25039044610457 15.142857142724097,92.51547745900461 15.479591836687177,91.62745749921305 15.357142857043073,90.43322358699515 15.479591836687177,89.02463974285638 15.54081632650923,88.71842582710087 15.877551020355895,88.13661935122218 16.061224489705637,86.32995683595072 16.12244897952769,85.93187859345926 16.551020408049226,84.431429634511 17.34693877538666,83.81900139775826 17.438775510061532,83.5127872597659 17.59183673467487,82.77787327521946 17.683673469233327,82.16544489725493 18.38775510189589,81.61425931227859 19.061224489705637,79.96070230292389 19.79591836722102,79.19516652118182 20.683673469349742,78.61335927224718 21.90816326532513,78.21528060099808 23.561224489705637,77.35788031097036 25.03061224485282,76.62296569481259 25.765306122484617,76.25550835841568 26.775510204024613,75.70432231854647 27.755102040828206,75.06127188494429 28.734693877515383,74.3569784865831 29.5,73.68330647540279 30.785714285681024,72.48906957247527 31.48979591834359,71.78477592073614 32.10204081621487,71.08048219967168 33.02040816319641,70.16183811140945 33.35714285715949,69.4881657048245 33.75510204071179,68.87573618930764 34.85714285704307,67.43652662093518 35.77551020402461,66.67098949837964 36.2653061223682,66.4260176018579 37.0,65.75234484294197 37.91836734674871,65.32364396326011 38.40816326532513,64.31313464505365 38.867346938699484,63.915055177290924 39.2653061223682,63.363868185377214 40.67346938769333,63.05765317147598 41.22448979585897,63.05765317147598 42.41836734698154,63.05765317147598 43.15306122449692,63.02703166927677 43.64285714284051,62.843302653869614 44.10204081621487,63.24138218141161 44.53061224485282,63.516975687409285 44.928571428521536,63.516975687409285 45.6326530611841,63.42511118657421 46.09183673467487,63.363868185377214 47.285714285681024,63.210760680027306 48.418367346865125,63.516975687409285 49.67346938769333,63.608840187022 50.1326530611841,63.70070468552876 51.295918367337435,64.12940566265024 52.39795918366872,64.77245708007831 53.714285714318976,65.04805052699521 54.969387755030766,65.66048037091969 56.1326530611841,66.4260176018579 56.53061224485282,66.79347544355551 56.959183673374355,67.1915547507233 57.54081632650923,67.9570918174577 57.908163265208714,68.44703549711267 58.244897959171794,68.63076436839765 59.255102040828206,69.610651601688 59.98979591834359,70.46805282059358 60.418367346865125,70.9579963280703 61.12244897952769,70.49867429083679 62.255102040828206,68.96760061994428 62.5,68.50827845471213 63.35714285715949,67.06906881241594 63.96938775514718,65.35426545550581 64.21428571420256,64.22127015440492 64.6122448979877,63.02703166927677 64.67346938780975,62.169629556825384 64.67346938780975,60.7916616598377 64.67346938780975,59.964880793879274 64.48979591834359,58.801263116358314 64.21428571420256,57.94386049557943 64.55102040804923,56.718999429780524 65.31632653065026,56.04532575374469 67.06122448982205,56.198433412995655 68.40816326532513,56.53527025174117 69.69387755088974,56.994593187991995 70.94897959183436,57.42329456831794 71.65306122449692,57.6682667741552 72.54081632662565,58.801263116358314 74.16326530603692,59.750530183373485 74.77551020402461,60.424203509057406 75.81632653053384,61.64906393812271 76.33673469384667,63.27200368256308 75.96938775514718,63.97629817383131 75.78571428568102,64.49686362262582 75.87755102023948,65.01742903341074 76.3979591835523,65.72172335238429 76.70408163266256,66.57912503817352 76.85714285704307,67.65087700058939 76.7653061223682,68.47765697602881 76.82653061219025,69.1513294778415 78.32653061219025,70.10059516795445 78.69387755100615,70.28432399668964 79.52040816331282,70.80488898564363 81.02040816331282,71.50918273383286 82.39795918378513,71.84601884975564 83.19387755100615,71.99912616988877 83.80612244899385,72.18285494984593 84.8775510203559,72.42782664904371 86.1326530611841,73.16274169611279 87.26530612248462,73.80579230043804 87.75510204071179,74.08138539880747 88.39795918366872,74.57132865861058 88.73469387751538,74.75505737244384 89.34693877550308,76.5004799181479 89.46938775503077,76.80669435596792 89.92857142863795,76.95980156993028 90.84693877550308,77.81720190768829 91.82653061230667,78.55211640120251 92.3775510203559,79.16454508819152 93.14285714284051,79.86883801344084 94.09183673467487,80.57313086936483 94.58163265301846,81.33866650384152 94.7346938776318,81.03245225991122 94.85714285715949,80.51188801508397 94.82653061219025,79.28703081927961 94.15306122449692,78.70522357785376 93.17346938769333,77.9090662234812 92.86734693869948,77.572230393067 92.07142857147846,77.08228733867873 91.39795918366872,76.22488691291073 90.69387755100615,75.70432231854647 90.44897959183436,75.48997218045406 89.89795918378513,74.32635703292908 89.7448979591718,73.83641375630395 88.85714285715949,73.19336315477267 88.03061224485282,72.48906957247527 87.17346938780975,71.69291152630467 86.19387755100615,70.8967533914838 85.2448979591718,70.46805282059358 84.29591836733744,70.49867429083679 83.56122448970564,70.68240310926922 82.52040816331282,70.43743135029217 81.1122448979877,70.19245958287502 80.01020408165641,69.79438044293784 79.12244897952769,69.67189454933396 78.63265306130052,68.50827845471213 78.44897959183436,67.43652662093518 78.90816326520871,66.45663908938877 79.2448979591718,65.35426545550581 79.18367346934974,63.853812180343084 78.96938775514718,62.59833062591497 78.20408163266256,61.52657790464582 77.53061224485282,60.73041863605613 76.06122448970564,59.628044117300306 74.98979591834359,59.046235274814535 74.07142857136205,58.28069725178648 73.58163265313487,57.91323897149414 72.60204081633128,57.208943881327286 71.22448979597539,56.74962095898809 70.79591836733744,56.474027191405185 70.52040816331282,55.98408268921776 69.7551020408282,55.64724582445342 68.8673469388159,55.371652014087886 68.07142857147846,55.2491658727522 67.30612244899385,54.942950510187075 65.71428571431898,54.820464361517224 64.30612244899385,54.75922128633829 63.72448979597539,54.66735667263856 62.469387755030766,54.63673513446702 61.918367346865125,54.820464361517224 61.459183673374355,55.1573012653389 61.30612244899385,55.73911042546388 61.3979591835523,56.22905494447332 61.795918367337435,56.96397165977396 62.04081632650923,57.54578067234252 62.5,58.09696811402682 62.98979591834359,59.046235274814535 62.867346938699484,59.87301624729298 62.8979591835523,60.36296048207441 63.1428571427241,61.55719941324787 63.05102040816564,62.935167162213475 63.02040816331282,64.06816266750684 62.31632653065026,65.9054522938095 61.27551020414103,67.0384473275044 60.60204081633128,67.4671481041587 59.163265306153335,66.97720435727388 58.70408163254615,66.9465828720131 58.091836734558456,66.45663908938877 57.47959183668718,65.69110186165199 56.65306122449692,65.2317794856499 56.16326530603692,64.95618604589254 55.459183673374355,64.58872810966568 54.60204081621487,64.4049991343636 54.2653061223682,64.22127015440492 53.469387755030766,64.03754116973141 52.94897959171794,63.731326184701174 52.48979591834359,63.210760680027306 51.663265306153335,63.42511118657421 50.19387755100615,62.200251062517054 49.428571428521536,61.80217147700023 49.12244897952769,61.37347035994753 47.836734693846665,60.66917561175069 46.79591836722102,60.516068048542365 45.6326530611841,61.09787677106215 45.2653061223682,61.465334887150675 44.07142857136205,61.710306954046246 43.61224489787128,61.465334887150675 42.66326530603692,61.28160583146382 41.98979591834359,61.55719941324787 41.37755102047231,61.64906393812271 40.97959183657076,62.04714353225427 40.918367346865125,62.59833062591497 41.16326530603692,62.996410167077556 41.98979591834359,63.14951767702587 42.755102040828206,63.27200368256308 42.51020408165641,62.9045456595486 41.80612244899385,62.8126811508555 40.18367346934974,62.75143814441981 39.08163265301846,63.02703166927677 38.22448979585897,64.00691967183957 37.826530612190254,65.04805052699521 37.18367346934974,65.13991500699194 36.510204081539996,65.96669527312042 35.255102040828206,66.70161098486278 34.091836734558456,67.98771329841111 33.23469387751538,68.75325027987128 32.62244897952769,69.7025160229532 32.10204081621487,70.31494546757312 31.642857142724097,70.74364604766015 31.122448979411274,71.50918273383286 30.204081632662565,72.33596226276131 29.25510204071179,73.5301991913584 28.24489795905538,74.38759994017892 26.591836734558456,75.39810783357825 25.551020408049226,75.97991534380708 24.724489795975387,76.4086155841942 23.469387755030766,77.02104445453733 22.82653061207384,77.20477310550632 21.816326530533843,77.81720190768829 20.775510204024613,78.36838778486708 19.734693877515383,78.82770931679988 19.306122448993847,78.9195736196707" stroke="#4DD2FF" stroke-dasharray="none" stroke-linecap="round" stroke-linejoin="round" stroke-width="0.5"><title>2026-06-20 10.1km</title><desc>9223370254938036107</desc></polyline><polyline fill="none" opacity="1" points="104.5,98.31097361724824 105.14448462927248,96.72858713657479 105.55461121152621,95.40993145829998 105.90614828211255,94.5894344644039 106.37486437603366,93.91545471764402 106.72640144662,93.8275443110324 107.10723327298183,93.41729573201155 107.22441229654942,92.127942895866 107.31229656422511,91.71769421550562 107.81030741415452,91.10232114911196 108.24972875218373,89.72505742005887 108.13254972873256,88.49431087559788 108.80632911389694,87.49799208305194 108.74773960211314,86.79470814243541 108.89421338157263,85.76908560009906 108.92350813734811,84.83137342738337 108.92350813734811,84.24530325439991 108.98209764924832,83.24898384558037 109.09927667269949,81.46146924977074 109.6265822785208,80.14281064286479 109.97811934899073,79.87907889104099 110.32965641957708,78.99997297860682 110.53471971058752,78.47250937702483 111.53074141032994,77.73992097412702 112.29240506317001,76.3333510212542 113.5227848100476,75.10260207563988 113.96220614819322,74.80956657984643 115.54412296554074,74.10628133875434 116.59873417718336,73.63742447120603 117.62405063293409,73.16856757170171 119.23526220605709,72.23085367621388 119.7332730559865,71.99642518226756 120.67070524417795,71.32244321750477 121.13942133809905,70.97080042693415 122.28191681730095,70.12099694181234 123.13146473781671,69.30049692498869 124.06889692577533,68.27487176563591 124.94773960218299,67.57158585323486 125.79728752258234,66.45804967728327 126.38318264018744,65.4910312720749 127.02766726945993,64.6412271061854 127.40849909582175,64.37749475732562 127.76003616629168,64.05515520603512 128.1408679926535,63.64490484603448 129.16618444852065,63.088136460864916 129.9278481012443,62.12111757893581 130.25009041582234,62.12111757893581 130.83598553342745,61.59365267644171 130.71880650985986,61.09549134230474 130.98245931288693,60.655937193805585 131.53905967448372,60.09916856503696 132.38860759488307,59.77682881185319 133.50180831819307,59.77682881185319 134.64430379739497,59.806132426369004 135.6989150090376,59.74752519707545 136.57775768521242,60.18707940413151 137.19294755870942,60.18707940413151 138.62839059671387,59.9233468833263 139.44864376122132,59.95265049728914 140.3274864377454,60.30429385456955 140.88408679934219,60.45081191480858 141.762929475517,60.33359746684437 141.55786618450657,60.18707940413151 142.23164556967095,60.12847217818489 142.52459312835708,60.33359746684437 143.37414104875643,61.12479495126172 143.84285714291036,61.41783103320631 144.83887884265278,61.5643490695802 145.60054249537643,61.857385132752825 146.4207956600003,62.23833199610817 147.4461121156346,62.765796848747414 148.20777576847468,63.41047605784843 148.5300180830527,64.05515520603512 149.3209764919011,64.67053069986287 149.96546112105716,65.37381691063638 150.66853526222985,66.07710304911598 150.961482820916,66.60456760550733 151.98679927666672,67.39576436381321 153.36365280277096,66.28222815928166 153.92025316460058,65.11008459012373 154.44755877030548,64.14306599425618 155.00415913201869,63.11744006126537 155.35569620248862,61.9159923439729 155.85370705241803,60.040561338246334 156.11735985521227,59.13214925973443 156.17594936711248,58.3409515444655 156.00018083187751,56.99298485525651 155.94159132009372,56.55343044246547 155.76582278474234,56.08457237100811 155.91229656420182,55.293374302302254 155.73652802896686,54.29705067767645 155.9708860758692,53.652370607771445 156.76184448460117,53.095601407432696 158.10940325504635,53.242119622475 159.16401446657255,53.44724511820823 159.83779385173693,53.769585170492064 161.1560578661738,54.20913976270822 162.2692585896002,54.502176141773816 162.50361663650256,54.941730686696246 163.99764918617439,56.02596510978765 165.052260397817,56.641341327282134 166.10687160945963,57.93070084112696 166.8099457505159,58.92702393501531 167.2493670885451,59.9233468833263 167.07359855331015,60.274990242149215 167.27866184455343,61.71086710272357 167.68878842680715,63.11744006126537 167.77667269436643,63.850030029105255 167.65949367079884,64.55331632433808 167.80596745025832,65.16869177331682 167.9524412297178,65.57894204184413 168.9777576852357,66.42874609126011 169.94448462931905,66.69247836098657 170.44249547924846,67.10272853806964 171.08698010840453,67.68880017695483 171.8486437612446,68.09905029431684 173.28408679924905,68.30417534377193 173.6356238698354,68.39208607733599 174.7781193490373,68.80233615252655 175.8327305604471,69.21258620306617 177.1216998192249,69.7400505176629 177.70759493671358,70.23821122187655 178.32278481009416,70.58985405010753 179.1723327304935,71.67408599003102 179.52386980107985,72.3187643593119 180.13905967457686,72.93413910988602 180.54918625683058,73.34438891275204 181.04719710664358,73.84254935468198 181.5745027124649,74.2821026557649 182.45334538875613,74.98538787887082 183.59584086795803,75.98170848790323 184.41609403246548,76.94872541114455 184.59186256781686,77.24176081552287 184.9141048823949,76.94872541114455 184.9141048823949,76.62638645188417 185.4707052441081,75.83519076035009 184.67974683537614,75.073298526695 183.88878842676058,74.6044417253288 182.86347197100986,73.60812091603293 182.18969258584548,73.0513533417543 181.5745027124649,72.23085367621388 180.9007233273005,71.93781805754406 180.60777576849796,71.73269311705371 180.43200723314658,70.88288972643204 179.87540687154979,70.26751479160157 179.26021699805278,69.50562193841324 178.6743218806805,68.9488540305465 178.1177215189673,67.9818359775818 177.29746835445985,67.51297869058908 177.0338155515492,67.21994286990957 176.59439421328716,66.80969269978232 175.10036166361533,66.80969269978232 174.39728752255905,67.04412137143663 173.13761301978957,66.86829986842349 171.58499095833395,66.60456760550733 170.8526220615022,66.13571022410179 170.26672694389708,65.63754922105 169.32929475582205,65.16869177331682 169.29999999993015,64.31888756735134 169.44647377938963,63.850030029105255 169.79801084997598,62.589975235721795 170.00307414098643,62.03320676469593 169.91518987331074,61.15409855998587 169.6222423146246,59.74752519707545 169.0949367088033,58.546076886879746 168.33327305596322,57.63766460944316 167.8938517178176,57.22741386378766 166.7220614827238,56.43621592762065 166.2240506327944,56.1138760013564 164.99367088603321,55.2054634001106 164.11482820974197,54.472872504382394 162.73797468352132,53.857496091222856 162.06419529835694,53.44724511820823 161.41971066908445,52.94908318918897 160.42368896922562,52.56813580720336 159.31048824591562,52.216492051054956 158.13869801082183,51.83554462809116 157.142676310963,51.89415192534216 155.85370705241803,51.77693733034539 154.06672694394365,51.68902638278087 153.30506329110358,51.86484827674576 152.89493670884985,52.65604674338829 152.95352622051723,53.53515604304266 153.89095840859227,54.912427051283885 154.2717902350705,56.17248326187837 154.09602169983555,56.582734070922015 154.59403254976496,57.28602111467626 154.62332730554044,58.19443343897001 154.65262206143234,58.95632755314 154.62332730554044,60.538722749450244 153.97884267626796,62.12111757893581 153.6858951174654,62.61927883824683 153.01211573230103,63.49838685436407 152.13327305600978,63.90863722312497 151.40090415917803,63.820726431848016 150.84430379746482,63.61560124793323 149.8189873418305,62.970922058215365 148.94014466530643,62.443457221466815 148.1491862568073,61.681563496385934 147.4461121156346,61.388527425646316 146.77233273047023,61.09549134230474 145.51265822781716,60.59732997184619 144.80958408676088,60.45081191480858 143.81356238701846,60.274990242149215 142.9933092223946,60.040561338246334 142.20235081366263,59.01493478924385 141.41139240504708,58.66329136543209 140.38607594941277,57.84278997298679 139.65370705234818,57.432539239671314 138.89204339962453,57.22741386378766 138.07179023500066,57.34462836507009 137.77884267631453,57.872093595797196 137.19294755870942,58.19443343897001 136.25551537063438,58.3409515444655 135.31808318267576,58.31164792357595 134.20488245936576,58.37025516515132 133.61898734176066,58.63398774602683 133.35533453885,59.33727457834175 133.76546112110373,59.806132426369004 134.32206148270052,59.8354360407684 134.90795660030562,59.9233468833263 134.26347197103314,59.63031073709135 133.2674502711743,59.425185427302495 132.03707052441314,59.718221582326805 131.59764918626752,59.8354360407684 131.1875226040138,60.421508302970324 130.83598553342745,61.18340216865181 130.25009041582234,61.79877792112529 129.19547920441255,62.47276082451572 127.96509945741855,63.351868859521346 127.11555153713562,64.20167318577296 126.26600361661986,65.16869177331682 125.91446654603351,65.6961563998193 125.24068716086913,66.28222815928166 124.44972875236999,67.24924645246938 123.21934900525957,68.59721111800172 122.19403254974168,69.53492551128147 121.57884267624468,70.00378265968175 120.72929475584533,70.7070683221682 119.7918625677703,71.26383608698961 118.53218806511723,72.08433586842148 117.79981916805264,72.46528216209845 116.62802893295884,72.99274622605299 115.36835443042219,73.60812091603293 114.89963833626825,73.75463869117084 113.31772151892073,74.39931686467025 112.90759493666701,74.7509594791918 111.88227848091628,75.83519076035009 111.00343580462504,76.80220770428423 110.79837251349818,77.56409974579583 109.80235081375577,78.73624118283624 109.567992766737,79.0878835748299 109.30433996382635,79.70325771759963" stroke="#4DD2FF" stroke-dasharray="none" stroke-linecap="round" stroke-linejoin="round" stroke-width="0.5"><title>2026-06-18 10.1km</title><desc>9223370255108266507</desc></polyline><polyline fill="none" opacity="1" points="20.645253526512533,230.79188954585698 21.94224170804955,230.3285403859918 22.251048417761922,230.20498060504906 22.899542508646846,229.83430124947336 23.73332062526606,229.3709520281991 25.061189477797598,228.753153020225 26.14201296225656,228.19713386782678 26.666984369046986,227.8882343202131 28.149256576551124,226.65263599756872 29.230080061010085,225.97305682994192 30.24914220359642,225.0772478292929 30.743232939508744,224.36677854281152 31.26820434629917,223.77986907947343 32.101982462918386,223.0076197127346 33.02840259252116,221.64846062625293 33.92394205124583,220.7835410743137 34.07834540610202,220.4746412090608 34.32539077394176,220.10396135342307 35.15916889067739,219.30082160059828 36.05470834928565,218.7139117246843 36.95024780777749,217.69454182643676 37.59874189866241,217.6018718284904 37.96930995059665,216.42805175180547 38.92661075107753,215.53224156436045 40.655928326305,215.34690151171526 41.79851315286942,215.3777915207902 42.69405261147767,215.3777915207902 43.28078536037356,215.3777915207902 44.11456347699277,215.99559167516418 45.34979031654075,215.90292165538995 46.02916507818736,215.62491158896592 46.36885245912708,215.53224156436045 47.418795272591524,215.8720316485851 48.4996187571669,216.1500417055213 49.92012962256558,215.9647016687668 49.92012962256558,215.8720316485851 51.06271444913,216.42805175180547 51.5259245140478,216.76784179365495 53.039077392430045,217.1694118225132 53.841974838171154,217.57098182896152 55.046321006608196,218.15789179800777 55.694815097143874,218.52857175387908 56.21978650405072,219.08459165185923 57.20796797552612,220.13485134206712 57.42413267260417,220.7835410743137 58.628478841041215,221.61757064412814 59.70930232561659,222.5751600311487 60.41955775837414,222.9458397597191 61.00629050703719,223.0076197127346 61.8091879527783,222.51338007458253 62.272398017696105,221.74113057210343 62.395920701441355,220.93799100193428 62.82825009536464,220.0421813755529 63.56938619900029,218.25056178879458 64.0325962639181,216.42805175180547 64.09435760579072,216.05737168772612 64.40316431573592,214.26575110928388 64.49580632871948,212.22700990823796 63.9090735798236,210.58983852539677 64.0634769347962,209.50868740782607 64.34140297363047,208.79821658477886 65.11341974837705,208.14952577202348 65.97807853599079,208.1804158120649 67.12066336267162,208.39664608851308 68.60293557005934,208.79821658477886 70.02344643545803,209.50868740782607 71.07338924903888,209.4777973734308 71.53659931384027,209.2615671294625 71.7527640106855,209.78669771068962 72.43213877233211,210.80606872937642 73.5129622570239,211.54742937948322 74.40850171563216,212.19611988560064 74.77906976744998,212.65947021130705 75.18051849026233,213.12282050715294 75.82901258114725,214.3584211501875 76.16869996197056,214.88355135911843 76.076057948987,215.71758161234902 75.7363705681637,216.3971617470961 75.79813191003632,217.04585181595758 76.23046130384319,217.78721182310255 76.7245520396391,218.99192167184083 76.66279069765005,220.13485134206712 76.69367136876099,220.56731116998708 77.65097216935828,221.74113057210343 78.54651162796654,222.4824900960666 78.6700343118282,222.76049989787862 79.5964544415474,223.1620695926831 80.3993518872885,223.7180891330936 81.10960731992964,223.99609888729174 83.08597026299685,224.33588857221184 83.85798703774344,224.61389830254484 85.12409454816952,224.9227979903808 85.74170796794351,225.2316976649454 86.85341212351341,225.88038693845738 87.93423560808878,226.55996611481532 88.42832634388469,227.11598539334955 89.29298513161484,228.07357405038783 89.50914982834365,228.50603340216912 90.00324056425598,229.2473922307836 90.46645062905736,229.74163140758174 90.682615326019,230.05053087585839 91.1767060616985,230.57565994164906 92.22664887527935,231.50235819991212 93.30747235985473,232.3981664031162 94.45005718641914,233.51020401815185 94.78974456735887,233.63376374257496 94.94414792221505,233.13952483213507 95.5,232.42905633925693 95.19119329017121,231.93481734633679 94.26477316045202,231.19345879368484 93.70892108278349,230.73010965960566 92.96778497903142,230.23587055044482 92.35017155925743,229.67985151236644 91.88696149445605,229.09294248110382 91.60903545562178,228.475143449381 90.74437666789163,227.98090418591164 90.31204727408476,227.48666488856543 89.66355318343267,226.40551630762639 88.55184902786277,225.10813779663295 88.30480365990661,224.83012808545027 87.71807091124356,224.212328688649 87.25486084644217,224.15054874611087 86.17403736175038,223.53274929110194 85.37113991612568,223.22384954371955 84.35207777365576,222.91494978312403 82.99332825001329,223.0076197127346 82.65364086918999,222.79138987517217 82.00514677853789,222.82227985240752 80.83168128109537,222.4824900960666 79.13324437662959,221.52490069664782 78.79355699580628,221.24689084728016 78.4847502859775,220.50553119613323 78.79355699580628,219.20815162337385 78.88619900878984,218.37412177457009 79.13324437662959,217.69454182643676 79.07148303475697,216.5207217647112 78.85531833767891,215.03800141334068 78.45386961498298,214.04952100932132 77.6818528403528,213.09193048835732 76.29222264571581,212.07255979377078 75.45844452921301,211.48564932821319 74.06881433480885,210.65161858435022 73.48208158602938,210.0955980346771 72.58654212753754,209.44690733897733 71.59836065582931,209.16889702290064 71.01162790704984,209.04533687897492 70.76458253909368,208.64376639656257 70.3013724742923,208.3657560494612 69.43671368656214,207.8406253643916 68.41765154409222,207.56261498614913 67.30594738852233,207.19193446508143 66.50304994278122,206.91392406180967 65.42222645832226,206.91392406180967 64.55756767070852,206.91392406180967 62.7664887533756,206.82125392497983 61.99447197874542,207.13015437644208 61.59302325581666,207.19193446508143 61.06805184914265,207.87151540571358 61.685665268683806,209.29245716478908 62.33415935956873,210.25004819163587 62.550324056413956,210.960518871143 62.82825009536464,211.5165393539355 62.79736942437012,212.10344981687376 63.106176134198904,213.15371052577393 63.13705680530984,213.55528075632174 63.13705680530984,214.1421910529025 62.98265345033724,215.93381166219478 62.64296606939752,217.3238618276082 61.99447197874542,218.37412177457009 61.3459778878605,219.17726163071347 60.32691574539058,219.79506145906635 59.369614944793284,219.39349157665856 58.56671749916859,219.05370165867498 57.54765535646584,218.37412177457009 56.991803278797306,217.72543182544177 56.25066717504524,217.35475182818482 55.54041174228769,216.98407181195216 54.58311094169039,216.6133917765692 54.150781547883525,216.5207217647112 53.47140678623691,216.1500417055213 52.6685093404958,215.9647016687668 52.020015249727294,215.6558015968767 51.217117803986184,215.81025163450977 50.568623713450506,215.74847161979415 49.580442241742276,214.7908813250251 49.24075486091897,214.20397108141333 48.37609607318882,213.52439073938876 47.48055661469698,213.24638058093842 46.55413648497779,213.0610404694453 45.565955013385974,213.30816061713267 44.5160121996887,213.67884082271485 44.176324818865396,213.8024008870707 43.62047274119686,213.61706078983843 42.91021730855573,213.5861707731965 42.0764391918201,213.8332909027813 41.58234845602419,213.7406208551838 41.18089973309543,213.7406208551838 40.7794510103995,214.20397108141333 40.59416698443238,214.91444137023063 40.995615707244724,215.34690151171526 42.292603888665326,215.43957153864903 42.354365230654366,215.16156145423884 41.48970644315705,214.91444137023063 40.933854365255684,214.75999131338904 39.57510484184604,215.1924514641869 38.80308806721587,215.47046154737473 37.96930995059665,216.33538173756097 37.84578726650216,217.07674181781476 37.32081585971173,217.4474218292744 36.456157072097994,217.8181018217001 35.99294700718019,218.34323177835904 35.09740754857194,218.89925169065828 34.510674799908884,219.54794153408147 33.862180709140375,220.16574133065296 32.997521921410225,221.2160008632345 32.13286313379649,222.35893018072238 31.76229508209508,222.91494978312403 31.484369043144397,223.22384954371955 30.588829584419727,224.15054874611087 29.9094548226567,224.61389830254484 29.26096073212102,225.2934775982867 29.01391536416486,225.57148729165783 28.24189858941827,226.18928657204378 27.13019443396479,226.96153559803497 26.32729698822368,227.3322151012253 24.906786122824997,228.53692335489905 23.36275257356465,229.21650228113867 21.88048036606051,229.86519119644072 20.645253526512533,230.45210016483907 19.81147540989332,230.822779488808 18.82329393818509,231.47146825981326 18.26744186063297,231.93481734633679 17.43366374389734,232.7997355615953 16.723408311139792,233.8191033253097 16.476362943300046,234.1897824765183 15.982272207387723,234.6222414621152 15.42642012971919,235.98139810562134 15.117613419890404,237.5258939814521 14.963210064801387,238.60704089823412 14.747045368072577,239.9661967929569 14.777926038834266,240.33687562908744 15.210255432641134,240.8311140476144 14.685284025967121,242.06670994649176 14.685284025967121,242.65361792448675 14.5,243.17874607507838" stroke="#4DD2FF" stroke-dasharray="none" stroke-linecap="round" stroke-linejoin="round" stroke-width="0.5"><title>2026-06-16 10.1km</title><desc>9223370255286294807</desc></polyline><polyline fill="none" opacity="1" points="111.16768292686902,230.52721821481828 112.34070121939294,230.03316745476332 112.98894817067776,229.63175118732033 114.71760670724325,228.95243129937444 115.30411585373804,228.52013679186348 117.00190548785031,227.56291314738337 118.1131859755842,226.60568937595235 119.5331554877339,225.5249527070555 120.86051829264034,224.16631209349725 122.18788109754678,222.74591481458629 123.08307926822454,221.60342114791274 123.66958841460291,220.5844401572831 124.5956554877339,219.87424119981006 125.42911585373804,219.10228573175846 126.10823170735966,218.51559952064417 126.87995426822454,217.68188745423686 127.46646341460291,217.4348616382922 128.02210365841165,217.03344466915587 128.02210365841165,216.35412359354086 128.45426829264034,215.92182833020343 129.84336890245322,215.21162891259883 131.2633384144865,215.27338538650656 132.55983231705613,215.36602009634953 133.67111280490644,215.5204112767242 134.7206554877339,215.58216774795437 135.8319359754678,215.58216774795437 136.57278963411227,215.396898332634 137.9001524390187,215.79831539303996 138.67187499988358,215.86007186188363 140.0918445121497,216.16885419812752 140.49314024392515,216.4467582894722 141.07964939030353,216.35412359354086 142.06745426834095,216.78641883085947 142.7774390244158,217.0025664397981 143.33307926822454,217.18783581373282 144.5369664634345,217.743643906957 145.61737804871518,218.26857373327948 146.20388719509356,218.82438174297567 146.48170731693972,219.3493114905432 146.97560975607485,219.65809367707698 147.3769054877339,220.02863228344359 147.65472560969647,220.43004908552393 148.519054877921,221.2328826226294 149.41425304871518,222.22098531457596 150.95769817067776,223.0546968554845 151.7911585365655,222.49888917227509 152.37766768294387,221.171126199828 153.0876524389023,219.3493114905432 153.76676829264034,217.71276568062603 154.29153963411227,215.7674371583853 154.47675304871518,214.81021181948017 154.44588414637838,213.60596040572273 154.5076219511684,212.49434353702236 154.32240853644907,211.29009173536906 154.29153963411227,210.48725708876736 154.10632621950936,210.11671799089527 154.22980182920583,209.43739626184106 154.44588414637838,208.6036831428646 155.12499999988358,208.10963087854907 156.26714939018711,208.14050914609106 157.65624999988358,208.38753528142115 159.4157774390187,209.0977353732451 161.02096036577132,209.4682745237369 161.36051829252392,209.71530061325757 161.9470274389023,210.30198754224693 163.5213414634345,211.47536125645274 164.23132621950936,211.84590028435923 164.66349085373804,212.46346528828144 165.46608231705613,213.29717795946635 166.26867378049064,214.81021181948017 166.36128048761748,215.36602009634953 166.26867378049064,216.29236712894635 165.95998475607485,216.6937841392937 166.7008384146029,218.17593906080583 166.91692073165905,219.22579861216946 166.94778963411227,219.96687585045584 167.37995426834095,221.01673514064169 167.9664634146029,221.94308144616662 168.52210365852807,222.31361993501196 169.26295731693972,222.86942763259867 169.75685975607485,223.0546968554845 171.4237804877339,223.8575301001547 172.75114329264034,224.16631209349725 174.23285060969647,224.59860686189495 174.78849085362162,224.62948505871464 175.62195121939294,224.96914521424333 176.57888719509356,225.4940745140775 177.35060975607485,226.01900377578568 178.27667682920583,226.60568937595235 178.8631859754678,227.0997403705842 179.44969512196258,228.30398952844553 179.75838414637838,228.7362840488786 180.1288109755842,229.19945672061294 180.99314024380874,230.09492380154552 181.91920731717255,230.77424358209828 182.87614329275675,231.63883230119245 183.89481707313098,232.56517724244623 184.7282774390187,233.5532783822273 184.94435975595843,233.21361863071797 184.8826219511684,232.93571518571116 185.5,232.31815193640068 185.22217987803742,231.82410129893105 184.23437499988358,230.9903907715925 182.93788109754678,229.755263887404 182.35137195128482,229.29209125135094 181.61051829264034,228.36574589001248 180.65358231705613,227.71730406640563 179.7892530488316,226.32778567646164 179.11013719509356,225.4014399345615 178.02972560981289,224.44421587622492 177.65929878049064,224.07367749686819 176.45541158528067,223.23996607377194 175.89977134135552,223.0546968554845 174.5724085365655,222.52976737805875 173.92416158528067,222.560645583726 172.8746189023368,222.71503660979215 171.82507621939294,222.560645583726 170.83727134135552,222.15922890033107 170.12728658528067,221.7578121945844 168.7381859754678,220.64619658514857 168.61471036588773,219.5963372408296 168.95426829264034,218.17593906080583 169.17035060969647,217.0025664397981 169.13948170735966,215.70568068878492 168.49123475595843,213.94562108127866 167.5960365853971,212.86488251236733 166.48475609754678,211.9385350382654 166.17606707313098,211.69150902505498 165.68216463411227,211.32096998917405 164.972179877921,210.9195526788826 164.04611280490644,210.17847450857516 163.08917682920583,209.4682745237369 162.00876524392515,209.1286136364797 161.32964939018711,208.6036831428646 161.08269817067776,208.23314394784393 160.5579268290894,208.29490048170555 159.57012195128482,207.64645684987772 158.1192835365655,207.21416106284596 157.0080030488316,206.87450006912695 155.89672256086487,206.84362179611344 154.75457317056134,206.75098697649082 153.5506859755842,206.72010870301165 152.19245426822454,206.78186524985358 151.60594512184616,206.9362566146301 151.11204268294387,208.10963087854907 151.6676829267526,209.06685710983584 152.40853658528067,210.11671799089527 152.68635670735966,210.8886744233314 152.7789634146029,211.56799601519015 153.0567835366819,212.46346528828144 153.18025914626196,212.86488251236733 153.11852134147193,213.26629971410148 153.11852134147193,213.85298635315849 152.9333079267526,215.3042636232567 152.87157012196258,216.13797596510267 152.7480945121497,216.72466237004846 152.50114329264034,217.28047049895395 152.00724085362162,218.05242616240866 151.54420731705613,218.82438174297567 150.80335365841165,219.22579861216946 150.03163109754678,219.47282436676323 149.01295731717255,218.9478946282179 148.6425304878503,218.76262529956875 147.53125,218.1450608363375 146.32736280479003,217.24959227070212 145.52477134135552,216.84817529126303 144.78391768294387,216.4158800576115 143.82698170724325,216.16885419812752 143.20960365852807,215.89095009613084 142.6230945121497,215.92182833020343 142.03658536588773,215.67480245383922 141.20312499988358,215.64392421860248 140.64748475619126,215.396898332634 139.90663109754678,214.2852817408857 139.25838414626196,213.91474283876596 138.394054877921,213.38981269468786 137.49885670724325,213.11190848529804 136.17149390256964,213.17366497719195 134.93673780479003,213.51332567323698 134.50457317067776,213.6368386495742 133.85632621950936,212.86488251236733 132.96112804871518,213.35893444978865 131.75724085373804,213.57508216169663 131.5411585365655,213.42069093952887 130.89291158528067,213.94562108127866 130.73856707301456,214.74845534167252 131.17073170724325,215.21162891259883 132.1894054878503,215.3042636232567 132.40548780479003,215.0572377256467 131.91158536588773,214.90284653531853 131.32507621939294,214.4705511847278 130.83117378037423,214.40879470395157 129.19512195128482,215.0572377256467 128.42339939030353,215.79831539303996 128.02210365841165,216.13797596510267 127.49733231705613,217.24959227070212 127.03429878037423,217.24959227070212 126.10823170735966,218.11418261186918 124.9352134144865,218.97877284913557 124.1326219511684,219.99775406700792 123.29916158539709,220.73883122572443 122.65091463411227,221.6960557763232 122.06440548785031,222.31361993501196 121.38528963411227,223.02381865208736 120.6444359755842,224.011921098514 120.0270579267526,224.44421587622492 119.16272865852807,225.3396835475578 118.32926829252392,225.95724739402067 117.86623475607485,226.23515110771405 117.49580792686902,226.57481118763098 116.50800304871518,227.1614967425703 115.55106707313098,228.02608589443844 114.59413109754678,228.55101497180294 113.01981707313098,229.19945672061294 111.90853658528067,229.755263887404 110.24161585362162,230.46546187158674 108.54382621950936,231.45356329868082 107.00038109754678,232.78132437827298 106.66082317067776,233.21361863071797 106.19778963411227,234.26347599294968 105.67301829275675,235.12806429434568 105.4569359755842,235.62211470579496 105.27172256086487,236.36319025972625 105.11737804871518,237.1351438809652 104.96303353644907,237.87621927988948 104.96303353644907,239.45100425020792 104.77782012184616,240.3464700608747 104.90129573165905,241.3963263874175 105.02477134147193,242.1065232277615 104.6543445122661,242.72408564103534" stroke="#4DD2FF" stroke-dasharray="none" stroke-linecap="round" stroke-linejoin="round" stroke-width="0.5"><title>2026-06-11 10.2km</title><desc>9223370255717407907</desc></polyline></svg>