<?xml version="1.0" encoding="utf-8" ?>
<svg baseProfile="full" height="300mm" version="1.1" viewBox="0,0,200,300" width="200mm" xmlns="http://www.w3.org/2000/svg" xmlns:ev="http://www.w3.org/2001/xml-events" xmlns:xlink="http://www.w3.org/1999/xlink"><defs /><rect fill="#222222" height="300" width="200" x="0" y="0" /><text fill="#FFFFFF" style="font-size:12px; font-family:Arial; font-weight:bold;" x="10" y="20">Over 10km Runs</text><text fill="#FFFFFF" style="font-size:4px; font-family:Arial" x="10" y="280">Runner</text><text fill="#FFFFFF" style="font-size:9px; font-family:Arial" x="10" y="290">Yanfu</text><text fill="#FFFFFF" style="font-size:4px; font-family:Arial" x="65" y="280">SPECIAL TRACKS</text><rect fill="yellow" height="2.6" width="2.6" x="65" y="283" /><text fill="#FFFFFF" style="font-size:3px; font-family:Arial" x="70" y="285.5">Over 20.0 km</text><rect fill="red" height="2.6" width="2.6" x="65" y="287" /><text fill="#FFFFFF" style="font-size:3px; font-family:Arial" x="70" y="289.5">Over 40.0 km</text><text fill="#FFFFFF" style="font-size:4px; font-family:Arial" x="120" y="280">STATISTICS</text><text fill="#FFFFFF" style="font-size:3px; font-family:Arial" x="120" y="285">Number: 2</text><text fill="#FFFFFF" style="font-size:3px; font-family:Arial" x="120" y="290">Weekly: 1.0</text><text fill="#FFFFFF" style="font-size:3px; font-family:Arial" x="141" y="285">Total: 20.3 km</text><text fill="#FFFFFF" style="font-size:3px; font-family:Arial" x="141" y="290">Avg: 10.1 km</text><text fill="#FFFFFF" style="font-size:3px; font-family:Arial" x="167" y="285">Min: 10.1 km</text><text fill="#FFFFFF" style="font-size:3px; font-family:Arial" x="167" y="290">Max: 10.2 km</text><polyline fill="none" opacity="1" points="51.03973751375452,104.09978657704778 51.55158585496247,101.81547285540728 51.905942398821935,100.0825448272517 52.220925993518904,98.78284859255655 52.969012030633166,98.31023173441645 53.008384980028495,97.83761485217838 53.12650382798165,97.48315217456548 53.6383521691896,97.04991999443155 53.67772511858493,96.06530132773332 54.74079475039616,95.39576057431987 55.449507838115096,93.97790940647246 56.23696682462469,92.28436466993298 57.693765949690714,91.29974549391773 59.308056872105226,90.63020439411048 60.37112650391646,90.11820234369952 61.04046664247289,89.88189369556494 62.339773970190436,89.17296771449037 63.0484870581422,88.85788948310073 65.095880422974,87.67634601955069 65.76522056153044,87.36126773699652 67.22201968659647,86.29787845362443 69.11192125407979,84.9194106812356 70.41122858179733,83.7772515132092 71.23806051770225,82.79263142705895 71.51367116300389,82.39878336299444 72.30113014951348,81.76862642547349 73.87604812253267,80.1538490758976 74.82099890639074,78.53907144267578 75.60845789290033,77.86952941393247 75.88406853796914,77.55445079522906 76.5927816259209,76.45167554484215 77.53773240977898,75.66397885640617 78.91578563605435,74.71874274098082 79.62449872400612,73.97043074743124 80.72694130521268,73.34027323173359 81.51440029172227,71.64672469388461 82.93182646739297,71.1741064414964 84.54611738980748,71.21349129686132 85.76667881873436,71.13472158607328 86.86912139994092,71.13472158607328 87.97156398114748,71.72549440036528 89.62522785272449,71.80426410597283 90.72767043393105,71.48918527917704 91.12139992718585,71.33164586179191 91.55450236983597,71.33164586179191 93.83813343057409,72.0405732189538 95.33430550503545,72.00118836725596 96.20051039010286,71.72549440036528 96.63361283252016,72.31626717647305 97.65730951516889,72.67073082388379 98.60226029902697,73.22211869270541 100.53153481613845,73.65535199496662 101.79146919446066,74.32489433092996 102.89391177543439,74.8762821003329 103.56325191422366,75.58520918386057 104.27196500170976,76.53044520999538 105.41378053231165,77.83014458714752 106.47685016412288,78.85415002756054 107.46117389737628,79.7600008987938 108.68173532630317,80.3901579741505 109.62668611016124,81.13846944470424 110.29602624871768,80.62646686611697 111.28034998197109,79.99630980717484 111.7921983229462,78.61784108984284 111.91031717089936,77.94829906686209 112.77652205619961,76.09721204347443 113.60335399210453,73.69473683956312 113.99708348535933,72.27688232593937 114.27269413042814,70.74087302217958 114.3514400292188,68.45655101793818 114.07582938391715,66.01468893600395 113.91833758656867,64.20298439031467 114.15457528247498,63.25774709385587 115.02078016777523,62.03681544167921 116.12322274874896,62.03681544167921 117.30441122851335,62.273124806408305 118.56434560706839,62.39127948647365 120.84797666803934,63.29713198321406 122.18665694515221,63.80913552874699 123.13160772877745,63.49405642715283 123.87969376589172,63.53344131540507 123.72220196877606,64.67560300196055 124.94276339770295,65.69960991025437 126.71454611746594,66.80238645285135 127.38388625602238,67.55069903115509 127.89573459723033,68.10208720777882 128.4863288369961,68.92916941037402 129.2344148743432,70.2288698637858 129.54939846880734,71.41041557077551 129.2344148743432,72.0405732189538 128.72256653313525,72.71011567278765 129.11629602639005,73.65535199496662 129.70689026615582,74.60058821976418 130.21873860736378,76.80613903270569 129.90375501289964,77.47568113892339 130.41560335387476,78.65722591330996 131.39992708712816,79.5236919845338 132.8173532630317,80.50831242091954 133.32920160423964,80.9809301928617 133.95916879340075,81.37477831763681 134.98286547581665,81.80801123532001 136.95151294209063,82.2806289405562 138.6839227124583,82.67447700956836 139.82573824282736,83.0289402573253 141.40065621584654,83.58032750437269 142.66059059416875,84.21048431779491 143.95989792211913,85.23448904737597 144.86547575658187,85.94341533188708 145.81042654020712,86.96741986862617 146.16478308429942,87.75511558848666 146.5191396283917,88.30650255235378 147.26722566527314,88.93665904196678 147.77907400671393,89.64558504126035 148.21217644936405,90.19697189179715 149.27524608094245,91.06343687610934 150.7714181554038,92.28436466993298 151.9526066351682,93.38713802210987 152.85818446963094,94.48991124232998 153.25191396288574,94.17483319283929 153.48815165902488,93.34775326185627 153.9606270508375,92.67821231088601 153.48815165902488,92.04805607732851 151.9132336860057,91.02405210578581 151.28326649661176,90.39389575901441 150.22019686480053,89.52743071177974 149.78709442238323,89.01542860019254 149.19650018238463,88.10957864049124 148.25154939852655,87.2824981645681 147.70032810792327,87.12495901796501 147.14910681732,85.78587616229197 146.00729128695093,84.32863871549489 144.9442216551397,83.46217309706844 144.35362741537392,82.8320162325399 143.80240612477064,82.35939855576726 142.2668611011468,81.80801123532001 141.87313160765916,81.41416312911315 140.61319722933695,80.94154537946451 138.60517681390047,80.94154537946451 137.81771782715805,80.78400612412952 137.34524243534543,80.58708205126459 135.57345971581526,80.19323389267083 134.1954064895399,79.68123126140563 132.77798031340353,78.85415002756054 132.54174261749722,78.46030179475201 132.4629967189394,76.53044520999538 132.8173532630317,75.27013048680965 133.13233685749583,74.4036640143022 133.053590958938,73.8128913724795 133.0929639081005,71.84364895854378 132.73860736424103,70.38640930014662 131.59679183387198,68.65347535110777 130.41560335387476,67.55069903115509 128.91943127987906,66.48730745416833 127.856361647835,65.77837966766674 126.12395187770016,64.55744835140649 125.29711994179524,63.887905302399304 123.76157491817139,63.41528665012447 123.0134888808243,63.10020753496792 122.54101348901168,63.06082264485303 121.91104629961774,62.47004927229136 121.75355450250208,62.03681544167921 120.29675537743606,61.367272208444774 119.23368574562483,61.05219302297337 117.85563251911663,60.54018932330655 116.20196864753962,60.54018932330655 115.09952606656589,60.34326481592143 113.36711629596539,60.34326481592143 111.75282537378371,60.38264971773606 111.00473933643661,60.65834402584005 110.17790740076452,61.367272208444774 110.1385344513692,62.509434165025596 110.96536638727412,63.690980866900645 111.98906306969002,65.34514599340037 112.30404666438699,66.01468893600395 112.26467371499166,66.56607720482862 112.61903025885113,68.10208720777882 112.65840320824645,68.57470561837545 112.65840320824645,69.08670886908658 112.5796573094558,70.66210330731701 112.50091141089797,72.39503687707474 111.43784177908674,74.79751242103521 111.20160408318043,75.27013048680965 109.90229675546288,76.49106037756428 108.83922712388448,76.60921487450833 107.42180094774812,76.0184423745959 105.8862559243571,75.07320629572496 105.29566168435849,74.52181853807997 104.1538461537566,73.85227621655213 103.44513306603767,73.53719745995477 102.26394458627328,73.02519445755752 101.55523149832152,72.6313459748053 100.80714546120726,72.43442172714276 99.90156762674451,72.07995807053521 99.11410864023492,71.76487925322726 97.8541742619127,71.76487925322726 97.10608822456561,71.56795498688007 96.00364564359188,71.21349129686132 95.09806780912913,69.95317584369332 94.4287276705727,69.08670886908658 93.68064163345844,68.61409048479982 92.46008020429872,68.41716615087353 91.239518775139,68.22024181269808 90.05833029537462,68.7322450831416 88.79839591681957,69.16547859745333 88.2078016770538,69.08670886908658 87.34159679175355,69.00793913996313 86.35727305873297,68.96855427528499 85.4123222748749,69.24424832506338 85.0185927816201,69.04732400464127 84.42799854185432,69.3624029153143 83.95552314980887,70.26825472322525 84.30987969366834,71.01656701869797 85.6485599707812,71.2528761519934 86.31790010933764,71.09533673053375 85.3729493257124,70.78025787929073 84.66423623776063,70.38640930014662 83.04994531534612,70.81964273628546 81.94750273413956,71.09533673053375 81.51440029172227,71.60733984049875 80.60882245725952,73.06457930500619 80.05760116665624,73.69473683956312 79.30951512954198,73.8128913724795 78.3645643456839,74.75812758121174 77.14400291652419,75.38828499946976 76.3565439300146,76.21536654548254 75.64783084229566,77.12121767696226 75.05723660229705,77.79075976018794 73.95479402132332,79.28738306404557 72.93109733890742,80.58708205126459 72.4979948962573,80.94154537946451 71.71053590951487,81.65047199488617 70.56872037914582,82.71386181557318 70.0962449873332,83.10770986607531 69.34815895021893,83.93479071726324 68.48195406491868,84.72248669684632 67.73386802780442,85.23448904737597 66.08020415599458,86.33726324408781 65.095880422974,87.16434380499413 62.890995260793716,88.50342646002537 61.001093693077564,89.44866115797777 59.11119212559424,90.03943279501982 58.28436018968932,90.47266530472552 56.67006926727481,91.22097595530795 55.725118483416736,92.04805607732851 54.622675902210176,92.99329041148303 53.67772511858493,94.41114173090318 53.40211447328329,94.88375878887018 52.85089318268001,95.55329957959475 52.181553044123575,96.85299626959022 51.669704702915624,98.27084699523402 51.394094057613984,100.51577686489327 51.354721108451486,101.69731868209783 51.354721108451486,103.03639922523871 51.70907765231095,103.43024640687509 50.96099161496386,104.57240313850343 51.079110462917015,105.478251480381 50.842872767010704,106.14779150200775 50.76412686845288,107.48687139962567 50.2129055778496,108.43210415163776 49.8191760845948,109.14102865225868 49.93729493254796,110.59826217690716 49.701057236641645,111.34657119488111 49.464819540735334,112.13426483253716 49.30732774338685,112.96134307986358 48.637987604830414,113.90657527191797 48.48049580748193,115.32442337879911 47.811155669158325,115.95457802322926 47.10244258120656,116.54534796334337 46.669340138789266,117.56934910354903 46.19686474674381,119.22350455221022 46.0,119.7355049882899" stroke="#4DD2FF" stroke-dasharray="none" stroke-linecap="round" stroke-linejoin="round" stroke-width="0.5"><title>2026-06-16 10.1km</title><desc>9223370255286294807</desc></polyline><polyline fill="none" opacity="1" points="53.13536804309115,220.6093343992834 53.329263913910836,218.98012195626507 53.71705565531738,217.58365391544066 54.415080789942294,216.45872117078397 54.531418312340975,215.7604869833449 54.84165170555934,215.1786251194426 55.074326750356704,214.51918162871152 56.31526032323018,213.4718301036628 57.0908438062761,212.07536121556768 57.55619389563799,210.83405535685597 59.02980251330882,209.86428503651405 60.61974865361117,209.0496778874076 62.09335727104917,208.42902477219468 62.907719928072765,207.92474408482667 65.07935368036851,207.07134593470255 65.81615798920393,206.52827434276696 67.94901256728917,205.32575855910545 69.34506283677183,204.12324261595495 71.1289048474282,202.76556313340552 72.7964093356859,201.0587657809374 74.46391382394359,199.2743863866781 75.58850987418555,197.83912444469752 76.32531418302096,196.55902576394146 77.48868940747343,195.66683566727443 78.53572710952722,194.6970637232298 79.38886894076131,193.9600369761465 80.35834829439409,192.91268307436258 81.09515260322951,192.60235596913844 81.79317773785442,192.09807440027362 81.79317773785442,191.24467475811252 82.33608617587015,190.70160221669357 84.08114901254885,189.80941154202446 85.86499102320522,189.88699334330158 87.49371633748524,190.003366044024 88.88976660673507,190.1973205418908 90.20825852779672,190.27490233979188 91.60430879704654,190.27490233979188 92.53500897670165,190.04215694387676 94.20251346495934,190.54643862741068 95.17199281859212,190.62402042234316 96.95583482948132,191.0119293872267 97.45996409328654,191.36104744137265 98.19676840212196,191.24467475811252 99.43770197499543,191.7877472669934 100.3296229802072,192.059283509152 101.02764811483212,192.2920288531459 102.54003590671346,192.990264849097 103.89730700175278,193.6497099067783 104.6341113105882,194.3479457978392 104.98312387778424,195.00739075662568 105.60359066422097,195.39529953338206 106.1077199280262,195.86079004354542 106.45673249545507,196.36507140251342 107.54254937148653,197.37363403633935 108.66714542196132,198.61494173889514 110.60610412922688,199.6622949804878 111.65314183128066,198.96405949955806 112.38994614011608,197.29605229920708 113.28186714532785,195.00739075662568 114.13500897656195,192.9514739617589 114.79425493697636,190.5076477296534 115.02692998200655,189.30512981733773 114.98815080779605,187.79228447459172 115.06570915621705,186.3958116255817 114.83303411118686,184.88296579546295 114.79425493697636,183.87440176785458 114.56157989241183,183.40891064028256 114.71669658878818,182.55551017727703 114.98815080779605,181.50815495324787 115.84129263903014,180.88749994826503 117.27612208249047,180.92629088740796 119.02118491916917,181.2366183937993 121.23159784567542,182.12880991550628 123.24811490112916,182.5943011092022 123.6746858167462,182.90462855820078 124.41149012558162,183.64165620709537 126.38922800729051,185.11571132426616 127.28114901273511,185.58120236400282 127.82405745075084,186.35702071001288 128.8323159783613,187.4043753715232 129.84057450620458,189.30512981733773 129.95691202860326,190.003366044024 129.84057450620458,191.16709296859335 129.45278276479803,191.6713745892048 130.3834829442203,193.53333725302946 130.65493716322817,194.8522272412083 130.69371633743867,195.78320829360746 131.23662477568723,197.10209795366973 131.97342908428982,198.26582396478625 132.67145421891473,198.73131432727678 133.602154398337,199.42954982625088 134.22262118500657,199.6622949804878 136.3166965888813,200.67085724690696 137.984201077139,201.0587657809374 139.84560143621638,201.60183770069852 140.5436265708413,201.64062855095835 141.59066427289508,202.06732789170928 142.79281867155805,202.72677228803514 143.76229802519083,203.38621663645608 144.92567324941047,204.12324261595495 145.66247755824588,204.74389602593146 146.3992818670813,206.25673853466287 146.78707360872068,206.7998101428384 147.2524236983154,207.38167254411383 148.33824057434686,208.5066064138664 149.50161579903215,209.36000442900695 150.7037701974623,210.446147241164 151.98348294431344,211.60987153841415 153.03052064636722,212.8511772910133 153.30197486514226,212.42447845777497 153.22441651695408,212.07536121556768 154.0,211.29954507376533 153.65098743257113,210.67889211256988 152.41005385993049,209.63154014426982 150.78132854565047,208.07990737631917 150.04452423704788,207.49804501986364 149.11382405739278,206.33432019490283 147.9116696587298,205.51971272862284 146.82585278269835,203.7741250540712 145.97271095146425,202.61039975105086 144.61543985642493,201.40788344742032 144.15008976659738,200.9423932224745 142.63770197471604,199.89504012896214 141.93967684009112,199.6622949804878 140.27217235183343,199.00285036105197 139.45780969480984,199.04164122242946 138.13931777351536,199.23559552640654 136.82082585268654,199.04164122242946 135.5798922800459,198.53736001253128 134.6879712746013,198.0330787744606 132.9429084379226,196.63660750736017 132.78779174154624,195.31771777931135 133.2143626571633,193.53333725302946 133.48581687617116,192.059283509152 133.44703770196065,190.43006593373138 132.63267504470423,188.21898446866544 131.5080789946951,186.86130259925267 130.11202872521244,185.69757512013894 129.7242369838059,185.38724776706658 129.10377019736916,184.9217567173182 128.21184919192456,184.41747471987037 127.04847396770492,183.48649249656592 125.84631956904195,182.5943011092022 124.48904847400263,182.1676008491777 123.6359066425357,181.50815495324787 123.32567324955016,181.04266370355617 122.66642728890292,181.120245580154 121.42549371649511,180.30563584237825 119.6028725313954,179.7625626430381 118.20682226214558,179.33586224919418 116.81077199266292,179.29707130324095 115.37594254920259,179.18069846456638 113.86355475755408,179.14190751803108 112.15727109508589,179.21948941098526 111.42046678625047,179.41344414051855 110.80000000004657,180.88749994826503 111.49802513467148,182.09001898160204 112.42872531409375,183.40891064028256 112.77773788152263,184.37868379574502 112.8940754039213,185.23208408639766 113.24308797135018,186.35702071001288 113.39820466772653,186.86130259925267 113.32064631953835,187.36558446031995 113.32064631953835,188.102611744951 113.087971274741,189.92578424373642 113.01041292631999,190.9731384915067 112.8552962297108,191.71016548207263 112.54506283649243,192.40840152290184 111.92459605028853,193.37817371240817 111.3429084380623,194.3479457978392 110.41220825840719,194.8522272412083 109.44272890477441,195.1625542693073 108.1630161581561,194.5031093218713 107.69766606832854,194.27036403480452 106.30161579884589,193.49454636801966 104.78922800719738,192.369610633119 103.7809694793541,191.86532905133208 102.85026929993182,191.32225654710783 101.64811490126885,191.0119293872267 100.87253141822293,190.662811319693 100.13572710938752,190.70160221669357 99.39892280078493,190.39127503556665 98.35188509849831,190.35248413711088 97.65385996410623,190.04215694387676 96.72315978445113,188.64568444271572 95.90879712742753,188.18019356101286 94.82298025116324,187.52074810414342 93.69838420115411,187.17162990162615 92.03087971289642,187.24921172560425 90.47971274680458,187.67591174540576 89.93680430878885,187.83107538393233 89.12244165176526,186.86130259925267 87.99784560129046,187.48195719352225 86.48545780964196,187.7534935650183 86.21400359063409,187.5595390147064 85.3996409336105,188.21898446866544 85.20574506279081,189.22754801111296 85.74865350080654,189.80941154202446 87.02836624789052,189.92578424373642 87.29982046666555,189.61545703589218 86.67935368046165,189.42150252556894 85.94254937162623,188.87842987454496 85.32208258518949,188.8008480645367 83.26678635552526,189.61545703589218 82.29730700189248,190.54643862741068 81.79317773785442,190.9731384915067 81.13393177720718,192.369610633119 80.55224416498095,192.369610633119 79.38886894076131,193.45575548306806 77.91526032309048,194.54190020239912 76.9070017952472,195.82199916860554 75.85996409342624,196.75298012112034 75.04560143616982,197.95549704309087 74.30879712756723,198.73131432727678 73.4556552961003,199.62350412196247 72.52495511667803,200.86481151607586 71.74937163363211,201.40788344742032 70.66355475760065,202.5328180588549 69.61651705554686,203.3086349508376 69.03482944332063,203.6577525305911 68.56947935372591,204.08445177640533 67.32854578085244,204.82147769920994 66.1263913824223,205.90762105502654 64.92423698399216,206.5670651718392 62.94649910228327,207.38167254411383 61.55044883280061,208.07990737631917 59.45637342892587,208.97209625027608 57.32351885084063,210.21340236382093 55.38456014357507,211.88140718627255 54.95798922795802,212.42447845777497 54.37630161573179,213.74336569581646 53.71705565531738,214.82950798328966 53.445601436309516,215.45016066054814 53.212926391279325,216.3811395969824 53.01903052069247,217.35090922098607 52.82513464987278,218.2818879626575 52.82513464987278,220.26021747180494 52.59245960484259,221.38514974567806 52.7475763016846,222.70403568272013 52.90269299806096,223.59622311970452 52.437342908466235,224.37203821126604 52.39856373425573,225.49696997646242 52.204667863668874,226.2727849058574 51.39030520641245,227.5140886552981 51.46786355483346,228.79418296954827 50.9249551165849,229.9191141880583 50.14937163377181,231.58711539395154 49.95547576295212,233.17753486399306 49.4901256733574,233.64302343677264 48.83087971271016,234.3024655408808 47.74506283644587,235.42739607894327 47.473608617670834,237.5220939522842 47.047037702053785,239.22888445603894 46.0,240.97446532273898" stroke="#4DD2FF" stroke-dasharray="none" stroke-linecap="round" stroke-linejoin="round" stroke-width="0.5"><title>2026-06-11 10.2km</title><desc>9223370255717407907</desc></polyline></svg>