<?xml version="1.0" encoding="utf-8" ?>
<svg baseProfile="full" height="200mm" version="1.1" viewBox="0,0,200,200" width="200mm" xmlns="http://www.w3.org/2000/svg" xmlns:ev="http://www.w3.org/2001/xml-events" xmlns:xlink="http://www.w3.org/1999/xlink"><defs /><rect fill="#1a1a1a" height="200" width="200" x="0" y="0" /><rect fill="#1a1a1a" height="200" width="180" x="10" y="0" /><text alignment-baseline="middle" fill="#e1ed5e" style="dominant-baseline: central; font-size:9.0px; font-family:Arial;" text-anchor="middle" x="100.0" y="100.0">2024</text><line stroke="#e1ed5e" stroke-width="0.3" x1="100.0" x2="100.0" y1="15.0" y2="10.0" /><path d="M 100.0 14.0 a86.0,86.0 0 0,1 42.35913384403234,11.155469271406648" fill="none" id="id1" stroke="none" /><text fill="#e1ed5e" style="font-size:6.75px; font-family:Arial;" text-anchor="middle"><textPath startOffset="22.145653131862478" xlink:href="#id1">January</textPath></text><line stroke="#e1ed5e" stroke-width="0.3" x1="143.13028292997686" x2="145.6673583964461" y1="26.7553504044142" y2="22.446841604673864" /><path d="M 143.63769802327073 25.89364864446614 a86.0,86.0 0 0,1 29.32050498858742,28.57503671076993" fill="none" id="id2" stroke="none" /><text fill="#e1ed5e" style="font-size:6.75px; font-family:Arial;" text-anchor="middle"><textPath startOffset="20.669276256404974" xlink:href="#id2">February</textPath></text><line stroke="#e1ed5e" stroke-width="0.3" x1="172.87174338648825" x2="177.1583165268699" y1="56.24261187166439" y2="53.66864786411523" /><path d="M 173.72905801456457 55.72781907015455 a86.0,86.0 0 0,1 12.242430191666344,42.057860355516425" fill="none" id="id3" stroke="none" /><text fill="#e1ed5e" style="font-size:6.75px; font-family:Arial;" text-anchor="middle"><textPath startOffset="22.145653131862474" xlink:href="#id3">March</textPath></text><line stroke="#e1ed5e" stroke-width="0.3" x1="184.99686870605535" x2="189.99668451229388" y1="99.2704041080226" y2="99.22748670261217" /><path d="M 185.99683186730306 99.26182062694052 a86.0,86.0 0 0,1 -10.086455211305974,41.156179273409016" fill="none" id="id4" stroke="none" /><text fill="#e1ed5e" style="font-size:6.75px; font-family:Arial;" text-anchor="middle"><textPath startOffset="21.40746469413373" xlink:href="#id4">April</textPath></text><line stroke="#e1ed5e" stroke-width="0.3" x1="174.33088141563837" x2="178.70328620479359" y1="141.23008692659167" y2="143.65538615756765" /><path d="M 175.20536237346943 141.71514677278685 a86.0,86.0 0 0,1 -30.301960400862466,31.631185727798858" fill="none" id="id5" stroke="none" /><text fill="#e1ed5e" style="font-size:6.75px; font-family:Arial;" text-anchor="middle"><textPath startOffset="22.145653131862474" xlink:href="#id5">May</textPath></text><path d="M 112.45986205192187 116.90419585922612 l 5.011259853882402 6.798736432113119 a29.44603708235263,29.44603708235263 0 0,0 -0.40946676177520425,0.29642235834900543 l -4.89381208173323 -6.883759561835202" fill="red" stroke="none" /><line stroke="#e1ed5e" stroke-width="0.3" x1="143.1302829299769" x2="145.66735839644613" y1="173.24464959558577" y2="177.55315839532614" /><path d="M 143.63769802327073 174.10635135553383 a86.0,86.0 0 0,1 -40.68552437913181,11.842963189579606" fill="none" id="id6" stroke="none" /><text fill="#e1ed5e" style="font-size:6.75px; font-family:Arial;" text-anchor="middle"><textPath startOffset="21.407464694133747" xlink:href="#id6">June</textPath></text><path d="M 110.34350942703117 118.27599006163325 l 5.888562877483637 10.404526373316493 a32.955306010935765,32.955306010935765 0 0,0 -0.49473103576389976,0.2744189658638539 l -5.7090876535636434 -10.504078254613491" fill="red" stroke="none" /><path d="M 109.71004243097381 118.62028667847754 l 4.537852931969038 8.701931335387513 a30.814057173156222,30.814057173156222 0 0,0 -0.4711216641362755,0.24055807858274114 l -4.38780404611918 -8.77854736564309" fill="red" stroke="none" /><path d="M 107.74402155503746 119.51999308798841 l 3.7506626897001176 9.454120092253293 a31.170931979452813,31.170931979452813 0 0,0 -0.499072949305691,0.19305213809948388 l -3.587817477900897 -9.517112118490816" fill="red" stroke="none" /><path d="M 107.06938296918513 119.77432235084164 l 4.024601747862182 11.257527374438025 a32.955306010935765,32.955306010935765 0 0,0 -0.534337689391125,0.18587038567223738 l -3.8307582864260348 -11.324956192678853" fill="red" stroke="none" /><path d="M 106.72888874123015 119.89276391827305 l 2.8778333395538866 8.507802910917944 a29.981349291797514,29.981349291797514 0 0,0 -0.4889490679562788,0.1607272703997518 l -2.731361533949874 -8.555951102719714" fill="red" stroke="none" /><path d="M 106.38641147887787 120.00534299687104 l 3.6719628568995 11.502371350013924 a33.074264279701296,33.074264279701296 0 0,0 -0.5423539388378371,0.1680226366258739 l -3.4739682851900384 -11.563710574446441" fill="red" stroke="none" /><path d="M 106.0420521117495 120.11202640906438 l 3.405515708141958 11.335854208447493 a32.83634774217023,32.83634774217023 0 0,0 -0.5412368095670503,0.15754614719518656 l -3.2104188861933007 -11.392644049945199" fill="red" stroke="none" /><path d="M 105.69591212413111 120.21278271476187 l 1.6294085804297656 5.782196226354095 a27.007392572659263,27.007392572659263 0 0,0 -0.44731778328709837,0.12191845096872696 l -1.529909396207972 -5.809315171466964" fill="red" stroke="none" /><path d="M 104.9986988182912 120.39639698878246 l 1.897173778703946 7.741116429251524 a28.97020400729051,28.97020400729051 0 0,0 -0.48403395646449254,0.11423069576948743 l -1.7640076684995742 -7.772543268667237" fill="red" stroke="none" /><path d="M 104.29559338865022 120.5559693870025 l 6.886284183436172 32.95336268067808 a54.66519006064499,54.66519006064499 0 0,0 -0.9202065145502909,0.18406707479655024 l -6.319581183354922 -33.066719152137495" fill="red" stroke="none" /><line stroke="#e1ed5e" stroke-width="0.3" x1="101.45913802915013" x2="101.54496967792366" y1="184.9874750549273" y2="189.98673829345242" /><path d="M 101.47630435890484 185.9873277026323 a86.0,86.0 0 0,1 -42.54439059252881,-10.42667462771756" fill="none" id="id7" stroke="none" /><text fill="#e1ed5e" style="font-size:6.75px; font-family:Arial;" text-anchor="middle"><textPath startOffset="22.145653131862474" xlink:href="#id7">July</textPath></text><path d="M 100.36049292484886 120.99690560180557 l 0.12150357368635255 7.076974029501471 a28.078016991549035,28.078016991549035 0 0,0 -0.48199649853520393,0.004137360241998195 l -8.668070853011104e-16 -7.078016991549035" fill="red" stroke="none" /><path d="M 100.0 121.0 l 2.4183189270585598e-15 19.747072615077975 a40.747072615077975,40.747072615077975 0 0,0 -0.6994776850494299,-0.006004174663266928 l 0.3389847602005753 -19.744162838609142" fill="red" stroke="none" /><path d="M 99.63950707515114 120.99690560180557 l -0.38493148974583397 22.420329488420624 a43.4236336623024,43.4236336623024 0 0,0 -0.7452047345982499,-0.019193830540070754 l 0.7697495384148277 -22.410417940530508" fill="red" stroke="none" /><path d="M 99.27912038922189 120.98762331915562 l -1.2965277371178134 37.74699043033653 a58.76925033305577,58.76925033305577 0 0,0 -1.0079604780365365,-0.043286159913899544 l 1.9443139757551888 -37.71917170199681" fill="red" stroke="none" /><path d="M 97.48249496171623 120.84855314841334 l -1.3191294661453874 10.92428430781565 a32.003639860811525,32.003639860811525 0 0,0 -0.5448576681171401,-0.07054273356830064 l 1.5064649561533214 -10.900029978046952" fill="red" stroke="none" /><path d="M 96.41257539226777 120.69131181640829 l -1.7476585036662393 10.08002982697242 a31.23041111383558,31.23041111383558 0 0,0 -0.5274448609046914,-0.09611802376958842 l 1.920438098121988 -10.048543629271466" fill="red" stroke="none" /><path d="M 96.05791012581884 120.62667999033965 l -2.4563743115513796 12.85278836302164 a34.0854095642083,34.0854095642083 0 0,0 -0.5737767653840156,-0.11477142263231623 l 2.6766475624663535 -12.808727543726462" fill="red" stroke="none" /><path d="M 95.70440661134978 120.55596938700252 l -2.5184820246842503 12.051848188869899 a33.31218081723235,33.31218081723235 0 0,0 -0.5587524794384897,-0.12177750227261107 l 2.7249969207418765 -12.00683922846357" fill="red" stroke="none" /><path d="M 95.35216902796893 120.47920084513623 l -6.94471381443997 30.599690452115997 a52.37786012031082,52.37786012031082 0 0,0 -0.875128903434613,-0.20652803835810513 l 7.468974871614471 -30.475966270111662" fill="red" stroke="none" /><path d="M 94.30408787586889 120.21278271476187 l -7.658768589725108 27.178267851239298 a49.23676645270608,49.23676645270608 0 0,0 -0.8115625585861619,-0.2362340329649753 l 8.124191160692876 -27.042790123971805" fill="red" stroke="none" /><path d="M 93.95794788825049 120.11202640906438 l -3.593760295024179 11.96245921494459 a33.49061822038065,33.49061822038065 0 0,0 -0.5491813378622864,-0.1701377822959533 l 3.798582265758099 -11.899004844841986" fill="red" stroke="none" /><path d="M 93.61358852112213 120.00534299687104 l -3.8166707527378985 11.955666772674565 a33.55009735476341,33.55009735476341 0 0,0 -0.5471497854148121,-0.17985900224151136 l 4.021343275800454 -11.888386849031033" fill="red" stroke="none" /><path d="M 93.27111125876986 119.89276391827306 l -6.041544163169403 17.86075180636416 a39.8548855993365,39.8548855993365 0 0,0 -0.6462075477323838,-0.22478452953261557 l 6.34725748294681 -17.754408844262954" fill="red" stroke="none" /><path d="M 92.93061703081489 119.77432235084164 l -5.34611276954826 14.954028900372903 a36.880928880198255,36.880928880198255 0 0,0 -0.5943288776253333,-0.21824579617676346 l 5.6020307988277125 -14.86005225518742" fill="red" stroke="none" /><path d="M 92.59220618246901 119.65005319985036 l -8.494189228075683 22.531846097859464 a45.07977033154556,45.07977033154556 0 0,0 -0.7217651993279492,-0.27919428438248833 l 8.879726689897161 -22.382711925338935" fill="red" stroke="none" /><path d="M 92.25597844496254 119.51999308798841 l -5.65387114600438 14.251448669921569 a36.33199426451204,36.33199426451204 0 0,0 -0.5777574952708707,-0.23496894357184925 l 5.897683102465691 -14.152292469770428" fill="red" stroke="none" /><path d="M 91.92203290615298 119.3841803445677 l -3.7988940918494776 9.115962881603384 a30.87584809420738,30.87584809420738 0 0,0 -0.4874927739240503,-0.20808167707598696 l 3.954821940943959 -9.049406554867995" fill="red" stroke="none" /><path d="M 91.26138138417905 119.09545874513695 l -9.925045421858508 21.688015432277187 a44.85113288748876,44.85113288748876 0 0,0 -0.6973524325435558,-0.3263961498189106 l 10.295886568273554 -21.51444305088775" fill="red" stroke="none" /><path d="M 90.93487009805054 118.94263497670748 l -14.147215708525508 29.56223970333953 a53.77300304490351,53.77300304490351 0 0,0 -0.8292302810710255,-0.40561808373113684 l 14.652606238858603 -29.315027869511173" fill="red" stroke="none" /><path d="M 90.6110303473126 118.78422872680471 l -16.19498584294898 32.400820276828135 a57.22279283910388,57.22279283910388 0 0,0 -0.8748895751504385,-0.4467248509068404 l 16.748802639813004 -32.11803747424846" fill="red" stroke="none" /><path d="M 90.28995756902619 118.62028667847754 l -5.7479470471607845 11.022446358157518 a33.431139085997884,33.431139085997884 0 0,0 -0.5065791599123592,-0.2697248694686774 l 5.936315022859706 -10.922151020966268" fill="red" stroke="none" /><line stroke="#e1ed5e" stroke-width="0.3" x1="58.13341422392154" x2="55.67067388415222" y1="173.97424548756322" y2="178.32567169271397" /><path d="M 57.64086615596768 174.84453072859336 a86.0,86.0 0 0,1 -31.369924170532247,-30.572349798747897" fill="none" id="id8" stroke="none" /><text fill="#e1ed5e" style="font-size:6.75px; font-family:Arial;" text-anchor="middle"><textPath startOffset="22.145653131862474" xlink:href="#id8">August</textPath></text><path d="M 89.65649057296885 118.27599006163327 l -3.9843012504366833 7.039878541149468 a29.089162276056037,29.089162276056037 0 0,0 -0.4324693126769435,-0.24968627409028765 l 4.104563030974027 -6.970445369783008" fill="red" stroke="none" /><path d="M 89.34428304082925 118.09573695890944 l -11.49881260883165 19.52749769034799 a43.66155019983346,43.66155019983346 0 0,0 -0.6425883316520018,-0.3858558300946309 l 11.832333697041078 -19.32722785971744" fill="red" stroke="none" /><path d="M 88.72937992617639 117.7192867562869 l -23.11169093268491 36.335416896009995 a64.06289329312185,64.06289329312185 0 0,0 -0.9228545552550196,-0.5981831731038855 l 23.73203112019694 -35.933319881202216" fill="red" stroke="none" /><path d="M 88.1277618465304 117.32195027204791 l -6.220849189645973 9.076404880023881 a32.003639860811525,32.003639860811525 0 0,0 -0.45049681157918275,-0.3144817618278132 l 6.375741092398921 -8.968278302390939" fill="red" stroke="none" /><path d="M 87.83215693770417 117.11559508785305 l -6.3912732108223915 8.99012617209403 a32.03044613084829,32.03044613084829 0 0,0 -0.4454046912572293,-0.3224386478399005 l 6.544658912453575 -8.879086752881063" fill="red" stroke="none" /><path d="M 87.2517909369889 116.68781488649013 l -12.059824521879635 15.786697424708393 a40.86603088384351,40.86603088384351 0 0,0 -0.5538126662748329,-0.4306480790012741 l 12.329047132789697 -15.577348294086326" fill="red" stroke="none" /><path d="M 86.96720088162412 116.46651593811092 l -12.207857137339241 15.424228693799478 a40.670755112204304,40.670755112204304 0 0,0 -0.5437277698486264,-0.43798860292073205 l 12.47083567754313 -15.212391797085335" fill="red" stroke="none" /><path d="M 86.68645165197938 116.24036423190432 l -18.06236765210991 22.033151635675218 a49.49050536934443,49.49050536934443 0 0,0 -0.6523924810253904,-0.5442490108140127 l 18.437934467297193 -21.719840440949337" fill="red" stroke="none" /><path d="M 86.13680546590413 115.77377054828092 l -9.249128609933754 10.52381051898371 a35.01060198144845,35.01060198144845 0 0,0 -0.4480272944943899,-0.4006287694102751 l 9.428420931251516 -10.363486219690055" fill="red" stroke="none" /><path d="M 85.86807049272751 115.53346607816431 l -6.964598026649672 7.655313249286982 a31.34936938260111,31.34936938260111 0 0,0 -0.39495761079608044,-0.36556686817809547 l 7.094985408759721 -7.534628634976508" fill="red" stroke="none" /><path d="M 85.34317274990678 115.03919595460226 l -16.85432435424314 17.29402157238879 a45.148528559402585,45.148528559402585 0 0,0 -0.5503994335928669,-0.5456951931970782 l 17.14871570796597 -17.002146368963054" fill="red" stroke="none" /><path d="M 85.08716467003676 114.78537596483092 l -17.613336084290168 17.462795654821658 a45.802799037613,45.802799037613 0 0,0 -0.5487899420047825,-0.5631068262520645 l 17.91051282744576 -17.157866136501855" fill="red" stroke="none" /><path d="M 84.83555147118756 114.52719865689866 l -6.611901612206164 6.334052177228073 a30.156279807506003,30.156279807506003 0 0,0 -0.35490231574487335,-0.37689396056111796 l 6.71965976168729 -6.219616756722465" fill="red" stroke="none" /><path d="M 84.58840730492382 114.26474011684316 l -15.496057547705755 14.342919523450051 a42.11509270588157,42.11509270588157 0 0,0 -0.48653420570020217,-0.5347863203125569 l 15.739989454247837 -14.07479562757982" fill="red" stroke="none" /><path d="M 84.3458050057657 113.99807769240083 l -13.922131517278366 12.449255850873415 a39.676448196188204,39.676448196188204 0 0,0 -0.44964550914823104,-0.5116140491230359 l 14.13378809038519 -12.20842952393908" fill="red" stroke="none" /><path d="M 84.1078160697243 113.72728997021213 l -13.461334668319518 11.627580273977198 a38.78786536041592,38.78786536041592 0 0,0 -0.43092475516853335,-0.5076282780436469 l 13.658953986995163 -11.394785213483997" fill="red" stroke="none" /><path d="M 83.64595745247003 113.17365903436017 l -13.988701757360449 11.268307927488827 a38.96269858359503,38.96269858359503 0 0,0 -0.41510779171165174,-0.5244751343260018 l 14.180075979713662 -11.026512849248144" fill="red" stroke="none" /><path d="M 83.4222238831116 112.89097897827486 l -16.29300120847894 12.66953628705002 a41.63925963081945,41.63925963081945 0 0,0 -0.43393664926837916,-0.5680370034458787 l 16.508089835101618 -12.387978370363271" fill="red" stroke="none" /><path d="M 83.20337586046588 112.60449989151573 l -17.69743348316369 13.280484016643044 a43.126237990388574,43.126237990388574 0 0,0 -0.43926739090910494,-0.5959505795133102 l 17.922802893656627 -12.974727127860854" fill="red" stroke="none" /><path d="M 82.98947788004972 112.3143062007846 l -8.286887359432635 5.999067381699105 a31.23041111383558,31.23041111383558 0 0,0 -0.31064577849439845,-0.4369621906890237 l 8.388648236456994 -5.8559279643005775" fill="red" stroke="none" /><path d="M 82.78059297857968 112.02048342749411 l -27.78229690531127 19.39420092181949 a54.88201662727253,54.88201662727253 0 0,0 -0.5326437263290534,-0.7771431149647028 l 28.111130368455647 -18.914423071784736" fill="red" stroke="none" /><path d="M 82.576782715395 111.72311816256416 l -21.181590659772883 14.251919500251612 a46.529923468742126,46.529923468742126 0 0,0 -0.4402075548632376,-0.6665303447019613 l 21.42312265355685 -13.88620927721059" fill="red" stroke="none" /><path d="M 81.99639281039703 110.81064883170644 l -22.84456472330473 13.71750473868692 a47.646652203478716,47.646652203478716 0 0,0 -0.4150393005866466,-0.7048274686539903 l 23.07667773402115 -13.32332610173937" fill="red" stroke="none" /><line stroke="#e1ed5e" stroke-width="0.3" x1="26.387840678322732" x2="22.057713659400548" y1="142.50000000000003" y2="145.00000000000006" /><path d="M 25.521815274538298 143.00000000000003 a86.0,86.0 0 0,1 -11.493303480769221,-40.785679425670985" fill="none" id="id9" stroke="none" /><text fill="#e1ed5e" style="font-size:6.75px; font-family:Arial;" text-anchor="middle"><textPath startOffset="21.40746469413373" xlink:href="#id9">September</textPath></text><path d="M 81.4637452351635 109.86951160357371 l -7.770143687638569 4.1371638585838335 a29.80291188864922,29.80291188864922 0 0,0 -0.23656690156611337,-0.45364822626819995 l 7.840018658179632 -4.003169389211131" fill="red" stroke="none" /><path d="M 81.29705330413844 109.54985784667822 l -8.104884153388404 4.138411598306102 a30.100307560563046,30.100307560563046 0 0,0 -0.23102715166499815,-0.4622090622835678 l 8.174731218265139 -3.9986706798587814" fill="red" stroke="none" /><path d="M 80.9802524753101 108.90220220490708 l -37.27830753864411 17.448130220179273 a62.159560992873374,62.159560992873374 0 0,0 -0.44404284793908005,-0.9703137597219974 l 37.57233485143824 -16.805627478242585" fill="red" stroke="none" /><path d="M 80.41425534168474 107.57618678355246 l -9.208598142574456 3.5620835847667744 a30.873536307538988,30.873536307538988 0 0,0 -0.18696030954571033,-0.49593443329098263 l 9.268389135934601 -3.403480871281647" fill="red" stroke="none" /><path d="M 80.28708602549918 107.23885506374661 l -13.623415356433993 5.002706822847722 a35.51290878939466,35.51290878939466 0 0,0 -0.20523050342504234,-0.5740662443443911 l 13.70728602990298 -4.76810562212241" fill="red" stroke="none" /><path d="M 79.94057633289273 106.21446072829308 l -13.294734023294538 4.11874258463081 a34.918117445567006,34.918117445567006 0 0,0 -0.17246836380950803,-0.5740910908265252 l 13.363478707107676 -3.8899138902135606" fill="red" stroke="none" /><path d="M 79.64726062577567 105.17358676015961 l -5.822233111904046 1.479988889380529 a27.007392572659263,27.007392572659263 0 0,0 -0.11036053138120828,-0.4503086286590054 l 5.846781169801548 -1.379824436113424" fill="red" stroke="none" /><path d="M 79.2786578344484 103.40968896794605 l -26.08421670486798 4.2921479325774525 a47.43499375792706,47.43499375792706 0 0,0 -0.12531536543430416,-0.8046145412657867 l 26.154053562440552 -3.843745209380216" fill="red" stroke="none" /><path d="M 79.17382384314188 102.69636545807758 l -23.889656513177375 3.0929943232165282 a45.08904942501982,45.08904942501982 0 0,0 -0.09279307850877971,-0.7684598043203792 l 23.939231677945816 -2.68244084197275" fill="red" stroke="none" /><path d="M 79.13060592940153 102.33845913500099 l -21.284743088193647 2.3849998587576673 a42.417948376459435,42.417948376459435 0 0,0 -0.07487294581674041,-0.7243278315159251 l 21.322548426492055 -2.0192675049588105" fill="red" stroke="none" /><path d="M 79.0935383218832 101.97986365728391 l -20.784184929091115 1.968283922020524 a41.877176168350516,41.877176168350516 0 0,0 -0.06163199081010564,-0.7162571559530012 l 20.814910542598962 -1.6112057186918607" fill="red" stroke="none" /><path d="M 79.03789590574601 101.26102812881392 l -26.954797337662352 1.6215336731672887 a48.00352700977531,48.00352700977531 0 0,0 -0.0424223410371387,-0.8229820829010034 l 26.978661268156063 -1.1585797968895546" fill="red" stroke="none" /><path d="M 79.00696218219943 100.54070618675478 l -25.38917025517103 0.6539349641861131 a46.39759038144065,46.39759038144065 0 0,0 -0.01367307913012479,-0.7963883116473769 l 25.39665476589982 -0.21799973656968383" fill="red" stroke="none" /><line stroke="#e1ed5e" stroke-width="0.3" x1="15.003131293944662" x2="10.003315487706104" y1="100.72959589197737" y2="100.7725132973878" /><path d="M 14.003168132696942 100.73817937305945 a86.0,86.0 0 0,1 10.791469493833604,-42.45332614584628" fill="none" id="id10" stroke="none" /><text fill="#e1ed5e" style="font-size:6.75px; font-family:Arial;" text-anchor="middle"><textPath startOffset="22.145653131862435" xlink:href="#id10">October</textPath></text><path d="M 79.00077361379809 99.81974689727619 l -12.847019741064083 -0.11027621334672061 a33.84749302667724,33.84749302667724 0 0,0 0.009974644086155558,-0.5809730118181812 l 12.843233665379262 0.3307961411339542" fill="red" stroke="none" /><path d="M 79.13060592940154 97.66154086499901 l -21.33842626108256 -2.391015170252264 a42.47196751217816,42.47196751217816 0 0,0 0.08740713468207073,-0.7238564631481407 l 21.29423704014082 2.7569653103238414" fill="red" stroke="none" /><path d="M 79.17382384314186 97.30363454192245 l -34.330321211528975 -4.444747397807412 a55.61685621076923,55.61685621076923 0 0,0 0.13071413456961928,-0.9457823625724482 l 34.24896256040415 5.033418068579928" fill="red" stroke="none" /><path d="M 79.22317932658666 96.9465228501225 l -22.067630515724318 -3.2431817452190246 a43.30467539353687,43.30467539353687 0 0,0 0.11440375115571942,-0.7345541501333414 l 22.00870527243033 3.621524077283816" fill="red" stroke="none" /><path d="M 79.2786578344484 96.59031103205396 l -8.405807300576452 -1.3831723925250299 a29.518847471452215,29.518847471452215 0 0,0 0.08656779090229914,-0.49930001342924635 l 8.38082469218192 1.527265438874869" fill="red" stroke="none" /><path d="M 79.34024301695615 96.23510406497455 l -44.98856914793408 -8.19841594684206 a66.72948040395693,66.72948040395693 0 0,0 0.21503958823908398,-1.1251779927476595 l 44.84120326741284 8.969496504623033" fill="red" stroke="none" /><path d="M 79.407916724674 95.88100663000787 l -61.776249825978006 -12.356980109976396 a84.0,84.0 0 0,0 0.29496915670253276,-1.4115341948583637 l 61.55502295845111 13.41563075612017" fill="red" stroke="none" /><path d="M 79.48165901384962 95.52812308129327 l -20.630793909212123 -4.496385509894499 a42.11509270588157,42.11509270588157 0 0,0 0.1600155696391188,-0.7050581246839844 l 20.550567478015342 4.849877968517492" fill="red" stroke="none" /><path d="M 79.83685265289637 94.1308016681162 l -17.132665009112408 -4.98706909001738 a38.843740314829496,38.843740314829496 0 0,0 0.19185789001321352,-0.6386325174570313 l 17.044530799095565 5.280439211065135" fill="red" stroke="none" /><path d="M 80.41425534168474 92.42381321644754 l -14.534052490087397 -5.622083730174062 a36.58353320828443,36.58353320828443 0 0,0 0.23159349424427927,-0.5837668935632965 l 14.435400320876987 5.870751640950941" fill="red" stroke="none" /><path d="M 81.29705330413844 90.45014215332179 l -9.164346134223488 -4.679380434685979 a31.28989024821834,31.28989024821834 0 0,0 0.24837010604941484,-0.47628242717577535 l 9.082667959199132 4.836009104966241" fill="red" stroke="none" /><line stroke="#e1ed5e" stroke-width="0.3" x1="26.387840678322718" x2="22.05771365940052" y1="57.49999999999999" y2="54.99999999999999" /><path d="M 25.521815274538284 56.99999999999999 a86.0,86.0 0 0,1 29.574782752854787,-30.34633250058573" fill="none" id="id11" stroke="none" /><text fill="#e1ed5e" style="font-size:6.75px; font-family:Arial;" text-anchor="middle"><textPath startOffset="21.40746469413373" xlink:href="#id11">November</textPath></text><path d="M 82.78059297857968 87.97951657250589 l -19.410941849476057 -13.55034494064902 a44.672695484340466,44.672695484340466 0 0,0 0.44435483784033375,-0.6250407275033335 l 19.175471913105753 13.881562894861874" fill="red" stroke="none" /><path d="M 84.10781606972428 86.27271002978789 l -14.223812218349435 -12.286190221543782 a39.795406464953736,39.795406464953736 0 0,0 0.450993640187128,-0.5131479747722991 l 14.010807514203714 12.528550474127382" fill="red" stroke="none" /><path d="M 84.34580500576568 86.00192230759919 l -11.926921586458223 -10.665126827659067 a36.99988714896378,36.99988714896378 0 0,0 0.4274408424252435,-0.46983236243979726 l 11.742083043191114 10.868296765656522" fill="red" stroke="none" /><path d="M 86.40962598614128 83.9905735841838 l -10.085049750379673 -11.880163247450367 a36.58353320828443,36.58353320828443 0 0,0 0.4822505209092024,-0.4023105363765882 l 9.879624895308563 12.051535967738838" fill="red" stroke="none" /><line stroke="#e1ed5e" stroke-width="0.3" x1="56.869717070023135" x2="54.33264160355391" y1="26.7553504044142" y2="22.446841604673864" /><path d="M 56.362301976729285 25.89364864446614 a86.0,86.0 0 0,1 42.16139366436587,-11.88097634709845" fill="none" id="id12" stroke="none" /><text fill="#e1ed5e" style="font-size:6.75px; font-family:Arial;" text-anchor="middle"><textPath startOffset="22.145653131862474" xlink:href="#id12">December</textPath></text></svg>