<?xml version="1.0" encoding="utf-8" ?>
<svg baseProfile="full" height="200mm" version="1.1" viewBox="0,0,200,200" width="200mm" xmlns="http://www.w3.org/2000/svg" xmlns:ev="http://www.w3.org/2001/xml-events" xmlns:xlink="http://www.w3.org/1999/xlink"><defs /><rect fill="#1a1a1a" height="200" width="200" x="0" y="0" /><rect fill="#1a1a1a" height="200" width="180" x="10" y="0" /><text alignment-baseline="middle" fill="#e1ed5e" style="dominant-baseline: central; font-size:9.0px; font-family:Arial;" text-anchor="middle" x="100.0" y="100.0">2025</text><line stroke="#e1ed5e" stroke-width="0.3" x1="100.0" x2="100.0" y1="15.0" y2="10.0" /><path d="M 100.0 14.0 a86.0,86.0 0 0,1 42.46469731375804,11.215312516191453" fill="none" id="id13" stroke="none" /><text fill="#e1ed5e" style="font-size:6.75px; font-family:Arial;" text-anchor="middle"><textPath startOffset="22.20632615414155" xlink:href="#id13">January</textPath></text><line stroke="#e1ed5e" stroke-width="0.3" x1="143.23703022742887" x2="145.7803849466894" y1="26.81831364943548" y2="22.513508569990506" /><path d="M 143.74570117128098 25.957352633546492 a86.0,86.0 0 0,1 28.547481713284135,27.462654790039103" fill="none" id="id14" stroke="none" /><text fill="#e1ed5e" style="font-size:6.75px; font-family:Arial;" text-anchor="middle"><textPath startOffset="19.985693538727396" xlink:href="#id14">February</textPath></text><line stroke="#e1ed5e" stroke-width="0.3" x1="172.23445277983987" x2="176.4835382374775" y1="55.19839476539836" y2="52.563006222186495" /><path d="M 173.08426987136738 54.67131705675599 a86.0,86.0 0 0,1 12.851231095245387,41.99856678651699" fill="none" id="id15" stroke="none" /><text fill="#e1ed5e" style="font-size:6.75px; font-family:Arial;" text-anchor="middle"><textPath startOffset="22.20632615414155" xlink:href="#id15">March</textPath></text><path d="M 119.47837535516314 92.15188598940014 l 12.455408480621827 -5.018460935377826 a34.428408341239084,34.428408341239084 0 0,0 0.21674560238183208,0.5515939164887699 l -12.53994763288536 4.803318013993272" fill="red" stroke="none" /><path d="M 119.7369772167798 92.82701384747503 l 22.141558125008093 -8.046880131724764 a44.558456572056215,44.558456572056215 0 0,0 0.2557802220776796,0.7231251315487321 l -22.27679142789558 7.664557373749418" fill="red" stroke="none" /><path d="M 120.08093135843002 93.85539295169968 l 5.970391036615058 -1.8268926968515917 a27.243645253848356,27.243645253848356 0 0,0 0.13335647967982722,0.4496117544231531 l -6.000953413406587 1.7238515556819087" fill="red" stroke="none" /><path d="M 120.18372546131832 94.20196356495316 l 21.829641801915443 -6.270847211734738 a43.712480841001394,43.712480841001394 0 0,0 0.20152125889396788,0.7249791893541149 l -21.934349831375773 5.894156718961671" fill="red" stroke="none" /><line stroke="#e1ed5e" stroke-width="0.3" x1="184.98032266829074" x2="189.97916517819016" y1="98.17113171792111" y2="98.06355123074" /><path d="M 185.9800911702706 98.14961562048488 a86.0,86.0 0 0,1 -9.607161424134198,41.387399972396054" fill="none" id="id16" stroke="none" /><text fill="#e1ed5e" style="font-size:6.75px; font-family:Arial;" text-anchor="middle"><textPath startOffset="21.466115282336823" xlink:href="#id16">April</textPath></text><line stroke="#e1ed5e" stroke-width="0.3" x1="174.80103733775053" x2="179.2010983576182" y1="140.37084112569926" y2="142.7455964860345" /><path d="M 175.68104954172406 140.8457921977663 a86.0,86.0 0 0,1 -30.038265399797805,32.042727171017184" fill="none" id="id17" stroke="none" /><text fill="#e1ed5e" style="font-size:6.75px; font-family:Arial;" text-anchor="middle"><textPath startOffset="22.206326154141568" xlink:href="#id17">May</textPath></text><line stroke="#e1ed5e" stroke-width="0.3" x1="143.8653032363475" x2="146.44561519142675" y1="172.8068346515853" y2="177.08958963109032" /><path d="M 144.38136562736335 173.6633856474863 a86.0,86.0 0 0,1 -40.68145358897372,12.25698825130547" fill="none" id="id18" stroke="none" /><text fill="#e1ed5e" style="font-size:6.75px; font-family:Arial;" text-anchor="middle"><textPath startOffset="21.466115282336833" xlink:href="#id18">June</textPath></text><line stroke="#e1ed5e" stroke-width="0.3" x1="102.19456741930631" x2="102.32365962044197" y1="184.97166512339345" y2="189.96999836594603" /><path d="M 102.22038585953345 185.97133177190398 a86.0,86.0 0 0,1 -42.740103519485714,-10.115201625700543" fill="none" id="id19" stroke="none" /><text fill="#e1ed5e" style="font-size:6.75px; font-family:Arial;" text-anchor="middle"><textPath startOffset="22.20632615414155" xlink:href="#id19">July</textPath></text><line stroke="#e1ed5e" stroke-width="0.3" x1="58.666819895761336" x2="56.23545636021788" y1="174.27360380694188" y2="178.64263932499728" /><path d="M 58.180547188652646 175.14741091055294 a86.0,86.0 0 0,1 -31.652253787137756,-30.449443065178592" fill="none" id="id20" stroke="none" /><text fill="#e1ed5e" style="font-size:6.75px; font-family:Arial;" text-anchor="middle"><textPath startOffset="22.20632615414155" xlink:href="#id20">August</textPath></text><line stroke="#e1ed5e" stroke-width="0.3" x1="26.63291911575756" x2="22.317208475507996" y1="142.92168965132927" y2="145.44649492493687" /><path d="M 25.769776987707644 143.4266507060508 a86.0,86.0 0 0,1 -11.730757126820373,-40.83630448921669" fill="none" id="id21" stroke="none" /><text fill="#e1ed5e" style="font-size:6.75px; font-family:Arial;" text-anchor="middle"><textPath startOffset="21.46611528233685" xlink:href="#id21">September</textPath></text><path d="M 81.02952815118164 109.00673069616217 l -4.541806856135764 2.156342317323318 a26.02770541180777,26.02770541180777 0 0,0 -0.1886703537663121,-0.40637915711000183 l 4.578251826741902 -2.077843092934489" fill="red" stroke="none" /><path d="M 80.73074385275274 108.34839909993369 l -4.437499068075334 1.9225450605247658 a25.836070459465788,25.836070459465788 0 0,0 -0.17328500828867566,-0.4095945720304852 l 4.469935057556316 -1.8458759628281218" fill="red" stroke="none" /><path d="M 80.20201598880116 107.00284435728193 l -9.404267621799933 3.326430732161348 a30.975238890287393,30.975238890287393 0 0,0 -0.17347486224865213,-0.5041991514776298 l 9.460133314991813 -3.1640588775944214" fill="red" stroke="none" /><path d="M 79.97269907076064 106.31721596034903 l -13.724239524245798 4.3290399077012 a35.39080737975949,35.39080737975949 0 0,0 -0.17825713905576288,-0.5825546443232757 l 13.79672343580769 -4.092158290825877" fill="red" stroke="none" /><line stroke="#e1ed5e" stroke-width="0.3" x1="15.007084014347285" x2="10.007500721073583" y1="101.09737516637583" y2="101.16192664675087" /><path d="M 14.007167355692545 101.11028546245083 a86.0,86.0 0 0,1 10.666146001902534,-42.60595125391555" fill="none" id="id22" stroke="none" /><text fill="#e1ed5e" style="font-size:6.75px; font-family:Arial;" text-anchor="middle"><textPath startOffset="22.20632615414155" xlink:href="#id22">October</textPath></text><path d="M 79.03285615573316 98.82574320788736 l -32.07662382992588 -1.796438927499991 a53.12688888060601,53.12688888060601 0 0,0 0.058994650022378345,-0.9126211241960036 l 32.04094858889909 2.3483191159490064" fill="red" stroke="none" /><path d="M 79.08570108090925 98.10471618934814 l -31.434543634069243 -2.848643498659091 a52.56335380254538,52.56335380254538 0 0,0 0.08941495626708934,-0.9003964071912334 l 31.380851552119925 3.389315436554755" fill="red" stroke="none" /><path d="M 79.12142395522702 97.74499172005258 l -40.03939518654876 -4.324488771462872 a61.27225310358401,61.27225310358401 0 0,0 0.12228088086885522,-1.0476279116088458 l 39.95902395267631 5.013060421396579" fill="red" stroke="none" /><path d="M 79.16333360222342 97.38593545837743 l -5.910993762468501 -0.741563880960817 a26.957328616879145,26.957328616879145 0 0,0 0.06172458164820471,-0.4599198281125363 l 5.897353181762463 0.8432020511380127" fill="red" stroke="none" /><path d="M 79.21141760316559 97.0276538004421 l -6.498675276601821 -0.9291789306186516 a27.564766091478155,27.564766091478155 0 0,0 0.0712012432946119,-0.469127231799936 l 6.4817181398679065 1.0409052748106797" fill="red" stroke="none" /><path d="M 79.26566170972629 96.67025291283419 l -62.20301487082115 -9.989241261497433 a84.0,84.0 0 0,0 0.2415525539191079,-1.4256568467366881 l 62.021850455381816 11.05848389654995" fill="red" stroke="none" /><path d="M 79.46518482838121 95.60439243477599 l -6.292238083971863 -1.34689351196712 a27.434779113377942,27.434779113377942 0 0,0 0.10282243369438604,-0.46093280879878823 l 6.268121263275439 1.4550044903158674" fill="red" stroke="none" /><path d="M 79.62865764111835 94.90015583598534 l -13.773887960891004 -3.448210770583602 a35.198948801849625,35.198948801849625 0 0,0 0.1521996983579617,-0.5864875239376057 l 13.712491930662734 3.6847947200700717" fill="red" stroke="none" /><path d="M 79.71946130924805 94.55025226153421 l -30.73572511129875 -8.259245524468655 a52.826088901257975,52.826088901257975 0 0,0 0.2435363935656815,-0.8761299832806764 l 30.589001947166707 8.787086811168274" fill="red" stroke="none" /><path d="M 79.81627453868168 94.20196356495316 l -34.554234247111786 -9.926151122787411 a56.95168397330905,56.95168397330905 0 0,0 0.2787760600958991,-0.9398942876403339 l 34.37825228990418 10.519474797174285" fill="red" stroke="none" /><path d="M 79.91906864156998 93.8553929516997 l -12.521007762676065 -3.831329890884967 a34.09407209869347,34.09407209869347 0 0,0 0.17654968460687623,-0.5597107467557334 l 12.453202594300986 4.046290804067114" fill="red" stroke="none" /><path d="M 80.02781315780177 93.51064311812611 l -19.131775591880732 -6.216290713710015 a41.116339317466306,41.116339317466306 0 0,0 0.22450051125422682,-0.6712279536857095 l 19.021937786854735 6.544691770318047" fill="red" stroke="none" /><path d="M 80.14247586403 93.16781622104843 l -8.589674333236154 -2.9553650920513403 a30.083869658816752,30.083869658816752 0 0,0 0.17269132403283835,-0.4882216279046289 l 8.537529928393505 3.10278434638258" fill="red" stroke="none" /><path d="M 80.2630227832202 92.82701384747504 l -14.170621560118706 -5.150012137470924 a36.077438125099334,36.077438125099334 0 0,0 0.21714393512519045,-0.5818377889631753 l 14.079873036491888 5.393173063463441" fill="red" stroke="none" /><path d="M 80.38941819471856 92.48833698450439 l -5.57746891135772 -2.136401018466424 a26.972634993775046,26.972634993775046 0 0,0 0.16980744394589875,-0.4321414230589985 l 5.53986791753013 2.232091446421186" fill="red" stroke="none" /><path d="M 80.52162464483688 92.15188598940014 l -29.67795565180018 -11.95766973938692 a52.99635787502177,52.99635787502177 0 0,0 0.34820705051289375,-0.8432109923524614 l 29.467726914401084 12.466755302192693" fill="red" stroke="none" /><path d="M 80.65960295795068 91.81776055985345 l -28.214314753161855 -11.936480851355244 a51.6353901901911,51.6353901901911 0 0,0 0.35335644148707473,-0.8155953855091004 l 28.0046676018321 12.420375381450944" fill="red" stroke="none" /><path d="M 80.803312248108 91.48605970444005 l -52.65557729268263 -23.35332256753289 a78.6019747488653,78.6019747488653 0 0,0 0.5591882337897912,-1.2320971499465594 l 52.245786741929486 24.25624172632152" fill="red" stroke="none" /><path d="M 81.10775173730289 90.83032412892265 l -4.358088750985402 -2.115272926136071 a25.84430770219128,25.84430770219128 0 0,0 0.19769663116704864,-0.39854434482081347 l 4.321032106864941 2.189976859455846" fill="red" stroke="none" /><path d="M 81.26839172434947 90.50648371742162 l -9.814372933862774 -4.9741008823059545 a32.00289033264874,32.00289033264874 0 0,0 0.25326564213798103,-0.48922860777577387 l 9.727297858564679 5.142302212342064" fill="red" stroke="none" /><path d="M 81.43458229118936 90.18545643968196 l -27.438449426077987 -14.505240945482502 a52.03659971378858,52.03659971378858 0 0,0 0.4254410816698994,-0.7882777110320074 l 27.184700245189614 14.975399639846982" fill="red" stroke="none" /><path d="M 81.6062741919709 89.86733742301443 l -22.117362950226727 -12.183925008251643 a46.25125288928773,46.25125288928773 0 0,0 0.3901455252375576,-0.6940253557900478 l 21.90435978369674 12.562833873976476" fill="red" stroke="none" /><line stroke="#e1ed5e" stroke-width="0.3" x1="26.266209847984243" x2="21.928928074336255" y1="57.711370442889674" y2="55.22380399835377" /><path d="M 25.398753493254645 57.213857153982495 a86.0,86.0 0 0,1 29.58750427330803,-30.492523968695096" fill="none" id="id23" stroke="none" /><text fill="#e1ed5e" style="font-size:6.75px; font-family:Arial;" text-anchor="middle"><textPath startOffset="21.46611528233685" xlink:href="#id23">November</textPath></text><path d="M 81.78341655067845 89.55222093294921 l -13.734749795780493 -7.877307608572448 a36.83336120704526,36.83336120704526 0 0,0 0.3201701783374355,-0.5472746194668393 l 13.597119942972732 8.11256164039318" fill="red" stroke="none" /><path d="M 81.96595687620814 89.24020034530311 l -31.466392519537667 -18.774052886654605 a57.64149178164721,57.64149178164721 0 0,0 0.5157107461422082,-0.8476928696472489 l 31.13856597510924 19.31291352950893" fill="red" stroke="none" /><path d="M 82.34701348167596 88.62581576622439 l -5.38698028258216 -3.4709427854717014 a27.408353952845225,27.408353952845225 0 0,0 0.2589480782640733,-0.39439568860267304 l 5.326435568960166 3.5631565380520414" fill="red" stroke="none" /><path d="M 82.54541684631803 88.32363383020206 l -32.45239341684804 -21.709256834444943 a60.04420150016871,60.04420150016871 0 0,0 0.582072876375746,-0.8541201220609459 l 32.07389607480356 22.264654979776303" fill="red" stroke="none" /><path d="M 82.7489923806493 88.02491185347247 l -17.598597181854718 -12.216373510353426 a42.42312779483075,42.42312779483075 0 0,0 0.4215795904394526,-0.596294433241527 l 17.38570497161139 12.51749444392674" fill="red" stroke="none" /><path d="M 82.95767976084542 87.72973835380427 l -25.103696173999587 -18.074353492893767 a51.933441706065665,51.933441706065665 0 0,0 0.5285770549252375,-0.7209785088911883 l 24.78885650656072 18.503794445456457" fill="red" stroke="none" /><path d="M 83.17141714833178 87.43820079747576 l -4.968430065331578 -3.7087151890685024 a27.199989166742,27.199989166742 0 0,0 0.2832996217338128,-0.3727890941933094 l 4.9038545033736565 3.7936890591428383" fill="red" stroke="none" /><path d="M 83.39014120810768 87.1503855733568 l -4.041704059898277 -3.126717658890738 a26.1099642881548,26.1099642881548 0 0,0 0.2780660461372839,-0.3531156405452506 l 3.9872839331670216 3.195825693389036" fill="red" stroke="none" /><path d="M 84.07557802195018 86.31012108654704 l -22.696666189002148 -19.511829835631687 a50.93075608182393,50.93075608182393 0 0,0 0.5772349686479202,-0.6598793543184113 l 22.357439356776386 19.89962474615304" fill="red" stroke="none" /><path d="M 84.5562425177563 85.77008943001954 l -23.953830969909706 -22.071110149336693 a53.57176570834253,53.57176570834253 0 0,0 0.6306995763259438,-0.6727863337682692 l 23.570364071613305 22.480165899983014" fill="red" stroke="none" /><path d="M 84.80347519578584 85.50635884689758 l -3.513578065861366 -3.3510648194963863 a25.855395581141504,25.855395581141504 0 0,0 0.30993938304122837,-0.31941977866491544 l 3.4553744191170193 3.4110487937114256" fill="red" stroke="none" /><path d="M 85.05521093208273 85.24692304244772 l -15.873683698558617 -15.670055705732013 a43.30525677912339,43.30525677912339 0 0,0 0.5282503072082466,-0.5259818325116996 l 15.601597591183056 15.940973388893822" fill="red" stroke="none" /><path d="M 85.31137513191541 84.99185889309783 l -4.278050260246161 -4.371109109587223 a27.116233226186576,27.116233226186576 0 0,0 0.33639205359690694,-0.32360888903714624 l 4.202174963036827 4.444101085386683" fill="red" stroke="none" /><path d="M 85.57189188830299 84.74124197986013 l -3.75099173119185 -3.9669424929939754 a26.45953951448205,26.45953951448205 0 0,0 0.33363226008825364,-0.3100748251947943 l 3.68215158730874 4.030921904263417" fill="red" stroke="none" /><path d="M 85.83668400450813 84.49514656593479 l -21.315639435500298 -23.3346389649153 a52.6047759075618,52.6047759075618 0 0,0 0.6738146056719184,-0.6049574059593399 l 20.910813842232407 23.698095379643917" fill="red" stroke="none" /><path d="M 86.37877921826538 84.01681056812374 l -23.739286292552695 -27.855763875453025 a57.59914336107847,57.59914336107847 0 0,0 0.7601508790540282,-0.6366045004387709 l 23.256277876539556 28.26026953328561" fill="red" stroke="none" /><path d="M 86.93701828274178 83.55741782278169 l -21.37770863846518 -26.908460767743488 a55.36672354939148,55.36672354939148 0 0,0 0.7513197018602165,-0.5864169445375349 l 20.911356381445536 27.272456101504243" fill="red" stroke="none" /><path d="M 87.80319425747018 82.90503203632743 l -22.06267000942357 -30.922902681726725 a58.986672902588616,58.986672902588616 0 0,0 0.8316246202867047,-0.5826061921391573 l 21.527114249553204 31.298093716629825" fill="red" stroke="none" /><path d="M 88.09926311788651 82.69761687909137 l -3.0119474488866773 -4.379045534483374 a26.314872268261368,26.314872268261368 0 0,0 0.37541962851726873,-0.25348500901197485 l 2.9361231259628693 4.430242455794014" fill="red" stroke="none" /><path d="M 88.39885842347998 82.49532879139004 l -20.346557203484203 -30.70040924205341 a57.83066002210948,57.83066002210948 0 0,0 0.8345046146360742,-0.5427850146153308 l 19.81508556306384 31.04609318082828" fill="red" stroke="none" /><path d="M 88.70189139769569 82.29822771554957 l -9.717199279942669 -15.224818148861484 a39.061535081825696,39.061535081825696 0 0,0 0.5698907727624358,-0.35686554962195893 l 9.45368935480799 15.389828039806373" fill="red" stroke="none" /><path d="M 89.00827224532344 82.1063720568725 l -7.8247570499636705 -12.738060341591298 a35.949414843296616,35.949414843296616 0 0,0 0.5300620253696637,-0.319356439380744 l 7.604332958376357 12.870863390430662" fill="red" stroke="none" /><line stroke="#e1ed5e" stroke-width="0.3" x1="56.762969772571076" x2="54.21961505331055" y1="26.818313649435495" y2="22.513508569990535" /><path d="M 56.25429882871897 25.957352633546506 a86.0,86.0 0 0,1 42.265352541879196,-11.944610805530505" fill="none" id="id24" stroke="none" /><text fill="#e1ed5e" style="font-size:6.75px; font-family:Arial;" text-anchor="middle"><textPath startOffset="22.20632615414155" xlink:href="#id24">December</textPath></text><path d="M 89.3179101791058 81.91981866633112 l -2.765716020303399 -4.681167075257991 a26.437141739134848,26.437141739134848 0 0,0 0.39379163429899283,-0.22810953207720439 l 2.6847276535390856 4.7280807647252425" fill="red" stroke="none" /><path d="M 89.94658935756843 81.56283822128135 l -2.372018298838779 -4.350094378239183 a25.95477465780374,25.95477465780374 0 0,0 0.3940861174229682,-0.21050715586082155 l 2.2967871348875053 4.390280260601754" fill="red" stroke="none" /><path d="M 90.26544431104013 81.39251694778311 l -20.51321763126414 -39.210762320983584 a65.25241213064291,65.25241213064291 0 0,0 0.999727583931909,-0.512099298119948 l 19.835229559743468 39.55805414441604" fill="red" stroke="none" /><path d="M 90.58718382345135 81.22770947309562 l -6.664052527872518 -13.290340297035767 a35.86750622348136,35.86750622348136 0 0,0 0.5542874452477174,-0.27198644213910905 l 6.4342938156143745 13.403081899309706" fill="red" stroke="none" /><path d="M 90.91171255644093 81.06846463323043 l -9.47585784930022 -19.73887150011357 a42.89554589586979,42.89554589586979 0 0,0 0.6683979645393453,-0.31382180658944314 l 9.134681673461266 19.89905828934302" fill="red" stroke="none" /><path d="M 91.23893434514133 80.91482961587045 l -16.4185548627985 -35.76630165348794 a60.35476181799375,60.35476181799375 0 0,0 0.9479085563453862,-0.4252989383609683 l 15.800464187986341 36.04362092236544" fill="red" stroke="none" /><path d="M 91.90106846888425 80.62456947434976 l -2.3779017103258444 -5.68875896878906 a27.16574368174258,27.16574368174258 0 0,0 0.4329910764241323,-0.17662793183186784 l 2.2796267643133317 5.728847786804505" fill="red" stroke="none" /><path d="M 92.23578459929587 80.48803036053334 l -1.9335213069786814 -4.859062647284165 a26.229626607586123,26.229626607586123 0 0,0 0.42094408297756913,-0.16331976443659088 l 1.849594059001436 4.8916251156113075" fill="red" stroke="none" /><path d="M 92.57280143429618 80.3572730644239 l -5.75681524194207 -15.225060810706223 a37.27708199953416,37.27708199953416 0 0,0 0.6021450027555807,-0.2217750862255981 l 5.4938879134139205 15.321899164738143" fill="red" stroke="none" /><path d="M 92.91201910852362 80.23233633223022 l -13.142355031987933 -36.652702377791805 a59.93766925975159,59.93766925975159 0 0,0 0.9741811977550496,-0.3398726913474993 l 12.509491830169598 36.87349592231151" fill="red" stroke="none" /><path d="M 93.59665428221793 80.00007090966166 l -2.3527652771875633 -7.3485238473520935 a28.715977396587025,28.715977396587025 0 0,0 0.47205597305761565,-0.1466700886797323 l 2.225923931419219 7.38793407091435" fill="red" stroke="none" /><path d="M 94.28887869178378 79.79150937346287 l -1.3732926192038397 -4.8593208802530805 a26.049646723803885,26.049646723803885 0 0,0 0.43255079988413125,-0.11823247330946166 l 1.289443930095986 4.882239894388838" fill="red" stroke="none" /><path d="M 94.98787191387505 79.60689891045804 l -5.686096097298767 -23.135309099156377 a44.82381614983679,44.82381614983679 0 0,0 0.7508550848313719,-0.1777031394247599 l 5.287017325504862 23.22975815072201" fill="red" stroke="none" /><path d="M 95.692805502759 79.44645832069477 l -4.21909991596128 -20.13316232350562 a41.570489280653746,41.570489280653746 0 0,0 0.7016179893309535,-0.1407379681804382 l 3.87191551716319 20.202804247763268" fill="red" stroke="none" /><path d="M 96.04723909329186 79.375362276772 l -6.619499532196034 -34.539093808817874 a56.16769505087112,56.16769505087112 0 0,0 0.9511193522140307,-0.1738109822152141 l 6.02398505887911 34.64792027238383" fill="red" stroke="none" /><path d="M 99.27714615592234 79.0124445844662 l -0.21645797539963904 -6.2847058102468845 a27.28843233059441,27.28843233059441 0 0,0 0.46958631483636915,-0.012128029097647187 l 0.10824502536839091 6.287500631486891" fill="red" stroke="none" /><path d="M 99.63851952072746 79.00311137660856 l -0.5262681274259541 -30.568713640750452 a51.573243396671984,51.573243396671984 0 0,0 0.8877486066984822,-0.00764113253009135 l 7.48828493305746e-15 30.573243396671984" fill="red" stroke="none" /></svg>