<?xml version="1.0" encoding="utf-8" ?>
<svg baseProfile="full" height="200mm" version="1.1" viewBox="0,0,200,200" width="200mm" xmlns="http://www.w3.org/2000/svg" xmlns:ev="http://www.w3.org/2001/xml-events" xmlns:xlink="http://www.w3.org/1999/xlink"><defs /><rect fill="#1a1a1a" height="200" width="200" x="0" y="0" /><rect fill="#1a1a1a" height="200" width="180" x="10" y="0" /><text alignment-baseline="middle" fill="#e1ed5e" style="dominant-baseline: central; font-size:9.0px; font-family:Arial;" text-anchor="middle" x="100.0" y="100.0">2026</text><line stroke="#e1ed5e" stroke-width="0.3" x1="100.0" x2="100.0" y1="15.0" y2="10.0" /><path d="M 100.0 14.0 a86.0,86.0 0 0,1 42.46469731375804,11.215312516191453" fill="none" id="id25" stroke="none" /><text fill="#e1ed5e" style="font-size:6.75px; font-family:Arial;" text-anchor="middle"><textPath startOffset="22.20632615414155" xlink:href="#id25">January</textPath></text><path d="M 100.0 79.0 l 0.0 -16.763071148545215 a37.763071148545215,37.763071148545215 0 0,0 0.650029193218034,0.005595006487567994 l -0.2885487139455056 16.760587518666206" fill="red" stroke="none" /><path d="M 100.36148047927253 79.00311137660856 l 0.6525466682066949 -37.90370573115044 a58.90932240634003,58.90932240634003 0 0,0 1.0137266693509268,0.02618156908433914 l -1.3048999727524897 37.88685736992374" fill="red" stroke="none" /><path d="M 100.72285384407766 79.0124445844662 l 0.49480687666369216 -14.366371333636758 a35.3748898827481,35.3748898827481 0 0,0 0.6083793230653505,0.026198093411094962 l -0.7420270321183743 14.355725513701469" fill="red" stroke="none" /><path d="M 101.08401301168833 79.027996857942 l 1.3276615038173962 -25.685781378474257 a46.72007095813488,46.72007095813488 0 0,0 0.8027797467905401,0.048425866622800025 l -1.7696032994475481 25.659122242471152" fill="red" stroke="none" /><path d="M 101.44485096284872 79.0497635885617 l 0.3796063489237516 -5.504265116421031 a26.517339526619025,26.517339526619025 0 0,0 0.45510044368586994,0.03532455336745874 l -0.47429698197196274 5.496915300865108" fill="red" stroke="none" /><path d="M 101.80526077348638 79.07773832637324 l 0.442861085307402 -5.1325856341373255 a26.1516561640537,26.1516561640537 0 0,0 0.4481582827818313,0.042558029020610406 l -0.5311444951794775 5.124202060601537" fill="red" stroke="none" /><path d="M 102.16513564639614 79.11191278185805 l 0.527711874457591 -5.091085945615895 a26.11836262178553,26.11836262178553 0 0,0 0.44678978588344714,0.05020203829226054 l -0.6152683638507634 5.081247953853033" fill="red" stroke="none" /><path d="M 102.52436894288641 79.15227682838746 l 3.5531769363500683 -29.34422456651096 a50.5585619026169,50.5585619026169 0 0,0 0.8630714185672613,0.11205144044559932 l -4.057763083425176 29.27871480290122" fill="red" stroke="none" /><path d="M 102.88285421437855 79.19881850522331 l 0.7063772337039236 -5.096851921532557 a26.145567831282115,26.145567831282115 0 0,0 0.44526028956062674,0.06561979235486191 l -0.794006503693206 5.083937645016726" fill="red" stroke="none" /><path d="M 103.2404852339499 79.25152402106235 l 5.377973030641219 -34.434578831769755 a55.852013044294445,55.852013044294445 0 0,0 0.9486086586309713,0.15652855666674087 l -5.969910895411066 34.336904012163394" fill="red" stroke="none" /><path d="M 103.59715602781102 79.31037775812273 l 0.9194656620217987 -5.288454841694729 a26.367790207923704,26.367790207923704 0 0,0 0.4465007068415631,0.08159515021460152 l -1.0103614899662627 5.271844210129389" fill="red" stroke="none" /><path d="M 103.95276090670814 79.375362276772 l 0.9706159971358278 -5.064460963303677 a26.15663264764156,26.15663264764156 0 0,0 0.4414661535977623,0.08855395731376432 l -1.0576485602007155 5.047003049912704" fill="red" stroke="none" /><path d="M 104.307194497241 79.44645832069477 l 1.1637613516047127 -5.5533636710145675 a26.673992293441472,26.673992293441472 0 0,0 0.4485768787762657,0.09804153128325975 l -1.2591809545345065 5.532508641635437" fill="red" stroke="none" /><path d="M 104.66035177308747 79.52364482259891 l 1.229113227498193 -5.400398988083509 a26.538504180417707,26.538504180417707 0 0,0 0.4445531978150951,0.10521137898506765 l -1.3218901122758118 5.378441696957573" fill="red" stroke="none" /><path d="M 105.01212808612495 79.60689891045804 l 6.688502527725282 -27.21385125075955 a49.023735760277475,49.023735760277475 0 0,0 0.8177418514418703,0.20846060571437655 l -7.155953267852177 27.094687648876306" fill="red" stroke="none" /><path d="M 105.36241919743992 79.69619591428918 l 7.532823239932083 -28.52163578499942 a50.499612435017184,50.499612435017184 0 0,0 0.8385391166416681,0.22920441657680976 l -8.02266024579746 28.38774482759632" fill="red" stroke="none" /><path d="M 105.71112130821622 79.79150937346287 l 15.23937020637034 -53.92367861749242 a77.03571646663775,77.03571646663775 0 0,0 1.2729593904098935,0.3716117529054931 l -16.16531981450366 53.65336853566822" fill="red" stroke="none" /><path d="M 106.0581310904928 79.89281104454417 l 13.225841297731188 -43.897117130015765 a66.84626233793868,66.84626233793868 0 0,0 1.0988717875558598,0.34142481342737846 l -13.979498457997765 43.66295218170586" fill="red" stroke="none" /><path d="M 106.40334571778207 80.00007090966166 l 3.2465437458799693 -10.140112305035885 a31.647155669597986,31.647155669597986 0 0,0 0.517381531835298,0.17057255657285683 l -3.420608099957685 10.082726024203792" fill="red" stroke="none" /><path d="M 106.74666289553966 80.11325718540242 l 1.6884309786088763 -4.976889041542699 a26.255494620048044,26.255494620048044 0 0,0 0.42673680028772853,0.1488800904236675 l -1.7738497829598785 4.947088097946824" fill="red" stroke="none" /><path d="M 107.08798089147638 80.2323363322302 l 1.6707932170491155 -4.659673732012356 a25.950162549143542,25.950162549143542 0 0,0 0.4191787517020981,0.15438707184688993 l -1.7507542945237902 4.630223392359142" fill="red" stroke="none" /><path d="M 107.4271985657038 80.35727306442388 l 10.355077683782714 -27.386094708502977 a50.278418967223445,50.278418967223445 0 0,0 0.8068892204359217,0.31306048175297063 l -10.824950069218302 27.20379152285946" fill="red" stroke="none" /><path d="M 107.76421540070413 80.48803036053334 l 11.246606037825721 -28.263439926872277 a51.418878741169536,51.418878741169536 0 0,0 0.8195584820165807,0.3343184827025372 l -11.731448389430689 28.06566055798616" fill="red" stroke="none" /><path d="M 108.09893153111575 80.62456947434976 l 11.321172494321658 -27.08413946826053 a50.355060166560264,50.355060166560264 0 0,0 0.7968478271806614,0.34116865380763156 l -11.785704079292636 26.88525128649011" fill="red" stroke="none" /><path d="M 109.08828744355905 81.06846463323043 l 2.5627814802987126 -5.338452214774722 a26.921732935990544,26.921732935990544 0 0,0 0.41604170855240663,0.20414985953736353 l -2.654294455861551 5.293547195102526" fill="red" stroke="none" /><path d="M 109.41281617654863 81.2277094730956 l 2.373491648599163 -4.733532872095455 a26.2952616608793,26.2952616608793 0 0,0 0.4028678412141617,0.20636455574174 l -2.4546199774020803 4.691975791041214" fill="red" stroke="none" /><path d="M 109.73455568895987 81.39251694778311 l 9.422162369231055 -18.010347077220924 a41.32608534750639,41.32608534750639 0 0,0 0.6274774771736282,0.3351767373849756 l -9.730784892932995 17.845491613334193" fill="red" stroke="none" /><path d="M 110.05341064243156 81.56283822128135 l 11.644485787146621 -21.3550680384509 a45.323506740886,45.323506740886 0 0,0 0.681743046582244,0.3793892673154834 l -12.0103529228009 21.151463373575236" fill="red" stroke="none" /><line stroke="#e1ed5e" stroke-width="0.3" x1="143.23703022742887" x2="145.7803849466894" y1="26.81831364943548" y2="22.513508569990506" /><path d="M 143.74570117128098 25.957352633546492 a86.0,86.0 0 0,1 28.547481713284135,27.462654790039103" fill="none" id="id26" stroke="none" /><text fill="#e1ed5e" style="font-size:6.75px; font-family:Arial;" text-anchor="middle"><textPath startOffset="19.985693538727396" xlink:href="#id26">February</textPath></text><path d="M 117.65298651832404 88.62581576622439 l 29.971198280169887 -19.311062782029225 a56.653749762412545,56.653749762412545 0 0,0 0.5211400487278738,0.8243184050340897 l -30.299165925143715 18.792296729280928" fill="red" stroke="none" /><line stroke="#e1ed5e" stroke-width="0.3" x1="172.23445277983987" x2="176.4835382374775" y1="55.19839476539836" y2="52.563006222186495" /><path d="M 173.08426987136738 54.67131705675599 a86.0,86.0 0 0,1 12.851231095245387,41.99856678651699" fill="none" id="id27" stroke="none" /><text fill="#e1ed5e" style="font-size:6.75px; font-family:Arial;" text-anchor="middle"><textPath startOffset="22.20632615414155" xlink:href="#id27">March</textPath></text><path d="M 117.84615892207809 88.93136811851018 l 17.026296196122157 -10.560132615816785 a41.03524801497903,41.03524801497903 0 0,0 0.3671368959724357,0.6034765248316983 l -17.205548890380815 10.265488317778006" fill="red" stroke="none" /><path d="M 118.03404312379186 89.2402003453031 l 25.30409260079547 -15.097389141166158 a50.46571331614821,50.46571331614821 0 0,0 0.4386679874674682,0.7498257868992578 l -25.560220262733267 14.659583941913006" fill="red" stroke="none" /><path d="M 118.21658344932153 89.55222093294921 l 43.95808142481903 -25.211331434108388 a71.67468949319257,71.67468949319257 0 0,0 0.6046011217360288,1.0755179323623023 l -44.38554018784749 24.450929991811293" fill="red" stroke="none" /><path d="M 118.56541770881063 90.18545643968196 l 6.465335484233833 -3.4178771378771216 a28.31316942599556,28.31316942599556 0 0,0 0.22406579409237454,0.4328237954766186 l -6.523210711486324 3.3060806201401585" fill="red" stroke="none" /><path d="M 118.73160827565052 90.50648371742162 l 22.841349886334008 -11.57640731489466 a46.60742999502834,46.60742999502834 0 0,0 0.356524616698871,0.7187318718379222 l -23.037234515986288 11.181515854557787" fill="red" stroke="none" /><path d="M 118.89224826269711 90.83032412892265 l 40.999262847997095 -19.899693569640025 a66.57342820377602,66.57342820377602 0 0,0 0.49150783575521917,1.035240852226334 l -41.33572887759407 19.19101030177315" fill="red" stroke="none" /><path d="M 119.196687751892 91.48605970444005 l 5.128366854056079 -2.27448660797531 a26.610119064658083,26.610119064658083 0 0,0 0.18210101532303624,0.420314250304735 l -5.166758579221796 2.185873213083972" fill="red" stroke="none" /><path d="M 119.34039704204932 91.81776055985345 l 4.900950449560453 -2.0734191741468186 a26.32150189145569,26.32150189145569 0 0,0 0.17294268712403907,0.41879443456175364 l -4.935914823570689 1.988750169131762" fill="red" stroke="none" /><path d="M 119.61058180528143 92.48833698450437 l 24.64461203357804 -9.439904566931851 a47.39069344519693,47.39069344519693 0 0,0 0.2852364856761427,0.764291970953516 l -24.803453107755807 9.014289458949001" fill="red" stroke="none" /><path d="M 119.7369772167798 92.82701384747503 l 25.577050826994718 -9.295437157848305 a48.21379578379646,48.21379578379646 0 0,0 0.27676307353341223,0.7824464781952533 l -25.73326698133794 8.853793053226436" fill="red" stroke="none" /><path d="M 119.85752413597 93.16781622104841 l 5.671177244892787 -1.9512263923139455 a26.99746077745009,26.99746077745009 0 0,0 0.14740961495394858,0.44073598606236886 l -5.703924153618506 1.8533173033292625" fill="red" stroke="none" /><path d="M 119.97218684219823 93.5106431181261 l 26.82514601709934 -8.716018295279277 a49.20562769665557,49.20562769665557 0 0,0 0.25480200855974117,0.8077919980621708 l -26.971203509427287 8.252976130790685" fill="red" stroke="none" /><path d="M 120.28053869075195 94.5502522615342 l 45.01510103158406 -12.096372230760933 a67.61203215939898,67.61203215939898 0 0,0 0.2923533585607851,1.1265567489752277 l -45.216650722015146 11.319719056236856" fill="red" stroke="none" /><path d="M 120.45610955862082 95.25157060432595 l 26.552477549987767 -6.163565196257088 a48.25845923692526,48.25845923692526 0 0,0 0.18086721983711354,0.810792282031925 l -26.654639156826917 5.705594744675199" fill="red" stroke="none" /><path d="M 120.6074358757038 95.95851677861258 l 5.30297314225754 -1.0400069716179605 a26.40399284312246,26.40399284312246 0 0,0 0.08363059380235936,0.4467579761753812 l -5.320089459969758 0.9485709179800166" fill="red" stroke="none" /><path d="M 120.83666639777658 97.38593545837742 l 15.305894220857466 -1.9202013698716622 a36.425873433972384,36.425873433972384 0 0,0 0.0726950236739872,0.6228065687359136 l -15.336679597535042 1.656451062810896" fill="red" stroke="none" /><path d="M 120.87857604477298 97.74499172005257 l 32.71009685331499 -3.532881700549404 a53.90032962241144,53.90032962241144 0 0,0 0.09168927146608813,0.92329845087038 l -32.7660632504633 2.9693077189745893" fill="red" stroke="none" /><path d="M 120.94382443527127 98.46500227214037 l 5.984921100495027 -0.4386419643208805 a27.00097386696642,27.00097386696642 0 0,0 0.029983178708708497,0.46382650375470513 l -5.991584870208151 0.3355563963131401" fill="red" stroke="none" /><path d="M 120.96714384426684 98.82574320788733 l 6.283026038577818 -0.351878446373998 a27.29287173256133,27.29287173256133 0 0,0 0.022232502680482092,0.46929299290433246 l -6.288152149491796 0.24367434684666578" fill="red" stroke="none" /><line stroke="#e1ed5e" stroke-width="0.3" x1="184.98032266829074" x2="189.97916517819016" y1="98.17113171792111" y2="98.06355123074" /><path d="M 185.9800911702706 98.14961562048488 a86.0,86.0 0 0,1 -9.607161424134198,41.387399972396054" fill="none" id="id28" stroke="none" /><text fill="#e1ed5e" style="font-size:6.75px; font-family:Arial;" text-anchor="middle"><textPath startOffset="21.466115282336823" xlink:href="#id28">April</textPath></text><path d="M 120.99980553446 99.90962569577887 l 24.74700296477722 -0.10650066120040835 a45.747232130675314,45.747232130675314 0 0,0 -0.0033890044296869728,0.7874852768407133 l -24.74516966305803 -0.3194940938439897" fill="red" stroke="none" /><path d="M 120.99824983174949 100.27111621757518 l 10.931140447735498 0.14113602208371515 a31.932051539617284,31.932051539617284 0 0,0 -0.011826928343535924,0.5495508871015538 l -10.927091456706954 -0.3292767249753838" fill="red" stroke="none" /><path d="M 120.9764740272857 100.99374915477107 l 7.463154239835612 0.35356291091226816 a28.471524472257922,28.471524472257922 0 0,0 -0.027405400256159246,0.4893418314802878 l -7.455962488691923 -0.48197645872797934" fill="red" stroke="none" /><path d="M 120.89721153311464 102.0752229133903 l 5.812579461839954 0.5772252468228845 a26.841170172642926,26.841170172642926 0 0,0 -0.04961487862479106,0.4593721564268617 l -5.801782281714111 -0.6771937251345376" fill="red" stroke="none" /><path d="M 120.8583938346157 102.4346265915055 l 30.512755611602064 3.561499834605266 a51.719904558530885,51.719904558530885 0 0,0 -0.11082464985861665,0.8833815007188314 l -30.4469294524966 -4.086199089611492" fill="red" stroke="none" /><path d="M 120.81339534386255 102.79330883721812 l 40.051891405521964 5.375254751182876 a61.41098079482652,61.41098079482652 0 0,0 -0.1496262433508842,1.0464855975025138 l -39.95343111115448 -6.063885820665799" fill="red" stroke="none" /><path d="M 120.76222939487914 103.15116336523771 l 13.777280414634157 2.0910308083731093 a34.935058861197085,34.935058861197085 0 0,0 -0.09535315643852105,0.5937641961643662 l -13.739245503834347 -2.3278742342306806" fill="red" stroke="none" /><path d="M 120.64145759157962 103.86396538481128 l 5.915754267454006 1.1073961038399045 a27.01851100220811,27.01851100220811 0 0,0 -0.08950855339625594,0.4564021853855728 l -5.895815781082086 -1.2090620162934222" fill="red" stroke="none" /><path d="M 120.5718875245553 104.21870165774334 l 10.249188249657404 2.1018133317977057 a31.46247958462228,31.46247958462228 0 0,0 -0.11336375056585854,0.5295977019078517 l -10.211490460367102 -2.2779248531217267" fill="red" stroke="none" /><path d="M 120.49622156327973 104.57218783832717 l 61.488664689839204 13.716563514981502 a84.0,84.0 0 0,0 -0.3269577362777887,1.4085253706057403 l -61.24344638763086 -14.772957542935806" fill="red" stroke="none" /><path d="M 120.41448212921028 104.9243191809786 l 21.535896177977367 5.194823261131638 a43.1535778804015,43.1535778804015 0 0,0 -0.18039980407553244,0.7206075425263399 l -21.443285059606776 -5.564758643055374" fill="red" stroke="none" /><path d="M 120.32669344350535 105.2749913415812 l 46.686621208270296 12.115670624234971 a69.23308070732642,69.23308070732642 0 0,0 -0.30928040390187056,1.1509474380531752 l -46.47115272802665 -12.917508995463695" fill="red" stroke="none" /><path d="M 120.23288151984713 105.62410040840565 l 12.240281603825743 3.402410709495262 a33.70436509145746,33.70436509145746 0 0,0 -0.16018780024793192,0.5576347473281533 l -12.179901166691712 -3.612602932327997" fill="red" stroke="none" /><path d="M 120.02730092923936 106.31721596034902 l 33.75905016872753 10.64862465918959 a56.39868183177112,56.39868183177112 0 0,0 -0.3000080853846686,0.9233299454078688 l -33.57074983232661 -11.228153504575253" fill="red" stroke="none" /><path d="M 119.9155931802556 106.66101706037122 l 33.746761748156686 11.287022872088498 a56.58427762090865,56.58427762090865 0 0,0 -0.31689666060345756,0.9210500317523713 l -33.54747425661 -11.86624560693017" fill="red" stroke="none" /><line stroke="#e1ed5e" stroke-width="0.3" x1="174.80103733775053" x2="179.2010983576182" y1="140.37084112569926" y2="142.7455964860345" /><path d="M 175.68104954172406 140.8457921977663 a86.0,86.0 0 0,1 -30.038265399797805,32.042727171017184" fill="none" id="id29" stroke="none" /><text fill="#e1ed5e" style="font-size:6.75px; font-family:Arial;" text-anchor="middle"><textPath startOffset="22.206326154141568" xlink:href="#id29">May</textPath></text><line stroke="#e1ed5e" stroke-width="0.3" x1="143.8653032363475" x2="146.44561519142675" y1="172.8068346515853" y2="177.08958963109032" /><path d="M 144.38136562736335 173.6633856474863 a86.0,86.0 0 0,1 -40.68145358897372,12.25698825130547" fill="none" id="id30" stroke="none" /><text fill="#e1ed5e" style="font-size:6.75px; font-family:Arial;" text-anchor="middle"><textPath startOffset="21.466115282336833" xlink:href="#id30">June</textPath></text><line stroke="#e1ed5e" stroke-width="0.3" x1="102.19456741930631" x2="102.32365962044197" y1="184.97166512339345" y2="189.96999836594603" /><path d="M 102.22038585953345 185.97133177190398 a86.0,86.0 0 0,1 -42.740103519485714,-10.115201625700543" fill="none" id="id31" stroke="none" /><text fill="#e1ed5e" style="font-size:6.75px; font-family:Arial;" text-anchor="middle"><textPath startOffset="22.20632615414155" xlink:href="#id31">July</textPath></text><line stroke="#e1ed5e" stroke-width="0.3" x1="58.666819895761336" x2="56.23545636021788" y1="174.27360380694188" y2="178.64263932499728" /><path d="M 58.180547188652646 175.14741091055294 a86.0,86.0 0 0,1 -31.652253787137756,-30.449443065178592" fill="none" id="id32" stroke="none" /><text fill="#e1ed5e" style="font-size:6.75px; font-family:Arial;" text-anchor="middle"><textPath startOffset="22.20632615414155" xlink:href="#id32">August</textPath></text><line stroke="#e1ed5e" stroke-width="0.3" x1="26.63291911575756" x2="22.317208475507996" y1="142.92168965132927" y2="145.44649492493687" /><path d="M 25.769776987707644 143.4266507060508 a86.0,86.0 0 0,1 -11.730757126820373,-40.83630448921669" fill="none" id="id33" stroke="none" /><text fill="#e1ed5e" style="font-size:6.75px; font-family:Arial;" text-anchor="middle"><textPath startOffset="21.46611528233685" xlink:href="#id33">September</textPath></text><line stroke="#e1ed5e" stroke-width="0.3" x1="15.007084014347285" x2="10.007500721073583" y1="101.09737516637583" y2="101.16192664675087" /><path d="M 14.007167355692545 101.11028546245083 a86.0,86.0 0 0,1 10.666146001902534,-42.60595125391555" fill="none" id="id34" stroke="none" /><text fill="#e1ed5e" style="font-size:6.75px; font-family:Arial;" text-anchor="middle"><textPath startOffset="22.20632615414155" xlink:href="#id34">October</textPath></text><line stroke="#e1ed5e" stroke-width="0.3" x1="26.266209847984243" x2="21.928928074336255" y1="57.711370442889674" y2="55.22380399835377" /><path d="M 25.398753493254645 57.213857153982495 a86.0,86.0 0 0,1 29.58750427330803,-30.492523968695096" fill="none" id="id35" stroke="none" /><text fill="#e1ed5e" style="font-size:6.75px; font-family:Arial;" text-anchor="middle"><textPath startOffset="21.46611528233685" xlink:href="#id35">November</textPath></text><line stroke="#e1ed5e" stroke-width="0.3" x1="56.762969772571076" x2="54.21961505331055" y1="26.818313649435495" y2="22.513508569990535" /><path d="M 56.25429882871897 25.957352633546506 a86.0,86.0 0 0,1 42.265352541879196,-11.944610805530505" fill="none" id="id36" stroke="none" /><text fill="#e1ed5e" style="font-size:6.75px; font-family:Arial;" text-anchor="middle"><textPath startOffset="22.20632615414155" xlink:href="#id36">December</textPath></text></svg>